<?xml version="1.0" encoding="UTF-8" standalone="no"?><!-- Generated by graphviz version 2.40.1 (20161225.0304)
 --><!-- Title: ndiag Pages: 1 --><svg width="362pt" height="270pt" viewBox="0.00 0.00 362.00 270.40" xmlns="http://www.w3.org/2000/svg" xmlns:xlink="http://www.w3.org/1999/xlink"><g id="graph0" class="graph" transform="scale(1 1) rotate(0) translate(4 266.4)"><title>ndiag</title><polygon fill="#ffffff" stroke="transparent" points="-4,4 -4,-266.4 357.9985,-266.4 357.9985,4 -4,4"></polygon><g id="clust3" class="cluster"><title>cluster_LINE</title><polygon fill="none" stroke="#999999" stroke-width="2" points="8,-8 8,-84.8 184,-84.8 184,-8 8,-8"></polygon><text text-anchor="middle" x="96" y="-68.2" font-family="Arial" font-size="14.00" fill="#666666">LINE</text></g><g id="clust2" class="cluster"><title>cluster_GMOあおぞらネット銀行</title><polygon fill="none" stroke="#999999" stroke-width="2" points="117,-177.6 117,-254.4 292,-254.4 292,-177.6 117,-177.6"></polygon><text text-anchor="middle" x="204.5" y="-237.8" font-family="Arial" font-size="14.00" fill="#666666">GMOあおぞらネット銀行</text></g><g id="clust1" class="cluster"><title>cluster_三菱UFJ銀行</title><polygon fill="none" stroke="#000000" stroke-width="2" points="132,-92.8 132,-169.6 239,-169.6 239,-92.8 132,-92.8"></polygon><text text-anchor="middle" x="185.5" y="-153" font-family="Arial" font-size="14.00" fill="#000000">三菱UFJ銀行</text></g><!-- 三菱ufj銀行:普通口座 --><g id="node1" class="node"><title>三菱ufj銀行:普通口座</title><path fill="#ffffff" stroke="#4b75b9" stroke-width="3" d="M213.8514,-136.8C213.8514,-136.8 156.1486,-136.8 156.1486,-136.8 150.1486,-136.8 144.1486,-130.8 144.1486,-124.8 144.1486,-124.8 144.1486,-112.8 144.1486,-112.8 144.1486,-106.8 150.1486,-100.8 156.1486,-100.8 156.1486,-100.8 213.8514,-100.8 213.8514,-100.8 219.8514,-100.8 225.8514,-106.8 225.8514,-112.8 225.8514,-112.8 225.8514,-124.8 225.8514,-124.8 225.8514,-130.8 219.8514,-136.8 213.8514,-136.8"></path><text text-anchor="middle" x="185" y="-114.6" font-family="Arial" font-size="14.00" fill="#333333">普通口座</text></g><!-- line:visa line payカード --><g id="node3" class="node"><title>line:visa line payカード</title><path fill="#ffffff" stroke="#4b75b9" stroke-width="3" d="M163.6234,-52C163.6234,-52 28.3766,-52 28.3766,-52 22.3766,-52 16.3766,-46 16.3766,-40 16.3766,-40 16.3766,-28 16.3766,-28 16.3766,-22 22.3766,-16 28.3766,-16 28.3766,-16 163.6234,-16 163.6234,-16 169.6234,-16 175.6234,-22 175.6234,-28 175.6234,-28 175.6234,-40 175.6234,-40 175.6234,-46 169.6234,-52 163.6234,-52"></path><text text-anchor="middle" x="96" y="-29.8" font-family="Arial" font-size="14.00" fill="#333333">Visa LINE Payカード</text></g><!-- 三菱ufj銀行:普通口座&#45;&gt;line:visa line payカード --><g id="edge2" class="edge"><title>三菱ufj銀行:普通口座-&gt;line:visa line payカード</title><path fill="none" stroke="#333333" stroke-width="2" stroke-opacity="0.600000" d="M159.9432,-100.3997C159.9432,-100.3997 159.9432,-62.0731 159.9432,-62.0731"></path><polygon fill="#333333" fill-opacity="0.600000" stroke="#333333" stroke-width="2" stroke-opacity="0.600000" points="163.4433,-62.0731 159.9432,-52.0731 156.4433,-62.0731 163.4433,-62.0731"></polygon></g><!-- 管理費・修繕積立金 --><g id="node4" class="node"><title>管理費・修繕積立金</title><path fill="none" stroke="#000000" stroke-width="2" d="M341.997,-52C341.997,-52 206.003,-52 206.003,-52 200.003,-52 194.003,-46 194.003,-40 194.003,-40 194.003,-28 194.003,-28 194.003,-22 200.003,-16 206.003,-16 206.003,-16 341.997,-16 341.997,-16 347.997,-16 353.997,-22 353.997,-28 353.997,-28 353.997,-40 353.997,-40 353.997,-46 347.997,-52 341.997,-52"></path><text text-anchor="middle" x="274" y="-29.8" font-family="Arial" font-size="14.00" fill="#000000">管理費・修繕積立金</text></g><!-- 三菱ufj銀行:普通口座&#45;&gt;管理費・修繕積立金 --><g id="edge3" class="edge"><title>三菱ufj銀行:普通口座-&gt;管理費・修繕積立金</title><path fill="none" stroke="#333333" stroke-width="2" stroke-opacity="0.600000" d="M209.8384,-100.3997C209.8384,-100.3997 209.8384,-62.0731 209.8384,-62.0731"></path><polygon fill="#333333" fill-opacity="0.600000" stroke="#333333" stroke-width="2" stroke-opacity="0.600000" points="213.3385,-62.0731 209.8384,-52.0731 206.3385,-62.0731 213.3385,-62.0731"></polygon></g><!-- gmoあおぞらネット銀行:普通口座 --><g id="node2" class="node"><title>gmoあおぞらネット銀行:普通口座</title><path fill="#ffffff" stroke="#4b75b9" stroke-width="3" d="M213.8514,-221.6C213.8514,-221.6 156.1486,-221.6 156.1486,-221.6 150.1486,-221.6 144.1486,-215.6 144.1486,-209.6 144.1486,-209.6 144.1486,-197.6 144.1486,-197.6 144.1486,-191.6 150.1486,-185.6 156.1486,-185.6 156.1486,-185.6 213.8514,-185.6 213.8514,-185.6 219.8514,-185.6 225.8514,-191.6 225.8514,-197.6 225.8514,-197.6 225.8514,-209.6 225.8514,-209.6 225.8514,-215.6 219.8514,-221.6 213.8514,-221.6"></path><text text-anchor="middle" x="185" y="-199.4" font-family="Arial" font-size="14.00" fill="#333333">普通口座</text></g><!-- gmoあおぞらネット銀行:普通口座&#45;&gt;三菱ufj銀行:普通口座 --><g id="edge1" class="edge"><title>gmoあおぞらネット銀行:普通口座-&gt;三菱ufj銀行:普通口座</title><path fill="none" stroke="#333333" stroke-width="2" stroke-opacity="0.600000" d="M185,-185.1997C185,-185.1997 185,-146.8731 185,-146.8731"></path><polygon fill="#333333" fill-opacity="0.600000" stroke="#333333" stroke-width="2" stroke-opacity="0.600000" points="188.5001,-146.8731 185,-136.8731 181.5001,-146.8731 188.5001,-146.8731"></polygon></g></g></svg>