<?xml version="1.0" encoding="UTF-8" standalone="no"?><!-- Generated by graphviz version 2.40.1 (20161225.0304)
 --><!-- Title: ndiag Pages: 1 --><svg width="643pt" height="270pt" viewBox="0.00 0.00 643.00 270.40" xmlns="http://www.w3.org/2000/svg" xmlns:xlink="http://www.w3.org/1999/xlink"><g id="graph0" class="graph" transform="scale(1 1) rotate(0) translate(4 266.4)"><title>ndiag</title><polygon fill="#ffffff" stroke="transparent" points="-4,4 -4,-266.4 639,-266.4 639,4 -4,4"></polygon><g id="clust3" class="cluster"><title>cluster_クレジットカード</title><polygon fill="none" stroke="#999999" stroke-width="2" points="8,-8 8,-84.8 256,-84.8 256,-8 8,-8"></polygon><text text-anchor="middle" x="132" y="-68.2" font-family="Arial" font-size="14.00" fill="#666666">クレジットカード</text></g><g id="clust2" class="cluster"><title>cluster_メインバンク</title><polygon fill="none" stroke="#999999" stroke-width="2" points="161,-177.6 161,-254.4 353,-254.4 353,-177.6 161,-177.6"></polygon><text text-anchor="middle" x="257" y="-237.8" font-family="Arial" font-size="14.00" fill="#666666">メインバンク</text></g><g id="clust1" class="cluster"><title>cluster_サブバンク</title><polygon fill="none" stroke="#000000" stroke-width="2" points="28,-92.8 28,-169.6 627,-169.6 627,-92.8 28,-92.8"></polygon><text text-anchor="middle" x="327.5" y="-153" font-family="Arial" font-size="14.00" fill="#000000">サブバンク</text></g><!-- サブバンク:楽天銀行 --><g id="node1" class="node"><title>サブバンク:楽天銀行</title><path fill="#ffffff" stroke="#4b75b9" stroke-width="3" d="M219.5796,-136.8C219.5796,-136.8 158.4204,-136.8 158.4204,-136.8 152.4204,-136.8 146.4204,-130.8 146.4204,-124.8 146.4204,-124.8 146.4204,-112.8 146.4204,-112.8 146.4204,-106.8 152.4204,-100.8 158.4204,-100.8 158.4204,-100.8 219.5796,-100.8 219.5796,-100.8 225.5796,-100.8 231.5796,-106.8 231.5796,-112.8 231.5796,-112.8 231.5796,-124.8 231.5796,-124.8 231.5796,-130.8 225.5796,-136.8 219.5796,-136.8"></path><text text-anchor="middle" x="189" y="-114.6" font-family="Arial" font-size="14.00" fill="#333333">楽天銀行</text></g><!-- クレジットカード:楽天カード --><g id="node7" class="node"><title>クレジットカード:楽天カード</title><path fill="#ffffff" stroke="#4b75b9" stroke-width="3" d="M235.9548,-52C235.9548,-52 156.0452,-52 156.0452,-52 150.0452,-52 144.0452,-46 144.0452,-40 144.0452,-40 144.0452,-28 144.0452,-28 144.0452,-22 150.0452,-16 156.0452,-16 156.0452,-16 235.9548,-16 235.9548,-16 241.9548,-16 247.9548,-22 247.9548,-28 247.9548,-28 247.9548,-40 247.9548,-40 247.9548,-46 241.9548,-52 235.9548,-52"></path><text text-anchor="middle" x="196" y="-29.8" font-family="Arial" font-size="14.00" fill="#333333">楽天カード</text></g><!-- サブバンク:楽天銀行&#45;&gt;クレジットカード:楽天カード --><g id="edge2" class="edge"><title>サブバンク:楽天銀行-&gt;クレジットカード:楽天カード</title><path fill="none" stroke="#333333" stroke-width="2" stroke-opacity="0.600000" d="M189,-100.3997C189,-100.3997 189,-62.0731 189,-62.0731"></path><polygon fill="#333333" fill-opacity="0.600000" stroke="#333333" stroke-width="2" stroke-opacity="0.600000" points="192.5001,-62.0731 189,-52.0731 185.5001,-62.0731 192.5001,-62.0731"></polygon></g><!-- サブバンク:住信sbiネット銀行 --><g id="node2" class="node"><title>サブバンク:住信sbiネット銀行</title><path fill="#ffffff" stroke="#4b75b9" stroke-width="3" d="M388.8342,-136.8C388.8342,-136.8 261.1658,-136.8 261.1658,-136.8 255.1658,-136.8 249.1658,-130.8 249.1658,-124.8 249.1658,-124.8 249.1658,-112.8 249.1658,-112.8 249.1658,-106.8 255.1658,-100.8 261.1658,-100.8 261.1658,-100.8 388.8342,-100.8 388.8342,-100.8 394.8342,-100.8 400.8342,-106.8 400.8342,-112.8 400.8342,-112.8 400.8342,-124.8 400.8342,-124.8 400.8342,-130.8 394.8342,-136.8 388.8342,-136.8"></path><text text-anchor="middle" x="325" y="-114.6" font-family="Arial" font-size="14.00" fill="#333333">住信SBIネット銀行</text></g><!-- 住宅ローン --><g id="node9" class="node"><title>住宅ローン</title><path fill="none" stroke="#000000" stroke-width="2" d="M366.2134,-52C366.2134,-52 283.7866,-52 283.7866,-52 277.7866,-52 271.7866,-46 271.7866,-40 271.7866,-40 271.7866,-28 271.7866,-28 271.7866,-22 277.7866,-16 283.7866,-16 283.7866,-16 366.2134,-16 366.2134,-16 372.2134,-16 378.2134,-22 378.2134,-28 378.2134,-28 378.2134,-40 378.2134,-40 378.2134,-46 372.2134,-52 366.2134,-52"></path><text text-anchor="middle" x="325" y="-29.8" font-family="Arial" font-size="14.00" fill="#000000">住宅ローン</text></g><!-- サブバンク:住信sbiネット銀行&#45;&gt;住宅ローン --><g id="edge4" class="edge"><title>サブバンク:住信sbiネット銀行-&gt;住宅ローン</title><path fill="none" stroke="#333333" stroke-width="2" stroke-opacity="0.600000" d="M325,-100.3997C325,-100.3997 325,-62.0731 325,-62.0731"></path><polygon fill="#333333" fill-opacity="0.600000" stroke="#333333" stroke-width="2" stroke-opacity="0.600000" points="328.5001,-62.0731 325,-52.0731 321.5001,-62.0731 328.5001,-62.0731"></polygon></g><!-- サブバンク:イオン銀行 --><g id="node3" class="node"><title>サブバンク:イオン銀行</title><path fill="#ffffff" stroke="#4b75b9" stroke-width="3" d="M116.493,-136.8C116.493,-136.8 47.507,-136.8 47.507,-136.8 41.507,-136.8 35.507,-130.8 35.507,-124.8 35.507,-124.8 35.507,-112.8 35.507,-112.8 35.507,-106.8 41.507,-100.8 47.507,-100.8 47.507,-100.8 116.493,-100.8 116.493,-100.8 122.493,-100.8 128.493,-106.8 128.493,-112.8 128.493,-112.8 128.493,-124.8 128.493,-124.8 128.493,-130.8 122.493,-136.8 116.493,-136.8"></path><text text-anchor="middle" x="82" y="-114.6" font-family="Arial" font-size="14.00" fill="#333333">イオン銀行</text></g><!-- クレジットカード:イオンカード --><g id="node8" class="node"><title>クレジットカード:イオンカード</title><path fill="#ffffff" stroke="#4b75b9" stroke-width="3" d="M114.3683,-52C114.3683,-52 27.6317,-52 27.6317,-52 21.6317,-52 15.6317,-46 15.6317,-40 15.6317,-40 15.6317,-28 15.6317,-28 15.6317,-22 21.6317,-16 27.6317,-16 27.6317,-16 114.3683,-16 114.3683,-16 120.3683,-16 126.3683,-22 126.3683,-28 126.3683,-28 126.3683,-40 126.3683,-40 126.3683,-46 120.3683,-52 114.3683,-52"></path><text text-anchor="middle" x="71" y="-29.8" font-family="Arial" font-size="14.00" fill="#333333">イオンカード</text></g><!-- サブバンク:イオン銀行&#45;&gt;クレジットカード:イオンカード --><g id="edge6" class="edge"><title>サブバンク:イオン銀行-&gt;クレジットカード:イオンカード</title><path fill="none" stroke="#333333" stroke-width="2" stroke-opacity="0.600000" d="M80.9688,-100.3997C80.9688,-100.3997 80.9688,-62.0731 80.9688,-62.0731"></path><polygon fill="#333333" fill-opacity="0.600000" stroke="#333333" stroke-width="2" stroke-opacity="0.600000" points="84.4689,-62.0731 80.9688,-52.0731 77.4689,-62.0731 84.4689,-62.0731"></polygon></g><!-- サブバンク:千葉銀行 --><g id="node4" class="node"><title>サブバンク:千葉銀行</title><path fill="#ffffff" stroke="#4b75b9" stroke-width="3" d="M485.2416,-136.8C485.2416,-136.8 430.7584,-136.8 430.7584,-136.8 424.7584,-136.8 418.7584,-130.8 418.7584,-124.8 418.7584,-124.8 418.7584,-112.8 418.7584,-112.8 418.7584,-106.8 424.7584,-100.8 430.7584,-100.8 430.7584,-100.8 485.2416,-100.8 485.2416,-100.8 491.2416,-100.8 497.2416,-106.8 497.2416,-112.8 497.2416,-112.8 497.2416,-124.8 497.2416,-124.8 497.2416,-130.8 491.2416,-136.8 485.2416,-136.8"></path><text text-anchor="middle" x="458" y="-114.6" font-family="Arial" font-size="14.00" fill="#333333">千葉銀行</text></g><!-- 学費など --><g id="node10" class="node"><title>学費など</title><path fill="none" stroke="#000000" stroke-width="2" d="M486.6533,-52C486.6533,-52 429.3467,-52 429.3467,-52 423.3467,-52 417.3467,-46 417.3467,-40 417.3467,-40 417.3467,-28 417.3467,-28 417.3467,-22 423.3467,-16 429.3467,-16 429.3467,-16 486.6533,-16 486.6533,-16 492.6533,-16 498.6533,-22 498.6533,-28 498.6533,-28 498.6533,-40 498.6533,-40 498.6533,-46 492.6533,-52 486.6533,-52"></path><text text-anchor="middle" x="458" y="-29.8" font-family="Arial" font-size="14.00" fill="#000000">学費など</text></g><!-- サブバンク:千葉銀行&#45;&gt;学費など --><g id="edge8" class="edge"><title>サブバンク:千葉銀行-&gt;学費など</title><path fill="none" stroke="#333333" stroke-width="2" stroke-opacity="0.600000" d="M458,-100.3997C458,-100.3997 458,-62.0731 458,-62.0731"></path><polygon fill="#333333" fill-opacity="0.600000" stroke="#333333" stroke-width="2" stroke-opacity="0.600000" points="461.5001,-62.0731 458,-52.0731 454.5001,-62.0731 461.5001,-62.0731"></polygon></g><!-- サブバンク:ゆうちょ銀行 --><g id="node5" class="node"><title>サブバンク:ゆうちょ銀行</title><path fill="#ffffff" stroke="#4b75b9" stroke-width="3" d="M606.6155,-136.8C606.6155,-136.8 527.3845,-136.8 527.3845,-136.8 521.3845,-136.8 515.3845,-130.8 515.3845,-124.8 515.3845,-124.8 515.3845,-112.8 515.3845,-112.8 515.3845,-106.8 521.3845,-100.8 527.3845,-100.8 527.3845,-100.8 606.6155,-100.8 606.6155,-100.8 612.6155,-100.8 618.6155,-106.8 618.6155,-112.8 618.6155,-112.8 618.6155,-124.8 618.6155,-124.8 618.6155,-130.8 612.6155,-136.8 606.6155,-136.8"></path><text text-anchor="middle" x="567" y="-114.6" font-family="Arial" font-size="14.00" fill="#333333">ゆうちょ銀行</text></g><!-- メインバンク:gmoあおぞらネット銀行 --><g id="node6" class="node"><title>メインバンク:gmoあおぞらネット銀行</title><path fill="#ffffff" stroke="#4b75b9" stroke-width="3" d="M332.6661,-221.6C332.6661,-221.6 181.3339,-221.6 181.3339,-221.6 175.3339,-221.6 169.3339,-215.6 169.3339,-209.6 169.3339,-209.6 169.3339,-197.6 169.3339,-197.6 169.3339,-191.6 175.3339,-185.6 181.3339,-185.6 181.3339,-185.6 332.6661,-185.6 332.6661,-185.6 338.6661,-185.6 344.6661,-191.6 344.6661,-197.6 344.6661,-197.6 344.6661,-209.6 344.6661,-209.6 344.6661,-215.6 338.6661,-221.6 332.6661,-221.6"></path><text text-anchor="middle" x="257" y="-199.4" font-family="Arial" font-size="14.00" fill="#333333">GMOあおぞらネット銀行</text></g><!-- メインバンク:gmoあおぞらネット銀行&#45;&gt;サブバンク:楽天銀行 --><g id="edge1" class="edge"><title>メインバンク:gmoあおぞらネット銀行-&gt;サブバンク:楽天銀行</title><path fill="none" stroke="#333333" stroke-width="2" stroke-opacity="0.600000" d="M200.6031,-185.1997C200.6031,-185.1997 200.6031,-146.8731 200.6031,-146.8731"></path><polygon fill="#333333" fill-opacity="0.600000" stroke="#333333" stroke-width="2" stroke-opacity="0.600000" points="204.1032,-146.8731 200.6031,-136.8731 197.1032,-146.8731 204.1032,-146.8731"></polygon></g><!-- メインバンク:gmoあおぞらネット銀行&#45;&gt;サブバンク:住信sbiネット銀行 --><g id="edge3" class="edge"><title>メインバンク:gmoあおぞらネット銀行-&gt;サブバンク:住信sbiネット銀行</title><path fill="none" stroke="#333333" stroke-width="2" stroke-opacity="0.600000" d="M296.9581,-185.1997C296.9581,-185.1997 296.9581,-146.8731 296.9581,-146.8731"></path><polygon fill="#333333" fill-opacity="0.600000" stroke="#333333" stroke-width="2" stroke-opacity="0.600000" points="300.4581,-146.8731 296.9581,-136.8731 293.4581,-146.8731 300.4581,-146.8731"></polygon></g><!-- メインバンク:gmoあおぞらネット銀行&#45;&gt;サブバンク:イオン銀行 --><g id="edge5" class="edge"><title>メインバンク:gmoあおぞらネット銀行-&gt;サブバンク:イオン銀行</title><path fill="none" stroke="#333333" stroke-width="2" stroke-opacity="0.600000" d="M169.2437,-203C125.5793,-203 82,-203 82,-203 82,-203 82,-147.0701 82,-147.0701"></path><polygon fill="#333333" fill-opacity="0.600000" stroke="#333333" stroke-width="2" stroke-opacity="0.600000" points="85.5001,-147.0701 82,-137.0701 78.5001,-147.0702 85.5001,-147.0701"></polygon></g><!-- メインバンク:gmoあおぞらネット銀行&#45;&gt;サブバンク:千葉銀行 --><g id="edge7" class="edge"><title>メインバンク:gmoあおぞらネット銀行-&gt;サブバンク:千葉銀行</title><path fill="none" stroke="#333333" stroke-width="2" stroke-opacity="0.600000" d="M344.8691,-203C398.9551,-203 458,-203 458,-203 458,-203 458,-147.0701 458,-147.0701"></path><polygon fill="#333333" fill-opacity="0.600000" stroke="#333333" stroke-width="2" stroke-opacity="0.600000" points="461.5001,-147.0701 458,-137.0701 454.5001,-147.0702 461.5001,-147.0701"></polygon></g><!-- 日本 --><g id="node11" class="node"><title>日本</title><path fill="none" stroke="#000000" stroke-width="2" d="M582,-221.6C582,-221.6 552,-221.6 552,-221.6 546,-221.6 540,-215.6 540,-209.6 540,-209.6 540,-197.6 540,-197.6 540,-191.6 546,-185.6 552,-185.6 552,-185.6 582,-185.6 582,-185.6 588,-185.6 594,-191.6 594,-197.6 594,-197.6 594,-209.6 594,-209.6 594,-215.6 588,-221.6 582,-221.6"></path><text text-anchor="middle" x="567" y="-199.4" font-family="Arial" font-size="14.00" fill="#000000">日本</text></g><!-- 日本&#45;&gt;サブバンク:ゆうちょ銀行 --><g id="edge9" class="edge"><title>日本-&gt;サブバンク:ゆうちょ銀行</title><path fill="none" stroke="#333333" stroke-width="2" stroke-opacity="0.600000" d="M567,-185.1997C567,-185.1997 567,-146.8731 567,-146.8731"></path><polygon fill="#333333" fill-opacity="0.600000" stroke="#333333" stroke-width="2" stroke-opacity="0.600000" points="570.5001,-146.8731 567,-136.8731 563.5001,-146.8731 570.5001,-146.8731"></polygon></g></g></svg>