<?xml version="1.0" encoding="UTF-8" standalone="no"?><!-- Generated by graphviz version 2.40.1 (20161225.0304)
 --><!-- Title: ndiag Pages: 1 --><svg width="728pt" height="222pt" viewBox="0.00 0.00 728.00 221.60" xmlns="http://www.w3.org/2000/svg" xmlns:xlink="http://www.w3.org/1999/xlink"><g id="graph0" class="graph" transform="scale(1 1) rotate(0) translate(4 217.6)"><title>ndiag</title><polygon fill="#ffffff" stroke="transparent" points="-4,4 -4,-217.6 724,-217.6 724,4 -4,4"></polygon><g id="clust6" class="cluster"><title>cluster_イオン銀行</title><polygon fill="none" stroke="#999999" stroke-width="2" points="614,-8 614,-84.8 712,-84.8 712,-8 614,-8"></polygon><text text-anchor="middle" x="663" y="-68.2" font-family="Arial" font-size="14.00" fill="#666666">イオン銀行</text></g><g id="clust5" class="cluster"><title>cluster_セゾンカード</title><polygon fill="none" stroke="#999999" stroke-width="2" points="388,-8 388,-84.8 606,-84.8 606,-8 388,-8"></polygon><text text-anchor="middle" x="497" y="-68.2" font-family="Arial" font-size="14.00" fill="#666666">セゾンカード</text></g><g id="clust4" class="cluster"><title>cluster_住信SBIネット銀行</title><polygon fill="none" stroke="#999999" stroke-width="2" points="229,-8 229,-84.8 380,-84.8 380,-8 229,-8"></polygon><text text-anchor="middle" x="304.5" y="-68.2" font-family="Arial" font-size="14.00" fill="#666666">住信SBIネット銀行</text></g><g id="clust3" class="cluster"><title>cluster_楽天銀行</title><polygon fill="none" stroke="#999999" stroke-width="2" points="123,-8 123,-84.8 221,-84.8 221,-8 123,-8"></polygon><text text-anchor="middle" x="172" y="-68.2" font-family="Arial" font-size="14.00" fill="#666666">楽天銀行</text></g><g id="clust2" class="cluster"><title>cluster_三菱UFJ銀行</title><polygon fill="none" stroke="#999999" stroke-width="2" points="8,-8 8,-84.8 115,-84.8 115,-8 8,-8"></polygon><text text-anchor="middle" x="61.5" y="-68.2" font-family="Arial" font-size="14.00" fill="#666666">三菱UFJ銀行</text></g><g id="clust1" class="cluster"><title>cluster_GMOあおぞらネット銀行</title><polygon fill="none" stroke="#000000" stroke-width="2" points="299,-92.8 299,-169.6 474,-169.6 474,-92.8 299,-92.8"></polygon><text text-anchor="middle" x="386.5" y="-153" font-family="Arial" font-size="14.00" fill="#000000">GMOあおぞらネット銀行</text></g><!-- gmoあおぞらネット銀行:普通口座 --><g id="node1" class="node"><title>gmoあおぞらネット銀行:普通口座</title><path fill="#ffffff" stroke="#4b75b9" stroke-width="3" d="M414.8514,-136.8C414.8514,-136.8 357.1486,-136.8 357.1486,-136.8 351.1486,-136.8 345.1486,-130.8 345.1486,-124.8 345.1486,-124.8 345.1486,-112.8 345.1486,-112.8 345.1486,-106.8 351.1486,-100.8 357.1486,-100.8 357.1486,-100.8 414.8514,-100.8 414.8514,-100.8 420.8514,-100.8 426.8514,-106.8 426.8514,-112.8 426.8514,-112.8 426.8514,-124.8 426.8514,-124.8 426.8514,-130.8 420.8514,-136.8 414.8514,-136.8"></path><text text-anchor="middle" x="386" y="-114.6" font-family="Arial" font-size="14.00" fill="#333333">普通口座</text></g><!-- 三菱ufj銀行:普通口座 --><g id="node2" class="node"><title>三菱ufj銀行:普通口座</title><path fill="#ffffff" stroke="#4b75b9" stroke-width="3" d="M94.8514,-52C94.8514,-52 37.1486,-52 37.1486,-52 31.1486,-52 25.1486,-46 25.1486,-40 25.1486,-40 25.1486,-28 25.1486,-28 25.1486,-22 31.1486,-16 37.1486,-16 37.1486,-16 94.8514,-16 94.8514,-16 100.8514,-16 106.8514,-22 106.8514,-28 106.8514,-28 106.8514,-40 106.8514,-40 106.8514,-46 100.8514,-52 94.8514,-52"></path><text text-anchor="middle" x="66" y="-29.8" font-family="Arial" font-size="14.00" fill="#333333">普通口座</text></g><!-- gmoあおぞらネット銀行:普通口座&#45;&gt;三菱ufj銀行:普通口座 --><g id="edge2" class="edge"><title>gmoあおぞらネット銀行:普通口座-&gt;三菱ufj銀行:普通口座</title><path fill="none" stroke="#333333" stroke-width="2" stroke-opacity="0.600000" d="M345.1467,-124C258.8787,-124 66,-124 66,-124 66,-124 66,-62.2128 66,-62.2128"></path><polygon fill="#333333" fill-opacity="0.600000" stroke="#333333" stroke-width="2" stroke-opacity="0.600000" points="69.5001,-62.2128 66,-52.2128 62.5001,-62.2129 69.5001,-62.2128"></polygon></g><!-- 楽天銀行:普通口座 --><g id="node3" class="node"><title>楽天銀行:普通口座</title><path fill="#ffffff" stroke="#4b75b9" stroke-width="3" d="M200.8514,-52C200.8514,-52 143.1486,-52 143.1486,-52 137.1486,-52 131.1486,-46 131.1486,-40 131.1486,-40 131.1486,-28 131.1486,-28 131.1486,-22 137.1486,-16 143.1486,-16 143.1486,-16 200.8514,-16 200.8514,-16 206.8514,-16 212.8514,-22 212.8514,-28 212.8514,-28 212.8514,-40 212.8514,-40 212.8514,-46 206.8514,-52 200.8514,-52"></path><text text-anchor="middle" x="172" y="-29.8" font-family="Arial" font-size="14.00" fill="#333333">普通口座</text></g><!-- gmoあおぞらネット銀行:普通口座&#45;&gt;楽天銀行:普通口座 --><g id="edge3" class="edge"><title>gmoあおぞらネット銀行:普通口座-&gt;楽天銀行:普通口座</title><path fill="none" stroke="#333333" stroke-width="2" stroke-opacity="0.600000" d="M345.2445,-112C283.1544,-112 172,-112 172,-112 172,-112 172,-62.0908 172,-62.0908"></path><polygon fill="#333333" fill-opacity="0.600000" stroke="#333333" stroke-width="2" stroke-opacity="0.600000" points="175.5001,-62.0908 172,-52.0908 168.5001,-62.0909 175.5001,-62.0908"></polygon></g><!-- 住信sbiネット銀行:普通口座 --><g id="node4" class="node"><title>住信sbiネット銀行:普通口座</title><path fill="#ffffff" stroke="#4b75b9" stroke-width="3" d="M359.8514,-52C359.8514,-52 302.1486,-52 302.1486,-52 296.1486,-52 290.1486,-46 290.1486,-40 290.1486,-40 290.1486,-28 290.1486,-28 290.1486,-22 296.1486,-16 302.1486,-16 302.1486,-16 359.8514,-16 359.8514,-16 365.8514,-16 371.8514,-22 371.8514,-28 371.8514,-28 371.8514,-40 371.8514,-40 371.8514,-46 365.8514,-52 359.8514,-52"></path><text text-anchor="middle" x="331" y="-29.8" font-family="Arial" font-size="14.00" fill="#333333">普通口座</text></g><!-- gmoあおぞらネット銀行:普通口座&#45;&gt;住信sbiネット銀行:普通口座 --><g id="edge4" class="edge"><title>gmoあおぞらネット銀行:普通口座-&gt;住信sbiネット銀行:普通口座</title><path fill="none" stroke="#333333" stroke-width="2" stroke-opacity="0.600000" d="M358.5,-100.3997C358.5,-100.3997 358.5,-62.0731 358.5,-62.0731"></path><polygon fill="#333333" fill-opacity="0.600000" stroke="#333333" stroke-width="2" stroke-opacity="0.600000" points="362.0001,-62.0731 358.5,-52.0731 355.0001,-62.0731 362.0001,-62.0731"></polygon></g><!-- セゾンカード:amex(家族) --><g id="node5" class="node"><title>セゾンカード:amex(家族)</title><path fill="#ffffff" stroke="#4b75b9" stroke-width="3" d="M585.6802,-52C585.6802,-52 518.3198,-52 518.3198,-52 512.3198,-52 506.3198,-46 506.3198,-40 506.3198,-40 506.3198,-28 506.3198,-28 506.3198,-22 512.3198,-16 518.3198,-16 518.3198,-16 585.6802,-16 585.6802,-16 591.6802,-16 597.6802,-22 597.6802,-28 597.6802,-28 597.6802,-40 597.6802,-40 597.6802,-46 591.6802,-52 585.6802,-52"></path><text text-anchor="middle" x="552" y="-29.8" font-family="Arial" font-size="14.00" fill="#333333">Amex(家族)</text></g><!-- gmoあおぞらネット銀行:普通口座&#45;&gt;セゾンカード:amex(家族) --><g id="edge5" class="edge"><title>gmoあおぞらネット銀行:普通口座-&gt;セゾンカード:amex(家族)</title><path fill="none" stroke="#333333" stroke-width="2" stroke-opacity="0.600000" d="M427.0337,-112C476.1911,-112 552,-112 552,-112 552,-112 552,-62.0908 552,-62.0908"></path><polygon fill="#333333" fill-opacity="0.600000" stroke="#333333" stroke-width="2" stroke-opacity="0.600000" points="555.5001,-62.0908 552,-52.0908 548.5001,-62.0909 555.5001,-62.0908"></polygon></g><!-- セゾンカード:三井カード --><g id="node6" class="node"><title>セゾンカード:三井カード</title><path fill="#ffffff" stroke="#4b75b9" stroke-width="3" d="M476.2106,-52C476.2106,-52 407.7894,-52 407.7894,-52 401.7894,-52 395.7894,-46 395.7894,-40 395.7894,-40 395.7894,-28 395.7894,-28 395.7894,-22 401.7894,-16 407.7894,-16 407.7894,-16 476.2106,-16 476.2106,-16 482.2106,-16 488.2106,-22 488.2106,-28 488.2106,-28 488.2106,-40 488.2106,-40 488.2106,-46 482.2106,-52 476.2106,-52"></path><text text-anchor="middle" x="442" y="-29.8" font-family="Arial" font-size="14.00" fill="#333333">三井カード</text></g><!-- gmoあおぞらネット銀行:普通口座&#45;&gt;セゾンカード:三井カード --><g id="edge6" class="edge"><title>gmoあおぞらネット銀行:普通口座-&gt;セゾンカード:三井カード</title><path fill="none" stroke="#333333" stroke-width="2" stroke-opacity="0.600000" d="M411.2851,-100.3997C411.2851,-100.3997 411.2851,-62.0731 411.2851,-62.0731"></path><polygon fill="#333333" fill-opacity="0.600000" stroke="#333333" stroke-width="2" stroke-opacity="0.600000" points="414.7851,-62.0731 411.2851,-52.0731 407.7851,-62.0731 414.7851,-62.0731"></polygon></g><!-- イオン銀行:普通口座 --><g id="node7" class="node"><title>イオン銀行:普通口座</title><path fill="#ffffff" stroke="#4b75b9" stroke-width="3" d="M691.8514,-52C691.8514,-52 634.1486,-52 634.1486,-52 628.1486,-52 622.1486,-46 622.1486,-40 622.1486,-40 622.1486,-28 622.1486,-28 622.1486,-22 628.1486,-16 634.1486,-16 634.1486,-16 691.8514,-16 691.8514,-16 697.8514,-16 703.8514,-22 703.8514,-28 703.8514,-28 703.8514,-40 703.8514,-40 703.8514,-46 697.8514,-52 691.8514,-52"></path><text text-anchor="middle" x="663" y="-29.8" font-family="Arial" font-size="14.00" fill="#333333">普通口座</text></g><!-- gmoあおぞらネット銀行:普通口座&#45;&gt;イオン銀行:普通口座 --><g id="edge7" class="edge"><title>gmoあおぞらネット銀行:普通口座-&gt;イオン銀行:普通口座</title><path fill="none" stroke="#333333" stroke-width="2" stroke-opacity="0.600000" d="M426.8723,-124C503.9245,-124 663,-124 663,-124 663,-124 663,-62.2128 663,-62.2128"></path><polygon fill="#333333" fill-opacity="0.600000" stroke="#333333" stroke-width="2" stroke-opacity="0.600000" points="666.5001,-62.2128 663,-52.2128 659.5001,-62.2129 666.5001,-62.2128"></polygon></g><!-- 会社 --><g id="node8" class="node"><title>会社</title><path fill="none" stroke="#000000" stroke-width="2" d="M401,-213.6C401,-213.6 371,-213.6 371,-213.6 365,-213.6 359,-207.6 359,-201.6 359,-201.6 359,-189.6 359,-189.6 359,-183.6 365,-177.6 371,-177.6 371,-177.6 401,-177.6 401,-177.6 407,-177.6 413,-183.6 413,-189.6 413,-189.6 413,-201.6 413,-201.6 413,-207.6 407,-213.6 401,-213.6"></path><text text-anchor="middle" x="386" y="-191.4" font-family="Arial" font-size="14.00" fill="#000000">会社</text></g><!-- 会社&#45;&gt;gmoあおぞらネット銀行:普通口座 --><g id="edge1" class="edge"><title>会社-&gt;gmoあおぞらネット銀行:普通口座</title><path fill="none" stroke="#333333" stroke-width="2" stroke-opacity="0.600000" d="M386,-177.3995C386,-177.3995 386,-146.8699 386,-146.8699"></path><polygon fill="#333333" fill-opacity="0.600000" stroke="#333333" stroke-width="2" stroke-opacity="0.600000" points="389.5001,-146.8698 386,-136.8699 382.5001,-146.8699 389.5001,-146.8698"></polygon></g></g></svg>