<?xml version="1.0" encoding="UTF-8" standalone="no"?><!-- Generated by graphviz version 2.40.1 (20161225.0304)
 --><!-- Title: ndiag Pages: 1 --><svg width="237pt" height="222pt" viewBox="0.00 0.00 237.00 221.60" xmlns="http://www.w3.org/2000/svg" xmlns:xlink="http://www.w3.org/1999/xlink"><g id="graph0" class="graph" transform="scale(1 1) rotate(0) translate(4 217.6)"><title>ndiag</title><polygon fill="#ffffff" stroke="transparent" points="-4,4 -4,-217.6 233,-217.6 233,4 -4,4"></polygon><g id="clust3" class="cluster"><title>cluster_楽天銀行</title><polygon fill="none" stroke="#999999" stroke-width="2" points="123,-8 123,-84.8 221,-84.8 221,-8 123,-8"></polygon><text text-anchor="middle" x="172" y="-68.2" font-family="Arial" font-size="14.00" fill="#666666">楽天銀行</text></g><g id="clust2" class="cluster"><title>cluster_三菱UFJ銀行</title><polygon fill="none" stroke="#999999" stroke-width="2" points="8,-8 8,-84.8 115,-84.8 115,-8 8,-8"></polygon><text text-anchor="middle" x="61.5" y="-68.2" font-family="Arial" font-size="14.00" fill="#666666">三菱UFJ銀行</text></g><g id="clust1" class="cluster"><title>cluster_GMOあおぞらネット銀行</title><polygon fill="none" stroke="#000000" stroke-width="2" points="29,-92.8 29,-169.6 204,-169.6 204,-92.8 29,-92.8"></polygon><text text-anchor="middle" x="116.5" y="-153" font-family="Arial" font-size="14.00" fill="#000000">GMOあおぞらネット銀行</text></g><!-- gmoあおぞらネット銀行:普通口座 --><g id="node1" class="node"><title>gmoあおぞらネット銀行:普通口座</title><path fill="#ffffff" stroke="#4b75b9" stroke-width="3" d="M110.8514,-136.8C110.8514,-136.8 53.1486,-136.8 53.1486,-136.8 47.1486,-136.8 41.1486,-130.8 41.1486,-124.8 41.1486,-124.8 41.1486,-112.8 41.1486,-112.8 41.1486,-106.8 47.1486,-100.8 53.1486,-100.8 53.1486,-100.8 110.8514,-100.8 110.8514,-100.8 116.8514,-100.8 122.8514,-106.8 122.8514,-112.8 122.8514,-112.8 122.8514,-124.8 122.8514,-124.8 122.8514,-130.8 116.8514,-136.8 110.8514,-136.8"></path><text text-anchor="middle" x="82" y="-114.6" font-family="Arial" font-size="14.00" fill="#333333">普通口座</text></g><!-- 三菱ufj銀行:普通口座 --><g id="node2" class="node"><title>三菱ufj銀行:普通口座</title><path fill="#ffffff" stroke="#4b75b9" stroke-width="3" d="M94.8514,-52C94.8514,-52 37.1486,-52 37.1486,-52 31.1486,-52 25.1486,-46 25.1486,-40 25.1486,-40 25.1486,-28 25.1486,-28 25.1486,-22 31.1486,-16 37.1486,-16 37.1486,-16 94.8514,-16 94.8514,-16 100.8514,-16 106.8514,-22 106.8514,-28 106.8514,-28 106.8514,-40 106.8514,-40 106.8514,-46 100.8514,-52 94.8514,-52"></path><text text-anchor="middle" x="66" y="-29.8" font-family="Arial" font-size="14.00" fill="#333333">普通口座</text></g><!-- gmoあおぞらネット銀行:普通口座&#45;&gt;三菱ufj銀行:普通口座 --><g id="edge2" class="edge"><title>gmoあおぞらネット銀行:普通口座-&gt;三菱ufj銀行:普通口座</title><path fill="none" stroke="#333333" stroke-width="2" stroke-opacity="0.600000" d="M74,-100.3997C74,-100.3997 74,-62.0731 74,-62.0731"></path><polygon fill="#333333" fill-opacity="0.600000" stroke="#333333" stroke-width="2" stroke-opacity="0.600000" points="77.5001,-62.0731 74,-52.0731 70.5001,-62.0731 77.5001,-62.0731"></polygon></g><!-- 楽天銀行:普通口座 --><g id="node3" class="node"><title>楽天銀行:普通口座</title><path fill="#ffffff" stroke="#4b75b9" stroke-width="3" d="M200.8514,-52C200.8514,-52 143.1486,-52 143.1486,-52 137.1486,-52 131.1486,-46 131.1486,-40 131.1486,-40 131.1486,-28 131.1486,-28 131.1486,-22 137.1486,-16 143.1486,-16 143.1486,-16 200.8514,-16 200.8514,-16 206.8514,-16 212.8514,-22 212.8514,-28 212.8514,-28 212.8514,-40 212.8514,-40 212.8514,-46 206.8514,-52 200.8514,-52"></path><text text-anchor="middle" x="172" y="-29.8" font-family="Arial" font-size="14.00" fill="#333333">普通口座</text></g><!-- gmoあおぞらネット銀行:普通口座&#45;&gt;楽天銀行:普通口座 --><g id="edge3" class="edge"><title>gmoあおぞらネット銀行:普通口座-&gt;楽天銀行:普通口座</title><path fill="none" stroke="#333333" stroke-width="2" stroke-opacity="0.600000" d="M114.6753,-100.3997C114.6753,-75.4593 114.6753,-34 114.6753,-34 114.6753,-34 121.256,-34 121.256,-34"></path><polygon fill="#333333" fill-opacity="0.600000" stroke="#333333" stroke-width="2" stroke-opacity="0.600000" points="121.256,-37.5001 131.256,-34 121.2559,-30.5001 121.256,-37.5001"></polygon></g><!-- 会社 --><g id="node4" class="node"><title>会社</title><path fill="none" stroke="#000000" stroke-width="2" d="M97,-213.6C97,-213.6 67,-213.6 67,-213.6 61,-213.6 55,-207.6 55,-201.6 55,-201.6 55,-189.6 55,-189.6 55,-183.6 61,-177.6 67,-177.6 67,-177.6 97,-177.6 97,-177.6 103,-177.6 109,-183.6 109,-189.6 109,-189.6 109,-201.6 109,-201.6 109,-207.6 103,-213.6 97,-213.6"></path><text text-anchor="middle" x="82" y="-191.4" font-family="Arial" font-size="14.00" fill="#000000">会社</text></g><!-- 会社&#45;&gt;gmoあおぞらネット銀行:普通口座 --><g id="edge1" class="edge"><title>会社-&gt;gmoあおぞらネット銀行:普通口座</title><path fill="none" stroke="#333333" stroke-width="2" stroke-opacity="0.600000" d="M82,-177.3995C82,-177.3995 82,-146.8699 82,-146.8699"></path><polygon fill="#333333" fill-opacity="0.600000" stroke="#333333" stroke-width="2" stroke-opacity="0.600000" points="85.5001,-146.8698 82,-136.8699 78.5001,-146.8699 85.5001,-146.8698"></polygon></g></g></svg>