<?xml version="1.0" encoding="UTF-8" standalone="no"?><!-- Generated by graphviz version 2.40.1 (20161225.0304)
 --><!-- Title: ndiag Pages: 1 --><svg width="834pt" height="222pt" viewBox="0.00 0.00 834.00 221.60" xmlns="http://www.w3.org/2000/svg" xmlns:xlink="http://www.w3.org/1999/xlink"><g id="graph0" class="graph" transform="scale(1 1) rotate(0) translate(4 217.6)"><title>ndiag</title><polygon fill="#ffffff" stroke="transparent" points="-4,4 -4,-217.6 830,-217.6 830,4 -4,4"></polygon><g id="clust7" class="cluster"><title>cluster_千葉銀行</title><polygon fill="none" stroke="#999999" stroke-width="2" points="720,-8 720,-84.8 818,-84.8 818,-8 720,-8"></polygon><text text-anchor="middle" x="769" y="-68.2" font-family="Arial" font-size="14.00" fill="#666666">千葉銀行</text></g><g id="clust6" class="cluster"><title>cluster_イオン銀行</title><polygon fill="none" stroke="#999999" stroke-width="2" points="614,-8 614,-84.8 712,-84.8 712,-8 614,-8"></polygon><text text-anchor="middle" x="663" y="-68.2" font-family="Arial" font-size="14.00" fill="#666666">イオン銀行</text></g><g id="clust5" class="cluster"><title>cluster_セゾンカード</title><polygon fill="none" stroke="#999999" stroke-width="2" points="388,-8 388,-84.8 606,-84.8 606,-8 388,-8"></polygon><text text-anchor="middle" x="497" y="-68.2" font-family="Arial" font-size="14.00" fill="#666666">セゾンカード</text></g><g id="clust4" class="cluster"><title>cluster_住信SBIネット銀行</title><polygon fill="none" stroke="#999999" stroke-width="2" points="229,-8 229,-84.8 380,-84.8 380,-8 229,-8"></polygon><text text-anchor="middle" x="304.5" y="-68.2" font-family="Arial" font-size="14.00" fill="#666666">住信SBIネット銀行</text></g><g id="clust3" class="cluster"><title>cluster_楽天銀行</title><polygon fill="none" stroke="#999999" stroke-width="2" points="123,-8 123,-84.8 221,-84.8 221,-8 123,-8"></polygon><text text-anchor="middle" x="172" y="-68.2" font-family="Arial" font-size="14.00" fill="#666666">楽天銀行</text></g><g id="clust2" class="cluster"><title>cluster_三菱UFJ銀行</title><polygon fill="none" stroke="#999999" stroke-width="2" points="8,-8 8,-84.8 115,-84.8 115,-8 8,-8"></polygon><text text-anchor="middle" x="61.5" y="-68.2" font-family="Arial" font-size="14.00" fill="#666666">三菱UFJ銀行</text></g><g id="clust1" class="cluster"><title>cluster_GMOあおぞらネット銀行</title><polygon fill="none" stroke="#000000" stroke-width="2" points="355,-92.8 355,-169.6 530,-169.6 530,-92.8 355,-92.8"></polygon><text text-anchor="middle" x="442.5" y="-153" font-family="Arial" font-size="14.00" fill="#000000">GMOあおぞらネット銀行</text></g><!-- gmoあおぞらネット銀行:普通口座 --><g id="node1" class="node"><title>gmoあおぞらネット銀行:普通口座</title><path fill="#ffffff" stroke="#4b75b9" stroke-width="3" d="M470.8514,-136.8C470.8514,-136.8 413.1486,-136.8 413.1486,-136.8 407.1486,-136.8 401.1486,-130.8 401.1486,-124.8 401.1486,-124.8 401.1486,-112.8 401.1486,-112.8 401.1486,-106.8 407.1486,-100.8 413.1486,-100.8 413.1486,-100.8 470.8514,-100.8 470.8514,-100.8 476.8514,-100.8 482.8514,-106.8 482.8514,-112.8 482.8514,-112.8 482.8514,-124.8 482.8514,-124.8 482.8514,-130.8 476.8514,-136.8 470.8514,-136.8"></path><text text-anchor="middle" x="442" y="-114.6" font-family="Arial" font-size="14.00" fill="#333333">普通口座</text></g><!-- 三菱ufj銀行:普通口座 --><g id="node2" class="node"><title>三菱ufj銀行:普通口座</title><path fill="#ffffff" stroke="#4b75b9" stroke-width="3" d="M94.8514,-52C94.8514,-52 37.1486,-52 37.1486,-52 31.1486,-52 25.1486,-46 25.1486,-40 25.1486,-40 25.1486,-28 25.1486,-28 25.1486,-22 31.1486,-16 37.1486,-16 37.1486,-16 94.8514,-16 94.8514,-16 100.8514,-16 106.8514,-22 106.8514,-28 106.8514,-28 106.8514,-40 106.8514,-40 106.8514,-46 100.8514,-52 94.8514,-52"></path><text text-anchor="middle" x="66" y="-29.8" font-family="Arial" font-size="14.00" fill="#333333">普通口座</text></g><!-- gmoあおぞらネット銀行:普通口座&#45;&gt;三菱ufj銀行:普通口座 --><g id="edge2" class="edge"><title>gmoあおぞらネット銀行:普通口座-&gt;三菱ufj銀行:普通口座</title><path fill="none" stroke="#333333" stroke-width="2" stroke-opacity="0.600000" d="M401.0456,-127C303.5947,-127 66,-127 66,-127 66,-127 66,-62.3738 66,-62.3738"></path><polygon fill="#333333" fill-opacity="0.600000" stroke="#333333" stroke-width="2" stroke-opacity="0.600000" points="69.5001,-62.3738 66,-52.3738 62.5001,-62.3738 69.5001,-62.3738"></polygon></g><!-- 楽天銀行:普通口座 --><g id="node3" class="node"><title>楽天銀行:普通口座</title><path fill="#ffffff" stroke="#4b75b9" stroke-width="3" d="M200.8514,-52C200.8514,-52 143.1486,-52 143.1486,-52 137.1486,-52 131.1486,-46 131.1486,-40 131.1486,-40 131.1486,-28 131.1486,-28 131.1486,-22 137.1486,-16 143.1486,-16 143.1486,-16 200.8514,-16 200.8514,-16 206.8514,-16 212.8514,-22 212.8514,-28 212.8514,-28 212.8514,-40 212.8514,-40 212.8514,-46 206.8514,-52 200.8514,-52"></path><text text-anchor="middle" x="172" y="-29.8" font-family="Arial" font-size="14.00" fill="#333333">普通口座</text></g><!-- gmoあおぞらネット銀行:普通口座&#45;&gt;楽天銀行:普通口座 --><g id="edge3" class="edge"><title>gmoあおぞらネット銀行:普通口座-&gt;楽天銀行:普通口座</title><path fill="none" stroke="#333333" stroke-width="2" stroke-opacity="0.600000" d="M401.2859,-118C325.859,-118 172,-118 172,-118 172,-118 172,-62.2267 172,-62.2267"></path><polygon fill="#333333" fill-opacity="0.600000" stroke="#333333" stroke-width="2" stroke-opacity="0.600000" points="175.5001,-62.2267 172,-52.2267 168.5001,-62.2268 175.5001,-62.2267"></polygon></g><!-- 住信sbiネット銀行:普通口座 --><g id="node4" class="node"><title>住信sbiネット銀行:普通口座</title><path fill="#ffffff" stroke="#4b75b9" stroke-width="3" d="M359.8514,-52C359.8514,-52 302.1486,-52 302.1486,-52 296.1486,-52 290.1486,-46 290.1486,-40 290.1486,-40 290.1486,-28 290.1486,-28 290.1486,-22 296.1486,-16 302.1486,-16 302.1486,-16 359.8514,-16 359.8514,-16 365.8514,-16 371.8514,-22 371.8514,-28 371.8514,-28 371.8514,-40 371.8514,-40 371.8514,-46 365.8514,-52 359.8514,-52"></path><text text-anchor="middle" x="331" y="-29.8" font-family="Arial" font-size="14.00" fill="#333333">普通口座</text></g><!-- gmoあおぞらネット銀行:普通口座&#45;&gt;住信sbiネット銀行:普通口座 --><g id="edge4" class="edge"><title>gmoあおぞらネット銀行:普通口座-&gt;住信sbiネット銀行:普通口座</title><path fill="none" stroke="#333333" stroke-width="2" stroke-opacity="0.600000" d="M401.298,-109C369.6186,-109 331,-109 331,-109 331,-109 331,-62.1554 331,-62.1554"></path><polygon fill="#333333" fill-opacity="0.600000" stroke="#333333" stroke-width="2" stroke-opacity="0.600000" points="334.5001,-62.1554 331,-52.1554 327.5001,-62.1554 334.5001,-62.1554"></polygon></g><!-- セゾンカード:amex(家族) --><g id="node5" class="node"><title>セゾンカード:amex(家族)</title><path fill="#ffffff" stroke="#4b75b9" stroke-width="3" d="M585.6802,-52C585.6802,-52 518.3198,-52 518.3198,-52 512.3198,-52 506.3198,-46 506.3198,-40 506.3198,-40 506.3198,-28 506.3198,-28 506.3198,-22 512.3198,-16 518.3198,-16 518.3198,-16 585.6802,-16 585.6802,-16 591.6802,-16 597.6802,-22 597.6802,-28 597.6802,-28 597.6802,-40 597.6802,-40 597.6802,-46 591.6802,-52 585.6802,-52"></path><text text-anchor="middle" x="552" y="-29.8" font-family="Arial" font-size="14.00" fill="#333333">Amex(家族)</text></g><!-- gmoあおぞらネット銀行:普通口座&#45;&gt;セゾンカード:amex(家族) --><g id="edge5" class="edge"><title>gmoあおぞらネット銀行:普通口座-&gt;セゾンカード:amex(家族)</title><path fill="none" stroke="#333333" stroke-width="2" stroke-opacity="0.600000" d="M482.9599,-109C514.2345,-109 552,-109 552,-109 552,-109 552,-62.1554 552,-62.1554"></path><polygon fill="#333333" fill-opacity="0.600000" stroke="#333333" stroke-width="2" stroke-opacity="0.600000" points="555.5001,-62.1554 552,-52.1554 548.5001,-62.1554 555.5001,-62.1554"></polygon></g><!-- セゾンカード:三井カード --><g id="node6" class="node"><title>セゾンカード:三井カード</title><path fill="#ffffff" stroke="#4b75b9" stroke-width="3" d="M476.2106,-52C476.2106,-52 407.7894,-52 407.7894,-52 401.7894,-52 395.7894,-46 395.7894,-40 395.7894,-40 395.7894,-28 395.7894,-28 395.7894,-22 401.7894,-16 407.7894,-16 407.7894,-16 476.2106,-16 476.2106,-16 482.2106,-16 488.2106,-22 488.2106,-28 488.2106,-28 488.2106,-40 488.2106,-40 488.2106,-46 482.2106,-52 476.2106,-52"></path><text text-anchor="middle" x="442" y="-29.8" font-family="Arial" font-size="14.00" fill="#333333">三井カード</text></g><!-- gmoあおぞらネット銀行:普通口座&#45;&gt;セゾンカード:三井カード --><g id="edge6" class="edge"><title>gmoあおぞらネット銀行:普通口座-&gt;セゾンカード:三井カード</title><path fill="none" stroke="#333333" stroke-width="2" stroke-opacity="0.600000" d="M442,-100.3997C442,-100.3997 442,-62.0731 442,-62.0731"></path><polygon fill="#333333" fill-opacity="0.600000" stroke="#333333" stroke-width="2" stroke-opacity="0.600000" points="445.5001,-62.0731 442,-52.0731 438.5001,-62.0731 445.5001,-62.0731"></polygon></g><!-- イオン銀行:普通口座 --><g id="node7" class="node"><title>イオン銀行:普通口座</title><path fill="#ffffff" stroke="#4b75b9" stroke-width="3" d="M691.8514,-52C691.8514,-52 634.1486,-52 634.1486,-52 628.1486,-52 622.1486,-46 622.1486,-40 622.1486,-40 622.1486,-28 622.1486,-28 622.1486,-22 628.1486,-16 634.1486,-16 634.1486,-16 691.8514,-16 691.8514,-16 697.8514,-16 703.8514,-22 703.8514,-28 703.8514,-28 703.8514,-40 703.8514,-40 703.8514,-46 697.8514,-52 691.8514,-52"></path><text text-anchor="middle" x="663" y="-29.8" font-family="Arial" font-size="14.00" fill="#333333">普通口座</text></g><!-- gmoあおぞらネット銀行:普通口座&#45;&gt;イオン銀行:普通口座 --><g id="edge7" class="edge"><title>gmoあおぞらネット銀行:普通口座-&gt;イオン銀行:普通口座</title><path fill="none" stroke="#333333" stroke-width="2" stroke-opacity="0.600000" d="M482.7924,-118C546.649,-118 663,-118 663,-118 663,-118 663,-62.2267 663,-62.2267"></path><polygon fill="#333333" fill-opacity="0.600000" stroke="#333333" stroke-width="2" stroke-opacity="0.600000" points="666.5001,-62.2267 663,-52.2267 659.5001,-62.2268 666.5001,-62.2267"></polygon></g><!-- 千葉銀行:普通口座 --><g id="node8" class="node"><title>千葉銀行:普通口座</title><path fill="#ffffff" stroke="#4b75b9" stroke-width="3" d="M797.8514,-52C797.8514,-52 740.1486,-52 740.1486,-52 734.1486,-52 728.1486,-46 728.1486,-40 728.1486,-40 728.1486,-28 728.1486,-28 728.1486,-22 734.1486,-16 740.1486,-16 740.1486,-16 797.8514,-16 797.8514,-16 803.8514,-16 809.8514,-22 809.8514,-28 809.8514,-28 809.8514,-40 809.8514,-40 809.8514,-46 803.8514,-52 797.8514,-52"></path><text text-anchor="middle" x="769" y="-29.8" font-family="Arial" font-size="14.00" fill="#333333">普通口座</text></g><!-- gmoあおぞらネット銀行:普通口座&#45;&gt;千葉銀行:普通口座 --><g id="edge8" class="edge"><title>gmoあおぞらネット銀行:普通口座-&gt;千葉銀行:普通口座</title><path fill="none" stroke="#333333" stroke-width="2" stroke-opacity="0.600000" d="M482.7536,-127C570.4117,-127 769,-127 769,-127 769,-127 769,-62.3738 769,-62.3738"></path><polygon fill="#333333" fill-opacity="0.600000" stroke="#333333" stroke-width="2" stroke-opacity="0.600000" points="772.5001,-62.3738 769,-52.3738 765.5001,-62.3738 772.5001,-62.3738"></polygon></g><!-- 会社 --><g id="node9" class="node"><title>会社</title><path fill="none" stroke="#000000" stroke-width="2" d="M457,-213.6C457,-213.6 427,-213.6 427,-213.6 421,-213.6 415,-207.6 415,-201.6 415,-201.6 415,-189.6 415,-189.6 415,-183.6 421,-177.6 427,-177.6 427,-177.6 457,-177.6 457,-177.6 463,-177.6 469,-183.6 469,-189.6 469,-189.6 469,-201.6 469,-201.6 469,-207.6 463,-213.6 457,-213.6"></path><text text-anchor="middle" x="442" y="-191.4" font-family="Arial" font-size="14.00" fill="#000000">会社</text></g><!-- 会社&#45;&gt;gmoあおぞらネット銀行:普通口座 --><g id="edge1" class="edge"><title>会社-&gt;gmoあおぞらネット銀行:普通口座</title><path fill="none" stroke="#333333" stroke-width="2" stroke-opacity="0.600000" d="M442,-177.3995C442,-177.3995 442,-146.8699 442,-146.8699"></path><polygon fill="#333333" fill-opacity="0.600000" stroke="#333333" stroke-width="2" stroke-opacity="0.600000" points="445.5001,-146.8698 442,-136.8699 438.5001,-146.8699 445.5001,-146.8698"></polygon></g></g></svg>