<?xml version="1.0" encoding="UTF-8" standalone="no"?><!-- Generated by graphviz version 2.40.1 (20161225.0304)
 --><!-- Title: ndiag Pages: 1 --><svg width="302pt" height="242pt" viewBox="0.00 0.00 301.86 241.60" xmlns="http://www.w3.org/2000/svg" xmlns:xlink="http://www.w3.org/1999/xlink"><g id="graph0" class="graph" transform="scale(1 1) rotate(0) translate(4 237.6)"><title>ndiag</title><polygon fill="#ffffff" stroke="transparent" points="-4,4 -4,-237.6 297.8565,-237.6 297.8565,4 -4,4"></polygon><g id="clust2" class="cluster"><title>cluster_GMOあおぞらネット銀行</title><polygon fill="none" stroke="#999999" stroke-width="2" points="108,-148.8 108,-225.6 283,-225.6 283,-148.8 108,-148.8"></polygon><text text-anchor="middle" x="195.5" y="-209" font-family="Arial" font-size="14.00" fill="#666666">GMOあおぞらネット銀行</text></g><g id="clust1" class="cluster"><title>cluster_イオン銀行</title><polygon fill="none" stroke="#000000" stroke-width="2" points="8,-64 8,-140.8 244,-140.8 244,-64 8,-64"></polygon><text text-anchor="middle" x="126" y="-124.2" font-family="Arial" font-size="14.00" fill="#000000">イオン銀行</text></g><!-- イオン銀行:普通口座 --><g id="node1" class="node"><title>イオン銀行:普通口座</title><path fill="#ffffff" stroke="#4b75b9" stroke-width="3" d="M223.8514,-108C223.8514,-108 166.1486,-108 166.1486,-108 160.1486,-108 154.1486,-102 154.1486,-96 154.1486,-96 154.1486,-84 154.1486,-84 154.1486,-78 160.1486,-72 166.1486,-72 166.1486,-72 223.8514,-72 223.8514,-72 229.8514,-72 235.8514,-78 235.8514,-84 235.8514,-84 235.8514,-96 235.8514,-96 235.8514,-102 229.8514,-108 223.8514,-108"></path><text text-anchor="middle" x="195" y="-85.8" font-family="Arial" font-size="14.00" fill="#333333">普通口座</text></g><!-- イオン銀行デビットカード --><g id="node4" class="node"><title>イオン銀行デビットカード</title><path fill="none" stroke="#000000" stroke-width="2" d="M281.7132,-36C281.7132,-36 108.2868,-36 108.2868,-36 102.2868,-36 96.2868,-30 96.2868,-24 96.2868,-24 96.2868,-12 96.2868,-12 96.2868,-6 102.2868,0 108.2868,0 108.2868,0 281.7132,0 281.7132,0 287.7132,0 293.7132,-6 293.7132,-12 293.7132,-12 293.7132,-24 293.7132,-24 293.7132,-30 287.7132,-36 281.7132,-36"></path><text text-anchor="middle" x="195" y="-13.8" font-family="Arial" font-size="14.00" fill="#000000">イオン銀行デビットカード</text></g><!-- イオン銀行:普通口座&#45;&gt;イオン銀行デビットカード --><g id="edge2" class="edge"><title>イオン銀行:普通口座-&gt;イオン銀行デビットカード</title><path fill="none" stroke="#333333" stroke-width="2" stroke-opacity="0.600000" d="M195,-71.8314C195,-71.8314 195,-46.4133 195,-46.4133"></path><polygon fill="#333333" fill-opacity="0.600000" stroke="#333333" stroke-width="2" stroke-opacity="0.600000" points="198.5001,-46.4132 195,-36.4133 191.5001,-46.4133 198.5001,-46.4132"></polygon></g><!-- イオン銀行:デビットカード --><g id="node2" class="node"><title>イオン銀行:デビットカード</title><path fill="#ffffff" stroke="#4b75b9" stroke-width="3" d="M124.2203,-108C124.2203,-108 27.7797,-108 27.7797,-108 21.7797,-108 15.7797,-102 15.7797,-96 15.7797,-96 15.7797,-84 15.7797,-84 15.7797,-78 21.7797,-72 27.7797,-72 27.7797,-72 124.2203,-72 124.2203,-72 130.2203,-72 136.2203,-78 136.2203,-84 136.2203,-84 136.2203,-96 136.2203,-96 136.2203,-102 130.2203,-108 124.2203,-108"></path><text text-anchor="middle" x="76" y="-85.8" font-family="Arial" font-size="14.00" fill="#333333">デビットカード</text></g><!-- gmoあおぞらネット銀行:普通口座 --><g id="node3" class="node"><title>gmoあおぞらネット銀行:普通口座</title><path fill="#ffffff" stroke="#4b75b9" stroke-width="3" d="M223.8514,-192.8C223.8514,-192.8 166.1486,-192.8 166.1486,-192.8 160.1486,-192.8 154.1486,-186.8 154.1486,-180.8 154.1486,-180.8 154.1486,-168.8 154.1486,-168.8 154.1486,-162.8 160.1486,-156.8 166.1486,-156.8 166.1486,-156.8 223.8514,-156.8 223.8514,-156.8 229.8514,-156.8 235.8514,-162.8 235.8514,-168.8 235.8514,-168.8 235.8514,-180.8 235.8514,-180.8 235.8514,-186.8 229.8514,-192.8 223.8514,-192.8"></path><text text-anchor="middle" x="195" y="-170.6" font-family="Arial" font-size="14.00" fill="#333333">普通口座</text></g><!-- gmoあおぞらネット銀行:普通口座&#45;&gt;イオン銀行:普通口座 --><g id="edge1" class="edge"><title>gmoあおぞらネット銀行:普通口座-&gt;イオン銀行:普通口座</title><path fill="none" stroke="#333333" stroke-width="2" stroke-opacity="0.600000" d="M195,-156.3997C195,-156.3997 195,-118.0731 195,-118.0731"></path><polygon fill="#333333" fill-opacity="0.600000" stroke="#333333" stroke-width="2" stroke-opacity="0.600000" points="198.5001,-118.0731 195,-108.0731 191.5001,-118.0731 198.5001,-118.0731"></polygon></g></g></svg>