<?xml version="1.0" encoding="UTF-8" standalone="no"?><!-- Generated by graphviz version 2.40.1 (20161225.0304)
 --><!-- Title: ndiag Pages: 1 --><svg width="219pt" height="270pt" viewBox="0.00 0.00 219.00 270.40" xmlns="http://www.w3.org/2000/svg" xmlns:xlink="http://www.w3.org/1999/xlink"><g id="graph0" class="graph" transform="scale(1 1) rotate(0) translate(4 266.4)"><title>ndiag</title><polygon fill="#ffffff" stroke="transparent" points="-4,4 -4,-266.4 215,-266.4 215,4 -4,4"></polygon><g id="clust3" class="cluster"><title>cluster_LINE</title><polygon fill="none" stroke="#999999" stroke-width="2" points="8,-8 8,-84.8 184,-84.8 184,-8 8,-8"></polygon><text text-anchor="middle" x="96" y="-68.2" font-family="Arial" font-size="14.00" fill="#666666">LINE</text></g><g id="clust2" class="cluster"><title>cluster_GMOあおぞらネット銀行</title><polygon fill="none" stroke="#999999" stroke-width="2" points="28,-177.6 28,-254.4 203,-254.4 203,-177.6 28,-177.6"></polygon><text text-anchor="middle" x="115.5" y="-237.8" font-family="Arial" font-size="14.00" fill="#666666">GMOあおぞらネット銀行</text></g><g id="clust1" class="cluster"><title>cluster_三菱UFJ銀行</title><polygon fill="none" stroke="#000000" stroke-width="2" points="43,-92.8 43,-169.6 150,-169.6 150,-92.8 43,-92.8"></polygon><text text-anchor="middle" x="96.5" y="-153" font-family="Arial" font-size="14.00" fill="#000000">三菱UFJ銀行</text></g><!-- 三菱ufj銀行:普通口座 --><g id="node1" class="node"><title>三菱ufj銀行:普通口座</title><path fill="#ffffff" stroke="#4b75b9" stroke-width="3" d="M124.8514,-136.8C124.8514,-136.8 67.1486,-136.8 67.1486,-136.8 61.1486,-136.8 55.1486,-130.8 55.1486,-124.8 55.1486,-124.8 55.1486,-112.8 55.1486,-112.8 55.1486,-106.8 61.1486,-100.8 67.1486,-100.8 67.1486,-100.8 124.8514,-100.8 124.8514,-100.8 130.8514,-100.8 136.8514,-106.8 136.8514,-112.8 136.8514,-112.8 136.8514,-124.8 136.8514,-124.8 136.8514,-130.8 130.8514,-136.8 124.8514,-136.8"></path><text text-anchor="middle" x="96" y="-114.6" font-family="Arial" font-size="14.00" fill="#333333">普通口座</text></g><!-- line:visa line payカード --><g id="node3" class="node"><title>line:visa line payカード</title><path fill="#ffffff" stroke="#4b75b9" stroke-width="3" d="M163.6234,-52C163.6234,-52 28.3766,-52 28.3766,-52 22.3766,-52 16.3766,-46 16.3766,-40 16.3766,-40 16.3766,-28 16.3766,-28 16.3766,-22 22.3766,-16 28.3766,-16 28.3766,-16 163.6234,-16 163.6234,-16 169.6234,-16 175.6234,-22 175.6234,-28 175.6234,-28 175.6234,-40 175.6234,-40 175.6234,-46 169.6234,-52 163.6234,-52"></path><text text-anchor="middle" x="96" y="-29.8" font-family="Arial" font-size="14.00" fill="#333333">Visa LINE Payカード</text></g><!-- 三菱ufj銀行:普通口座&#45;&gt;line:visa line payカード --><g id="edge2" class="edge"><title>三菱ufj銀行:普通口座-&gt;line:visa line payカード</title><path fill="none" stroke="#333333" stroke-width="2" stroke-opacity="0.600000" d="M96,-100.3997C96,-100.3997 96,-62.0731 96,-62.0731"></path><polygon fill="#333333" fill-opacity="0.600000" stroke="#333333" stroke-width="2" stroke-opacity="0.600000" points="99.5001,-62.0731 96,-52.0731 92.5001,-62.0731 99.5001,-62.0731"></polygon></g><!-- gmoあおぞらネット銀行:普通口座 --><g id="node2" class="node"><title>gmoあおぞらネット銀行:普通口座</title><path fill="#ffffff" stroke="#4b75b9" stroke-width="3" d="M124.8514,-221.6C124.8514,-221.6 67.1486,-221.6 67.1486,-221.6 61.1486,-221.6 55.1486,-215.6 55.1486,-209.6 55.1486,-209.6 55.1486,-197.6 55.1486,-197.6 55.1486,-191.6 61.1486,-185.6 67.1486,-185.6 67.1486,-185.6 124.8514,-185.6 124.8514,-185.6 130.8514,-185.6 136.8514,-191.6 136.8514,-197.6 136.8514,-197.6 136.8514,-209.6 136.8514,-209.6 136.8514,-215.6 130.8514,-221.6 124.8514,-221.6"></path><text text-anchor="middle" x="96" y="-199.4" font-family="Arial" font-size="14.00" fill="#333333">普通口座</text></g><!-- gmoあおぞらネット銀行:普通口座&#45;&gt;三菱ufj銀行:普通口座 --><g id="edge1" class="edge"><title>gmoあおぞらネット銀行:普通口座-&gt;三菱ufj銀行:普通口座</title><path fill="none" stroke="#333333" stroke-width="2" stroke-opacity="0.600000" d="M96,-185.1997C96,-185.1997 96,-146.8731 96,-146.8731"></path><polygon fill="#333333" fill-opacity="0.600000" stroke="#333333" stroke-width="2" stroke-opacity="0.600000" points="99.5001,-146.8731 96,-136.8731 92.5001,-146.8731 99.5001,-146.8731"></polygon></g></g></svg>