<?xml version="1.0" encoding="UTF-8" standalone="no"?><!-- Generated by graphviz version 2.40.1 (20161225.0304)
 --><!-- Title: ndiag Pages: 1 --><svg width="396pt" height="222pt" viewBox="0.00 0.00 396.00 221.60" xmlns="http://www.w3.org/2000/svg" xmlns:xlink="http://www.w3.org/1999/xlink"><g id="graph0" class="graph" transform="scale(1 1) rotate(0) translate(4 217.6)"><title>ndiag</title><polygon fill="#ffffff" stroke="transparent" points="-4,4 -4,-217.6 392,-217.6 392,4 -4,4"></polygon><g id="clust4" class="cluster"><title>cluster_住信SBIネット銀行</title><polygon fill="none" stroke="#999999" stroke-width="2" points="229,-8 229,-84.8 380,-84.8 380,-8 229,-8"></polygon><text text-anchor="middle" x="304.5" y="-68.2" font-family="Arial" font-size="14.00" fill="#666666">住信SBIネット銀行</text></g><g id="clust3" class="cluster"><title>cluster_楽天銀行</title><polygon fill="none" stroke="#999999" stroke-width="2" points="123,-8 123,-84.8 221,-84.8 221,-8 123,-8"></polygon><text text-anchor="middle" x="172" y="-68.2" font-family="Arial" font-size="14.00" fill="#666666">楽天銀行</text></g><g id="clust2" class="cluster"><title>cluster_三菱UFJ銀行</title><polygon fill="none" stroke="#999999" stroke-width="2" points="8,-8 8,-84.8 115,-84.8 115,-8 8,-8"></polygon><text text-anchor="middle" x="61.5" y="-68.2" font-family="Arial" font-size="14.00" fill="#666666">三菱UFJ銀行</text></g><g id="clust1" class="cluster"><title>cluster_GMOあおぞらネット銀行</title><polygon fill="none" stroke="#000000" stroke-width="2" points="85,-92.8 85,-169.6 260,-169.6 260,-92.8 85,-92.8"></polygon><text text-anchor="middle" x="172.5" y="-153" font-family="Arial" font-size="14.00" fill="#000000">GMOあおぞらネット銀行</text></g><!-- gmoあおぞらネット銀行:普通口座 --><g id="node1" class="node"><title>gmoあおぞらネット銀行:普通口座</title><path fill="#ffffff" stroke="#4b75b9" stroke-width="3" d="M200.8514,-136.8C200.8514,-136.8 143.1486,-136.8 143.1486,-136.8 137.1486,-136.8 131.1486,-130.8 131.1486,-124.8 131.1486,-124.8 131.1486,-112.8 131.1486,-112.8 131.1486,-106.8 137.1486,-100.8 143.1486,-100.8 143.1486,-100.8 200.8514,-100.8 200.8514,-100.8 206.8514,-100.8 212.8514,-106.8 212.8514,-112.8 212.8514,-112.8 212.8514,-124.8 212.8514,-124.8 212.8514,-130.8 206.8514,-136.8 200.8514,-136.8"></path><text text-anchor="middle" x="172" y="-114.6" font-family="Arial" font-size="14.00" fill="#333333">普通口座</text></g><!-- 三菱ufj銀行:普通口座 --><g id="node2" class="node"><title>三菱ufj銀行:普通口座</title><path fill="#ffffff" stroke="#4b75b9" stroke-width="3" d="M94.8514,-52C94.8514,-52 37.1486,-52 37.1486,-52 31.1486,-52 25.1486,-46 25.1486,-40 25.1486,-40 25.1486,-28 25.1486,-28 25.1486,-22 31.1486,-16 37.1486,-16 37.1486,-16 94.8514,-16 94.8514,-16 100.8514,-16 106.8514,-22 106.8514,-28 106.8514,-28 106.8514,-40 106.8514,-40 106.8514,-46 100.8514,-52 94.8514,-52"></path><text text-anchor="middle" x="66" y="-29.8" font-family="Arial" font-size="14.00" fill="#333333">普通口座</text></g><!-- gmoあおぞらネット銀行:普通口座&#45;&gt;三菱ufj銀行:普通口座 --><g id="edge2" class="edge"><title>gmoあおぞらネット銀行:普通口座-&gt;三菱ufj銀行:普通口座</title><path fill="none" stroke="#333333" stroke-width="2" stroke-opacity="0.600000" d="M131.3208,-118C101.4282,-118 66,-118 66,-118 66,-118 66,-62.2267 66,-62.2267"></path><polygon fill="#333333" fill-opacity="0.600000" stroke="#333333" stroke-width="2" stroke-opacity="0.600000" points="69.5001,-62.2267 66,-52.2267 62.5001,-62.2268 69.5001,-62.2267"></polygon></g><!-- 楽天銀行:普通口座 --><g id="node3" class="node"><title>楽天銀行:普通口座</title><path fill="#ffffff" stroke="#4b75b9" stroke-width="3" d="M200.8514,-52C200.8514,-52 143.1486,-52 143.1486,-52 137.1486,-52 131.1486,-46 131.1486,-40 131.1486,-40 131.1486,-28 131.1486,-28 131.1486,-22 137.1486,-16 143.1486,-16 143.1486,-16 200.8514,-16 200.8514,-16 206.8514,-16 212.8514,-22 212.8514,-28 212.8514,-28 212.8514,-40 212.8514,-40 212.8514,-46 206.8514,-52 200.8514,-52"></path><text text-anchor="middle" x="172" y="-29.8" font-family="Arial" font-size="14.00" fill="#333333">普通口座</text></g><!-- gmoあおぞらネット銀行:普通口座&#45;&gt;楽天銀行:普通口座 --><g id="edge3" class="edge"><title>gmoあおぞらネット銀行:普通口座-&gt;楽天銀行:普通口座</title><path fill="none" stroke="#333333" stroke-width="2" stroke-opacity="0.600000" d="M172,-100.3997C172,-100.3997 172,-62.0731 172,-62.0731"></path><polygon fill="#333333" fill-opacity="0.600000" stroke="#333333" stroke-width="2" stroke-opacity="0.600000" points="175.5001,-62.0731 172,-52.0731 168.5001,-62.0731 175.5001,-62.0731"></polygon></g><!-- 住信sbiネット銀行:普通口座 --><g id="node4" class="node"><title>住信sbiネット銀行:普通口座</title><path fill="#ffffff" stroke="#4b75b9" stroke-width="3" d="M306.8514,-52C306.8514,-52 249.1486,-52 249.1486,-52 243.1486,-52 237.1486,-46 237.1486,-40 237.1486,-40 237.1486,-28 237.1486,-28 237.1486,-22 243.1486,-16 249.1486,-16 249.1486,-16 306.8514,-16 306.8514,-16 312.8514,-16 318.8514,-22 318.8514,-28 318.8514,-28 318.8514,-40 318.8514,-40 318.8514,-46 312.8514,-52 306.8514,-52"></path><text text-anchor="middle" x="278" y="-29.8" font-family="Arial" font-size="14.00" fill="#333333">普通口座</text></g><!-- gmoあおぞらネット銀行:普通口座&#45;&gt;住信sbiネット銀行:普通口座 --><g id="edge4" class="edge"><title>gmoあおぞらネット銀行:普通口座-&gt;住信sbiネット銀行:普通口座</title><path fill="none" stroke="#333333" stroke-width="2" stroke-opacity="0.600000" d="M212.6792,-118C242.5718,-118 278,-118 278,-118 278,-118 278,-62.2267 278,-62.2267"></path><polygon fill="#333333" fill-opacity="0.600000" stroke="#333333" stroke-width="2" stroke-opacity="0.600000" points="281.5001,-62.2267 278,-52.2267 274.5001,-62.2268 281.5001,-62.2267"></polygon></g><!-- 会社 --><g id="node5" class="node"><title>会社</title><path fill="none" stroke="#000000" stroke-width="2" d="M187,-213.6C187,-213.6 157,-213.6 157,-213.6 151,-213.6 145,-207.6 145,-201.6 145,-201.6 145,-189.6 145,-189.6 145,-183.6 151,-177.6 157,-177.6 157,-177.6 187,-177.6 187,-177.6 193,-177.6 199,-183.6 199,-189.6 199,-189.6 199,-201.6 199,-201.6 199,-207.6 193,-213.6 187,-213.6"></path><text text-anchor="middle" x="172" y="-191.4" font-family="Arial" font-size="14.00" fill="#000000">会社</text></g><!-- 会社&#45;&gt;gmoあおぞらネット銀行:普通口座 --><g id="edge1" class="edge"><title>会社-&gt;gmoあおぞらネット銀行:普通口座</title><path fill="none" stroke="#333333" stroke-width="2" stroke-opacity="0.600000" d="M172,-177.3995C172,-177.3995 172,-146.8699 172,-146.8699"></path><polygon fill="#333333" fill-opacity="0.600000" stroke="#333333" stroke-width="2" stroke-opacity="0.600000" points="175.5001,-146.8698 172,-136.8699 168.5001,-146.8699 175.5001,-146.8698"></polygon></g></g></svg>