<?xml version="1.0" encoding="UTF-8" standalone="no"?><!-- Generated by graphviz version 2.40.1 (20161225.0304)
 --><!-- Title: ndiag Pages: 1 --><svg width="148pt" height="186pt" viewBox="0.00 0.00 148.00 185.60" xmlns="http://www.w3.org/2000/svg" xmlns:xlink="http://www.w3.org/1999/xlink"><g id="graph0" class="graph" transform="scale(1 1) rotate(0) translate(4 181.6)"><title>ndiag</title><polygon fill="#ffffff" stroke="transparent" points="-4,4 -4,-181.6 144,-181.6 144,4 -4,4"></polygon><g id="clust2" class="cluster"><title>cluster_メインバンク</title><polygon fill="none" stroke="#999999" stroke-width="2" points="8,-92.8 8,-169.6 132,-169.6 132,-92.8 8,-92.8"></polygon><text text-anchor="middle" x="70" y="-153" font-family="Arial" font-size="14.00" fill="#666666">メインバンク</text></g><g id="clust1" class="cluster"><title>cluster_県民共済</title><polygon fill="none" stroke="#000000" stroke-width="2" points="35,-8 35,-84.8 105,-84.8 105,-8 35,-8"></polygon><text text-anchor="middle" x="70" y="-68.2" font-family="Arial" font-size="14.00" fill="#000000">県民共済</text></g><!-- 県民共済:保険 --><g id="node1" class="node"><title>県民共済:保険</title><path fill="#ffffff" stroke="#4b75b9" stroke-width="3" d="M85,-52C85,-52 55,-52 55,-52 49,-52 43,-46 43,-40 43,-40 43,-28 43,-28 43,-22 49,-16 55,-16 55,-16 85,-16 85,-16 91,-16 97,-22 97,-28 97,-28 97,-40 97,-40 97,-46 91,-52 85,-52"></path><text text-anchor="middle" x="70" y="-29.8" font-family="Arial" font-size="14.00" fill="#333333">保険</text></g><!-- メインバンク:三菱ufj銀行 --><g id="node2" class="node"><title>メインバンク:三菱ufj銀行</title><path fill="#ffffff" stroke="#4b75b9" stroke-width="3" d="M111.5084,-136.8C111.5084,-136.8 28.4916,-136.8 28.4916,-136.8 22.4916,-136.8 16.4916,-130.8 16.4916,-124.8 16.4916,-124.8 16.4916,-112.8 16.4916,-112.8 16.4916,-106.8 22.4916,-100.8 28.4916,-100.8 28.4916,-100.8 111.5084,-100.8 111.5084,-100.8 117.5084,-100.8 123.5084,-106.8 123.5084,-112.8 123.5084,-112.8 123.5084,-124.8 123.5084,-124.8 123.5084,-130.8 117.5084,-136.8 111.5084,-136.8"></path><text text-anchor="middle" x="70" y="-114.6" font-family="Arial" font-size="14.00" fill="#333333">三菱UFJ銀行</text></g><!-- メインバンク:三菱ufj銀行&#45;&gt;県民共済:保険 --><g id="edge1" class="edge"><title>メインバンク:三菱ufj銀行-&gt;県民共済:保険</title><path fill="none" stroke="#333333" stroke-width="2" stroke-opacity="0.600000" d="M70,-100.3997C70,-100.3997 70,-62.0731 70,-62.0731"></path><polygon fill="#333333" fill-opacity="0.600000" stroke="#333333" stroke-width="2" stroke-opacity="0.600000" points="73.5001,-62.0731 70,-52.0731 66.5001,-62.0731 73.5001,-62.0731"></polygon></g></g></svg>