<?xml version="1.0" encoding="UTF-8" standalone="no"?><!-- Generated by graphviz version 2.40.1 (20161225.0304)
 --><!-- Title: ndiag Pages: 1 --><svg width="212pt" height="258pt" viewBox="0.00 0.00 212.00 257.60" xmlns="http://www.w3.org/2000/svg" xmlns:xlink="http://www.w3.org/1999/xlink"><g id="graph0" class="graph" transform="scale(1 1) rotate(0) translate(4 253.6)"><title>ndiag</title><polygon fill="#ffffff" stroke="transparent" points="-4,4 -4,-253.6 208,-253.6 208,4 -4,4"></polygon><g id="clust2" class="cluster"><title>cluster_GMOあおぞらネット銀行</title><polygon fill="none" stroke="#999999" stroke-width="2" points="21,-164.8 21,-241.6 196,-241.6 196,-164.8 21,-164.8"></polygon><text text-anchor="middle" x="108.5" y="-225" font-family="Arial" font-size="14.00" fill="#666666">GMOあおぞらネット銀行</text></g><g id="clust1" class="cluster"><title>cluster_住信SBIネット銀行</title><polygon fill="none" stroke="#000000" stroke-width="2" points="8,-8 8,-156.8 159,-156.8 159,-8 8,-8"></polygon><text text-anchor="middle" x="83.5" y="-140.2" font-family="Arial" font-size="14.00" fill="#000000">住信SBIネット銀行</text></g><!-- 住信sbiネット銀行:普通口座 --><g id="node1" class="node"><title>住信sbiネット銀行:普通口座</title><path fill="#ffffff" stroke="#4b75b9" stroke-width="3" d="M111.8514,-124C111.8514,-124 54.1486,-124 54.1486,-124 48.1486,-124 42.1486,-118 42.1486,-112 42.1486,-112 42.1486,-100 42.1486,-100 42.1486,-94 48.1486,-88 54.1486,-88 54.1486,-88 111.8514,-88 111.8514,-88 117.8514,-88 123.8514,-94 123.8514,-100 123.8514,-100 123.8514,-112 123.8514,-112 123.8514,-118 117.8514,-124 111.8514,-124"></path><text text-anchor="middle" x="83" y="-101.8" font-family="Arial" font-size="14.00" fill="#333333">普通口座</text></g><!-- 住信sbiネット銀行:住宅ローン --><g id="node2" class="node"><title>住信sbiネット銀行:住宅ローン</title><path fill="#ffffff" stroke="#4b75b9" stroke-width="3" d="M124.2134,-52C124.2134,-52 41.7866,-52 41.7866,-52 35.7866,-52 29.7866,-46 29.7866,-40 29.7866,-40 29.7866,-28 29.7866,-28 29.7866,-22 35.7866,-16 41.7866,-16 41.7866,-16 124.2134,-16 124.2134,-16 130.2134,-16 136.2134,-22 136.2134,-28 136.2134,-28 136.2134,-40 136.2134,-40 136.2134,-46 130.2134,-52 124.2134,-52"></path><text text-anchor="middle" x="83" y="-29.8" font-family="Arial" font-size="14.00" fill="#333333">住宅ローン</text></g><!-- 住信sbiネット銀行:普通口座&#45;&gt;住信sbiネット銀行:住宅ローン --><g id="edge2" class="edge"><title>住信sbiネット銀行:普通口座-&gt;住信sbiネット銀行:住宅ローン</title><path fill="none" stroke="#333333" stroke-width="2" stroke-opacity="0.600000" d="M83,-87.8314C83,-87.8314 83,-62.4133 83,-62.4133"></path><polygon fill="#333333" fill-opacity="0.600000" stroke="#333333" stroke-width="2" stroke-opacity="0.600000" points="86.5001,-62.4132 83,-52.4133 79.5001,-62.4133 86.5001,-62.4132"></polygon></g><!-- gmoあおぞらネット銀行:普通口座 --><g id="node3" class="node"><title>gmoあおぞらネット銀行:普通口座</title><path fill="#ffffff" stroke="#4b75b9" stroke-width="3" d="M111.8514,-208.8C111.8514,-208.8 54.1486,-208.8 54.1486,-208.8 48.1486,-208.8 42.1486,-202.8 42.1486,-196.8 42.1486,-196.8 42.1486,-184.8 42.1486,-184.8 42.1486,-178.8 48.1486,-172.8 54.1486,-172.8 54.1486,-172.8 111.8514,-172.8 111.8514,-172.8 117.8514,-172.8 123.8514,-178.8 123.8514,-184.8 123.8514,-184.8 123.8514,-196.8 123.8514,-196.8 123.8514,-202.8 117.8514,-208.8 111.8514,-208.8"></path><text text-anchor="middle" x="83" y="-186.6" font-family="Arial" font-size="14.00" fill="#333333">普通口座</text></g><!-- gmoあおぞらネット銀行:普通口座&#45;&gt;住信sbiネット銀行:普通口座 --><g id="edge1" class="edge"><title>gmoあおぞらネット銀行:普通口座-&gt;住信sbiネット銀行:普通口座</title><path fill="none" stroke="#333333" stroke-width="2" stroke-opacity="0.600000" d="M83,-172.3997C83,-172.3997 83,-134.0731 83,-134.0731"></path><polygon fill="#333333" fill-opacity="0.600000" stroke="#333333" stroke-width="2" stroke-opacity="0.600000" points="86.5001,-134.0731 83,-124.0731 79.5001,-134.0731 86.5001,-134.0731"></polygon></g></g></svg>