<?xml version="1.0" encoding="UTF-8" standalone="no"?><!-- Generated by graphviz version 2.40.1 (20161225.0304)
 --><!-- Title: ndiag Pages: 1 --><svg width="186pt" height="186pt" viewBox="0.00 0.00 186.00 185.60" xmlns="http://www.w3.org/2000/svg" xmlns:xlink="http://www.w3.org/1999/xlink"><g id="graph0" class="graph" transform="scale(1 1) rotate(0) translate(4 181.6)"><title>ndiag</title><polygon fill="#ffffff" stroke="transparent" points="-4,4 -4,-181.6 182,-181.6 182,4 -4,4"></polygon><g id="clust2" class="cluster"><title>cluster_メインバンク</title><polygon fill="none" stroke="#999999" stroke-width="2" points="8,-92.8 8,-169.6 132,-169.6 132,-92.8 8,-92.8"></polygon><text text-anchor="middle" x="70" y="-153" font-family="Arial" font-size="14.00" fill="#666666">メインバンク</text></g><g id="clust1" class="cluster"><title>cluster_プルデンシャル生命</title><polygon fill="none" stroke="#000000" stroke-width="2" points="14,-8 14,-84.8 170,-84.8 170,-8 14,-8"></polygon><text text-anchor="middle" x="92" y="-68.2" font-family="Arial" font-size="14.00" fill="#000000">プルデンシャル生命</text></g><!-- プルデンシャル生命:生命保険 --><g id="node1" class="node"><title>プルデンシャル生命:生命保険</title><path fill="#ffffff" stroke="#4b75b9" stroke-width="3" d="M100.7289,-52C100.7289,-52 39.2711,-52 39.2711,-52 33.2711,-52 27.2711,-46 27.2711,-40 27.2711,-40 27.2711,-28 27.2711,-28 27.2711,-22 33.2711,-16 39.2711,-16 39.2711,-16 100.7289,-16 100.7289,-16 106.7289,-16 112.7289,-22 112.7289,-28 112.7289,-28 112.7289,-40 112.7289,-40 112.7289,-46 106.7289,-52 100.7289,-52"></path><text text-anchor="middle" x="70" y="-29.8" font-family="Arial" font-size="14.00" fill="#333333">生命保険</text></g><!-- メインバンク:三菱ufj銀行 --><g id="node2" class="node"><title>メインバンク:三菱ufj銀行</title><path fill="#ffffff" stroke="#4b75b9" stroke-width="3" d="M111.5084,-136.8C111.5084,-136.8 28.4916,-136.8 28.4916,-136.8 22.4916,-136.8 16.4916,-130.8 16.4916,-124.8 16.4916,-124.8 16.4916,-112.8 16.4916,-112.8 16.4916,-106.8 22.4916,-100.8 28.4916,-100.8 28.4916,-100.8 111.5084,-100.8 111.5084,-100.8 117.5084,-100.8 123.5084,-106.8 123.5084,-112.8 123.5084,-112.8 123.5084,-124.8 123.5084,-124.8 123.5084,-130.8 117.5084,-136.8 111.5084,-136.8"></path><text text-anchor="middle" x="70" y="-114.6" font-family="Arial" font-size="14.00" fill="#333333">三菱UFJ銀行</text></g><!-- メインバンク:三菱ufj銀行&#45;&gt;プルデンシャル生命:生命保険 --><g id="edge1" class="edge"><title>メインバンク:三菱ufj銀行-&gt;プルデンシャル生命:生命保険</title><path fill="none" stroke="#333333" stroke-width="2" stroke-opacity="0.600000" d="M70,-100.3997C70,-100.3997 70,-62.0731 70,-62.0731"></path><polygon fill="#333333" fill-opacity="0.600000" stroke="#333333" stroke-width="2" stroke-opacity="0.600000" points="73.5001,-62.0731 70,-52.0731 66.5001,-62.0731 73.5001,-62.0731"></polygon></g></g></svg>