<?xml version="1.0" encoding="UTF-8" standalone="no"?><!-- Generated by graphviz version 2.40.1 (20161225.0304)
 --><!-- Title: ndiag Pages: 1 --><svg width="1257pt" height="270pt" viewBox="0.00 0.00 1256.99 270.40" xmlns="http://www.w3.org/2000/svg" xmlns:xlink="http://www.w3.org/1999/xlink"><g id="graph0" class="graph" transform="scale(1 1) rotate(0) translate(4 266.4)"><title>ndiag</title><polygon fill="#ffffff" stroke="transparent" points="-4,4 -4,-266.4 1252.9937,-266.4 1252.9937,4 -4,4"></polygon><g id="clust4" class="cluster"><title>cluster_楽天証券</title><polygon fill="none" stroke="#999999" stroke-width="2" points="897,-8 897,-84.8 1089,-84.8 1089,-8 897,-8"></polygon><text text-anchor="middle" x="993" y="-68.2" font-family="Arial" font-size="14.00" fill="#666666">楽天証券</text></g><g id="clust3" class="cluster"><title>cluster_サブバンク</title><polygon fill="none" stroke="#999999" stroke-width="2" points="1002,-177.6 1002,-254.4 1214,-254.4 1214,-177.6 1002,-177.6"></polygon><text text-anchor="middle" x="1108" y="-237.8" font-family="Arial" font-size="14.00" fill="#666666">サブバンク</text></g><g id="clust2" class="cluster"><title>cluster_メインバンク</title><polygon fill="none" stroke="#999999" stroke-width="2" points="391,-177.6 391,-254.4 708,-254.4 708,-177.6 391,-177.6"></polygon><text text-anchor="middle" x="549.5" y="-237.8" font-family="Arial" font-size="14.00" fill="#666666">メインバンク</text></g><g id="clust1" class="cluster"><title>cluster_クレジットカード</title><polygon fill="none" stroke="#000000" stroke-width="2" points="8,-92.8 8,-169.6 1232,-169.6 1232,-92.8 8,-92.8"></polygon><text text-anchor="middle" x="620" y="-153" font-family="Arial" font-size="14.00" fill="#000000">クレジットカード</text></g><!-- クレジットカード:amazon masterカード --><g id="node1" class="node"><title>クレジットカード:amazon masterカード</title><path fill="#ffffff" stroke="#4b75b9" stroke-width="3" d="M343.3934,-136.8C343.3934,-136.8 200.6066,-136.8 200.6066,-136.8 194.6066,-136.8 188.6066,-130.8 188.6066,-124.8 188.6066,-124.8 188.6066,-112.8 188.6066,-112.8 188.6066,-106.8 194.6066,-100.8 200.6066,-100.8 200.6066,-100.8 343.3934,-100.8 343.3934,-100.8 349.3934,-100.8 355.3934,-106.8 355.3934,-112.8 355.3934,-112.8 355.3934,-124.8 355.3934,-124.8 355.3934,-130.8 349.3934,-136.8 343.3934,-136.8"></path><text text-anchor="middle" x="272" y="-114.6" font-family="Arial" font-size="14.00" fill="#333333">Amazon Masterカード</text></g><!-- amazon --><g id="node16" class="node"><title>amazon</title><path fill="none" stroke="#000000" stroke-width="2" d="M293.8459,-52C293.8459,-52 250.1541,-52 250.1541,-52 244.1541,-52 238.1541,-46 238.1541,-40 238.1541,-40 238.1541,-28 238.1541,-28 238.1541,-22 244.1541,-16 250.1541,-16 250.1541,-16 293.8459,-16 293.8459,-16 299.8459,-16 305.8459,-22 305.8459,-28 305.8459,-28 305.8459,-40 305.8459,-40 305.8459,-46 299.8459,-52 293.8459,-52"></path><text text-anchor="middle" x="272" y="-29.8" font-family="Arial" font-size="14.00" fill="#000000">Amazon</text></g><!-- クレジットカード:amazon masterカード&#45;&gt;amazon --><g id="edge8" class="edge"><title>クレジットカード:amazon masterカード-&gt;amazon</title><path fill="none" stroke="#333333" stroke-width="2" stroke-opacity="0.600000" d="M272,-100.3997C272,-100.3997 272,-62.0731 272,-62.0731"></path><polygon fill="#333333" fill-opacity="0.600000" stroke="#333333" stroke-width="2" stroke-opacity="0.600000" points="275.5001,-62.0731 272,-52.0731 268.5001,-62.0731 275.5001,-62.0731"></polygon></g><!-- クレジットカード:visa line payカード --><g id="node2" class="node"><title>クレジットカード:visa line payカード</title><path fill="#ffffff" stroke="#4b75b9" stroke-width="3" d="M520.6234,-136.8C520.6234,-136.8 385.3766,-136.8 385.3766,-136.8 379.3766,-136.8 373.3766,-130.8 373.3766,-124.8 373.3766,-124.8 373.3766,-112.8 373.3766,-112.8 373.3766,-106.8 379.3766,-100.8 385.3766,-100.8 385.3766,-100.8 520.6234,-100.8 520.6234,-100.8 526.6234,-100.8 532.6234,-106.8 532.6234,-112.8 532.6234,-112.8 532.6234,-124.8 532.6234,-124.8 532.6234,-130.8 526.6234,-136.8 520.6234,-136.8"></path><text text-anchor="middle" x="453" y="-114.6" font-family="Arial" font-size="14.00" fill="#333333">Visa LINE Payカード</text></g><!-- 世界 --><g id="node14" class="node"><title>世界</title><path fill="none" stroke="#000000" stroke-width="2" d="M560,-52C560,-52 530,-52 530,-52 524,-52 518,-46 518,-40 518,-40 518,-28 518,-28 518,-22 524,-16 530,-16 530,-16 560,-16 560,-16 566,-16 572,-22 572,-28 572,-28 572,-40 572,-40 572,-46 566,-52 560,-52"></path><text text-anchor="middle" x="545" y="-29.8" font-family="Arial" font-size="14.00" fill="#000000">世界</text></g><!-- クレジットカード:visa line payカード&#45;&gt;世界 --><g id="edge2" class="edge"><title>クレジットカード:visa line payカード-&gt;世界</title><path fill="none" stroke="#333333" stroke-width="2" stroke-opacity="0.600000" d="M525.2809,-100.3997C525.2809,-100.3997 525.2809,-62.0731 525.2809,-62.0731"></path><polygon fill="#333333" fill-opacity="0.600000" stroke="#333333" stroke-width="2" stroke-opacity="0.600000" points="528.7809,-62.0731 525.2809,-52.0731 521.7809,-62.0731 528.7809,-62.0731"></polygon></g><!-- クレジットカード:セゾンアメックス(家族) --><g id="node3" class="node"><title>クレジットカード:セゾンアメックス(家族)</title><path fill="#ffffff" stroke="#4b75b9" stroke-width="3" d="M713.9045,-136.8C713.9045,-136.8 562.0955,-136.8 562.0955,-136.8 556.0955,-136.8 550.0955,-130.8 550.0955,-124.8 550.0955,-124.8 550.0955,-112.8 550.0955,-112.8 550.0955,-106.8 556.0955,-100.8 562.0955,-100.8 562.0955,-100.8 713.9045,-100.8 713.9045,-100.8 719.9045,-100.8 725.9045,-106.8 725.9045,-112.8 725.9045,-112.8 725.9045,-124.8 725.9045,-124.8 725.9045,-130.8 719.9045,-136.8 713.9045,-136.8"></path><text text-anchor="middle" x="638" y="-114.6" font-family="Arial" font-size="14.00" fill="#333333">セゾンアメックス(家族)</text></g><!-- クレジットカード:セゾンアメックス(家族)&#45;&gt;世界 --><g id="edge10" class="edge"><title>クレジットカード:セゾンアメックス(家族)-&gt;世界</title><path fill="none" stroke="#333333" stroke-width="2" stroke-opacity="0.600000" d="M561.149,-100.3997C561.149,-100.3997 561.149,-62.0731 561.149,-62.0731"></path><polygon fill="#333333" fill-opacity="0.600000" stroke="#333333" stroke-width="2" stroke-opacity="0.600000" points="564.6491,-62.0731 561.149,-52.0731 557.6491,-62.0731 564.6491,-62.0731"></polygon></g><!-- クレジットカード:三井ショッピングパークカード --><g id="node4" class="node"><title>クレジットカード:三井ショッピングパークカード</title><path fill="#ffffff" stroke="#4b75b9" stroke-width="3" d="M962.3594,-136.8C962.3594,-136.8 755.6406,-136.8 755.6406,-136.8 749.6406,-136.8 743.6406,-130.8 743.6406,-124.8 743.6406,-124.8 743.6406,-112.8 743.6406,-112.8 743.6406,-106.8 749.6406,-100.8 755.6406,-100.8 755.6406,-100.8 962.3594,-100.8 962.3594,-100.8 968.3594,-100.8 974.3594,-106.8 974.3594,-112.8 974.3594,-112.8 974.3594,-124.8 974.3594,-124.8 974.3594,-130.8 968.3594,-136.8 962.3594,-136.8"></path><text text-anchor="middle" x="859" y="-114.6" font-family="Arial" font-size="14.00" fill="#333333">三井ショッピングパークカード</text></g><!-- ららぽーとなど --><g id="node17" class="node"><title>ららぽーとなど</title><path fill="none" stroke="#000000" stroke-width="2" d="M875.382,-52C875.382,-52 768.618,-52 768.618,-52 762.618,-52 756.618,-46 756.618,-40 756.618,-40 756.618,-28 756.618,-28 756.618,-22 762.618,-16 768.618,-16 768.618,-16 875.382,-16 875.382,-16 881.382,-16 887.382,-22 887.382,-28 887.382,-28 887.382,-40 887.382,-40 887.382,-46 881.382,-52 875.382,-52"></path><text text-anchor="middle" x="822" y="-29.8" font-family="Arial" font-size="14.00" fill="#000000">ららぽーとなど</text></g><!-- クレジットカード:三井ショッピングパークカード&#45;&gt;ららぽーとなど --><g id="edge12" class="edge"><title>クレジットカード:三井ショッピングパークカード-&gt;ららぽーとなど</title><path fill="none" stroke="#333333" stroke-width="2" stroke-opacity="0.600000" d="M822,-100.3997C822,-100.3997 822,-62.0731 822,-62.0731"></path><polygon fill="#333333" fill-opacity="0.600000" stroke="#333333" stroke-width="2" stroke-opacity="0.600000" points="825.5001,-62.0731 822,-52.0731 818.5001,-62.0731 825.5001,-62.0731"></polygon></g><!-- クレジットカード:セブンカード(家族) --><g id="node5" class="node"><title>クレジットカード:セブンカード(家族)</title><path fill="#ffffff" stroke="#4b75b9" stroke-width="3" d="M158.4444,-136.8C158.4444,-136.8 27.5556,-136.8 27.5556,-136.8 21.5556,-136.8 15.5556,-130.8 15.5556,-124.8 15.5556,-124.8 15.5556,-112.8 15.5556,-112.8 15.5556,-106.8 21.5556,-100.8 27.5556,-100.8 27.5556,-100.8 158.4444,-100.8 158.4444,-100.8 164.4444,-100.8 170.4444,-106.8 170.4444,-112.8 170.4444,-112.8 170.4444,-124.8 170.4444,-124.8 170.4444,-130.8 164.4444,-136.8 158.4444,-136.8"></path><text text-anchor="middle" x="93" y="-114.6" font-family="Arial" font-size="14.00" fill="#333333">セブンカード(家族)</text></g><!-- イトーヨーカドー --><g id="node18" class="node"><title>イトーヨーカドー</title><path fill="none" stroke="#000000" stroke-width="2" d="M159.2368,-52C159.2368,-52 26.7632,-52 26.7632,-52 20.7632,-52 14.7632,-46 14.7632,-40 14.7632,-40 14.7632,-28 14.7632,-28 14.7632,-22 20.7632,-16 26.7632,-16 26.7632,-16 159.2368,-16 159.2368,-16 165.2368,-16 171.2368,-22 171.2368,-28 171.2368,-28 171.2368,-40 171.2368,-40 171.2368,-46 165.2368,-52 159.2368,-52"></path><text text-anchor="middle" x="93" y="-29.8" font-family="Arial" font-size="14.00" fill="#000000">イトーヨーカドー</text></g><!-- クレジットカード:セブンカード(家族)&#45;&gt;イトーヨーカドー --><g id="edge14" class="edge"><title>クレジットカード:セブンカード(家族)-&gt;イトーヨーカドー</title><path fill="none" stroke="#333333" stroke-width="2" stroke-opacity="0.600000" d="M93,-100.3997C93,-100.3997 93,-62.0731 93,-62.0731"></path><polygon fill="#333333" fill-opacity="0.600000" stroke="#333333" stroke-width="2" stroke-opacity="0.600000" points="96.5001,-62.0731 93,-52.0731 89.5001,-62.0731 96.5001,-62.0731"></polygon></g><!-- クレジットカード:楽天カード --><g id="node6" class="node"><title>クレジットカード:楽天カード</title><path fill="#ffffff" stroke="#4b75b9" stroke-width="3" d="M1083.9548,-136.8C1083.9548,-136.8 1004.0452,-136.8 1004.0452,-136.8 998.0452,-136.8 992.0452,-130.8 992.0452,-124.8 992.0452,-124.8 992.0452,-112.8 992.0452,-112.8 992.0452,-106.8 998.0452,-100.8 1004.0452,-100.8 1004.0452,-100.8 1083.9548,-100.8 1083.9548,-100.8 1089.9548,-100.8 1095.9548,-106.8 1095.9548,-112.8 1095.9548,-112.8 1095.9548,-124.8 1095.9548,-124.8 1095.9548,-130.8 1089.9548,-136.8 1083.9548,-136.8"></path><text text-anchor="middle" x="1044" y="-114.6" font-family="Arial" font-size="14.00" fill="#333333">楽天カード</text></g><!-- 楽天証券:積立nisa --><g id="node12" class="node"><title>楽天証券:積立nisa</title><path fill="#ffffff" stroke="#4b75b9" stroke-width="3" d="M1069.1886,-52C1069.1886,-52 1018.8114,-52 1018.8114,-52 1012.8114,-52 1006.8114,-46 1006.8114,-40 1006.8114,-40 1006.8114,-28 1006.8114,-28 1006.8114,-22 1012.8114,-16 1018.8114,-16 1018.8114,-16 1069.1886,-16 1069.1886,-16 1075.1886,-16 1081.1886,-22 1081.1886,-28 1081.1886,-28 1081.1886,-40 1081.1886,-40 1081.1886,-46 1075.1886,-52 1069.1886,-52"></path><text text-anchor="middle" x="1044" y="-29.8" font-family="Arial" font-size="14.00" fill="#333333">積立NISA</text></g><!-- クレジットカード:楽天カード&#45;&gt;楽天証券:積立nisa --><g id="edge4" class="edge"><title>クレジットカード:楽天カード-&gt;楽天証券:積立nisa</title><path fill="none" stroke="#333333" stroke-width="2" stroke-opacity="0.600000" d="M1044,-100.3997C1044,-100.3997 1044,-62.0731 1044,-62.0731"></path><polygon fill="#333333" fill-opacity="0.600000" stroke="#333333" stroke-width="2" stroke-opacity="0.600000" points="1047.5001,-62.0731 1044,-52.0731 1040.5001,-62.0731 1047.5001,-62.0731"></polygon></g><!-- 楽天証券:投資信託 --><g id="node13" class="node"><title>楽天証券:投資信託</title><path fill="#ffffff" stroke="#4b75b9" stroke-width="3" d="M976.6878,-52C976.6878,-52 917.3122,-52 917.3122,-52 911.3122,-52 905.3122,-46 905.3122,-40 905.3122,-40 905.3122,-28 905.3122,-28 905.3122,-22 911.3122,-16 917.3122,-16 917.3122,-16 976.6878,-16 976.6878,-16 982.6878,-16 988.6878,-22 988.6878,-28 988.6878,-28 988.6878,-40 988.6878,-40 988.6878,-46 982.6878,-52 976.6878,-52"></path><text text-anchor="middle" x="947" y="-29.8" font-family="Arial" font-size="14.00" fill="#333333">投資信託</text></g><!-- クレジットカード:楽天カード&#45;&gt;楽天証券:投資信託 --><g id="edge5" class="edge"><title>クレジットカード:楽天カード-&gt;楽天証券:投資信託</title><path fill="none" stroke="#333333" stroke-width="2" stroke-opacity="0.600000" d="M992.2157,-118C985.9083,-118 981.6367,-118 981.6367,-118 981.6367,-118 981.6367,-62.2267 981.6367,-62.2267"></path><polygon fill="#333333" fill-opacity="0.600000" stroke="#333333" stroke-width="2" stroke-opacity="0.600000" points="985.1367,-62.2267 981.6367,-52.2267 978.1367,-62.2268 985.1367,-62.2267"></polygon></g><!-- 楽天市場 --><g id="node15" class="node"><title>楽天市場</title><path fill="none" stroke="#000000" stroke-width="2" d="M1160.6327,-52C1160.6327,-52 1111.3673,-52 1111.3673,-52 1105.3673,-52 1099.3673,-46 1099.3673,-40 1099.3673,-40 1099.3673,-28 1099.3673,-28 1099.3673,-22 1105.3673,-16 1111.3673,-16 1111.3673,-16 1160.6327,-16 1160.6327,-16 1166.6327,-16 1172.6327,-22 1172.6327,-28 1172.6327,-28 1172.6327,-40 1172.6327,-40 1172.6327,-46 1166.6327,-52 1160.6327,-52"></path><text text-anchor="middle" x="1136" y="-29.8" font-family="Arial" font-size="14.00" fill="#000000">楽天市場</text></g><!-- クレジットカード:楽天カード&#45;&gt;楽天市場 --><g id="edge6" class="edge"><title>クレジットカード:楽天カード-&gt;楽天市場</title><path fill="none" stroke="#333333" stroke-width="2" stroke-opacity="0.600000" d="M1088.5355,-100.3997C1088.5355,-75.4593 1088.5355,-34 1088.5355,-34 1088.5355,-34 1089.5888,-34 1089.5888,-34"></path><polygon fill="#333333" fill-opacity="0.600000" stroke="#333333" stroke-width="2" stroke-opacity="0.600000" points="1089.0694,-37.5001 1099.0694,-34 1089.0693,-30.5001 1089.0694,-37.5001"></polygon></g><!-- クレジットカード:イオンカード --><g id="node7" class="node"><title>クレジットカード:イオンカード</title><path fill="#ffffff" stroke="#4b75b9" stroke-width="3" d="M1212.3683,-136.8C1212.3683,-136.8 1125.6317,-136.8 1125.6317,-136.8 1119.6317,-136.8 1113.6317,-130.8 1113.6317,-124.8 1113.6317,-124.8 1113.6317,-112.8 1113.6317,-112.8 1113.6317,-106.8 1119.6317,-100.8 1125.6317,-100.8 1125.6317,-100.8 1212.3683,-100.8 1212.3683,-100.8 1218.3683,-100.8 1224.3683,-106.8 1224.3683,-112.8 1224.3683,-112.8 1224.3683,-124.8 1224.3683,-124.8 1224.3683,-130.8 1218.3683,-136.8 1212.3683,-136.8"></path><text text-anchor="middle" x="1169" y="-114.6" font-family="Arial" font-size="14.00" fill="#333333">イオンカード</text></g><!-- イオン --><g id="node19" class="node"><title>イオン</title><path fill="none" stroke="#000000" stroke-width="2" d="M1236.9874,-52C1236.9874,-52 1203.0126,-52 1203.0126,-52 1197.0126,-52 1191.0126,-46 1191.0126,-40 1191.0126,-40 1191.0126,-28 1191.0126,-28 1191.0126,-22 1197.0126,-16 1203.0126,-16 1203.0126,-16 1236.9874,-16 1236.9874,-16 1242.9874,-16 1248.9874,-22 1248.9874,-28 1248.9874,-28 1248.9874,-40 1248.9874,-40 1248.9874,-46 1242.9874,-52 1236.9874,-52"></path><text text-anchor="middle" x="1220" y="-29.8" font-family="Arial" font-size="14.00" fill="#000000">イオン</text></g><!-- クレジットカード:イオンカード&#45;&gt;イオン --><g id="edge16" class="edge"><title>クレジットカード:イオンカード-&gt;イオン</title><path fill="none" stroke="#333333" stroke-width="2" stroke-opacity="0.600000" d="M1207.7202,-100.3997C1207.7202,-100.3997 1207.7202,-62.0731 1207.7202,-62.0731"></path><polygon fill="#333333" fill-opacity="0.600000" stroke="#333333" stroke-width="2" stroke-opacity="0.600000" points="1211.2203,-62.0731 1207.7202,-52.0731 1204.2203,-62.0731 1211.2203,-62.0731"></polygon></g><!-- メインバンク:gmoあおぞらネット銀行 --><g id="node8" class="node"><title>メインバンク:gmoあおぞらネット銀行</title><path fill="#ffffff" stroke="#4b75b9" stroke-width="3" d="M687.6661,-221.6C687.6661,-221.6 536.3339,-221.6 536.3339,-221.6 530.3339,-221.6 524.3339,-215.6 524.3339,-209.6 524.3339,-209.6 524.3339,-197.6 524.3339,-197.6 524.3339,-191.6 530.3339,-185.6 536.3339,-185.6 536.3339,-185.6 687.6661,-185.6 687.6661,-185.6 693.6661,-185.6 699.6661,-191.6 699.6661,-197.6 699.6661,-197.6 699.6661,-209.6 699.6661,-209.6 699.6661,-215.6 693.6661,-221.6 687.6661,-221.6"></path><text text-anchor="middle" x="612" y="-199.4" font-family="Arial" font-size="14.00" fill="#333333">GMOあおぞらネット銀行</text></g><!-- メインバンク:gmoあおぞらネット銀行&#45;&gt;クレジットカード:セゾンアメックス(家族) --><g id="edge9" class="edge"><title>メインバンク:gmoあおぞらネット銀行-&gt;クレジットカード:セゾンアメックス(家族)</title><path fill="none" stroke="#333333" stroke-width="2" stroke-opacity="0.600000" d="M624.9405,-185.1997C624.9405,-185.1997 624.9405,-146.8731 624.9405,-146.8731"></path><polygon fill="#333333" fill-opacity="0.600000" stroke="#333333" stroke-width="2" stroke-opacity="0.600000" points="628.4406,-146.8731 624.9405,-136.8731 621.4406,-146.8731 628.4406,-146.8731"></polygon></g><!-- メインバンク:gmoあおぞらネット銀行&#45;&gt;クレジットカード:三井ショッピングパークカード --><g id="edge11" class="edge"><title>メインバンク:gmoあおぞらネット銀行-&gt;クレジットカード:三井ショッピングパークカード</title><path fill="none" stroke="#333333" stroke-width="2" stroke-opacity="0.600000" d="M699.7784,-203C770.7733,-203 859,-203 859,-203 859,-203 859,-147.0701 859,-147.0701"></path><polygon fill="#333333" fill-opacity="0.600000" stroke="#333333" stroke-width="2" stroke-opacity="0.600000" points="862.5001,-147.0701 859,-137.0701 855.5001,-147.0702 862.5001,-147.0701"></polygon></g><!-- メインバンク:三菱ufj銀行 --><g id="node9" class="node"><title>メインバンク:三菱ufj銀行</title><path fill="#ffffff" stroke="#4b75b9" stroke-width="3" d="M494.5084,-221.6C494.5084,-221.6 411.4916,-221.6 411.4916,-221.6 405.4916,-221.6 399.4916,-215.6 399.4916,-209.6 399.4916,-209.6 399.4916,-197.6 399.4916,-197.6 399.4916,-191.6 405.4916,-185.6 411.4916,-185.6 411.4916,-185.6 494.5084,-185.6 494.5084,-185.6 500.5084,-185.6 506.5084,-191.6 506.5084,-197.6 506.5084,-197.6 506.5084,-209.6 506.5084,-209.6 506.5084,-215.6 500.5084,-221.6 494.5084,-221.6"></path><text text-anchor="middle" x="453" y="-199.4" font-family="Arial" font-size="14.00" fill="#333333">三菱UFJ銀行</text></g><!-- メインバンク:三菱ufj銀行&#45;&gt;クレジットカード:amazon masterカード --><g id="edge7" class="edge"><title>メインバンク:三菱ufj銀行-&gt;クレジットカード:amazon masterカード</title><path fill="none" stroke="#333333" stroke-width="2" stroke-opacity="0.600000" d="M399.1841,-197C345.8302,-197 272,-197 272,-197 272,-197 272,-146.9372 272,-146.9372"></path><polygon fill="#333333" fill-opacity="0.600000" stroke="#333333" stroke-width="2" stroke-opacity="0.600000" points="275.5001,-146.9372 272,-136.9372 268.5001,-146.9372 275.5001,-146.9372"></polygon></g><!-- メインバンク:三菱ufj銀行&#45;&gt;クレジットカード:visa line payカード --><g id="edge1" class="edge"><title>メインバンク:三菱ufj銀行-&gt;クレジットカード:visa line payカード</title><path fill="none" stroke="#333333" stroke-width="2" stroke-opacity="0.600000" d="M453,-185.1997C453,-185.1997 453,-146.8731 453,-146.8731"></path><polygon fill="#333333" fill-opacity="0.600000" stroke="#333333" stroke-width="2" stroke-opacity="0.600000" points="456.5001,-146.8731 453,-136.8731 449.5001,-146.8731 456.5001,-146.8731"></polygon></g><!-- メインバンク:三菱ufj銀行&#45;&gt;クレジットカード:セブンカード(家族) --><g id="edge13" class="edge"><title>メインバンク:三菱ufj銀行-&gt;クレジットカード:セブンカード(家族)</title><path fill="none" stroke="#333333" stroke-width="2" stroke-opacity="0.600000" d="M399.4931,-209C299.2082,-209 93,-209 93,-209 93,-209 93,-147.0533 93,-147.0533"></path><polygon fill="#333333" fill-opacity="0.600000" stroke="#333333" stroke-width="2" stroke-opacity="0.600000" points="96.5001,-147.0533 93,-137.0533 89.5001,-147.0534 96.5001,-147.0533"></polygon></g><!-- サブバンク:楽天銀行 --><g id="node10" class="node"><title>サブバンク:楽天銀行</title><path fill="#ffffff" stroke="#4b75b9" stroke-width="3" d="M1083.5796,-221.6C1083.5796,-221.6 1022.4204,-221.6 1022.4204,-221.6 1016.4204,-221.6 1010.4204,-215.6 1010.4204,-209.6 1010.4204,-209.6 1010.4204,-197.6 1010.4204,-197.6 1010.4204,-191.6 1016.4204,-185.6 1022.4204,-185.6 1022.4204,-185.6 1083.5796,-185.6 1083.5796,-185.6 1089.5796,-185.6 1095.5796,-191.6 1095.5796,-197.6 1095.5796,-197.6 1095.5796,-209.6 1095.5796,-209.6 1095.5796,-215.6 1089.5796,-221.6 1083.5796,-221.6"></path><text text-anchor="middle" x="1053" y="-199.4" font-family="Arial" font-size="14.00" fill="#333333">楽天銀行</text></g><!-- サブバンク:楽天銀行&#45;&gt;クレジットカード:楽天カード --><g id="edge3" class="edge"><title>サブバンク:楽天銀行-&gt;クレジットカード:楽天カード</title><path fill="none" stroke="#333333" stroke-width="2" stroke-opacity="0.600000" d="M1052.9688,-185.1997C1052.9688,-185.1997 1052.9688,-146.8731 1052.9688,-146.8731"></path><polygon fill="#333333" fill-opacity="0.600000" stroke="#333333" stroke-width="2" stroke-opacity="0.600000" points="1056.4689,-146.8731 1052.9688,-136.8731 1049.4689,-146.8731 1056.4689,-146.8731"></polygon></g><!-- サブバンク:イオン銀行 --><g id="node11" class="node"><title>サブバンク:イオン銀行</title><path fill="#ffffff" stroke="#4b75b9" stroke-width="3" d="M1194.493,-221.6C1194.493,-221.6 1125.507,-221.6 1125.507,-221.6 1119.507,-221.6 1113.507,-215.6 1113.507,-209.6 1113.507,-209.6 1113.507,-197.6 1113.507,-197.6 1113.507,-191.6 1119.507,-185.6 1125.507,-185.6 1125.507,-185.6 1194.493,-185.6 1194.493,-185.6 1200.493,-185.6 1206.493,-191.6 1206.493,-197.6 1206.493,-197.6 1206.493,-209.6 1206.493,-209.6 1206.493,-215.6 1200.493,-221.6 1194.493,-221.6"></path><text text-anchor="middle" x="1160" y="-199.4" font-family="Arial" font-size="14.00" fill="#333333">イオン銀行</text></g><!-- サブバンク:イオン銀行&#45;&gt;クレジットカード:イオンカード --><g id="edge15" class="edge"><title>サブバンク:イオン銀行-&gt;クレジットカード:イオンカード</title><path fill="none" stroke="#333333" stroke-width="2" stroke-opacity="0.600000" d="M1160.0312,-185.1997C1160.0312,-185.1997 1160.0312,-146.8731 1160.0312,-146.8731"></path><polygon fill="#333333" fill-opacity="0.600000" stroke="#333333" stroke-width="2" stroke-opacity="0.600000" points="1163.5313,-146.8731 1160.0312,-136.8731 1156.5313,-146.8731 1163.5313,-146.8731"></polygon></g></g></svg>