<?xml version="1.0" encoding="UTF-8" standalone="no"?><!-- Generated by graphviz version 2.40.1 (20161225.0304)
 --><!-- Title: ndiag Pages: 1 --><svg width="622pt" height="222pt" viewBox="0.00 0.00 622.00 221.60" xmlns="http://www.w3.org/2000/svg" xmlns:xlink="http://www.w3.org/1999/xlink"><g id="graph0" class="graph" transform="scale(1 1) rotate(0) translate(4 217.6)"><title>ndiag</title><polygon fill="#ffffff" stroke="transparent" points="-4,4 -4,-217.6 618,-217.6 618,4 -4,4"></polygon><g id="clust5" class="cluster"><title>cluster_セゾンカード</title><polygon fill="none" stroke="#999999" stroke-width="2" points="388,-8 388,-84.8 606,-84.8 606,-8 388,-8"></polygon><text text-anchor="middle" x="497" y="-68.2" font-family="Arial" font-size="14.00" fill="#666666">セゾンカード</text></g><g id="clust4" class="cluster"><title>cluster_住信SBIネット銀行</title><polygon fill="none" stroke="#999999" stroke-width="2" points="229,-8 229,-84.8 380,-84.8 380,-8 229,-8"></polygon><text text-anchor="middle" x="304.5" y="-68.2" font-family="Arial" font-size="14.00" fill="#666666">住信SBIネット銀行</text></g><g id="clust3" class="cluster"><title>cluster_楽天銀行</title><polygon fill="none" stroke="#999999" stroke-width="2" points="123,-8 123,-84.8 221,-84.8 221,-8 123,-8"></polygon><text text-anchor="middle" x="172" y="-68.2" font-family="Arial" font-size="14.00" fill="#666666">楽天銀行</text></g><g id="clust2" class="cluster"><title>cluster_三菱UFJ銀行</title><polygon fill="none" stroke="#999999" stroke-width="2" points="8,-8 8,-84.8 115,-84.8 115,-8 8,-8"></polygon><text text-anchor="middle" x="61.5" y="-68.2" font-family="Arial" font-size="14.00" fill="#666666">三菱UFJ銀行</text></g><g id="clust1" class="cluster"><title>cluster_GMOあおぞらネット銀行</title><polygon fill="none" stroke="#000000" stroke-width="2" points="217,-92.8 217,-169.6 392,-169.6 392,-92.8 217,-92.8"></polygon><text text-anchor="middle" x="304.5" y="-153" font-family="Arial" font-size="14.00" fill="#000000">GMOあおぞらネット銀行</text></g><!-- gmoあおぞらネット銀行:普通口座 --><g id="node1" class="node"><title>gmoあおぞらネット銀行:普通口座</title><path fill="#ffffff" stroke="#4b75b9" stroke-width="3" d="M332.8514,-136.8C332.8514,-136.8 275.1486,-136.8 275.1486,-136.8 269.1486,-136.8 263.1486,-130.8 263.1486,-124.8 263.1486,-124.8 263.1486,-112.8 263.1486,-112.8 263.1486,-106.8 269.1486,-100.8 275.1486,-100.8 275.1486,-100.8 332.8514,-100.8 332.8514,-100.8 338.8514,-100.8 344.8514,-106.8 344.8514,-112.8 344.8514,-112.8 344.8514,-124.8 344.8514,-124.8 344.8514,-130.8 338.8514,-136.8 332.8514,-136.8"></path><text text-anchor="middle" x="304" y="-114.6" font-family="Arial" font-size="14.00" fill="#333333">普通口座</text></g><!-- 三菱ufj銀行:普通口座 --><g id="node2" class="node"><title>三菱ufj銀行:普通口座</title><path fill="#ffffff" stroke="#4b75b9" stroke-width="3" d="M94.8514,-52C94.8514,-52 37.1486,-52 37.1486,-52 31.1486,-52 25.1486,-46 25.1486,-40 25.1486,-40 25.1486,-28 25.1486,-28 25.1486,-22 31.1486,-16 37.1486,-16 37.1486,-16 94.8514,-16 94.8514,-16 100.8514,-16 106.8514,-22 106.8514,-28 106.8514,-28 106.8514,-40 106.8514,-40 106.8514,-46 100.8514,-52 94.8514,-52"></path><text text-anchor="middle" x="66" y="-29.8" font-family="Arial" font-size="14.00" fill="#333333">普通口座</text></g><!-- gmoあおぞらネット銀行:普通口座&#45;&gt;三菱ufj銀行:普通口座 --><g id="edge2" class="edge"><title>gmoあおぞらネット銀行:普通口座-&gt;三菱ufj銀行:普通口座</title><path fill="none" stroke="#333333" stroke-width="2" stroke-opacity="0.600000" d="M263.0863,-124C195.0386,-124 66,-124 66,-124 66,-124 66,-62.2128 66,-62.2128"></path><polygon fill="#333333" fill-opacity="0.600000" stroke="#333333" stroke-width="2" stroke-opacity="0.600000" points="69.5001,-62.2128 66,-52.2128 62.5001,-62.2129 69.5001,-62.2128"></polygon></g><!-- 楽天銀行:普通口座 --><g id="node3" class="node"><title>楽天銀行:普通口座</title><path fill="#ffffff" stroke="#4b75b9" stroke-width="3" d="M200.8514,-52C200.8514,-52 143.1486,-52 143.1486,-52 137.1486,-52 131.1486,-46 131.1486,-40 131.1486,-40 131.1486,-28 131.1486,-28 131.1486,-22 137.1486,-16 143.1486,-16 143.1486,-16 200.8514,-16 200.8514,-16 206.8514,-16 212.8514,-22 212.8514,-28 212.8514,-28 212.8514,-40 212.8514,-40 212.8514,-46 206.8514,-52 200.8514,-52"></path><text text-anchor="middle" x="172" y="-29.8" font-family="Arial" font-size="14.00" fill="#333333">普通口座</text></g><!-- gmoあおぞらネット銀行:普通口座&#45;&gt;楽天銀行:普通口座 --><g id="edge3" class="edge"><title>gmoあおぞらネット銀行:普通口座-&gt;楽天銀行:普通口座</title><path fill="none" stroke="#333333" stroke-width="2" stroke-opacity="0.600000" d="M263.3186,-112C224.5338,-112 172,-112 172,-112 172,-112 172,-62.0908 172,-62.0908"></path><polygon fill="#333333" fill-opacity="0.600000" stroke="#333333" stroke-width="2" stroke-opacity="0.600000" points="175.5001,-62.0908 172,-52.0908 168.5001,-62.0909 175.5001,-62.0908"></polygon></g><!-- 住信sbiネット銀行:普通口座 --><g id="node4" class="node"><title>住信sbiネット銀行:普通口座</title><path fill="#ffffff" stroke="#4b75b9" stroke-width="3" d="M332.8514,-52C332.8514,-52 275.1486,-52 275.1486,-52 269.1486,-52 263.1486,-46 263.1486,-40 263.1486,-40 263.1486,-28 263.1486,-28 263.1486,-22 269.1486,-16 275.1486,-16 275.1486,-16 332.8514,-16 332.8514,-16 338.8514,-16 344.8514,-22 344.8514,-28 344.8514,-28 344.8514,-40 344.8514,-40 344.8514,-46 338.8514,-52 332.8514,-52"></path><text text-anchor="middle" x="304" y="-29.8" font-family="Arial" font-size="14.00" fill="#333333">普通口座</text></g><!-- gmoあおぞらネット銀行:普通口座&#45;&gt;住信sbiネット銀行:普通口座 --><g id="edge4" class="edge"><title>gmoあおぞらネット銀行:普通口座-&gt;住信sbiネット銀行:普通口座</title><path fill="none" stroke="#333333" stroke-width="2" stroke-opacity="0.600000" d="M304,-100.3997C304,-100.3997 304,-62.0731 304,-62.0731"></path><polygon fill="#333333" fill-opacity="0.600000" stroke="#333333" stroke-width="2" stroke-opacity="0.600000" points="307.5001,-62.0731 304,-52.0731 300.5001,-62.0731 307.5001,-62.0731"></polygon></g><!-- セゾンカード:amex(家族) --><g id="node5" class="node"><title>セゾンカード:amex(家族)</title><path fill="#ffffff" stroke="#4b75b9" stroke-width="3" d="M585.6802,-52C585.6802,-52 518.3198,-52 518.3198,-52 512.3198,-52 506.3198,-46 506.3198,-40 506.3198,-40 506.3198,-28 506.3198,-28 506.3198,-22 512.3198,-16 518.3198,-16 518.3198,-16 585.6802,-16 585.6802,-16 591.6802,-16 597.6802,-22 597.6802,-28 597.6802,-28 597.6802,-40 597.6802,-40 597.6802,-46 591.6802,-52 585.6802,-52"></path><text text-anchor="middle" x="552" y="-29.8" font-family="Arial" font-size="14.00" fill="#333333">Amex(家族)</text></g><!-- gmoあおぞらネット銀行:普通口座&#45;&gt;セゾンカード:amex(家族) --><g id="edge5" class="edge"><title>gmoあおぞらネット銀行:普通口座-&gt;セゾンカード:amex(家族)</title><path fill="none" stroke="#333333" stroke-width="2" stroke-opacity="0.600000" d="M344.9522,-124C415.3911,-124 552,-124 552,-124 552,-124 552,-62.2128 552,-62.2128"></path><polygon fill="#333333" fill-opacity="0.600000" stroke="#333333" stroke-width="2" stroke-opacity="0.600000" points="555.5001,-62.2128 552,-52.2128 548.5001,-62.2129 555.5001,-62.2128"></polygon></g><!-- セゾンカード:三井カード --><g id="node6" class="node"><title>セゾンカード:三井カード</title><path fill="#ffffff" stroke="#4b75b9" stroke-width="3" d="M476.2106,-52C476.2106,-52 407.7894,-52 407.7894,-52 401.7894,-52 395.7894,-46 395.7894,-40 395.7894,-40 395.7894,-28 395.7894,-28 395.7894,-22 401.7894,-16 407.7894,-16 407.7894,-16 476.2106,-16 476.2106,-16 482.2106,-16 488.2106,-22 488.2106,-28 488.2106,-28 488.2106,-40 488.2106,-40 488.2106,-46 482.2106,-52 476.2106,-52"></path><text text-anchor="middle" x="442" y="-29.8" font-family="Arial" font-size="14.00" fill="#333333">三井カード</text></g><!-- gmoあおぞらネット銀行:普通口座&#45;&gt;セゾンカード:三井カード --><g id="edge6" class="edge"><title>gmoあおぞらネット銀行:普通口座-&gt;セゾンカード:三井カード</title><path fill="none" stroke="#333333" stroke-width="2" stroke-opacity="0.600000" d="M345.0309,-112C385.7096,-112 442,-112 442,-112 442,-112 442,-62.0908 442,-62.0908"></path><polygon fill="#333333" fill-opacity="0.600000" stroke="#333333" stroke-width="2" stroke-opacity="0.600000" points="445.5001,-62.0908 442,-52.0908 438.5001,-62.0909 445.5001,-62.0908"></polygon></g><!-- 会社 --><g id="node7" class="node"><title>会社</title><path fill="none" stroke="#000000" stroke-width="2" d="M319,-213.6C319,-213.6 289,-213.6 289,-213.6 283,-213.6 277,-207.6 277,-201.6 277,-201.6 277,-189.6 277,-189.6 277,-183.6 283,-177.6 289,-177.6 289,-177.6 319,-177.6 319,-177.6 325,-177.6 331,-183.6 331,-189.6 331,-189.6 331,-201.6 331,-201.6 331,-207.6 325,-213.6 319,-213.6"></path><text text-anchor="middle" x="304" y="-191.4" font-family="Arial" font-size="14.00" fill="#000000">会社</text></g><!-- 会社&#45;&gt;gmoあおぞらネット銀行:普通口座 --><g id="edge1" class="edge"><title>会社-&gt;gmoあおぞらネット銀行:普通口座</title><path fill="none" stroke="#333333" stroke-width="2" stroke-opacity="0.600000" d="M304,-177.3995C304,-177.3995 304,-146.8699 304,-146.8699"></path><polygon fill="#333333" fill-opacity="0.600000" stroke="#333333" stroke-width="2" stroke-opacity="0.600000" points="307.5001,-146.8698 304,-136.8699 300.5001,-146.8699 307.5001,-146.8698"></polygon></g></g></svg>