<?xml version="1.0" encoding="UTF-8" standalone="no"?><!-- Generated by graphviz version 2.40.1 (20161225.0304)
 --><!-- Title: ndiag Pages: 1 --><svg width="245pt" height="242pt" viewBox="0.00 0.00 245.19 241.60" xmlns="http://www.w3.org/2000/svg" xmlns:xlink="http://www.w3.org/1999/xlink"><g id="graph0" class="graph" transform="scale(1 1) rotate(0) translate(4 237.6)"><title>ndiag</title><polygon fill="#ffffff" stroke="transparent" points="-4,4 -4,-237.6 241.1907,-237.6 241.1907,4 -4,4"></polygon><g id="clust2" class="cluster"><title>cluster_GMOあおぞらネット銀行</title><polygon fill="none" stroke="#999999" stroke-width="2" points="31,-148.8 31,-225.6 206,-225.6 206,-148.8 31,-148.8"></polygon><text text-anchor="middle" x="118.5" y="-209" font-family="Arial" font-size="14.00" fill="#666666">GMOあおぞらネット銀行</text></g><g id="clust1" class="cluster"><title>cluster_セゾンカード</title><polygon fill="none" stroke="#000000" stroke-width="2" points="8,-64 8,-140.8 226,-140.8 226,-64 8,-64"></polygon><text text-anchor="middle" x="117" y="-124.2" font-family="Arial" font-size="14.00" fill="#000000">セゾンカード</text></g><!-- セゾンカード:amex(家族) --><g id="node1" class="node"><title>セゾンカード:amex(家族)</title><path fill="#ffffff" stroke="#4b75b9" stroke-width="3" d="M95.6802,-108C95.6802,-108 28.3198,-108 28.3198,-108 22.3198,-108 16.3198,-102 16.3198,-96 16.3198,-96 16.3198,-84 16.3198,-84 16.3198,-78 22.3198,-72 28.3198,-72 28.3198,-72 95.6802,-72 95.6802,-72 101.6802,-72 107.6802,-78 107.6802,-84 107.6802,-84 107.6802,-96 107.6802,-96 107.6802,-102 101.6802,-108 95.6802,-108"></path><text text-anchor="middle" x="62" y="-85.8" font-family="Arial" font-size="14.00" fill="#333333">Amex(家族)</text></g><!-- 世界 --><g id="node4" class="node"><title>世界</title><path fill="none" stroke="#000000" stroke-width="2" d="M77,-36C77,-36 47,-36 47,-36 41,-36 35,-30 35,-24 35,-24 35,-12 35,-12 35,-6 41,0 47,0 47,0 77,0 77,0 83,0 89,-6 89,-12 89,-12 89,-24 89,-24 89,-30 83,-36 77,-36"></path><text text-anchor="middle" x="62" y="-13.8" font-family="Arial" font-size="14.00" fill="#000000">世界</text></g><!-- セゾンカード:amex(家族)&#45;&gt;世界 --><g id="edge2" class="edge"><title>セゾンカード:amex(家族)-&gt;世界</title><path fill="none" stroke="#333333" stroke-width="2" stroke-opacity="0.600000" d="M62,-71.8314C62,-71.8314 62,-46.4133 62,-46.4133"></path><polygon fill="#333333" fill-opacity="0.600000" stroke="#333333" stroke-width="2" stroke-opacity="0.600000" points="65.5001,-46.4132 62,-36.4133 58.5001,-46.4133 65.5001,-46.4132"></polygon></g><!-- セゾンカード:三井カード --><g id="node2" class="node"><title>セゾンカード:三井カード</title><path fill="#ffffff" stroke="#4b75b9" stroke-width="3" d="M206.2106,-108C206.2106,-108 137.7894,-108 137.7894,-108 131.7894,-108 125.7894,-102 125.7894,-96 125.7894,-96 125.7894,-84 125.7894,-84 125.7894,-78 131.7894,-72 137.7894,-72 137.7894,-72 206.2106,-72 206.2106,-72 212.2106,-72 218.2106,-78 218.2106,-84 218.2106,-84 218.2106,-96 218.2106,-96 218.2106,-102 212.2106,-108 206.2106,-108"></path><text text-anchor="middle" x="172" y="-85.8" font-family="Arial" font-size="14.00" fill="#333333">三井カード</text></g><!-- ららぽーとなど --><g id="node5" class="node"><title>ららぽーとなど</title><path fill="none" stroke="#000000" stroke-width="2" d="M225.382,-36C225.382,-36 118.618,-36 118.618,-36 112.618,-36 106.618,-30 106.618,-24 106.618,-24 106.618,-12 106.618,-12 106.618,-6 112.618,0 118.618,0 118.618,0 225.382,0 225.382,0 231.382,0 237.382,-6 237.382,-12 237.382,-12 237.382,-24 237.382,-24 237.382,-30 231.382,-36 225.382,-36"></path><text text-anchor="middle" x="172" y="-13.8" font-family="Arial" font-size="14.00" fill="#000000">ららぽーとなど</text></g><!-- セゾンカード:三井カード&#45;&gt;ららぽーとなど --><g id="edge4" class="edge"><title>セゾンカード:三井カード-&gt;ららぽーとなど</title><path fill="none" stroke="#333333" stroke-width="2" stroke-opacity="0.600000" d="M172,-71.8314C172,-71.8314 172,-46.4133 172,-46.4133"></path><polygon fill="#333333" fill-opacity="0.600000" stroke="#333333" stroke-width="2" stroke-opacity="0.600000" points="175.5001,-46.4132 172,-36.4133 168.5001,-46.4133 175.5001,-46.4132"></polygon></g><!-- gmoあおぞらネット銀行:普通口座 --><g id="node3" class="node"><title>gmoあおぞらネット銀行:普通口座</title><path fill="#ffffff" stroke="#4b75b9" stroke-width="3" d="M110.8514,-192.8C110.8514,-192.8 53.1486,-192.8 53.1486,-192.8 47.1486,-192.8 41.1486,-186.8 41.1486,-180.8 41.1486,-180.8 41.1486,-168.8 41.1486,-168.8 41.1486,-162.8 47.1486,-156.8 53.1486,-156.8 53.1486,-156.8 110.8514,-156.8 110.8514,-156.8 116.8514,-156.8 122.8514,-162.8 122.8514,-168.8 122.8514,-168.8 122.8514,-180.8 122.8514,-180.8 122.8514,-186.8 116.8514,-192.8 110.8514,-192.8"></path><text text-anchor="middle" x="82" y="-170.6" font-family="Arial" font-size="14.00" fill="#333333">普通口座</text></g><!-- gmoあおぞらネット銀行:普通口座&#45;&gt;セゾンカード:amex(家族) --><g id="edge1" class="edge"><title>gmoあおぞらネット銀行:普通口座-&gt;セゾンカード:amex(家族)</title><path fill="none" stroke="#333333" stroke-width="2" stroke-opacity="0.600000" d="M74.4574,-156.3997C74.4574,-156.3997 74.4574,-118.0731 74.4574,-118.0731"></path><polygon fill="#333333" fill-opacity="0.600000" stroke="#333333" stroke-width="2" stroke-opacity="0.600000" points="77.9574,-118.0731 74.4574,-108.0731 70.9574,-118.0731 77.9574,-118.0731"></polygon></g><!-- gmoあおぞらネット銀行:普通口座&#45;&gt;セゾンカード:三井カード --><g id="edge3" class="edge"><title>gmoあおぞらネット銀行:普通口座-&gt;セゾンカード:三井カード</title><path fill="none" stroke="#333333" stroke-width="2" stroke-opacity="0.600000" d="M115.1327,-156.3997C115.1327,-131.4593 115.1327,-90 115.1327,-90 115.1327,-90 116.2023,-90 116.2023,-90"></path><polygon fill="#333333" fill-opacity="0.600000" stroke="#333333" stroke-width="2" stroke-opacity="0.600000" points="115.829,-93.5001 125.829,-90 115.8289,-86.5001 115.829,-93.5001"></polygon></g></g></svg>