<?xml version="1.0" encoding="UTF-8" standalone="no"?><!-- Generated by graphviz version 2.40.1 (20161225.0304)
 --><!-- Title: ndiag Pages: 1 --><svg width="1595pt" height="298pt" viewBox="0.00 0.00 1595.00 298.40" xmlns="http://www.w3.org/2000/svg" xmlns:xlink="http://www.w3.org/1999/xlink"><g id="graph0" class="graph" transform="scale(1 1) rotate(0) translate(4 294.4)"><title>ndiag</title><polygon fill="#ffffff" stroke="transparent" points="-4,4 -4,-294.4 1591,-294.4 1591,4 -4,4"></polygon><g id="clust5" class="cluster"><title>cluster_県民共済</title><polygon fill="none" stroke="#999999" stroke-width="2" points="172,-8 172,-84.8 242,-84.8 242,-8 172,-8"></polygon><text text-anchor="middle" x="207" y="-68.2" font-family="Arial" font-size="14.00" fill="#666666">県民共済</text></g><g id="clust4" class="cluster"><title>cluster_プルデンシャル生命</title><polygon fill="none" stroke="#999999" stroke-width="2" points="8,-8 8,-84.8 164,-84.8 164,-8 8,-8"></polygon><text text-anchor="middle" x="86" y="-68.2" font-family="Arial" font-size="14.00" fill="#666666">プルデンシャル生命</text></g><g id="clust3" class="cluster"><title>cluster_サブバンク</title><polygon fill="none" stroke="#999999" stroke-width="2" points="827,-92.8 827,-169.6 1305,-169.6 1305,-92.8 827,-92.8"></polygon><text text-anchor="middle" x="1066" y="-153" font-family="Arial" font-size="14.00" fill="#666666">サブバンク</text></g><g id="clust2" class="cluster"><title>cluster_クレジットカード</title><polygon fill="none" stroke="#999999" stroke-width="2" points="422,-8 422,-84.8 1579,-84.8 1579,-8 422,-8"></polygon><text text-anchor="middle" x="1000.5" y="-68.2" font-family="Arial" font-size="14.00" fill="#666666">クレジットカード</text></g><g id="clust1" class="cluster"><title>cluster_メインバンク</title><polygon fill="none" stroke="#000000" stroke-width="2" points="627,-92.8 627,-246.4 819,-246.4 819,-92.8 627,-92.8"></polygon><text text-anchor="middle" x="723" y="-229.8" font-family="Arial" font-size="14.00" fill="#000000">メインバンク</text></g><!-- メインバンク:gmoあおぞらネット銀行 --><g id="node1" class="node"><title>メインバンク:gmoあおぞらネット銀行</title><path fill="#ffffff" stroke="#4b75b9" stroke-width="3" d="M798.6661,-213.6C798.6661,-213.6 647.3339,-213.6 647.3339,-213.6 641.3339,-213.6 635.3339,-207.6 635.3339,-201.6 635.3339,-201.6 635.3339,-189.6 635.3339,-189.6 635.3339,-183.6 641.3339,-177.6 647.3339,-177.6 647.3339,-177.6 798.6661,-177.6 798.6661,-177.6 804.6661,-177.6 810.6661,-183.6 810.6661,-189.6 810.6661,-189.6 810.6661,-201.6 810.6661,-201.6 810.6661,-207.6 804.6661,-213.6 798.6661,-213.6"></path><text text-anchor="middle" x="723" y="-191.4" font-family="Arial" font-size="14.00" fill="#333333">GMOあおぞらネット銀行</text></g><!-- メインバンク:三菱ufj銀行 --><g id="node2" class="node"><title>メインバンク:三菱ufj銀行</title><path fill="#ffffff" stroke="#4b75b9" stroke-width="3" d="M730.5084,-136.8C730.5084,-136.8 647.4916,-136.8 647.4916,-136.8 641.4916,-136.8 635.4916,-130.8 635.4916,-124.8 635.4916,-124.8 635.4916,-112.8 635.4916,-112.8 635.4916,-106.8 641.4916,-100.8 647.4916,-100.8 647.4916,-100.8 730.5084,-100.8 730.5084,-100.8 736.5084,-100.8 742.5084,-106.8 742.5084,-112.8 742.5084,-112.8 742.5084,-124.8 742.5084,-124.8 742.5084,-130.8 736.5084,-136.8 730.5084,-136.8"></path><text text-anchor="middle" x="689" y="-114.6" font-family="Arial" font-size="14.00" fill="#333333">三菱UFJ銀行</text></g><!-- メインバンク:gmoあおぞらネット銀行&#45;&gt;メインバンク:三菱ufj銀行 --><g id="edge2" class="edge"><title>メインバンク:gmoあおぞらネット銀行-&gt;メインバンク:三菱ufj銀行</title><path fill="none" stroke="#333333" stroke-width="2" stroke-opacity="0.600000" d="M689,-177.3995C689,-177.3995 689,-146.8699 689,-146.8699"></path><polygon fill="#333333" fill-opacity="0.600000" stroke="#333333" stroke-width="2" stroke-opacity="0.600000" points="692.5001,-146.8698 689,-136.8699 685.5001,-146.8699 692.5001,-146.8698"></polygon></g><!-- クレジットカード:セゾンアメックス(家族) --><g id="node5" class="node"><title>クレジットカード:セゾンアメックス(家族)</title><path fill="#ffffff" stroke="#4b75b9" stroke-width="3" d="M1558.9045,-52C1558.9045,-52 1407.0955,-52 1407.0955,-52 1401.0955,-52 1395.0955,-46 1395.0955,-40 1395.0955,-40 1395.0955,-28 1395.0955,-28 1395.0955,-22 1401.0955,-16 1407.0955,-16 1407.0955,-16 1558.9045,-16 1558.9045,-16 1564.9045,-16 1570.9045,-22 1570.9045,-28 1570.9045,-28 1570.9045,-40 1570.9045,-40 1570.9045,-46 1564.9045,-52 1558.9045,-52"></path><text text-anchor="middle" x="1483" y="-29.8" font-family="Arial" font-size="14.00" fill="#333333">セゾンアメックス(家族)</text></g><!-- メインバンク:gmoあおぞらネット銀行&#45;&gt;クレジットカード:セゾンアメックス(家族) --><g id="edge8" class="edge"><title>メインバンク:gmoあおぞらネット銀行-&gt;クレジットカード:セゾンアメックス(家族)</title><path fill="none" stroke="#333333" stroke-width="2" stroke-opacity="0.600000" d="M810.9241,-207C1010.9796,-207 1483,-207 1483,-207 1483,-207 1483,-62.1871 1483,-62.1871"></path><polygon fill="#333333" fill-opacity="0.600000" stroke="#333333" stroke-width="2" stroke-opacity="0.600000" points="1486.5001,-62.187 1483,-52.1871 1479.5001,-62.1871 1486.5001,-62.187"></polygon></g><!-- クレジットカード:三井ショッピングパークカード --><g id="node6" class="node"><title>クレジットカード:三井ショッピングパークカード</title><path fill="#ffffff" stroke="#4b75b9" stroke-width="3" d="M1365.3594,-52C1365.3594,-52 1158.6406,-52 1158.6406,-52 1152.6406,-52 1146.6406,-46 1146.6406,-40 1146.6406,-40 1146.6406,-28 1146.6406,-28 1146.6406,-22 1152.6406,-16 1158.6406,-16 1158.6406,-16 1365.3594,-16 1365.3594,-16 1371.3594,-16 1377.3594,-22 1377.3594,-28 1377.3594,-28 1377.3594,-40 1377.3594,-40 1377.3594,-46 1371.3594,-52 1365.3594,-52"></path><text text-anchor="middle" x="1262" y="-29.8" font-family="Arial" font-size="14.00" fill="#333333">三井ショッピングパークカード</text></g><!-- メインバンク:gmoあおぞらネット銀行&#45;&gt;クレジットカード:三井ショッピングパークカード --><g id="edge9" class="edge"><title>メインバンク:gmoあおぞらネット銀行-&gt;クレジットカード:三井ショッピングパークカード</title><path fill="none" stroke="#333333" stroke-width="2" stroke-opacity="0.600000" d="M810.6576,-195C949.0061,-195 1202.4388,-195 1202.4388,-195 1202.4388,-195 1202.4388,-62.1558 1202.4388,-62.1558"></path><polygon fill="#333333" fill-opacity="0.600000" stroke="#333333" stroke-width="2" stroke-opacity="0.600000" points="1205.9389,-62.1557 1202.4388,-52.1558 1198.9389,-62.1558 1205.9389,-62.1557"></polygon></g><!-- サブバンク:楽天銀行 --><g id="node9" class="node"><title>サブバンク:楽天銀行</title><path fill="#ffffff" stroke="#4b75b9" stroke-width="3" d="M1284.5796,-136.8C1284.5796,-136.8 1223.4204,-136.8 1223.4204,-136.8 1217.4204,-136.8 1211.4204,-130.8 1211.4204,-124.8 1211.4204,-124.8 1211.4204,-112.8 1211.4204,-112.8 1211.4204,-106.8 1217.4204,-100.8 1223.4204,-100.8 1223.4204,-100.8 1284.5796,-100.8 1284.5796,-100.8 1290.5796,-100.8 1296.5796,-106.8 1296.5796,-112.8 1296.5796,-112.8 1296.5796,-124.8 1296.5796,-124.8 1296.5796,-130.8 1290.5796,-136.8 1284.5796,-136.8"></path><text text-anchor="middle" x="1254" y="-114.6" font-family="Arial" font-size="14.00" fill="#333333">楽天銀行</text></g><!-- メインバンク:gmoあおぞらネット銀行&#45;&gt;サブバンク:楽天銀行 --><g id="edge4" class="edge"><title>メインバンク:gmoあおぞらネット銀行-&gt;サブバンク:楽天銀行</title><path fill="none" stroke="#333333" stroke-width="2" stroke-opacity="0.600000" d="M810.6839,-201C961.5027,-201 1254,-201 1254,-201 1254,-201 1254,-147.0428 1254,-147.0428"></path><polygon fill="#333333" fill-opacity="0.600000" stroke="#333333" stroke-width="2" stroke-opacity="0.600000" points="1257.5001,-147.0428 1254,-137.0428 1250.5001,-147.0429 1257.5001,-147.0428"></polygon></g><!-- サブバンク:住信sbiネット銀行 --><g id="node10" class="node"><title>サブバンク:住信sbiネット銀行</title><path fill="#ffffff" stroke="#4b75b9" stroke-width="3" d="M1181.8342,-136.8C1181.8342,-136.8 1054.1658,-136.8 1054.1658,-136.8 1048.1658,-136.8 1042.1658,-130.8 1042.1658,-124.8 1042.1658,-124.8 1042.1658,-112.8 1042.1658,-112.8 1042.1658,-106.8 1048.1658,-100.8 1054.1658,-100.8 1054.1658,-100.8 1181.8342,-100.8 1181.8342,-100.8 1187.8342,-100.8 1193.8342,-106.8 1193.8342,-112.8 1193.8342,-112.8 1193.8342,-124.8 1193.8342,-124.8 1193.8342,-130.8 1187.8342,-136.8 1181.8342,-136.8"></path><text text-anchor="middle" x="1118" y="-114.6" font-family="Arial" font-size="14.00" fill="#333333">住信SBIネット銀行</text></g><!-- メインバンク:gmoあおぞらネット銀行&#45;&gt;サブバンク:住信sbiネット銀行 --><g id="edge5" class="edge"><title>メインバンク:gmoあおぞらネット銀行-&gt;サブバンク:住信sbiネット銀行</title><path fill="none" stroke="#333333" stroke-width="2" stroke-opacity="0.600000" d="M810.6633,-189C927.0335,-189 1118,-189 1118,-189 1118,-189 1118,-146.8782 1118,-146.8782"></path><polygon fill="#333333" fill-opacity="0.600000" stroke="#333333" stroke-width="2" stroke-opacity="0.600000" points="1121.5001,-146.8782 1118,-136.8782 1114.5001,-146.8783 1121.5001,-146.8782"></polygon></g><!-- サブバンク:イオン銀行 --><g id="node11" class="node"><title>サブバンク:イオン銀行</title><path fill="#ffffff" stroke="#4b75b9" stroke-width="3" d="M1012.493,-136.8C1012.493,-136.8 943.507,-136.8 943.507,-136.8 937.507,-136.8 931.507,-130.8 931.507,-124.8 931.507,-124.8 931.507,-112.8 931.507,-112.8 931.507,-106.8 937.507,-100.8 943.507,-100.8 943.507,-100.8 1012.493,-100.8 1012.493,-100.8 1018.493,-100.8 1024.493,-106.8 1024.493,-112.8 1024.493,-112.8 1024.493,-124.8 1024.493,-124.8 1024.493,-130.8 1018.493,-136.8 1012.493,-136.8"></path><text text-anchor="middle" x="978" y="-114.6" font-family="Arial" font-size="14.00" fill="#333333">イオン銀行</text></g><!-- メインバンク:gmoあおぞらネット銀行&#45;&gt;サブバンク:イオン銀行 --><g id="edge13" class="edge"><title>メインバンク:gmoあおぞらネット銀行-&gt;サブバンク:イオン銀行</title><path fill="none" stroke="#333333" stroke-width="2" stroke-opacity="0.600000" d="M810.7565,-183C884.5189,-183 978,-183 978,-183 978,-183 978,-147.0254 978,-147.0254"></path><polygon fill="#333333" fill-opacity="0.600000" stroke="#333333" stroke-width="2" stroke-opacity="0.600000" points="981.5001,-147.0254 978,-137.0254 974.5001,-147.0255 981.5001,-147.0254"></polygon></g><!-- サブバンク:千葉銀行 --><g id="node12" class="node"><title>サブバンク:千葉銀行</title><path fill="#ffffff" stroke="#4b75b9" stroke-width="3" d="M901.2416,-136.8C901.2416,-136.8 846.7584,-136.8 846.7584,-136.8 840.7584,-136.8 834.7584,-130.8 834.7584,-124.8 834.7584,-124.8 834.7584,-112.8 834.7584,-112.8 834.7584,-106.8 840.7584,-100.8 846.7584,-100.8 846.7584,-100.8 901.2416,-100.8 901.2416,-100.8 907.2416,-100.8 913.2416,-106.8 913.2416,-112.8 913.2416,-112.8 913.2416,-124.8 913.2416,-124.8 913.2416,-130.8 907.2416,-136.8 901.2416,-136.8"></path><text text-anchor="middle" x="874" y="-114.6" font-family="Arial" font-size="14.00" fill="#333333">千葉銀行</text></g><!-- メインバンク:gmoあおぞらネット銀行&#45;&gt;サブバンク:千葉銀行 --><g id="edge14" class="edge"><title>メインバンク:gmoあおぞらネット銀行-&gt;サブバンク:千葉銀行</title><path fill="none" stroke="#333333" stroke-width="2" stroke-opacity="0.600000" d="M801.8681,-177.5323C801.8681,-156.3214 801.8681,-124 801.8681,-124 801.8681,-124 824.5573,-124 824.5573,-124"></path><polygon fill="#333333" fill-opacity="0.600000" stroke="#333333" stroke-width="2" stroke-opacity="0.600000" points="824.5573,-127.5001 834.5573,-124 824.5572,-120.5001 824.5573,-127.5001"></polygon></g><!-- クレジットカード:amazon masterカード --><g id="node3" class="node"><title>クレジットカード:amazon masterカード</title><path fill="#ffffff" stroke="#4b75b9" stroke-width="3" d="M1116.3934,-52C1116.3934,-52 973.6066,-52 973.6066,-52 967.6066,-52 961.6066,-46 961.6066,-40 961.6066,-40 961.6066,-28 961.6066,-28 961.6066,-22 967.6066,-16 973.6066,-16 973.6066,-16 1116.3934,-16 1116.3934,-16 1122.3934,-16 1128.3934,-22 1128.3934,-28 1128.3934,-28 1128.3934,-40 1128.3934,-40 1128.3934,-46 1122.3934,-52 1116.3934,-52"></path><text text-anchor="middle" x="1045" y="-29.8" font-family="Arial" font-size="14.00" fill="#333333">Amazon Masterカード</text></g><!-- メインバンク:三菱ufj銀行&#45;&gt;クレジットカード:amazon masterカード --><g id="edge7" class="edge"><title>メインバンク:三菱ufj銀行-&gt;クレジットカード:amazon masterカード</title><path fill="none" stroke="#333333" stroke-width="2" stroke-opacity="0.600000" d="M706.8347,-100.4006C706.8347,-88.8003 706.8347,-76 706.8347,-76 706.8347,-76 993.0249,-76 993.0249,-76 993.0249,-76 993.0249,-62.0555 993.0249,-62.0555"></path><polygon fill="#333333" fill-opacity="0.600000" stroke="#333333" stroke-width="2" stroke-opacity="0.600000" points="996.525,-62.0555 993.0249,-52.0555 989.525,-62.0556 996.525,-62.0555"></polygon></g><!-- クレジットカード:visa line payカード --><g id="node4" class="node"><title>クレジットカード:visa line payカード</title><path fill="#ffffff" stroke="#4b75b9" stroke-width="3" d="M931.6234,-52C931.6234,-52 796.3766,-52 796.3766,-52 790.3766,-52 784.3766,-46 784.3766,-40 784.3766,-40 784.3766,-28 784.3766,-28 784.3766,-22 790.3766,-16 796.3766,-16 796.3766,-16 931.6234,-16 931.6234,-16 937.6234,-16 943.6234,-22 943.6234,-28 943.6234,-28 943.6234,-40 943.6234,-40 943.6234,-46 937.6234,-52 931.6234,-52"></path><text text-anchor="middle" x="864" y="-29.8" font-family="Arial" font-size="14.00" fill="#333333">Visa LINE Payカード</text></g><!-- メインバンク:三菱ufj銀行&#45;&gt;クレジットカード:visa line payカード --><g id="edge3" class="edge"><title>メインバンク:三菱ufj銀行-&gt;クレジットカード:visa line payカード</title><path fill="none" stroke="#333333" stroke-width="2" stroke-opacity="0.600000" d="M742.6021,-112C768.1221,-112 793.1532,-112 793.1532,-112 793.1532,-112 793.1532,-62.0908 793.1532,-62.0908"></path><polygon fill="#333333" fill-opacity="0.600000" stroke="#333333" stroke-width="2" stroke-opacity="0.600000" points="796.6533,-62.0908 793.1532,-52.0908 789.6533,-62.0909 796.6533,-62.0908"></polygon></g><!-- クレジットカード:セブンカード(家族) --><g id="node7" class="node"><title>クレジットカード:セブンカード(家族)</title><path fill="#ffffff" stroke="#4b75b9" stroke-width="3" d="M754.4444,-52C754.4444,-52 623.5556,-52 623.5556,-52 617.5556,-52 611.5556,-46 611.5556,-40 611.5556,-40 611.5556,-28 611.5556,-28 611.5556,-22 617.5556,-16 623.5556,-16 623.5556,-16 754.4444,-16 754.4444,-16 760.4444,-16 766.4444,-22 766.4444,-28 766.4444,-28 766.4444,-40 766.4444,-40 766.4444,-46 760.4444,-52 754.4444,-52"></path><text text-anchor="middle" x="689" y="-29.8" font-family="Arial" font-size="14.00" fill="#333333">セブンカード(家族)</text></g><!-- メインバンク:三菱ufj銀行&#45;&gt;クレジットカード:セブンカード(家族) --><g id="edge10" class="edge"><title>メインバンク:三菱ufj銀行-&gt;クレジットカード:セブンカード(家族)</title><path fill="none" stroke="#333333" stroke-width="2" stroke-opacity="0.600000" d="M671.1653,-100.3997C671.1653,-100.3997 671.1653,-62.0731 671.1653,-62.0731"></path><polygon fill="#333333" fill-opacity="0.600000" stroke="#333333" stroke-width="2" stroke-opacity="0.600000" points="674.6654,-62.0731 671.1653,-52.0731 667.6654,-62.0731 674.6654,-62.0731"></polygon></g><!-- クレジットカード:ビュースイカカード --><g id="node8" class="node"><title>クレジットカード:ビュースイカカード</title><path fill="#ffffff" stroke="#4b75b9" stroke-width="3" d="M581.7492,-52C581.7492,-52 442.2508,-52 442.2508,-52 436.2508,-52 430.2508,-46 430.2508,-40 430.2508,-40 430.2508,-28 430.2508,-28 430.2508,-22 436.2508,-16 442.2508,-16 442.2508,-16 581.7492,-16 581.7492,-16 587.7492,-16 593.7492,-22 593.7492,-28 593.7492,-28 593.7492,-40 593.7492,-40 593.7492,-46 587.7492,-52 581.7492,-52"></path><text text-anchor="middle" x="512" y="-29.8" font-family="Arial" font-size="14.00" fill="#333333">ビュースイカカード</text></g><!-- メインバンク:三菱ufj銀行&#45;&gt;クレジットカード:ビュースイカカード --><g id="edge16" class="edge"><title>メインバンク:三菱ufj銀行-&gt;クレジットカード:ビュースイカカード</title><path fill="none" stroke="#333333" stroke-width="2" stroke-opacity="0.600000" d="M635.2173,-106C602.2709,-106 566.3805,-106 566.3805,-106 566.3805,-106 566.3805,-62.1686 566.3805,-62.1686"></path><polygon fill="#333333" fill-opacity="0.600000" stroke="#333333" stroke-width="2" stroke-opacity="0.600000" points="569.8805,-62.1686 566.3805,-52.1686 562.8805,-62.1687 569.8805,-62.1686"></polygon></g><!-- プルデンシャル生命:生命保険 --><g id="node13" class="node"><title>プルデンシャル生命:生命保険</title><path fill="#ffffff" stroke="#4b75b9" stroke-width="3" d="M143.7289,-52C143.7289,-52 82.2711,-52 82.2711,-52 76.2711,-52 70.2711,-46 70.2711,-40 70.2711,-40 70.2711,-28 70.2711,-28 70.2711,-22 76.2711,-16 82.2711,-16 82.2711,-16 143.7289,-16 143.7289,-16 149.7289,-16 155.7289,-22 155.7289,-28 155.7289,-28 155.7289,-40 155.7289,-40 155.7289,-46 149.7289,-52 143.7289,-52"></path><text text-anchor="middle" x="113" y="-29.8" font-family="Arial" font-size="14.00" fill="#333333">生命保険</text></g><!-- メインバンク:三菱ufj銀行&#45;&gt;プルデンシャル生命:生命保険 --><g id="edge11" class="edge"><title>メインバンク:三菱ufj銀行-&gt;プルデンシャル生命:生命保険</title><path fill="none" stroke="#333333" stroke-width="2" stroke-opacity="0.600000" d="M635.3286,-124C492.3365,-124 113,-124 113,-124 113,-124 113,-62.2128 113,-62.2128"></path><polygon fill="#333333" fill-opacity="0.600000" stroke="#333333" stroke-width="2" stroke-opacity="0.600000" points="116.5001,-62.2128 113,-52.2128 109.5001,-62.2129 116.5001,-62.2128"></polygon></g><!-- 県民共済:保険 --><g id="node14" class="node"><title>県民共済:保険</title><path fill="#ffffff" stroke="#4b75b9" stroke-width="3" d="M222,-52C222,-52 192,-52 192,-52 186,-52 180,-46 180,-40 180,-40 180,-28 180,-28 180,-22 186,-16 192,-16 192,-16 222,-16 222,-16 228,-16 234,-22 234,-28 234,-28 234,-40 234,-40 234,-46 228,-52 222,-52"></path><text text-anchor="middle" x="207" y="-29.8" font-family="Arial" font-size="14.00" fill="#333333">保険</text></g><!-- メインバンク:三菱ufj銀行&#45;&gt;県民共済:保険 --><g id="edge12" class="edge"><title>メインバンク:三菱ufj銀行-&gt;県民共済:保険</title><path fill="none" stroke="#333333" stroke-width="2" stroke-opacity="0.600000" d="M635.1115,-118C509.3353,-118 207,-118 207,-118 207,-118 207,-62.2267 207,-62.2267"></path><polygon fill="#333333" fill-opacity="0.600000" stroke="#333333" stroke-width="2" stroke-opacity="0.600000" points="210.5001,-62.2267 207,-52.2267 203.5001,-62.2268 210.5001,-62.2267"></polygon></g><!-- 管理費・修繕積立金 --><g id="node16" class="node"><title>管理費・修繕積立金</title><path fill="none" stroke="#000000" stroke-width="2" d="M399.997,-52C399.997,-52 264.003,-52 264.003,-52 258.003,-52 252.003,-46 252.003,-40 252.003,-40 252.003,-28 252.003,-28 252.003,-22 258.003,-16 264.003,-16 264.003,-16 399.997,-16 399.997,-16 405.997,-16 411.997,-22 411.997,-28 411.997,-28 411.997,-40 411.997,-40 411.997,-46 405.997,-52 399.997,-52"></path><text text-anchor="middle" x="332" y="-29.8" font-family="Arial" font-size="14.00" fill="#000000">管理費・修繕積立金</text></g><!-- メインバンク:三菱ufj銀行&#45;&gt;管理費・修繕積立金 --><g id="edge6" class="edge"><title>メインバンク:三菱ufj銀行-&gt;管理費・修繕積立金</title><path fill="none" stroke="#333333" stroke-width="2" stroke-opacity="0.600000" d="M635.167,-112C535.4358,-112 332,-112 332,-112 332,-112 332,-62.0908 332,-62.0908"></path><polygon fill="#333333" fill-opacity="0.600000" stroke="#333333" stroke-width="2" stroke-opacity="0.600000" points="335.5001,-62.0908 332,-52.0908 328.5001,-62.0909 335.5001,-62.0908"></polygon></g><!-- 会社 --><g id="node15" class="node"><title>会社</title><path fill="none" stroke="#000000" stroke-width="2" d="M738,-290.4C738,-290.4 708,-290.4 708,-290.4 702,-290.4 696,-284.4 696,-278.4 696,-278.4 696,-266.4 696,-266.4 696,-260.4 702,-254.4 708,-254.4 708,-254.4 738,-254.4 738,-254.4 744,-254.4 750,-260.4 750,-266.4 750,-266.4 750,-278.4 750,-278.4 750,-284.4 744,-290.4 738,-290.4"></path><text text-anchor="middle" x="723" y="-268.2" font-family="Arial" font-size="14.00" fill="#000000">会社</text></g><!-- 会社&#45;&gt;メインバンク:gmoあおぞらネット銀行 --><g id="edge1" class="edge"><title>会社-&gt;メインバンク:gmoあおぞらネット銀行</title><path fill="none" stroke="#333333" stroke-width="2" stroke-opacity="0.600000" d="M723,-254.1995C723,-254.1995 723,-223.6699 723,-223.6699"></path><polygon fill="#333333" fill-opacity="0.600000" stroke="#333333" stroke-width="2" stroke-opacity="0.600000" points="726.5001,-223.6698 723,-213.6699 719.5001,-223.6699 726.5001,-223.6698"></polygon></g><!-- 習志野市 --><g id="node17" class="node"><title>習志野市</title><path fill="none" stroke="#000000" stroke-width="2" d="M605.2275,-213.6C605.2275,-213.6 550.7725,-213.6 550.7725,-213.6 544.7725,-213.6 538.7725,-207.6 538.7725,-201.6 538.7725,-201.6 538.7725,-189.6 538.7725,-189.6 538.7725,-183.6 544.7725,-177.6 550.7725,-177.6 550.7725,-177.6 605.2275,-177.6 605.2275,-177.6 611.2275,-177.6 617.2275,-183.6 617.2275,-189.6 617.2275,-189.6 617.2275,-201.6 617.2275,-201.6 617.2275,-207.6 611.2275,-213.6 605.2275,-213.6"></path><text text-anchor="middle" x="578" y="-191.4" font-family="Arial" font-size="14.00" fill="#000000">習志野市</text></g><!-- 習志野市&#45;&gt;メインバンク:三菱ufj銀行 --><g id="edge15" class="edge"><title>習志野市-&gt;メインバンク:三菱ufj銀行</title><path fill="none" stroke="#333333" stroke-width="2" stroke-opacity="0.600000" d="M602.7012,-177.3267C602.7012,-157.9162 602.7012,-130 602.7012,-130 602.7012,-130 625.327,-130 625.327,-130"></path><polygon fill="#333333" fill-opacity="0.600000" stroke="#333333" stroke-width="2" stroke-opacity="0.600000" points="625.3271,-133.5001 635.327,-130 625.327,-126.5001 625.3271,-133.5001"></polygon></g></g></svg>