<?xml version="1.0" encoding="UTF-8" standalone="no"?><!-- Generated by graphviz version 2.40.1 (20161225.0304)
 --><!-- Title: ndiag Pages: 1 --><svg width="200pt" height="242pt" viewBox="0.00 0.00 200.00 241.60" xmlns="http://www.w3.org/2000/svg" xmlns:xlink="http://www.w3.org/1999/xlink"><g id="graph0" class="graph" transform="scale(1 1) rotate(0) translate(4 237.6)"><title>ndiag</title><polygon fill="#ffffff" stroke="transparent" points="-4,4 -4,-237.6 196,-237.6 196,4 -4,4"></polygon><g id="clust2" class="cluster"><title>cluster_三菱UFJ銀行</title><polygon fill="none" stroke="#999999" stroke-width="2" points="43,-148.8 43,-225.6 150,-225.6 150,-148.8 43,-148.8"></polygon><text text-anchor="middle" x="96.5" y="-209" font-family="Arial" font-size="14.00" fill="#666666">三菱UFJ銀行</text></g><g id="clust1" class="cluster"><title>cluster_LINE</title><polygon fill="none" stroke="#000000" stroke-width="2" points="8,-64 8,-140.8 184,-140.8 184,-64 8,-64"></polygon><text text-anchor="middle" x="96" y="-124.2" font-family="Arial" font-size="14.00" fill="#000000">LINE</text></g><!-- line:visa line payカード --><g id="node1" class="node"><title>line:visa line payカード</title><path fill="#ffffff" stroke="#4b75b9" stroke-width="3" d="M163.6234,-108C163.6234,-108 28.3766,-108 28.3766,-108 22.3766,-108 16.3766,-102 16.3766,-96 16.3766,-96 16.3766,-84 16.3766,-84 16.3766,-78 22.3766,-72 28.3766,-72 28.3766,-72 163.6234,-72 163.6234,-72 169.6234,-72 175.6234,-78 175.6234,-84 175.6234,-84 175.6234,-96 175.6234,-96 175.6234,-102 169.6234,-108 163.6234,-108"></path><text text-anchor="middle" x="96" y="-85.8" font-family="Arial" font-size="14.00" fill="#333333">Visa LINE Payカード</text></g><!-- 世界 --><g id="node3" class="node"><title>世界</title><path fill="none" stroke="#000000" stroke-width="2" d="M111,-36C111,-36 81,-36 81,-36 75,-36 69,-30 69,-24 69,-24 69,-12 69,-12 69,-6 75,0 81,0 81,0 111,0 111,0 117,0 123,-6 123,-12 123,-12 123,-24 123,-24 123,-30 117,-36 111,-36"></path><text text-anchor="middle" x="96" y="-13.8" font-family="Arial" font-size="14.00" fill="#000000">世界</text></g><!-- line:visa line payカード&#45;&gt;世界 --><g id="edge2" class="edge"><title>line:visa line payカード-&gt;世界</title><path fill="none" stroke="#333333" stroke-width="2" stroke-opacity="0.600000" d="M96,-71.8314C96,-71.8314 96,-46.4133 96,-46.4133"></path><polygon fill="#333333" fill-opacity="0.600000" stroke="#333333" stroke-width="2" stroke-opacity="0.600000" points="99.5001,-46.4132 96,-36.4133 92.5001,-46.4133 99.5001,-46.4132"></polygon></g><!-- 三菱ufj銀行:普通口座 --><g id="node2" class="node"><title>三菱ufj銀行:普通口座</title><path fill="#ffffff" stroke="#4b75b9" stroke-width="3" d="M124.8514,-192.8C124.8514,-192.8 67.1486,-192.8 67.1486,-192.8 61.1486,-192.8 55.1486,-186.8 55.1486,-180.8 55.1486,-180.8 55.1486,-168.8 55.1486,-168.8 55.1486,-162.8 61.1486,-156.8 67.1486,-156.8 67.1486,-156.8 124.8514,-156.8 124.8514,-156.8 130.8514,-156.8 136.8514,-162.8 136.8514,-168.8 136.8514,-168.8 136.8514,-180.8 136.8514,-180.8 136.8514,-186.8 130.8514,-192.8 124.8514,-192.8"></path><text text-anchor="middle" x="96" y="-170.6" font-family="Arial" font-size="14.00" fill="#333333">普通口座</text></g><!-- 三菱ufj銀行:普通口座&#45;&gt;line:visa line payカード --><g id="edge1" class="edge"><title>三菱ufj銀行:普通口座-&gt;line:visa line payカード</title><path fill="none" stroke="#333333" stroke-width="2" stroke-opacity="0.600000" d="M96,-156.3997C96,-156.3997 96,-118.0731 96,-118.0731"></path><polygon fill="#333333" fill-opacity="0.600000" stroke="#333333" stroke-width="2" stroke-opacity="0.600000" points="99.5001,-118.0731 96,-108.0731 92.5001,-118.0731 99.5001,-118.0731"></polygon></g></g></svg>