<?xml version="1.0" encoding="UTF-8" standalone="no"?><!-- Generated by graphviz version 2.40.1 (20161225.0304)
 --><!-- Title: ndiag Pages: 1 --><svg width="966pt" height="270pt" viewBox="0.00 0.00 966.00 270.40" xmlns="http://www.w3.org/2000/svg" xmlns:xlink="http://www.w3.org/1999/xlink"><g id="graph0" class="graph" transform="scale(1 1) rotate(0) translate(4 266.4)"><title>ndiag</title><polygon fill="#ffffff" stroke="transparent" points="-4,4 -4,-266.4 961.9985,-266.4 961.9985,4 -4,4"></polygon><g id="clust6" class="cluster"><title>cluster_県民共済</title><polygon fill="none" stroke="#999999" stroke-width="2" points="718,-8 718,-84.8 788,-84.8 788,-8 718,-8"></polygon><text text-anchor="middle" x="753" y="-68.2" font-family="Arial" font-size="14.00" fill="#666666">県民共済</text></g><g id="clust5" class="cluster"><title>cluster_プルデンシャル生命</title><polygon fill="none" stroke="#999999" stroke-width="2" points="554,-8 554,-84.8 710,-84.8 710,-8 554,-8"></polygon><text text-anchor="middle" x="632" y="-68.2" font-family="Arial" font-size="14.00" fill="#666666">プルデンシャル生命</text></g><g id="clust4" class="cluster"><title>cluster_セブンカード</title><polygon fill="none" stroke="#999999" stroke-width="2" points="376,-8 376,-84.8 546,-84.8 546,-8 376,-8"></polygon><text text-anchor="middle" x="461" y="-68.2" font-family="Arial" font-size="14.00" fill="#666666">セブンカード</text></g><g id="clust3" class="cluster"><title>cluster_三井住友カード</title><polygon fill="none" stroke="#999999" stroke-width="2" points="8,-8 8,-84.8 368,-84.8 368,-8 8,-8"></polygon><text text-anchor="middle" x="188" y="-68.2" font-family="Arial" font-size="14.00" fill="#666666">三井住友カード</text></g><g id="clust2" class="cluster"><title>cluster_GMOあおぞらネット銀行</title><polygon fill="none" stroke="#999999" stroke-width="2" points="446,-177.6 446,-254.4 621,-254.4 621,-177.6 446,-177.6"></polygon><text text-anchor="middle" x="533.5" y="-237.8" font-family="Arial" font-size="14.00" fill="#666666">GMOあおぞらネット銀行</text></g><g id="clust1" class="cluster"><title>cluster_三菱UFJ銀行</title><polygon fill="none" stroke="#000000" stroke-width="2" points="480,-92.8 480,-169.6 587,-169.6 587,-92.8 480,-92.8"></polygon><text text-anchor="middle" x="533.5" y="-153" font-family="Arial" font-size="14.00" fill="#000000">三菱UFJ銀行</text></g><!-- 三菱ufj銀行:普通口座 --><g id="node1" class="node"><title>三菱ufj銀行:普通口座</title><path fill="#ffffff" stroke="#4b75b9" stroke-width="3" d="M561.8514,-136.8C561.8514,-136.8 504.1486,-136.8 504.1486,-136.8 498.1486,-136.8 492.1486,-130.8 492.1486,-124.8 492.1486,-124.8 492.1486,-112.8 492.1486,-112.8 492.1486,-106.8 498.1486,-100.8 504.1486,-100.8 504.1486,-100.8 561.8514,-100.8 561.8514,-100.8 567.8514,-100.8 573.8514,-106.8 573.8514,-112.8 573.8514,-112.8 573.8514,-124.8 573.8514,-124.8 573.8514,-130.8 567.8514,-136.8 561.8514,-136.8"></path><text text-anchor="middle" x="533" y="-114.6" font-family="Arial" font-size="14.00" fill="#333333">普通口座</text></g><!-- 三井住友カード:amazon masterカード --><g id="node3" class="node"><title>三井住友カード:amazon masterカード</title><path fill="#ffffff" stroke="#4b75b9" stroke-width="3" d="M348.3934,-52C348.3934,-52 205.6066,-52 205.6066,-52 199.6066,-52 193.6066,-46 193.6066,-40 193.6066,-40 193.6066,-28 193.6066,-28 193.6066,-22 199.6066,-16 205.6066,-16 205.6066,-16 348.3934,-16 348.3934,-16 354.3934,-16 360.3934,-22 360.3934,-28 360.3934,-28 360.3934,-40 360.3934,-40 360.3934,-46 354.3934,-52 348.3934,-52"></path><text text-anchor="middle" x="277" y="-29.8" font-family="Arial" font-size="14.00" fill="#333333">Amazon Masterカード</text></g><!-- 三菱ufj銀行:普通口座&#45;&gt;三井住友カード:amazon masterカード --><g id="edge4" class="edge"><title>三菱ufj銀行:普通口座-&gt;三井住友カード:amazon masterカード</title><path fill="none" stroke="#333333" stroke-width="2" stroke-opacity="0.600000" d="M492.153,-112C419.8772,-112 277,-112 277,-112 277,-112 277,-62.0908 277,-62.0908"></path><polygon fill="#333333" fill-opacity="0.600000" stroke="#333333" stroke-width="2" stroke-opacity="0.600000" points="280.5001,-62.0908 277,-52.0908 273.5001,-62.0909 280.5001,-62.0908"></polygon></g><!-- 三井住友カード:visa line payカード --><g id="node4" class="node"><title>三井住友カード:visa line payカード</title><path fill="#ffffff" stroke="#4b75b9" stroke-width="3" d="M163.6234,-52C163.6234,-52 28.3766,-52 28.3766,-52 22.3766,-52 16.3766,-46 16.3766,-40 16.3766,-40 16.3766,-28 16.3766,-28 16.3766,-22 22.3766,-16 28.3766,-16 28.3766,-16 163.6234,-16 163.6234,-16 169.6234,-16 175.6234,-22 175.6234,-28 175.6234,-28 175.6234,-40 175.6234,-40 175.6234,-46 169.6234,-52 163.6234,-52"></path><text text-anchor="middle" x="96" y="-29.8" font-family="Arial" font-size="14.00" fill="#333333">Visa LINE Payカード</text></g><!-- 三菱ufj銀行:普通口座&#45;&gt;三井住友カード:visa line payカード --><g id="edge2" class="edge"><title>三菱ufj銀行:普通口座-&gt;三井住友カード:visa line payカード</title><path fill="none" stroke="#333333" stroke-width="2" stroke-opacity="0.600000" d="M492.2805,-124C383.7952,-124 96,-124 96,-124 96,-124 96,-62.2128 96,-62.2128"></path><polygon fill="#333333" fill-opacity="0.600000" stroke="#333333" stroke-width="2" stroke-opacity="0.600000" points="99.5001,-62.2128 96,-52.2128 92.5001,-62.2129 99.5001,-62.2128"></polygon></g><!-- セブンカード:セブンカード(家族) --><g id="node5" class="node"><title>セブンカード:セブンカード(家族)</title><path fill="#ffffff" stroke="#4b75b9" stroke-width="3" d="M526.4444,-52C526.4444,-52 395.5556,-52 395.5556,-52 389.5556,-52 383.5556,-46 383.5556,-40 383.5556,-40 383.5556,-28 383.5556,-28 383.5556,-22 389.5556,-16 395.5556,-16 395.5556,-16 526.4444,-16 526.4444,-16 532.4444,-16 538.4444,-22 538.4444,-28 538.4444,-28 538.4444,-40 538.4444,-40 538.4444,-46 532.4444,-52 526.4444,-52"></path><text text-anchor="middle" x="461" y="-29.8" font-family="Arial" font-size="14.00" fill="#333333">セブンカード(家族)</text></g><!-- 三菱ufj銀行:普通口座&#45;&gt;セブンカード:セブンカード(家族) --><g id="edge5" class="edge"><title>三菱ufj銀行:普通口座-&gt;セブンカード:セブンカード(家族)</title><path fill="none" stroke="#333333" stroke-width="2" stroke-opacity="0.600000" d="M515.3985,-100.3997C515.3985,-100.3997 515.3985,-62.0731 515.3985,-62.0731"></path><polygon fill="#333333" fill-opacity="0.600000" stroke="#333333" stroke-width="2" stroke-opacity="0.600000" points="518.8985,-62.0731 515.3985,-52.0731 511.8985,-62.0731 518.8985,-62.0731"></polygon></g><!-- プルデンシャル生命:生命保険 --><g id="node6" class="node"><title>プルデンシャル生命:生命保険</title><path fill="#ffffff" stroke="#4b75b9" stroke-width="3" d="M635.7289,-52C635.7289,-52 574.2711,-52 574.2711,-52 568.2711,-52 562.2711,-46 562.2711,-40 562.2711,-40 562.2711,-28 562.2711,-28 562.2711,-22 568.2711,-16 574.2711,-16 574.2711,-16 635.7289,-16 635.7289,-16 641.7289,-16 647.7289,-22 647.7289,-28 647.7289,-28 647.7289,-40 647.7289,-40 647.7289,-46 641.7289,-52 635.7289,-52"></path><text text-anchor="middle" x="605" y="-29.8" font-family="Arial" font-size="14.00" fill="#333333">生命保険</text></g><!-- 三菱ufj銀行:普通口座&#45;&gt;プルデンシャル生命:生命保険 --><g id="edge6" class="edge"><title>三菱ufj銀行:普通口座-&gt;プルデンシャル生命:生命保険</title><path fill="none" stroke="#333333" stroke-width="2" stroke-opacity="0.600000" d="M568.0305,-100.3997C568.0305,-100.3997 568.0305,-62.0731 568.0305,-62.0731"></path><polygon fill="#333333" fill-opacity="0.600000" stroke="#333333" stroke-width="2" stroke-opacity="0.600000" points="571.5306,-62.0731 568.0305,-52.0731 564.5306,-62.0731 571.5306,-62.0731"></polygon></g><!-- 県民共済:保険 --><g id="node7" class="node"><title>県民共済:保険</title><path fill="#ffffff" stroke="#4b75b9" stroke-width="3" d="M768,-52C768,-52 738,-52 738,-52 732,-52 726,-46 726,-40 726,-40 726,-28 726,-28 726,-22 732,-16 738,-16 738,-16 768,-16 768,-16 774,-16 780,-22 780,-28 780,-28 780,-40 780,-40 780,-46 774,-52 768,-52"></path><text text-anchor="middle" x="753" y="-29.8" font-family="Arial" font-size="14.00" fill="#333333">保険</text></g><!-- 三菱ufj銀行:普通口座&#45;&gt;県民共済:保険 --><g id="edge7" class="edge"><title>三菱ufj銀行:普通口座-&gt;県民共済:保険</title><path fill="none" stroke="#333333" stroke-width="2" stroke-opacity="0.600000" d="M573.8647,-112C637.4871,-112 753,-112 753,-112 753,-112 753,-62.0908 753,-62.0908"></path><polygon fill="#333333" fill-opacity="0.600000" stroke="#333333" stroke-width="2" stroke-opacity="0.600000" points="756.5001,-62.0908 753,-52.0908 749.5001,-62.0909 756.5001,-62.0908"></polygon></g><!-- 管理費・修繕積立金 --><g id="node8" class="node"><title>管理費・修繕積立金</title><path fill="none" stroke="#000000" stroke-width="2" d="M945.997,-52C945.997,-52 810.003,-52 810.003,-52 804.003,-52 798.003,-46 798.003,-40 798.003,-40 798.003,-28 798.003,-28 798.003,-22 804.003,-16 810.003,-16 810.003,-16 945.997,-16 945.997,-16 951.997,-16 957.997,-22 957.997,-28 957.997,-28 957.997,-40 957.997,-40 957.997,-46 951.997,-52 945.997,-52"></path><text text-anchor="middle" x="878" y="-29.8" font-family="Arial" font-size="14.00" fill="#000000">管理費・修繕積立金</text></g><!-- 三菱ufj銀行:普通口座&#45;&gt;管理費・修繕積立金 --><g id="edge3" class="edge"><title>三菱ufj銀行:普通口座-&gt;管理費・修繕積立金</title><path fill="none" stroke="#333333" stroke-width="2" stroke-opacity="0.600000" d="M573.9308,-124C665.3177,-124 878,-124 878,-124 878,-124 878,-62.2128 878,-62.2128"></path><polygon fill="#333333" fill-opacity="0.600000" stroke="#333333" stroke-width="2" stroke-opacity="0.600000" points="881.5001,-62.2128 878,-52.2128 874.5001,-62.2129 881.5001,-62.2128"></polygon></g><!-- gmoあおぞらネット銀行:普通口座 --><g id="node2" class="node"><title>gmoあおぞらネット銀行:普通口座</title><path fill="#ffffff" stroke="#4b75b9" stroke-width="3" d="M561.8514,-221.6C561.8514,-221.6 504.1486,-221.6 504.1486,-221.6 498.1486,-221.6 492.1486,-215.6 492.1486,-209.6 492.1486,-209.6 492.1486,-197.6 492.1486,-197.6 492.1486,-191.6 498.1486,-185.6 504.1486,-185.6 504.1486,-185.6 561.8514,-185.6 561.8514,-185.6 567.8514,-185.6 573.8514,-191.6 573.8514,-197.6 573.8514,-197.6 573.8514,-209.6 573.8514,-209.6 573.8514,-215.6 567.8514,-221.6 561.8514,-221.6"></path><text text-anchor="middle" x="533" y="-199.4" font-family="Arial" font-size="14.00" fill="#333333">普通口座</text></g><!-- gmoあおぞらネット銀行:普通口座&#45;&gt;三菱ufj銀行:普通口座 --><g id="edge1" class="edge"><title>gmoあおぞらネット銀行:普通口座-&gt;三菱ufj銀行:普通口座</title><path fill="none" stroke="#333333" stroke-width="2" stroke-opacity="0.600000" d="M533,-185.1997C533,-185.1997 533,-146.8731 533,-146.8731"></path><polygon fill="#333333" fill-opacity="0.600000" stroke="#333333" stroke-width="2" stroke-opacity="0.600000" points="536.5001,-146.8731 533,-136.8731 529.5001,-146.8731 536.5001,-146.8731"></polygon></g></g></svg>