<?xml version="1.0" encoding="UTF-8" standalone="no"?><!-- Generated by graphviz version 2.40.1 (20161225.0304)
 --><!-- Title: ndiag Pages: 1 --><svg width="1404pt" height="298pt" viewBox="0.00 0.00 1404.00 298.40" xmlns="http://www.w3.org/2000/svg" xmlns:xlink="http://www.w3.org/1999/xlink"><g id="graph0" class="graph" transform="scale(1 1) rotate(0) translate(4 294.4)"><title>ndiag</title><polygon fill="#ffffff" stroke="transparent" points="-4,4 -4,-294.4 1399.9985,-294.4 1399.9985,4 -4,4"></polygon><g id="clust5" class="cluster"><title>cluster_県民共済</title><polygon fill="none" stroke="#999999" stroke-width="2" points="1156,-8 1156,-84.8 1226,-84.8 1226,-8 1156,-8"></polygon><text text-anchor="middle" x="1191" y="-68.2" font-family="Arial" font-size="14.00" fill="#666666">県民共済</text></g><g id="clust4" class="cluster"><title>cluster_プルデンシャル生命</title><polygon fill="none" stroke="#999999" stroke-width="2" points="992,-8 992,-84.8 1148,-84.8 1148,-8 992,-8"></polygon><text text-anchor="middle" x="1070" y="-68.2" font-family="Arial" font-size="14.00" fill="#666666">プルデンシャル生命</text></g><g id="clust3" class="cluster"><title>cluster_サブバンク</title><polygon fill="none" stroke="#999999" stroke-width="2" points="825,-92.8 825,-169.6 1192,-169.6 1192,-92.8 825,-92.8"></polygon><text text-anchor="middle" x="1008.5" y="-153" font-family="Arial" font-size="14.00" fill="#666666">サブバンク</text></g><g id="clust2" class="cluster"><title>cluster_クレジットカード</title><polygon fill="none" stroke="#999999" stroke-width="2" points="8,-8 8,-84.8 984,-84.8 984,-8 8,-8"></polygon><text text-anchor="middle" x="496" y="-68.2" font-family="Arial" font-size="14.00" fill="#666666">クレジットカード</text></g><g id="clust1" class="cluster"><title>cluster_メインバンク</title><polygon fill="none" stroke="#000000" stroke-width="2" points="625,-92.8 625,-246.4 817,-246.4 817,-92.8 625,-92.8"></polygon><text text-anchor="middle" x="721" y="-229.8" font-family="Arial" font-size="14.00" fill="#000000">メインバンク</text></g><!-- メインバンク:gmoあおぞらネット銀行 --><g id="node1" class="node"><title>メインバンク:gmoあおぞらネット銀行</title><path fill="#ffffff" stroke="#4b75b9" stroke-width="3" d="M796.6661,-213.6C796.6661,-213.6 645.3339,-213.6 645.3339,-213.6 639.3339,-213.6 633.3339,-207.6 633.3339,-201.6 633.3339,-201.6 633.3339,-189.6 633.3339,-189.6 633.3339,-183.6 639.3339,-177.6 645.3339,-177.6 645.3339,-177.6 796.6661,-177.6 796.6661,-177.6 802.6661,-177.6 808.6661,-183.6 808.6661,-189.6 808.6661,-189.6 808.6661,-201.6 808.6661,-201.6 808.6661,-207.6 802.6661,-213.6 796.6661,-213.6"></path><text text-anchor="middle" x="721" y="-191.4" font-family="Arial" font-size="14.00" fill="#333333">GMOあおぞらネット銀行</text></g><!-- メインバンク:三菱ufj銀行 --><g id="node2" class="node"><title>メインバンク:三菱ufj銀行</title><path fill="#ffffff" stroke="#4b75b9" stroke-width="3" d="M796.5084,-136.8C796.5084,-136.8 713.4916,-136.8 713.4916,-136.8 707.4916,-136.8 701.4916,-130.8 701.4916,-124.8 701.4916,-124.8 701.4916,-112.8 701.4916,-112.8 701.4916,-106.8 707.4916,-100.8 713.4916,-100.8 713.4916,-100.8 796.5084,-100.8 796.5084,-100.8 802.5084,-100.8 808.5084,-106.8 808.5084,-112.8 808.5084,-112.8 808.5084,-124.8 808.5084,-124.8 808.5084,-130.8 802.5084,-136.8 796.5084,-136.8"></path><text text-anchor="middle" x="755" y="-114.6" font-family="Arial" font-size="14.00" fill="#333333">三菱UFJ銀行</text></g><!-- メインバンク:gmoあおぞらネット銀行&#45;&gt;メインバンク:三菱ufj銀行 --><g id="edge2" class="edge"><title>メインバンク:gmoあおぞらネット銀行-&gt;メインバンク:三菱ufj銀行</title><path fill="none" stroke="#333333" stroke-width="2" stroke-opacity="0.600000" d="M755,-177.3995C755,-177.3995 755,-146.8699 755,-146.8699"></path><polygon fill="#333333" fill-opacity="0.600000" stroke="#333333" stroke-width="2" stroke-opacity="0.600000" points="758.5001,-146.8698 755,-136.8699 751.5001,-146.8699 758.5001,-146.8698"></polygon></g><!-- クレジットカード:セゾンアメックス(家族) --><g id="node5" class="node"><title>クレジットカード:セゾンアメックス(家族)</title><path fill="#ffffff" stroke="#4b75b9" stroke-width="3" d="M179.9045,-52C179.9045,-52 28.0955,-52 28.0955,-52 22.0955,-52 16.0955,-46 16.0955,-40 16.0955,-40 16.0955,-28 16.0955,-28 16.0955,-22 22.0955,-16 28.0955,-16 28.0955,-16 179.9045,-16 179.9045,-16 185.9045,-16 191.9045,-22 191.9045,-28 191.9045,-28 191.9045,-40 191.9045,-40 191.9045,-46 185.9045,-52 179.9045,-52"></path><text text-anchor="middle" x="104" y="-29.8" font-family="Arial" font-size="14.00" fill="#333333">セゾンアメックス(家族)</text></g><!-- メインバンク:gmoあおぞらネット銀行&#45;&gt;クレジットカード:セゾンアメックス(家族) --><g id="edge8" class="edge"><title>メインバンク:gmoあおぞらネット銀行-&gt;クレジットカード:セゾンアメックス(家族)</title><path fill="none" stroke="#333333" stroke-width="2" stroke-opacity="0.600000" d="M633.2542,-201C462.9115,-201 104,-201 104,-201 104,-201 104,-62.1898 104,-62.1898"></path><polygon fill="#333333" fill-opacity="0.600000" stroke="#333333" stroke-width="2" stroke-opacity="0.600000" points="107.5001,-62.1898 104,-52.1898 100.5001,-62.1899 107.5001,-62.1898"></polygon></g><!-- クレジットカード:三井ショッピングパークカード --><g id="node6" class="node"><title>クレジットカード:三井ショッピングパークカード</title><path fill="#ffffff" stroke="#4b75b9" stroke-width="3" d="M428.3594,-52C428.3594,-52 221.6406,-52 221.6406,-52 215.6406,-52 209.6406,-46 209.6406,-40 209.6406,-40 209.6406,-28 209.6406,-28 209.6406,-22 215.6406,-16 221.6406,-16 221.6406,-16 428.3594,-16 428.3594,-16 434.3594,-16 440.3594,-22 440.3594,-28 440.3594,-28 440.3594,-40 440.3594,-40 440.3594,-46 434.3594,-52 428.3594,-52"></path><text text-anchor="middle" x="325" y="-29.8" font-family="Arial" font-size="14.00" fill="#333333">三井ショッピングパークカード</text></g><!-- メインバンク:gmoあおぞらネット銀行&#45;&gt;クレジットカード:三井ショッピングパークカード --><g id="edge9" class="edge"><title>メインバンク:gmoあおぞらネット銀行-&gt;クレジットカード:三井ショッピングパークカード</title><path fill="none" stroke="#333333" stroke-width="2" stroke-opacity="0.600000" d="M633.1148,-189C516.45,-189 325,-189 325,-189 325,-189 325,-62.0838 325,-62.0838"></path><polygon fill="#333333" fill-opacity="0.600000" stroke="#333333" stroke-width="2" stroke-opacity="0.600000" points="328.5001,-62.0838 325,-52.0838 321.5001,-62.0839 328.5001,-62.0838"></polygon></g><!-- サブバンク:楽天銀行 --><g id="node8" class="node"><title>サブバンク:楽天銀行</title><path fill="#ffffff" stroke="#4b75b9" stroke-width="3" d="M1171.5796,-136.8C1171.5796,-136.8 1110.4204,-136.8 1110.4204,-136.8 1104.4204,-136.8 1098.4204,-130.8 1098.4204,-124.8 1098.4204,-124.8 1098.4204,-112.8 1098.4204,-112.8 1098.4204,-106.8 1104.4204,-100.8 1110.4204,-100.8 1110.4204,-100.8 1171.5796,-100.8 1171.5796,-100.8 1177.5796,-100.8 1183.5796,-106.8 1183.5796,-112.8 1183.5796,-112.8 1183.5796,-124.8 1183.5796,-124.8 1183.5796,-130.8 1177.5796,-136.8 1171.5796,-136.8"></path><text text-anchor="middle" x="1141" y="-114.6" font-family="Arial" font-size="14.00" fill="#333333">楽天銀行</text></g><!-- メインバンク:gmoあおぞらネット銀行&#45;&gt;サブバンク:楽天銀行 --><g id="edge4" class="edge"><title>メインバンク:gmoあおぞらネット銀行-&gt;サブバンク:楽天銀行</title><path fill="none" stroke="#333333" stroke-width="2" stroke-opacity="0.600000" d="M808.79,-204C931.9139,-204 1141,-204 1141,-204 1141,-204 1141,-146.8687 1141,-146.8687"></path><polygon fill="#333333" fill-opacity="0.600000" stroke="#333333" stroke-width="2" stroke-opacity="0.600000" points="1144.5001,-146.8687 1141,-136.8687 1137.5001,-146.8688 1144.5001,-146.8687"></polygon></g><!-- サブバンク:住信sbiネット銀行 --><g id="node9" class="node"><title>サブバンク:住信sbiネット銀行</title><path fill="#ffffff" stroke="#4b75b9" stroke-width="3" d="M1068.8342,-136.8C1068.8342,-136.8 941.1658,-136.8 941.1658,-136.8 935.1658,-136.8 929.1658,-130.8 929.1658,-124.8 929.1658,-124.8 929.1658,-112.8 929.1658,-112.8 929.1658,-106.8 935.1658,-100.8 941.1658,-100.8 941.1658,-100.8 1068.8342,-100.8 1068.8342,-100.8 1074.8342,-100.8 1080.8342,-106.8 1080.8342,-112.8 1080.8342,-112.8 1080.8342,-124.8 1080.8342,-124.8 1080.8342,-130.8 1074.8342,-136.8 1068.8342,-136.8"></path><text text-anchor="middle" x="1005" y="-114.6" font-family="Arial" font-size="14.00" fill="#333333">住信SBIネット銀行</text></g><!-- メインバンク:gmoあおぞらネット銀行&#45;&gt;サブバンク:住信sbiネット銀行 --><g id="edge5" class="edge"><title>メインバンク:gmoあおぞらネット銀行-&gt;サブバンク:住信sbiネット銀行</title><path fill="none" stroke="#333333" stroke-width="2" stroke-opacity="0.600000" d="M808.9144,-195C892.3223,-195 1005,-195 1005,-195 1005,-195 1005,-146.8583 1005,-146.8583"></path><polygon fill="#333333" fill-opacity="0.600000" stroke="#333333" stroke-width="2" stroke-opacity="0.600000" points="1008.5001,-146.8583 1005,-136.8583 1001.5001,-146.8584 1008.5001,-146.8583"></polygon></g><!-- サブバンク:千葉銀行 --><g id="node10" class="node"><title>サブバンク:千葉銀行</title><path fill="#ffffff" stroke="#4b75b9" stroke-width="3" d="M899.2416,-136.8C899.2416,-136.8 844.7584,-136.8 844.7584,-136.8 838.7584,-136.8 832.7584,-130.8 832.7584,-124.8 832.7584,-124.8 832.7584,-112.8 832.7584,-112.8 832.7584,-106.8 838.7584,-100.8 844.7584,-100.8 844.7584,-100.8 899.2416,-100.8 899.2416,-100.8 905.2416,-100.8 911.2416,-106.8 911.2416,-112.8 911.2416,-112.8 911.2416,-124.8 911.2416,-124.8 911.2416,-130.8 905.2416,-136.8 899.2416,-136.8"></path><text text-anchor="middle" x="872" y="-114.6" font-family="Arial" font-size="14.00" fill="#333333">千葉銀行</text></g><!-- メインバンク:gmoあおぞらネット銀行&#45;&gt;サブバンク:千葉銀行 --><g id="edge13" class="edge"><title>メインバンク:gmoあおぞらネット銀行-&gt;サブバンク:千葉銀行</title><path fill="none" stroke="#333333" stroke-width="2" stroke-opacity="0.600000" d="M808.8373,-186C842.0562,-186 872,-186 872,-186 872,-186 872,-146.8084 872,-146.8084"></path><polygon fill="#333333" fill-opacity="0.600000" stroke="#333333" stroke-width="2" stroke-opacity="0.600000" points="875.5001,-146.8083 872,-136.8084 868.5001,-146.8084 875.5001,-146.8083"></polygon></g><!-- クレジットカード:amazon masterカード --><g id="node3" class="node"><title>クレジットカード:amazon masterカード</title><path fill="#ffffff" stroke="#4b75b9" stroke-width="3" d="M613.3934,-52C613.3934,-52 470.6066,-52 470.6066,-52 464.6066,-52 458.6066,-46 458.6066,-40 458.6066,-40 458.6066,-28 458.6066,-28 458.6066,-22 464.6066,-16 470.6066,-16 470.6066,-16 613.3934,-16 613.3934,-16 619.3934,-16 625.3934,-22 625.3934,-28 625.3934,-28 625.3934,-40 625.3934,-40 625.3934,-46 619.3934,-52 613.3934,-52"></path><text text-anchor="middle" x="542" y="-29.8" font-family="Arial" font-size="14.00" fill="#333333">Amazon Masterカード</text></g><!-- メインバンク:三菱ufj銀行&#45;&gt;クレジットカード:amazon masterカード --><g id="edge7" class="edge"><title>メインバンク:三菱ufj銀行-&gt;クレジットカード:amazon masterカード</title><path fill="none" stroke="#333333" stroke-width="2" stroke-opacity="0.600000" d="M701.2511,-118C638.1516,-118 542,-118 542,-118 542,-118 542,-62.2267 542,-62.2267"></path><polygon fill="#333333" fill-opacity="0.600000" stroke="#333333" stroke-width="2" stroke-opacity="0.600000" points="545.5001,-62.2267 542,-52.2267 538.5001,-62.2268 545.5001,-62.2267"></polygon></g><!-- クレジットカード:visa line payカード --><g id="node4" class="node"><title>クレジットカード:visa line payカード</title><path fill="#ffffff" stroke="#4b75b9" stroke-width="3" d="M963.6234,-52C963.6234,-52 828.3766,-52 828.3766,-52 822.3766,-52 816.3766,-46 816.3766,-40 816.3766,-40 816.3766,-28 816.3766,-28 816.3766,-22 822.3766,-16 828.3766,-16 828.3766,-16 963.6234,-16 963.6234,-16 969.6234,-16 975.6234,-22 975.6234,-28 975.6234,-28 975.6234,-40 975.6234,-40 975.6234,-46 969.6234,-52 963.6234,-52"></path><text text-anchor="middle" x="896" y="-29.8" font-family="Arial" font-size="14.00" fill="#333333">Visa LINE Payカード</text></g><!-- メインバンク:三菱ufj銀行&#45;&gt;クレジットカード:visa line payカード --><g id="edge3" class="edge"><title>メインバンク:三菱ufj銀行-&gt;クレジットカード:visa line payカード</title><path fill="none" stroke="#333333" stroke-width="2" stroke-opacity="0.600000" d="M806.4978,-100.3997C806.4978,-75.4593 806.4978,-34 806.4978,-34 806.4978,-34 807.4898,-34 807.4898,-34"></path><polygon fill="#333333" fill-opacity="0.600000" stroke="#333333" stroke-width="2" stroke-opacity="0.600000" points="806.4181,-37.5001 816.4181,-34 806.418,-30.5001 806.4181,-37.5001"></polygon></g><!-- クレジットカード:セブンカード(家族) --><g id="node7" class="node"><title>クレジットカード:セブンカード(家族)</title><path fill="#ffffff" stroke="#4b75b9" stroke-width="3" d="M786.4444,-52C786.4444,-52 655.5556,-52 655.5556,-52 649.5556,-52 643.5556,-46 643.5556,-40 643.5556,-40 643.5556,-28 643.5556,-28 643.5556,-22 649.5556,-16 655.5556,-16 655.5556,-16 786.4444,-16 786.4444,-16 792.4444,-16 798.4444,-22 798.4444,-28 798.4444,-28 798.4444,-40 798.4444,-40 798.4444,-46 792.4444,-52 786.4444,-52"></path><text text-anchor="middle" x="721" y="-29.8" font-family="Arial" font-size="14.00" fill="#333333">セブンカード(家族)</text></g><!-- メインバンク:三菱ufj銀行&#45;&gt;クレジットカード:セブンカード(家族) --><g id="edge10" class="edge"><title>メインバンク:三菱ufj銀行-&gt;クレジットカード:セブンカード(家族)</title><path fill="none" stroke="#333333" stroke-width="2" stroke-opacity="0.600000" d="M749.984,-100.3997C749.984,-100.3997 749.984,-62.0731 749.984,-62.0731"></path><polygon fill="#333333" fill-opacity="0.600000" stroke="#333333" stroke-width="2" stroke-opacity="0.600000" points="753.4841,-62.0731 749.984,-52.0731 746.4841,-62.0731 753.4841,-62.0731"></polygon></g><!-- プルデンシャル生命:生命保険 --><g id="node11" class="node"><title>プルデンシャル生命:生命保険</title><path fill="#ffffff" stroke="#4b75b9" stroke-width="3" d="M1073.7289,-52C1073.7289,-52 1012.2711,-52 1012.2711,-52 1006.2711,-52 1000.2711,-46 1000.2711,-40 1000.2711,-40 1000.2711,-28 1000.2711,-28 1000.2711,-22 1006.2711,-16 1012.2711,-16 1012.2711,-16 1073.7289,-16 1073.7289,-16 1079.7289,-16 1085.7289,-22 1085.7289,-28 1085.7289,-28 1085.7289,-40 1085.7289,-40 1085.7289,-46 1079.7289,-52 1073.7289,-52"></path><text text-anchor="middle" x="1043" y="-29.8" font-family="Arial" font-size="14.00" fill="#333333">生命保険</text></g><!-- メインバンク:三菱ufj銀行&#45;&gt;プルデンシャル生命:生命保険 --><g id="edge11" class="edge"><title>メインバンク:三菱ufj銀行-&gt;プルデンシャル生命:生命保険</title><path fill="none" stroke="#333333" stroke-width="2" stroke-opacity="0.600000" d="M800.4786,-100.5524C800.4786,-84.611 800.4786,-64 800.4786,-64 800.4786,-64 1040.5263,-64 1040.5263,-64 1040.5263,-64 1040.5263,-62.1432 1040.5263,-62.1432"></path><polygon fill="#333333" fill-opacity="0.600000" stroke="#333333" stroke-width="2" stroke-opacity="0.600000" points="1044.0264,-62.1432 1040.5263,-52.1432 1037.0264,-62.1432 1044.0264,-62.1432"></polygon></g><!-- 県民共済:保険 --><g id="node12" class="node"><title>県民共済:保険</title><path fill="#ffffff" stroke="#4b75b9" stroke-width="3" d="M1206,-52C1206,-52 1176,-52 1176,-52 1170,-52 1164,-46 1164,-40 1164,-40 1164,-28 1164,-28 1164,-22 1170,-16 1176,-16 1176,-16 1206,-16 1206,-16 1212,-16 1218,-22 1218,-28 1218,-28 1218,-40 1218,-40 1218,-46 1212,-52 1206,-52"></path><text text-anchor="middle" x="1191" y="-29.8" font-family="Arial" font-size="14.00" fill="#333333">保険</text></g><!-- メインバンク:三菱ufj銀行&#45;&gt;県民共済:保険 --><g id="edge12" class="edge"><title>メインバンク:三菱ufj銀行-&gt;県民共済:保険</title><path fill="none" stroke="#333333" stroke-width="2" stroke-opacity="0.600000" d="M802.485,-100.4006C802.485,-88.8003 802.485,-76 802.485,-76 802.485,-76 1173.8947,-76 1173.8947,-76 1173.8947,-76 1173.8947,-62.0555 1173.8947,-62.0555"></path><polygon fill="#333333" fill-opacity="0.600000" stroke="#333333" stroke-width="2" stroke-opacity="0.600000" points="1177.3947,-62.0555 1173.8947,-52.0555 1170.3947,-62.0556 1177.3947,-62.0555"></polygon></g><!-- 管理費・修繕積立金 --><g id="node14" class="node"><title>管理費・修繕積立金</title><path fill="none" stroke="#000000" stroke-width="2" d="M1383.997,-52C1383.997,-52 1248.003,-52 1248.003,-52 1242.003,-52 1236.003,-46 1236.003,-40 1236.003,-40 1236.003,-28 1236.003,-28 1236.003,-22 1242.003,-16 1248.003,-16 1248.003,-16 1383.997,-16 1383.997,-16 1389.997,-16 1395.997,-22 1395.997,-28 1395.997,-28 1395.997,-40 1395.997,-40 1395.997,-46 1389.997,-52 1383.997,-52"></path><text text-anchor="middle" x="1316" y="-29.8" font-family="Arial" font-size="14.00" fill="#000000">管理費・修繕積立金</text></g><!-- メインバンク:三菱ufj銀行&#45;&gt;管理費・修繕積立金 --><g id="edge6" class="edge"><title>メインバンク:三菱ufj銀行-&gt;管理費・修繕積立金</title><path fill="none" stroke="#333333" stroke-width="2" stroke-opacity="0.600000" d="M804.4914,-100.5275C804.4914,-93.8953 804.4914,-88 804.4914,-88 804.4914,-88 1316,-88 1316,-88 1316,-88 1316,-62.2819 1316,-62.2819"></path><polygon fill="#333333" fill-opacity="0.600000" stroke="#333333" stroke-width="2" stroke-opacity="0.600000" points="1319.5001,-62.2819 1316,-52.2819 1312.5001,-62.282 1319.5001,-62.2819"></polygon></g><!-- 会社 --><g id="node13" class="node"><title>会社</title><path fill="none" stroke="#000000" stroke-width="2" d="M736,-290.4C736,-290.4 706,-290.4 706,-290.4 700,-290.4 694,-284.4 694,-278.4 694,-278.4 694,-266.4 694,-266.4 694,-260.4 700,-254.4 706,-254.4 706,-254.4 736,-254.4 736,-254.4 742,-254.4 748,-260.4 748,-266.4 748,-266.4 748,-278.4 748,-278.4 748,-284.4 742,-290.4 736,-290.4"></path><text text-anchor="middle" x="721" y="-268.2" font-family="Arial" font-size="14.00" fill="#000000">会社</text></g><!-- 会社&#45;&gt;メインバンク:gmoあおぞらネット銀行 --><g id="edge1" class="edge"><title>会社-&gt;メインバンク:gmoあおぞらネット銀行</title><path fill="none" stroke="#333333" stroke-width="2" stroke-opacity="0.600000" d="M721,-254.1995C721,-254.1995 721,-223.6699 721,-223.6699"></path><polygon fill="#333333" fill-opacity="0.600000" stroke="#333333" stroke-width="2" stroke-opacity="0.600000" points="724.5001,-223.6698 721,-213.6699 717.5001,-223.6699 724.5001,-223.6698"></polygon></g></g></svg>