<?xml version="1.0" encoding="UTF-8" standalone="no"?><!-- Generated by graphviz version 2.40.1 (20161225.0304)
 --><!-- Title: ndiag Pages: 1 --><svg width="1413pt" height="298pt" viewBox="0.00 0.00 1413.00 298.40" xmlns="http://www.w3.org/2000/svg" xmlns:xlink="http://www.w3.org/1999/xlink"><g id="graph0" class="graph" transform="scale(1 1) rotate(0) translate(4 294.4)"><title>ndiag</title><polygon fill="#ffffff" stroke="transparent" points="-4,4 -4,-294.4 1409,-294.4 1409,4 -4,4"></polygon><g id="clust5" class="cluster"><title>cluster_県民共済</title><polygon fill="none" stroke="#999999" stroke-width="2" points="172,-8 172,-84.8 242,-84.8 242,-8 172,-8"></polygon><text text-anchor="middle" x="207" y="-68.2" font-family="Arial" font-size="14.00" fill="#666666">県民共済</text></g><g id="clust4" class="cluster"><title>cluster_プルデンシャル生命</title><polygon fill="none" stroke="#999999" stroke-width="2" points="8,-8 8,-84.8 164,-84.8 164,-8 8,-8"></polygon><text text-anchor="middle" x="86" y="-68.2" font-family="Arial" font-size="14.00" fill="#666666">プルデンシャル生命</text></g><g id="clust3" class="cluster"><title>cluster_サブバンク</title><polygon fill="none" stroke="#999999" stroke-width="2" points="712,-92.8 712,-169.6 1079,-169.6 1079,-92.8 712,-92.8"></polygon><text text-anchor="middle" x="895.5" y="-153" font-family="Arial" font-size="14.00" fill="#666666">サブバンク</text></g><g id="clust2" class="cluster"><title>cluster_クレジットカード</title><polygon fill="none" stroke="#999999" stroke-width="2" points="422,-8 422,-84.8 1397,-84.8 1397,-8 422,-8"></polygon><text text-anchor="middle" x="909.5" y="-68.2" font-family="Arial" font-size="14.00" fill="#666666">クレジットカード</text></g><g id="clust1" class="cluster"><title>cluster_メインバンク</title><polygon fill="none" stroke="#000000" stroke-width="2" points="512,-92.8 512,-246.4 704,-246.4 704,-92.8 512,-92.8"></polygon><text text-anchor="middle" x="608" y="-229.8" font-family="Arial" font-size="14.00" fill="#000000">メインバンク</text></g><!-- メインバンク:gmoあおぞらネット銀行 --><g id="node1" class="node"><title>メインバンク:gmoあおぞらネット銀行</title><path fill="#ffffff" stroke="#4b75b9" stroke-width="3" d="M683.6661,-213.6C683.6661,-213.6 532.3339,-213.6 532.3339,-213.6 526.3339,-213.6 520.3339,-207.6 520.3339,-201.6 520.3339,-201.6 520.3339,-189.6 520.3339,-189.6 520.3339,-183.6 526.3339,-177.6 532.3339,-177.6 532.3339,-177.6 683.6661,-177.6 683.6661,-177.6 689.6661,-177.6 695.6661,-183.6 695.6661,-189.6 695.6661,-189.6 695.6661,-201.6 695.6661,-201.6 695.6661,-207.6 689.6661,-213.6 683.6661,-213.6"></path><text text-anchor="middle" x="608" y="-191.4" font-family="Arial" font-size="14.00" fill="#333333">GMOあおぞらネット銀行</text></g><!-- メインバンク:三菱ufj銀行 --><g id="node2" class="node"><title>メインバンク:三菱ufj銀行</title><path fill="#ffffff" stroke="#4b75b9" stroke-width="3" d="M615.5084,-136.8C615.5084,-136.8 532.4916,-136.8 532.4916,-136.8 526.4916,-136.8 520.4916,-130.8 520.4916,-124.8 520.4916,-124.8 520.4916,-112.8 520.4916,-112.8 520.4916,-106.8 526.4916,-100.8 532.4916,-100.8 532.4916,-100.8 615.5084,-100.8 615.5084,-100.8 621.5084,-100.8 627.5084,-106.8 627.5084,-112.8 627.5084,-112.8 627.5084,-124.8 627.5084,-124.8 627.5084,-130.8 621.5084,-136.8 615.5084,-136.8"></path><text text-anchor="middle" x="574" y="-114.6" font-family="Arial" font-size="14.00" fill="#333333">三菱UFJ銀行</text></g><!-- メインバンク:gmoあおぞらネット銀行&#45;&gt;メインバンク:三菱ufj銀行 --><g id="edge2" class="edge"><title>メインバンク:gmoあおぞらネット銀行-&gt;メインバンク:三菱ufj銀行</title><path fill="none" stroke="#333333" stroke-width="2" stroke-opacity="0.600000" d="M574,-177.3995C574,-177.3995 574,-146.8699 574,-146.8699"></path><polygon fill="#333333" fill-opacity="0.600000" stroke="#333333" stroke-width="2" stroke-opacity="0.600000" points="577.5001,-146.8698 574,-136.8699 570.5001,-146.8699 577.5001,-146.8698"></polygon></g><!-- クレジットカード:セゾンアメックス(家族) --><g id="node5" class="node"><title>クレジットカード:セゾンアメックス(家族)</title><path fill="#ffffff" stroke="#4b75b9" stroke-width="3" d="M1376.9045,-52C1376.9045,-52 1225.0955,-52 1225.0955,-52 1219.0955,-52 1213.0955,-46 1213.0955,-40 1213.0955,-40 1213.0955,-28 1213.0955,-28 1213.0955,-22 1219.0955,-16 1225.0955,-16 1225.0955,-16 1376.9045,-16 1376.9045,-16 1382.9045,-16 1388.9045,-22 1388.9045,-28 1388.9045,-28 1388.9045,-40 1388.9045,-40 1388.9045,-46 1382.9045,-52 1376.9045,-52"></path><text text-anchor="middle" x="1301" y="-29.8" font-family="Arial" font-size="14.00" fill="#333333">セゾンアメックス(家族)</text></g><!-- メインバンク:gmoあおぞらネット銀行&#45;&gt;クレジットカード:セゾンアメックス(家族) --><g id="edge8" class="edge"><title>メインバンク:gmoあおぞらネット銀行-&gt;クレジットカード:セゾンアメックス(家族)</title><path fill="none" stroke="#333333" stroke-width="2" stroke-opacity="0.600000" d="M695.7689,-206C882.2455,-206 1301,-206 1301,-206 1301,-206 1301,-62.0819 1301,-62.0819"></path><polygon fill="#333333" fill-opacity="0.600000" stroke="#333333" stroke-width="2" stroke-opacity="0.600000" points="1304.5001,-62.0819 1301,-52.0819 1297.5001,-62.082 1304.5001,-62.0819"></polygon></g><!-- クレジットカード:三井ショッピングパークカード --><g id="node6" class="node"><title>クレジットカード:三井ショッピングパークカード</title><path fill="#ffffff" stroke="#4b75b9" stroke-width="3" d="M1183.3594,-52C1183.3594,-52 976.6406,-52 976.6406,-52 970.6406,-52 964.6406,-46 964.6406,-40 964.6406,-40 964.6406,-28 964.6406,-28 964.6406,-22 970.6406,-16 976.6406,-16 976.6406,-16 1183.3594,-16 1183.3594,-16 1189.3594,-16 1195.3594,-22 1195.3594,-28 1195.3594,-28 1195.3594,-40 1195.3594,-40 1195.3594,-46 1189.3594,-52 1183.3594,-52"></path><text text-anchor="middle" x="1080" y="-29.8" font-family="Arial" font-size="14.00" fill="#333333">三井ショッピングパークカード</text></g><!-- メインバンク:gmoあおぞらネット銀行&#45;&gt;クレジットカード:三井ショッピングパークカード --><g id="edge9" class="edge"><title>メインバンク:gmoあおぞらネット銀行-&gt;クレジットカード:三井ショッピングパークカード</title><path fill="none" stroke="#333333" stroke-width="2" stroke-opacity="0.600000" d="M695.7822,-192C804.7588,-192 976.4388,-192 976.4388,-192 976.4388,-192 976.4388,-62.1246 976.4388,-62.1246"></path><polygon fill="#333333" fill-opacity="0.600000" stroke="#333333" stroke-width="2" stroke-opacity="0.600000" points="979.9389,-62.1246 976.4388,-52.1246 972.9389,-62.1246 979.9389,-62.1246"></polygon></g><!-- サブバンク:楽天銀行 --><g id="node8" class="node"><title>サブバンク:楽天銀行</title><path fill="#ffffff" stroke="#4b75b9" stroke-width="3" d="M1058.5796,-136.8C1058.5796,-136.8 997.4204,-136.8 997.4204,-136.8 991.4204,-136.8 985.4204,-130.8 985.4204,-124.8 985.4204,-124.8 985.4204,-112.8 985.4204,-112.8 985.4204,-106.8 991.4204,-100.8 997.4204,-100.8 997.4204,-100.8 1058.5796,-100.8 1058.5796,-100.8 1064.5796,-100.8 1070.5796,-106.8 1070.5796,-112.8 1070.5796,-112.8 1070.5796,-124.8 1070.5796,-124.8 1070.5796,-130.8 1064.5796,-136.8 1058.5796,-136.8"></path><text text-anchor="middle" x="1028" y="-114.6" font-family="Arial" font-size="14.00" fill="#333333">楽天銀行</text></g><!-- メインバンク:gmoあおぞらネット銀行&#45;&gt;サブバンク:楽天銀行 --><g id="edge4" class="edge"><title>メインバンク:gmoあおぞらネット銀行-&gt;サブバンク:楽天銀行</title><path fill="none" stroke="#333333" stroke-width="2" stroke-opacity="0.600000" d="M695.79,-199C818.9139,-199 1028,-199 1028,-199 1028,-199 1028,-146.9986 1028,-146.9986"></path><polygon fill="#333333" fill-opacity="0.600000" stroke="#333333" stroke-width="2" stroke-opacity="0.600000" points="1031.5001,-146.9986 1028,-136.9986 1024.5001,-146.9987 1031.5001,-146.9986"></polygon></g><!-- サブバンク:住信sbiネット銀行 --><g id="node9" class="node"><title>サブバンク:住信sbiネット銀行</title><path fill="#ffffff" stroke="#4b75b9" stroke-width="3" d="M955.8342,-136.8C955.8342,-136.8 828.1658,-136.8 828.1658,-136.8 822.1658,-136.8 816.1658,-130.8 816.1658,-124.8 816.1658,-124.8 816.1658,-112.8 816.1658,-112.8 816.1658,-106.8 822.1658,-100.8 828.1658,-100.8 828.1658,-100.8 955.8342,-100.8 955.8342,-100.8 961.8342,-100.8 967.8342,-106.8 967.8342,-112.8 967.8342,-112.8 967.8342,-124.8 967.8342,-124.8 967.8342,-130.8 961.8342,-136.8 955.8342,-136.8"></path><text text-anchor="middle" x="892" y="-114.6" font-family="Arial" font-size="14.00" fill="#333333">住信SBIネット銀行</text></g><!-- メインバンク:gmoあおぞらネット銀行&#45;&gt;サブバンク:住信sbiネット銀行 --><g id="edge5" class="edge"><title>メインバンク:gmoあおぞらネット銀行-&gt;サブバンク:住信sbiネット銀行</title><path fill="none" stroke="#333333" stroke-width="2" stroke-opacity="0.600000" d="M695.9144,-184C779.3223,-184 892,-184 892,-184 892,-184 892,-146.9618 892,-146.9618"></path><polygon fill="#333333" fill-opacity="0.600000" stroke="#333333" stroke-width="2" stroke-opacity="0.600000" points="895.5001,-146.9618 892,-136.9618 888.5001,-146.9619 895.5001,-146.9618"></polygon></g><!-- サブバンク:千葉銀行 --><g id="node10" class="node"><title>サブバンク:千葉銀行</title><path fill="#ffffff" stroke="#4b75b9" stroke-width="3" d="M786.2416,-136.8C786.2416,-136.8 731.7584,-136.8 731.7584,-136.8 725.7584,-136.8 719.7584,-130.8 719.7584,-124.8 719.7584,-124.8 719.7584,-112.8 719.7584,-112.8 719.7584,-106.8 725.7584,-100.8 731.7584,-100.8 731.7584,-100.8 786.2416,-100.8 786.2416,-100.8 792.2416,-100.8 798.2416,-106.8 798.2416,-112.8 798.2416,-112.8 798.2416,-124.8 798.2416,-124.8 798.2416,-130.8 792.2416,-136.8 786.2416,-136.8"></path><text text-anchor="middle" x="759" y="-114.6" font-family="Arial" font-size="14.00" fill="#333333">千葉銀行</text></g><!-- メインバンク:gmoあおぞらネット銀行&#45;&gt;サブバンク:千葉銀行 --><g id="edge13" class="edge"><title>メインバンク:gmoあおぞらネット銀行-&gt;サブバンク:千葉銀行</title><path fill="none" stroke="#333333" stroke-width="2" stroke-opacity="0.600000" d="M661.5436,-177.2099C661.5436,-154.2625 661.5436,-118 661.5436,-118 661.5436,-118 709.6417,-118 709.6417,-118"></path><polygon fill="#333333" fill-opacity="0.600000" stroke="#333333" stroke-width="2" stroke-opacity="0.600000" points="709.6417,-121.5001 719.6417,-118 709.6416,-114.5001 709.6417,-121.5001"></polygon></g><!-- クレジットカード:amazon masterカード --><g id="node3" class="node"><title>クレジットカード:amazon masterカード</title><path fill="#ffffff" stroke="#4b75b9" stroke-width="3" d="M934.3934,-52C934.3934,-52 791.6066,-52 791.6066,-52 785.6066,-52 779.6066,-46 779.6066,-40 779.6066,-40 779.6066,-28 779.6066,-28 779.6066,-22 785.6066,-16 791.6066,-16 791.6066,-16 934.3934,-16 934.3934,-16 940.3934,-16 946.3934,-22 946.3934,-28 946.3934,-28 946.3934,-40 946.3934,-40 946.3934,-46 940.3934,-52 934.3934,-52"></path><text text-anchor="middle" x="863" y="-29.8" font-family="Arial" font-size="14.00" fill="#333333">Amazon Masterカード</text></g><!-- メインバンク:三菱ufj銀行&#45;&gt;クレジットカード:amazon masterカード --><g id="edge7" class="edge"><title>メインバンク:三菱ufj銀行-&gt;クレジットカード:amazon masterカード</title><path fill="none" stroke="#333333" stroke-width="2" stroke-opacity="0.600000" d="M619.1489,-100.4006C619.1489,-88.8003 619.1489,-76 619.1489,-76 619.1489,-76 788.837,-76 788.837,-76 788.837,-76 788.837,-62.0555 788.837,-62.0555"></path><polygon fill="#333333" fill-opacity="0.600000" stroke="#333333" stroke-width="2" stroke-opacity="0.600000" points="792.337,-62.0555 788.837,-52.0555 785.337,-62.0556 792.337,-62.0555"></polygon></g><!-- クレジットカード:visa line payカード --><g id="node4" class="node"><title>クレジットカード:visa line payカード</title><path fill="#ffffff" stroke="#4b75b9" stroke-width="3" d="M749.6234,-52C749.6234,-52 614.3766,-52 614.3766,-52 608.3766,-52 602.3766,-46 602.3766,-40 602.3766,-40 602.3766,-28 602.3766,-28 602.3766,-22 608.3766,-16 614.3766,-16 614.3766,-16 749.6234,-16 749.6234,-16 755.6234,-16 761.6234,-22 761.6234,-28 761.6234,-28 761.6234,-40 761.6234,-40 761.6234,-46 755.6234,-52 749.6234,-52"></path><text text-anchor="middle" x="682" y="-29.8" font-family="Arial" font-size="14.00" fill="#333333">Visa LINE Payカード</text></g><!-- メインバンク:三菱ufj銀行&#45;&gt;クレジットカード:visa line payカード --><g id="edge3" class="edge"><title>メインバンク:三菱ufj銀行-&gt;クレジットカード:visa line payカード</title><path fill="none" stroke="#333333" stroke-width="2" stroke-opacity="0.600000" d="M610.7936,-100.3997C610.7936,-100.3997 610.7936,-62.0731 610.7936,-62.0731"></path><polygon fill="#333333" fill-opacity="0.600000" stroke="#333333" stroke-width="2" stroke-opacity="0.600000" points="614.2937,-62.0731 610.7936,-52.0731 607.2937,-62.0731 614.2937,-62.0731"></polygon></g><!-- クレジットカード:セブンカード(家族) --><g id="node7" class="node"><title>クレジットカード:セブンカード(家族)</title><path fill="#ffffff" stroke="#4b75b9" stroke-width="3" d="M572.4444,-52C572.4444,-52 441.5556,-52 441.5556,-52 435.5556,-52 429.5556,-46 429.5556,-40 429.5556,-40 429.5556,-28 429.5556,-28 429.5556,-22 435.5556,-16 441.5556,-16 441.5556,-16 572.4444,-16 572.4444,-16 578.4444,-16 584.4444,-22 584.4444,-28 584.4444,-28 584.4444,-40 584.4444,-40 584.4444,-46 578.4444,-52 572.4444,-52"></path><text text-anchor="middle" x="507" y="-29.8" font-family="Arial" font-size="14.00" fill="#333333">セブンカード(家族)</text></g><!-- メインバンク:三菱ufj銀行&#45;&gt;クレジットカード:セブンカード(家族) --><g id="edge10" class="edge"><title>メインバンク:三菱ufj銀行-&gt;クレジットカード:セブンカード(家族)</title><path fill="none" stroke="#333333" stroke-width="2" stroke-opacity="0.600000" d="M552.484,-100.3997C552.484,-100.3997 552.484,-62.0731 552.484,-62.0731"></path><polygon fill="#333333" fill-opacity="0.600000" stroke="#333333" stroke-width="2" stroke-opacity="0.600000" points="555.9841,-62.0731 552.484,-52.0731 548.9841,-62.0731 555.9841,-62.0731"></polygon></g><!-- プルデンシャル生命:生命保険 --><g id="node11" class="node"><title>プルデンシャル生命:生命保険</title><path fill="#ffffff" stroke="#4b75b9" stroke-width="3" d="M143.7289,-52C143.7289,-52 82.2711,-52 82.2711,-52 76.2711,-52 70.2711,-46 70.2711,-40 70.2711,-40 70.2711,-28 70.2711,-28 70.2711,-22 76.2711,-16 82.2711,-16 82.2711,-16 143.7289,-16 143.7289,-16 149.7289,-16 155.7289,-22 155.7289,-28 155.7289,-28 155.7289,-40 155.7289,-40 155.7289,-46 149.7289,-52 143.7289,-52"></path><text text-anchor="middle" x="113" y="-29.8" font-family="Arial" font-size="14.00" fill="#333333">生命保険</text></g><!-- メインバンク:三菱ufj銀行&#45;&gt;プルデンシャル生命:生命保険 --><g id="edge11" class="edge"><title>メインバンク:三菱ufj銀行-&gt;プルデンシャル生命:生命保険</title><path fill="none" stroke="#333333" stroke-width="2" stroke-opacity="0.600000" d="M520.2152,-122C398.6085,-122 113,-122 113,-122 113,-122 113,-62.2337 113,-62.2337"></path><polygon fill="#333333" fill-opacity="0.600000" stroke="#333333" stroke-width="2" stroke-opacity="0.600000" points="116.5001,-62.2336 113,-52.2337 109.5001,-62.2337 116.5001,-62.2336"></polygon></g><!-- 県民共済:保険 --><g id="node12" class="node"><title>県民共済:保険</title><path fill="#ffffff" stroke="#4b75b9" stroke-width="3" d="M222,-52C222,-52 192,-52 192,-52 186,-52 180,-46 180,-40 180,-40 180,-28 180,-28 180,-22 186,-16 192,-16 192,-16 222,-16 222,-16 228,-16 234,-22 234,-28 234,-28 234,-40 234,-40 234,-46 228,-52 222,-52"></path><text text-anchor="middle" x="207" y="-29.8" font-family="Arial" font-size="14.00" fill="#333333">保険</text></g><!-- メインバンク:三菱ufj銀行&#45;&gt;県民共済:保険 --><g id="edge12" class="edge"><title>メインバンク:三菱ufj銀行-&gt;県民共済:保険</title><path fill="none" stroke="#333333" stroke-width="2" stroke-opacity="0.600000" d="M520.242,-115C418.3042,-115 207,-115 207,-115 207,-115 207,-62.3802 207,-62.3802"></path><polygon fill="#333333" fill-opacity="0.600000" stroke="#333333" stroke-width="2" stroke-opacity="0.600000" points="210.5001,-62.3801 207,-52.3802 203.5001,-62.3802 210.5001,-62.3801"></polygon></g><!-- 管理費・修繕積立金 --><g id="node14" class="node"><title>管理費・修繕積立金</title><path fill="none" stroke="#000000" stroke-width="2" d="M399.997,-52C399.997,-52 264.003,-52 264.003,-52 258.003,-52 252.003,-46 252.003,-40 252.003,-40 252.003,-28 252.003,-28 252.003,-22 258.003,-16 264.003,-16 264.003,-16 399.997,-16 399.997,-16 405.997,-16 411.997,-22 411.997,-28 411.997,-28 411.997,-40 411.997,-40 411.997,-46 405.997,-52 399.997,-52"></path><text text-anchor="middle" x="332" y="-29.8" font-family="Arial" font-size="14.00" fill="#000000">管理費・修繕積立金</text></g><!-- メインバンク:三菱ufj銀行&#45;&gt;管理費・修繕積立金 --><g id="edge6" class="edge"><title>メインバンク:三菱ufj銀行-&gt;管理費・修繕積立金</title><path fill="none" stroke="#333333" stroke-width="2" stroke-opacity="0.600000" d="M520.2924,-108C448.9972,-108 332,-108 332,-108 332,-108 332,-62.2921 332,-62.2921"></path><polygon fill="#333333" fill-opacity="0.600000" stroke="#333333" stroke-width="2" stroke-opacity="0.600000" points="335.5001,-62.2921 332,-52.2921 328.5001,-62.2922 335.5001,-62.2921"></polygon></g><!-- 会社 --><g id="node13" class="node"><title>会社</title><path fill="none" stroke="#000000" stroke-width="2" d="M623,-290.4C623,-290.4 593,-290.4 593,-290.4 587,-290.4 581,-284.4 581,-278.4 581,-278.4 581,-266.4 581,-266.4 581,-260.4 587,-254.4 593,-254.4 593,-254.4 623,-254.4 623,-254.4 629,-254.4 635,-260.4 635,-266.4 635,-266.4 635,-278.4 635,-278.4 635,-284.4 629,-290.4 623,-290.4"></path><text text-anchor="middle" x="608" y="-268.2" font-family="Arial" font-size="14.00" fill="#000000">会社</text></g><!-- 会社&#45;&gt;メインバンク:gmoあおぞらネット銀行 --><g id="edge1" class="edge"><title>会社-&gt;メインバンク:gmoあおぞらネット銀行</title><path fill="none" stroke="#333333" stroke-width="2" stroke-opacity="0.600000" d="M608,-254.1995C608,-254.1995 608,-223.6699 608,-223.6699"></path><polygon fill="#333333" fill-opacity="0.600000" stroke="#333333" stroke-width="2" stroke-opacity="0.600000" points="611.5001,-223.6698 608,-213.6699 604.5001,-223.6699 611.5001,-223.6698"></polygon></g><!-- 習志野市 --><g id="node15" class="node"><title>習志野市</title><path fill="none" stroke="#000000" stroke-width="2" d="M490.2275,-213.6C490.2275,-213.6 435.7725,-213.6 435.7725,-213.6 429.7725,-213.6 423.7725,-207.6 423.7725,-201.6 423.7725,-201.6 423.7725,-189.6 423.7725,-189.6 423.7725,-183.6 429.7725,-177.6 435.7725,-177.6 435.7725,-177.6 490.2275,-177.6 490.2275,-177.6 496.2275,-177.6 502.2275,-183.6 502.2275,-189.6 502.2275,-189.6 502.2275,-201.6 502.2275,-201.6 502.2275,-207.6 496.2275,-213.6 490.2275,-213.6"></path><text text-anchor="middle" x="463" y="-191.4" font-family="Arial" font-size="14.00" fill="#000000">習志野市</text></g><!-- 習志野市&#45;&gt;メインバンク:三菱ufj銀行 --><g id="edge14" class="edge"><title>習志野市-&gt;メインバンク:三菱ufj銀行</title><path fill="none" stroke="#333333" stroke-width="2" stroke-opacity="0.600000" d="M465.8207,-177.4013C465.8207,-157.6822 465.8207,-129 465.8207,-129 465.8207,-129 510.2273,-129 510.2273,-129"></path><polygon fill="#333333" fill-opacity="0.600000" stroke="#333333" stroke-width="2" stroke-opacity="0.600000" points="510.2273,-132.5001 520.2273,-129 510.2272,-125.5001 510.2273,-132.5001"></polygon></g></g></svg>