<?xml version="1.0" encoding="UTF-8" standalone="no"?><!-- Generated by graphviz version 2.40.1 (20161225.0304)
 --><!-- Title: ndiag Pages: 1 --><svg width="209pt" height="314pt" viewBox="0.00 0.00 209.00 313.60" xmlns="http://www.w3.org/2000/svg" xmlns:xlink="http://www.w3.org/1999/xlink"><g id="graph0" class="graph" transform="scale(1 1) rotate(0) translate(4 309.6)"><title>ndiag</title><polygon fill="#ffffff" stroke="transparent" points="-4,4 -4,-309.6 205,-309.6 205,4 -4,4"></polygon><g id="clust2" class="cluster"><title>cluster_GMOあおぞらネット銀行</title><polygon fill="none" stroke="#999999" stroke-width="2" points="18,-220.8 18,-297.6 193,-297.6 193,-220.8 18,-220.8"></polygon><text text-anchor="middle" x="105.5" y="-281" font-family="Arial" font-size="14.00" fill="#666666">GMOあおぞらネット銀行</text></g><g id="clust1" class="cluster"><title>cluster_イオン銀行</title><polygon fill="none" stroke="#000000" stroke-width="2" points="8,-64 8,-212.8 144,-212.8 144,-64 8,-64"></polygon><text text-anchor="middle" x="76" y="-196.2" font-family="Arial" font-size="14.00" fill="#000000">イオン銀行</text></g><!-- イオン銀行:普通口座 --><g id="node1" class="node"><title>イオン銀行:普通口座</title><path fill="#ffffff" stroke="#4b75b9" stroke-width="3" d="M104.8514,-180C104.8514,-180 47.1486,-180 47.1486,-180 41.1486,-180 35.1486,-174 35.1486,-168 35.1486,-168 35.1486,-156 35.1486,-156 35.1486,-150 41.1486,-144 47.1486,-144 47.1486,-144 104.8514,-144 104.8514,-144 110.8514,-144 116.8514,-150 116.8514,-156 116.8514,-156 116.8514,-168 116.8514,-168 116.8514,-174 110.8514,-180 104.8514,-180"></path><text text-anchor="middle" x="76" y="-157.8" font-family="Arial" font-size="14.00" fill="#333333">普通口座</text></g><!-- イオン銀行:デビットカード --><g id="node2" class="node"><title>イオン銀行:デビットカード</title><path fill="#ffffff" stroke="#4b75b9" stroke-width="3" d="M124.2203,-108C124.2203,-108 27.7797,-108 27.7797,-108 21.7797,-108 15.7797,-102 15.7797,-96 15.7797,-96 15.7797,-84 15.7797,-84 15.7797,-78 21.7797,-72 27.7797,-72 27.7797,-72 124.2203,-72 124.2203,-72 130.2203,-72 136.2203,-78 136.2203,-84 136.2203,-84 136.2203,-96 136.2203,-96 136.2203,-102 130.2203,-108 124.2203,-108"></path><text text-anchor="middle" x="76" y="-85.8" font-family="Arial" font-size="14.00" fill="#333333">デビットカード</text></g><!-- イオン銀行:普通口座&#45;&gt;イオン銀行:デビットカード --><g id="edge2" class="edge"><title>イオン銀行:普通口座-&gt;イオン銀行:デビットカード</title><path fill="none" stroke="#333333" stroke-width="2" stroke-opacity="0.600000" d="M76,-143.8314C76,-143.8314 76,-118.4133 76,-118.4133"></path><polygon fill="#333333" fill-opacity="0.600000" stroke="#333333" stroke-width="2" stroke-opacity="0.600000" points="79.5001,-118.4132 76,-108.4133 72.5001,-118.4133 79.5001,-118.4132"></polygon></g><!-- イオン --><g id="node4" class="node"><title>イオン</title><path fill="none" stroke="#000000" stroke-width="2" d="M92.9874,-36C92.9874,-36 59.0126,-36 59.0126,-36 53.0126,-36 47.0126,-30 47.0126,-24 47.0126,-24 47.0126,-12 47.0126,-12 47.0126,-6 53.0126,0 59.0126,0 59.0126,0 92.9874,0 92.9874,0 98.9874,0 104.9874,-6 104.9874,-12 104.9874,-12 104.9874,-24 104.9874,-24 104.9874,-30 98.9874,-36 92.9874,-36"></path><text text-anchor="middle" x="76" y="-13.8" font-family="Arial" font-size="14.00" fill="#000000">イオン</text></g><!-- イオン銀行:デビットカード&#45;&gt;イオン --><g id="edge3" class="edge"><title>イオン銀行:デビットカード-&gt;イオン</title><path fill="none" stroke="#333333" stroke-width="2" stroke-opacity="0.600000" d="M76,-71.8314C76,-71.8314 76,-46.4133 76,-46.4133"></path><polygon fill="#333333" fill-opacity="0.600000" stroke="#333333" stroke-width="2" stroke-opacity="0.600000" points="79.5001,-46.4132 76,-36.4133 72.5001,-46.4133 79.5001,-46.4132"></polygon></g><!-- gmoあおぞらネット銀行:普通口座 --><g id="node3" class="node"><title>gmoあおぞらネット銀行:普通口座</title><path fill="#ffffff" stroke="#4b75b9" stroke-width="3" d="M104.8514,-264.8C104.8514,-264.8 47.1486,-264.8 47.1486,-264.8 41.1486,-264.8 35.1486,-258.8 35.1486,-252.8 35.1486,-252.8 35.1486,-240.8 35.1486,-240.8 35.1486,-234.8 41.1486,-228.8 47.1486,-228.8 47.1486,-228.8 104.8514,-228.8 104.8514,-228.8 110.8514,-228.8 116.8514,-234.8 116.8514,-240.8 116.8514,-240.8 116.8514,-252.8 116.8514,-252.8 116.8514,-258.8 110.8514,-264.8 104.8514,-264.8"></path><text text-anchor="middle" x="76" y="-242.6" font-family="Arial" font-size="14.00" fill="#333333">普通口座</text></g><!-- gmoあおぞらネット銀行:普通口座&#45;&gt;イオン銀行:普通口座 --><g id="edge1" class="edge"><title>gmoあおぞらネット銀行:普通口座-&gt;イオン銀行:普通口座</title><path fill="none" stroke="#333333" stroke-width="2" stroke-opacity="0.600000" d="M76,-228.3997C76,-228.3997 76,-190.0731 76,-190.0731"></path><polygon fill="#333333" fill-opacity="0.600000" stroke="#333333" stroke-width="2" stroke-opacity="0.600000" points="79.5001,-190.0731 76,-180.0731 72.5001,-190.0731 79.5001,-190.0731"></polygon></g></g></svg>