<?xml version="1.0" encoding="UTF-8" standalone="no"?><!-- Generated by graphviz version 2.40.1 (20161225.0304)
 --><!-- Title: ndiag Pages: 1 --><svg width="131pt" height="186pt" viewBox="0.00 0.00 131.00 185.60" xmlns="http://www.w3.org/2000/svg" xmlns:xlink="http://www.w3.org/1999/xlink"><g id="graph0" class="graph" transform="scale(1 1) rotate(0) translate(4 181.6)"><title>ndiag</title><polygon fill="#ffffff" stroke="transparent" points="-4,4 -4,-181.6 127,-181.6 127,4 -4,4"></polygon><g id="clust2" class="cluster"><title>cluster_三菱UFJ銀行</title><polygon fill="none" stroke="#999999" stroke-width="2" points="8,-92.8 8,-169.6 115,-169.6 115,-92.8 8,-92.8"></polygon><text text-anchor="middle" x="61.5" y="-153" font-family="Arial" font-size="14.00" fill="#666666">三菱UFJ銀行</text></g><g id="clust1" class="cluster"><title>cluster_県民共済</title><polygon fill="none" stroke="#000000" stroke-width="2" points="26,-8 26,-84.8 96,-84.8 96,-8 26,-8"></polygon><text text-anchor="middle" x="61" y="-68.2" font-family="Arial" font-size="14.00" fill="#000000">県民共済</text></g><!-- 県民共済:保険 --><g id="node1" class="node"><title>県民共済:保険</title><path fill="#ffffff" stroke="#4b75b9" stroke-width="3" d="M76,-52C76,-52 46,-52 46,-52 40,-52 34,-46 34,-40 34,-40 34,-28 34,-28 34,-22 40,-16 46,-16 46,-16 76,-16 76,-16 82,-16 88,-22 88,-28 88,-28 88,-40 88,-40 88,-46 82,-52 76,-52"></path><text text-anchor="middle" x="61" y="-29.8" font-family="Arial" font-size="14.00" fill="#333333">保険</text></g><!-- 三菱ufj銀行:普通口座 --><g id="node2" class="node"><title>三菱ufj銀行:普通口座</title><path fill="#ffffff" stroke="#4b75b9" stroke-width="3" d="M89.8514,-136.8C89.8514,-136.8 32.1486,-136.8 32.1486,-136.8 26.1486,-136.8 20.1486,-130.8 20.1486,-124.8 20.1486,-124.8 20.1486,-112.8 20.1486,-112.8 20.1486,-106.8 26.1486,-100.8 32.1486,-100.8 32.1486,-100.8 89.8514,-100.8 89.8514,-100.8 95.8514,-100.8 101.8514,-106.8 101.8514,-112.8 101.8514,-112.8 101.8514,-124.8 101.8514,-124.8 101.8514,-130.8 95.8514,-136.8 89.8514,-136.8"></path><text text-anchor="middle" x="61" y="-114.6" font-family="Arial" font-size="14.00" fill="#333333">普通口座</text></g><!-- 三菱ufj銀行:普通口座&#45;&gt;県民共済:保険 --><g id="edge1" class="edge"><title>三菱ufj銀行:普通口座-&gt;県民共済:保険</title><path fill="none" stroke="#333333" stroke-width="2" stroke-opacity="0.600000" d="M61,-100.3997C61,-100.3997 61,-62.0731 61,-62.0731"></path><polygon fill="#333333" fill-opacity="0.600000" stroke="#333333" stroke-width="2" stroke-opacity="0.600000" points="64.5001,-62.0731 61,-52.0731 57.5001,-62.0731 64.5001,-62.0731"></polygon></g></g></svg>