<?xml version="1.0" encoding="UTF-8" standalone="no"?><!-- Generated by graphviz version 2.40.1 (20161225.0304)
 --><!-- Title: ndiag Pages: 1 --><svg width="384pt" height="242pt" viewBox="0.00 0.00 384.00 241.60" xmlns="http://www.w3.org/2000/svg" xmlns:xlink="http://www.w3.org/1999/xlink"><g id="graph0" class="graph" transform="scale(1 1) rotate(0) translate(4 237.6)"><title>ndiag</title><polygon fill="#ffffff" stroke="transparent" points="-4,4 -4,-237.6 380,-237.6 380,4 -4,4"></polygon><g id="clust2" class="cluster"><title>cluster_三菱UFJ銀行</title><polygon fill="none" stroke="#999999" stroke-width="2" points="136,-148.8 136,-225.6 243,-225.6 243,-148.8 136,-148.8"></polygon><text text-anchor="middle" x="189.5" y="-209" font-family="Arial" font-size="14.00" fill="#666666">三菱UFJ銀行</text></g><g id="clust1" class="cluster"><title>cluster_三井住友カード</title><polygon fill="none" stroke="#000000" stroke-width="2" points="8,-64 8,-140.8 368,-140.8 368,-64 8,-64"></polygon><text text-anchor="middle" x="188" y="-124.2" font-family="Arial" font-size="14.00" fill="#000000">三井住友カード</text></g><!-- 三井住友カード:amazon masterカード --><g id="node1" class="node"><title>三井住友カード:amazon masterカード</title><path fill="#ffffff" stroke="#4b75b9" stroke-width="3" d="M170.3934,-108C170.3934,-108 27.6066,-108 27.6066,-108 21.6066,-108 15.6066,-102 15.6066,-96 15.6066,-96 15.6066,-84 15.6066,-84 15.6066,-78 21.6066,-72 27.6066,-72 27.6066,-72 170.3934,-72 170.3934,-72 176.3934,-72 182.3934,-78 182.3934,-84 182.3934,-84 182.3934,-96 182.3934,-96 182.3934,-102 176.3934,-108 170.3934,-108"></path><text text-anchor="middle" x="99" y="-85.8" font-family="Arial" font-size="14.00" fill="#333333">Amazon Masterカード</text></g><!-- amazon --><g id="node5" class="node"><title>amazon</title><path fill="none" stroke="#000000" stroke-width="2" d="M120.8459,-36C120.8459,-36 77.1541,-36 77.1541,-36 71.1541,-36 65.1541,-30 65.1541,-24 65.1541,-24 65.1541,-12 65.1541,-12 65.1541,-6 71.1541,0 77.1541,0 77.1541,0 120.8459,0 120.8459,0 126.8459,0 132.8459,-6 132.8459,-12 132.8459,-12 132.8459,-24 132.8459,-24 132.8459,-30 126.8459,-36 120.8459,-36"></path><text text-anchor="middle" x="99" y="-13.8" font-family="Arial" font-size="14.00" fill="#000000">Amazon</text></g><!-- 三井住友カード:amazon masterカード&#45;&gt;amazon --><g id="edge4" class="edge"><title>三井住友カード:amazon masterカード-&gt;amazon</title><path fill="none" stroke="#333333" stroke-width="2" stroke-opacity="0.600000" d="M99,-71.8314C99,-71.8314 99,-46.4133 99,-46.4133"></path><polygon fill="#333333" fill-opacity="0.600000" stroke="#333333" stroke-width="2" stroke-opacity="0.600000" points="102.5001,-46.4132 99,-36.4133 95.5001,-46.4133 102.5001,-46.4132"></polygon></g><!-- 三井住友カード:visa line payカード --><g id="node2" class="node"><title>三井住友カード:visa line payカード</title><path fill="#ffffff" stroke="#4b75b9" stroke-width="3" d="M347.6234,-108C347.6234,-108 212.3766,-108 212.3766,-108 206.3766,-108 200.3766,-102 200.3766,-96 200.3766,-96 200.3766,-84 200.3766,-84 200.3766,-78 206.3766,-72 212.3766,-72 212.3766,-72 347.6234,-72 347.6234,-72 353.6234,-72 359.6234,-78 359.6234,-84 359.6234,-84 359.6234,-96 359.6234,-96 359.6234,-102 353.6234,-108 347.6234,-108"></path><text text-anchor="middle" x="280" y="-85.8" font-family="Arial" font-size="14.00" fill="#333333">Visa LINE Payカード</text></g><!-- 世界 --><g id="node4" class="node"><title>世界</title><path fill="none" stroke="#000000" stroke-width="2" d="M295,-36C295,-36 265,-36 265,-36 259,-36 253,-30 253,-24 253,-24 253,-12 253,-12 253,-6 259,0 265,0 265,0 295,0 295,0 301,0 307,-6 307,-12 307,-12 307,-24 307,-24 307,-30 301,-36 295,-36"></path><text text-anchor="middle" x="280" y="-13.8" font-family="Arial" font-size="14.00" fill="#000000">世界</text></g><!-- 三井住友カード:visa line payカード&#45;&gt;世界 --><g id="edge2" class="edge"><title>三井住友カード:visa line payカード-&gt;世界</title><path fill="none" stroke="#333333" stroke-width="2" stroke-opacity="0.600000" d="M280,-71.8314C280,-71.8314 280,-46.4133 280,-46.4133"></path><polygon fill="#333333" fill-opacity="0.600000" stroke="#333333" stroke-width="2" stroke-opacity="0.600000" points="283.5001,-46.4132 280,-36.4133 276.5001,-46.4133 283.5001,-46.4132"></polygon></g><!-- 三菱ufj銀行:普通口座 --><g id="node3" class="node"><title>三菱ufj銀行:普通口座</title><path fill="#ffffff" stroke="#4b75b9" stroke-width="3" d="M217.8514,-192.8C217.8514,-192.8 160.1486,-192.8 160.1486,-192.8 154.1486,-192.8 148.1486,-186.8 148.1486,-180.8 148.1486,-180.8 148.1486,-168.8 148.1486,-168.8 148.1486,-162.8 154.1486,-156.8 160.1486,-156.8 160.1486,-156.8 217.8514,-156.8 217.8514,-156.8 223.8514,-156.8 229.8514,-162.8 229.8514,-168.8 229.8514,-168.8 229.8514,-180.8 229.8514,-180.8 229.8514,-186.8 223.8514,-192.8 217.8514,-192.8"></path><text text-anchor="middle" x="189" y="-170.6" font-family="Arial" font-size="14.00" fill="#333333">普通口座</text></g><!-- 三菱ufj銀行:普通口座&#45;&gt;三井住友カード:amazon masterカード --><g id="edge3" class="edge"><title>三菱ufj銀行:普通口座-&gt;三井住友カード:amazon masterカード</title><path fill="none" stroke="#333333" stroke-width="2" stroke-opacity="0.600000" d="M165.3857,-156.3997C165.3857,-156.3997 165.3857,-118.0731 165.3857,-118.0731"></path><polygon fill="#333333" fill-opacity="0.600000" stroke="#333333" stroke-width="2" stroke-opacity="0.600000" points="168.8858,-118.0731 165.3857,-108.0731 161.8858,-118.0731 168.8858,-118.0731"></polygon></g><!-- 三菱ufj銀行:普通口座&#45;&gt;三井住友カード:visa line payカード --><g id="edge1" class="edge"><title>三菱ufj銀行:普通口座-&gt;三井住友カード:visa line payカード</title><path fill="none" stroke="#333333" stroke-width="2" stroke-opacity="0.600000" d="M215.0568,-156.3997C215.0568,-156.3997 215.0568,-118.0731 215.0568,-118.0731"></path><polygon fill="#333333" fill-opacity="0.600000" stroke="#333333" stroke-width="2" stroke-opacity="0.600000" points="218.5569,-118.0731 215.0568,-108.0731 211.5569,-118.0731 218.5569,-118.0731"></polygon></g></g></svg>