<?xml version="1.0" encoding="UTF-8" standalone="no"?><!-- Generated by graphviz version 2.40.1 (20161225.0304)
 --><!-- Title: ndiag Pages: 1 --><svg width="216pt" height="186pt" viewBox="0.00 0.00 216.00 185.60" xmlns="http://www.w3.org/2000/svg" xmlns:xlink="http://www.w3.org/1999/xlink"><g id="graph0" class="graph" transform="scale(1 1) rotate(0) translate(4 181.6)"><title>ndiag</title><polygon fill="#ffffff" stroke="transparent" points="-4,4 -4,-181.6 212,-181.6 212,4 -4,4"></polygon><g id="clust2" class="cluster"><title>cluster_楽天銀行</title><polygon fill="none" stroke="#999999" stroke-width="2" points="41,-92.8 41,-169.6 161,-169.6 161,-92.8 41,-92.8"></polygon><text text-anchor="middle" x="101" y="-153" font-family="Arial" font-size="14.00" fill="#666666">楽天銀行</text></g><g id="clust1" class="cluster"><title>cluster_楽天証券</title><polygon fill="none" stroke="#000000" stroke-width="2" points="8,-8 8,-84.8 200,-84.8 200,-8 8,-8"></polygon><text text-anchor="middle" x="104" y="-68.2" font-family="Arial" font-size="14.00" fill="#000000">楽天証券</text></g><!-- 楽天証券:積立nisa --><g id="node1" class="node"><title>楽天証券:積立nisa</title><path fill="#ffffff" stroke="#4b75b9" stroke-width="3" d="M180.1886,-52C180.1886,-52 129.8114,-52 129.8114,-52 123.8114,-52 117.8114,-46 117.8114,-40 117.8114,-40 117.8114,-28 117.8114,-28 117.8114,-22 123.8114,-16 129.8114,-16 129.8114,-16 180.1886,-16 180.1886,-16 186.1886,-16 192.1886,-22 192.1886,-28 192.1886,-28 192.1886,-40 192.1886,-40 192.1886,-46 186.1886,-52 180.1886,-52"></path><text text-anchor="middle" x="155" y="-29.8" font-family="Arial" font-size="14.00" fill="#333333">積立NISA</text></g><!-- 楽天証券:投資信託 --><g id="node2" class="node"><title>楽天証券:投資信託</title><path fill="#ffffff" stroke="#4b75b9" stroke-width="3" d="M87.6878,-52C87.6878,-52 28.3122,-52 28.3122,-52 22.3122,-52 16.3122,-46 16.3122,-40 16.3122,-40 16.3122,-28 16.3122,-28 16.3122,-22 22.3122,-16 28.3122,-16 28.3122,-16 87.6878,-16 87.6878,-16 93.6878,-16 99.6878,-22 99.6878,-28 99.6878,-28 99.6878,-40 99.6878,-40 99.6878,-46 93.6878,-52 87.6878,-52"></path><text text-anchor="middle" x="58" y="-29.8" font-family="Arial" font-size="14.00" fill="#333333">投資信託</text></g><!-- 楽天銀行:楽天カード --><g id="node3" class="node"><title>楽天銀行:楽天カード</title><path fill="#ffffff" stroke="#4b75b9" stroke-width="3" d="M140.9548,-136.8C140.9548,-136.8 61.0452,-136.8 61.0452,-136.8 55.0452,-136.8 49.0452,-130.8 49.0452,-124.8 49.0452,-124.8 49.0452,-112.8 49.0452,-112.8 49.0452,-106.8 55.0452,-100.8 61.0452,-100.8 61.0452,-100.8 140.9548,-100.8 140.9548,-100.8 146.9548,-100.8 152.9548,-106.8 152.9548,-112.8 152.9548,-112.8 152.9548,-124.8 152.9548,-124.8 152.9548,-130.8 146.9548,-136.8 140.9548,-136.8"></path><text text-anchor="middle" x="101" y="-114.6" font-family="Arial" font-size="14.00" fill="#333333">楽天カード</text></g><!-- 楽天銀行:楽天カード&#45;&gt;楽天証券:積立nisa --><g id="edge1" class="edge"><title>楽天銀行:楽天カード-&gt;楽天証券:積立nisa</title><path fill="none" stroke="#333333" stroke-width="2" stroke-opacity="0.600000" d="M135.1915,-100.3997C135.1915,-100.3997 135.1915,-62.0731 135.1915,-62.0731"></path><polygon fill="#333333" fill-opacity="0.600000" stroke="#333333" stroke-width="2" stroke-opacity="0.600000" points="138.6915,-62.0731 135.1915,-52.0731 131.6915,-62.0731 138.6915,-62.0731"></polygon></g><!-- 楽天銀行:楽天カード&#45;&gt;楽天証券:投資信託 --><g id="edge2" class="edge"><title>楽天銀行:楽天カード-&gt;楽天証券:投資信託</title><path fill="none" stroke="#333333" stroke-width="2" stroke-opacity="0.600000" d="M74.5583,-100.3997C74.5583,-100.3997 74.5583,-62.0731 74.5583,-62.0731"></path><polygon fill="#333333" fill-opacity="0.600000" stroke="#333333" stroke-width="2" stroke-opacity="0.600000" points="78.0584,-62.0731 74.5583,-52.0731 71.0584,-62.0731 78.0584,-62.0731"></polygon></g></g></svg>