<?xml version="1.0" encoding="UTF-8" standalone="no"?><!-- Generated by graphviz version 2.40.1 (20161225.0304)
 --><!-- Title: ndiag Pages: 1 --><svg width="546pt" height="270pt" viewBox="0.00 0.00 546.00 270.40" xmlns="http://www.w3.org/2000/svg" xmlns:xlink="http://www.w3.org/1999/xlink"><g id="graph0" class="graph" transform="scale(1 1) rotate(0) translate(4 266.4)"><title>ndiag</title><polygon fill="#ffffff" stroke="transparent" points="-4,4 -4,-266.4 541.9985,-266.4 541.9985,4 -4,4"></polygon><g id="clust3" class="cluster"><title>cluster_三井住友カード</title><polygon fill="none" stroke="#999999" stroke-width="2" points="8,-8 8,-84.8 368,-84.8 368,-8 8,-8"></polygon><text text-anchor="middle" x="188" y="-68.2" font-family="Arial" font-size="14.00" fill="#666666">三井住友カード</text></g><g id="clust2" class="cluster"><title>cluster_GMOあおぞらネット銀行</title><polygon fill="none" stroke="#999999" stroke-width="2" points="211,-177.6 211,-254.4 386,-254.4 386,-177.6 211,-177.6"></polygon><text text-anchor="middle" x="298.5" y="-237.8" font-family="Arial" font-size="14.00" fill="#666666">GMOあおぞらネット銀行</text></g><g id="clust1" class="cluster"><title>cluster_三菱UFJ銀行</title><polygon fill="none" stroke="#000000" stroke-width="2" points="224,-92.8 224,-169.6 331,-169.6 331,-92.8 224,-92.8"></polygon><text text-anchor="middle" x="277.5" y="-153" font-family="Arial" font-size="14.00" fill="#000000">三菱UFJ銀行</text></g><!-- 三菱ufj銀行:普通口座 --><g id="node1" class="node"><title>三菱ufj銀行:普通口座</title><path fill="#ffffff" stroke="#4b75b9" stroke-width="3" d="M305.8514,-136.8C305.8514,-136.8 248.1486,-136.8 248.1486,-136.8 242.1486,-136.8 236.1486,-130.8 236.1486,-124.8 236.1486,-124.8 236.1486,-112.8 236.1486,-112.8 236.1486,-106.8 242.1486,-100.8 248.1486,-100.8 248.1486,-100.8 305.8514,-100.8 305.8514,-100.8 311.8514,-100.8 317.8514,-106.8 317.8514,-112.8 317.8514,-112.8 317.8514,-124.8 317.8514,-124.8 317.8514,-130.8 311.8514,-136.8 305.8514,-136.8"></path><text text-anchor="middle" x="277" y="-114.6" font-family="Arial" font-size="14.00" fill="#333333">普通口座</text></g><!-- 三井住友カード:amazon masterカード --><g id="node3" class="node"><title>三井住友カード:amazon masterカード</title><path fill="#ffffff" stroke="#4b75b9" stroke-width="3" d="M348.3934,-52C348.3934,-52 205.6066,-52 205.6066,-52 199.6066,-52 193.6066,-46 193.6066,-40 193.6066,-40 193.6066,-28 193.6066,-28 193.6066,-22 199.6066,-16 205.6066,-16 205.6066,-16 348.3934,-16 348.3934,-16 354.3934,-16 360.3934,-22 360.3934,-28 360.3934,-28 360.3934,-40 360.3934,-40 360.3934,-46 354.3934,-52 348.3934,-52"></path><text text-anchor="middle" x="277" y="-29.8" font-family="Arial" font-size="14.00" fill="#333333">Amazon Masterカード</text></g><!-- 三菱ufj銀行:普通口座&#45;&gt;三井住友カード:amazon masterカード --><g id="edge4" class="edge"><title>三菱ufj銀行:普通口座-&gt;三井住友カード:amazon masterカード</title><path fill="none" stroke="#333333" stroke-width="2" stroke-opacity="0.600000" d="M277,-100.3997C277,-100.3997 277,-62.0731 277,-62.0731"></path><polygon fill="#333333" fill-opacity="0.600000" stroke="#333333" stroke-width="2" stroke-opacity="0.600000" points="280.5001,-62.0731 277,-52.0731 273.5001,-62.0731 280.5001,-62.0731"></polygon></g><!-- 三井住友カード:visa line payカード --><g id="node4" class="node"><title>三井住友カード:visa line payカード</title><path fill="#ffffff" stroke="#4b75b9" stroke-width="3" d="M163.6234,-52C163.6234,-52 28.3766,-52 28.3766,-52 22.3766,-52 16.3766,-46 16.3766,-40 16.3766,-40 16.3766,-28 16.3766,-28 16.3766,-22 22.3766,-16 28.3766,-16 28.3766,-16 163.6234,-16 163.6234,-16 169.6234,-16 175.6234,-22 175.6234,-28 175.6234,-28 175.6234,-40 175.6234,-40 175.6234,-46 169.6234,-52 163.6234,-52"></path><text text-anchor="middle" x="96" y="-29.8" font-family="Arial" font-size="14.00" fill="#333333">Visa LINE Payカード</text></g><!-- 三菱ufj銀行:普通口座&#45;&gt;三井住友カード:visa line payカード --><g id="edge2" class="edge"><title>三菱ufj銀行:普通口座-&gt;三井住友カード:visa line payカード</title><path fill="none" stroke="#333333" stroke-width="2" stroke-opacity="0.600000" d="M235.9283,-118C182.5257,-118 96,-118 96,-118 96,-118 96,-62.2267 96,-62.2267"></path><polygon fill="#333333" fill-opacity="0.600000" stroke="#333333" stroke-width="2" stroke-opacity="0.600000" points="99.5001,-62.2267 96,-52.2267 92.5001,-62.2268 99.5001,-62.2267"></polygon></g><!-- 管理費・修繕積立金 --><g id="node5" class="node"><title>管理費・修繕積立金</title><path fill="none" stroke="#000000" stroke-width="2" d="M525.997,-52C525.997,-52 390.003,-52 390.003,-52 384.003,-52 378.003,-46 378.003,-40 378.003,-40 378.003,-28 378.003,-28 378.003,-22 384.003,-16 390.003,-16 390.003,-16 525.997,-16 525.997,-16 531.997,-16 537.997,-22 537.997,-28 537.997,-28 537.997,-40 537.997,-40 537.997,-46 531.997,-52 525.997,-52"></path><text text-anchor="middle" x="458" y="-29.8" font-family="Arial" font-size="14.00" fill="#000000">管理費・修繕積立金</text></g><!-- 三菱ufj銀行:普通口座&#45;&gt;管理費・修繕積立金 --><g id="edge3" class="edge"><title>三菱ufj銀行:普通口座-&gt;管理費・修繕積立金</title><path fill="none" stroke="#333333" stroke-width="2" stroke-opacity="0.600000" d="M318.0717,-118C371.4743,-118 458,-118 458,-118 458,-118 458,-62.2267 458,-62.2267"></path><polygon fill="#333333" fill-opacity="0.600000" stroke="#333333" stroke-width="2" stroke-opacity="0.600000" points="461.5001,-62.2267 458,-52.2267 454.5001,-62.2268 461.5001,-62.2267"></polygon></g><!-- gmoあおぞらネット銀行:普通口座 --><g id="node2" class="node"><title>gmoあおぞらネット銀行:普通口座</title><path fill="#ffffff" stroke="#4b75b9" stroke-width="3" d="M305.8514,-221.6C305.8514,-221.6 248.1486,-221.6 248.1486,-221.6 242.1486,-221.6 236.1486,-215.6 236.1486,-209.6 236.1486,-209.6 236.1486,-197.6 236.1486,-197.6 236.1486,-191.6 242.1486,-185.6 248.1486,-185.6 248.1486,-185.6 305.8514,-185.6 305.8514,-185.6 311.8514,-185.6 317.8514,-191.6 317.8514,-197.6 317.8514,-197.6 317.8514,-209.6 317.8514,-209.6 317.8514,-215.6 311.8514,-221.6 305.8514,-221.6"></path><text text-anchor="middle" x="277" y="-199.4" font-family="Arial" font-size="14.00" fill="#333333">普通口座</text></g><!-- gmoあおぞらネット銀行:普通口座&#45;&gt;三菱ufj銀行:普通口座 --><g id="edge1" class="edge"><title>gmoあおぞらネット銀行:普通口座-&gt;三菱ufj銀行:普通口座</title><path fill="none" stroke="#333333" stroke-width="2" stroke-opacity="0.600000" d="M277,-185.1997C277,-185.1997 277,-146.8731 277,-146.8731"></path><polygon fill="#333333" fill-opacity="0.600000" stroke="#333333" stroke-width="2" stroke-opacity="0.600000" points="280.5001,-146.8731 277,-136.8731 273.5001,-146.8731 280.5001,-146.8731"></polygon></g></g></svg>