<?xml version="1.0" encoding="UTF-8" standalone="no"?><!-- Generated by graphviz version 2.40.1 (20161225.0304)
 --><!-- Title: ndiag Pages: 1 --><svg width="1413pt" height="298pt" viewBox="0.00 0.00 1413.00 298.40" xmlns="http://www.w3.org/2000/svg" xmlns:xlink="http://www.w3.org/1999/xlink"><g id="graph0" class="graph" transform="scale(1 1) rotate(0) translate(4 294.4)"><title>ndiag</title><polygon fill="#ffffff" stroke="transparent" points="-4,4 -4,-294.4 1409,-294.4 1409,4 -4,4"></polygon><g id="clust5" class="cluster"><title>cluster_県民共済</title><polygon fill="none" stroke="#999999" stroke-width="2" points="172,-8 172,-84.8 242,-84.8 242,-8 172,-8"></polygon><text text-anchor="middle" x="207" y="-68.2" font-family="Arial" font-size="14.00" fill="#666666">県民共済</text></g><g id="clust4" class="cluster"><title>cluster_プルデンシャル生命</title><polygon fill="none" stroke="#999999" stroke-width="2" points="8,-8 8,-84.8 164,-84.8 164,-8 8,-8"></polygon><text text-anchor="middle" x="86" y="-68.2" font-family="Arial" font-size="14.00" fill="#666666">プルデンシャル生命</text></g><g id="clust3" class="cluster"><title>cluster_サブバンク</title><polygon fill="none" stroke="#999999" stroke-width="2" points="684,-92.8 684,-169.6 1162,-169.6 1162,-92.8 684,-92.8"></polygon><text text-anchor="middle" x="923" y="-153" font-family="Arial" font-size="14.00" fill="#666666">サブバンク</text></g><g id="clust2" class="cluster"><title>cluster_クレジットカード</title><polygon fill="none" stroke="#999999" stroke-width="2" points="422,-8 422,-84.8 1397,-84.8 1397,-8 422,-8"></polygon><text text-anchor="middle" x="909.5" y="-68.2" font-family="Arial" font-size="14.00" fill="#666666">クレジットカード</text></g><g id="clust1" class="cluster"><title>cluster_メインバンク</title><polygon fill="none" stroke="#000000" stroke-width="2" points="484,-92.8 484,-246.4 676,-246.4 676,-92.8 484,-92.8"></polygon><text text-anchor="middle" x="580" y="-229.8" font-family="Arial" font-size="14.00" fill="#000000">メインバンク</text></g><!-- メインバンク:gmoあおぞらネット銀行 --><g id="node1" class="node"><title>メインバンク:gmoあおぞらネット銀行</title><path fill="#ffffff" stroke="#4b75b9" stroke-width="3" d="M655.6661,-213.6C655.6661,-213.6 504.3339,-213.6 504.3339,-213.6 498.3339,-213.6 492.3339,-207.6 492.3339,-201.6 492.3339,-201.6 492.3339,-189.6 492.3339,-189.6 492.3339,-183.6 498.3339,-177.6 504.3339,-177.6 504.3339,-177.6 655.6661,-177.6 655.6661,-177.6 661.6661,-177.6 667.6661,-183.6 667.6661,-189.6 667.6661,-189.6 667.6661,-201.6 667.6661,-201.6 667.6661,-207.6 661.6661,-213.6 655.6661,-213.6"></path><text text-anchor="middle" x="580" y="-191.4" font-family="Arial" font-size="14.00" fill="#333333">GMOあおぞらネット銀行</text></g><!-- メインバンク:三菱ufj銀行 --><g id="node2" class="node"><title>メインバンク:三菱ufj銀行</title><path fill="#ffffff" stroke="#4b75b9" stroke-width="3" d="M587.5084,-136.8C587.5084,-136.8 504.4916,-136.8 504.4916,-136.8 498.4916,-136.8 492.4916,-130.8 492.4916,-124.8 492.4916,-124.8 492.4916,-112.8 492.4916,-112.8 492.4916,-106.8 498.4916,-100.8 504.4916,-100.8 504.4916,-100.8 587.5084,-100.8 587.5084,-100.8 593.5084,-100.8 599.5084,-106.8 599.5084,-112.8 599.5084,-112.8 599.5084,-124.8 599.5084,-124.8 599.5084,-130.8 593.5084,-136.8 587.5084,-136.8"></path><text text-anchor="middle" x="546" y="-114.6" font-family="Arial" font-size="14.00" fill="#333333">三菱UFJ銀行</text></g><!-- メインバンク:gmoあおぞらネット銀行&#45;&gt;メインバンク:三菱ufj銀行 --><g id="edge2" class="edge"><title>メインバンク:gmoあおぞらネット銀行-&gt;メインバンク:三菱ufj銀行</title><path fill="none" stroke="#333333" stroke-width="2" stroke-opacity="0.600000" d="M546,-177.3995C546,-177.3995 546,-146.8699 546,-146.8699"></path><polygon fill="#333333" fill-opacity="0.600000" stroke="#333333" stroke-width="2" stroke-opacity="0.600000" points="549.5001,-146.8698 546,-136.8699 542.5001,-146.8699 549.5001,-146.8698"></polygon></g><!-- クレジットカード:セゾンアメックス(家族) --><g id="node5" class="node"><title>クレジットカード:セゾンアメックス(家族)</title><path fill="#ffffff" stroke="#4b75b9" stroke-width="3" d="M1376.9045,-52C1376.9045,-52 1225.0955,-52 1225.0955,-52 1219.0955,-52 1213.0955,-46 1213.0955,-40 1213.0955,-40 1213.0955,-28 1213.0955,-28 1213.0955,-22 1219.0955,-16 1225.0955,-16 1225.0955,-16 1376.9045,-16 1376.9045,-16 1382.9045,-16 1388.9045,-22 1388.9045,-28 1388.9045,-28 1388.9045,-40 1388.9045,-40 1388.9045,-46 1382.9045,-52 1376.9045,-52"></path><text text-anchor="middle" x="1301" y="-29.8" font-family="Arial" font-size="14.00" fill="#333333">セゾンアメックス(家族)</text></g><!-- メインバンク:gmoあおぞらネット銀行&#45;&gt;クレジットカード:セゾンアメックス(家族) --><g id="edge8" class="edge"><title>メインバンク:gmoあおぞらネット銀行-&gt;クレジットカード:セゾンアメックス(家族)</title><path fill="none" stroke="#333333" stroke-width="2" stroke-opacity="0.600000" d="M667.6879,-207C859.8357,-207 1301,-207 1301,-207 1301,-207 1301,-62.1871 1301,-62.1871"></path><polygon fill="#333333" fill-opacity="0.600000" stroke="#333333" stroke-width="2" stroke-opacity="0.600000" points="1304.5001,-62.187 1301,-52.1871 1297.5001,-62.1871 1304.5001,-62.187"></polygon></g><!-- クレジットカード:三井ショッピングパークカード --><g id="node6" class="node"><title>クレジットカード:三井ショッピングパークカード</title><path fill="#ffffff" stroke="#4b75b9" stroke-width="3" d="M1183.3594,-52C1183.3594,-52 976.6406,-52 976.6406,-52 970.6406,-52 964.6406,-46 964.6406,-40 964.6406,-40 964.6406,-28 964.6406,-28 964.6406,-22 970.6406,-16 976.6406,-16 976.6406,-16 1183.3594,-16 1183.3594,-16 1189.3594,-16 1195.3594,-22 1195.3594,-28 1195.3594,-28 1195.3594,-40 1195.3594,-40 1195.3594,-46 1189.3594,-52 1183.3594,-52"></path><text text-anchor="middle" x="1080" y="-29.8" font-family="Arial" font-size="14.00" fill="#333333">三井ショッピングパークカード</text></g><!-- メインバンク:gmoあおぞらネット銀行&#45;&gt;クレジットカード:三井ショッピングパークカード --><g id="edge9" class="edge"><title>メインバンク:gmoあおぞらネット銀行-&gt;クレジットカード:三井ショッピングパークカード</title><path fill="none" stroke="#333333" stroke-width="2" stroke-opacity="0.600000" d="M667.6576,-195C806.0061,-195 1059.4388,-195 1059.4388,-195 1059.4388,-195 1059.4388,-62.1558 1059.4388,-62.1558"></path><polygon fill="#333333" fill-opacity="0.600000" stroke="#333333" stroke-width="2" stroke-opacity="0.600000" points="1062.9389,-62.1557 1059.4388,-52.1558 1055.9389,-62.1558 1062.9389,-62.1557"></polygon></g><!-- サブバンク:楽天銀行 --><g id="node8" class="node"><title>サブバンク:楽天銀行</title><path fill="#ffffff" stroke="#4b75b9" stroke-width="3" d="M1141.5796,-136.8C1141.5796,-136.8 1080.4204,-136.8 1080.4204,-136.8 1074.4204,-136.8 1068.4204,-130.8 1068.4204,-124.8 1068.4204,-124.8 1068.4204,-112.8 1068.4204,-112.8 1068.4204,-106.8 1074.4204,-100.8 1080.4204,-100.8 1080.4204,-100.8 1141.5796,-100.8 1141.5796,-100.8 1147.5796,-100.8 1153.5796,-106.8 1153.5796,-112.8 1153.5796,-112.8 1153.5796,-124.8 1153.5796,-124.8 1153.5796,-130.8 1147.5796,-136.8 1141.5796,-136.8"></path><text text-anchor="middle" x="1111" y="-114.6" font-family="Arial" font-size="14.00" fill="#333333">楽天銀行</text></g><!-- メインバンク:gmoあおぞらネット銀行&#45;&gt;サブバンク:楽天銀行 --><g id="edge4" class="edge"><title>メインバンク:gmoあおぞらネット銀行-&gt;サブバンク:楽天銀行</title><path fill="none" stroke="#333333" stroke-width="2" stroke-opacity="0.600000" d="M667.6839,-201C818.5027,-201 1111,-201 1111,-201 1111,-201 1111,-147.0428 1111,-147.0428"></path><polygon fill="#333333" fill-opacity="0.600000" stroke="#333333" stroke-width="2" stroke-opacity="0.600000" points="1114.5001,-147.0428 1111,-137.0428 1107.5001,-147.0429 1114.5001,-147.0428"></polygon></g><!-- サブバンク:住信sbiネット銀行 --><g id="node9" class="node"><title>サブバンク:住信sbiネット銀行</title><path fill="#ffffff" stroke="#4b75b9" stroke-width="3" d="M1038.8342,-136.8C1038.8342,-136.8 911.1658,-136.8 911.1658,-136.8 905.1658,-136.8 899.1658,-130.8 899.1658,-124.8 899.1658,-124.8 899.1658,-112.8 899.1658,-112.8 899.1658,-106.8 905.1658,-100.8 911.1658,-100.8 911.1658,-100.8 1038.8342,-100.8 1038.8342,-100.8 1044.8342,-100.8 1050.8342,-106.8 1050.8342,-112.8 1050.8342,-112.8 1050.8342,-124.8 1050.8342,-124.8 1050.8342,-130.8 1044.8342,-136.8 1038.8342,-136.8"></path><text text-anchor="middle" x="975" y="-114.6" font-family="Arial" font-size="14.00" fill="#333333">住信SBIネット銀行</text></g><!-- メインバンク:gmoあおぞらネット銀行&#45;&gt;サブバンク:住信sbiネット銀行 --><g id="edge5" class="edge"><title>メインバンク:gmoあおぞらネット銀行-&gt;サブバンク:住信sbiネット銀行</title><path fill="none" stroke="#333333" stroke-width="2" stroke-opacity="0.600000" d="M667.6633,-189C784.0335,-189 975,-189 975,-189 975,-189 975,-146.8782 975,-146.8782"></path><polygon fill="#333333" fill-opacity="0.600000" stroke="#333333" stroke-width="2" stroke-opacity="0.600000" points="978.5001,-146.8782 975,-136.8782 971.5001,-146.8783 978.5001,-146.8782"></polygon></g><!-- サブバンク:イオン銀行 --><g id="node10" class="node"><title>サブバンク:イオン銀行</title><path fill="#ffffff" stroke="#4b75b9" stroke-width="3" d="M869.493,-136.8C869.493,-136.8 800.507,-136.8 800.507,-136.8 794.507,-136.8 788.507,-130.8 788.507,-124.8 788.507,-124.8 788.507,-112.8 788.507,-112.8 788.507,-106.8 794.507,-100.8 800.507,-100.8 800.507,-100.8 869.493,-100.8 869.493,-100.8 875.493,-100.8 881.493,-106.8 881.493,-112.8 881.493,-112.8 881.493,-124.8 881.493,-124.8 881.493,-130.8 875.493,-136.8 869.493,-136.8"></path><text text-anchor="middle" x="835" y="-114.6" font-family="Arial" font-size="14.00" fill="#333333">イオン銀行</text></g><!-- メインバンク:gmoあおぞらネット銀行&#45;&gt;サブバンク:イオン銀行 --><g id="edge13" class="edge"><title>メインバンク:gmoあおぞらネット銀行-&gt;サブバンク:イオン銀行</title><path fill="none" stroke="#333333" stroke-width="2" stroke-opacity="0.600000" d="M667.7565,-183C741.5189,-183 835,-183 835,-183 835,-183 835,-147.0254 835,-147.0254"></path><polygon fill="#333333" fill-opacity="0.600000" stroke="#333333" stroke-width="2" stroke-opacity="0.600000" points="838.5001,-147.0254 835,-137.0254 831.5001,-147.0255 838.5001,-147.0254"></polygon></g><!-- サブバンク:千葉銀行 --><g id="node11" class="node"><title>サブバンク:千葉銀行</title><path fill="#ffffff" stroke="#4b75b9" stroke-width="3" d="M758.2416,-136.8C758.2416,-136.8 703.7584,-136.8 703.7584,-136.8 697.7584,-136.8 691.7584,-130.8 691.7584,-124.8 691.7584,-124.8 691.7584,-112.8 691.7584,-112.8 691.7584,-106.8 697.7584,-100.8 703.7584,-100.8 703.7584,-100.8 758.2416,-100.8 758.2416,-100.8 764.2416,-100.8 770.2416,-106.8 770.2416,-112.8 770.2416,-112.8 770.2416,-124.8 770.2416,-124.8 770.2416,-130.8 764.2416,-136.8 758.2416,-136.8"></path><text text-anchor="middle" x="731" y="-114.6" font-family="Arial" font-size="14.00" fill="#333333">千葉銀行</text></g><!-- メインバンク:gmoあおぞらネット銀行&#45;&gt;サブバンク:千葉銀行 --><g id="edge14" class="edge"><title>メインバンク:gmoあおぞらネット銀行-&gt;サブバンク:千葉銀行</title><path fill="none" stroke="#333333" stroke-width="2" stroke-opacity="0.600000" d="M635.0107,-177.2099C635.0107,-154.2625 635.0107,-118 635.0107,-118 635.0107,-118 681.6805,-118 681.6805,-118"></path><polygon fill="#333333" fill-opacity="0.600000" stroke="#333333" stroke-width="2" stroke-opacity="0.600000" points="681.6805,-121.5001 691.6805,-118 681.6805,-114.5001 681.6805,-121.5001"></polygon></g><!-- クレジットカード:amazon masterカード --><g id="node3" class="node"><title>クレジットカード:amazon masterカード</title><path fill="#ffffff" stroke="#4b75b9" stroke-width="3" d="M934.3934,-52C934.3934,-52 791.6066,-52 791.6066,-52 785.6066,-52 779.6066,-46 779.6066,-40 779.6066,-40 779.6066,-28 779.6066,-28 779.6066,-22 785.6066,-16 791.6066,-16 791.6066,-16 934.3934,-16 934.3934,-16 940.3934,-16 946.3934,-22 946.3934,-28 946.3934,-28 946.3934,-40 946.3934,-40 946.3934,-46 940.3934,-52 934.3934,-52"></path><text text-anchor="middle" x="863" y="-29.8" font-family="Arial" font-size="14.00" fill="#333333">Amazon Masterカード</text></g><!-- メインバンク:三菱ufj銀行&#45;&gt;クレジットカード:amazon masterカード --><g id="edge7" class="edge"><title>メインバンク:三菱ufj銀行-&gt;クレジットカード:amazon masterカード</title><path fill="none" stroke="#333333" stroke-width="2" stroke-opacity="0.600000" d="M589.4829,-100.4006C589.4829,-88.8003 589.4829,-76 589.4829,-76 589.4829,-76 784.0284,-76 784.0284,-76 784.0284,-76 784.0284,-62.0555 784.0284,-62.0555"></path><polygon fill="#333333" fill-opacity="0.600000" stroke="#333333" stroke-width="2" stroke-opacity="0.600000" points="787.5285,-62.0555 784.0284,-52.0555 780.5285,-62.0556 787.5285,-62.0555"></polygon></g><!-- クレジットカード:visa line payカード --><g id="node4" class="node"><title>クレジットカード:visa line payカード</title><path fill="#ffffff" stroke="#4b75b9" stroke-width="3" d="M749.6234,-52C749.6234,-52 614.3766,-52 614.3766,-52 608.3766,-52 602.3766,-46 602.3766,-40 602.3766,-40 602.3766,-28 602.3766,-28 602.3766,-22 608.3766,-16 614.3766,-16 614.3766,-16 749.6234,-16 749.6234,-16 755.6234,-16 761.6234,-22 761.6234,-28 761.6234,-28 761.6234,-40 761.6234,-40 761.6234,-46 755.6234,-52 749.6234,-52"></path><text text-anchor="middle" x="682" y="-29.8" font-family="Arial" font-size="14.00" fill="#333333">Visa LINE Payカード</text></g><!-- メインバンク:三菱ufj銀行&#45;&gt;クレジットカード:visa line payカード --><g id="edge3" class="edge"><title>メインバンク:三菱ufj銀行-&gt;クレジットカード:visa line payカード</title><path fill="none" stroke="#333333" stroke-width="2" stroke-opacity="0.600000" d="M594.4935,-100.3997C594.4935,-75.4593 594.4935,-34 594.4935,-34 594.4935,-34 595.2701,-34 595.2701,-34"></path><polygon fill="#333333" fill-opacity="0.600000" stroke="#333333" stroke-width="2" stroke-opacity="0.600000" points="592.2592,-37.5001 602.2591,-34 592.2591,-30.5001 592.2592,-37.5001"></polygon></g><!-- クレジットカード:セブンカード(家族) --><g id="node7" class="node"><title>クレジットカード:セブンカード(家族)</title><path fill="#ffffff" stroke="#4b75b9" stroke-width="3" d="M572.4444,-52C572.4444,-52 441.5556,-52 441.5556,-52 435.5556,-52 429.5556,-46 429.5556,-40 429.5556,-40 429.5556,-28 429.5556,-28 429.5556,-22 435.5556,-16 441.5556,-16 441.5556,-16 572.4444,-16 572.4444,-16 578.4444,-16 584.4444,-22 584.4444,-28 584.4444,-28 584.4444,-40 584.4444,-40 584.4444,-46 578.4444,-52 572.4444,-52"></path><text text-anchor="middle" x="507" y="-29.8" font-family="Arial" font-size="14.00" fill="#333333">セブンカード(家族)</text></g><!-- メインバンク:三菱ufj銀行&#45;&gt;クレジットカード:セブンカード(家族) --><g id="edge10" class="edge"><title>メインバンク:三菱ufj銀行-&gt;クレジットカード:セブンカード(家族)</title><path fill="none" stroke="#333333" stroke-width="2" stroke-opacity="0.600000" d="M538.484,-100.3997C538.484,-100.3997 538.484,-62.0731 538.484,-62.0731"></path><polygon fill="#333333" fill-opacity="0.600000" stroke="#333333" stroke-width="2" stroke-opacity="0.600000" points="541.9841,-62.0731 538.484,-52.0731 534.9841,-62.0731 541.9841,-62.0731"></polygon></g><!-- プルデンシャル生命:生命保険 --><g id="node12" class="node"><title>プルデンシャル生命:生命保険</title><path fill="#ffffff" stroke="#4b75b9" stroke-width="3" d="M143.7289,-52C143.7289,-52 82.2711,-52 82.2711,-52 76.2711,-52 70.2711,-46 70.2711,-40 70.2711,-40 70.2711,-28 70.2711,-28 70.2711,-22 76.2711,-16 82.2711,-16 82.2711,-16 143.7289,-16 143.7289,-16 149.7289,-16 155.7289,-22 155.7289,-28 155.7289,-28 155.7289,-40 155.7289,-40 155.7289,-46 149.7289,-52 143.7289,-52"></path><text text-anchor="middle" x="113" y="-29.8" font-family="Arial" font-size="14.00" fill="#333333">生命保険</text></g><!-- メインバンク:三菱ufj銀行&#45;&gt;プルデンシャル生命:生命保険 --><g id="edge11" class="edge"><title>メインバンク:三菱ufj銀行-&gt;プルデンシャル生命:生命保険</title><path fill="none" stroke="#333333" stroke-width="2" stroke-opacity="0.600000" d="M492.4714,-122C376.6219,-122 113,-122 113,-122 113,-122 113,-62.2337 113,-62.2337"></path><polygon fill="#333333" fill-opacity="0.600000" stroke="#333333" stroke-width="2" stroke-opacity="0.600000" points="116.5001,-62.2336 113,-52.2337 109.5001,-62.2337 116.5001,-62.2336"></polygon></g><!-- 県民共済:保険 --><g id="node13" class="node"><title>県民共済:保険</title><path fill="#ffffff" stroke="#4b75b9" stroke-width="3" d="M222,-52C222,-52 192,-52 192,-52 186,-52 180,-46 180,-40 180,-40 180,-28 180,-28 180,-22 186,-16 192,-16 192,-16 222,-16 222,-16 228,-16 234,-22 234,-28 234,-28 234,-40 234,-40 234,-46 228,-52 222,-52"></path><text text-anchor="middle" x="207" y="-29.8" font-family="Arial" font-size="14.00" fill="#333333">保険</text></g><!-- メインバンク:三菱ufj銀行&#45;&gt;県民共済:保険 --><g id="edge12" class="edge"><title>メインバンク:三菱ufj銀行-&gt;県民共済:保険</title><path fill="none" stroke="#333333" stroke-width="2" stroke-opacity="0.600000" d="M492.2844,-115C396.6956,-115 207,-115 207,-115 207,-115 207,-62.3802 207,-62.3802"></path><polygon fill="#333333" fill-opacity="0.600000" stroke="#333333" stroke-width="2" stroke-opacity="0.600000" points="210.5001,-62.3801 207,-52.3802 203.5001,-62.3802 210.5001,-62.3801"></polygon></g><!-- 管理費・修繕積立金 --><g id="node15" class="node"><title>管理費・修繕積立金</title><path fill="none" stroke="#000000" stroke-width="2" d="M399.997,-52C399.997,-52 264.003,-52 264.003,-52 258.003,-52 252.003,-46 252.003,-40 252.003,-40 252.003,-28 252.003,-28 252.003,-22 258.003,-16 264.003,-16 264.003,-16 399.997,-16 399.997,-16 405.997,-16 411.997,-22 411.997,-28 411.997,-28 411.997,-40 411.997,-40 411.997,-46 405.997,-52 399.997,-52"></path><text text-anchor="middle" x="332" y="-29.8" font-family="Arial" font-size="14.00" fill="#000000">管理費・修繕積立金</text></g><!-- メインバンク:三菱ufj銀行&#45;&gt;管理費・修繕積立金 --><g id="edge6" class="edge"><title>メインバンク:三菱ufj銀行-&gt;管理費・修繕積立金</title><path fill="none" stroke="#333333" stroke-width="2" stroke-opacity="0.600000" d="M492.2941,-108C452.0659,-108 403.9425,-108 403.9425,-108 403.9425,-108 403.9425,-62.2921 403.9425,-62.2921"></path><polygon fill="#333333" fill-opacity="0.600000" stroke="#333333" stroke-width="2" stroke-opacity="0.600000" points="407.4425,-62.2921 403.9425,-52.2921 400.4425,-62.2922 407.4425,-62.2921"></polygon></g><!-- 会社 --><g id="node14" class="node"><title>会社</title><path fill="none" stroke="#000000" stroke-width="2" d="M595,-290.4C595,-290.4 565,-290.4 565,-290.4 559,-290.4 553,-284.4 553,-278.4 553,-278.4 553,-266.4 553,-266.4 553,-260.4 559,-254.4 565,-254.4 565,-254.4 595,-254.4 595,-254.4 601,-254.4 607,-260.4 607,-266.4 607,-266.4 607,-278.4 607,-278.4 607,-284.4 601,-290.4 595,-290.4"></path><text text-anchor="middle" x="580" y="-268.2" font-family="Arial" font-size="14.00" fill="#000000">会社</text></g><!-- 会社&#45;&gt;メインバンク:gmoあおぞらネット銀行 --><g id="edge1" class="edge"><title>会社-&gt;メインバンク:gmoあおぞらネット銀行</title><path fill="none" stroke="#333333" stroke-width="2" stroke-opacity="0.600000" d="M580,-254.1995C580,-254.1995 580,-223.6699 580,-223.6699"></path><polygon fill="#333333" fill-opacity="0.600000" stroke="#333333" stroke-width="2" stroke-opacity="0.600000" points="583.5001,-223.6698 580,-213.6699 576.5001,-223.6699 583.5001,-223.6698"></polygon></g><!-- 習志野市 --><g id="node16" class="node"><title>習志野市</title><path fill="none" stroke="#000000" stroke-width="2" d="M462.2275,-213.6C462.2275,-213.6 407.7725,-213.6 407.7725,-213.6 401.7725,-213.6 395.7725,-207.6 395.7725,-201.6 395.7725,-201.6 395.7725,-189.6 395.7725,-189.6 395.7725,-183.6 401.7725,-177.6 407.7725,-177.6 407.7725,-177.6 462.2275,-177.6 462.2275,-177.6 468.2275,-177.6 474.2275,-183.6 474.2275,-189.6 474.2275,-189.6 474.2275,-201.6 474.2275,-201.6 474.2275,-207.6 468.2275,-213.6 462.2275,-213.6"></path><text text-anchor="middle" x="435" y="-191.4" font-family="Arial" font-size="14.00" fill="#000000">習志野市</text></g><!-- 習志野市&#45;&gt;メインバンク:三菱ufj銀行 --><g id="edge15" class="edge"><title>習志野市-&gt;メインバンク:三菱ufj銀行</title><path fill="none" stroke="#333333" stroke-width="2" stroke-opacity="0.600000" d="M451.8207,-177.4013C451.8207,-157.6822 451.8207,-129 451.8207,-129 451.8207,-129 482.3078,-129 482.3078,-129"></path><polygon fill="#333333" fill-opacity="0.600000" stroke="#333333" stroke-width="2" stroke-opacity="0.600000" points="482.3078,-132.5001 492.3078,-129 482.3077,-125.5001 482.3078,-132.5001"></polygon></g></g></svg>