<?xml version="1.0" encoding="UTF-8" standalone="no"?><!-- Generated by graphviz version 2.40.1 (20161225.0304)
 --><!-- Title: ndiag Pages: 1 --><svg width="199pt" height="242pt" viewBox="0.00 0.00 199.00 241.60" xmlns="http://www.w3.org/2000/svg" xmlns:xlink="http://www.w3.org/1999/xlink"><g id="graph0" class="graph" transform="scale(1 1) rotate(0) translate(4 237.6)"><title>ndiag</title><polygon fill="#ffffff" stroke="transparent" points="-4,4 -4,-237.6 195,-237.6 195,4 -4,4"></polygon><g id="clust2" class="cluster"><title>cluster_GMOあおぞらネット銀行</title><polygon fill="none" stroke="#999999" stroke-width="2" points="8,-148.8 8,-225.6 183,-225.6 183,-148.8 8,-148.8"></polygon><text text-anchor="middle" x="95.5" y="-209" font-family="Arial" font-size="14.00" fill="#666666">GMOあおぞらネット銀行</text></g><g id="clust1" class="cluster"><title>cluster_千葉銀行</title><polygon fill="none" stroke="#000000" stroke-width="2" points="8,-64 8,-140.8 106,-140.8 106,-64 8,-64"></polygon><text text-anchor="middle" x="57" y="-124.2" font-family="Arial" font-size="14.00" fill="#000000">千葉銀行</text></g><!-- 千葉銀行:普通口座 --><g id="node1" class="node"><title>千葉銀行:普通口座</title><path fill="#ffffff" stroke="#4b75b9" stroke-width="3" d="M85.8514,-108C85.8514,-108 28.1486,-108 28.1486,-108 22.1486,-108 16.1486,-102 16.1486,-96 16.1486,-96 16.1486,-84 16.1486,-84 16.1486,-78 22.1486,-72 28.1486,-72 28.1486,-72 85.8514,-72 85.8514,-72 91.8514,-72 97.8514,-78 97.8514,-84 97.8514,-84 97.8514,-96 97.8514,-96 97.8514,-102 91.8514,-108 85.8514,-108"></path><text text-anchor="middle" x="57" y="-85.8" font-family="Arial" font-size="14.00" fill="#333333">普通口座</text></g><!-- 学費など --><g id="node3" class="node"><title>学費など</title><path fill="none" stroke="#000000" stroke-width="2" d="M85.6533,-36C85.6533,-36 28.3467,-36 28.3467,-36 22.3467,-36 16.3467,-30 16.3467,-24 16.3467,-24 16.3467,-12 16.3467,-12 16.3467,-6 22.3467,0 28.3467,0 28.3467,0 85.6533,0 85.6533,0 91.6533,0 97.6533,-6 97.6533,-12 97.6533,-12 97.6533,-24 97.6533,-24 97.6533,-30 91.6533,-36 85.6533,-36"></path><text text-anchor="middle" x="57" y="-13.8" font-family="Arial" font-size="14.00" fill="#000000">学費など</text></g><!-- 千葉銀行:普通口座&#45;&gt;学費など --><g id="edge2" class="edge"><title>千葉銀行:普通口座-&gt;学費など</title><path fill="none" stroke="#333333" stroke-width="2" stroke-opacity="0.600000" d="M57,-71.8314C57,-71.8314 57,-46.4133 57,-46.4133"></path><polygon fill="#333333" fill-opacity="0.600000" stroke="#333333" stroke-width="2" stroke-opacity="0.600000" points="60.5001,-46.4132 57,-36.4133 53.5001,-46.4133 60.5001,-46.4132"></polygon></g><!-- gmoあおぞらネット銀行:普通口座 --><g id="node2" class="node"><title>gmoあおぞらネット銀行:普通口座</title><path fill="#ffffff" stroke="#4b75b9" stroke-width="3" d="M85.8514,-192.8C85.8514,-192.8 28.1486,-192.8 28.1486,-192.8 22.1486,-192.8 16.1486,-186.8 16.1486,-180.8 16.1486,-180.8 16.1486,-168.8 16.1486,-168.8 16.1486,-162.8 22.1486,-156.8 28.1486,-156.8 28.1486,-156.8 85.8514,-156.8 85.8514,-156.8 91.8514,-156.8 97.8514,-162.8 97.8514,-168.8 97.8514,-168.8 97.8514,-180.8 97.8514,-180.8 97.8514,-186.8 91.8514,-192.8 85.8514,-192.8"></path><text text-anchor="middle" x="57" y="-170.6" font-family="Arial" font-size="14.00" fill="#333333">普通口座</text></g><!-- gmoあおぞらネット銀行:普通口座&#45;&gt;千葉銀行:普通口座 --><g id="edge1" class="edge"><title>gmoあおぞらネット銀行:普通口座-&gt;千葉銀行:普通口座</title><path fill="none" stroke="#333333" stroke-width="2" stroke-opacity="0.600000" d="M57,-156.3997C57,-156.3997 57,-118.0731 57,-118.0731"></path><polygon fill="#333333" fill-opacity="0.600000" stroke="#333333" stroke-width="2" stroke-opacity="0.600000" points="60.5001,-118.0731 57,-108.0731 53.5001,-118.0731 60.5001,-118.0731"></polygon></g></g></svg>