<?xml version="1.0" encoding="UTF-8" standalone="no"?><!-- Generated by graphviz version 2.40.1 (20161225.0304)
 --><!-- Title: ndiag Pages: 1 --><svg width="292pt" height="342pt" viewBox="0.00 0.00 291.57 342.40" xmlns="http://www.w3.org/2000/svg" xmlns:xlink="http://www.w3.org/1999/xlink"><g id="graph0" class="graph" transform="scale(1 1) rotate(0) translate(4 338.4)"><title>ndiag</title><polygon fill="#ffffff" stroke="transparent" points="-4,4 -4,-338.4 287.5663,-338.4 287.5663,4 -4,4"></polygon><g id="clust3" class="cluster"><title>cluster_楽天証券</title><polygon fill="none" stroke="#999999" stroke-width="2" points="8,-8 8,-84.8 200,-84.8 200,-8 8,-8"></polygon><text text-anchor="middle" x="104" y="-68.2" font-family="Arial" font-size="14.00" fill="#666666">楽天証券</text></g><g id="clust2" class="cluster"><title>cluster_GMOあおぞらネット銀行</title><polygon fill="none" stroke="#999999" stroke-width="2" points="73,-249.6 73,-326.4 248,-326.4 248,-249.6 73,-249.6"></polygon><text text-anchor="middle" x="160.5" y="-309.8" font-family="Arial" font-size="14.00" fill="#666666">GMOあおぞらネット銀行</text></g><g id="clust1" class="cluster"><title>cluster_楽天銀行</title><polygon fill="none" stroke="#000000" stroke-width="2" points="95,-92.8 95,-241.6 215,-241.6 215,-92.8 95,-92.8"></polygon><text text-anchor="middle" x="155" y="-225" font-family="Arial" font-size="14.00" fill="#000000">楽天銀行</text></g><!-- 楽天銀行:普通口座 --><g id="node1" class="node"><title>楽天銀行:普通口座</title><path fill="#ffffff" stroke="#4b75b9" stroke-width="3" d="M183.8514,-208.8C183.8514,-208.8 126.1486,-208.8 126.1486,-208.8 120.1486,-208.8 114.1486,-202.8 114.1486,-196.8 114.1486,-196.8 114.1486,-184.8 114.1486,-184.8 114.1486,-178.8 120.1486,-172.8 126.1486,-172.8 126.1486,-172.8 183.8514,-172.8 183.8514,-172.8 189.8514,-172.8 195.8514,-178.8 195.8514,-184.8 195.8514,-184.8 195.8514,-196.8 195.8514,-196.8 195.8514,-202.8 189.8514,-208.8 183.8514,-208.8"></path><text text-anchor="middle" x="155" y="-186.6" font-family="Arial" font-size="14.00" fill="#333333">普通口座</text></g><!-- 楽天銀行:楽天カード --><g id="node2" class="node"><title>楽天銀行:楽天カード</title><path fill="#ffffff" stroke="#4b75b9" stroke-width="3" d="M194.9548,-136.8C194.9548,-136.8 115.0452,-136.8 115.0452,-136.8 109.0452,-136.8 103.0452,-130.8 103.0452,-124.8 103.0452,-124.8 103.0452,-112.8 103.0452,-112.8 103.0452,-106.8 109.0452,-100.8 115.0452,-100.8 115.0452,-100.8 194.9548,-100.8 194.9548,-100.8 200.9548,-100.8 206.9548,-106.8 206.9548,-112.8 206.9548,-112.8 206.9548,-124.8 206.9548,-124.8 206.9548,-130.8 200.9548,-136.8 194.9548,-136.8"></path><text text-anchor="middle" x="155" y="-114.6" font-family="Arial" font-size="14.00" fill="#333333">楽天カード</text></g><!-- 楽天銀行:普通口座&#45;&gt;楽天銀行:楽天カード --><g id="edge2" class="edge"><title>楽天銀行:普通口座-&gt;楽天銀行:楽天カード</title><path fill="none" stroke="#333333" stroke-width="2" stroke-opacity="0.600000" d="M155,-172.6314C155,-172.6314 155,-147.2133 155,-147.2133"></path><polygon fill="#333333" fill-opacity="0.600000" stroke="#333333" stroke-width="2" stroke-opacity="0.600000" points="158.5001,-147.2132 155,-137.2133 151.5001,-147.2133 158.5001,-147.2132"></polygon></g><!-- 楽天証券:積立nisa --><g id="node4" class="node"><title>楽天証券:積立nisa</title><path fill="#ffffff" stroke="#4b75b9" stroke-width="3" d="M180.1886,-52C180.1886,-52 129.8114,-52 129.8114,-52 123.8114,-52 117.8114,-46 117.8114,-40 117.8114,-40 117.8114,-28 117.8114,-28 117.8114,-22 123.8114,-16 129.8114,-16 129.8114,-16 180.1886,-16 180.1886,-16 186.1886,-16 192.1886,-22 192.1886,-28 192.1886,-28 192.1886,-40 192.1886,-40 192.1886,-46 186.1886,-52 180.1886,-52"></path><text text-anchor="middle" x="155" y="-29.8" font-family="Arial" font-size="14.00" fill="#333333">積立NISA</text></g><!-- 楽天銀行:楽天カード&#45;&gt;楽天証券:積立nisa --><g id="edge3" class="edge"><title>楽天銀行:楽天カード-&gt;楽天証券:積立nisa</title><path fill="none" stroke="#333333" stroke-width="2" stroke-opacity="0.600000" d="M155,-100.3997C155,-100.3997 155,-62.0731 155,-62.0731"></path><polygon fill="#333333" fill-opacity="0.600000" stroke="#333333" stroke-width="2" stroke-opacity="0.600000" points="158.5001,-62.0731 155,-52.0731 151.5001,-62.0731 158.5001,-62.0731"></polygon></g><!-- 楽天証券:投資信託 --><g id="node5" class="node"><title>楽天証券:投資信託</title><path fill="#ffffff" stroke="#4b75b9" stroke-width="3" d="M87.6878,-52C87.6878,-52 28.3122,-52 28.3122,-52 22.3122,-52 16.3122,-46 16.3122,-40 16.3122,-40 16.3122,-28 16.3122,-28 16.3122,-22 22.3122,-16 28.3122,-16 28.3122,-16 87.6878,-16 87.6878,-16 93.6878,-16 99.6878,-22 99.6878,-28 99.6878,-28 99.6878,-40 99.6878,-40 99.6878,-46 93.6878,-52 87.6878,-52"></path><text text-anchor="middle" x="58" y="-29.8" font-family="Arial" font-size="14.00" fill="#333333">投資信託</text></g><!-- 楽天銀行:楽天カード&#45;&gt;楽天証券:投資信託 --><g id="edge4" class="edge"><title>楽天銀行:楽天カード-&gt;楽天証券:投資信託</title><path fill="none" stroke="#333333" stroke-width="2" stroke-opacity="0.600000" d="M110.4646,-100.3997C110.4646,-75.4593 110.4646,-34 110.4646,-34 110.4646,-34 109.4029,-34 109.4029,-34"></path><polygon fill="#333333" fill-opacity="0.600000" stroke="#333333" stroke-width="2" stroke-opacity="0.600000" points="109.8476,-30.5001 99.8476,-34 109.8475,-37.5001 109.8476,-30.5001"></polygon></g><!-- 楽天市場 --><g id="node6" class="node"><title>楽天市場</title><path fill="none" stroke="#000000" stroke-width="2" d="M271.6327,-52C271.6327,-52 222.3673,-52 222.3673,-52 216.3673,-52 210.3673,-46 210.3673,-40 210.3673,-40 210.3673,-28 210.3673,-28 210.3673,-22 216.3673,-16 222.3673,-16 222.3673,-16 271.6327,-16 271.6327,-16 277.6327,-16 283.6327,-22 283.6327,-28 283.6327,-28 283.6327,-40 283.6327,-40 283.6327,-46 277.6327,-52 271.6327,-52"></path><text text-anchor="middle" x="247" y="-29.8" font-family="Arial" font-size="14.00" fill="#000000">楽天市場</text></g><!-- 楽天銀行:楽天カード&#45;&gt;楽天市場 --><g id="edge5" class="edge"><title>楽天銀行:楽天カード-&gt;楽天市場</title><path fill="none" stroke="#333333" stroke-width="2" stroke-opacity="0.600000" d="M199.5355,-100.3997C199.5355,-75.4593 199.5355,-34 199.5355,-34 199.5355,-34 200.5888,-34 200.5888,-34"></path><polygon fill="#333333" fill-opacity="0.600000" stroke="#333333" stroke-width="2" stroke-opacity="0.600000" points="200.0694,-37.5001 210.0694,-34 200.0693,-30.5001 200.0694,-37.5001"></polygon></g><!-- gmoあおぞらネット銀行:普通口座 --><g id="node3" class="node"><title>gmoあおぞらネット銀行:普通口座</title><path fill="#ffffff" stroke="#4b75b9" stroke-width="3" d="M183.8514,-293.6C183.8514,-293.6 126.1486,-293.6 126.1486,-293.6 120.1486,-293.6 114.1486,-287.6 114.1486,-281.6 114.1486,-281.6 114.1486,-269.6 114.1486,-269.6 114.1486,-263.6 120.1486,-257.6 126.1486,-257.6 126.1486,-257.6 183.8514,-257.6 183.8514,-257.6 189.8514,-257.6 195.8514,-263.6 195.8514,-269.6 195.8514,-269.6 195.8514,-281.6 195.8514,-281.6 195.8514,-287.6 189.8514,-293.6 183.8514,-293.6"></path><text text-anchor="middle" x="155" y="-271.4" font-family="Arial" font-size="14.00" fill="#333333">普通口座</text></g><!-- gmoあおぞらネット銀行:普通口座&#45;&gt;楽天銀行:普通口座 --><g id="edge1" class="edge"><title>gmoあおぞらネット銀行:普通口座-&gt;楽天銀行:普通口座</title><path fill="none" stroke="#333333" stroke-width="2" stroke-opacity="0.600000" d="M155,-257.1997C155,-257.1997 155,-218.8731 155,-218.8731"></path><polygon fill="#333333" fill-opacity="0.600000" stroke="#333333" stroke-width="2" stroke-opacity="0.600000" points="158.5001,-218.8731 155,-208.8731 151.5001,-218.8731 158.5001,-218.8731"></polygon></g></g></svg>