<?xml version="1.0" encoding="UTF-8" standalone="no"?><!-- Generated by graphviz version 2.40.1 (20161225.0304)
 --><!-- Title: ndiag Pages: 1 --><svg width="194pt" height="242pt" viewBox="0.00 0.00 194.00 241.60" xmlns="http://www.w3.org/2000/svg" xmlns:xlink="http://www.w3.org/1999/xlink"><g id="graph0" class="graph" transform="scale(1 1) rotate(0) translate(4 237.6)"><title>ndiag</title><polygon fill="#ffffff" stroke="transparent" points="-4,4 -4,-237.6 190,-237.6 190,4 -4,4"></polygon><g id="clust2" class="cluster"><title>cluster_三菱UFJ銀行</title><polygon fill="none" stroke="#999999" stroke-width="2" points="40,-148.8 40,-225.6 147,-225.6 147,-148.8 40,-148.8"></polygon><text text-anchor="middle" x="93.5" y="-209" font-family="Arial" font-size="14.00" fill="#666666">三菱UFJ銀行</text></g><g id="clust1" class="cluster"><title>cluster_セブンカード</title><polygon fill="none" stroke="#000000" stroke-width="2" points="8,-64 8,-140.8 178,-140.8 178,-64 8,-64"></polygon><text text-anchor="middle" x="93" y="-124.2" font-family="Arial" font-size="14.00" fill="#000000">セブンカード</text></g><!-- セブンカード:セブンカード(家族) --><g id="node1" class="node"><title>セブンカード:セブンカード(家族)</title><path fill="#ffffff" stroke="#4b75b9" stroke-width="3" d="M158.4444,-108C158.4444,-108 27.5556,-108 27.5556,-108 21.5556,-108 15.5556,-102 15.5556,-96 15.5556,-96 15.5556,-84 15.5556,-84 15.5556,-78 21.5556,-72 27.5556,-72 27.5556,-72 158.4444,-72 158.4444,-72 164.4444,-72 170.4444,-78 170.4444,-84 170.4444,-84 170.4444,-96 170.4444,-96 170.4444,-102 164.4444,-108 158.4444,-108"></path><text text-anchor="middle" x="93" y="-85.8" font-family="Arial" font-size="14.00" fill="#333333">セブンカード(家族)</text></g><!-- イトーヨーカドー --><g id="node3" class="node"><title>イトーヨーカドー</title><path fill="none" stroke="#000000" stroke-width="2" d="M159.2368,-36C159.2368,-36 26.7632,-36 26.7632,-36 20.7632,-36 14.7632,-30 14.7632,-24 14.7632,-24 14.7632,-12 14.7632,-12 14.7632,-6 20.7632,0 26.7632,0 26.7632,0 159.2368,0 159.2368,0 165.2368,0 171.2368,-6 171.2368,-12 171.2368,-12 171.2368,-24 171.2368,-24 171.2368,-30 165.2368,-36 159.2368,-36"></path><text text-anchor="middle" x="93" y="-13.8" font-family="Arial" font-size="14.00" fill="#000000">イトーヨーカドー</text></g><!-- セブンカード:セブンカード(家族)&#45;&gt;イトーヨーカドー --><g id="edge2" class="edge"><title>セブンカード:セブンカード(家族)-&gt;イトーヨーカドー</title><path fill="none" stroke="#333333" stroke-width="2" stroke-opacity="0.600000" d="M93,-71.8314C93,-71.8314 93,-46.4133 93,-46.4133"></path><polygon fill="#333333" fill-opacity="0.600000" stroke="#333333" stroke-width="2" stroke-opacity="0.600000" points="96.5001,-46.4132 93,-36.4133 89.5001,-46.4133 96.5001,-46.4132"></polygon></g><!-- 三菱ufj銀行:普通口座 --><g id="node2" class="node"><title>三菱ufj銀行:普通口座</title><path fill="#ffffff" stroke="#4b75b9" stroke-width="3" d="M121.8514,-192.8C121.8514,-192.8 64.1486,-192.8 64.1486,-192.8 58.1486,-192.8 52.1486,-186.8 52.1486,-180.8 52.1486,-180.8 52.1486,-168.8 52.1486,-168.8 52.1486,-162.8 58.1486,-156.8 64.1486,-156.8 64.1486,-156.8 121.8514,-156.8 121.8514,-156.8 127.8514,-156.8 133.8514,-162.8 133.8514,-168.8 133.8514,-168.8 133.8514,-180.8 133.8514,-180.8 133.8514,-186.8 127.8514,-192.8 121.8514,-192.8"></path><text text-anchor="middle" x="93" y="-170.6" font-family="Arial" font-size="14.00" fill="#333333">普通口座</text></g><!-- 三菱ufj銀行:普通口座&#45;&gt;セブンカード:セブンカード(家族) --><g id="edge1" class="edge"><title>三菱ufj銀行:普通口座-&gt;セブンカード:セブンカード(家族)</title><path fill="none" stroke="#333333" stroke-width="2" stroke-opacity="0.600000" d="M93,-156.3997C93,-156.3997 93,-118.0731 93,-118.0731"></path><polygon fill="#333333" fill-opacity="0.600000" stroke="#333333" stroke-width="2" stroke-opacity="0.600000" points="96.5001,-118.0731 93,-108.0731 89.5001,-118.0731 96.5001,-118.0731"></polygon></g></g></svg>