<?xml version="1.0" encoding="UTF-8" standalone="no"?><!-- Generated by graphviz version 2.40.1 (20161225.0304)
 --><!-- Title: ndiag Pages: 1 --><svg width="201pt" height="222pt" viewBox="0.00 0.00 201.00 221.60" xmlns="http://www.w3.org/2000/svg" xmlns:xlink="http://www.w3.org/1999/xlink"><g id="graph0" class="graph" transform="scale(1 1) rotate(0) translate(4 217.6)"><title>ndiag</title><polygon fill="#ffffff" stroke="transparent" points="-4,4 -4,-217.6 197,-217.6 197,4 -4,4"></polygon><g id="clust2" class="cluster"><title>cluster_三菱UFJ銀行</title><polygon fill="none" stroke="#999999" stroke-width="2" points="8,-8 8,-84.8 115,-84.8 115,-8 8,-8"></polygon><text text-anchor="middle" x="61.5" y="-68.2" font-family="Arial" font-size="14.00" fill="#666666">三菱UFJ銀行</text></g><g id="clust1" class="cluster"><title>cluster_GMOあおぞらネット銀行</title><polygon fill="none" stroke="#000000" stroke-width="2" points="10,-92.8 10,-169.6 185,-169.6 185,-92.8 10,-92.8"></polygon><text text-anchor="middle" x="97.5" y="-153" font-family="Arial" font-size="14.00" fill="#000000">GMOあおぞらネット銀行</text></g><!-- gmoあおぞらネット銀行:普通口座 --><g id="node1" class="node"><title>gmoあおぞらネット銀行:普通口座</title><path fill="#ffffff" stroke="#4b75b9" stroke-width="3" d="M89.8514,-136.8C89.8514,-136.8 32.1486,-136.8 32.1486,-136.8 26.1486,-136.8 20.1486,-130.8 20.1486,-124.8 20.1486,-124.8 20.1486,-112.8 20.1486,-112.8 20.1486,-106.8 26.1486,-100.8 32.1486,-100.8 32.1486,-100.8 89.8514,-100.8 89.8514,-100.8 95.8514,-100.8 101.8514,-106.8 101.8514,-112.8 101.8514,-112.8 101.8514,-124.8 101.8514,-124.8 101.8514,-130.8 95.8514,-136.8 89.8514,-136.8"></path><text text-anchor="middle" x="61" y="-114.6" font-family="Arial" font-size="14.00" fill="#333333">普通口座</text></g><!-- 三菱ufj銀行:普通口座 --><g id="node2" class="node"><title>三菱ufj銀行:普通口座</title><path fill="#ffffff" stroke="#4b75b9" stroke-width="3" d="M89.8514,-52C89.8514,-52 32.1486,-52 32.1486,-52 26.1486,-52 20.1486,-46 20.1486,-40 20.1486,-40 20.1486,-28 20.1486,-28 20.1486,-22 26.1486,-16 32.1486,-16 32.1486,-16 89.8514,-16 89.8514,-16 95.8514,-16 101.8514,-22 101.8514,-28 101.8514,-28 101.8514,-40 101.8514,-40 101.8514,-46 95.8514,-52 89.8514,-52"></path><text text-anchor="middle" x="61" y="-29.8" font-family="Arial" font-size="14.00" fill="#333333">普通口座</text></g><!-- gmoあおぞらネット銀行:普通口座&#45;&gt;三菱ufj銀行:普通口座 --><g id="edge2" class="edge"><title>gmoあおぞらネット銀行:普通口座-&gt;三菱ufj銀行:普通口座</title><path fill="none" stroke="#333333" stroke-width="2" stroke-opacity="0.600000" d="M61,-100.3997C61,-100.3997 61,-62.0731 61,-62.0731"></path><polygon fill="#333333" fill-opacity="0.600000" stroke="#333333" stroke-width="2" stroke-opacity="0.600000" points="64.5001,-62.0731 61,-52.0731 57.5001,-62.0731 64.5001,-62.0731"></polygon></g><!-- 会社 --><g id="node3" class="node"><title>会社</title><path fill="none" stroke="#000000" stroke-width="2" d="M76,-213.6C76,-213.6 46,-213.6 46,-213.6 40,-213.6 34,-207.6 34,-201.6 34,-201.6 34,-189.6 34,-189.6 34,-183.6 40,-177.6 46,-177.6 46,-177.6 76,-177.6 76,-177.6 82,-177.6 88,-183.6 88,-189.6 88,-189.6 88,-201.6 88,-201.6 88,-207.6 82,-213.6 76,-213.6"></path><text text-anchor="middle" x="61" y="-191.4" font-family="Arial" font-size="14.00" fill="#000000">会社</text></g><!-- 会社&#45;&gt;gmoあおぞらネット銀行:普通口座 --><g id="edge1" class="edge"><title>会社-&gt;gmoあおぞらネット銀行:普通口座</title><path fill="none" stroke="#333333" stroke-width="2" stroke-opacity="0.600000" d="M61,-177.3995C61,-177.3995 61,-146.8699 61,-146.8699"></path><polygon fill="#333333" fill-opacity="0.600000" stroke="#333333" stroke-width="2" stroke-opacity="0.600000" points="64.5001,-146.8698 61,-136.8699 57.5001,-146.8699 64.5001,-146.8698"></polygon></g></g></svg>