<?xml version="1.0" encoding="UTF-8" standalone="no"?><!-- Generated by graphviz version 2.40.1 (20161225.0304)
 --><!-- Title: ndiag Pages: 1 --><svg width="180pt" height="186pt" viewBox="0.00 0.00 180.00 185.60" xmlns="http://www.w3.org/2000/svg" xmlns:xlink="http://www.w3.org/1999/xlink"><g id="graph0" class="graph" transform="scale(1 1) rotate(0) translate(4 181.6)"><title>ndiag</title><polygon fill="#ffffff" stroke="transparent" points="-4,4 -4,-181.6 176,-181.6 176,4 -4,4"></polygon><g id="clust2" class="cluster"><title>cluster_三菱UFJ銀行</title><polygon fill="none" stroke="#999999" stroke-width="2" points="33,-92.8 33,-169.6 140,-169.6 140,-92.8 33,-92.8"></polygon><text text-anchor="middle" x="86.5" y="-153" font-family="Arial" font-size="14.00" fill="#666666">三菱UFJ銀行</text></g><g id="clust1" class="cluster"><title>cluster_プルデンシャル生命</title><polygon fill="none" stroke="#000000" stroke-width="2" points="8,-8 8,-84.8 164,-84.8 164,-8 8,-8"></polygon><text text-anchor="middle" x="86" y="-68.2" font-family="Arial" font-size="14.00" fill="#000000">プルデンシャル生命</text></g><!-- プルデンシャル生命:生命保険 --><g id="node1" class="node"><title>プルデンシャル生命:生命保険</title><path fill="#ffffff" stroke="#4b75b9" stroke-width="3" d="M113.7289,-52C113.7289,-52 52.2711,-52 52.2711,-52 46.2711,-52 40.2711,-46 40.2711,-40 40.2711,-40 40.2711,-28 40.2711,-28 40.2711,-22 46.2711,-16 52.2711,-16 52.2711,-16 113.7289,-16 113.7289,-16 119.7289,-16 125.7289,-22 125.7289,-28 125.7289,-28 125.7289,-40 125.7289,-40 125.7289,-46 119.7289,-52 113.7289,-52"></path><text text-anchor="middle" x="83" y="-29.8" font-family="Arial" font-size="14.00" fill="#333333">生命保険</text></g><!-- 三菱ufj銀行:普通口座 --><g id="node2" class="node"><title>三菱ufj銀行:普通口座</title><path fill="#ffffff" stroke="#4b75b9" stroke-width="3" d="M111.8514,-136.8C111.8514,-136.8 54.1486,-136.8 54.1486,-136.8 48.1486,-136.8 42.1486,-130.8 42.1486,-124.8 42.1486,-124.8 42.1486,-112.8 42.1486,-112.8 42.1486,-106.8 48.1486,-100.8 54.1486,-100.8 54.1486,-100.8 111.8514,-100.8 111.8514,-100.8 117.8514,-100.8 123.8514,-106.8 123.8514,-112.8 123.8514,-112.8 123.8514,-124.8 123.8514,-124.8 123.8514,-130.8 117.8514,-136.8 111.8514,-136.8"></path><text text-anchor="middle" x="83" y="-114.6" font-family="Arial" font-size="14.00" fill="#333333">普通口座</text></g><!-- 三菱ufj銀行:普通口座&#45;&gt;プルデンシャル生命:生命保険 --><g id="edge1" class="edge"><title>三菱ufj銀行:普通口座-&gt;プルデンシャル生命:生命保険</title><path fill="none" stroke="#333333" stroke-width="2" stroke-opacity="0.600000" d="M83,-100.3997C83,-100.3997 83,-62.0731 83,-62.0731"></path><polygon fill="#333333" fill-opacity="0.600000" stroke="#333333" stroke-width="2" stroke-opacity="0.600000" points="86.5001,-62.0731 83,-52.0731 79.5001,-62.0731 86.5001,-62.0731"></polygon></g></g></svg>