<?xml version="1.0" encoding="UTF-8" standalone="no"?><!-- Generated by graphviz version 2.40.1 (20161225.0304)
 --><!-- Title: ndiag Pages: 1 --><svg width="1642pt" height="270pt" viewBox="0.00 0.00 1641.99 270.40" xmlns="http://www.w3.org/2000/svg" xmlns:xlink="http://www.w3.org/1999/xlink"><g id="graph0" class="graph" transform="scale(1 1) rotate(0) translate(4 266.4)"><title>ndiag</title><polygon fill="#ffffff" stroke="transparent" points="-4,4 -4,-266.4 1637.9937,-266.4 1637.9937,4 -4,4"></polygon><g id="clust4" class="cluster"><title>cluster_楽天証券</title><polygon fill="none" stroke="#999999" stroke-width="2" points="1025,-8 1025,-84.8 1217,-84.8 1217,-8 1025,-8"></polygon><text text-anchor="middle" x="1121" y="-68.2" font-family="Arial" font-size="14.00" fill="#666666">楽天証券</text></g><g id="clust3" class="cluster"><title>cluster_サブバンク</title><polygon fill="none" stroke="#999999" stroke-width="2" points="1252,-177.6 1252,-254.4 1464,-254.4 1464,-177.6 1252,-177.6"></polygon><text text-anchor="middle" x="1358" y="-237.8" font-family="Arial" font-size="14.00" fill="#666666">サブバンク</text></g><g id="clust2" class="cluster"><title>cluster_メインバンク</title><polygon fill="none" stroke="#999999" stroke-width="2" points="574,-177.6 574,-254.4 891,-254.4 891,-177.6 574,-177.6"></polygon><text text-anchor="middle" x="732.5" y="-237.8" font-family="Arial" font-size="14.00" fill="#666666">メインバンク</text></g><g id="clust1" class="cluster"><title>cluster_クレジットカード</title><polygon fill="none" stroke="#000000" stroke-width="2" points="8,-92.8 8,-169.6 1573,-169.6 1573,-92.8 8,-92.8"></polygon><text text-anchor="middle" x="790.5" y="-153" font-family="Arial" font-size="14.00" fill="#000000">クレジットカード</text></g><!-- クレジットカード:amazon masterカード --><g id="node1" class="node"><title>クレジットカード:amazon masterカード</title><path fill="#ffffff" stroke="#4b75b9" stroke-width="3" d="M170.3934,-136.8C170.3934,-136.8 27.6066,-136.8 27.6066,-136.8 21.6066,-136.8 15.6066,-130.8 15.6066,-124.8 15.6066,-124.8 15.6066,-112.8 15.6066,-112.8 15.6066,-106.8 21.6066,-100.8 27.6066,-100.8 27.6066,-100.8 170.3934,-100.8 170.3934,-100.8 176.3934,-100.8 182.3934,-106.8 182.3934,-112.8 182.3934,-112.8 182.3934,-124.8 182.3934,-124.8 182.3934,-130.8 176.3934,-136.8 170.3934,-136.8"></path><text text-anchor="middle" x="99" y="-114.6" font-family="Arial" font-size="14.00" fill="#333333">Amazon Masterカード</text></g><!-- amazon --><g id="node18" class="node"><title>amazon</title><path fill="none" stroke="#000000" stroke-width="2" d="M120.8459,-52C120.8459,-52 77.1541,-52 77.1541,-52 71.1541,-52 65.1541,-46 65.1541,-40 65.1541,-40 65.1541,-28 65.1541,-28 65.1541,-22 71.1541,-16 77.1541,-16 77.1541,-16 120.8459,-16 120.8459,-16 126.8459,-16 132.8459,-22 132.8459,-28 132.8459,-28 132.8459,-40 132.8459,-40 132.8459,-46 126.8459,-52 120.8459,-52"></path><text text-anchor="middle" x="99" y="-29.8" font-family="Arial" font-size="14.00" fill="#000000">Amazon</text></g><!-- クレジットカード:amazon masterカード&#45;&gt;amazon --><g id="edge8" class="edge"><title>クレジットカード:amazon masterカード-&gt;amazon</title><path fill="none" stroke="#333333" stroke-width="2" stroke-opacity="0.600000" d="M99,-100.3997C99,-100.3997 99,-62.0731 99,-62.0731"></path><polygon fill="#333333" fill-opacity="0.600000" stroke="#333333" stroke-width="2" stroke-opacity="0.600000" points="102.5001,-62.0731 99,-52.0731 95.5001,-62.0731 102.5001,-62.0731"></polygon></g><!-- クレジットカード:visa line payカード --><g id="node2" class="node"><title>クレジットカード:visa line payカード</title><path fill="#ffffff" stroke="#4b75b9" stroke-width="3" d="M347.6234,-136.8C347.6234,-136.8 212.3766,-136.8 212.3766,-136.8 206.3766,-136.8 200.3766,-130.8 200.3766,-124.8 200.3766,-124.8 200.3766,-112.8 200.3766,-112.8 200.3766,-106.8 206.3766,-100.8 212.3766,-100.8 212.3766,-100.8 347.6234,-100.8 347.6234,-100.8 353.6234,-100.8 359.6234,-106.8 359.6234,-112.8 359.6234,-112.8 359.6234,-124.8 359.6234,-124.8 359.6234,-130.8 353.6234,-136.8 347.6234,-136.8"></path><text text-anchor="middle" x="280" y="-114.6" font-family="Arial" font-size="14.00" fill="#333333">Visa LINE Payカード</text></g><!-- 世界 --><g id="node16" class="node"><title>世界</title><path fill="none" stroke="#000000" stroke-width="2" d="M467,-52C467,-52 437,-52 437,-52 431,-52 425,-46 425,-40 425,-40 425,-28 425,-28 425,-22 431,-16 437,-16 437,-16 467,-16 467,-16 473,-16 479,-22 479,-28 479,-28 479,-40 479,-40 479,-46 473,-52 467,-52"></path><text text-anchor="middle" x="452" y="-29.8" font-family="Arial" font-size="14.00" fill="#000000">世界</text></g><!-- クレジットカード:visa line payカード&#45;&gt;世界 --><g id="edge2" class="edge"><title>クレジットカード:visa line payカード-&gt;世界</title><path fill="none" stroke="#333333" stroke-width="2" stroke-opacity="0.600000" d="M280,-100.3997C280,-75.4593 280,-34 280,-34 280,-34 414.7461,-34 414.7461,-34"></path><polygon fill="#333333" fill-opacity="0.600000" stroke="#333333" stroke-width="2" stroke-opacity="0.600000" points="414.7461,-37.5001 424.7461,-34 414.7461,-30.5001 414.7461,-37.5001"></polygon></g><!-- クレジットカード:セゾンアメックス(家族) --><g id="node3" class="node"><title>クレジットカード:セゾンアメックス(家族)</title><path fill="#ffffff" stroke="#4b75b9" stroke-width="3" d="M699.9045,-136.8C699.9045,-136.8 548.0955,-136.8 548.0955,-136.8 542.0955,-136.8 536.0955,-130.8 536.0955,-124.8 536.0955,-124.8 536.0955,-112.8 536.0955,-112.8 536.0955,-106.8 542.0955,-100.8 548.0955,-100.8 548.0955,-100.8 699.9045,-100.8 699.9045,-100.8 705.9045,-100.8 711.9045,-106.8 711.9045,-112.8 711.9045,-112.8 711.9045,-124.8 711.9045,-124.8 711.9045,-130.8 705.9045,-136.8 699.9045,-136.8"></path><text text-anchor="middle" x="624" y="-114.6" font-family="Arial" font-size="14.00" fill="#333333">セゾンアメックス(家族)</text></g><!-- クレジットカード:セゾンアメックス(家族)&#45;&gt;世界 --><g id="edge10" class="edge"><title>クレジットカード:セゾンアメックス(家族)-&gt;世界</title><path fill="none" stroke="#333333" stroke-width="2" stroke-opacity="0.600000" d="M623.5899,-100.3997C623.5899,-75.4593 623.5899,-34 623.5899,-34 623.5899,-34 489.1889,-34 489.1889,-34"></path><polygon fill="#333333" fill-opacity="0.600000" stroke="#333333" stroke-width="2" stroke-opacity="0.600000" points="489.189,-30.5001 479.1889,-34 489.1889,-37.5001 489.189,-30.5001"></polygon></g><!-- クレジットカード:三井ショッピングパークカード --><g id="node4" class="node"><title>クレジットカード:三井ショッピングパークカード</title><path fill="#ffffff" stroke="#4b75b9" stroke-width="3" d="M1121.3594,-136.8C1121.3594,-136.8 914.6406,-136.8 914.6406,-136.8 908.6406,-136.8 902.6406,-130.8 902.6406,-124.8 902.6406,-124.8 902.6406,-112.8 902.6406,-112.8 902.6406,-106.8 908.6406,-100.8 914.6406,-100.8 914.6406,-100.8 1121.3594,-100.8 1121.3594,-100.8 1127.3594,-100.8 1133.3594,-106.8 1133.3594,-112.8 1133.3594,-112.8 1133.3594,-124.8 1133.3594,-124.8 1133.3594,-130.8 1127.3594,-136.8 1121.3594,-136.8"></path><text text-anchor="middle" x="1018" y="-114.6" font-family="Arial" font-size="14.00" fill="#333333">三井ショッピングパークカード</text></g><!-- ららぽーとなど --><g id="node19" class="node"><title>ららぽーとなど</title><path fill="none" stroke="#000000" stroke-width="2" d="M1003.382,-52C1003.382,-52 896.618,-52 896.618,-52 890.618,-52 884.618,-46 884.618,-40 884.618,-40 884.618,-28 884.618,-28 884.618,-22 890.618,-16 896.618,-16 896.618,-16 1003.382,-16 1003.382,-16 1009.382,-16 1015.382,-22 1015.382,-28 1015.382,-28 1015.382,-40 1015.382,-40 1015.382,-46 1009.382,-52 1003.382,-52"></path><text text-anchor="middle" x="950" y="-29.8" font-family="Arial" font-size="14.00" fill="#000000">ららぽーとなど</text></g><!-- クレジットカード:三井ショッピングパークカード&#45;&gt;ららぽーとなど --><g id="edge12" class="edge"><title>クレジットカード:三井ショッピングパークカード-&gt;ららぽーとなど</title><path fill="none" stroke="#333333" stroke-width="2" stroke-opacity="0.600000" d="M958.8805,-100.3997C958.8805,-100.3997 958.8805,-62.0731 958.8805,-62.0731"></path><polygon fill="#333333" fill-opacity="0.600000" stroke="#333333" stroke-width="2" stroke-opacity="0.600000" points="962.3806,-62.0731 958.8805,-52.0731 955.3806,-62.0731 962.3806,-62.0731"></polygon></g><!-- クレジットカード:セブンカード(家族) --><g id="node5" class="node"><title>クレジットカード:セブンカード(家族)</title><path fill="#ffffff" stroke="#4b75b9" stroke-width="3" d="M872.4444,-136.8C872.4444,-136.8 741.5556,-136.8 741.5556,-136.8 735.5556,-136.8 729.5556,-130.8 729.5556,-124.8 729.5556,-124.8 729.5556,-112.8 729.5556,-112.8 729.5556,-106.8 735.5556,-100.8 741.5556,-100.8 741.5556,-100.8 872.4444,-100.8 872.4444,-100.8 878.4444,-100.8 884.4444,-106.8 884.4444,-112.8 884.4444,-112.8 884.4444,-124.8 884.4444,-124.8 884.4444,-130.8 878.4444,-136.8 872.4444,-136.8"></path><text text-anchor="middle" x="807" y="-114.6" font-family="Arial" font-size="14.00" fill="#333333">セブンカード(家族)</text></g><!-- イトーヨーカドー --><g id="node20" class="node"><title>イトーヨーカドー</title><path fill="none" stroke="#000000" stroke-width="2" d="M855.2368,-52C855.2368,-52 722.7632,-52 722.7632,-52 716.7632,-52 710.7632,-46 710.7632,-40 710.7632,-40 710.7632,-28 710.7632,-28 710.7632,-22 716.7632,-16 722.7632,-16 722.7632,-16 855.2368,-16 855.2368,-16 861.2368,-16 867.2368,-22 867.2368,-28 867.2368,-28 867.2368,-40 867.2368,-40 867.2368,-46 861.2368,-52 855.2368,-52"></path><text text-anchor="middle" x="789" y="-29.8" font-family="Arial" font-size="14.00" fill="#000000">イトーヨーカドー</text></g><!-- クレジットカード:セブンカード(家族)&#45;&gt;イトーヨーカドー --><g id="edge14" class="edge"><title>クレジットカード:セブンカード(家族)-&gt;イトーヨーカドー</title><path fill="none" stroke="#333333" stroke-width="2" stroke-opacity="0.600000" d="M798.3231,-100.3997C798.3231,-100.3997 798.3231,-62.0731 798.3231,-62.0731"></path><polygon fill="#333333" fill-opacity="0.600000" stroke="#333333" stroke-width="2" stroke-opacity="0.600000" points="801.8231,-62.0731 798.3231,-52.0731 794.8231,-62.0731 801.8231,-62.0731"></polygon></g><!-- クレジットカード:楽天カード --><g id="node6" class="node"><title>クレジットカード:楽天カード</title><path fill="#ffffff" stroke="#4b75b9" stroke-width="3" d="M1242.9548,-136.8C1242.9548,-136.8 1163.0452,-136.8 1163.0452,-136.8 1157.0452,-136.8 1151.0452,-130.8 1151.0452,-124.8 1151.0452,-124.8 1151.0452,-112.8 1151.0452,-112.8 1151.0452,-106.8 1157.0452,-100.8 1163.0452,-100.8 1163.0452,-100.8 1242.9548,-100.8 1242.9548,-100.8 1248.9548,-100.8 1254.9548,-106.8 1254.9548,-112.8 1254.9548,-112.8 1254.9548,-124.8 1254.9548,-124.8 1254.9548,-130.8 1248.9548,-136.8 1242.9548,-136.8"></path><text text-anchor="middle" x="1203" y="-114.6" font-family="Arial" font-size="14.00" fill="#333333">楽天カード</text></g><!-- 楽天証券:積立nisa --><g id="node14" class="node"><title>楽天証券:積立nisa</title><path fill="#ffffff" stroke="#4b75b9" stroke-width="3" d="M1197.1886,-52C1197.1886,-52 1146.8114,-52 1146.8114,-52 1140.8114,-52 1134.8114,-46 1134.8114,-40 1134.8114,-40 1134.8114,-28 1134.8114,-28 1134.8114,-22 1140.8114,-16 1146.8114,-16 1146.8114,-16 1197.1886,-16 1197.1886,-16 1203.1886,-16 1209.1886,-22 1209.1886,-28 1209.1886,-28 1209.1886,-40 1209.1886,-40 1209.1886,-46 1203.1886,-52 1197.1886,-52"></path><text text-anchor="middle" x="1172" y="-29.8" font-family="Arial" font-size="14.00" fill="#333333">積立NISA</text></g><!-- クレジットカード:楽天カード&#45;&gt;楽天証券:積立nisa --><g id="edge4" class="edge"><title>クレジットカード:楽天カード-&gt;楽天証券:積立nisa</title><path fill="none" stroke="#333333" stroke-width="2" stroke-opacity="0.600000" d="M1189.987,-100.3997C1189.987,-100.3997 1189.987,-62.0731 1189.987,-62.0731"></path><polygon fill="#333333" fill-opacity="0.600000" stroke="#333333" stroke-width="2" stroke-opacity="0.600000" points="1193.4871,-62.0731 1189.987,-52.0731 1186.4871,-62.0731 1193.4871,-62.0731"></polygon></g><!-- 楽天証券:投資信託 --><g id="node15" class="node"><title>楽天証券:投資信託</title><path fill="#ffffff" stroke="#4b75b9" stroke-width="3" d="M1104.6878,-52C1104.6878,-52 1045.3122,-52 1045.3122,-52 1039.3122,-52 1033.3122,-46 1033.3122,-40 1033.3122,-40 1033.3122,-28 1033.3122,-28 1033.3122,-22 1039.3122,-16 1045.3122,-16 1045.3122,-16 1104.6878,-16 1104.6878,-16 1110.6878,-16 1116.6878,-22 1116.6878,-28 1116.6878,-28 1116.6878,-40 1116.6878,-40 1116.6878,-46 1110.6878,-52 1104.6878,-52"></path><text text-anchor="middle" x="1075" y="-29.8" font-family="Arial" font-size="14.00" fill="#333333">投資信託</text></g><!-- クレジットカード:楽天カード&#45;&gt;楽天証券:投資信託 --><g id="edge5" class="edge"><title>クレジットカード:楽天カード-&gt;楽天証券:投資信託</title><path fill="none" stroke="#333333" stroke-width="2" stroke-opacity="0.600000" d="M1170.6301,-100.4006C1170.6301,-88.8003 1170.6301,-76 1170.6301,-76 1170.6301,-76 1075,-76 1075,-76 1075,-76 1075,-62.0555 1075,-62.0555"></path><polygon fill="#333333" fill-opacity="0.600000" stroke="#333333" stroke-width="2" stroke-opacity="0.600000" points="1078.5001,-62.0555 1075,-52.0555 1071.5001,-62.0556 1078.5001,-62.0555"></polygon></g><!-- 楽天市場 --><g id="node17" class="node"><title>楽天市場</title><path fill="none" stroke="#000000" stroke-width="2" d="M1288.6327,-52C1288.6327,-52 1239.3673,-52 1239.3673,-52 1233.3673,-52 1227.3673,-46 1227.3673,-40 1227.3673,-40 1227.3673,-28 1227.3673,-28 1227.3673,-22 1233.3673,-16 1239.3673,-16 1239.3673,-16 1288.6327,-16 1288.6327,-16 1294.6327,-16 1300.6327,-22 1300.6327,-28 1300.6327,-28 1300.6327,-40 1300.6327,-40 1300.6327,-46 1294.6327,-52 1288.6327,-52"></path><text text-anchor="middle" x="1264" y="-29.8" font-family="Arial" font-size="14.00" fill="#000000">楽天市場</text></g><!-- クレジットカード:楽天カード&#45;&gt;楽天市場 --><g id="edge6" class="edge"><title>クレジットカード:楽天カード-&gt;楽天市場</title><path fill="none" stroke="#333333" stroke-width="2" stroke-opacity="0.600000" d="M1241.0803,-100.3997C1241.0803,-100.3997 1241.0803,-62.0731 1241.0803,-62.0731"></path><polygon fill="#333333" fill-opacity="0.600000" stroke="#333333" stroke-width="2" stroke-opacity="0.600000" points="1244.5804,-62.0731 1241.0803,-52.0731 1237.5804,-62.0731 1244.5804,-62.0731"></polygon></g><!-- クレジットカード:ビュスイカカード --><g id="node7" class="node"><title>クレジットカード:ビュスイカカード</title><path fill="#ffffff" stroke="#4b75b9" stroke-width="3" d="M506.1802,-136.8C506.1802,-136.8 389.8198,-136.8 389.8198,-136.8 383.8198,-136.8 377.8198,-130.8 377.8198,-124.8 377.8198,-124.8 377.8198,-112.8 377.8198,-112.8 377.8198,-106.8 383.8198,-100.8 389.8198,-100.8 389.8198,-100.8 506.1802,-100.8 506.1802,-100.8 512.1802,-100.8 518.1802,-106.8 518.1802,-112.8 518.1802,-112.8 518.1802,-124.8 518.1802,-124.8 518.1802,-130.8 512.1802,-136.8 506.1802,-136.8"></path><text text-anchor="middle" x="448" y="-114.6" font-family="Arial" font-size="14.00" fill="#333333">ビュスイカカード</text></g><!-- クレジットカード:イオンカード --><g id="node8" class="node"><title>クレジットカード:イオンカード</title><path fill="#ffffff" stroke="#4b75b9" stroke-width="3" d="M1553.3683,-136.8C1553.3683,-136.8 1466.6317,-136.8 1466.6317,-136.8 1460.6317,-136.8 1454.6317,-130.8 1454.6317,-124.8 1454.6317,-124.8 1454.6317,-112.8 1454.6317,-112.8 1454.6317,-106.8 1460.6317,-100.8 1466.6317,-100.8 1466.6317,-100.8 1553.3683,-100.8 1553.3683,-100.8 1559.3683,-100.8 1565.3683,-106.8 1565.3683,-112.8 1565.3683,-112.8 1565.3683,-124.8 1565.3683,-124.8 1565.3683,-130.8 1559.3683,-136.8 1553.3683,-136.8"></path><text text-anchor="middle" x="1510" y="-114.6" font-family="Arial" font-size="14.00" fill="#333333">イオンカード</text></g><!-- イオン --><g id="node21" class="node"><title>イオン</title><path fill="none" stroke="#000000" stroke-width="2" d="M1621.9874,-52C1621.9874,-52 1588.0126,-52 1588.0126,-52 1582.0126,-52 1576.0126,-46 1576.0126,-40 1576.0126,-40 1576.0126,-28 1576.0126,-28 1576.0126,-22 1582.0126,-16 1588.0126,-16 1588.0126,-16 1621.9874,-16 1621.9874,-16 1627.9874,-16 1633.9874,-22 1633.9874,-28 1633.9874,-28 1633.9874,-40 1633.9874,-40 1633.9874,-46 1627.9874,-52 1621.9874,-52"></path><text text-anchor="middle" x="1605" y="-29.8" font-family="Arial" font-size="14.00" fill="#000000">イオン</text></g><!-- クレジットカード:イオンカード&#45;&gt;イオン --><g id="edge16" class="edge"><title>クレジットカード:イオンカード-&gt;イオン</title><path fill="none" stroke="#333333" stroke-width="2" stroke-opacity="0.600000" d="M1561.8506,-100.3997C1561.8506,-75.4593 1561.8506,-34 1561.8506,-34 1561.8506,-34 1565.9793,-34 1565.9793,-34"></path><polygon fill="#333333" fill-opacity="0.600000" stroke="#333333" stroke-width="2" stroke-opacity="0.600000" points="1565.9794,-37.5001 1575.9793,-34 1565.9793,-30.5001 1565.9794,-37.5001"></polygon></g><!-- クレジットカード:ビュースイカカード --><g id="node9" class="node"><title>クレジットカード:ビュースイカカード</title><path fill="#ffffff" stroke="#4b75b9" stroke-width="3" d="M1424.7492,-136.8C1424.7492,-136.8 1285.2508,-136.8 1285.2508,-136.8 1279.2508,-136.8 1273.2508,-130.8 1273.2508,-124.8 1273.2508,-124.8 1273.2508,-112.8 1273.2508,-112.8 1273.2508,-106.8 1279.2508,-100.8 1285.2508,-100.8 1285.2508,-100.8 1424.7492,-100.8 1424.7492,-100.8 1430.7492,-100.8 1436.7492,-106.8 1436.7492,-112.8 1436.7492,-112.8 1436.7492,-124.8 1436.7492,-124.8 1436.7492,-130.8 1430.7492,-136.8 1424.7492,-136.8"></path><text text-anchor="middle" x="1355" y="-114.6" font-family="Arial" font-size="14.00" fill="#333333">ビュースイカカード</text></g><!-- モバイルsuica --><g id="node22" class="node"><title>モバイルsuica</title><path fill="none" stroke="#000000" stroke-width="2" d="M1415.5776,-52C1415.5776,-52 1330.4224,-52 1330.4224,-52 1324.4224,-52 1318.4224,-46 1318.4224,-40 1318.4224,-40 1318.4224,-28 1318.4224,-28 1318.4224,-22 1324.4224,-16 1330.4224,-16 1330.4224,-16 1415.5776,-16 1415.5776,-16 1421.5776,-16 1427.5776,-22 1427.5776,-28 1427.5776,-28 1427.5776,-40 1427.5776,-40 1427.5776,-46 1421.5776,-52 1415.5776,-52"></path><text text-anchor="middle" x="1373" y="-29.8" font-family="Arial" font-size="14.00" fill="#000000">モバイルSuica</text></g><!-- クレジットカード:ビュースイカカード&#45;&gt;モバイルsuica --><g id="edge18" class="edge"><title>クレジットカード:ビュースイカカード-&gt;モバイルsuica</title><path fill="none" stroke="#333333" stroke-width="2" stroke-opacity="0.600000" d="M1373,-100.3997C1373,-100.3997 1373,-62.0731 1373,-62.0731"></path><polygon fill="#333333" fill-opacity="0.600000" stroke="#333333" stroke-width="2" stroke-opacity="0.600000" points="1376.5001,-62.0731 1373,-52.0731 1369.5001,-62.0731 1376.5001,-62.0731"></polygon></g><!-- 物理suica(家族) --><g id="node23" class="node"><title>物理suica(家族)</title><path fill="none" stroke="#000000" stroke-width="2" d="M1546.0352,-52C1546.0352,-52 1457.9648,-52 1457.9648,-52 1451.9648,-52 1445.9648,-46 1445.9648,-40 1445.9648,-40 1445.9648,-28 1445.9648,-28 1445.9648,-22 1451.9648,-16 1457.9648,-16 1457.9648,-16 1546.0352,-16 1546.0352,-16 1552.0352,-16 1558.0352,-22 1558.0352,-28 1558.0352,-28 1558.0352,-40 1558.0352,-40 1558.0352,-46 1552.0352,-52 1546.0352,-52"></path><text text-anchor="middle" x="1502" y="-29.8" font-family="Arial" font-size="14.00" fill="#000000">物理Suica(家族)</text></g><!-- クレジットカード:ビュースイカカード&#45;&gt;物理suica(家族) --><g id="edge19" class="edge"><title>クレジットカード:ビュースイカカード-&gt;物理suica(家族)</title><path fill="none" stroke="#333333" stroke-width="2" stroke-opacity="0.600000" d="M1436.8129,-124C1444.0331,-124 1448.6772,-124 1448.6772,-124 1448.6772,-124 1448.6772,-62.2128 1448.6772,-62.2128"></path><polygon fill="#333333" fill-opacity="0.600000" stroke="#333333" stroke-width="2" stroke-opacity="0.600000" points="1452.1773,-62.2128 1448.6772,-52.2128 1445.1773,-62.2129 1452.1773,-62.2128"></polygon></g><!-- メインバンク:gmoあおぞらネット銀行 --><g id="node10" class="node"><title>メインバンク:gmoあおぞらネット銀行</title><path fill="#ffffff" stroke="#4b75b9" stroke-width="3" d="M870.6661,-221.6C870.6661,-221.6 719.3339,-221.6 719.3339,-221.6 713.3339,-221.6 707.3339,-215.6 707.3339,-209.6 707.3339,-209.6 707.3339,-197.6 707.3339,-197.6 707.3339,-191.6 713.3339,-185.6 719.3339,-185.6 719.3339,-185.6 870.6661,-185.6 870.6661,-185.6 876.6661,-185.6 882.6661,-191.6 882.6661,-197.6 882.6661,-197.6 882.6661,-209.6 882.6661,-209.6 882.6661,-215.6 876.6661,-221.6 870.6661,-221.6"></path><text text-anchor="middle" x="795" y="-199.4" font-family="Arial" font-size="14.00" fill="#333333">GMOあおぞらネット銀行</text></g><!-- メインバンク:gmoあおぞらネット銀行&#45;&gt;クレジットカード:セゾンアメックス(家族) --><g id="edge9" class="edge"><title>メインバンク:gmoあおぞらネット銀行-&gt;クレジットカード:セゾンアメックス(家族)</title><path fill="none" stroke="#333333" stroke-width="2" stroke-opacity="0.600000" d="M720.6149,-185.4464C720.6149,-160.3193 720.6149,-118 720.6149,-118 720.6149,-118 719.7575,-118 719.7575,-118"></path><polygon fill="#333333" fill-opacity="0.600000" stroke="#333333" stroke-width="2" stroke-opacity="0.600000" points="722.041,-114.5001 712.041,-118 722.0409,-121.5001 722.041,-114.5001"></polygon></g><!-- メインバンク:gmoあおぞらネット銀行&#45;&gt;クレジットカード:三井ショッピングパークカード --><g id="edge11" class="edge"><title>メインバンク:gmoあおぞらネット銀行-&gt;クレジットカード:三井ショッピングパークカード</title><path fill="none" stroke="#333333" stroke-width="2" stroke-opacity="0.600000" d="M882.8154,-203C945.2192,-203 1018,-203 1018,-203 1018,-203 1018,-147.0701 1018,-147.0701"></path><polygon fill="#333333" fill-opacity="0.600000" stroke="#333333" stroke-width="2" stroke-opacity="0.600000" points="1021.5001,-147.0701 1018,-137.0701 1014.5001,-147.0702 1021.5001,-147.0701"></polygon></g><!-- メインバンク:三菱ufj銀行 --><g id="node11" class="node"><title>メインバンク:三菱ufj銀行</title><path fill="#ffffff" stroke="#4b75b9" stroke-width="3" d="M677.5084,-221.6C677.5084,-221.6 594.4916,-221.6 594.4916,-221.6 588.4916,-221.6 582.4916,-215.6 582.4916,-209.6 582.4916,-209.6 582.4916,-197.6 582.4916,-197.6 582.4916,-191.6 588.4916,-185.6 594.4916,-185.6 594.4916,-185.6 677.5084,-185.6 677.5084,-185.6 683.5084,-185.6 689.5084,-191.6 689.5084,-197.6 689.5084,-197.6 689.5084,-209.6 689.5084,-209.6 689.5084,-215.6 683.5084,-221.6 677.5084,-221.6"></path><text text-anchor="middle" x="636" y="-199.4" font-family="Arial" font-size="14.00" fill="#333333">三菱UFJ銀行</text></g><!-- メインバンク:三菱ufj銀行&#45;&gt;クレジットカード:amazon masterカード --><g id="edge7" class="edge"><title>メインバンク:三菱ufj銀行-&gt;クレジットカード:amazon masterカード</title><path fill="none" stroke="#333333" stroke-width="2" stroke-opacity="0.600000" d="M582.0517,-209C445.8758,-209 99,-209 99,-209 99,-209 99,-147.0533 99,-147.0533"></path><polygon fill="#333333" fill-opacity="0.600000" stroke="#333333" stroke-width="2" stroke-opacity="0.600000" points="102.5001,-147.0533 99,-137.0533 95.5001,-147.0534 102.5001,-147.0533"></polygon></g><!-- メインバンク:三菱ufj銀行&#45;&gt;クレジットカード:visa line payカード --><g id="edge1" class="edge"><title>メインバンク:三菱ufj銀行-&gt;クレジットカード:visa line payカード</title><path fill="none" stroke="#333333" stroke-width="2" stroke-opacity="0.600000" d="M582.3178,-197C482.8659,-197 280,-197 280,-197 280,-197 280,-146.9372 280,-146.9372"></path><polygon fill="#333333" fill-opacity="0.600000" stroke="#333333" stroke-width="2" stroke-opacity="0.600000" points="283.5001,-146.9372 280,-136.9372 276.5001,-146.9372 283.5001,-146.9372"></polygon></g><!-- メインバンク:三菱ufj銀行&#45;&gt;クレジットカード:セブンカード(家族) --><g id="edge13" class="edge"><title>メインバンク:三菱ufj銀行-&gt;クレジットカード:セブンカード(家族)</title><path fill="none" stroke="#333333" stroke-width="2" stroke-opacity="0.600000" d="M618.1653,-185.3322C618.1653,-170.8385 618.1653,-153 618.1653,-153 618.1653,-153 806.0554,-153 806.0554,-153 806.0554,-153 806.0554,-147.1015 806.0554,-147.1015"></path><polygon fill="#333333" fill-opacity="0.600000" stroke="#333333" stroke-width="2" stroke-opacity="0.600000" points="809.5555,-147.1014 806.0554,-137.1015 802.5555,-147.1015 809.5555,-147.1014"></polygon></g><!-- メインバンク:三菱ufj銀行&#45;&gt;クレジットカード:ビュースイカカード --><g id="edge17" class="edge"><title>メインバンク:三菱ufj銀行-&gt;クレジットカード:ビュースイカカード</title><path fill="none" stroke="#333333" stroke-width="2" stroke-opacity="0.600000" d="M653.8347,-185.4893C653.8347,-177.1178 653.8347,-169 653.8347,-169 653.8347,-169 1309.4574,-169 1309.4574,-169 1309.4574,-169 1309.4574,-146.9234 1309.4574,-146.9234"></path><polygon fill="#333333" fill-opacity="0.600000" stroke="#333333" stroke-width="2" stroke-opacity="0.600000" points="1312.9575,-146.9233 1309.4574,-136.9234 1305.9575,-146.9234 1312.9575,-146.9233"></polygon></g><!-- サブバンク:楽天銀行 --><g id="node12" class="node"><title>サブバンク:楽天銀行</title><path fill="#ffffff" stroke="#4b75b9" stroke-width="3" d="M1333.5796,-221.6C1333.5796,-221.6 1272.4204,-221.6 1272.4204,-221.6 1266.4204,-221.6 1260.4204,-215.6 1260.4204,-209.6 1260.4204,-209.6 1260.4204,-197.6 1260.4204,-197.6 1260.4204,-191.6 1266.4204,-185.6 1272.4204,-185.6 1272.4204,-185.6 1333.5796,-185.6 1333.5796,-185.6 1339.5796,-185.6 1345.5796,-191.6 1345.5796,-197.6 1345.5796,-197.6 1345.5796,-209.6 1345.5796,-209.6 1345.5796,-215.6 1339.5796,-221.6 1333.5796,-221.6"></path><text text-anchor="middle" x="1303" y="-199.4" font-family="Arial" font-size="14.00" fill="#333333">楽天銀行</text></g><!-- サブバンク:楽天銀行&#45;&gt;クレジットカード:楽天カード --><g id="edge3" class="edge"><title>サブバンク:楽天銀行-&gt;クレジットカード:楽天カード</title><path fill="none" stroke="#333333" stroke-width="2" stroke-opacity="0.600000" d="M1266.6681,-185.4464C1266.6681,-160.3193 1266.6681,-118 1266.6681,-118 1266.6681,-118 1264.9904,-118 1264.9904,-118"></path><polygon fill="#333333" fill-opacity="0.600000" stroke="#333333" stroke-width="2" stroke-opacity="0.600000" points="1264.9904,-114.5001 1254.9904,-118 1264.9904,-121.5001 1264.9904,-114.5001"></polygon></g><!-- サブバンク:イオン銀行 --><g id="node13" class="node"><title>サブバンク:イオン銀行</title><path fill="#ffffff" stroke="#4b75b9" stroke-width="3" d="M1444.493,-221.6C1444.493,-221.6 1375.507,-221.6 1375.507,-221.6 1369.507,-221.6 1363.507,-215.6 1363.507,-209.6 1363.507,-209.6 1363.507,-197.6 1363.507,-197.6 1363.507,-191.6 1369.507,-185.6 1375.507,-185.6 1375.507,-185.6 1444.493,-185.6 1444.493,-185.6 1450.493,-185.6 1456.493,-191.6 1456.493,-197.6 1456.493,-197.6 1456.493,-209.6 1456.493,-209.6 1456.493,-215.6 1450.493,-221.6 1444.493,-221.6"></path><text text-anchor="middle" x="1410" y="-199.4" font-family="Arial" font-size="14.00" fill="#333333">イオン銀行</text></g><!-- サブバンク:イオン銀行&#45;&gt;クレジットカード:イオンカード --><g id="edge15" class="edge"><title>サブバンク:イオン銀行-&gt;クレジットカード:イオンカード</title><path fill="none" stroke="#333333" stroke-width="2" stroke-opacity="0.600000" d="M1451.6216,-185.5028C1451.6216,-158.8077 1451.6216,-112 1451.6216,-112 1451.6216,-112 1451.9031,-112 1451.9031,-112"></path><polygon fill="#333333" fill-opacity="0.600000" stroke="#333333" stroke-width="2" stroke-opacity="0.600000" points="1444.4374,-115.5004 1454.4373,-112 1444.4371,-108.5004 1444.4374,-115.5004"></polygon></g></g></svg>