<?xml version="1.0" encoding="UTF-8" standalone="no"?><!-- Generated by graphviz version 2.40.1 (20161225.0304)
 --><!-- Title: ndiag Pages: 1 --><svg width="312pt" height="101pt" viewBox="0.00 0.00 311.70 101.00" xmlns="http://www.w3.org/2000/svg" xmlns:xlink="http://www.w3.org/1999/xlink"><g id="graph0" class="graph" transform="scale(1 1) rotate(0) translate(4 97)"><title>ndiag</title><polygon fill="#ffffff" stroke="transparent" points="-4,4 -4,-97 307.7012,-97 307.7012,4 -4,4"></polygon><g id="clust2" class="cluster"><title>cluster_三菱UFJ銀行</title><polygon fill="none" stroke="#000000" stroke-width="2" points="194.3506,-8 194.3506,-85 300.7012,-85 300.7012,-8 194.3506,-8"></polygon><text text-anchor="middle" x="247.5259" y="-68.4" font-family="Arial" font-size="14.00" fill="#000000">三菱UFJ銀行</text></g><g id="clust1" class="cluster"><title>cluster_GMOあおぞらネット銀行</title><polygon fill="none" stroke="#000000" stroke-width="2" points="0,-8 0,-85 174.3506,-85 174.3506,-8 0,-8"></polygon><text text-anchor="middle" x="87.1753" y="-68.4" font-family="Arial" font-size="14.00" fill="#000000">GMOあおぞらネット銀行</text></g><!-- gmoあおぞらネット銀行:普通口座 --><g id="node1" class="node"><title>gmoあおぞらネット銀行:普通口座</title><path fill="#ffffff" stroke="#4b75b9" stroke-width="3" d="M115.5267,-52C115.5267,-52 57.8239,-52 57.8239,-52 51.8239,-52 45.8239,-46 45.8239,-40 45.8239,-40 45.8239,-28 45.8239,-28 45.8239,-22 51.8239,-16 57.8239,-16 57.8239,-16 115.5267,-16 115.5267,-16 121.5267,-16 127.5267,-22 127.5267,-28 127.5267,-28 127.5267,-40 127.5267,-40 127.5267,-46 121.5267,-52 115.5267,-52"></path><text text-anchor="middle" x="86.6753" y="-29.8" font-family="Arial" font-size="14.00" fill="#333333">普通口座</text></g><!-- 三菱ufj銀行:普通口座 --><g id="node2" class="node"><title>三菱ufj銀行:普通口座</title><path fill="#ffffff" stroke="#4b75b9" stroke-width="3" d="M275.8773,-52C275.8773,-52 218.1745,-52 218.1745,-52 212.1745,-52 206.1745,-46 206.1745,-40 206.1745,-40 206.1745,-28 206.1745,-28 206.1745,-22 212.1745,-16 218.1745,-16 218.1745,-16 275.8773,-16 275.8773,-16 281.8773,-16 287.8773,-22 287.8773,-28 287.8773,-28 287.8773,-40 287.8773,-40 287.8773,-46 281.8773,-52 275.8773,-52"></path><text text-anchor="middle" x="247.0259" y="-29.8" font-family="Arial" font-size="14.00" fill="#333333">普通口座</text></g><!-- gmoあおぞらネット銀行:普通口座&#45;&gt;三菱ufj銀行:普通口座 --><g id="edge-0" class="edge"><title>gmoあおぞらネット銀行:普通口座-&gt;三菱ufj銀行:普通口座</title><path fill="none" stroke="#333333" stroke-width="2" stroke-opacity="0.600000" d="M127.5534,-34C127.5534,-34 196.2224,-34 196.2224,-34"></path><polygon fill="#333333" fill-opacity="0.600000" stroke="#333333" stroke-width="2" stroke-opacity="0.600000" points="196.2225,-37.5001 206.2224,-34 196.2224,-30.5001 196.2225,-37.5001"></polygon></g></g></svg>