<?xml version="1.0" encoding="UTF-8" standalone="no"?><!-- Generated by graphviz version 2.40.1 (20161225.0304)
 --><!-- Title: ndiag Pages: 1 --><svg width="218pt" height="101pt" viewBox="0.00 0.00 217.61 101.00" xmlns="http://www.w3.org/2000/svg" xmlns:xlink="http://www.w3.org/1999/xlink"><g id="graph0" class="graph" transform="scale(1 1) rotate(0) translate(4 97)"><title>ndiag</title><polygon fill="#ffffff" stroke="transparent" points="-4,4 -4,-97 213.6148,-97 213.6148,4 -4,4"></polygon><g id="clust1" class="cluster"><title>cluster_サブバンク</title><polygon fill="none" stroke="#000000" stroke-width="2" points="82,-8 82,-85 201.6148,-85 201.6148,-8 82,-8"></polygon><text text-anchor="middle" x="141.8074" y="-68.4" font-family="Arial" font-size="14.00" fill="#000000">サブバンク</text></g><!-- サブバンク:ゆうちょ銀行 --><g id="node1" class="node"><title>サブバンク:ゆうちょ銀行</title><path fill="#ffffff" stroke="#4b75b9" stroke-width="3" d="M181.4229,-52C181.4229,-52 102.1919,-52 102.1919,-52 96.1919,-52 90.1919,-46 90.1919,-40 90.1919,-40 90.1919,-28 90.1919,-28 90.1919,-22 96.1919,-16 102.1919,-16 102.1919,-16 181.4229,-16 181.4229,-16 187.4229,-16 193.4229,-22 193.4229,-28 193.4229,-28 193.4229,-40 193.4229,-40 193.4229,-46 187.4229,-52 181.4229,-52"></path><text text-anchor="middle" x="141.8074" y="-29.8" font-family="Arial" font-size="14.00" fill="#333333">ゆうちょ銀行</text></g><!-- 日本 --><g id="node2" class="node"><title>日本</title><path fill="none" stroke="#000000" stroke-width="2" d="M42,-52C42,-52 12,-52 12,-52 6,-52 0,-46 0,-40 0,-40 0,-28 0,-28 0,-22 6,-16 12,-16 12,-16 42,-16 42,-16 48,-16 54,-22 54,-28 54,-28 54,-40 54,-40 54,-46 48,-52 42,-52"></path><text text-anchor="middle" x="27" y="-29.8" font-family="Arial" font-size="14.00" fill="#000000">日本</text></g><!-- 日本&#45;&gt;サブバンク:ゆうちょ銀行 --><g id="edge-0" class="edge"><title>日本-&gt;サブバンク:ゆうちょ銀行</title><path fill="none" stroke="#333333" stroke-width="2" stroke-opacity="0.600000" d="M54.2078,-34C54.2078,-34 80.0269,-34 80.0269,-34"></path><polygon fill="#333333" fill-opacity="0.600000" stroke="#333333" stroke-width="2" stroke-opacity="0.600000" points="80.0269,-37.5001 90.0269,-34 80.0269,-30.5001 80.0269,-37.5001"></polygon></g></g></svg>