<?xml version="1.0" encoding="UTF-8" standalone="no"?><!-- Generated by graphviz version 2.40.1 (20161225.0304)
 --><!-- Title: ndiag Pages: 1 --><svg width="289pt" height="101pt" viewBox="0.00 0.00 289.17 101.00" xmlns="http://www.w3.org/2000/svg" xmlns:xlink="http://www.w3.org/1999/xlink"><g id="graph0" class="graph" transform="scale(1 1) rotate(0) translate(4 97)"><title>ndiag</title><polygon fill="#ffffff" stroke="transparent" points="-4,4 -4,-97 285.166,-97 285.166,4 -4,4"></polygon><g id="clust1" class="cluster"><title>cluster_メインバンク</title><polygon fill="none" stroke="#000000" stroke-width="2" points="82,-8 82,-85 273.166,-85 273.166,-8 82,-8"></polygon><text text-anchor="middle" x="177.583" y="-68.4" font-family="Arial" font-size="14.00" fill="#000000">メインバンク</text></g><!-- メインバンク:gmoあおぞらネット銀行 --><g id="node1" class="node"><title>メインバンク:gmoあおぞらネット銀行</title><path fill="#ffffff" stroke="#4b75b9" stroke-width="3" d="M253.2491,-52C253.2491,-52 101.9169,-52 101.9169,-52 95.9169,-52 89.9169,-46 89.9169,-40 89.9169,-40 89.9169,-28 89.9169,-28 89.9169,-22 95.9169,-16 101.9169,-16 101.9169,-16 253.2491,-16 253.2491,-16 259.2491,-16 265.2491,-22 265.2491,-28 265.2491,-28 265.2491,-40 265.2491,-40 265.2491,-46 259.2491,-52 253.2491,-52"></path><text text-anchor="middle" x="177.583" y="-29.8" font-family="Arial" font-size="14.00" fill="#333333">GMOあおぞらネット銀行</text></g><!-- 会社 --><g id="node2" class="node"><title>会社</title><path fill="none" stroke="#000000" stroke-width="2" d="M42,-52C42,-52 12,-52 12,-52 6,-52 0,-46 0,-40 0,-40 0,-28 0,-28 0,-22 6,-16 12,-16 12,-16 42,-16 42,-16 48,-16 54,-22 54,-28 54,-28 54,-40 54,-40 54,-46 48,-52 42,-52"></path><text text-anchor="middle" x="27" y="-29.8" font-family="Arial" font-size="14.00" fill="#000000">会社</text></g><!-- 会社&#45;&gt;メインバンク:gmoあおぞらネット銀行 --><g id="edge-0" class="edge"><title>会社-&gt;メインバンク:gmoあおぞらネット銀行</title><path fill="none" stroke="#333333" stroke-width="2" stroke-opacity="0.600000" d="M54.2694,-34C54.2694,-34 79.9355,-34 79.9355,-34"></path><polygon fill="#333333" fill-opacity="0.600000" stroke="#333333" stroke-width="2" stroke-opacity="0.600000" points="79.9355,-37.5001 89.9355,-34 79.9354,-30.5001 79.9355,-37.5001"></polygon></g></g></svg>