<?xml version="1.0" encoding="UTF-8" standalone="no"?><!-- Generated by graphviz version 2.40.1 (20161225.0304)
 --><!-- Title: ndiag Pages: 1 --><svg width="306pt" height="101pt" viewBox="0.00 0.00 306.35 101.00" xmlns="http://www.w3.org/2000/svg" xmlns:xlink="http://www.w3.org/1999/xlink"><g id="graph0" class="graph" transform="scale(1 1) rotate(0) translate(4 97)"><title>ndiag</title><polygon fill="#ffffff" stroke="transparent" points="-4,4 -4,-97 302.3476,-97 302.3476,4 -4,4"></polygon><g id="clust1" class="cluster"><title>cluster_三菱UFJ銀行</title><polygon fill="none" stroke="#000000" stroke-width="2" points="4,-8 4,-85 110.3506,-85 110.3506,-8 4,-8"></polygon><text text-anchor="middle" x="57.1753" y="-68.4" font-family="Arial" font-size="14.00" fill="#000000">三菱UFJ銀行</text></g><!-- 三菱ufj銀行:普通口座 --><g id="node1" class="node"><title>三菱ufj銀行:普通口座</title><path fill="#ffffff" stroke="#4b75b9" stroke-width="3" d="M85.5267,-52C85.5267,-52 27.8239,-52 27.8239,-52 21.8239,-52 15.8239,-46 15.8239,-40 15.8239,-40 15.8239,-28 15.8239,-28 15.8239,-22 21.8239,-16 27.8239,-16 27.8239,-16 85.5267,-16 85.5267,-16 91.5267,-16 97.5267,-22 97.5267,-28 97.5267,-28 97.5267,-40 97.5267,-40 97.5267,-46 91.5267,-52 85.5267,-52"></path><text text-anchor="middle" x="56.6753" y="-29.8" font-family="Arial" font-size="14.00" fill="#333333">普通口座</text></g><!-- 管理費・修繕積立金 --><g id="node2" class="node"><title>管理費・修繕積立金</title><path fill="none" stroke="#000000" stroke-width="2" d="M286.3461,-52C286.3461,-52 150.3521,-52 150.3521,-52 144.3521,-52 138.3521,-46 138.3521,-40 138.3521,-40 138.3521,-28 138.3521,-28 138.3521,-22 144.3521,-16 150.3521,-16 150.3521,-16 286.3461,-16 286.3461,-16 292.3461,-16 298.3461,-22 298.3461,-28 298.3461,-28 298.3461,-40 298.3461,-40 298.3461,-46 292.3461,-52 286.3461,-52"></path><text text-anchor="middle" x="218.3491" y="-29.8" font-family="Arial" font-size="14.00" fill="#000000">管理費・修繕積立金</text></g><!-- 三菱ufj銀行:普通口座&#45;&gt;管理費・修繕積立金 --><g id="edge-0" class="edge"><title>三菱ufj銀行:普通口座-&gt;管理費・修繕積立金</title><path fill="none" stroke="#333333" stroke-width="2" stroke-opacity="0.600000" d="M97.4724,-34C97.4724,-34 128.1561,-34 128.1561,-34"></path><polygon fill="#333333" fill-opacity="0.600000" stroke="#333333" stroke-width="2" stroke-opacity="0.600000" points="128.1561,-37.5001 138.1561,-34 128.156,-30.5001 128.1561,-37.5001"></polygon></g></g></svg>