<?xml version="1.0" encoding="UTF-8" standalone="no"?><!-- Generated by graphviz version 2.40.1 (20161225.0304)
 --><!-- Title: ndiag Pages: 1 --><svg width="263pt" height="101pt" viewBox="0.00 0.00 263.14 101.00" xmlns="http://www.w3.org/2000/svg" xmlns:xlink="http://www.w3.org/1999/xlink"><g id="graph0" class="graph" transform="scale(1 1) rotate(0) translate(4 97)"><title>ndiag</title><polygon fill="#ffffff" stroke="transparent" points="-4,4 -4,-97 259.141,-97 259.141,4 -4,4"></polygon><g id="clust2" class="cluster"><title>cluster_楽天証券</title><polygon fill="none" stroke="#000000" stroke-width="2" points="147.4538,-8 147.4538,-85 247.141,-85 247.141,-8 147.4538,-8"></polygon><text text-anchor="middle" x="197.2974" y="-68.4" font-family="Arial" font-size="14.00" fill="#000000">楽天証券</text></g><g id="clust1" class="cluster"><title>cluster_楽天銀行</title><polygon fill="none" stroke="#000000" stroke-width="2" points="8,-8 8,-85 127.4538,-85 127.4538,-8 8,-8"></polygon><text text-anchor="middle" x="67.7269" y="-68.4" font-family="Arial" font-size="14.00" fill="#000000">楽天銀行</text></g><!-- 楽天銀行:楽天カード --><g id="node1" class="node"><title>楽天銀行:楽天カード</title><path fill="#ffffff" stroke="#4b75b9" stroke-width="3" d="M107.6817,-52C107.6817,-52 27.7721,-52 27.7721,-52 21.7721,-52 15.7721,-46 15.7721,-40 15.7721,-40 15.7721,-28 15.7721,-28 15.7721,-22 21.7721,-16 27.7721,-16 27.7721,-16 107.6817,-16 107.6817,-16 113.6817,-16 119.6817,-22 119.6817,-28 119.6817,-28 119.6817,-40 119.6817,-40 119.6817,-46 113.6817,-52 107.6817,-52"></path><text text-anchor="middle" x="67.7269" y="-29.8" font-family="Arial" font-size="14.00" fill="#333333">楽天カード</text></g><!-- 楽天証券:投資信託 --><g id="node2" class="node"><title>楽天証券:投資信託</title><path fill="#ffffff" stroke="#4b75b9" stroke-width="3" d="M226.9852,-52C226.9852,-52 167.6096,-52 167.6096,-52 161.6096,-52 155.6096,-46 155.6096,-40 155.6096,-40 155.6096,-28 155.6096,-28 155.6096,-22 161.6096,-16 167.6096,-16 167.6096,-16 226.9852,-16 226.9852,-16 232.9852,-16 238.9852,-22 238.9852,-28 238.9852,-28 238.9852,-40 238.9852,-40 238.9852,-46 232.9852,-52 226.9852,-52"></path><text text-anchor="middle" x="197.2974" y="-29.8" font-family="Arial" font-size="14.00" fill="#333333">投資信託</text></g><!-- 楽天銀行:楽天カード&#45;&gt;楽天証券:投資信託 --><g id="edge-0" class="edge"><title>楽天銀行:楽天カード-&gt;楽天証券:投資信託</title><path fill="none" stroke="#333333" stroke-width="2" stroke-opacity="0.600000" d="M119.6816,-34C119.6816,-34 145.2855,-34 145.2855,-34"></path><polygon fill="#333333" fill-opacity="0.600000" stroke="#333333" stroke-width="2" stroke-opacity="0.600000" points="145.2855,-37.5001 155.2855,-34 145.2855,-30.5001 145.2855,-37.5001"></polygon></g></g></svg>