<?xml version="1.0" encoding="UTF-8" standalone="no"?><!-- Generated by graphviz version 2.40.1 (20161225.0304)
 --><!-- Title: ndiag Pages: 1 --><svg width="494pt" height="101pt" viewBox="0.00 0.00 493.53 101.00" xmlns="http://www.w3.org/2000/svg" xmlns:xlink="http://www.w3.org/1999/xlink"><g id="graph0" class="graph" transform="scale(1 1) rotate(0) translate(4 97)"><title>ndiag</title><polygon fill="#ffffff" stroke="transparent" points="-4,4 -4,-97 489.5316,-97 489.5316,4 -4,4"></polygon><g id="clust2" class="cluster"><title>cluster_セブンカード</title><polygon fill="none" stroke="#000000" stroke-width="2" points="130.3506,-8 130.3506,-85 301.295,-85 301.295,-8 130.3506,-8"></polygon><text text-anchor="middle" x="215.8228" y="-68.4" font-family="Arial" font-size="14.00" fill="#000000">セブンカード</text></g><g id="clust1" class="cluster"><title>cluster_三菱UFJ銀行</title><polygon fill="none" stroke="#000000" stroke-width="2" points="4,-8 4,-85 110.3506,-85 110.3506,-8 4,-8"></polygon><text text-anchor="middle" x="57.1753" y="-68.4" font-family="Arial" font-size="14.00" fill="#000000">三菱UFJ銀行</text></g><!-- 三菱ufj銀行:普通口座 --><g id="node1" class="node"><title>三菱ufj銀行:普通口座</title><path fill="#ffffff" stroke="#4b75b9" stroke-width="3" d="M85.5267,-52C85.5267,-52 27.8239,-52 27.8239,-52 21.8239,-52 15.8239,-46 15.8239,-40 15.8239,-40 15.8239,-28 15.8239,-28 15.8239,-22 21.8239,-16 27.8239,-16 27.8239,-16 85.5267,-16 85.5267,-16 91.5267,-16 97.5267,-22 97.5267,-28 97.5267,-28 97.5267,-40 97.5267,-40 97.5267,-46 91.5267,-52 85.5267,-52"></path><text text-anchor="middle" x="56.6753" y="-29.8" font-family="Arial" font-size="14.00" fill="#333333">普通口座</text></g><!-- セブンカード:セブンカード(家族) --><g id="node2" class="node"><title>セブンカード:セブンカード(家族)</title><path fill="#ffffff" stroke="#4b75b9" stroke-width="3" d="M281.2672,-52C281.2672,-52 150.3784,-52 150.3784,-52 144.3784,-52 138.3784,-46 138.3784,-40 138.3784,-40 138.3784,-28 138.3784,-28 138.3784,-22 144.3784,-16 150.3784,-16 150.3784,-16 281.2672,-16 281.2672,-16 287.2672,-16 293.2672,-22 293.2672,-28 293.2672,-28 293.2672,-40 293.2672,-40 293.2672,-46 287.2672,-52 281.2672,-52"></path><text text-anchor="middle" x="215.8228" y="-29.8" font-family="Arial" font-size="14.00" fill="#333333">セブンカード(家族)</text></g><!-- 三菱ufj銀行:普通口座&#45;&gt;セブンカード:セブンカード(家族) --><g id="edge-0" class="edge"><title>三菱ufj銀行:普通口座-&gt;セブンカード:セブンカード(家族)</title><path fill="none" stroke="#333333" stroke-width="2" stroke-opacity="0.600000" d="M97.6597,-34C97.6597,-34 128.1958,-34 128.1958,-34"></path><polygon fill="#333333" fill-opacity="0.600000" stroke="#333333" stroke-width="2" stroke-opacity="0.600000" points="128.1959,-37.5001 138.1958,-34 128.1958,-30.5001 128.1959,-37.5001"></polygon></g><!-- イトーヨーカドー --><g id="node3" class="node"><title>イトーヨーカドー</title><path fill="none" stroke="#000000" stroke-width="2" d="M473.6501,-52C473.6501,-52 341.1765,-52 341.1765,-52 335.1765,-52 329.1765,-46 329.1765,-40 329.1765,-40 329.1765,-28 329.1765,-28 329.1765,-22 335.1765,-16 341.1765,-16 341.1765,-16 473.6501,-16 473.6501,-16 479.6501,-16 485.6501,-22 485.6501,-28 485.6501,-28 485.6501,-40 485.6501,-40 485.6501,-46 479.6501,-52 473.6501,-52"></path><text text-anchor="middle" x="407.4133" y="-29.8" font-family="Arial" font-size="14.00" fill="#000000">イトーヨーカドー</text></g><!-- セブンカード:セブンカード(家族)&#45;&gt;イトーヨーカドー --><g id="edge-1" class="edge"><title>セブンカード:セブンカード(家族)-&gt;イトーヨーカドー</title><path fill="none" stroke="#333333" stroke-width="2" stroke-opacity="0.600000" d="M293.4738,-34C293.4738,-34 319.0289,-34 319.0289,-34"></path><polygon fill="#333333" fill-opacity="0.600000" stroke="#333333" stroke-width="2" stroke-opacity="0.600000" points="319.0289,-37.5001 329.0289,-34 319.0289,-30.5001 319.0289,-37.5001"></polygon></g></g></svg>