<?xml version="1.0" encoding="UTF-8" standalone="no"?><!-- Generated by graphviz version 2.40.1 (20161225.0304)
 --><!-- Title: ndiag Pages: 1 --><svg width="632pt" height="101pt" viewBox="0.00 0.00 632.41 101.00" xmlns="http://www.w3.org/2000/svg" xmlns:xlink="http://www.w3.org/1999/xlink"><g id="graph0" class="graph" transform="scale(1 1) rotate(0) translate(4 97)"><title>ndiag</title><polygon fill="#ffffff" stroke="transparent" points="-4,4 -4,-97 628.4068,-97 628.4068,4 -4,4"></polygon><g id="clust2" class="cluster"><title>cluster_クレジットカード</title><polygon fill="none" stroke="#000000" stroke-width="2" points="219.166,-8 219.166,-85 466.0254,-85 466.0254,-8 219.166,-8"></polygon><text text-anchor="middle" x="342.5957" y="-68.4" font-family="Arial" font-size="14.00" fill="#000000">クレジットカード</text></g><g id="clust1" class="cluster"><title>cluster_メインバンク</title><polygon fill="none" stroke="#000000" stroke-width="2" points="8,-8 8,-85 199.166,-85 199.166,-8 8,-8"></polygon><text text-anchor="middle" x="103.583" y="-68.4" font-family="Arial" font-size="14.00" fill="#000000">メインバンク</text></g><!-- メインバンク:gmoあおぞらネット銀行 --><g id="node1" class="node"><title>メインバンク:gmoあおぞらネット銀行</title><path fill="#ffffff" stroke="#4b75b9" stroke-width="3" d="M179.2491,-52C179.2491,-52 27.9169,-52 27.9169,-52 21.9169,-52 15.9169,-46 15.9169,-40 15.9169,-40 15.9169,-28 15.9169,-28 15.9169,-22 21.9169,-16 27.9169,-16 27.9169,-16 179.2491,-16 179.2491,-16 185.2491,-16 191.2491,-22 191.2491,-28 191.2491,-28 191.2491,-40 191.2491,-40 191.2491,-46 185.2491,-52 179.2491,-52"></path><text text-anchor="middle" x="103.583" y="-29.8" font-family="Arial" font-size="14.00" fill="#333333">GMOあおぞらネット銀行</text></g><!-- クレジットカード:三井ショッピングパークカード --><g id="node2" class="node"><title>クレジットカード:三井ショッピングパークカード</title><path fill="#ffffff" stroke="#4b75b9" stroke-width="3" d="M445.9551,-52C445.9551,-52 239.2363,-52 239.2363,-52 233.2363,-52 227.2363,-46 227.2363,-40 227.2363,-40 227.2363,-28 227.2363,-28 227.2363,-22 233.2363,-16 239.2363,-16 239.2363,-16 445.9551,-16 445.9551,-16 451.9551,-16 457.9551,-22 457.9551,-28 457.9551,-28 457.9551,-40 457.9551,-40 457.9551,-46 451.9551,-52 445.9551,-52"></path><text text-anchor="middle" x="342.5957" y="-29.8" font-family="Arial" font-size="14.00" fill="#333333">三井ショッピングパークカード</text></g><!-- メインバンク:gmoあおぞらネット銀行&#45;&gt;クレジットカード:三井ショッピングパークカード --><g id="edge-0" class="edge"><title>メインバンク:gmoあおぞらネット銀行-&gt;クレジットカード:三井ショッピングパークカード</title><path fill="none" stroke="#333333" stroke-width="2" stroke-opacity="0.600000" d="M191.2253,-34C191.2253,-34 217.2244,-34 217.2244,-34"></path><polygon fill="#333333" fill-opacity="0.600000" stroke="#333333" stroke-width="2" stroke-opacity="0.600000" points="217.2244,-37.5001 227.2244,-34 217.2243,-30.5001 217.2244,-37.5001"></polygon></g><!-- ららぽーとなど --><g id="node3" class="node"><title>ららぽーとなど</title><path fill="none" stroke="#000000" stroke-width="2" d="M612.5981,-52C612.5981,-52 505.8341,-52 505.8341,-52 499.8341,-52 493.8341,-46 493.8341,-40 493.8341,-40 493.8341,-28 493.8341,-28 493.8341,-22 499.8341,-16 505.8341,-16 505.8341,-16 612.5981,-16 612.5981,-16 618.5981,-16 624.5981,-22 624.5981,-28 624.5981,-28 624.5981,-40 624.5981,-40 624.5981,-46 618.5981,-52 612.5981,-52"></path><text text-anchor="middle" x="559.2161" y="-29.8" font-family="Arial" font-size="14.00" fill="#000000">ららぽーとなど</text></g><!-- クレジットカード:三井ショッピングパークカード&#45;&gt;ららぽーとなど --><g id="edge-1" class="edge"><title>クレジットカード:三井ショッピングパークカード-&gt;ららぽーとなど</title><path fill="none" stroke="#333333" stroke-width="2" stroke-opacity="0.600000" d="M458.1992,-34C458.1992,-34 483.801,-34 483.801,-34"></path><polygon fill="#333333" fill-opacity="0.600000" stroke="#333333" stroke-width="2" stroke-opacity="0.600000" points="483.8011,-37.5001 493.801,-34 483.801,-30.5001 483.8011,-37.5001"></polygon></g></g></svg>