<?xml version="1.0" encoding="UTF-8" standalone="no"?><!-- Generated by graphviz version 2.40.1 (20161225.0304)
 --><!-- Title: ndiag Pages: 1 --><svg width="501pt" height="101pt" viewBox="0.00 0.00 500.57 101.00" xmlns="http://www.w3.org/2000/svg" xmlns:xlink="http://www.w3.org/1999/xlink"><g id="graph0" class="graph" transform="scale(1 1) rotate(0) translate(4 97)"><title>ndiag</title><polygon fill="#ffffff" stroke="transparent" points="-4,4 -4,-97 496.57,-97 496.57,4 -4,4"></polygon><g id="clust2" class="cluster"><title>cluster_クレジットカード</title><polygon fill="none" stroke="#000000" stroke-width="2" points="219.166,-8 219.166,-85 410.57,-85 410.57,-8 219.166,-8"></polygon><text text-anchor="middle" x="314.868" y="-68.4" font-family="Arial" font-size="14.00" fill="#000000">クレジットカード</text></g><g id="clust1" class="cluster"><title>cluster_メインバンク</title><polygon fill="none" stroke="#000000" stroke-width="2" points="8,-8 8,-85 199.166,-85 199.166,-8 8,-8"></polygon><text text-anchor="middle" x="103.583" y="-68.4" font-family="Arial" font-size="14.00" fill="#000000">メインバンク</text></g><!-- メインバンク:gmoあおぞらネット銀行 --><g id="node1" class="node"><title>メインバンク:gmoあおぞらネット銀行</title><path fill="#ffffff" stroke="#4b75b9" stroke-width="3" d="M179.2491,-52C179.2491,-52 27.9169,-52 27.9169,-52 21.9169,-52 15.9169,-46 15.9169,-40 15.9169,-40 15.9169,-28 15.9169,-28 15.9169,-22 21.9169,-16 27.9169,-16 27.9169,-16 179.2491,-16 179.2491,-16 185.2491,-16 191.2491,-22 191.2491,-28 191.2491,-28 191.2491,-40 191.2491,-40 191.2491,-46 185.2491,-52 179.2491,-52"></path><text text-anchor="middle" x="103.583" y="-29.8" font-family="Arial" font-size="14.00" fill="#333333">GMOあおぞらネット銀行</text></g><!-- クレジットカード:セゾンアメックス(家族) --><g id="node2" class="node"><title>クレジットカード:セゾンアメックス(家族)</title><path fill="#ffffff" stroke="#4b75b9" stroke-width="3" d="M390.7725,-52C390.7725,-52 238.9635,-52 238.9635,-52 232.9635,-52 226.9635,-46 226.9635,-40 226.9635,-40 226.9635,-28 226.9635,-28 226.9635,-22 232.9635,-16 238.9635,-16 238.9635,-16 390.7725,-16 390.7725,-16 396.7725,-16 402.7725,-22 402.7725,-28 402.7725,-28 402.7725,-40 402.7725,-40 402.7725,-46 396.7725,-52 390.7725,-52"></path><text text-anchor="middle" x="314.868" y="-29.8" font-family="Arial" font-size="14.00" fill="#333333">セゾンアメックス(家族)</text></g><!-- メインバンク:gmoあおぞらネット銀行&#45;&gt;クレジットカード:セゾンアメックス(家族) --><g id="edge-0" class="edge"><title>メインバンク:gmoあおぞらネット銀行-&gt;クレジットカード:セゾンアメックス(家族)</title><path fill="none" stroke="#333333" stroke-width="2" stroke-opacity="0.600000" d="M191.3513,-34C191.3513,-34 217.0328,-34 217.0328,-34"></path><polygon fill="#333333" fill-opacity="0.600000" stroke="#333333" stroke-width="2" stroke-opacity="0.600000" points="217.0329,-37.5001 227.0328,-34 217.0328,-30.5001 217.0329,-37.5001"></polygon></g><!-- 世界 --><g id="node3" class="node"><title>世界</title><path fill="none" stroke="#000000" stroke-width="2" d="M480.57,-52C480.57,-52 450.57,-52 450.57,-52 444.57,-52 438.57,-46 438.57,-40 438.57,-40 438.57,-28 438.57,-28 438.57,-22 444.57,-16 450.57,-16 450.57,-16 480.57,-16 480.57,-16 486.57,-16 492.57,-22 492.57,-28 492.57,-28 492.57,-40 492.57,-40 492.57,-46 486.57,-52 480.57,-52"></path><text text-anchor="middle" x="465.57" y="-29.8" font-family="Arial" font-size="14.00" fill="#000000">世界</text></g><!-- クレジットカード:セゾンアメックス(家族)&#45;&gt;世界 --><g id="edge-1" class="edge"><title>クレジットカード:セゾンアメックス(家族)-&gt;世界</title><path fill="none" stroke="#333333" stroke-width="2" stroke-opacity="0.600000" d="M402.968,-34C402.968,-34 428.5133,-34 428.5133,-34"></path><polygon fill="#333333" fill-opacity="0.600000" stroke="#333333" stroke-width="2" stroke-opacity="0.600000" points="428.5134,-37.5001 438.5133,-34 428.5133,-30.5001 428.5134,-37.5001"></polygon></g></g></svg>