<?xml version="1.0" encoding="UTF-8" standalone="no"?><!-- Generated by graphviz version 2.40.1 (20161225.0304)
 --><!-- Title: ndiag Pages: 1 --><svg width="476pt" height="101pt" viewBox="0.00 0.00 475.83 101.00" xmlns="http://www.w3.org/2000/svg" xmlns:xlink="http://www.w3.org/1999/xlink"><g id="graph0" class="graph" transform="scale(1 1) rotate(0) translate(4 97)"><title>ndiag</title><polygon fill="#ffffff" stroke="transparent" points="-4,4 -4,-97 471.835,-97 471.835,4 -4,4"></polygon><g id="clust2" class="cluster"><title>cluster_クレジットカード</title><polygon fill="none" stroke="#000000" stroke-width="2" points="151.0084,-8 151.0084,-85 330.7574,-85 330.7574,-8 151.0084,-8"></polygon><text text-anchor="middle" x="240.8829" y="-68.4" font-family="Arial" font-size="14.00" fill="#000000">クレジットカード</text></g><g id="clust1" class="cluster"><title>cluster_メインバンク</title><polygon fill="none" stroke="#000000" stroke-width="2" points="8,-8 8,-85 131.0084,-85 131.0084,-8 8,-8"></polygon><text text-anchor="middle" x="69.5042" y="-68.4" font-family="Arial" font-size="14.00" fill="#000000">メインバンク</text></g><!-- メインバンク:三菱ufj銀行 --><g id="node1" class="node"><title>メインバンク:三菱ufj銀行</title><path fill="#ffffff" stroke="#4b75b9" stroke-width="3" d="M111.0126,-52C111.0126,-52 27.9958,-52 27.9958,-52 21.9958,-52 15.9958,-46 15.9958,-40 15.9958,-40 15.9958,-28 15.9958,-28 15.9958,-22 21.9958,-16 27.9958,-16 27.9958,-16 111.0126,-16 111.0126,-16 117.0126,-16 123.0126,-22 123.0126,-28 123.0126,-28 123.0126,-40 123.0126,-40 123.0126,-46 117.0126,-52 111.0126,-52"></path><text text-anchor="middle" x="69.5042" y="-29.8" font-family="Arial" font-size="14.00" fill="#333333">三菱UFJ銀行</text></g><!-- クレジットカード:ビュースイカカード --><g id="node2" class="node"><title>クレジットカード:ビュースイカカード</title><path fill="#ffffff" stroke="#4b75b9" stroke-width="3" d="M310.6321,-52C310.6321,-52 171.1337,-52 171.1337,-52 165.1337,-52 159.1337,-46 159.1337,-40 159.1337,-40 159.1337,-28 159.1337,-28 159.1337,-22 165.1337,-16 171.1337,-16 171.1337,-16 310.6321,-16 310.6321,-16 316.6321,-16 322.6321,-22 322.6321,-28 322.6321,-28 322.6321,-40 322.6321,-40 322.6321,-46 316.6321,-52 310.6321,-52"></path><text text-anchor="middle" x="240.8829" y="-29.8" font-family="Arial" font-size="14.00" fill="#333333">ビュースイカカード</text></g><!-- メインバンク:三菱ufj銀行&#45;&gt;クレジットカード:ビュースイカカード --><g id="edge-0" class="edge"><title>メインバンク:三菱ufj銀行-&gt;クレジットカード:ビュースイカカード</title><path fill="none" stroke="#333333" stroke-width="2" stroke-opacity="0.600000" d="M123.2593,-34C123.2593,-34 149.0718,-34 149.0718,-34"></path><polygon fill="#333333" fill-opacity="0.600000" stroke="#333333" stroke-width="2" stroke-opacity="0.600000" points="149.0718,-37.5001 159.0718,-34 149.0717,-30.5001 149.0718,-37.5001"></polygon></g><!-- モバイルsuica --><g id="node3" class="node"><title>モバイルsuica</title><path fill="none" stroke="#000000" stroke-width="2" d="M455.8738,-52C455.8738,-52 370.7186,-52 370.7186,-52 364.7186,-52 358.7186,-46 358.7186,-40 358.7186,-40 358.7186,-28 358.7186,-28 358.7186,-22 364.7186,-16 370.7186,-16 370.7186,-16 455.8738,-16 455.8738,-16 461.8738,-16 467.8738,-22 467.8738,-28 467.8738,-28 467.8738,-40 467.8738,-40 467.8738,-46 461.8738,-52 455.8738,-52"></path><text text-anchor="middle" x="413.2962" y="-29.8" font-family="Arial" font-size="14.00" fill="#000000">モバイルSuica</text></g><!-- クレジットカード:ビュースイカカード&#45;&gt;モバイルsuica --><g id="edge-1" class="edge"><title>クレジットカード:ビュースイカカード-&gt;モバイルsuica</title><path fill="none" stroke="#333333" stroke-width="2" stroke-opacity="0.600000" d="M322.7976,-34C322.7976,-34 348.6603,-34 348.6603,-34"></path><polygon fill="#333333" fill-opacity="0.600000" stroke="#333333" stroke-width="2" stroke-opacity="0.600000" points="348.6603,-37.5001 358.6603,-34 348.6603,-30.5001 348.6603,-37.5001"></polygon></g></g></svg>