<?xml version="1.0" encoding="UTF-8" standalone="no"?><!-- Generated by graphviz version 2.40.1 (20161225.0304)
 --><!-- Title: ndiag Pages: 1 --><svg width="400pt" height="101pt" viewBox="0.00 0.00 399.53 101.00" xmlns="http://www.w3.org/2000/svg" xmlns:xlink="http://www.w3.org/1999/xlink"><g id="graph0" class="graph" transform="scale(1 1) rotate(0) translate(4 97)"><title>ndiag</title><polygon fill="#ffffff" stroke="transparent" points="-4,4 -4,-97 395.5306,-97 395.5306,4 -4,4"></polygon><g id="clust2" class="cluster"><title>cluster_セゾンカード</title><polygon fill="none" stroke="#000000" stroke-width="2" points="194.3506,-8 194.3506,-85 309.5306,-85 309.5306,-8 194.3506,-8"></polygon><text text-anchor="middle" x="251.9406" y="-68.4" font-family="Arial" font-size="14.00" fill="#000000">セゾンカード</text></g><g id="clust1" class="cluster"><title>cluster_GMOあおぞらネット銀行</title><polygon fill="none" stroke="#000000" stroke-width="2" points="0,-8 0,-85 174.3506,-85 174.3506,-8 0,-8"></polygon><text text-anchor="middle" x="87.1753" y="-68.4" font-family="Arial" font-size="14.00" fill="#000000">GMOあおぞらネット銀行</text></g><!-- gmoあおぞらネット銀行:普通口座 --><g id="node1" class="node"><title>gmoあおぞらネット銀行:普通口座</title><path fill="#ffffff" stroke="#4b75b9" stroke-width="3" d="M115.5267,-52C115.5267,-52 57.8239,-52 57.8239,-52 51.8239,-52 45.8239,-46 45.8239,-40 45.8239,-40 45.8239,-28 45.8239,-28 45.8239,-22 51.8239,-16 57.8239,-16 57.8239,-16 115.5267,-16 115.5267,-16 121.5267,-16 127.5267,-22 127.5267,-28 127.5267,-28 127.5267,-40 127.5267,-40 127.5267,-46 121.5267,-52 115.5267,-52"></path><text text-anchor="middle" x="86.6753" y="-29.8" font-family="Arial" font-size="14.00" fill="#333333">普通口座</text></g><!-- セゾンカード:amex(家族) --><g id="node2" class="node"><title>セゾンカード:amex(家族)</title><path fill="#ffffff" stroke="#4b75b9" stroke-width="3" d="M285.6208,-52C285.6208,-52 218.2604,-52 218.2604,-52 212.2604,-52 206.2604,-46 206.2604,-40 206.2604,-40 206.2604,-28 206.2604,-28 206.2604,-22 212.2604,-16 218.2604,-16 218.2604,-16 285.6208,-16 285.6208,-16 291.6208,-16 297.6208,-22 297.6208,-28 297.6208,-28 297.6208,-40 297.6208,-40 297.6208,-46 291.6208,-52 285.6208,-52"></path><text text-anchor="middle" x="251.9406" y="-29.8" font-family="Arial" font-size="14.00" fill="#333333">Amex(家族)</text></g><!-- gmoあおぞらネット銀行:普通口座&#45;&gt;セゾンカード:amex(家族) --><g id="edge-0" class="edge"><title>gmoあおぞらネット銀行:普通口座-&gt;セゾンカード:amex(家族)</title><path fill="none" stroke="#333333" stroke-width="2" stroke-opacity="0.600000" d="M127.5274,-34C127.5274,-34 196.3197,-34 196.3197,-34"></path><polygon fill="#333333" fill-opacity="0.600000" stroke="#333333" stroke-width="2" stroke-opacity="0.600000" points="196.3197,-37.5001 206.3197,-34 196.3197,-30.5001 196.3197,-37.5001"></polygon></g><!-- 世界 --><g id="node3" class="node"><title>世界</title><path fill="none" stroke="#000000" stroke-width="2" d="M379.5306,-52C379.5306,-52 349.5306,-52 349.5306,-52 343.5306,-52 337.5306,-46 337.5306,-40 337.5306,-40 337.5306,-28 337.5306,-28 337.5306,-22 343.5306,-16 349.5306,-16 349.5306,-16 379.5306,-16 379.5306,-16 385.5306,-16 391.5306,-22 391.5306,-28 391.5306,-28 391.5306,-40 391.5306,-40 391.5306,-46 385.5306,-52 379.5306,-52"></path><text text-anchor="middle" x="364.5306" y="-29.8" font-family="Arial" font-size="14.00" fill="#000000">世界</text></g><!-- セゾンカード:amex(家族)&#45;&gt;世界 --><g id="edge-1" class="edge"><title>セゾンカード:amex(家族)-&gt;世界</title><path fill="none" stroke="#333333" stroke-width="2" stroke-opacity="0.600000" d="M297.7353,-34C297.7353,-34 327.5267,-34 327.5267,-34"></path><polygon fill="#333333" fill-opacity="0.600000" stroke="#333333" stroke-width="2" stroke-opacity="0.600000" points="327.5267,-37.5001 337.5267,-34 327.5267,-30.5001 327.5267,-37.5001"></polygon></g></g></svg>