<?xml version="1.0" encoding="UTF-8" standalone="no"?><!-- Generated by graphviz version 2.40.1 (20161225.0304)
 --><!-- Title: ndiag Pages: 1 --><svg width="619pt" height="101pt" viewBox="0.00 0.00 619.40 101.00" xmlns="http://www.w3.org/2000/svg" xmlns:xlink="http://www.w3.org/1999/xlink"><g id="graph0" class="graph" transform="scale(1 1) rotate(0) translate(4 97)"><title>ndiag</title><polygon fill="#ffffff" stroke="transparent" points="-4,4 -4,-97 615.4016,-97 615.4016,4 -4,4"></polygon><g id="clust2" class="cluster"><title>cluster_イオン銀行</title><polygon fill="none" stroke="#000000" stroke-width="2" points="194.3506,-8 194.3506,-85 291.7012,-85 291.7012,-8 194.3506,-8"></polygon><text text-anchor="middle" x="243.0259" y="-68.4" font-family="Arial" font-size="14.00" fill="#000000">イオン銀行</text></g><g id="clust1" class="cluster"><title>cluster_GMOあおぞらネット銀行</title><polygon fill="none" stroke="#000000" stroke-width="2" points="0,-8 0,-85 174.3506,-85 174.3506,-8 0,-8"></polygon><text text-anchor="middle" x="87.1753" y="-68.4" font-family="Arial" font-size="14.00" fill="#000000">GMOあおぞらネット銀行</text></g><!-- gmoあおぞらネット銀行:普通口座 --><g id="node1" class="node"><title>gmoあおぞらネット銀行:普通口座</title><path fill="#ffffff" stroke="#4b75b9" stroke-width="3" d="M115.5267,-52C115.5267,-52 57.8239,-52 57.8239,-52 51.8239,-52 45.8239,-46 45.8239,-40 45.8239,-40 45.8239,-28 45.8239,-28 45.8239,-22 51.8239,-16 57.8239,-16 57.8239,-16 115.5267,-16 115.5267,-16 121.5267,-16 127.5267,-22 127.5267,-28 127.5267,-28 127.5267,-40 127.5267,-40 127.5267,-46 121.5267,-52 115.5267,-52"></path><text text-anchor="middle" x="86.6753" y="-29.8" font-family="Arial" font-size="14.00" fill="#333333">普通口座</text></g><!-- イオン銀行:普通口座 --><g id="node2" class="node"><title>イオン銀行:普通口座</title><path fill="#ffffff" stroke="#4b75b9" stroke-width="3" d="M271.8773,-52C271.8773,-52 214.1745,-52 214.1745,-52 208.1745,-52 202.1745,-46 202.1745,-40 202.1745,-40 202.1745,-28 202.1745,-28 202.1745,-22 208.1745,-16 214.1745,-16 214.1745,-16 271.8773,-16 271.8773,-16 277.8773,-16 283.8773,-22 283.8773,-28 283.8773,-28 283.8773,-40 283.8773,-40 283.8773,-46 277.8773,-52 271.8773,-52"></path><text text-anchor="middle" x="243.0259" y="-29.8" font-family="Arial" font-size="14.00" fill="#333333">普通口座</text></g><!-- gmoあおぞらネット銀行:普通口座&#45;&gt;イオン銀行:普通口座 --><g id="edge-0" class="edge"><title>gmoあおぞらネット銀行:普通口座-&gt;イオン銀行:普通口座</title><path fill="none" stroke="#333333" stroke-width="2" stroke-opacity="0.600000" d="M127.7546,-34C127.7546,-34 192.221,-34 192.221,-34"></path><polygon fill="#333333" fill-opacity="0.600000" stroke="#333333" stroke-width="2" stroke-opacity="0.600000" points="192.221,-37.5001 202.221,-34 192.2209,-30.5001 192.221,-37.5001"></polygon></g><!-- イオン銀行デビットカード --><g id="node3" class="node"><title>イオン銀行デビットカード</title><path fill="none" stroke="#000000" stroke-width="2" d="M505.2709,-52C505.2709,-52 331.8445,-52 331.8445,-52 325.8445,-52 319.8445,-46 319.8445,-40 319.8445,-40 319.8445,-28 319.8445,-28 319.8445,-22 325.8445,-16 331.8445,-16 331.8445,-16 505.2709,-16 505.2709,-16 511.2709,-16 517.2709,-22 517.2709,-28 517.2709,-28 517.2709,-40 517.2709,-40 517.2709,-46 511.2709,-52 505.2709,-52"></path><text text-anchor="middle" x="418.5577" y="-29.8" font-family="Arial" font-size="14.00" fill="#000000">イオン銀行デビットカード</text></g><!-- イオン銀行:普通口座&#45;&gt;イオン銀行デビットカード --><g id="edge-1" class="edge"><title>イオン銀行:普通口座-&gt;イオン銀行デビットカード</title><path fill="none" stroke="#333333" stroke-width="2" stroke-opacity="0.600000" d="M283.7376,-34C283.7376,-34 309.6337,-34 309.6337,-34"></path><polygon fill="#333333" fill-opacity="0.600000" stroke="#333333" stroke-width="2" stroke-opacity="0.600000" points="309.6337,-37.5001 319.6337,-34 309.6337,-30.5001 309.6337,-37.5001"></polygon></g><!-- イオン --><g id="node4" class="node"><title>イオン</title><path fill="none" stroke="#000000" stroke-width="2" d="M599.3953,-52C599.3953,-52 565.4205,-52 565.4205,-52 559.4205,-52 553.4205,-46 553.4205,-40 553.4205,-40 553.4205,-28 553.4205,-28 553.4205,-22 559.4205,-16 565.4205,-16 565.4205,-16 599.3953,-16 599.3953,-16 605.3953,-16 611.3953,-22 611.3953,-28 611.3953,-28 611.3953,-40 611.3953,-40 611.3953,-46 605.3953,-52 599.3953,-52"></path><text text-anchor="middle" x="582.4079" y="-29.8" font-family="Arial" font-size="14.00" fill="#000000">イオン</text></g><!-- イオン銀行デビットカード&#45;&gt;イオン --><g id="edge-2" class="edge"><title>イオン銀行デビットカード-&gt;イオン</title><path fill="none" stroke="#333333" stroke-width="2" stroke-opacity="0.600000" d="M517.65,-34C517.65,-34 543.3036,-34 543.3036,-34"></path><polygon fill="#333333" fill-opacity="0.600000" stroke="#333333" stroke-width="2" stroke-opacity="0.600000" points="543.3036,-37.5001 553.3036,-34 543.3035,-30.5001 543.3036,-37.5001"></polygon></g></g></svg>