<?xml version="1.0" encoding="UTF-8" standalone="no"?><!-- Generated by graphviz version 2.40.1 (20161225.0304)
 --><!-- Title: ndiag Pages: 1 --><svg width="409pt" height="101pt" viewBox="0.00 0.00 408.85 101.00" xmlns="http://www.w3.org/2000/svg" xmlns:xlink="http://www.w3.org/1999/xlink"><g id="graph0" class="graph" transform="scale(1 1) rotate(0) translate(4 97)"><title>ndiag</title><polygon fill="#ffffff" stroke="transparent" points="-4,4 -4,-97 404.8544,-97 404.8544,4 -4,4"></polygon><g id="clust2" class="cluster"><title>cluster_千葉銀行</title><polygon fill="none" stroke="#000000" stroke-width="2" points="194.3506,-8 194.3506,-85 291.7012,-85 291.7012,-8 194.3506,-8"></polygon><text text-anchor="middle" x="243.0259" y="-68.4" font-family="Arial" font-size="14.00" fill="#000000">千葉銀行</text></g><g id="clust1" class="cluster"><title>cluster_GMOあおぞらネット銀行</title><polygon fill="none" stroke="#000000" stroke-width="2" points="0,-8 0,-85 174.3506,-85 174.3506,-8 0,-8"></polygon><text text-anchor="middle" x="87.1753" y="-68.4" font-family="Arial" font-size="14.00" fill="#000000">GMOあおぞらネット銀行</text></g><!-- gmoあおぞらネット銀行:普通口座 --><g id="node1" class="node"><title>gmoあおぞらネット銀行:普通口座</title><path fill="#ffffff" stroke="#4b75b9" stroke-width="3" d="M115.5267,-52C115.5267,-52 57.8239,-52 57.8239,-52 51.8239,-52 45.8239,-46 45.8239,-40 45.8239,-40 45.8239,-28 45.8239,-28 45.8239,-22 51.8239,-16 57.8239,-16 57.8239,-16 115.5267,-16 115.5267,-16 121.5267,-16 127.5267,-22 127.5267,-28 127.5267,-28 127.5267,-40 127.5267,-40 127.5267,-46 121.5267,-52 115.5267,-52"></path><text text-anchor="middle" x="86.6753" y="-29.8" font-family="Arial" font-size="14.00" fill="#333333">普通口座</text></g><!-- 千葉銀行:普通口座 --><g id="node2" class="node"><title>千葉銀行:普通口座</title><path fill="#ffffff" stroke="#4b75b9" stroke-width="3" d="M271.8773,-52C271.8773,-52 214.1745,-52 214.1745,-52 208.1745,-52 202.1745,-46 202.1745,-40 202.1745,-40 202.1745,-28 202.1745,-28 202.1745,-22 208.1745,-16 214.1745,-16 214.1745,-16 271.8773,-16 271.8773,-16 277.8773,-16 283.8773,-22 283.8773,-28 283.8773,-28 283.8773,-40 283.8773,-40 283.8773,-46 277.8773,-52 271.8773,-52"></path><text text-anchor="middle" x="243.0259" y="-29.8" font-family="Arial" font-size="14.00" fill="#333333">普通口座</text></g><!-- gmoあおぞらネット銀行:普通口座&#45;&gt;千葉銀行:普通口座 --><g id="edge-0" class="edge"><title>gmoあおぞらネット銀行:普通口座-&gt;千葉銀行:普通口座</title><path fill="none" stroke="#333333" stroke-width="2" stroke-opacity="0.600000" d="M127.7546,-34C127.7546,-34 192.221,-34 192.221,-34"></path><polygon fill="#333333" fill-opacity="0.600000" stroke="#333333" stroke-width="2" stroke-opacity="0.600000" points="192.221,-37.5001 202.221,-34 192.2209,-30.5001 192.221,-37.5001"></polygon></g><!-- 学費など --><g id="node3" class="node"><title>学費など</title><path fill="none" stroke="#000000" stroke-width="2" d="M388.9311,-52C388.9311,-52 331.6245,-52 331.6245,-52 325.6245,-52 319.6245,-46 319.6245,-40 319.6245,-40 319.6245,-28 319.6245,-28 319.6245,-22 325.6245,-16 331.6245,-16 331.6245,-16 388.9311,-16 388.9311,-16 394.9311,-16 400.9311,-22 400.9311,-28 400.9311,-28 400.9311,-40 400.9311,-40 400.9311,-46 394.9311,-52 388.9311,-52"></path><text text-anchor="middle" x="360.2778" y="-29.8" font-family="Arial" font-size="14.00" fill="#000000">学費など</text></g><!-- 千葉銀行:普通口座&#45;&gt;学費など --><g id="edge-1" class="edge"><title>千葉銀行:普通口座-&gt;学費など</title><path fill="none" stroke="#333333" stroke-width="2" stroke-opacity="0.600000" d="M283.7059,-34C283.7059,-34 309.6697,-34 309.6697,-34"></path><polygon fill="#333333" fill-opacity="0.600000" stroke="#333333" stroke-width="2" stroke-opacity="0.600000" points="309.6698,-37.5001 319.6697,-34 309.6697,-30.5001 309.6698,-37.5001"></polygon></g></g></svg>