<?xml version="1.0" encoding="UTF-8" standalone="no"?><!-- Generated by graphviz version 2.40.1 (20161225.0304)
 --><!-- Title: ndiag Pages: 1 --><svg width="514pt" height="101pt" viewBox="0.00 0.00 514.19 101.00" xmlns="http://www.w3.org/2000/svg" xmlns:xlink="http://www.w3.org/1999/xlink"><g id="graph0" class="graph" transform="scale(1 1) rotate(0) translate(4 97)"><title>ndiag</title><polygon fill="#ffffff" stroke="transparent" points="-4,4 -4,-97 510.1894,-97 510.1894,4 -4,4"></polygon><g id="clust2" class="cluster"><title>cluster_クレジットカード</title><polygon fill="none" stroke="#000000" stroke-width="2" points="151.0084,-8 151.0084,-85 321.9528,-85 321.9528,-8 151.0084,-8"></polygon><text text-anchor="middle" x="236.4806" y="-68.4" font-family="Arial" font-size="14.00" fill="#000000">クレジットカード</text></g><g id="clust1" class="cluster"><title>cluster_メインバンク</title><polygon fill="none" stroke="#000000" stroke-width="2" points="8,-8 8,-85 131.0084,-85 131.0084,-8 8,-8"></polygon><text text-anchor="middle" x="69.5042" y="-68.4" font-family="Arial" font-size="14.00" fill="#000000">メインバンク</text></g><!-- メインバンク:三菱ufj銀行 --><g id="node1" class="node"><title>メインバンク:三菱ufj銀行</title><path fill="#ffffff" stroke="#4b75b9" stroke-width="3" d="M111.0126,-52C111.0126,-52 27.9958,-52 27.9958,-52 21.9958,-52 15.9958,-46 15.9958,-40 15.9958,-40 15.9958,-28 15.9958,-28 15.9958,-22 21.9958,-16 27.9958,-16 27.9958,-16 111.0126,-16 111.0126,-16 117.0126,-16 123.0126,-22 123.0126,-28 123.0126,-28 123.0126,-40 123.0126,-40 123.0126,-46 117.0126,-52 111.0126,-52"></path><text text-anchor="middle" x="69.5042" y="-29.8" font-family="Arial" font-size="14.00" fill="#333333">三菱UFJ銀行</text></g><!-- クレジットカード:セブンカード(家族) --><g id="node2" class="node"><title>クレジットカード:セブンカード(家族)</title><path fill="#ffffff" stroke="#4b75b9" stroke-width="3" d="M301.925,-52C301.925,-52 171.0362,-52 171.0362,-52 165.0362,-52 159.0362,-46 159.0362,-40 159.0362,-40 159.0362,-28 159.0362,-28 159.0362,-22 165.0362,-16 171.0362,-16 171.0362,-16 301.925,-16 301.925,-16 307.925,-16 313.925,-22 313.925,-28 313.925,-28 313.925,-40 313.925,-40 313.925,-46 307.925,-52 301.925,-52"></path><text text-anchor="middle" x="236.4806" y="-29.8" font-family="Arial" font-size="14.00" fill="#333333">セブンカード(家族)</text></g><!-- メインバンク:三菱ufj銀行&#45;&gt;クレジットカード:セブンカード(家族) --><g id="edge-0" class="edge"><title>メインバンク:三菱ufj銀行-&gt;クレジットカード:セブンカード(家族)</title><path fill="none" stroke="#333333" stroke-width="2" stroke-opacity="0.600000" d="M123.2557,-34C123.2557,-34 148.8145,-34 148.8145,-34"></path><polygon fill="#333333" fill-opacity="0.600000" stroke="#333333" stroke-width="2" stroke-opacity="0.600000" points="148.8145,-37.5001 158.8145,-34 148.8145,-30.5001 148.8145,-37.5001"></polygon></g><!-- イトーヨーカドー --><g id="node3" class="node"><title>イトーヨーカドー</title><path fill="none" stroke="#000000" stroke-width="2" d="M494.3079,-52C494.3079,-52 361.8343,-52 361.8343,-52 355.8343,-52 349.8343,-46 349.8343,-40 349.8343,-40 349.8343,-28 349.8343,-28 349.8343,-22 355.8343,-16 361.8343,-16 361.8343,-16 494.3079,-16 494.3079,-16 500.3079,-16 506.3079,-22 506.3079,-28 506.3079,-28 506.3079,-40 506.3079,-40 506.3079,-46 500.3079,-52 494.3079,-52"></path><text text-anchor="middle" x="428.0711" y="-29.8" font-family="Arial" font-size="14.00" fill="#000000">イトーヨーカドー</text></g><!-- クレジットカード:セブンカード(家族)&#45;&gt;イトーヨーカドー --><g id="edge-1" class="edge"><title>クレジットカード:セブンカード(家族)-&gt;イトーヨーカドー</title><path fill="none" stroke="#333333" stroke-width="2" stroke-opacity="0.600000" d="M314.1316,-34C314.1316,-34 339.6867,-34 339.6867,-34"></path><polygon fill="#333333" fill-opacity="0.600000" stroke="#333333" stroke-width="2" stroke-opacity="0.600000" points="339.6867,-37.5001 349.6867,-34 339.6867,-30.5001 339.6867,-37.5001"></polygon></g></g></svg>