<?xml version="1.0" encoding="UTF-8" standalone="no"?><!-- Generated by graphviz version 2.40.1 (20161225.0304)
 --><!-- Title: ndiag Pages: 1 --><svg width="237pt" height="101pt" viewBox="0.00 0.00 237.01 101.00" xmlns="http://www.w3.org/2000/svg" xmlns:xlink="http://www.w3.org/1999/xlink"><g id="graph0" class="graph" transform="scale(1 1) rotate(0) translate(4 97)"><title>ndiag</title><polygon fill="#ffffff" stroke="transparent" points="-4,4 -4,-97 233.0084,-97 233.0084,4 -4,4"></polygon><g id="clust2" class="cluster"><title>cluster_県民共済</title><polygon fill="none" stroke="#000000" stroke-width="2" points="151.0084,-8 151.0084,-85 221.0084,-85 221.0084,-8 151.0084,-8"></polygon><text text-anchor="middle" x="186.0084" y="-68.4" font-family="Arial" font-size="14.00" fill="#000000">県民共済</text></g><g id="clust1" class="cluster"><title>cluster_メインバンク</title><polygon fill="none" stroke="#000000" stroke-width="2" points="8,-8 8,-85 131.0084,-85 131.0084,-8 8,-8"></polygon><text text-anchor="middle" x="69.5042" y="-68.4" font-family="Arial" font-size="14.00" fill="#000000">メインバンク</text></g><!-- メインバンク:三菱ufj銀行 --><g id="node1" class="node"><title>メインバンク:三菱ufj銀行</title><path fill="#ffffff" stroke="#4b75b9" stroke-width="3" d="M111.0126,-52C111.0126,-52 27.9958,-52 27.9958,-52 21.9958,-52 15.9958,-46 15.9958,-40 15.9958,-40 15.9958,-28 15.9958,-28 15.9958,-22 21.9958,-16 27.9958,-16 27.9958,-16 111.0126,-16 111.0126,-16 117.0126,-16 123.0126,-22 123.0126,-28 123.0126,-28 123.0126,-40 123.0126,-40 123.0126,-46 117.0126,-52 111.0126,-52"></path><text text-anchor="middle" x="69.5042" y="-29.8" font-family="Arial" font-size="14.00" fill="#333333">三菱UFJ銀行</text></g><!-- 県民共済:保険 --><g id="node2" class="node"><title>県民共済:保険</title><path fill="#ffffff" stroke="#4b75b9" stroke-width="3" d="M201.0084,-52C201.0084,-52 171.0084,-52 171.0084,-52 165.0084,-52 159.0084,-46 159.0084,-40 159.0084,-40 159.0084,-28 159.0084,-28 159.0084,-22 165.0084,-16 171.0084,-16 171.0084,-16 201.0084,-16 201.0084,-16 207.0084,-16 213.0084,-22 213.0084,-28 213.0084,-28 213.0084,-40 213.0084,-40 213.0084,-46 207.0084,-52 201.0084,-52"></path><text text-anchor="middle" x="186.0084" y="-29.8" font-family="Arial" font-size="14.00" fill="#333333">保険</text></g><!-- メインバンク:三菱ufj銀行&#45;&gt;県民共済:保険 --><g id="edge-0" class="edge"><title>メインバンク:三菱ufj銀行-&gt;県民共済:保険</title><path fill="none" stroke="#333333" stroke-width="2" stroke-opacity="0.600000" d="M123.3229,-34C123.3229,-34 148.7611,-34 148.7611,-34"></path><polygon fill="#333333" fill-opacity="0.600000" stroke="#333333" stroke-width="2" stroke-opacity="0.600000" points="148.7612,-37.5001 158.7611,-34 148.7611,-30.5001 148.7612,-37.5001"></polygon></g></g></svg>