<?xml version="1.0" encoding="UTF-8" standalone="no"?><!-- Generated by graphviz version 2.40.1 (20161225.0304)
 --><!-- Title: ndiag Pages: 1 --><svg width="431pt" height="101pt" viewBox="0.00 0.00 430.56 101.00" xmlns="http://www.w3.org/2000/svg" xmlns:xlink="http://www.w3.org/1999/xlink"><g id="graph0" class="graph" transform="scale(1 1) rotate(0) translate(4 97)"><title>ndiag</title><polygon fill="#ffffff" stroke="transparent" points="-4,4 -4,-97 426.5604,-97 426.5604,4 -4,4"></polygon><g id="clust2" class="cluster"><title>cluster_サブバンク</title><polygon fill="none" stroke="#000000" stroke-width="2" points="219.166,-8 219.166,-85 313.4072,-85 313.4072,-8 219.166,-8"></polygon><text text-anchor="middle" x="266.2866" y="-68.4" font-family="Arial" font-size="14.00" fill="#000000">サブバンク</text></g><g id="clust1" class="cluster"><title>cluster_メインバンク</title><polygon fill="none" stroke="#000000" stroke-width="2" points="8,-8 8,-85 199.166,-85 199.166,-8 8,-8"></polygon><text text-anchor="middle" x="103.583" y="-68.4" font-family="Arial" font-size="14.00" fill="#000000">メインバンク</text></g><!-- メインバンク:gmoあおぞらネット銀行 --><g id="node1" class="node"><title>メインバンク:gmoあおぞらネット銀行</title><path fill="#ffffff" stroke="#4b75b9" stroke-width="3" d="M179.2491,-52C179.2491,-52 27.9169,-52 27.9169,-52 21.9169,-52 15.9169,-46 15.9169,-40 15.9169,-40 15.9169,-28 15.9169,-28 15.9169,-22 21.9169,-16 27.9169,-16 27.9169,-16 179.2491,-16 179.2491,-16 185.2491,-16 191.2491,-22 191.2491,-28 191.2491,-28 191.2491,-40 191.2491,-40 191.2491,-46 185.2491,-52 179.2491,-52"></path><text text-anchor="middle" x="103.583" y="-29.8" font-family="Arial" font-size="14.00" fill="#333333">GMOあおぞらネット銀行</text></g><!-- サブバンク:千葉銀行 --><g id="node2" class="node"><title>サブバンク:千葉銀行</title><path fill="#ffffff" stroke="#4b75b9" stroke-width="3" d="M293.5282,-52C293.5282,-52 239.045,-52 239.045,-52 233.045,-52 227.045,-46 227.045,-40 227.045,-40 227.045,-28 227.045,-28 227.045,-22 233.045,-16 239.045,-16 239.045,-16 293.5282,-16 293.5282,-16 299.5282,-16 305.5282,-22 305.5282,-28 305.5282,-28 305.5282,-40 305.5282,-40 305.5282,-46 299.5282,-52 293.5282,-52"></path><text text-anchor="middle" x="266.2866" y="-29.8" font-family="Arial" font-size="14.00" fill="#333333">千葉銀行</text></g><!-- メインバンク:gmoあおぞらネット銀行&#45;&gt;サブバンク:千葉銀行 --><g id="edge-0" class="edge"><title>メインバンク:gmoあおぞらネット銀行-&gt;サブバンク:千葉銀行</title><path fill="none" stroke="#333333" stroke-width="2" stroke-opacity="0.600000" d="M191.6015,-34C191.6015,-34 217.0918,-34 217.0918,-34"></path><polygon fill="#333333" fill-opacity="0.600000" stroke="#333333" stroke-width="2" stroke-opacity="0.600000" points="217.0918,-37.5001 227.0918,-34 217.0918,-30.5001 217.0918,-37.5001"></polygon></g><!-- 学費など --><g id="node3" class="node"><title>学費など</title><path fill="none" stroke="#000000" stroke-width="2" d="M410.6371,-52C410.6371,-52 353.3305,-52 353.3305,-52 347.3305,-52 341.3305,-46 341.3305,-40 341.3305,-40 341.3305,-28 341.3305,-28 341.3305,-22 347.3305,-16 353.3305,-16 353.3305,-16 410.6371,-16 410.6371,-16 416.6371,-16 422.6371,-22 422.6371,-28 422.6371,-28 422.6371,-40 422.6371,-40 422.6371,-46 416.6371,-52 410.6371,-52"></path><text text-anchor="middle" x="381.9838" y="-29.8" font-family="Arial" font-size="14.00" fill="#000000">学費など</text></g><!-- サブバンク:千葉銀行&#45;&gt;学費など --><g id="edge-1" class="edge"><title>サブバンク:千葉銀行-&gt;学費など</title><path fill="none" stroke="#333333" stroke-width="2" stroke-opacity="0.600000" d="M305.4564,-34C305.4564,-34 331.2747,-34 331.2747,-34"></path><polygon fill="#333333" fill-opacity="0.600000" stroke="#333333" stroke-width="2" stroke-opacity="0.600000" points="331.2747,-37.5001 341.2747,-34 331.2746,-30.5001 331.2747,-37.5001"></polygon></g></g></svg>