<?xml version="1.0" encoding="UTF-8" standalone="no"?><!-- Generated by graphviz version 2.40.1 (20161225.0304)
 --><!-- Title: ndiag Pages: 1 --><svg width="367pt" height="101pt" viewBox="0.00 0.00 366.85 101.00" xmlns="http://www.w3.org/2000/svg" xmlns:xlink="http://www.w3.org/1999/xlink"><g id="graph0" class="graph" transform="scale(1 1) rotate(0) translate(4 97)"><title>ndiag</title><polygon fill="#ffffff" stroke="transparent" points="-4,4 -4,-97 362.8486,-97 362.8486,4 -4,4"></polygon><g id="clust2" class="cluster"><title>cluster_クレジットカード</title><polygon fill="none" stroke="#000000" stroke-width="2" points="136.993,-8 136.993,-85 272.8612,-85 272.8612,-8 136.993,-8"></polygon><text text-anchor="middle" x="204.9271" y="-68.4" font-family="Arial" font-size="14.00" fill="#000000">クレジットカード</text></g><g id="clust1" class="cluster"><title>cluster_サブバンク</title><polygon fill="none" stroke="#000000" stroke-width="2" points="8,-8 8,-85 116.993,-85 116.993,-8 8,-8"></polygon><text text-anchor="middle" x="62.4965" y="-68.4" font-family="Arial" font-size="14.00" fill="#000000">サブバンク</text></g><!-- サブバンク:イオン銀行 --><g id="node1" class="node"><title>サブバンク:イオン銀行</title><path fill="#ffffff" stroke="#4b75b9" stroke-width="3" d="M96.9895,-52C96.9895,-52 28.0035,-52 28.0035,-52 22.0035,-52 16.0035,-46 16.0035,-40 16.0035,-40 16.0035,-28 16.0035,-28 16.0035,-22 22.0035,-16 28.0035,-16 28.0035,-16 96.9895,-16 96.9895,-16 102.9895,-16 108.9895,-22 108.9895,-28 108.9895,-28 108.9895,-40 108.9895,-40 108.9895,-46 102.9895,-52 96.9895,-52"></path><text text-anchor="middle" x="62.4965" y="-29.8" font-family="Arial" font-size="14.00" fill="#333333">イオン銀行</text></g><!-- クレジットカード:イオンカード --><g id="node2" class="node"><title>クレジットカード:イオンカード</title><path fill="#ffffff" stroke="#4b75b9" stroke-width="3" d="M247.7954,-52C247.7954,-52 161.0588,-52 161.0588,-52 155.0588,-52 149.0588,-46 149.0588,-40 149.0588,-40 149.0588,-28 149.0588,-28 149.0588,-22 155.0588,-16 161.0588,-16 161.0588,-16 247.7954,-16 247.7954,-16 253.7954,-16 259.7954,-22 259.7954,-28 259.7954,-28 259.7954,-40 259.7954,-40 259.7954,-46 253.7954,-52 247.7954,-52"></path><text text-anchor="middle" x="204.4271" y="-29.8" font-family="Arial" font-size="14.00" fill="#333333">イオンカード</text></g><!-- サブバンク:イオン銀行&#45;&gt;クレジットカード:イオンカード --><g id="edge-0" class="edge"><title>サブバンク:イオン銀行-&gt;クレジットカード:イオンカード</title><path fill="none" stroke="#333333" stroke-width="2" stroke-opacity="0.600000" d="M109.3632,-34C109.3632,-34 138.9806,-34 138.9806,-34"></path><polygon fill="#333333" fill-opacity="0.600000" stroke="#333333" stroke-width="2" stroke-opacity="0.600000" points="138.9806,-37.5001 148.9806,-34 138.9805,-30.5001 138.9806,-37.5001"></polygon></g><!-- イオン --><g id="node3" class="node"><title>イオン</title><path fill="none" stroke="#000000" stroke-width="2" d="M346.8423,-52C346.8423,-52 312.8675,-52 312.8675,-52 306.8675,-52 300.8675,-46 300.8675,-40 300.8675,-40 300.8675,-28 300.8675,-28 300.8675,-22 306.8675,-16 312.8675,-16 312.8675,-16 346.8423,-16 346.8423,-16 352.8423,-16 358.8423,-22 358.8423,-28 358.8423,-28 358.8423,-40 358.8423,-40 358.8423,-46 352.8423,-52 346.8423,-52"></path><text text-anchor="middle" x="329.8549" y="-29.8" font-family="Arial" font-size="14.00" fill="#000000">イオン</text></g><!-- クレジットカード:イオンカード&#45;&gt;イオン --><g id="edge-1" class="edge"><title>クレジットカード:イオンカード-&gt;イオン</title><path fill="none" stroke="#333333" stroke-width="2" stroke-opacity="0.600000" d="M259.8067,-34C259.8067,-34 290.5615,-34 290.5615,-34"></path><polygon fill="#333333" fill-opacity="0.600000" stroke="#333333" stroke-width="2" stroke-opacity="0.600000" points="290.5615,-37.5001 300.5615,-34 290.5614,-30.5001 290.5615,-37.5001"></polygon></g></g></svg>