<?xml version="1.0" encoding="UTF-8" standalone="no"?><!-- Generated by graphviz version 2.40.1 (20161225.0304)
 --><!-- Title: ndiag Pages: 1 --><svg width="542pt" height="101pt" viewBox="0.00 0.00 542.41 101.00" xmlns="http://www.w3.org/2000/svg" xmlns:xlink="http://www.w3.org/1999/xlink"><g id="graph0" class="graph" transform="scale(1 1) rotate(0) translate(4 97)"><title>ndiag</title><polygon fill="#ffffff" stroke="transparent" points="-4,4 -4,-97 538.4086,-97 538.4086,4 -4,4"></polygon><g id="clust2" class="cluster"><title>cluster_イオン銀行</title><polygon fill="none" stroke="#000000" stroke-width="2" points="194.3506,-8 194.3506,-85 448.4212,-85 448.4212,-8 194.3506,-8"></polygon><text text-anchor="middle" x="321.3859" y="-68.4" font-family="Arial" font-size="14.00" fill="#000000">イオン銀行</text></g><g id="clust1" class="cluster"><title>cluster_GMOあおぞらネット銀行</title><polygon fill="none" stroke="#000000" stroke-width="2" points="0,-8 0,-85 174.3506,-85 174.3506,-8 0,-8"></polygon><text text-anchor="middle" x="87.1753" y="-68.4" font-family="Arial" font-size="14.00" fill="#000000">GMOあおぞらネット銀行</text></g><!-- gmoあおぞらネット銀行:普通口座 --><g id="node1" class="node"><title>gmoあおぞらネット銀行:普通口座</title><path fill="#ffffff" stroke="#4b75b9" stroke-width="3" d="M115.5267,-52C115.5267,-52 57.8239,-52 57.8239,-52 51.8239,-52 45.8239,-46 45.8239,-40 45.8239,-40 45.8239,-28 45.8239,-28 45.8239,-22 51.8239,-16 57.8239,-16 57.8239,-16 115.5267,-16 115.5267,-16 121.5267,-16 127.5267,-22 127.5267,-28 127.5267,-28 127.5267,-40 127.5267,-40 127.5267,-46 121.5267,-52 115.5267,-52"></path><text text-anchor="middle" x="86.6753" y="-29.8" font-family="Arial" font-size="14.00" fill="#333333">普通口座</text></g><!-- イオン銀行:普通口座 --><g id="node2" class="node"><title>イオン銀行:普通口座</title><path fill="#ffffff" stroke="#4b75b9" stroke-width="3" d="M271.8773,-52C271.8773,-52 214.1745,-52 214.1745,-52 208.1745,-52 202.1745,-46 202.1745,-40 202.1745,-40 202.1745,-28 202.1745,-28 202.1745,-22 208.1745,-16 214.1745,-16 214.1745,-16 271.8773,-16 271.8773,-16 277.8773,-16 283.8773,-22 283.8773,-28 283.8773,-28 283.8773,-40 283.8773,-40 283.8773,-46 277.8773,-52 271.8773,-52"></path><text text-anchor="middle" x="243.0259" y="-29.8" font-family="Arial" font-size="14.00" fill="#333333">普通口座</text></g><!-- gmoあおぞらネット銀行:普通口座&#45;&gt;イオン銀行:普通口座 --><g id="edge-0" class="edge"><title>gmoあおぞらネット銀行:普通口座-&gt;イオン銀行:普通口座</title><path fill="none" stroke="#333333" stroke-width="2" stroke-opacity="0.600000" d="M127.7546,-34C127.7546,-34 192.221,-34 192.221,-34"></path><polygon fill="#333333" fill-opacity="0.600000" stroke="#333333" stroke-width="2" stroke-opacity="0.600000" points="192.221,-37.5001 202.221,-34 192.2209,-30.5001 192.221,-37.5001"></polygon></g><!-- イオン銀行:デビットカード --><g id="node3" class="node"><title>イオン銀行:デビットカード</title><path fill="#ffffff" stroke="#4b75b9" stroke-width="3" d="M428.2815,-52C428.2815,-52 331.8409,-52 331.8409,-52 325.8409,-52 319.8409,-46 319.8409,-40 319.8409,-40 319.8409,-28 319.8409,-28 319.8409,-22 325.8409,-16 331.8409,-16 331.8409,-16 428.2815,-16 428.2815,-16 434.2815,-16 440.2815,-22 440.2815,-28 440.2815,-28 440.2815,-40 440.2815,-40 440.2815,-46 434.2815,-52 428.2815,-52"></path><text text-anchor="middle" x="380.0612" y="-29.8" font-family="Arial" font-size="14.00" fill="#333333">デビットカード</text></g><!-- イオン銀行:普通口座&#45;&gt;イオン銀行:デビットカード --><g id="edge-1" class="edge"><title>イオン銀行:普通口座-&gt;イオン銀行:デビットカード</title><path fill="none" stroke="#333333" stroke-width="2" stroke-opacity="0.600000" d="M283.77,-34C283.77,-34 309.6883,-34 309.6883,-34"></path><polygon fill="#333333" fill-opacity="0.600000" stroke="#333333" stroke-width="2" stroke-opacity="0.600000" points="309.6884,-37.5001 319.6883,-34 309.6883,-30.5001 309.6884,-37.5001"></polygon></g><!-- イオン --><g id="node4" class="node"><title>イオン</title><path fill="none" stroke="#000000" stroke-width="2" d="M522.4023,-52C522.4023,-52 488.4275,-52 488.4275,-52 482.4275,-52 476.4275,-46 476.4275,-40 476.4275,-40 476.4275,-28 476.4275,-28 476.4275,-22 482.4275,-16 488.4275,-16 488.4275,-16 522.4023,-16 522.4023,-16 528.4023,-16 534.4023,-22 534.4023,-28 534.4023,-28 534.4023,-40 534.4023,-40 534.4023,-46 528.4023,-52 522.4023,-52"></path><text text-anchor="middle" x="505.4149" y="-29.8" font-family="Arial" font-size="14.00" fill="#000000">イオン</text></g><!-- イオン銀行:デビットカード&#45;&gt;イオン --><g id="edge-2" class="edge"><title>イオン銀行:デビットカード-&gt;イオン</title><path fill="none" stroke="#333333" stroke-width="2" stroke-opacity="0.600000" d="M440.535,-34C440.535,-34 466.1264,-34 466.1264,-34"></path><polygon fill="#333333" fill-opacity="0.600000" stroke="#333333" stroke-width="2" stroke-opacity="0.600000" points="466.1264,-37.5001 476.1264,-34 466.1264,-30.5001 466.1264,-37.5001"></polygon></g></g></svg>