<?xml version="1.0" encoding="UTF-8" standalone="no"?><!-- Generated by graphviz version 2.40.1 (20161225.0304)
 --><!-- Title: ndiag Pages: 1 --><svg width="437pt" height="101pt" viewBox="0.00 0.00 437.25 101.00" xmlns="http://www.w3.org/2000/svg" xmlns:xlink="http://www.w3.org/1999/xlink"><g id="graph0" class="graph" transform="scale(1 1) rotate(0) translate(4 97)"><title>ndiag</title><polygon fill="#ffffff" stroke="transparent" points="-4,4 -4,-97 433.2468,-97 433.2468,4 -4,4"></polygon><g id="clust2" class="cluster"><title>cluster_クレジットカード</title><polygon fill="none" stroke="#000000" stroke-width="2" points="151.0084,-8 151.0084,-85 333.9018,-85 333.9018,-8 151.0084,-8"></polygon><text text-anchor="middle" x="242.4551" y="-68.4" font-family="Arial" font-size="14.00" fill="#000000">クレジットカード</text></g><g id="clust1" class="cluster"><title>cluster_メインバンク</title><polygon fill="none" stroke="#000000" stroke-width="2" points="8,-8 8,-85 131.0084,-85 131.0084,-8 8,-8"></polygon><text text-anchor="middle" x="69.5042" y="-68.4" font-family="Arial" font-size="14.00" fill="#000000">メインバンク</text></g><!-- メインバンク:三菱ufj銀行 --><g id="node1" class="node"><title>メインバンク:三菱ufj銀行</title><path fill="#ffffff" stroke="#4b75b9" stroke-width="3" d="M111.0126,-52C111.0126,-52 27.9958,-52 27.9958,-52 21.9958,-52 15.9958,-46 15.9958,-40 15.9958,-40 15.9958,-28 15.9958,-28 15.9958,-22 21.9958,-16 27.9958,-16 27.9958,-16 111.0126,-16 111.0126,-16 117.0126,-16 123.0126,-22 123.0126,-28 123.0126,-28 123.0126,-40 123.0126,-40 123.0126,-46 117.0126,-52 111.0126,-52"></path><text text-anchor="middle" x="69.5042" y="-29.8" font-family="Arial" font-size="14.00" fill="#333333">三菱UFJ銀行</text></g><!-- クレジットカード:amazon masterカード --><g id="node2" class="node"><title>クレジットカード:amazon masterカード</title><path fill="#ffffff" stroke="#4b75b9" stroke-width="3" d="M313.8485,-52C313.8485,-52 171.0617,-52 171.0617,-52 165.0617,-52 159.0617,-46 159.0617,-40 159.0617,-40 159.0617,-28 159.0617,-28 159.0617,-22 165.0617,-16 171.0617,-16 171.0617,-16 313.8485,-16 313.8485,-16 319.8485,-16 325.8485,-22 325.8485,-28 325.8485,-28 325.8485,-40 325.8485,-40 325.8485,-46 319.8485,-52 313.8485,-52"></path><text text-anchor="middle" x="242.4551" y="-29.8" font-family="Arial" font-size="14.00" fill="#333333">Amazon Masterカード</text></g><!-- メインバンク:三菱ufj銀行&#45;&gt;クレジットカード:amazon masterカード --><g id="edge-0" class="edge"><title>メインバンク:三菱ufj銀行-&gt;クレジットカード:amazon masterカード</title><path fill="none" stroke="#333333" stroke-width="2" stroke-opacity="0.600000" d="M123.2789,-34C123.2789,-34 148.8649,-34 148.8649,-34"></path><polygon fill="#333333" fill-opacity="0.600000" stroke="#333333" stroke-width="2" stroke-opacity="0.600000" points="148.865,-37.5001 158.8649,-34 148.8649,-30.5001 148.865,-37.5001"></polygon></g><!-- amazon --><g id="node3" class="node"><title>amazon</title><path fill="none" stroke="#000000" stroke-width="2" d="M417.4202,-52C417.4202,-52 373.7284,-52 373.7284,-52 367.7284,-52 361.7284,-46 361.7284,-40 361.7284,-40 361.7284,-28 361.7284,-28 361.7284,-22 367.7284,-16 373.7284,-16 373.7284,-16 417.4202,-16 417.4202,-16 423.4202,-16 429.4202,-22 429.4202,-28 429.4202,-28 429.4202,-40 429.4202,-40 429.4202,-46 423.4202,-52 417.4202,-52"></path><text text-anchor="middle" x="395.5743" y="-29.8" font-family="Arial" font-size="14.00" fill="#000000">Amazon</text></g><!-- クレジットカード:amazon masterカード&#45;&gt;amazon --><g id="edge-1" class="edge"><title>クレジットカード:amazon masterカード-&gt;amazon</title><path fill="none" stroke="#333333" stroke-width="2" stroke-opacity="0.600000" d="M326.1828,-34C326.1828,-34 351.7346,-34 351.7346,-34"></path><polygon fill="#333333" fill-opacity="0.600000" stroke="#333333" stroke-width="2" stroke-opacity="0.600000" points="351.7347,-37.5001 361.7346,-34 351.7346,-30.5001 351.7347,-37.5001"></polygon></g></g></svg>