<?xml version="1.0" encoding="UTF-8" standalone="no"?><!-- Generated by graphviz version 2.40.1 (20161225.0304)
 --><!-- Title: ndiag Pages: 1 --><svg width="314pt" height="101pt" viewBox="0.00 0.00 314.24 101.00" xmlns="http://www.w3.org/2000/svg" xmlns:xlink="http://www.w3.org/1999/xlink"><g id="graph0" class="graph" transform="scale(1 1) rotate(0) translate(4 97)"><title>ndiag</title><polygon fill="#ffffff" stroke="transparent" points="-4,4 -4,-97 310.237,-97 310.237,4 -4,4"></polygon><g id="clust2" class="cluster"><title>cluster_プルデンシャル生命</title><polygon fill="none" stroke="#000000" stroke-width="2" points="150.0084,-8 150.0084,-85 306.237,-85 306.237,-8 150.0084,-8"></polygon><text text-anchor="middle" x="228.1227" y="-68.4" font-family="Arial" font-size="14.00" fill="#000000">プルデンシャル生命</text></g><g id="clust1" class="cluster"><title>cluster_メインバンク</title><polygon fill="none" stroke="#000000" stroke-width="2" points="8,-8 8,-85 131.0084,-85 131.0084,-8 8,-8"></polygon><text text-anchor="middle" x="69.5042" y="-68.4" font-family="Arial" font-size="14.00" fill="#000000">メインバンク</text></g><!-- メインバンク:三菱ufj銀行 --><g id="node1" class="node"><title>メインバンク:三菱ufj銀行</title><path fill="#ffffff" stroke="#4b75b9" stroke-width="3" d="M111.0126,-52C111.0126,-52 27.9958,-52 27.9958,-52 21.9958,-52 15.9958,-46 15.9958,-40 15.9958,-40 15.9958,-28 15.9958,-28 15.9958,-22 21.9958,-16 27.9958,-16 27.9958,-16 111.0126,-16 111.0126,-16 117.0126,-16 123.0126,-22 123.0126,-28 123.0126,-28 123.0126,-40 123.0126,-40 123.0126,-46 117.0126,-52 111.0126,-52"></path><text text-anchor="middle" x="69.5042" y="-29.8" font-family="Arial" font-size="14.00" fill="#333333">三菱UFJ銀行</text></g><!-- プルデンシャル生命:生命保険 --><g id="node2" class="node"><title>プルデンシャル生命:生命保険</title><path fill="#ffffff" stroke="#4b75b9" stroke-width="3" d="M258.3516,-52C258.3516,-52 196.8938,-52 196.8938,-52 190.8938,-52 184.8938,-46 184.8938,-40 184.8938,-40 184.8938,-28 184.8938,-28 184.8938,-22 190.8938,-16 196.8938,-16 196.8938,-16 258.3516,-16 258.3516,-16 264.3516,-16 270.3516,-22 270.3516,-28 270.3516,-28 270.3516,-40 270.3516,-40 270.3516,-46 264.3516,-52 258.3516,-52"></path><text text-anchor="middle" x="227.6227" y="-29.8" font-family="Arial" font-size="14.00" fill="#333333">生命保険</text></g><!-- メインバンク:三菱ufj銀行&#45;&gt;プルデンシャル生命:生命保険 --><g id="edge-0" class="edge"><title>メインバンク:三菱ufj銀行-&gt;プルデンシャル生命:生命保険</title><path fill="none" stroke="#333333" stroke-width="2" stroke-opacity="0.600000" d="M123.0359,-34C123.0359,-34 174.8791,-34 174.8791,-34"></path><polygon fill="#333333" fill-opacity="0.600000" stroke="#333333" stroke-width="2" stroke-opacity="0.600000" points="174.8792,-37.5001 184.8791,-34 174.8791,-30.5001 174.8792,-37.5001"></polygon></g></g></svg>