<?xml version="1.0" encoding="UTF-8" standalone="no"?><!-- Generated by graphviz version 2.40.1 (20161225.0304)
 --><!-- Title: ndiag Pages: 1 --><svg width="294pt" height="101pt" viewBox="0.00 0.00 293.58 101.00" xmlns="http://www.w3.org/2000/svg" xmlns:xlink="http://www.w3.org/1999/xlink"><g id="graph0" class="graph" transform="scale(1 1) rotate(0) translate(4 97)"><title>ndiag</title><polygon fill="#ffffff" stroke="transparent" points="-4,4 -4,-97 289.5792,-97 289.5792,4 -4,4"></polygon><g id="clust2" class="cluster"><title>cluster_プルデンシャル生命</title><polygon fill="none" stroke="#000000" stroke-width="2" points="129.3506,-8 129.3506,-85 285.5792,-85 285.5792,-8 129.3506,-8"></polygon><text text-anchor="middle" x="207.4649" y="-68.4" font-family="Arial" font-size="14.00" fill="#000000">プルデンシャル生命</text></g><g id="clust1" class="cluster"><title>cluster_三菱UFJ銀行</title><polygon fill="none" stroke="#000000" stroke-width="2" points="4,-8 4,-85 110.3506,-85 110.3506,-8 4,-8"></polygon><text text-anchor="middle" x="57.1753" y="-68.4" font-family="Arial" font-size="14.00" fill="#000000">三菱UFJ銀行</text></g><!-- 三菱ufj銀行:普通口座 --><g id="node1" class="node"><title>三菱ufj銀行:普通口座</title><path fill="#ffffff" stroke="#4b75b9" stroke-width="3" d="M85.5267,-52C85.5267,-52 27.8239,-52 27.8239,-52 21.8239,-52 15.8239,-46 15.8239,-40 15.8239,-40 15.8239,-28 15.8239,-28 15.8239,-22 21.8239,-16 27.8239,-16 27.8239,-16 85.5267,-16 85.5267,-16 91.5267,-16 97.5267,-22 97.5267,-28 97.5267,-28 97.5267,-40 97.5267,-40 97.5267,-46 91.5267,-52 85.5267,-52"></path><text text-anchor="middle" x="56.6753" y="-29.8" font-family="Arial" font-size="14.00" fill="#333333">普通口座</text></g><!-- プルデンシャル生命:生命保険 --><g id="node2" class="node"><title>プルデンシャル生命:生命保険</title><path fill="#ffffff" stroke="#4b75b9" stroke-width="3" d="M237.6938,-52C237.6938,-52 176.236,-52 176.236,-52 170.236,-52 164.236,-46 164.236,-40 164.236,-40 164.236,-28 164.236,-28 164.236,-22 170.236,-16 176.236,-16 176.236,-16 237.6938,-16 237.6938,-16 243.6938,-16 249.6938,-22 249.6938,-28 249.6938,-28 249.6938,-40 249.6938,-40 249.6938,-46 243.6938,-52 237.6938,-52"></path><text text-anchor="middle" x="206.9649" y="-29.8" font-family="Arial" font-size="14.00" fill="#333333">生命保険</text></g><!-- 三菱ufj銀行:普通口座&#45;&gt;プルデンシャル生命:生命保険 --><g id="edge-0" class="edge"><title>三菱ufj銀行:普通口座-&gt;プルデンシャル生命:生命保険</title><path fill="none" stroke="#333333" stroke-width="2" stroke-opacity="0.600000" d="M97.7426,-34C97.7426,-34 154.1116,-34 154.1116,-34"></path><polygon fill="#333333" fill-opacity="0.600000" stroke="#333333" stroke-width="2" stroke-opacity="0.600000" points="154.1117,-37.5001 164.1116,-34 154.1116,-30.5001 154.1117,-37.5001"></polygon></g></g></svg>