<?xml version="1.0" encoding="UTF-8" standalone="no"?><!-- Generated by graphviz version 2.40.1 (20161225.0304)
 --><!-- Title: ndiag Pages: 1 --><svg width="627pt" height="101pt" viewBox="0.00 0.00 627.30 101.00" xmlns="http://www.w3.org/2000/svg" xmlns:xlink="http://www.w3.org/1999/xlink"><g id="graph0" class="graph" transform="scale(1 1) rotate(0) translate(4 97)"><title>ndiag</title><polygon fill="#ffffff" stroke="transparent" points="-4,4 -4,-97 623.2978,-97 623.2978,4 -4,4"></polygon><g id="clust2" class="cluster"><title>cluster_クレジットカード</title><polygon fill="none" stroke="#000000" stroke-width="2" points="362.1744,-8 362.1744,-85 537.2978,-85 537.2978,-8 362.1744,-8"></polygon><text text-anchor="middle" x="449.7361" y="-68.4" font-family="Arial" font-size="14.00" fill="#000000">クレジットカード</text></g><g id="clust1" class="cluster"><title>cluster_メインバンク</title><polygon fill="none" stroke="#000000" stroke-width="2" points="8,-8 8,-85 342.1744,-85 342.1744,-8 8,-8"></polygon><text text-anchor="middle" x="175.0872" y="-68.4" font-family="Arial" font-size="14.00" fill="#000000">メインバンク</text></g><!-- メインバンク:gmoあおぞらネット銀行 --><g id="node1" class="node"><title>メインバンク:gmoあおぞらネット銀行</title><path fill="#ffffff" stroke="#4b75b9" stroke-width="3" d="M179.2491,-52C179.2491,-52 27.9169,-52 27.9169,-52 21.9169,-52 15.9169,-46 15.9169,-40 15.9169,-40 15.9169,-28 15.9169,-28 15.9169,-22 21.9169,-16 27.9169,-16 27.9169,-16 179.2491,-16 179.2491,-16 185.2491,-16 191.2491,-22 191.2491,-28 191.2491,-28 191.2491,-40 191.2491,-40 191.2491,-46 185.2491,-52 179.2491,-52"></path><text text-anchor="middle" x="103.583" y="-29.8" font-family="Arial" font-size="14.00" fill="#333333">GMOあおぞらネット銀行</text></g><!-- メインバンク:三菱ufj銀行 --><g id="node2" class="node"><title>メインバンク:三菱ufj銀行</title><path fill="#ffffff" stroke="#4b75b9" stroke-width="3" d="M322.1786,-52C322.1786,-52 239.1618,-52 239.1618,-52 233.1618,-52 227.1618,-46 227.1618,-40 227.1618,-40 227.1618,-28 227.1618,-28 227.1618,-22 233.1618,-16 239.1618,-16 239.1618,-16 322.1786,-16 322.1786,-16 328.1786,-16 334.1786,-22 334.1786,-28 334.1786,-28 334.1786,-40 334.1786,-40 334.1786,-46 328.1786,-52 322.1786,-52"></path><text text-anchor="middle" x="280.6702" y="-29.8" font-family="Arial" font-size="14.00" fill="#333333">三菱UFJ銀行</text></g><!-- メインバンク:gmoあおぞらネット銀行&#45;&gt;メインバンク:三菱ufj銀行 --><g id="edge-0" class="edge"><title>メインバンク:gmoあおぞらネット銀行-&gt;メインバンク:三菱ufj銀行</title><path fill="none" stroke="#333333" stroke-width="2" stroke-opacity="0.600000" d="M191.3484,-34C191.3484,-34 217.0144,-34 217.0144,-34"></path><polygon fill="#333333" fill-opacity="0.600000" stroke="#333333" stroke-width="2" stroke-opacity="0.600000" points="217.0144,-37.5001 227.0144,-34 217.0144,-30.5001 217.0144,-37.5001"></polygon></g><!-- クレジットカード:visa line payカード --><g id="node3" class="node"><title>クレジットカード:visa line payカード</title><path fill="#ffffff" stroke="#4b75b9" stroke-width="3" d="M517.3595,-52C517.3595,-52 382.1127,-52 382.1127,-52 376.1127,-52 370.1127,-46 370.1127,-40 370.1127,-40 370.1127,-28 370.1127,-28 370.1127,-22 376.1127,-16 382.1127,-16 382.1127,-16 517.3595,-16 517.3595,-16 523.3595,-16 529.3595,-22 529.3595,-28 529.3595,-28 529.3595,-40 529.3595,-40 529.3595,-46 523.3595,-52 517.3595,-52"></path><text text-anchor="middle" x="449.7361" y="-29.8" font-family="Arial" font-size="14.00" fill="#333333">Visa LINE Payカード</text></g><!-- メインバンク:三菱ufj銀行&#45;&gt;クレジットカード:visa line payカード --><g id="edge-1" class="edge"><title>メインバンク:三菱ufj銀行-&gt;クレジットカード:visa line payカード</title><path fill="none" stroke="#333333" stroke-width="2" stroke-opacity="0.600000" d="M334.6285,-34C334.6285,-34 360.1025,-34 360.1025,-34"></path><polygon fill="#333333" fill-opacity="0.600000" stroke="#333333" stroke-width="2" stroke-opacity="0.600000" points="360.1026,-37.5001 370.1025,-34 360.1025,-30.5001 360.1026,-37.5001"></polygon></g><!-- 世界 --><g id="node4" class="node"><title>世界</title><path fill="none" stroke="#000000" stroke-width="2" d="M607.2978,-52C607.2978,-52 577.2978,-52 577.2978,-52 571.2978,-52 565.2978,-46 565.2978,-40 565.2978,-40 565.2978,-28 565.2978,-28 565.2978,-22 571.2978,-16 577.2978,-16 577.2978,-16 607.2978,-16 607.2978,-16 613.2978,-16 619.2978,-22 619.2978,-28 619.2978,-28 619.2978,-40 619.2978,-40 619.2978,-46 613.2978,-52 607.2978,-52"></path><text text-anchor="middle" x="592.2978" y="-29.8" font-family="Arial" font-size="14.00" fill="#000000">世界</text></g><!-- クレジットカード:visa line payカード&#45;&gt;世界 --><g id="edge-2" class="edge"><title>クレジットカード:visa line payカード-&gt;世界</title><path fill="none" stroke="#333333" stroke-width="2" stroke-opacity="0.600000" d="M529.3532,-34C529.3532,-34 555.1842,-34 555.1842,-34"></path><polygon fill="#333333" fill-opacity="0.600000" stroke="#333333" stroke-width="2" stroke-opacity="0.600000" points="555.1843,-37.5001 565.1842,-34 555.1842,-30.5001 555.1843,-37.5001"></polygon></g></g></svg>