<?xml version="1.0" encoding="UTF-8" standalone="no"?><!-- Generated by graphviz version 2.40.1 (20161225.0304)
 --><!-- Title: ndiag Pages: 1 --><svg width="321pt" height="101pt" viewBox="0.00 0.00 321.47 101.00" xmlns="http://www.w3.org/2000/svg" xmlns:xlink="http://www.w3.org/1999/xlink"><g id="graph0" class="graph" transform="scale(1 1) rotate(0) translate(4 97)"><title>ndiag</title><polygon fill="#ffffff" stroke="transparent" points="-4,4 -4,-97 317.474,-97 317.474,4 -4,4"></polygon><g id="clust2" class="cluster"><title>cluster_LINE</title><polygon fill="none" stroke="#000000" stroke-width="2" points="130.3506,-8 130.3506,-85 305.474,-85 305.474,-8 130.3506,-8"></polygon><text text-anchor="middle" x="217.9123" y="-68.4" font-family="Arial" font-size="14.00" fill="#000000">LINE</text></g><g id="clust1" class="cluster"><title>cluster_三菱UFJ銀行</title><polygon fill="none" stroke="#000000" stroke-width="2" points="4,-8 4,-85 110.3506,-85 110.3506,-8 4,-8"></polygon><text text-anchor="middle" x="57.1753" y="-68.4" font-family="Arial" font-size="14.00" fill="#000000">三菱UFJ銀行</text></g><!-- 三菱ufj銀行:普通口座 --><g id="node1" class="node"><title>三菱ufj銀行:普通口座</title><path fill="#ffffff" stroke="#4b75b9" stroke-width="3" d="M85.5267,-52C85.5267,-52 27.8239,-52 27.8239,-52 21.8239,-52 15.8239,-46 15.8239,-40 15.8239,-40 15.8239,-28 15.8239,-28 15.8239,-22 21.8239,-16 27.8239,-16 27.8239,-16 85.5267,-16 85.5267,-16 91.5267,-16 97.5267,-22 97.5267,-28 97.5267,-28 97.5267,-40 97.5267,-40 97.5267,-46 91.5267,-52 85.5267,-52"></path><text text-anchor="middle" x="56.6753" y="-29.8" font-family="Arial" font-size="14.00" fill="#333333">普通口座</text></g><!-- line:visa line payカード --><g id="node2" class="node"><title>line:visa line payカード</title><path fill="#ffffff" stroke="#4b75b9" stroke-width="3" d="M285.5357,-52C285.5357,-52 150.2889,-52 150.2889,-52 144.2889,-52 138.2889,-46 138.2889,-40 138.2889,-40 138.2889,-28 138.2889,-28 138.2889,-22 144.2889,-16 150.2889,-16 150.2889,-16 285.5357,-16 285.5357,-16 291.5357,-16 297.5357,-22 297.5357,-28 297.5357,-28 297.5357,-40 297.5357,-40 297.5357,-46 291.5357,-52 285.5357,-52"></path><text text-anchor="middle" x="217.9123" y="-29.8" font-family="Arial" font-size="14.00" fill="#333333">Visa LINE Payカード</text></g><!-- 三菱ufj銀行:普通口座&#45;&gt;line:visa line payカード --><g id="edge-0" class="edge"><title>三菱ufj銀行:普通口座-&gt;line:visa line payカード</title><path fill="none" stroke="#333333" stroke-width="2" stroke-opacity="0.600000" d="M97.3622,-34C97.3622,-34 128.2533,-34 128.2533,-34"></path><polygon fill="#333333" fill-opacity="0.600000" stroke="#333333" stroke-width="2" stroke-opacity="0.600000" points="128.2533,-37.5001 138.2533,-34 128.2533,-30.5001 128.2533,-37.5001"></polygon></g></g></svg>