<?xml version="1.0" encoding="UTF-8" standalone="no"?><!-- Generated by graphviz version 2.40.1 (20161225.0304)
 --><!-- Title: ndiag Pages: 1 --><svg width="476pt" height="101pt" viewBox="0.00 0.00 475.94 101.00" xmlns="http://www.w3.org/2000/svg" xmlns:xlink="http://www.w3.org/1999/xlink"><g id="graph0" class="graph" transform="scale(1 1) rotate(0) translate(4 97)"><title>ndiag</title><polygon fill="#ffffff" stroke="transparent" points="-4,4 -4,-97 471.9424,-97 471.9424,4 -4,4"></polygon><g id="clust2" class="cluster"><title>cluster_セゾンカード</title><polygon fill="none" stroke="#000000" stroke-width="2" points="194.3506,-8 194.3506,-85 309.561,-85 309.561,-8 194.3506,-8"></polygon><text text-anchor="middle" x="251.9558" y="-68.4" font-family="Arial" font-size="14.00" fill="#000000">セゾンカード</text></g><g id="clust1" class="cluster"><title>cluster_GMOあおぞらネット銀行</title><polygon fill="none" stroke="#000000" stroke-width="2" points="0,-8 0,-85 174.3506,-85 174.3506,-8 0,-8"></polygon><text text-anchor="middle" x="87.1753" y="-68.4" font-family="Arial" font-size="14.00" fill="#000000">GMOあおぞらネット銀行</text></g><!-- gmoあおぞらネット銀行:普通口座 --><g id="node1" class="node"><title>gmoあおぞらネット銀行:普通口座</title><path fill="#ffffff" stroke="#4b75b9" stroke-width="3" d="M115.5267,-52C115.5267,-52 57.8239,-52 57.8239,-52 51.8239,-52 45.8239,-46 45.8239,-40 45.8239,-40 45.8239,-28 45.8239,-28 45.8239,-22 51.8239,-16 57.8239,-16 57.8239,-16 115.5267,-16 115.5267,-16 121.5267,-16 127.5267,-22 127.5267,-28 127.5267,-28 127.5267,-40 127.5267,-40 127.5267,-46 121.5267,-52 115.5267,-52"></path><text text-anchor="middle" x="86.6753" y="-29.8" font-family="Arial" font-size="14.00" fill="#333333">普通口座</text></g><!-- セゾンカード:三井カード --><g id="node2" class="node"><title>セゾンカード:三井カード</title><path fill="#ffffff" stroke="#4b75b9" stroke-width="3" d="M285.6664,-52C285.6664,-52 217.2452,-52 217.2452,-52 211.2452,-52 205.2452,-46 205.2452,-40 205.2452,-40 205.2452,-28 205.2452,-28 205.2452,-22 211.2452,-16 217.2452,-16 217.2452,-16 285.6664,-16 285.6664,-16 291.6664,-16 297.6664,-22 297.6664,-28 297.6664,-28 297.6664,-40 297.6664,-40 297.6664,-46 291.6664,-52 285.6664,-52"></path><text text-anchor="middle" x="251.4558" y="-29.8" font-family="Arial" font-size="14.00" fill="#333333">三井カード</text></g><!-- gmoあおぞらネット銀行:普通口座&#45;&gt;セゾンカード:三井カード --><g id="edge-0" class="edge"><title>gmoあおぞらネット銀行:普通口座-&gt;セゾンカード:三井カード</title><path fill="none" stroke="#333333" stroke-width="2" stroke-opacity="0.600000" d="M127.4076,-34C127.4076,-34 195.0807,-34 195.0807,-34"></path><polygon fill="#333333" fill-opacity="0.600000" stroke="#333333" stroke-width="2" stroke-opacity="0.600000" points="195.0807,-37.5001 205.0807,-34 195.0807,-30.5001 195.0807,-37.5001"></polygon></g><!-- ららぽーとなど --><g id="node3" class="node"><title>ららぽーとなど</title><path fill="none" stroke="#000000" stroke-width="2" d="M456.1337,-52C456.1337,-52 349.3697,-52 349.3697,-52 343.3697,-52 337.3697,-46 337.3697,-40 337.3697,-40 337.3697,-28 337.3697,-28 337.3697,-22 343.3697,-16 349.3697,-16 349.3697,-16 456.1337,-16 456.1337,-16 462.1337,-16 468.1337,-22 468.1337,-28 468.1337,-28 468.1337,-40 468.1337,-40 468.1337,-46 462.1337,-52 456.1337,-52"></path><text text-anchor="middle" x="402.7517" y="-29.8" font-family="Arial" font-size="14.00" fill="#000000">ららぽーとなど</text></g><!-- セゾンカード:三井カード&#45;&gt;ららぽーとなど --><g id="edge-1" class="edge"><title>セゾンカード:三井カード-&gt;ららぽーとなど</title><path fill="none" stroke="#333333" stroke-width="2" stroke-opacity="0.600000" d="M297.6717,-34C297.6717,-34 327.326,-34 327.326,-34"></path><polygon fill="#333333" fill-opacity="0.600000" stroke="#333333" stroke-width="2" stroke-opacity="0.600000" points="327.3261,-37.5001 337.326,-34 327.326,-30.5001 327.3261,-37.5001"></polygon></g></g></svg>