<?xml version="1.0" encoding="UTF-8" standalone="no"?><!-- Generated by graphviz version 2.40.1 (20161225.0304)
 --><!-- Title: ndiag Pages: 1 --><svg width="264pt" height="101pt" viewBox="0.00 0.00 264.35 101.00" xmlns="http://www.w3.org/2000/svg" xmlns:xlink="http://www.w3.org/1999/xlink"><g id="graph0" class="graph" transform="scale(1 1) rotate(0) translate(4 97)"><title>ndiag</title><polygon fill="#ffffff" stroke="transparent" points="-4,4 -4,-97 260.3506,-97 260.3506,4 -4,4"></polygon><g id="clust1" class="cluster"><title>cluster_GMOあおぞらネット銀行</title><polygon fill="none" stroke="#000000" stroke-width="2" points="82,-8 82,-85 256.3506,-85 256.3506,-8 82,-8"></polygon><text text-anchor="middle" x="169.1753" y="-68.4" font-family="Arial" font-size="14.00" fill="#000000">GMOあおぞらネット銀行</text></g><!-- gmoあおぞらネット銀行:普通口座 --><g id="node1" class="node"><title>gmoあおぞらネット銀行:普通口座</title><path fill="#ffffff" stroke="#4b75b9" stroke-width="3" d="M197.5267,-52C197.5267,-52 139.8239,-52 139.8239,-52 133.8239,-52 127.8239,-46 127.8239,-40 127.8239,-40 127.8239,-28 127.8239,-28 127.8239,-22 133.8239,-16 139.8239,-16 139.8239,-16 197.5267,-16 197.5267,-16 203.5267,-16 209.5267,-22 209.5267,-28 209.5267,-28 209.5267,-40 209.5267,-40 209.5267,-46 203.5267,-52 197.5267,-52"></path><text text-anchor="middle" x="168.6753" y="-29.8" font-family="Arial" font-size="14.00" fill="#333333">普通口座</text></g><!-- 会社 --><g id="node2" class="node"><title>会社</title><path fill="none" stroke="#000000" stroke-width="2" d="M42,-52C42,-52 12,-52 12,-52 6,-52 0,-46 0,-40 0,-40 0,-28 0,-28 0,-22 6,-16 12,-16 12,-16 42,-16 42,-16 48,-16 54,-22 54,-28 54,-28 54,-40 54,-40 54,-46 48,-52 42,-52"></path><text text-anchor="middle" x="27" y="-29.8" font-family="Arial" font-size="14.00" fill="#000000">会社</text></g><!-- 会社&#45;&gt;gmoあおぞらネット銀行:普通口座 --><g id="edge-0" class="edge"><title>会社-&gt;gmoあおぞらネット銀行:普通口座</title><path fill="none" stroke="#333333" stroke-width="2" stroke-opacity="0.600000" d="M54.3164,-34C54.3164,-34 117.7564,-34 117.7564,-34"></path><polygon fill="#333333" fill-opacity="0.600000" stroke="#333333" stroke-width="2" stroke-opacity="0.600000" points="117.7564,-37.5001 127.7564,-34 117.7563,-30.5001 117.7564,-37.5001"></polygon></g></g></svg>