<?xml version="1.0" encoding="UTF-8" standalone="no"?><!-- Generated by graphviz version 2.40.1 (20161225.0304)
 --><!-- Title: ndiag Pages: 1 --><svg width="558pt" height="101pt" viewBox="0.00 0.00 557.84 101.00" xmlns="http://www.w3.org/2000/svg" xmlns:xlink="http://www.w3.org/1999/xlink"><g id="graph0" class="graph" transform="scale(1 1) rotate(0) translate(4 97)"><title>ndiag</title><polygon fill="#ffffff" stroke="transparent" points="-4,4 -4,-97 553.843,-97 553.843,4 -4,4"></polygon><g id="clust3" class="cluster"><title>cluster_楽天証券</title><polygon fill="none" stroke="#000000" stroke-width="2" points="451.155,-8 451.155,-85 541.843,-85 541.843,-8 451.155,-8"></polygon><text text-anchor="middle" x="496.499" y="-68.4" font-family="Arial" font-size="14.00" fill="#000000">楽天証券</text></g><g id="clust2" class="cluster"><title>cluster_楽天銀行</title><polygon fill="none" stroke="#000000" stroke-width="2" points="194.3506,-8 194.3506,-85 431.155,-85 431.155,-8 194.3506,-8"></polygon><text text-anchor="middle" x="312.7528" y="-68.4" font-family="Arial" font-size="14.00" fill="#000000">楽天銀行</text></g><g id="clust1" class="cluster"><title>cluster_GMOあおぞらネット銀行</title><polygon fill="none" stroke="#000000" stroke-width="2" points="0,-8 0,-85 174.3506,-85 174.3506,-8 0,-8"></polygon><text text-anchor="middle" x="87.1753" y="-68.4" font-family="Arial" font-size="14.00" fill="#000000">GMOあおぞらネット銀行</text></g><!-- gmoあおぞらネット銀行:普通口座 --><g id="node1" class="node"><title>gmoあおぞらネット銀行:普通口座</title><path fill="#ffffff" stroke="#4b75b9" stroke-width="3" d="M115.5267,-52C115.5267,-52 57.8239,-52 57.8239,-52 51.8239,-52 45.8239,-46 45.8239,-40 45.8239,-40 45.8239,-28 45.8239,-28 45.8239,-22 51.8239,-16 57.8239,-16 57.8239,-16 115.5267,-16 115.5267,-16 121.5267,-16 127.5267,-22 127.5267,-28 127.5267,-28 127.5267,-40 127.5267,-40 127.5267,-46 121.5267,-52 115.5267,-52"></path><text text-anchor="middle" x="86.6753" y="-29.8" font-family="Arial" font-size="14.00" fill="#333333">普通口座</text></g><!-- 楽天銀行:普通口座 --><g id="node2" class="node"><title>楽天銀行:普通口座</title><path fill="#ffffff" stroke="#4b75b9" stroke-width="3" d="M271.8773,-52C271.8773,-52 214.1745,-52 214.1745,-52 208.1745,-52 202.1745,-46 202.1745,-40 202.1745,-40 202.1745,-28 202.1745,-28 202.1745,-22 208.1745,-16 214.1745,-16 214.1745,-16 271.8773,-16 271.8773,-16 277.8773,-16 283.8773,-22 283.8773,-28 283.8773,-28 283.8773,-40 283.8773,-40 283.8773,-46 277.8773,-52 271.8773,-52"></path><text text-anchor="middle" x="243.0259" y="-29.8" font-family="Arial" font-size="14.00" fill="#333333">普通口座</text></g><!-- gmoあおぞらネット銀行:普通口座&#45;&gt;楽天銀行:普通口座 --><g id="edge-0" class="edge"><title>gmoあおぞらネット銀行:普通口座-&gt;楽天銀行:普通口座</title><path fill="none" stroke="#333333" stroke-width="2" stroke-opacity="0.600000" d="M127.7546,-34C127.7546,-34 192.221,-34 192.221,-34"></path><polygon fill="#333333" fill-opacity="0.600000" stroke="#333333" stroke-width="2" stroke-opacity="0.600000" points="192.221,-37.5001 202.221,-34 192.2209,-30.5001 192.221,-37.5001"></polygon></g><!-- 楽天銀行:楽天カード --><g id="node3" class="node"><title>楽天銀行:楽天カード</title><path fill="#ffffff" stroke="#4b75b9" stroke-width="3" d="M411.3829,-52C411.3829,-52 331.4733,-52 331.4733,-52 325.4733,-52 319.4733,-46 319.4733,-40 319.4733,-40 319.4733,-28 319.4733,-28 319.4733,-22 325.4733,-16 331.4733,-16 331.4733,-16 411.3829,-16 411.3829,-16 417.3829,-16 423.3829,-22 423.3829,-28 423.3829,-28 423.3829,-40 423.3829,-40 423.3829,-46 417.3829,-52 411.3829,-52"></path><text text-anchor="middle" x="371.4281" y="-29.8" font-family="Arial" font-size="14.00" fill="#333333">楽天カード</text></g><!-- 楽天銀行:普通口座&#45;&gt;楽天銀行:楽天カード --><g id="edge-1" class="edge"><title>楽天銀行:普通口座-&gt;楽天銀行:楽天カード</title><path fill="none" stroke="#333333" stroke-width="2" stroke-opacity="0.600000" d="M284.0062,-34C284.0062,-34 309.5533,-34 309.5533,-34"></path><polygon fill="#333333" fill-opacity="0.600000" stroke="#333333" stroke-width="2" stroke-opacity="0.600000" points="309.5534,-37.5001 319.5533,-34 309.5533,-30.5001 309.5534,-37.5001"></polygon></g><!-- 楽天証券:積立nisa --><g id="node4" class="node"><title>楽天証券:積立nisa</title><path fill="#ffffff" stroke="#4b75b9" stroke-width="3" d="M521.6876,-52C521.6876,-52 471.3104,-52 471.3104,-52 465.3104,-52 459.3104,-46 459.3104,-40 459.3104,-40 459.3104,-28 459.3104,-28 459.3104,-22 465.3104,-16 471.3104,-16 471.3104,-16 521.6876,-16 521.6876,-16 527.6876,-16 533.6876,-22 533.6876,-28 533.6876,-28 533.6876,-40 533.6876,-40 533.6876,-46 527.6876,-52 521.6876,-52"></path><text text-anchor="middle" x="496.499" y="-29.8" font-family="Arial" font-size="14.00" fill="#333333">積立NISA</text></g><!-- 楽天銀行:楽天カード&#45;&gt;楽天証券:積立nisa --><g id="edge-2" class="edge"><title>楽天銀行:楽天カード-&gt;楽天証券:積立nisa</title><path fill="none" stroke="#333333" stroke-width="2" stroke-opacity="0.600000" d="M423.3829,-34C423.3829,-34 449.0014,-34 449.0014,-34"></path><polygon fill="#333333" fill-opacity="0.600000" stroke="#333333" stroke-width="2" stroke-opacity="0.600000" points="449.0014,-37.5001 459.0014,-34 449.0014,-30.5001 449.0014,-37.5001"></polygon></g></g></svg>