<?xml version="1.0" encoding="UTF-8" standalone="no"?><!-- Generated by graphviz version 2.40.1 (20161225.0304)
 --><!-- Title: ndiag Pages: 1 --><svg width="417pt" height="101pt" viewBox="0.00 0.00 416.59 101.00" xmlns="http://www.w3.org/2000/svg" xmlns:xlink="http://www.w3.org/1999/xlink"><g id="graph0" class="graph" transform="scale(1 1) rotate(0) translate(4 97)"><title>ndiag</title><polygon fill="#ffffff" stroke="transparent" points="-4,4 -4,-97 412.589,-97 412.589,4 -4,4"></polygon><g id="clust2" class="cluster"><title>cluster_三井住友カード</title><polygon fill="none" stroke="#000000" stroke-width="2" points="130.3506,-8 130.3506,-85 313.244,-85 313.244,-8 130.3506,-8"></polygon><text text-anchor="middle" x="221.7973" y="-68.4" font-family="Arial" font-size="14.00" fill="#000000">三井住友カード</text></g><g id="clust1" class="cluster"><title>cluster_三菱UFJ銀行</title><polygon fill="none" stroke="#000000" stroke-width="2" points="4,-8 4,-85 110.3506,-85 110.3506,-8 4,-8"></polygon><text text-anchor="middle" x="57.1753" y="-68.4" font-family="Arial" font-size="14.00" fill="#000000">三菱UFJ銀行</text></g><!-- 三菱ufj銀行:普通口座 --><g id="node1" class="node"><title>三菱ufj銀行:普通口座</title><path fill="#ffffff" stroke="#4b75b9" stroke-width="3" d="M85.5267,-52C85.5267,-52 27.8239,-52 27.8239,-52 21.8239,-52 15.8239,-46 15.8239,-40 15.8239,-40 15.8239,-28 15.8239,-28 15.8239,-22 21.8239,-16 27.8239,-16 27.8239,-16 85.5267,-16 85.5267,-16 91.5267,-16 97.5267,-22 97.5267,-28 97.5267,-28 97.5267,-40 97.5267,-40 97.5267,-46 91.5267,-52 85.5267,-52"></path><text text-anchor="middle" x="56.6753" y="-29.8" font-family="Arial" font-size="14.00" fill="#333333">普通口座</text></g><!-- 三井住友カード:amazon masterカード --><g id="node2" class="node"><title>三井住友カード:amazon masterカード</title><path fill="#ffffff" stroke="#4b75b9" stroke-width="3" d="M293.1907,-52C293.1907,-52 150.4039,-52 150.4039,-52 144.4039,-52 138.4039,-46 138.4039,-40 138.4039,-40 138.4039,-28 138.4039,-28 138.4039,-22 144.4039,-16 150.4039,-16 150.4039,-16 293.1907,-16 293.1907,-16 299.1907,-16 305.1907,-22 305.1907,-28 305.1907,-28 305.1907,-40 305.1907,-40 305.1907,-46 299.1907,-52 293.1907,-52"></path><text text-anchor="middle" x="221.7973" y="-29.8" font-family="Arial" font-size="14.00" fill="#333333">Amazon Masterカード</text></g><!-- 三菱ufj銀行:普通口座&#45;&gt;三井住友カード:amazon masterカード --><g id="edge-0" class="edge"><title>三菱ufj銀行:普通口座-&gt;三井住友カード:amazon masterカード</title><path fill="none" stroke="#333333" stroke-width="2" stroke-opacity="0.600000" d="M97.492,-34C97.492,-34 128.197,-34 128.197,-34"></path><polygon fill="#333333" fill-opacity="0.600000" stroke="#333333" stroke-width="2" stroke-opacity="0.600000" points="128.197,-37.5001 138.197,-34 128.197,-30.5001 128.197,-37.5001"></polygon></g><!-- amazon --><g id="node3" class="node"><title>amazon</title><path fill="none" stroke="#000000" stroke-width="2" d="M396.7624,-52C396.7624,-52 353.0706,-52 353.0706,-52 347.0706,-52 341.0706,-46 341.0706,-40 341.0706,-40 341.0706,-28 341.0706,-28 341.0706,-22 347.0706,-16 353.0706,-16 353.0706,-16 396.7624,-16 396.7624,-16 402.7624,-16 408.7624,-22 408.7624,-28 408.7624,-28 408.7624,-40 408.7624,-40 408.7624,-46 402.7624,-52 396.7624,-52"></path><text text-anchor="middle" x="374.9165" y="-29.8" font-family="Arial" font-size="14.00" fill="#000000">Amazon</text></g><!-- 三井住友カード:amazon masterカード&#45;&gt;amazon --><g id="edge-1" class="edge"><title>三井住友カード:amazon masterカード-&gt;amazon</title><path fill="none" stroke="#333333" stroke-width="2" stroke-opacity="0.600000" d="M305.525,-34C305.525,-34 331.0768,-34 331.0768,-34"></path><polygon fill="#333333" fill-opacity="0.600000" stroke="#333333" stroke-width="2" stroke-opacity="0.600000" points="331.0769,-37.5001 341.0768,-34 331.0768,-30.5001 331.0769,-37.5001"></polygon></g></g></svg>