<?xml version="1.0" encoding="UTF-8" standalone="no"?><!-- Generated by graphviz version 2.40.1 (20161225.0304)
 --><!-- Title: ndiag Pages: 1 --><svg width="578pt" height="101pt" viewBox="0.00 0.00 578.01 101.00" xmlns="http://www.w3.org/2000/svg" xmlns:xlink="http://www.w3.org/1999/xlink"><g id="graph0" class="graph" transform="scale(1 1) rotate(0) translate(4 97)"><title>ndiag</title><polygon fill="#ffffff" stroke="transparent" points="-4,4 -4,-97 574.0146,-97 574.0146,4 -4,4"></polygon><g id="clust3" class="cluster"><title>cluster_クレジットカード</title><polygon fill="none" stroke="#000000" stroke-width="2" points="348.159,-8 348.159,-85 484.0272,-85 484.0272,-8 348.159,-8"></polygon><text text-anchor="middle" x="416.0931" y="-68.4" font-family="Arial" font-size="14.00" fill="#000000">クレジットカード</text></g><g id="clust2" class="cluster"><title>cluster_サブバンク</title><polygon fill="none" stroke="#000000" stroke-width="2" points="219.166,-8 219.166,-85 328.159,-85 328.159,-8 219.166,-8"></polygon><text text-anchor="middle" x="273.6625" y="-68.4" font-family="Arial" font-size="14.00" fill="#000000">サブバンク</text></g><g id="clust1" class="cluster"><title>cluster_メインバンク</title><polygon fill="none" stroke="#000000" stroke-width="2" points="8,-8 8,-85 199.166,-85 199.166,-8 8,-8"></polygon><text text-anchor="middle" x="103.583" y="-68.4" font-family="Arial" font-size="14.00" fill="#000000">メインバンク</text></g><!-- メインバンク:gmoあおぞらネット銀行 --><g id="node1" class="node"><title>メインバンク:gmoあおぞらネット銀行</title><path fill="#ffffff" stroke="#4b75b9" stroke-width="3" d="M179.2491,-52C179.2491,-52 27.9169,-52 27.9169,-52 21.9169,-52 15.9169,-46 15.9169,-40 15.9169,-40 15.9169,-28 15.9169,-28 15.9169,-22 21.9169,-16 27.9169,-16 27.9169,-16 179.2491,-16 179.2491,-16 185.2491,-16 191.2491,-22 191.2491,-28 191.2491,-28 191.2491,-40 191.2491,-40 191.2491,-46 185.2491,-52 179.2491,-52"></path><text text-anchor="middle" x="103.583" y="-29.8" font-family="Arial" font-size="14.00" fill="#333333">GMOあおぞらネット銀行</text></g><!-- サブバンク:イオン銀行 --><g id="node2" class="node"><title>サブバンク:イオン銀行</title><path fill="#ffffff" stroke="#4b75b9" stroke-width="3" d="M308.1555,-52C308.1555,-52 239.1695,-52 239.1695,-52 233.1695,-52 227.1695,-46 227.1695,-40 227.1695,-40 227.1695,-28 227.1695,-28 227.1695,-22 233.1695,-16 239.1695,-16 239.1695,-16 308.1555,-16 308.1555,-16 314.1555,-16 320.1555,-22 320.1555,-28 320.1555,-28 320.1555,-40 320.1555,-40 320.1555,-46 314.1555,-52 308.1555,-52"></path><text text-anchor="middle" x="273.6625" y="-29.8" font-family="Arial" font-size="14.00" fill="#333333">イオン銀行</text></g><!-- メインバンク:gmoあおぞらネット銀行&#45;&gt;サブバンク:イオン銀行 --><g id="edge-0" class="edge"><title>メインバンク:gmoあおぞらネット銀行-&gt;サブバンク:イオン銀行</title><path fill="none" stroke="#333333" stroke-width="2" stroke-opacity="0.600000" d="M191.6119,-34C191.6119,-34 216.8465,-34 216.8465,-34"></path><polygon fill="#333333" fill-opacity="0.600000" stroke="#333333" stroke-width="2" stroke-opacity="0.600000" points="216.8465,-37.5001 226.8465,-34 216.8464,-30.5001 216.8465,-37.5001"></polygon></g><!-- クレジットカード:イオンカード --><g id="node3" class="node"><title>クレジットカード:イオンカード</title><path fill="#ffffff" stroke="#4b75b9" stroke-width="3" d="M458.9614,-52C458.9614,-52 372.2248,-52 372.2248,-52 366.2248,-52 360.2248,-46 360.2248,-40 360.2248,-40 360.2248,-28 360.2248,-28 360.2248,-22 366.2248,-16 372.2248,-16 372.2248,-16 458.9614,-16 458.9614,-16 464.9614,-16 470.9614,-22 470.9614,-28 470.9614,-28 470.9614,-40 470.9614,-40 470.9614,-46 464.9614,-52 458.9614,-52"></path><text text-anchor="middle" x="415.5931" y="-29.8" font-family="Arial" font-size="14.00" fill="#333333">イオンカード</text></g><!-- サブバンク:イオン銀行&#45;&gt;クレジットカード:イオンカード --><g id="edge-1" class="edge"><title>サブバンク:イオン銀行-&gt;クレジットカード:イオンカード</title><path fill="none" stroke="#333333" stroke-width="2" stroke-opacity="0.600000" d="M320.5292,-34C320.5292,-34 350.1466,-34 350.1466,-34"></path><polygon fill="#333333" fill-opacity="0.600000" stroke="#333333" stroke-width="2" stroke-opacity="0.600000" points="350.1466,-37.5001 360.1466,-34 350.1465,-30.5001 350.1466,-37.5001"></polygon></g><!-- イオン --><g id="node4" class="node"><title>イオン</title><path fill="none" stroke="#000000" stroke-width="2" d="M558.0083,-52C558.0083,-52 524.0335,-52 524.0335,-52 518.0335,-52 512.0335,-46 512.0335,-40 512.0335,-40 512.0335,-28 512.0335,-28 512.0335,-22 518.0335,-16 524.0335,-16 524.0335,-16 558.0083,-16 558.0083,-16 564.0083,-16 570.0083,-22 570.0083,-28 570.0083,-28 570.0083,-40 570.0083,-40 570.0083,-46 564.0083,-52 558.0083,-52"></path><text text-anchor="middle" x="541.0209" y="-29.8" font-family="Arial" font-size="14.00" fill="#000000">イオン</text></g><!-- クレジットカード:イオンカード&#45;&gt;イオン --><g id="edge-2" class="edge"><title>クレジットカード:イオンカード-&gt;イオン</title><path fill="none" stroke="#333333" stroke-width="2" stroke-opacity="0.600000" d="M470.9727,-34C470.9727,-34 501.7275,-34 501.7275,-34"></path><polygon fill="#333333" fill-opacity="0.600000" stroke="#333333" stroke-width="2" stroke-opacity="0.600000" points="501.7275,-37.5001 511.7275,-34 501.7274,-30.5001 501.7275,-37.5001"></polygon></g></g></svg>