<?xml version="1.0" encoding="UTF-8" standalone="no"?><!-- Generated by graphviz version 2.40.1 (20161225.0304)
 --><!-- Title: ndiag Pages: 1 --><svg width="245pt" height="101pt" viewBox="0.00 0.00 245.24 101.00" xmlns="http://www.w3.org/2000/svg" xmlns:xlink="http://www.w3.org/1999/xlink"><g id="graph0" class="graph" transform="scale(1 1) rotate(0) translate(4 97)"><title>ndiag</title><polygon fill="#ffffff" stroke="transparent" points="-4,4 -4,-97 241.2356,-97 241.2356,4 -4,4"></polygon><g id="clust1" class="cluster"><title>cluster_メインバンク</title><polygon fill="none" stroke="#000000" stroke-width="2" points="106.2272,-8 106.2272,-85 229.2356,-85 229.2356,-8 106.2272,-8"></polygon><text text-anchor="middle" x="167.7314" y="-68.4" font-family="Arial" font-size="14.00" fill="#000000">メインバンク</text></g><!-- メインバンク:三菱ufj銀行 --><g id="node1" class="node"><title>メインバンク:三菱ufj銀行</title><path fill="#ffffff" stroke="#4b75b9" stroke-width="3" d="M209.2398,-52C209.2398,-52 126.223,-52 126.223,-52 120.223,-52 114.223,-46 114.223,-40 114.223,-40 114.223,-28 114.223,-28 114.223,-22 120.223,-16 126.223,-16 126.223,-16 209.2398,-16 209.2398,-16 215.2398,-16 221.2398,-22 221.2398,-28 221.2398,-28 221.2398,-40 221.2398,-40 221.2398,-46 215.2398,-52 209.2398,-52"></path><text text-anchor="middle" x="167.7314" y="-29.8" font-family="Arial" font-size="14.00" fill="#333333">三菱UFJ銀行</text></g><!-- 習志野市 --><g id="node2" class="node"><title>習志野市</title><path fill="none" stroke="#000000" stroke-width="2" d="M66.3411,-52C66.3411,-52 11.8861,-52 11.8861,-52 5.8861,-52 -.1139,-46 -.1139,-40 -.1139,-40 -.1139,-28 -.1139,-28 -.1139,-22 5.8861,-16 11.8861,-16 11.8861,-16 66.3411,-16 66.3411,-16 72.3411,-16 78.3411,-22 78.3411,-28 78.3411,-28 78.3411,-40 78.3411,-40 78.3411,-46 72.3411,-52 66.3411,-52"></path><text text-anchor="middle" x="39.1136" y="-29.8" font-family="Arial" font-size="14.00" fill="#000000">習志野市</text></g><!-- 習志野市&#45;&gt;メインバンク:三菱ufj銀行 --><g id="edge-0" class="edge"><title>習志野市-&gt;メインバンク:三菱ufj銀行</title><path fill="none" stroke="#333333" stroke-width="2" stroke-opacity="0.600000" d="M78.402,-34C78.402,-34 104.0009,-34 104.0009,-34"></path><polygon fill="#333333" fill-opacity="0.600000" stroke="#333333" stroke-width="2" stroke-opacity="0.600000" points="104.0009,-37.5001 114.0009,-34 104.0009,-30.5001 104.0009,-37.5001"></polygon></g></g></svg>