<?xml version="1.0" encoding="UTF-8" standalone="no"?><!-- Generated by graphviz version 2.40.1 (20161225.0304)
 --><!-- Title: ndiag Pages: 1 --><svg width="336pt" height="101pt" viewBox="0.00 0.00 336.28 101.00" xmlns="http://www.w3.org/2000/svg" xmlns:xlink="http://www.w3.org/1999/xlink"><g id="graph0" class="graph" transform="scale(1 1) rotate(0) translate(4 97)"><title>ndiag</title><polygon fill="#ffffff" stroke="transparent" points="-4,4 -4,-97 332.2832,-97 332.2832,4 -4,4"></polygon><g id="clust1" class="cluster"><title>cluster_クレジットカード</title><polygon fill="none" stroke="#000000" stroke-width="2" points="8,-8 8,-85 187.749,-85 187.749,-8 8,-8"></polygon><text text-anchor="middle" x="97.8745" y="-68.4" font-family="Arial" font-size="14.00" fill="#000000">クレジットカード</text></g><!-- クレジットカード:ビュースイカカード --><g id="node1" class="node"><title>クレジットカード:ビュースイカカード</title><path fill="#ffffff" stroke="#4b75b9" stroke-width="3" d="M167.6237,-52C167.6237,-52 28.1253,-52 28.1253,-52 22.1253,-52 16.1253,-46 16.1253,-40 16.1253,-40 16.1253,-28 16.1253,-28 16.1253,-22 22.1253,-16 28.1253,-16 28.1253,-16 167.6237,-16 167.6237,-16 173.6237,-16 179.6237,-22 179.6237,-28 179.6237,-28 179.6237,-40 179.6237,-40 179.6237,-46 173.6237,-52 167.6237,-52"></path><text text-anchor="middle" x="97.8745" y="-29.8" font-family="Arial" font-size="14.00" fill="#333333">ビュースイカカード</text></g><!-- 物理suica(家族) --><g id="node2" class="node"><title>物理suica(家族)</title><path fill="none" stroke="#000000" stroke-width="2" d="M316.0513,-52C316.0513,-52 227.9809,-52 227.9809,-52 221.9809,-52 215.9809,-46 215.9809,-40 215.9809,-40 215.9809,-28 215.9809,-28 215.9809,-22 221.9809,-16 227.9809,-16 227.9809,-16 316.0513,-16 316.0513,-16 322.0513,-16 328.0513,-22 328.0513,-28 328.0513,-28 328.0513,-40 328.0513,-40 328.0513,-46 322.0513,-52 316.0513,-52"></path><text text-anchor="middle" x="272.0161" y="-29.8" font-family="Arial" font-size="14.00" fill="#000000">物理Suica(家族)</text></g><!-- クレジットカード:ビュースイカカード&#45;&gt;物理suica(家族) --><g id="edge-0" class="edge"><title>クレジットカード:ビュースイカカード-&gt;物理suica(家族)</title><path fill="none" stroke="#333333" stroke-width="2" stroke-opacity="0.600000" d="M179.8461,-34C179.8461,-34 205.8117,-34 205.8117,-34"></path><polygon fill="#333333" fill-opacity="0.600000" stroke="#333333" stroke-width="2" stroke-opacity="0.600000" points="205.8117,-37.5001 215.8117,-34 205.8116,-30.5001 205.8117,-37.5001"></polygon></g></g></svg>