<?xml version="1.0" encoding="UTF-8" standalone="no"?><!-- Generated by graphviz version 2.40.1 (20161225.0304)
 --><!-- Title: ndiag Pages: 1 --><svg width="273pt" height="101pt" viewBox="0.00 0.00 273.12 101.00" xmlns="http://www.w3.org/2000/svg" xmlns:xlink="http://www.w3.org/1999/xlink"><g id="graph0" class="graph" transform="scale(1 1) rotate(0) translate(4 97)"><title>ndiag</title><polygon fill="#ffffff" stroke="transparent" points="-4,4 -4,-97 269.1234,-97 269.1234,4 -4,4"></polygon><g id="clust1" class="cluster"><title>cluster_LINE</title><polygon fill="none" stroke="#000000" stroke-width="2" points="8,-8 8,-85 183.1234,-85 183.1234,-8 8,-8"></polygon><text text-anchor="middle" x="95.5617" y="-68.4" font-family="Arial" font-size="14.00" fill="#000000">LINE</text></g><!-- line:visa line payカード --><g id="node1" class="node"><title>line:visa line payカード</title><path fill="#ffffff" stroke="#4b75b9" stroke-width="3" d="M163.1851,-52C163.1851,-52 27.9383,-52 27.9383,-52 21.9383,-52 15.9383,-46 15.9383,-40 15.9383,-40 15.9383,-28 15.9383,-28 15.9383,-22 21.9383,-16 27.9383,-16 27.9383,-16 163.1851,-16 163.1851,-16 169.1851,-16 175.1851,-22 175.1851,-28 175.1851,-28 175.1851,-40 175.1851,-40 175.1851,-46 169.1851,-52 163.1851,-52"></path><text text-anchor="middle" x="95.5617" y="-29.8" font-family="Arial" font-size="14.00" fill="#333333">Visa LINE Payカード</text></g><!-- 世界 --><g id="node2" class="node"><title>世界</title><path fill="none" stroke="#000000" stroke-width="2" d="M253.1234,-52C253.1234,-52 223.1234,-52 223.1234,-52 217.1234,-52 211.1234,-46 211.1234,-40 211.1234,-40 211.1234,-28 211.1234,-28 211.1234,-22 217.1234,-16 223.1234,-16 223.1234,-16 253.1234,-16 253.1234,-16 259.1234,-16 265.1234,-22 265.1234,-28 265.1234,-28 265.1234,-40 265.1234,-40 265.1234,-46 259.1234,-52 253.1234,-52"></path><text text-anchor="middle" x="238.1234" y="-29.8" font-family="Arial" font-size="14.00" fill="#000000">世界</text></g><!-- line:visa line payカード&#45;&gt;世界 --><g id="edge-0" class="edge"><title>line:visa line payカード-&gt;世界</title><path fill="none" stroke="#333333" stroke-width="2" stroke-opacity="0.600000" d="M175.1788,-34C175.1788,-34 201.0098,-34 201.0098,-34"></path><polygon fill="#333333" fill-opacity="0.600000" stroke="#333333" stroke-width="2" stroke-opacity="0.600000" points="201.0099,-37.5001 211.0098,-34 201.0098,-30.5001 201.0099,-37.5001"></polygon></g></g></svg>