<?xml version="1.0" encoding="UTF-8" standalone="no"?><!-- Generated by graphviz version 2.40.1 (20161225.0304)
 --><!-- Title: ndiag Pages: 1 --><svg width="604pt" height="101pt" viewBox="0.00 0.00 603.89 101.00" xmlns="http://www.w3.org/2000/svg" xmlns:xlink="http://www.w3.org/1999/xlink"><g id="graph0" class="graph" transform="scale(1 1) rotate(0) translate(4 97)"><title>ndiag</title><polygon fill="#ffffff" stroke="transparent" points="-4,4 -4,-97 599.8864,-97 599.8864,4 -4,4"></polygon><g id="clust4" class="cluster"><title>cluster_クレジットカード</title><polygon fill="none" stroke="#000000" stroke-width="2" points="340.7446,-8 340.7446,-85 477.1984,-85 477.1984,-8 340.7446,-8"></polygon><text text-anchor="middle" x="408.9715" y="-68.4" font-family="Arial" font-size="14.00" fill="#000000">クレジットカード</text></g><g id="clust3" class="cluster"><title>cluster_楽天証券</title><polygon fill="none" stroke="#000000" stroke-width="2" points="497.1984,-8 497.1984,-85 587.8864,-85 587.8864,-8 497.1984,-8"></polygon><text text-anchor="middle" x="542.5424" y="-68.4" font-family="Arial" font-size="14.00" fill="#000000">楽天証券</text></g><g id="clust2" class="cluster"><title>cluster_サブバンク</title><polygon fill="none" stroke="#000000" stroke-width="2" points="219.166,-8 219.166,-85 320.7446,-85 320.7446,-8 219.166,-8"></polygon><text text-anchor="middle" x="269.9553" y="-68.4" font-family="Arial" font-size="14.00" fill="#000000">サブバンク</text></g><g id="clust1" class="cluster"><title>cluster_メインバンク</title><polygon fill="none" stroke="#000000" stroke-width="2" points="8,-8 8,-85 199.166,-85 199.166,-8 8,-8"></polygon><text text-anchor="middle" x="103.583" y="-68.4" font-family="Arial" font-size="14.00" fill="#000000">メインバンク</text></g><!-- メインバンク:gmoあおぞらネット銀行 --><g id="node1" class="node"><title>メインバンク:gmoあおぞらネット銀行</title><path fill="#ffffff" stroke="#4b75b9" stroke-width="3" d="M179.2491,-52C179.2491,-52 27.9169,-52 27.9169,-52 21.9169,-52 15.9169,-46 15.9169,-40 15.9169,-40 15.9169,-28 15.9169,-28 15.9169,-22 21.9169,-16 27.9169,-16 27.9169,-16 179.2491,-16 179.2491,-16 185.2491,-16 191.2491,-22 191.2491,-28 191.2491,-28 191.2491,-40 191.2491,-40 191.2491,-46 185.2491,-52 179.2491,-52"></path><text text-anchor="middle" x="103.583" y="-29.8" font-family="Arial" font-size="14.00" fill="#333333">GMOあおぞらネット銀行</text></g><!-- サブバンク:楽天銀行 --><g id="node2" class="node"><title>サブバンク:楽天銀行</title><path fill="#ffffff" stroke="#4b75b9" stroke-width="3" d="M300.5349,-52C300.5349,-52 239.3757,-52 239.3757,-52 233.3757,-52 227.3757,-46 227.3757,-40 227.3757,-40 227.3757,-28 227.3757,-28 227.3757,-22 233.3757,-16 239.3757,-16 239.3757,-16 300.5349,-16 300.5349,-16 306.5349,-16 312.5349,-22 312.5349,-28 312.5349,-28 312.5349,-40 312.5349,-40 312.5349,-46 306.5349,-52 300.5349,-52"></path><text text-anchor="middle" x="269.9553" y="-29.8" font-family="Arial" font-size="14.00" fill="#333333">楽天銀行</text></g><!-- メインバンク:gmoあおぞらネット銀行&#45;&gt;サブバンク:楽天銀行 --><g id="edge-0" class="edge"><title>メインバンク:gmoあおぞらネット銀行-&gt;サブバンク:楽天銀行</title><path fill="none" stroke="#333333" stroke-width="2" stroke-opacity="0.600000" d="M191.6409,-34C191.6409,-34 217.0731,-34 217.0731,-34"></path><polygon fill="#333333" fill-opacity="0.600000" stroke="#333333" stroke-width="2" stroke-opacity="0.600000" points="217.0732,-37.5001 227.0731,-34 217.0731,-30.5001 217.0732,-37.5001"></polygon></g><!-- クレジットカード:楽天カード --><g id="node4" class="node"><title>クレジットカード:楽天カード</title><path fill="#ffffff" stroke="#4b75b9" stroke-width="3" d="M448.4263,-52C448.4263,-52 368.5167,-52 368.5167,-52 362.5167,-52 356.5167,-46 356.5167,-40 356.5167,-40 356.5167,-28 356.5167,-28 356.5167,-22 362.5167,-16 368.5167,-16 368.5167,-16 448.4263,-16 448.4263,-16 454.4263,-16 460.4263,-22 460.4263,-28 460.4263,-28 460.4263,-40 460.4263,-40 460.4263,-46 454.4263,-52 448.4263,-52"></path><text text-anchor="middle" x="408.4715" y="-29.8" font-family="Arial" font-size="14.00" fill="#333333">楽天カード</text></g><!-- サブバンク:楽天銀行&#45;&gt;クレジットカード:楽天カード --><g id="edge-1" class="edge"><title>サブバンク:楽天銀行-&gt;クレジットカード:楽天カード</title><path fill="none" stroke="#333333" stroke-width="2" stroke-opacity="0.600000" d="M312.645,-34C312.645,-34 346.4082,-34 346.4082,-34"></path><polygon fill="#333333" fill-opacity="0.600000" stroke="#333333" stroke-width="2" stroke-opacity="0.600000" points="346.4082,-37.5001 356.4082,-34 346.4082,-30.5001 346.4082,-37.5001"></polygon></g><!-- 楽天証券:積立nisa --><g id="node3" class="node"><title>楽天証券:積立nisa</title><path fill="#ffffff" stroke="#4b75b9" stroke-width="3" d="M567.731,-52C567.731,-52 517.3538,-52 517.3538,-52 511.3538,-52 505.3538,-46 505.3538,-40 505.3538,-40 505.3538,-28 505.3538,-28 505.3538,-22 511.3538,-16 517.3538,-16 517.3538,-16 567.731,-16 567.731,-16 573.731,-16 579.731,-22 579.731,-28 579.731,-28 579.731,-40 579.731,-40 579.731,-46 573.731,-52 567.731,-52"></path><text text-anchor="middle" x="542.5424" y="-29.8" font-family="Arial" font-size="14.00" fill="#333333">積立NISA</text></g><!-- クレジットカード:楽天カード&#45;&gt;楽天証券:積立nisa --><g id="edge-2" class="edge"><title>クレジットカード:楽天カード-&gt;楽天証券:積立nisa</title><path fill="none" stroke="#333333" stroke-width="2" stroke-opacity="0.600000" d="M460.3068,-34C460.3068,-34 494.9775,-34 494.9775,-34"></path><polygon fill="#333333" fill-opacity="0.600000" stroke="#333333" stroke-width="2" stroke-opacity="0.600000" points="494.9775,-37.5001 504.9775,-34 494.9774,-30.5001 494.9775,-37.5001"></polygon></g></g></svg>