<?xml version="1.0" encoding="UTF-8" standalone="no"?><!-- Generated by graphviz version 2.40.1 (20161225.0304)
 --><!-- Title: ndiag Pages: 1 --><svg width="246pt" height="101pt" viewBox="0.00 0.00 245.59 101.00" xmlns="http://www.w3.org/2000/svg" xmlns:xlink="http://www.w3.org/1999/xlink"><g id="graph0" class="graph" transform="scale(1 1) rotate(0) translate(4 97)"><title>ndiag</title><polygon fill="#ffffff" stroke="transparent" points="-4,4 -4,-97 241.5864,-97 241.5864,4 -4,4"></polygon><g id="clust1" class="cluster"><title>cluster_クレジットカード</title><polygon fill="none" stroke="#000000" stroke-width="2" points="0,-8 0,-85 136.4538,-85 136.4538,-8 0,-8"></polygon><text text-anchor="middle" x="68.2269" y="-68.4" font-family="Arial" font-size="14.00" fill="#000000">クレジットカード</text></g><!-- クレジットカード:楽天カード --><g id="node1" class="node"><title>クレジットカード:楽天カード</title><path fill="#ffffff" stroke="#4b75b9" stroke-width="3" d="M107.6817,-52C107.6817,-52 27.7721,-52 27.7721,-52 21.7721,-52 15.7721,-46 15.7721,-40 15.7721,-40 15.7721,-28 15.7721,-28 15.7721,-22 21.7721,-16 27.7721,-16 27.7721,-16 107.6817,-16 107.6817,-16 113.6817,-16 119.6817,-22 119.6817,-28 119.6817,-28 119.6817,-40 119.6817,-40 119.6817,-46 113.6817,-52 107.6817,-52"></path><text text-anchor="middle" x="67.7269" y="-29.8" font-family="Arial" font-size="14.00" fill="#333333">楽天カード</text></g><!-- 楽天市場 --><g id="node2" class="node"><title>楽天市場</title><path fill="none" stroke="#000000" stroke-width="2" d="M225.6528,-52C225.6528,-52 176.3874,-52 176.3874,-52 170.3874,-52 164.3874,-46 164.3874,-40 164.3874,-40 164.3874,-28 164.3874,-28 164.3874,-22 170.3874,-16 176.3874,-16 176.3874,-16 225.6528,-16 225.6528,-16 231.6528,-16 237.6528,-22 237.6528,-28 237.6528,-28 237.6528,-40 237.6528,-40 237.6528,-46 231.6528,-52 225.6528,-52"></path><text text-anchor="middle" x="201.0201" y="-29.8" font-family="Arial" font-size="14.00" fill="#000000">楽天市場</text></g><!-- クレジットカード:楽天カード&#45;&gt;楽天市場 --><g id="edge-0" class="edge"><title>クレジットカード:楽天カード-&gt;楽天市場</title><path fill="none" stroke="#333333" stroke-width="2" stroke-opacity="0.600000" d="M119.6432,-34C119.6432,-34 154.294,-34 154.294,-34"></path><polygon fill="#333333" fill-opacity="0.600000" stroke="#333333" stroke-width="2" stroke-opacity="0.600000" points="154.294,-37.5001 164.294,-34 154.2939,-30.5001 154.294,-37.5001"></polygon></g></g></svg>