<?xml version="1.0" encoding="UTF-8" standalone="no"?><!-- Generated by graphviz version 2.40.1 (20161225.0304)
 --><!-- Title: ndiag Pages: 1 --><svg width="586pt" height="101pt" viewBox="0.00 0.00 585.82 101.00" xmlns="http://www.w3.org/2000/svg" xmlns:xlink="http://www.w3.org/1999/xlink"><g id="graph0" class="graph" transform="scale(1 1) rotate(0) translate(4 97)"><title>ndiag</title><polygon fill="#ffffff" stroke="transparent" points="-4,4 -4,-97 581.8246,-97 581.8246,4 -4,4"></polygon><g id="clust3" class="cluster"><title>cluster_三井住友カード</title><polygon fill="none" stroke="#000000" stroke-width="2" points="320.7012,-8 320.7012,-85 495.8246,-85 495.8246,-8 320.7012,-8"></polygon><text text-anchor="middle" x="408.2629" y="-68.4" font-family="Arial" font-size="14.00" fill="#000000">三井住友カード</text></g><g id="clust2" class="cluster"><title>cluster_三菱UFJ銀行</title><polygon fill="none" stroke="#000000" stroke-width="2" points="194.3506,-8 194.3506,-85 300.7012,-85 300.7012,-8 194.3506,-8"></polygon><text text-anchor="middle" x="247.5259" y="-68.4" font-family="Arial" font-size="14.00" fill="#000000">三菱UFJ銀行</text></g><g id="clust1" class="cluster"><title>cluster_GMOあおぞらネット銀行</title><polygon fill="none" stroke="#000000" stroke-width="2" points="0,-8 0,-85 174.3506,-85 174.3506,-8 0,-8"></polygon><text text-anchor="middle" x="87.1753" y="-68.4" font-family="Arial" font-size="14.00" fill="#000000">GMOあおぞらネット銀行</text></g><!-- gmoあおぞらネット銀行:普通口座 --><g id="node1" class="node"><title>gmoあおぞらネット銀行:普通口座</title><path fill="#ffffff" stroke="#4b75b9" stroke-width="3" d="M115.5267,-52C115.5267,-52 57.8239,-52 57.8239,-52 51.8239,-52 45.8239,-46 45.8239,-40 45.8239,-40 45.8239,-28 45.8239,-28 45.8239,-22 51.8239,-16 57.8239,-16 57.8239,-16 115.5267,-16 115.5267,-16 121.5267,-16 127.5267,-22 127.5267,-28 127.5267,-28 127.5267,-40 127.5267,-40 127.5267,-46 121.5267,-52 115.5267,-52"></path><text text-anchor="middle" x="86.6753" y="-29.8" font-family="Arial" font-size="14.00" fill="#333333">普通口座</text></g><!-- 三菱ufj銀行:普通口座 --><g id="node2" class="node"><title>三菱ufj銀行:普通口座</title><path fill="#ffffff" stroke="#4b75b9" stroke-width="3" d="M275.8773,-52C275.8773,-52 218.1745,-52 218.1745,-52 212.1745,-52 206.1745,-46 206.1745,-40 206.1745,-40 206.1745,-28 206.1745,-28 206.1745,-22 212.1745,-16 218.1745,-16 218.1745,-16 275.8773,-16 275.8773,-16 281.8773,-16 287.8773,-22 287.8773,-28 287.8773,-28 287.8773,-40 287.8773,-40 287.8773,-46 281.8773,-52 275.8773,-52"></path><text text-anchor="middle" x="247.0259" y="-29.8" font-family="Arial" font-size="14.00" fill="#333333">普通口座</text></g><!-- gmoあおぞらネット銀行:普通口座&#45;&gt;三菱ufj銀行:普通口座 --><g id="edge-0" class="edge"><title>gmoあおぞらネット銀行:普通口座-&gt;三菱ufj銀行:普通口座</title><path fill="none" stroke="#333333" stroke-width="2" stroke-opacity="0.600000" d="M127.5534,-34C127.5534,-34 196.2224,-34 196.2224,-34"></path><polygon fill="#333333" fill-opacity="0.600000" stroke="#333333" stroke-width="2" stroke-opacity="0.600000" points="196.2225,-37.5001 206.2224,-34 196.2224,-30.5001 196.2225,-37.5001"></polygon></g><!-- 三井住友カード:visa line payカード --><g id="node3" class="node"><title>三井住友カード:visa line payカード</title><path fill="#ffffff" stroke="#4b75b9" stroke-width="3" d="M475.8863,-52C475.8863,-52 340.6395,-52 340.6395,-52 334.6395,-52 328.6395,-46 328.6395,-40 328.6395,-40 328.6395,-28 328.6395,-28 328.6395,-22 334.6395,-16 340.6395,-16 340.6395,-16 475.8863,-16 475.8863,-16 481.8863,-16 487.8863,-22 487.8863,-28 487.8863,-28 487.8863,-40 487.8863,-40 487.8863,-46 481.8863,-52 475.8863,-52"></path><text text-anchor="middle" x="408.2629" y="-29.8" font-family="Arial" font-size="14.00" fill="#333333">Visa LINE Payカード</text></g><!-- 三菱ufj銀行:普通口座&#45;&gt;三井住友カード:visa line payカード --><g id="edge-1" class="edge"><title>三菱ufj銀行:普通口座-&gt;三井住友カード:visa line payカード</title><path fill="none" stroke="#333333" stroke-width="2" stroke-opacity="0.600000" d="M287.7128,-34C287.7128,-34 318.6039,-34 318.6039,-34"></path><polygon fill="#333333" fill-opacity="0.600000" stroke="#333333" stroke-width="2" stroke-opacity="0.600000" points="318.6039,-37.5001 328.6039,-34 318.6039,-30.5001 318.6039,-37.5001"></polygon></g><!-- 世界 --><g id="node4" class="node"><title>世界</title><path fill="none" stroke="#000000" stroke-width="2" d="M565.8246,-52C565.8246,-52 535.8246,-52 535.8246,-52 529.8246,-52 523.8246,-46 523.8246,-40 523.8246,-40 523.8246,-28 523.8246,-28 523.8246,-22 529.8246,-16 535.8246,-16 535.8246,-16 565.8246,-16 565.8246,-16 571.8246,-16 577.8246,-22 577.8246,-28 577.8246,-28 577.8246,-40 577.8246,-40 577.8246,-46 571.8246,-52 565.8246,-52"></path><text text-anchor="middle" x="550.8246" y="-29.8" font-family="Arial" font-size="14.00" fill="#000000">世界</text></g><!-- 三井住友カード:visa line payカード&#45;&gt;世界 --><g id="edge-2" class="edge"><title>三井住友カード:visa line payカード-&gt;世界</title><path fill="none" stroke="#333333" stroke-width="2" stroke-opacity="0.600000" d="M487.88,-34C487.88,-34 513.711,-34 513.711,-34"></path><polygon fill="#333333" fill-opacity="0.600000" stroke="#333333" stroke-width="2" stroke-opacity="0.600000" points="513.7111,-37.5001 523.711,-34 513.711,-30.5001 513.7111,-37.5001"></polygon></g></g></svg>