<?xml version="1.0" encoding="UTF-8" standalone="no"?><!-- Generated by graphviz version 2.40.1 (20161225.0304)
 --><!-- Title: ndiag Pages: 1 --><svg width="529pt" height="101pt" viewBox="0.00 0.00 528.71 101.00" xmlns="http://www.w3.org/2000/svg" xmlns:xlink="http://www.w3.org/1999/xlink"><g id="graph0" class="graph" transform="scale(1 1) rotate(0) translate(4 97)"><title>ndiag</title><polygon fill="#ffffff" stroke="transparent" points="-4,4 -4,-97 524.713,-97 524.713,4 -4,4"></polygon><g id="clust2" class="cluster"><title>cluster_サブバンク</title><polygon fill="none" stroke="#000000" stroke-width="2" points="219.166,-8 219.166,-85 386.4998,-85 386.4998,-8 219.166,-8"></polygon><text text-anchor="middle" x="302.8329" y="-68.4" font-family="Arial" font-size="14.00" fill="#000000">サブバンク</text></g><g id="clust1" class="cluster"><title>cluster_メインバンク</title><polygon fill="none" stroke="#000000" stroke-width="2" points="8,-8 8,-85 199.166,-85 199.166,-8 8,-8"></polygon><text text-anchor="middle" x="103.583" y="-68.4" font-family="Arial" font-size="14.00" fill="#000000">メインバンク</text></g><!-- メインバンク:gmoあおぞらネット銀行 --><g id="node1" class="node"><title>メインバンク:gmoあおぞらネット銀行</title><path fill="#ffffff" stroke="#4b75b9" stroke-width="3" d="M179.2491,-52C179.2491,-52 27.9169,-52 27.9169,-52 21.9169,-52 15.9169,-46 15.9169,-40 15.9169,-40 15.9169,-28 15.9169,-28 15.9169,-22 21.9169,-16 27.9169,-16 27.9169,-16 179.2491,-16 179.2491,-16 185.2491,-16 191.2491,-22 191.2491,-28 191.2491,-28 191.2491,-40 191.2491,-40 191.2491,-46 185.2491,-52 179.2491,-52"></path><text text-anchor="middle" x="103.583" y="-29.8" font-family="Arial" font-size="14.00" fill="#333333">GMOあおぞらネット銀行</text></g><!-- サブバンク:住信sbiネット銀行 --><g id="node2" class="node"><title>サブバンク:住信sbiネット銀行</title><path fill="#ffffff" stroke="#4b75b9" stroke-width="3" d="M366.6671,-52C366.6671,-52 238.9987,-52 238.9987,-52 232.9987,-52 226.9987,-46 226.9987,-40 226.9987,-40 226.9987,-28 226.9987,-28 226.9987,-22 232.9987,-16 238.9987,-16 238.9987,-16 366.6671,-16 366.6671,-16 372.6671,-16 378.6671,-22 378.6671,-28 378.6671,-28 378.6671,-40 378.6671,-40 378.6671,-46 372.6671,-52 366.6671,-52"></path><text text-anchor="middle" x="302.8329" y="-29.8" font-family="Arial" font-size="14.00" fill="#333333">住信SBIネット銀行</text></g><!-- メインバンク:gmoあおぞらネット銀行&#45;&gt;サブバンク:住信sbiネット銀行 --><g id="edge-0" class="edge"><title>メインバンク:gmoあおぞらネット銀行-&gt;サブバンク:住信sbiネット銀行</title><path fill="none" stroke="#333333" stroke-width="2" stroke-opacity="0.600000" d="M191.2669,-34C191.2669,-34 216.9733,-34 216.9733,-34"></path><polygon fill="#333333" fill-opacity="0.600000" stroke="#333333" stroke-width="2" stroke-opacity="0.600000" points="216.9733,-37.5001 226.9733,-34 216.9733,-30.5001 216.9733,-37.5001"></polygon></g><!-- 住宅ローン --><g id="node3" class="node"><title>住宅ローン</title><path fill="none" stroke="#000000" stroke-width="2" d="M508.8198,-52C508.8198,-52 426.393,-52 426.393,-52 420.393,-52 414.393,-46 414.393,-40 414.393,-40 414.393,-28 414.393,-28 414.393,-22 420.393,-16 426.393,-16 426.393,-16 508.8198,-16 508.8198,-16 514.8198,-16 520.8198,-22 520.8198,-28 520.8198,-28 520.8198,-40 520.8198,-40 520.8198,-46 514.8198,-52 508.8198,-52"></path><text text-anchor="middle" x="467.6064" y="-29.8" font-family="Arial" font-size="14.00" fill="#000000">住宅ローン</text></g><!-- サブバンク:住信sbiネット銀行&#45;&gt;住宅ローン --><g id="edge-1" class="edge"><title>サブバンク:住信sbiネット銀行-&gt;住宅ローン</title><path fill="none" stroke="#333333" stroke-width="2" stroke-opacity="0.600000" d="M378.9495,-34C378.9495,-34 404.3847,-34 404.3847,-34"></path><polygon fill="#333333" fill-opacity="0.600000" stroke="#333333" stroke-width="2" stroke-opacity="0.600000" points="404.3847,-37.5001 414.3847,-34 404.3847,-30.5001 404.3847,-37.5001"></polygon></g></g></svg>