<?xml version="1.0" encoding="UTF-8" standalone="no"?><!-- Generated by graphviz version 2.40.1 (20161225.0304)
 --><!-- Title: ndiag Pages: 1 --><svg width="428pt" height="391pt" viewBox="0.00 0.00 428.00 391.20" xmlns="http://www.w3.org/2000/svg" xmlns:xlink="http://www.w3.org/1999/xlink"><g id="graph0" class="graph" transform="scale(1 1) rotate(0) translate(4 387.2)"><title>ndiag</title><polygon fill="#ffffff" stroke="transparent" points="-4,4 -4,-387.2 424,-387.2 424,4 -4,4"></polygon><g id="clust5" class="cluster"><title>cluster_LINE</title><polygon fill="none" stroke="#000000" stroke-width="2" points="236,-92.8 236,-169.6 412,-169.6 412,-92.8 236,-92.8"></polygon><text text-anchor="middle" x="324" y="-153" font-family="Arial" font-size="14.00" fill="#000000">LINE</text></g><g id="clust4" class="cluster"><title>cluster_楽天証券</title><polygon fill="none" stroke="#000000" stroke-width="2" points="8,-8 8,-84.8 200,-84.8 200,-8 8,-8"></polygon><text text-anchor="middle" x="104" y="-68.2" font-family="Arial" font-size="14.00" fill="#000000">楽天証券</text></g><g id="clust3" class="cluster"><title>cluster_楽天銀行</title><polygon fill="none" stroke="#000000" stroke-width="2" points="99,-92.8 99,-254.4 219,-254.4 219,-92.8 99,-92.8"></polygon><text text-anchor="middle" x="159" y="-237.8" font-family="Arial" font-size="14.00" fill="#000000">楽天銀行</text></g><g id="clust2" class="cluster"><title>cluster_三菱UFJ銀行</title><polygon fill="none" stroke="#000000" stroke-width="2" points="251,-177.6 251,-254.4 358,-254.4 358,-177.6 251,-177.6"></polygon><text text-anchor="middle" x="304.5" y="-237.8" font-family="Arial" font-size="14.00" fill="#000000">三菱UFJ銀行</text></g><g id="clust1" class="cluster"><title>cluster_GMOあおぞらネット銀行</title><polygon fill="none" stroke="#000000" stroke-width="2" points="149,-262.4 149,-339.2 324,-339.2 324,-262.4 149,-262.4"></polygon><text text-anchor="middle" x="236.5" y="-322.6" font-family="Arial" font-size="14.00" fill="#000000">GMOあおぞらネット銀行</text></g><!-- gmoあおぞらネット銀行:普通口座 --><g id="node1" class="node"><title>gmoあおぞらネット銀行:普通口座</title><path fill="#ffffff" stroke="#4b75b9" stroke-width="3" d="M264.8514,-306.4C264.8514,-306.4 207.1486,-306.4 207.1486,-306.4 201.1486,-306.4 195.1486,-300.4 195.1486,-294.4 195.1486,-294.4 195.1486,-282.4 195.1486,-282.4 195.1486,-276.4 201.1486,-270.4 207.1486,-270.4 207.1486,-270.4 264.8514,-270.4 264.8514,-270.4 270.8514,-270.4 276.8514,-276.4 276.8514,-282.4 276.8514,-282.4 276.8514,-294.4 276.8514,-294.4 276.8514,-300.4 270.8514,-306.4 264.8514,-306.4"></path><text text-anchor="middle" x="236" y="-284.2" font-family="Arial" font-size="14.00" fill="#333333">普通口座</text></g><!-- 三菱ufj銀行:普通口座 --><g id="node2" class="node"><title>三菱ufj銀行:普通口座</title><path fill="#ffffff" stroke="#4b75b9" stroke-width="3" d="M332.8514,-221.6C332.8514,-221.6 275.1486,-221.6 275.1486,-221.6 269.1486,-221.6 263.1486,-215.6 263.1486,-209.6 263.1486,-209.6 263.1486,-197.6 263.1486,-197.6 263.1486,-191.6 269.1486,-185.6 275.1486,-185.6 275.1486,-185.6 332.8514,-185.6 332.8514,-185.6 338.8514,-185.6 344.8514,-191.6 344.8514,-197.6 344.8514,-197.6 344.8514,-209.6 344.8514,-209.6 344.8514,-215.6 338.8514,-221.6 332.8514,-221.6"></path><text text-anchor="middle" x="304" y="-199.4" font-family="Arial" font-size="14.00" fill="#333333">普通口座</text></g><!-- gmoあおぞらネット銀行:普通口座&#45;&gt;三菱ufj銀行:普通口座 --><g id="edge-1" class="edge"><title>gmoあおぞらネット銀行:普通口座-&gt;三菱ufj銀行:普通口座</title><path fill="none" stroke="#333333" stroke-width="2" stroke-opacity="0.600000" d="M270,-269.9997C270,-269.9997 270,-231.6731 270,-231.6731"></path><polygon fill="#333333" fill-opacity="0.600000" stroke="#333333" stroke-width="2" stroke-opacity="0.600000" points="273.5001,-231.6731 270,-221.6731 266.5001,-231.6731 273.5001,-231.6731"></polygon></g><!-- 楽天銀行:普通口座 --><g id="node3" class="node"><title>楽天銀行:普通口座</title><path fill="#ffffff" stroke="#4b75b9" stroke-width="3" d="M192.8514,-221.6C192.8514,-221.6 135.1486,-221.6 135.1486,-221.6 129.1486,-221.6 123.1486,-215.6 123.1486,-209.6 123.1486,-209.6 123.1486,-197.6 123.1486,-197.6 123.1486,-191.6 129.1486,-185.6 135.1486,-185.6 135.1486,-185.6 192.8514,-185.6 192.8514,-185.6 198.8514,-185.6 204.8514,-191.6 204.8514,-197.6 204.8514,-197.6 204.8514,-209.6 204.8514,-209.6 204.8514,-215.6 198.8514,-221.6 192.8514,-221.6"></path><text text-anchor="middle" x="164" y="-199.4" font-family="Arial" font-size="14.00" fill="#333333">普通口座</text></g><!-- gmoあおぞらネット銀行:普通口座&#45;&gt;楽天銀行:普通口座 --><g id="edge-4" class="edge"><title>gmoあおぞらネット銀行:普通口座-&gt;楽天銀行:普通口座</title><path fill="none" stroke="#333333" stroke-width="2" stroke-opacity="0.600000" d="M200,-269.9997C200,-269.9997 200,-231.6731 200,-231.6731"></path><polygon fill="#333333" fill-opacity="0.600000" stroke="#333333" stroke-width="2" stroke-opacity="0.600000" points="203.5001,-231.6731 200,-221.6731 196.5001,-231.6731 203.5001,-231.6731"></polygon></g><!-- line:visa line payカード --><g id="node7" class="node"><title>line:visa line payカード</title><path fill="#ffffff" stroke="#4b75b9" stroke-width="3" d="M391.6234,-136.8C391.6234,-136.8 256.3766,-136.8 256.3766,-136.8 250.3766,-136.8 244.3766,-130.8 244.3766,-124.8 244.3766,-124.8 244.3766,-112.8 244.3766,-112.8 244.3766,-106.8 250.3766,-100.8 256.3766,-100.8 256.3766,-100.8 391.6234,-100.8 391.6234,-100.8 397.6234,-100.8 403.6234,-106.8 403.6234,-112.8 403.6234,-112.8 403.6234,-124.8 403.6234,-124.8 403.6234,-130.8 397.6234,-136.8 391.6234,-136.8"></path><text text-anchor="middle" x="324" y="-114.6" font-family="Arial" font-size="14.00" fill="#333333">Visa LINE Payカード</text></g><!-- 三菱ufj銀行:普通口座&#45;&gt;line:visa line payカード --><g id="edge-2" class="edge"><title>三菱ufj銀行:普通口座-&gt;line:visa line payカード</title><path fill="none" stroke="#333333" stroke-width="2" stroke-opacity="0.600000" d="M304,-185.1997C304,-185.1997 304,-146.8731 304,-146.8731"></path><polygon fill="#333333" fill-opacity="0.600000" stroke="#333333" stroke-width="2" stroke-opacity="0.600000" points="307.5001,-146.8731 304,-136.8731 300.5001,-146.8731 307.5001,-146.8731"></polygon></g><!-- 楽天銀行:楽天カード --><g id="node4" class="node"><title>楽天銀行:楽天カード</title><path fill="#ffffff" stroke="#4b75b9" stroke-width="3" d="M198.9548,-136.8C198.9548,-136.8 119.0452,-136.8 119.0452,-136.8 113.0452,-136.8 107.0452,-130.8 107.0452,-124.8 107.0452,-124.8 107.0452,-112.8 107.0452,-112.8 107.0452,-106.8 113.0452,-100.8 119.0452,-100.8 119.0452,-100.8 198.9548,-100.8 198.9548,-100.8 204.9548,-100.8 210.9548,-106.8 210.9548,-112.8 210.9548,-112.8 210.9548,-124.8 210.9548,-124.8 210.9548,-130.8 204.9548,-136.8 198.9548,-136.8"></path><text text-anchor="middle" x="159" y="-114.6" font-family="Arial" font-size="14.00" fill="#333333">楽天カード</text></g><!-- 楽天銀行:普通口座&#45;&gt;楽天銀行:楽天カード --><g id="edge-5" class="edge"><title>楽天銀行:普通口座-&gt;楽天銀行:楽天カード</title><path fill="none" stroke="#333333" stroke-width="2" stroke-opacity="0.600000" d="M164,-185.1997C164,-185.1997 164,-146.8731 164,-146.8731"></path><polygon fill="#333333" fill-opacity="0.600000" stroke="#333333" stroke-width="2" stroke-opacity="0.600000" points="167.5001,-146.8731 164,-136.8731 160.5001,-146.8731 167.5001,-146.8731"></polygon></g><!-- 楽天証券:積立nisa --><g id="node5" class="node"><title>楽天証券:積立nisa</title><path fill="#ffffff" stroke="#4b75b9" stroke-width="3" d="M180.1886,-52C180.1886,-52 129.8114,-52 129.8114,-52 123.8114,-52 117.8114,-46 117.8114,-40 117.8114,-40 117.8114,-28 117.8114,-28 117.8114,-22 123.8114,-16 129.8114,-16 129.8114,-16 180.1886,-16 180.1886,-16 186.1886,-16 192.1886,-22 192.1886,-28 192.1886,-28 192.1886,-40 192.1886,-40 192.1886,-46 186.1886,-52 180.1886,-52"></path><text text-anchor="middle" x="155" y="-29.8" font-family="Arial" font-size="14.00" fill="#333333">積立NISA</text></g><!-- 楽天銀行:楽天カード&#45;&gt;楽天証券:積立nisa --><g id="edge-6" class="edge"><title>楽天銀行:楽天カード-&gt;楽天証券:積立nisa</title><path fill="none" stroke="#333333" stroke-width="2" stroke-opacity="0.600000" d="M155,-100.3997C155,-100.3997 155,-62.0731 155,-62.0731"></path><polygon fill="#333333" fill-opacity="0.600000" stroke="#333333" stroke-width="2" stroke-opacity="0.600000" points="158.5001,-62.0731 155,-52.0731 151.5001,-62.0731 158.5001,-62.0731"></polygon></g><!-- 楽天証券:投資信託 --><g id="node6" class="node"><title>楽天証券:投資信託</title><path fill="#ffffff" stroke="#4b75b9" stroke-width="3" d="M87.6878,-52C87.6878,-52 28.3122,-52 28.3122,-52 22.3122,-52 16.3122,-46 16.3122,-40 16.3122,-40 16.3122,-28 16.3122,-28 16.3122,-22 22.3122,-16 28.3122,-16 28.3122,-16 87.6878,-16 87.6878,-16 93.6878,-16 99.6878,-22 99.6878,-28 99.6878,-28 99.6878,-40 99.6878,-40 99.6878,-46 93.6878,-52 87.6878,-52"></path><text text-anchor="middle" x="58" y="-29.8" font-family="Arial" font-size="14.00" fill="#333333">投資信託</text></g><!-- 楽天銀行:楽天カード&#45;&gt;楽天証券:投資信託 --><g id="edge-7" class="edge"><title>楽天銀行:楽天カード-&gt;楽天証券:投資信託</title><path fill="none" stroke="#333333" stroke-width="2" stroke-opacity="0.600000" d="M112.4646,-100.3997C112.4646,-75.4593 112.4646,-34 112.4646,-34 112.4646,-34 109.8324,-34 109.8324,-34"></path><polygon fill="#333333" fill-opacity="0.600000" stroke="#333333" stroke-width="2" stroke-opacity="0.600000" points="109.8324,-30.5001 99.8324,-34 109.8324,-37.5001 109.8324,-30.5001"></polygon></g><!-- 楽天市場 --><g id="node10" class="node"><title>楽天市場</title><path fill="none" stroke="#000000" stroke-width="2" d="M271.6327,-52C271.6327,-52 222.3673,-52 222.3673,-52 216.3673,-52 210.3673,-46 210.3673,-40 210.3673,-40 210.3673,-28 210.3673,-28 210.3673,-22 216.3673,-16 222.3673,-16 222.3673,-16 271.6327,-16 271.6327,-16 277.6327,-16 283.6327,-22 283.6327,-28 283.6327,-28 283.6327,-40 283.6327,-40 283.6327,-46 277.6327,-52 271.6327,-52"></path><text text-anchor="middle" x="247" y="-29.8" font-family="Arial" font-size="14.00" fill="#000000">楽天市場</text></g><!-- 楽天銀行:楽天カード&#45;&gt;楽天市場 --><g id="edge-8" class="edge"><title>楽天銀行:楽天カード-&gt;楽天市場</title><path fill="none" stroke="#333333" stroke-width="2" stroke-opacity="0.600000" d="M201.3889,-100.3997C201.3889,-75.4593 201.3889,-34 201.3889,-34 201.3889,-34 202.2683,-34 202.2683,-34"></path><polygon fill="#333333" fill-opacity="0.600000" stroke="#333333" stroke-width="2" stroke-opacity="0.600000" points="200.1832,-37.5001 210.1831,-34 200.1831,-30.5001 200.1832,-37.5001"></polygon></g><!-- 世界 --><g id="node9" class="node"><title>世界</title><path fill="none" stroke="#000000" stroke-width="2" d="M344,-52C344,-52 314,-52 314,-52 308,-52 302,-46 302,-40 302,-40 302,-28 302,-28 302,-22 308,-16 314,-16 314,-16 344,-16 344,-16 350,-16 356,-22 356,-28 356,-28 356,-40 356,-40 356,-46 350,-52 344,-52"></path><text text-anchor="middle" x="329" y="-29.8" font-family="Arial" font-size="14.00" fill="#000000">世界</text></g><!-- line:visa line payカード&#45;&gt;世界 --><g id="edge-3" class="edge"><title>line:visa line payカード-&gt;世界</title><path fill="none" stroke="#333333" stroke-width="2" stroke-opacity="0.600000" d="M329,-100.3997C329,-100.3997 329,-62.0731 329,-62.0731"></path><polygon fill="#333333" fill-opacity="0.600000" stroke="#333333" stroke-width="2" stroke-opacity="0.600000" points="332.5001,-62.0731 329,-52.0731 325.5001,-62.0731 332.5001,-62.0731"></polygon></g><!-- 会社 --><g id="node8" class="node"><title>会社</title><path fill="none" stroke="#000000" stroke-width="2" d="M251,-383.2C251,-383.2 221,-383.2 221,-383.2 215,-383.2 209,-377.2 209,-371.2 209,-371.2 209,-359.2 209,-359.2 209,-353.2 215,-347.2 221,-347.2 221,-347.2 251,-347.2 251,-347.2 257,-347.2 263,-353.2 263,-359.2 263,-359.2 263,-371.2 263,-371.2 263,-377.2 257,-383.2 251,-383.2"></path><text text-anchor="middle" x="236" y="-361" font-family="Arial" font-size="14.00" fill="#000000">会社</text></g><!-- 会社&#45;&gt;gmoあおぞらネット銀行:普通口座 --><g id="edge-0" class="edge"><title>会社-&gt;gmoあおぞらネット銀行:普通口座</title><path fill="none" stroke="#333333" stroke-width="2" stroke-opacity="0.600000" d="M236,-346.9995C236,-346.9995 236,-316.4699 236,-316.4699"></path><polygon fill="#333333" fill-opacity="0.600000" stroke="#333333" stroke-width="2" stroke-opacity="0.600000" points="239.5001,-316.4698 236,-306.4699 232.5001,-316.4699 239.5001,-316.4698"></polygon></g></g></svg>