<?xml version="1.0" encoding="UTF-8" standalone="no"?><!-- Generated by graphviz version 2.40.1 (20161225.0304)
 --><!-- Title: ndiag Pages: 1 --><svg width="2201pt" height="383pt" viewBox="0.00 0.00 2201.11 383.20" xmlns="http://www.w3.org/2000/svg" xmlns:xlink="http://www.w3.org/1999/xlink"><g id="graph0" class="graph" transform="scale(1 1) rotate(0) translate(4 379.2)"><title>ndiag</title><polygon fill="#ffffff" stroke="transparent" points="-4,4 -4,-379.2 2197.1051,-379.2 2197.1051,4 -4,4"></polygon><g id="clust6" class="cluster"><title>cluster_県民共済</title><polygon fill="none" stroke="#000000" stroke-width="2" points="1953.1066,-92.8 1953.1066,-169.6 2023.1066,-169.6 2023.1066,-92.8 1953.1066,-92.8"></polygon><text text-anchor="middle" x="1988.1066" y="-153" font-family="Arial" font-size="14.00" fill="#000000">県民共済</text></g><g id="clust5" class="cluster"><title>cluster_プルデンシャル生命</title><polygon fill="none" stroke="#000000" stroke-width="2" points="1789.1066,-92.8 1789.1066,-169.6 1945.1066,-169.6 1945.1066,-92.8 1789.1066,-92.8"></polygon><text text-anchor="middle" x="1867.1066" y="-153" font-family="Arial" font-size="14.00" fill="#000000">プルデンシャル生命</text></g><g id="clust4" class="cluster"><title>cluster_クレジットカード</title><polygon fill="none" stroke="#000000" stroke-width="2" points="215.1066,-92.8 215.1066,-169.6 1781.1066,-169.6 1781.1066,-92.8 215.1066,-92.8"></polygon><text text-anchor="middle" x="998.1066" y="-153" font-family="Arial" font-size="14.00" fill="#000000">クレジットカード</text></g><g id="clust3" class="cluster"><title>cluster_楽天証券</title><polygon fill="none" stroke="#000000" stroke-width="2" points="1264.1066,-8 1264.1066,-84.8 1456.1066,-84.8 1456.1066,-8 1264.1066,-8"></polygon><text text-anchor="middle" x="1360.1066" y="-68.2" font-family="Arial" font-size="14.00" fill="#000000">楽天証券</text></g><g id="clust2" class="cluster"><title>cluster_サブバンク</title><polygon fill="none" stroke="#000000" stroke-width="2" points="525.1066,-177.6 525.1066,-254.4 1124.1066,-254.4 1124.1066,-177.6 525.1066,-177.6"></polygon><text text-anchor="middle" x="824.6066" y="-237.8" font-family="Arial" font-size="14.00" fill="#000000">サブバンク</text></g><g id="clust1" class="cluster"><title>cluster_メインバンク</title><polygon fill="none" stroke="#000000" stroke-width="2" points="1134.1066,-177.6 1134.1066,-331.2 1326.1066,-331.2 1326.1066,-177.6 1134.1066,-177.6"></polygon><text text-anchor="middle" x="1230.1066" y="-314.6" font-family="Arial" font-size="14.00" fill="#000000">メインバンク</text></g><!-- メインバンク:gmoあおぞらネット銀行 --><g id="node1" class="node"><title>メインバンク:gmoあおぞらネット銀行</title><path fill="#ffffff" stroke="#4b75b9" stroke-width="3" d="M1305.7727,-298.4C1305.7727,-298.4 1154.4405,-298.4 1154.4405,-298.4 1148.4405,-298.4 1142.4405,-292.4 1142.4405,-286.4 1142.4405,-286.4 1142.4405,-274.4 1142.4405,-274.4 1142.4405,-268.4 1148.4405,-262.4 1154.4405,-262.4 1154.4405,-262.4 1305.7727,-262.4 1305.7727,-262.4 1311.7727,-262.4 1317.7727,-268.4 1317.7727,-274.4 1317.7727,-274.4 1317.7727,-286.4 1317.7727,-286.4 1317.7727,-292.4 1311.7727,-298.4 1305.7727,-298.4"></path><text text-anchor="middle" x="1230.1066" y="-276.2" font-family="Arial" font-size="14.00" fill="#333333">GMOあおぞらネット銀行</text></g><!-- メインバンク:三菱ufj銀行 --><g id="node2" class="node"><title>メインバンク:三菱ufj銀行</title><path fill="#ffffff" stroke="#4b75b9" stroke-width="3" d="M1305.615,-221.6C1305.615,-221.6 1222.5982,-221.6 1222.5982,-221.6 1216.5982,-221.6 1210.5982,-215.6 1210.5982,-209.6 1210.5982,-209.6 1210.5982,-197.6 1210.5982,-197.6 1210.5982,-191.6 1216.5982,-185.6 1222.5982,-185.6 1222.5982,-185.6 1305.615,-185.6 1305.615,-185.6 1311.615,-185.6 1317.615,-191.6 1317.615,-197.6 1317.615,-197.6 1317.615,-209.6 1317.615,-209.6 1317.615,-215.6 1311.615,-221.6 1305.615,-221.6"></path><text text-anchor="middle" x="1264.1066" y="-199.4" font-family="Arial" font-size="14.00" fill="#333333">三菱UFJ銀行</text></g><!-- メインバンク:gmoあおぞらネット銀行&#45;&gt;メインバンク:三菱ufj銀行 --><g id="edge-1" class="edge"><title>メインバンク:gmoあおぞらネット銀行-&gt;メインバンク:三菱ufj銀行</title><path fill="none" stroke="#333333" stroke-width="2" stroke-opacity="0.600000" d="M1264.1066,-262.1995C1264.1066,-262.1995 1264.1066,-231.6699 1264.1066,-231.6699"></path><polygon fill="#333333" fill-opacity="0.600000" stroke="#333333" stroke-width="2" stroke-opacity="0.600000" points="1267.6067,-231.6698 1264.1066,-221.6699 1260.6067,-231.6699 1267.6067,-231.6698"></polygon></g><!-- サブバンク:楽天銀行 --><g id="node3" class="node"><title>サブバンク:楽天銀行</title><path fill="#ffffff" stroke="#4b75b9" stroke-width="3" d="M993.6862,-221.6C993.6862,-221.6 932.527,-221.6 932.527,-221.6 926.527,-221.6 920.527,-215.6 920.527,-209.6 920.527,-209.6 920.527,-197.6 920.527,-197.6 920.527,-191.6 926.527,-185.6 932.527,-185.6 932.527,-185.6 993.6862,-185.6 993.6862,-185.6 999.6862,-185.6 1005.6862,-191.6 1005.6862,-197.6 1005.6862,-197.6 1005.6862,-209.6 1005.6862,-209.6 1005.6862,-215.6 999.6862,-221.6 993.6862,-221.6"></path><text text-anchor="middle" x="963.1066" y="-199.4" font-family="Arial" font-size="14.00" fill="#333333">楽天銀行</text></g><!-- メインバンク:gmoあおぞらネット銀行&#45;&gt;サブバンク:楽天銀行 --><g id="edge-4" class="edge"><title>メインバンク:gmoあおぞらネット銀行-&gt;サブバンク:楽天銀行</title><path fill="none" stroke="#333333" stroke-width="2" stroke-opacity="0.600000" d="M1142.311,-269C1064.4908,-269 963.1066,-269 963.1066,-269 963.1066,-269 963.1066,-231.8175 963.1066,-231.8175"></path><polygon fill="#333333" fill-opacity="0.600000" stroke="#333333" stroke-width="2" stroke-opacity="0.600000" points="966.6067,-231.8175 963.1066,-221.8175 959.6067,-231.8176 966.6067,-231.8175"></polygon></g><!-- サブバンク:住信sbiネット銀行 --><g id="node4" class="node"><title>サブバンク:住信sbiネット銀行</title><path fill="#ffffff" stroke="#4b75b9" stroke-width="3" d="M793.9408,-221.6C793.9408,-221.6 666.2724,-221.6 666.2724,-221.6 660.2724,-221.6 654.2724,-215.6 654.2724,-209.6 654.2724,-209.6 654.2724,-197.6 654.2724,-197.6 654.2724,-191.6 660.2724,-185.6 666.2724,-185.6 666.2724,-185.6 793.9408,-185.6 793.9408,-185.6 799.9408,-185.6 805.9408,-191.6 805.9408,-197.6 805.9408,-197.6 805.9408,-209.6 805.9408,-209.6 805.9408,-215.6 799.9408,-221.6 793.9408,-221.6"></path><text text-anchor="middle" x="730.1066" y="-199.4" font-family="Arial" font-size="14.00" fill="#333333">住信SBIネット銀行</text></g><!-- メインバンク:gmoあおぞらネット銀行&#45;&gt;サブバンク:住信sbiネット銀行 --><g id="edge-9" class="edge"><title>メインバンク:gmoあおぞらネット銀行-&gt;サブバンク:住信sbiネット銀行</title><path fill="none" stroke="#333333" stroke-width="2" stroke-opacity="0.600000" d="M1142.4411,-291C999.0432,-291 730.1066,-291 730.1066,-291 730.1066,-291 730.1066,-231.7093 730.1066,-231.7093"></path><polygon fill="#333333" fill-opacity="0.600000" stroke="#333333" stroke-width="2" stroke-opacity="0.600000" points="733.6067,-231.7093 730.1066,-221.7093 726.6067,-231.7094 733.6067,-231.7093"></polygon></g><!-- サブバンク:イオン銀行 --><g id="node5" class="node"><title>サブバンク:イオン銀行</title><path fill="#ffffff" stroke="#4b75b9" stroke-width="3" d="M1104.5996,-221.6C1104.5996,-221.6 1035.6136,-221.6 1035.6136,-221.6 1029.6136,-221.6 1023.6136,-215.6 1023.6136,-209.6 1023.6136,-209.6 1023.6136,-197.6 1023.6136,-197.6 1023.6136,-191.6 1029.6136,-185.6 1035.6136,-185.6 1035.6136,-185.6 1104.5996,-185.6 1104.5996,-185.6 1110.5996,-185.6 1116.5996,-191.6 1116.5996,-197.6 1116.5996,-197.6 1116.5996,-209.6 1116.5996,-209.6 1116.5996,-215.6 1110.5996,-221.6 1104.5996,-221.6"></path><text text-anchor="middle" x="1070.1066" y="-199.4" font-family="Arial" font-size="14.00" fill="#333333">イオン銀行</text></g><!-- メインバンク:gmoあおぞらネット銀行&#45;&gt;サブバンク:イオン銀行 --><g id="edge-22" class="edge"><title>メインバンク:gmoあおぞらネット銀行-&gt;サブバンク:イオン銀行</title><path fill="none" stroke="#333333" stroke-width="2" stroke-opacity="0.600000" d="M1155.5959,-262.3828C1155.5959,-241.2311 1155.5959,-209 1155.5959,-209 1155.5959,-209 1126.8534,-209 1126.8534,-209"></path><polygon fill="#333333" fill-opacity="0.600000" stroke="#333333" stroke-width="2" stroke-opacity="0.600000" points="1126.8534,-205.5001 1116.8534,-209 1126.8533,-212.5001 1126.8534,-205.5001"></polygon></g><!-- サブバンク:千葉銀行 --><g id="node6" class="node"><title>サブバンク:千葉銀行</title><path fill="#ffffff" stroke="#4b75b9" stroke-width="3" d="M890.3482,-221.6C890.3482,-221.6 835.865,-221.6 835.865,-221.6 829.865,-221.6 823.865,-215.6 823.865,-209.6 823.865,-209.6 823.865,-197.6 823.865,-197.6 823.865,-191.6 829.865,-185.6 835.865,-185.6 835.865,-185.6 890.3482,-185.6 890.3482,-185.6 896.3482,-185.6 902.3482,-191.6 902.3482,-197.6 902.3482,-197.6 902.3482,-209.6 902.3482,-209.6 902.3482,-215.6 896.3482,-221.6 890.3482,-221.6"></path><text text-anchor="middle" x="863.1066" y="-199.4" font-family="Arial" font-size="14.00" fill="#333333">千葉銀行</text></g><!-- メインバンク:gmoあおぞらネット銀行&#45;&gt;サブバンク:千葉銀行 --><g id="edge-25" class="edge"><title>メインバンク:gmoあおぞらネット銀行-&gt;サブバンク:千葉銀行</title><path fill="none" stroke="#333333" stroke-width="2" stroke-opacity="0.600000" d="M1142.201,-284C1033.6273,-284 863.1066,-284 863.1066,-284 863.1066,-284 863.1066,-231.844 863.1066,-231.844"></path><polygon fill="#333333" fill-opacity="0.600000" stroke="#333333" stroke-width="2" stroke-opacity="0.600000" points="866.6067,-231.844 863.1066,-221.844 859.6067,-231.844 866.6067,-231.844"></polygon></g><!-- クレジットカード:セゾンアメックス(家族) --><g id="node12" class="node"><title>クレジットカード:セゾンアメックス(家族)</title><path fill="#ffffff" stroke="#4b75b9" stroke-width="3" d="M387.0111,-136.8C387.0111,-136.8 235.2021,-136.8 235.2021,-136.8 229.2021,-136.8 223.2021,-130.8 223.2021,-124.8 223.2021,-124.8 223.2021,-112.8 223.2021,-112.8 223.2021,-106.8 229.2021,-100.8 235.2021,-100.8 235.2021,-100.8 387.0111,-100.8 387.0111,-100.8 393.0111,-100.8 399.0111,-106.8 399.0111,-112.8 399.0111,-112.8 399.0111,-124.8 399.0111,-124.8 399.0111,-130.8 393.0111,-136.8 387.0111,-136.8"></path><text text-anchor="middle" x="311.1066" y="-114.6" font-family="Arial" font-size="14.00" fill="#333333">セゾンアメックス(家族)</text></g><!-- メインバンク:gmoあおぞらネット銀行&#45;&gt;クレジットカード:セゾンアメックス(家族) --><g id="edge-14" class="edge"><title>メインバンク:gmoあおぞらネット銀行-&gt;クレジットカード:セゾンアメックス(家族)</title><path fill="none" stroke="#333333" stroke-width="2" stroke-opacity="0.600000" d="M1149.0598,-262.0997C1149.0598,-252.2094 1149.0598,-242 1149.0598,-242 1149.0598,-242 311.1066,-242 311.1066,-242 311.1066,-242 311.1066,-146.9786 311.1066,-146.9786"></path><polygon fill="#333333" fill-opacity="0.600000" stroke="#333333" stroke-width="2" stroke-opacity="0.600000" points="314.6067,-146.9785 311.1066,-136.9786 307.6067,-146.9786 314.6067,-146.9785"></polygon></g><!-- クレジットカード:三井ショッピングパークカード --><g id="node13" class="node"><title>クレジットカード:三井ショッピングパークカード</title><path fill="#ffffff" stroke="#4b75b9" stroke-width="3" d="M979.466,-136.8C979.466,-136.8 772.7472,-136.8 772.7472,-136.8 766.7472,-136.8 760.7472,-130.8 760.7472,-124.8 760.7472,-124.8 760.7472,-112.8 760.7472,-112.8 760.7472,-106.8 766.7472,-100.8 772.7472,-100.8 772.7472,-100.8 979.466,-100.8 979.466,-100.8 985.466,-100.8 991.466,-106.8 991.466,-112.8 991.466,-112.8 991.466,-124.8 991.466,-124.8 991.466,-130.8 985.466,-136.8 979.466,-136.8"></path><text text-anchor="middle" x="876.1066" y="-114.6" font-family="Arial" font-size="14.00" fill="#333333">三井ショッピングパークカード</text></g><!-- メインバンク:gmoあおぞらネット銀行&#45;&gt;クレジットカード:三井ショッピングパークカード --><g id="edge-16" class="edge"><title>メインバンク:gmoあおぞらネット銀行-&gt;クレジットカード:三井ショッピングパークカード</title><path fill="none" stroke="#333333" stroke-width="2" stroke-opacity="0.600000" d="M1142.1397,-276C1047.7666,-276 911.2723,-276 911.2723,-276 911.2723,-276 911.2723,-146.8328 911.2723,-146.8328"></path><polygon fill="#333333" fill-opacity="0.600000" stroke="#333333" stroke-width="2" stroke-opacity="0.600000" points="914.7723,-146.8328 911.2723,-136.8328 907.7723,-146.8329 914.7723,-146.8328"></polygon></g><!-- クレジットカード:amazon masterカード --><g id="node10" class="node"><title>クレジットカード:amazon masterカード</title><path fill="#ffffff" stroke="#4b75b9" stroke-width="3" d="M571.5,-136.8C571.5,-136.8 428.7132,-136.8 428.7132,-136.8 422.7132,-136.8 416.7132,-130.8 416.7132,-124.8 416.7132,-124.8 416.7132,-112.8 416.7132,-112.8 416.7132,-106.8 422.7132,-100.8 428.7132,-100.8 428.7132,-100.8 571.5,-100.8 571.5,-100.8 577.5,-100.8 583.5,-106.8 583.5,-112.8 583.5,-112.8 583.5,-124.8 583.5,-124.8 583.5,-130.8 577.5,-136.8 571.5,-136.8"></path><text text-anchor="middle" x="500.1066" y="-114.6" font-family="Arial" font-size="14.00" fill="#333333">Amazon Masterカード</text></g><!-- メインバンク:三菱ufj銀行&#45;&gt;クレジットカード:amazon masterカード --><g id="edge-12" class="edge"><title>メインバンク:三菱ufj銀行-&gt;クレジットカード:amazon masterカード</title><path fill="none" stroke="#333333" stroke-width="2" stroke-opacity="0.600000" d="M1246.2719,-185.2865C1246.2719,-173.7405 1246.2719,-161 1246.2719,-161 1246.2719,-161 558.4263,-161 558.4263,-161 558.4263,-161 558.4263,-146.9415 558.4263,-146.9415"></path><polygon fill="#333333" fill-opacity="0.600000" stroke="#333333" stroke-width="2" stroke-opacity="0.600000" points="561.9263,-146.9415 558.4263,-136.9415 554.9263,-146.9415 561.9263,-146.9415"></polygon></g><!-- クレジットカード:visa line payカード --><g id="node11" class="node"><title>クレジットカード:visa line payカード</title><path fill="#ffffff" stroke="#4b75b9" stroke-width="3" d="M1156.73,-136.8C1156.73,-136.8 1021.4832,-136.8 1021.4832,-136.8 1015.4832,-136.8 1009.4832,-130.8 1009.4832,-124.8 1009.4832,-124.8 1009.4832,-112.8 1009.4832,-112.8 1009.4832,-106.8 1015.4832,-100.8 1021.4832,-100.8 1021.4832,-100.8 1156.73,-100.8 1156.73,-100.8 1162.73,-100.8 1168.73,-106.8 1168.73,-112.8 1168.73,-112.8 1168.73,-124.8 1168.73,-124.8 1168.73,-130.8 1162.73,-136.8 1156.73,-136.8"></path><text text-anchor="middle" x="1089.1066" y="-114.6" font-family="Arial" font-size="14.00" fill="#333333">Visa LINE Payカード</text></g><!-- メインバンク:三菱ufj銀行&#45;&gt;クレジットカード:visa line payカード --><g id="edge-2" class="edge"><title>メインバンク:三菱ufj銀行-&gt;クレジットカード:visa line payカード</title><path fill="none" stroke="#333333" stroke-width="2" stroke-opacity="0.600000" d="M1210.4317,-197C1185.8647,-197 1162.1321,-197 1162.1321,-197 1162.1321,-197 1162.1321,-146.9372 1162.1321,-146.9372"></path><polygon fill="#333333" fill-opacity="0.600000" stroke="#333333" stroke-width="2" stroke-opacity="0.600000" points="1165.6322,-146.9372 1162.1321,-136.9372 1158.6322,-146.9372 1165.6322,-146.9372"></polygon></g><!-- クレジットカード:セブンカード(家族) --><g id="node14" class="node"><title>クレジットカード:セブンカード(家族)</title><path fill="#ffffff" stroke="#4b75b9" stroke-width="3" d="M1329.551,-136.8C1329.551,-136.8 1198.6622,-136.8 1198.6622,-136.8 1192.6622,-136.8 1186.6622,-130.8 1186.6622,-124.8 1186.6622,-124.8 1186.6622,-112.8 1186.6622,-112.8 1186.6622,-106.8 1192.6622,-100.8 1198.6622,-100.8 1198.6622,-100.8 1329.551,-100.8 1329.551,-100.8 1335.551,-100.8 1341.551,-106.8 1341.551,-112.8 1341.551,-112.8 1341.551,-124.8 1341.551,-124.8 1341.551,-130.8 1335.551,-136.8 1329.551,-136.8"></path><text text-anchor="middle" x="1264.1066" y="-114.6" font-family="Arial" font-size="14.00" fill="#333333">セブンカード(家族)</text></g><!-- メインバンク:三菱ufj銀行&#45;&gt;クレジットカード:セブンカード(家族) --><g id="edge-18" class="edge"><title>メインバンク:三菱ufj銀行-&gt;クレジットカード:セブンカード(家族)</title><path fill="none" stroke="#333333" stroke-width="2" stroke-opacity="0.600000" d="M1281.9413,-185.1997C1281.9413,-185.1997 1281.9413,-146.8731 1281.9413,-146.8731"></path><polygon fill="#333333" fill-opacity="0.600000" stroke="#333333" stroke-width="2" stroke-opacity="0.600000" points="1285.4414,-146.8731 1281.9413,-136.8731 1278.4414,-146.8731 1285.4414,-146.8731"></polygon></g><!-- クレジットカード:ビュースイカカード --><g id="node18" class="node"><title>クレジットカード:ビュースイカカード</title><path fill="#ffffff" stroke="#4b75b9" stroke-width="3" d="M1760.8558,-136.8C1760.8558,-136.8 1621.3574,-136.8 1621.3574,-136.8 1615.3574,-136.8 1609.3574,-130.8 1609.3574,-124.8 1609.3574,-124.8 1609.3574,-112.8 1609.3574,-112.8 1609.3574,-106.8 1615.3574,-100.8 1621.3574,-100.8 1621.3574,-100.8 1760.8558,-100.8 1760.8558,-100.8 1766.8558,-100.8 1772.8558,-106.8 1772.8558,-112.8 1772.8558,-112.8 1772.8558,-124.8 1772.8558,-124.8 1772.8558,-130.8 1766.8558,-136.8 1760.8558,-136.8"></path><text text-anchor="middle" x="1691.1066" y="-114.6" font-family="Arial" font-size="14.00" fill="#333333">ビュースイカカード</text></g><!-- メインバンク:三菱ufj銀行&#45;&gt;クレジットカード:ビュースイカカード --><g id="edge-29" class="edge"><title>メインバンク:三菱ufj銀行-&gt;クレジットカード:ビュースイカカード</title><path fill="none" stroke="#333333" stroke-width="2" stroke-opacity="0.600000" d="M1317.7541,-191C1432.4375,-191 1691.1066,-191 1691.1066,-191 1691.1066,-191 1691.1066,-147.0191 1691.1066,-147.0191"></path><polygon fill="#333333" fill-opacity="0.600000" stroke="#333333" stroke-width="2" stroke-opacity="0.600000" points="1694.6067,-147.0191 1691.1066,-137.0191 1687.6067,-147.0191 1694.6067,-147.0191"></polygon></g><!-- プルデンシャル生命:生命保険 --><g id="node19" class="node"><title>プルデンシャル生命:生命保険</title><path fill="#ffffff" stroke="#4b75b9" stroke-width="3" d="M1870.8355,-136.8C1870.8355,-136.8 1809.3777,-136.8 1809.3777,-136.8 1803.3777,-136.8 1797.3777,-130.8 1797.3777,-124.8 1797.3777,-124.8 1797.3777,-112.8 1797.3777,-112.8 1797.3777,-106.8 1803.3777,-100.8 1809.3777,-100.8 1809.3777,-100.8 1870.8355,-100.8 1870.8355,-100.8 1876.8355,-100.8 1882.8355,-106.8 1882.8355,-112.8 1882.8355,-112.8 1882.8355,-124.8 1882.8355,-124.8 1882.8355,-130.8 1876.8355,-136.8 1870.8355,-136.8"></path><text text-anchor="middle" x="1840.1066" y="-114.6" font-family="Arial" font-size="14.00" fill="#333333">生命保険</text></g><!-- メインバンク:三菱ufj銀行&#45;&gt;プルデンシャル生命:生命保険 --><g id="edge-20" class="edge"><title>メインバンク:三菱ufj銀行-&gt;プルデンシャル生命:生命保険</title><path fill="none" stroke="#333333" stroke-width="2" stroke-opacity="0.600000" d="M1317.778,-197C1460.7701,-197 1840.1066,-197 1840.1066,-197 1840.1066,-197 1840.1066,-146.9372 1840.1066,-146.9372"></path><polygon fill="#333333" fill-opacity="0.600000" stroke="#333333" stroke-width="2" stroke-opacity="0.600000" points="1843.6067,-146.9372 1840.1066,-136.9372 1836.6067,-146.9372 1843.6067,-146.9372"></polygon></g><!-- 県民共済:保険 --><g id="node20" class="node"><title>県民共済:保険</title><path fill="#ffffff" stroke="#4b75b9" stroke-width="3" d="M2003.1066,-136.8C2003.1066,-136.8 1973.1066,-136.8 1973.1066,-136.8 1967.1066,-136.8 1961.1066,-130.8 1961.1066,-124.8 1961.1066,-124.8 1961.1066,-112.8 1961.1066,-112.8 1961.1066,-106.8 1967.1066,-100.8 1973.1066,-100.8 1973.1066,-100.8 2003.1066,-100.8 2003.1066,-100.8 2009.1066,-100.8 2015.1066,-106.8 2015.1066,-112.8 2015.1066,-112.8 2015.1066,-124.8 2015.1066,-124.8 2015.1066,-130.8 2009.1066,-136.8 2003.1066,-136.8"></path><text text-anchor="middle" x="1988.1066" y="-114.6" font-family="Arial" font-size="14.00" fill="#333333">保険</text></g><!-- メインバンク:三菱ufj銀行&#45;&gt;県民共済:保険 --><g id="edge-21" class="edge"><title>メインバンク:三菱ufj銀行-&gt;県民共済:保険</title><path fill="none" stroke="#333333" stroke-width="2" stroke-opacity="0.600000" d="M1317.6381,-203C1485.1324,-203 1988.1066,-203 1988.1066,-203 1988.1066,-203 1988.1066,-147.0701 1988.1066,-147.0701"></path><polygon fill="#333333" fill-opacity="0.600000" stroke="#333333" stroke-width="2" stroke-opacity="0.600000" points="1991.6067,-147.0701 1988.1066,-137.0701 1984.6067,-147.0702 1991.6067,-147.0701"></polygon></g><!-- 管理費・修繕積立金 --><g id="node25" class="node"><title>管理費・修繕積立金</title><path fill="none" stroke="#000000" stroke-width="2" d="M2181.1036,-136.8C2181.1036,-136.8 2045.1096,-136.8 2045.1096,-136.8 2039.1096,-136.8 2033.1096,-130.8 2033.1096,-124.8 2033.1096,-124.8 2033.1096,-112.8 2033.1096,-112.8 2033.1096,-106.8 2039.1096,-100.8 2045.1096,-100.8 2045.1096,-100.8 2181.1036,-100.8 2181.1036,-100.8 2187.1036,-100.8 2193.1036,-106.8 2193.1036,-112.8 2193.1036,-112.8 2193.1036,-124.8 2193.1036,-124.8 2193.1036,-130.8 2187.1036,-136.8 2181.1036,-136.8"></path><text text-anchor="middle" x="2113.1066" y="-114.6" font-family="Arial" font-size="14.00" fill="#000000">管理費・修繕積立金</text></g><!-- メインバンク:三菱ufj銀行&#45;&gt;管理費・修繕積立金 --><g id="edge-11" class="edge"><title>メインバンク:三菱ufj銀行-&gt;管理費・修繕積立金</title><path fill="none" stroke="#333333" stroke-width="2" stroke-opacity="0.600000" d="M1317.8594,-209C1504.4869,-209 2113.1066,-209 2113.1066,-209 2113.1066,-209 2113.1066,-147.0533 2113.1066,-147.0533"></path><polygon fill="#333333" fill-opacity="0.600000" stroke="#333333" stroke-width="2" stroke-opacity="0.600000" points="2116.6067,-147.0533 2113.1066,-137.0533 2109.6067,-147.0534 2116.6067,-147.0533"></polygon></g><!-- クレジットカード:楽天カード --><g id="node15" class="node"><title>クレジットカード:楽天カード</title><path fill="#ffffff" stroke="#4b75b9" stroke-width="3" d="M1451.0614,-136.8C1451.0614,-136.8 1371.1518,-136.8 1371.1518,-136.8 1365.1518,-136.8 1359.1518,-130.8 1359.1518,-124.8 1359.1518,-124.8 1359.1518,-112.8 1359.1518,-112.8 1359.1518,-106.8 1365.1518,-100.8 1371.1518,-100.8 1371.1518,-100.8 1451.0614,-100.8 1451.0614,-100.8 1457.0614,-100.8 1463.0614,-106.8 1463.0614,-112.8 1463.0614,-112.8 1463.0614,-124.8 1463.0614,-124.8 1463.0614,-130.8 1457.0614,-136.8 1451.0614,-136.8"></path><text text-anchor="middle" x="1411.1066" y="-114.6" font-family="Arial" font-size="14.00" fill="#333333">楽天カード</text></g><!-- サブバンク:楽天銀行&#45;&gt;クレジットカード:楽天カード --><g id="edge-5" class="edge"><title>サブバンク:楽天銀行-&gt;クレジットカード:楽天カード</title><path fill="none" stroke="#333333" stroke-width="2" stroke-opacity="0.600000" d="M998.7161,-185.3942C998.7161,-167.8669 998.7161,-144 998.7161,-144 998.7161,-144 1386.8,-144 1386.8,-144 1386.8,-144 1386.8,-143.2846 1386.8,-143.2846"></path><polygon fill="#333333" fill-opacity="0.600000" stroke="#333333" stroke-width="2" stroke-opacity="0.600000" points="1390.3001,-146.846 1386.8,-136.8461 1383.3001,-146.8462 1390.3001,-146.846"></polygon></g><!-- 住宅ローン --><g id="node24" class="node"><title>住宅ローン</title><path fill="none" stroke="#000000" stroke-width="2" d="M94.32,-136.8C94.32,-136.8 11.8932,-136.8 11.8932,-136.8 5.8932,-136.8 -.1068,-130.8 -.1068,-124.8 -.1068,-124.8 -.1068,-112.8 -.1068,-112.8 -.1068,-106.8 5.8932,-100.8 11.8932,-100.8 11.8932,-100.8 94.32,-100.8 94.32,-100.8 100.32,-100.8 106.32,-106.8 106.32,-112.8 106.32,-112.8 106.32,-124.8 106.32,-124.8 106.32,-130.8 100.32,-136.8 94.32,-136.8"></path><text text-anchor="middle" x="53.1066" y="-114.6" font-family="Arial" font-size="14.00" fill="#000000">住宅ローン</text></g><!-- サブバンク:住信sbiネット銀行&#45;&gt;住宅ローン --><g id="edge-10" class="edge"><title>サブバンク:住信sbiネット銀行-&gt;住宅ローン</title><path fill="none" stroke="#333333" stroke-width="2" stroke-opacity="0.600000" d="M698.4431,-185.4164C698.4431,-180.7406 698.4431,-177 698.4431,-177 698.4431,-177 53.1066,-177 53.1066,-177 53.1066,-177 53.1066,-146.8958 53.1066,-146.8958"></path><polygon fill="#333333" fill-opacity="0.600000" stroke="#333333" stroke-width="2" stroke-opacity="0.600000" points="56.6067,-146.8958 53.1066,-136.8958 49.6067,-146.8958 56.6067,-146.8958"></polygon></g><!-- クレジットカード:イオンカード --><g id="node17" class="node"><title>クレジットカード:イオンカード</title><path fill="#ffffff" stroke="#4b75b9" stroke-width="3" d="M1579.4749,-136.8C1579.4749,-136.8 1492.7383,-136.8 1492.7383,-136.8 1486.7383,-136.8 1480.7383,-130.8 1480.7383,-124.8 1480.7383,-124.8 1480.7383,-112.8 1480.7383,-112.8 1480.7383,-106.8 1486.7383,-100.8 1492.7383,-100.8 1492.7383,-100.8 1579.4749,-100.8 1579.4749,-100.8 1585.4749,-100.8 1591.4749,-106.8 1591.4749,-112.8 1591.4749,-112.8 1591.4749,-124.8 1591.4749,-124.8 1591.4749,-130.8 1585.4749,-136.8 1579.4749,-136.8"></path><text text-anchor="middle" x="1536.1066" y="-114.6" font-family="Arial" font-size="14.00" fill="#333333">イオンカード</text></g><!-- サブバンク:イオン銀行&#45;&gt;クレジットカード:イオンカード --><g id="edge-23" class="edge"><title>サブバンク:イオン銀行-&gt;クレジットカード:イオンカード</title><path fill="none" stroke="#333333" stroke-width="2" stroke-opacity="0.600000" d="M1070.1066,-185.3322C1070.1066,-170.8385 1070.1066,-153 1070.1066,-153 1070.1066,-153 1536.1066,-153 1536.1066,-153 1536.1066,-153 1536.1066,-147.1015 1536.1066,-147.1015"></path><polygon fill="#333333" fill-opacity="0.600000" stroke="#333333" stroke-width="2" stroke-opacity="0.600000" points="1539.6067,-147.1014 1536.1066,-137.1015 1532.6067,-147.1015 1539.6067,-147.1014"></polygon></g><!-- 学費など --><g id="node30" class="node"><title>学費など</title><path fill="none" stroke="#000000" stroke-width="2" d="M193.7599,-136.8C193.7599,-136.8 136.4533,-136.8 136.4533,-136.8 130.4533,-136.8 124.4533,-130.8 124.4533,-124.8 124.4533,-124.8 124.4533,-112.8 124.4533,-112.8 124.4533,-106.8 130.4533,-100.8 136.4533,-100.8 136.4533,-100.8 193.7599,-100.8 193.7599,-100.8 199.7599,-100.8 205.7599,-106.8 205.7599,-112.8 205.7599,-112.8 205.7599,-124.8 205.7599,-124.8 205.7599,-130.8 199.7599,-136.8 193.7599,-136.8"></path><text text-anchor="middle" x="165.1066" y="-114.6" font-family="Arial" font-size="14.00" fill="#000000">学費など</text></g><!-- サブバンク:千葉銀行&#45;&gt;学費など --><g id="edge-26" class="edge"><title>サブバンク:千葉銀行-&gt;学費など</title><path fill="none" stroke="#333333" stroke-width="2" stroke-opacity="0.600000" d="M863.1066,-185.4893C863.1066,-177.1178 863.1066,-169 863.1066,-169 863.1066,-169 165.1066,-169 165.1066,-169 165.1066,-169 165.1066,-146.9234 165.1066,-146.9234"></path><polygon fill="#333333" fill-opacity="0.600000" stroke="#333333" stroke-width="2" stroke-opacity="0.600000" points="168.6067,-146.9233 165.1066,-136.9234 161.6067,-146.9234 168.6067,-146.9233"></polygon></g><!-- サブバンク:ゆうちょ銀行 --><g id="node7" class="node"><title>サブバンク:ゆうちょ銀行</title><path fill="#ffffff" stroke="#4b75b9" stroke-width="3" d="M624.7221,-221.6C624.7221,-221.6 545.4911,-221.6 545.4911,-221.6 539.4911,-221.6 533.4911,-215.6 533.4911,-209.6 533.4911,-209.6 533.4911,-197.6 533.4911,-197.6 533.4911,-191.6 539.4911,-185.6 545.4911,-185.6 545.4911,-185.6 624.7221,-185.6 624.7221,-185.6 630.7221,-185.6 636.7221,-191.6 636.7221,-197.6 636.7221,-197.6 636.7221,-209.6 636.7221,-209.6 636.7221,-215.6 630.7221,-221.6 624.7221,-221.6"></path><text text-anchor="middle" x="585.1066" y="-199.4" font-family="Arial" font-size="14.00" fill="#333333">ゆうちょ銀行</text></g><!-- 楽天証券:積立nisa --><g id="node8" class="node"><title>楽天証券:積立nisa</title><path fill="#ffffff" stroke="#4b75b9" stroke-width="3" d="M1436.2952,-52C1436.2952,-52 1385.918,-52 1385.918,-52 1379.918,-52 1373.918,-46 1373.918,-40 1373.918,-40 1373.918,-28 1373.918,-28 1373.918,-22 1379.918,-16 1385.918,-16 1385.918,-16 1436.2952,-16 1436.2952,-16 1442.2952,-16 1448.2952,-22 1448.2952,-28 1448.2952,-28 1448.2952,-40 1448.2952,-40 1448.2952,-46 1442.2952,-52 1436.2952,-52"></path><text text-anchor="middle" x="1411.1066" y="-29.8" font-family="Arial" font-size="14.00" fill="#333333">積立NISA</text></g><!-- 楽天証券:投資信託 --><g id="node9" class="node"><title>楽天証券:投資信託</title><path fill="#ffffff" stroke="#4b75b9" stroke-width="3" d="M1343.7944,-52C1343.7944,-52 1284.4188,-52 1284.4188,-52 1278.4188,-52 1272.4188,-46 1272.4188,-40 1272.4188,-40 1272.4188,-28 1272.4188,-28 1272.4188,-22 1278.4188,-16 1284.4188,-16 1284.4188,-16 1343.7944,-16 1343.7944,-16 1349.7944,-16 1355.7944,-22 1355.7944,-28 1355.7944,-28 1355.7944,-40 1355.7944,-40 1355.7944,-46 1349.7944,-52 1343.7944,-52"></path><text text-anchor="middle" x="1314.1066" y="-29.8" font-family="Arial" font-size="14.00" fill="#333333">投資信託</text></g><!-- amazon --><g id="node26" class="node"><title>amazon</title><path fill="none" stroke="#000000" stroke-width="2" d="M521.9525,-52C521.9525,-52 478.2607,-52 478.2607,-52 472.2607,-52 466.2607,-46 466.2607,-40 466.2607,-40 466.2607,-28 466.2607,-28 466.2607,-22 472.2607,-16 478.2607,-16 478.2607,-16 521.9525,-16 521.9525,-16 527.9525,-16 533.9525,-22 533.9525,-28 533.9525,-28 533.9525,-40 533.9525,-40 533.9525,-46 527.9525,-52 521.9525,-52"></path><text text-anchor="middle" x="500.1066" y="-29.8" font-family="Arial" font-size="14.00" fill="#000000">Amazon</text></g><!-- クレジットカード:amazon masterカード&#45;&gt;amazon --><g id="edge-13" class="edge"><title>クレジットカード:amazon masterカード-&gt;amazon</title><path fill="none" stroke="#333333" stroke-width="2" stroke-opacity="0.600000" d="M500.1066,-100.3997C500.1066,-100.3997 500.1066,-62.0731 500.1066,-62.0731"></path><polygon fill="#333333" fill-opacity="0.600000" stroke="#333333" stroke-width="2" stroke-opacity="0.600000" points="503.6067,-62.0731 500.1066,-52.0731 496.6067,-62.0731 503.6067,-62.0731"></polygon></g><!-- 世界 --><g id="node22" class="node"><title>世界</title><path fill="none" stroke="#000000" stroke-width="2" d="M381.1066,-52C381.1066,-52 351.1066,-52 351.1066,-52 345.1066,-52 339.1066,-46 339.1066,-40 339.1066,-40 339.1066,-28 339.1066,-28 339.1066,-22 345.1066,-16 351.1066,-16 351.1066,-16 381.1066,-16 381.1066,-16 387.1066,-16 393.1066,-22 393.1066,-28 393.1066,-28 393.1066,-40 393.1066,-40 393.1066,-46 387.1066,-52 381.1066,-52"></path><text text-anchor="middle" x="366.1066" y="-29.8" font-family="Arial" font-size="14.00" fill="#000000">世界</text></g><!-- クレジットカード:visa line payカード&#45;&gt;世界 --><g id="edge-3" class="edge"><title>クレジットカード:visa line payカード-&gt;世界</title><path fill="none" stroke="#333333" stroke-width="2" stroke-opacity="0.600000" d="M1053.7666,-100.4006C1053.7666,-88.8003 1053.7666,-76 1053.7666,-76 1053.7666,-76 375.1066,-76 375.1066,-76 375.1066,-76 375.1066,-62.0555 375.1066,-62.0555"></path><polygon fill="#333333" fill-opacity="0.600000" stroke="#333333" stroke-width="2" stroke-opacity="0.600000" points="378.6067,-62.0555 375.1066,-52.0555 371.6067,-62.0556 378.6067,-62.0555"></polygon></g><!-- クレジットカード:セゾンアメックス(家族)&#45;&gt;世界 --><g id="edge-15" class="edge"><title>クレジットカード:セゾンアメックス(家族)-&gt;世界</title><path fill="none" stroke="#333333" stroke-width="2" stroke-opacity="0.600000" d="M357.1066,-100.3997C357.1066,-100.3997 357.1066,-62.0731 357.1066,-62.0731"></path><polygon fill="#333333" fill-opacity="0.600000" stroke="#333333" stroke-width="2" stroke-opacity="0.600000" points="360.6067,-62.0731 357.1066,-52.0731 353.6067,-62.0731 360.6067,-62.0731"></polygon></g><!-- ららぽーとなど --><g id="node27" class="node"><title>ららぽーとなど</title><path fill="none" stroke="#000000" stroke-width="2" d="M929.4886,-52C929.4886,-52 822.7246,-52 822.7246,-52 816.7246,-52 810.7246,-46 810.7246,-40 810.7246,-40 810.7246,-28 810.7246,-28 810.7246,-22 816.7246,-16 822.7246,-16 822.7246,-16 929.4886,-16 929.4886,-16 935.4886,-16 941.4886,-22 941.4886,-28 941.4886,-28 941.4886,-40 941.4886,-40 941.4886,-46 935.4886,-52 929.4886,-52"></path><text text-anchor="middle" x="876.1066" y="-29.8" font-family="Arial" font-size="14.00" fill="#000000">ららぽーとなど</text></g><!-- クレジットカード:三井ショッピングパークカード&#45;&gt;ららぽーとなど --><g id="edge-17" class="edge"><title>クレジットカード:三井ショッピングパークカード-&gt;ららぽーとなど</title><path fill="none" stroke="#333333" stroke-width="2" stroke-opacity="0.600000" d="M876.1066,-100.3997C876.1066,-100.3997 876.1066,-62.0731 876.1066,-62.0731"></path><polygon fill="#333333" fill-opacity="0.600000" stroke="#333333" stroke-width="2" stroke-opacity="0.600000" points="879.6067,-62.0731 876.1066,-52.0731 872.6067,-62.0731 879.6067,-62.0731"></polygon></g><!-- イトーヨーカドー --><g id="node28" class="node"><title>イトーヨーカドー</title><path fill="none" stroke="#000000" stroke-width="2" d="M1242.3434,-52C1242.3434,-52 1109.8698,-52 1109.8698,-52 1103.8698,-52 1097.8698,-46 1097.8698,-40 1097.8698,-40 1097.8698,-28 1097.8698,-28 1097.8698,-22 1103.8698,-16 1109.8698,-16 1109.8698,-16 1242.3434,-16 1242.3434,-16 1248.3434,-16 1254.3434,-22 1254.3434,-28 1254.3434,-28 1254.3434,-40 1254.3434,-40 1254.3434,-46 1248.3434,-52 1242.3434,-52"></path><text text-anchor="middle" x="1176.1066" y="-29.8" font-family="Arial" font-size="14.00" fill="#000000">イトーヨーカドー</text></g><!-- クレジットカード:セブンカード(家族)&#45;&gt;イトーヨーカドー --><g id="edge-19" class="edge"><title>クレジットカード:セブンカード(家族)-&gt;イトーヨーカドー</title><path fill="none" stroke="#333333" stroke-width="2" stroke-opacity="0.600000" d="M1220.4297,-100.3997C1220.4297,-100.3997 1220.4297,-62.0731 1220.4297,-62.0731"></path><polygon fill="#333333" fill-opacity="0.600000" stroke="#333333" stroke-width="2" stroke-opacity="0.600000" points="1223.9297,-62.0731 1220.4297,-52.0731 1216.9297,-62.0731 1223.9297,-62.0731"></polygon></g><!-- クレジットカード:楽天カード&#45;&gt;楽天証券:積立nisa --><g id="edge-6" class="edge"><title>クレジットカード:楽天カード-&gt;楽天証券:積立nisa</title><path fill="none" stroke="#333333" stroke-width="2" stroke-opacity="0.600000" d="M1411.1066,-100.3997C1411.1066,-100.3997 1411.1066,-62.0731 1411.1066,-62.0731"></path><polygon fill="#333333" fill-opacity="0.600000" stroke="#333333" stroke-width="2" stroke-opacity="0.600000" points="1414.6067,-62.0731 1411.1066,-52.0731 1407.6067,-62.0731 1414.6067,-62.0731"></polygon></g><!-- クレジットカード:楽天カード&#45;&gt;楽天証券:投資信託 --><g id="edge-7" class="edge"><title>クレジットカード:楽天カード-&gt;楽天証券:投資信託</title><path fill="none" stroke="#333333" stroke-width="2" stroke-opacity="0.600000" d="M1358.9967,-118C1354.2368,-118 1351.1597,-118 1351.1597,-118 1351.1597,-118 1351.1597,-62.2267 1351.1597,-62.2267"></path><polygon fill="#333333" fill-opacity="0.600000" stroke="#333333" stroke-width="2" stroke-opacity="0.600000" points="1354.6598,-62.2267 1351.1597,-52.2267 1347.6598,-62.2268 1354.6598,-62.2267"></polygon></g><!-- 楽天市場 --><g id="node23" class="node"><title>楽天市場</title><path fill="none" stroke="#000000" stroke-width="2" d="M1527.7393,-52C1527.7393,-52 1478.4739,-52 1478.4739,-52 1472.4739,-52 1466.4739,-46 1466.4739,-40 1466.4739,-40 1466.4739,-28 1466.4739,-28 1466.4739,-22 1472.4739,-16 1478.4739,-16 1478.4739,-16 1527.7393,-16 1527.7393,-16 1533.7393,-16 1539.7393,-22 1539.7393,-28 1539.7393,-28 1539.7393,-40 1539.7393,-40 1539.7393,-46 1533.7393,-52 1527.7393,-52"></path><text text-anchor="middle" x="1503.1066" y="-29.8" font-family="Arial" font-size="14.00" fill="#000000">楽天市場</text></g><!-- クレジットカード:楽天カード&#45;&gt;楽天市場 --><g id="edge-8" class="edge"><title>クレジットカード:楽天カード-&gt;楽天市場</title><path fill="none" stroke="#333333" stroke-width="2" stroke-opacity="0.600000" d="M1455.6421,-100.3997C1455.6421,-75.4593 1455.6421,-34 1455.6421,-34 1455.6421,-34 1456.6954,-34 1456.6954,-34"></path><polygon fill="#333333" fill-opacity="0.600000" stroke="#333333" stroke-width="2" stroke-opacity="0.600000" points="1456.176,-37.5001 1466.176,-34 1456.1759,-30.5001 1456.176,-37.5001"></polygon></g><!-- クレジットカード:ビュスイカカード --><g id="node16" class="node"><title>クレジットカード:ビュスイカカード</title><path fill="#ffffff" stroke="#4b75b9" stroke-width="3" d="M730.2868,-136.8C730.2868,-136.8 613.9264,-136.8 613.9264,-136.8 607.9264,-136.8 601.9264,-130.8 601.9264,-124.8 601.9264,-124.8 601.9264,-112.8 601.9264,-112.8 601.9264,-106.8 607.9264,-100.8 613.9264,-100.8 613.9264,-100.8 730.2868,-100.8 730.2868,-100.8 736.2868,-100.8 742.2868,-106.8 742.2868,-112.8 742.2868,-112.8 742.2868,-124.8 742.2868,-124.8 742.2868,-130.8 736.2868,-136.8 730.2868,-136.8"></path><text text-anchor="middle" x="672.1066" y="-114.6" font-family="Arial" font-size="14.00" fill="#333333">ビュスイカカード</text></g><!-- イオン --><g id="node29" class="node"><title>イオン</title><path fill="none" stroke="#000000" stroke-width="2" d="M1604.094,-52C1604.094,-52 1570.1192,-52 1570.1192,-52 1564.1192,-52 1558.1192,-46 1558.1192,-40 1558.1192,-40 1558.1192,-28 1558.1192,-28 1558.1192,-22 1564.1192,-16 1570.1192,-16 1570.1192,-16 1604.094,-16 1604.094,-16 1610.094,-16 1616.094,-22 1616.094,-28 1616.094,-28 1616.094,-40 1616.094,-40 1616.094,-46 1610.094,-52 1604.094,-52"></path><text text-anchor="middle" x="1587.1066" y="-29.8" font-family="Arial" font-size="14.00" fill="#000000">イオン</text></g><!-- クレジットカード:イオンカード&#45;&gt;イオン --><g id="edge-24" class="edge"><title>クレジットカード:イオンカード-&gt;イオン</title><path fill="none" stroke="#333333" stroke-width="2" stroke-opacity="0.600000" d="M1574.8268,-100.3997C1574.8268,-100.3997 1574.8268,-62.0731 1574.8268,-62.0731"></path><polygon fill="#333333" fill-opacity="0.600000" stroke="#333333" stroke-width="2" stroke-opacity="0.600000" points="1578.3269,-62.0731 1574.8268,-52.0731 1571.3269,-62.0731 1578.3269,-62.0731"></polygon></g><!-- モバイルsuica --><g id="node33" class="node"><title>モバイルsuica</title><path fill="none" stroke="#000000" stroke-width="2" d="M1732.6842,-52C1732.6842,-52 1647.529,-52 1647.529,-52 1641.529,-52 1635.529,-46 1635.529,-40 1635.529,-40 1635.529,-28 1635.529,-28 1635.529,-22 1641.529,-16 1647.529,-16 1647.529,-16 1732.6842,-16 1732.6842,-16 1738.6842,-16 1744.6842,-22 1744.6842,-28 1744.6842,-28 1744.6842,-40 1744.6842,-40 1744.6842,-46 1738.6842,-52 1732.6842,-52"></path><text text-anchor="middle" x="1690.1066" y="-29.8" font-family="Arial" font-size="14.00" fill="#000000">モバイルSuica</text></g><!-- クレジットカード:ビュースイカカード&#45;&gt;モバイルsuica --><g id="edge-30" class="edge"><title>クレジットカード:ビュースイカカード-&gt;モバイルsuica</title><path fill="none" stroke="#333333" stroke-width="2" stroke-opacity="0.600000" d="M1690.1066,-100.3997C1690.1066,-100.3997 1690.1066,-62.0731 1690.1066,-62.0731"></path><polygon fill="#333333" fill-opacity="0.600000" stroke="#333333" stroke-width="2" stroke-opacity="0.600000" points="1693.6067,-62.0731 1690.1066,-52.0731 1686.6067,-62.0731 1693.6067,-62.0731"></polygon></g><!-- 物理suica(家族) --><g id="node34" class="node"><title>物理suica(家族)</title><path fill="none" stroke="#000000" stroke-width="2" d="M1863.1418,-52C1863.1418,-52 1775.0714,-52 1775.0714,-52 1769.0714,-52 1763.0714,-46 1763.0714,-40 1763.0714,-40 1763.0714,-28 1763.0714,-28 1763.0714,-22 1769.0714,-16 1775.0714,-16 1775.0714,-16 1863.1418,-16 1863.1418,-16 1869.1418,-16 1875.1418,-22 1875.1418,-28 1875.1418,-28 1875.1418,-40 1875.1418,-40 1875.1418,-46 1869.1418,-52 1863.1418,-52"></path><text text-anchor="middle" x="1819.1066" y="-29.8" font-family="Arial" font-size="14.00" fill="#000000">物理Suica(家族)</text></g><!-- クレジットカード:ビュースイカカード&#45;&gt;物理suica(家族) --><g id="edge-31" class="edge"><title>クレジットカード:ビュースイカカード-&gt;物理suica(家族)</title><path fill="none" stroke="#333333" stroke-width="2" stroke-opacity="0.600000" d="M1767.9103,-100.3997C1767.9103,-100.3997 1767.9103,-62.0731 1767.9103,-62.0731"></path><polygon fill="#333333" fill-opacity="0.600000" stroke="#333333" stroke-width="2" stroke-opacity="0.600000" points="1771.4104,-62.0731 1767.9103,-52.0731 1764.4104,-62.0731 1771.4104,-62.0731"></polygon></g><!-- 会社 --><g id="node21" class="node"><title>会社</title><path fill="none" stroke="#000000" stroke-width="2" d="M1245.1066,-375.2C1245.1066,-375.2 1215.1066,-375.2 1215.1066,-375.2 1209.1066,-375.2 1203.1066,-369.2 1203.1066,-363.2 1203.1066,-363.2 1203.1066,-351.2 1203.1066,-351.2 1203.1066,-345.2 1209.1066,-339.2 1215.1066,-339.2 1215.1066,-339.2 1245.1066,-339.2 1245.1066,-339.2 1251.1066,-339.2 1257.1066,-345.2 1257.1066,-351.2 1257.1066,-351.2 1257.1066,-363.2 1257.1066,-363.2 1257.1066,-369.2 1251.1066,-375.2 1245.1066,-375.2"></path><text text-anchor="middle" x="1230.1066" y="-353" font-family="Arial" font-size="14.00" fill="#000000">会社</text></g><!-- 会社&#45;&gt;メインバンク:gmoあおぞらネット銀行 --><g id="edge-0" class="edge"><title>会社-&gt;メインバンク:gmoあおぞらネット銀行</title><path fill="none" stroke="#333333" stroke-width="2" stroke-opacity="0.600000" d="M1230.1066,-338.9995C1230.1066,-338.9995 1230.1066,-308.4699 1230.1066,-308.4699"></path><polygon fill="#333333" fill-opacity="0.600000" stroke="#333333" stroke-width="2" stroke-opacity="0.600000" points="1233.6067,-308.4698 1230.1066,-298.4699 1226.6067,-308.4699 1233.6067,-308.4698"></polygon></g><!-- 習志野市 --><g id="node31" class="node"><title>習志野市</title><path fill="none" stroke="#000000" stroke-width="2" d="M1402.3341,-298.4C1402.3341,-298.4 1347.8791,-298.4 1347.8791,-298.4 1341.8791,-298.4 1335.8791,-292.4 1335.8791,-286.4 1335.8791,-286.4 1335.8791,-274.4 1335.8791,-274.4 1335.8791,-268.4 1341.8791,-262.4 1347.8791,-262.4 1347.8791,-262.4 1402.3341,-262.4 1402.3341,-262.4 1408.3341,-262.4 1414.3341,-268.4 1414.3341,-274.4 1414.3341,-274.4 1414.3341,-286.4 1414.3341,-286.4 1414.3341,-292.4 1408.3341,-298.4 1402.3341,-298.4"></path><text text-anchor="middle" x="1375.1066" y="-276.2" font-family="Arial" font-size="14.00" fill="#000000">習志野市</text></g><!-- 習志野市&#45;&gt;メインバンク:三菱ufj銀行 --><g id="edge-27" class="edge"><title>習志野市-&gt;メインバンク:三菱ufj銀行</title><path fill="none" stroke="#333333" stroke-width="2" stroke-opacity="0.600000" d="M1346.3693,-262.1825C1346.3693,-242.8311 1346.3693,-215 1346.3693,-215 1346.3693,-215 1328.0591,-215 1328.0591,-215"></path><polygon fill="#333333" fill-opacity="0.600000" stroke="#333333" stroke-width="2" stroke-opacity="0.600000" points="1328.0592,-211.5001 1318.0591,-215 1328.0591,-218.5001 1328.0592,-211.5001"></polygon></g><!-- 日本 --><g id="node32" class="node"><title>日本</title><path fill="none" stroke="#000000" stroke-width="2" d="M600.1066,-298.4C600.1066,-298.4 570.1066,-298.4 570.1066,-298.4 564.1066,-298.4 558.1066,-292.4 558.1066,-286.4 558.1066,-286.4 558.1066,-274.4 558.1066,-274.4 558.1066,-268.4 564.1066,-262.4 570.1066,-262.4 570.1066,-262.4 600.1066,-262.4 600.1066,-262.4 606.1066,-262.4 612.1066,-268.4 612.1066,-274.4 612.1066,-274.4 612.1066,-286.4 612.1066,-286.4 612.1066,-292.4 606.1066,-298.4 600.1066,-298.4"></path><text text-anchor="middle" x="585.1066" y="-276.2" font-family="Arial" font-size="14.00" fill="#000000">日本</text></g><!-- 日本&#45;&gt;サブバンク:ゆうちょ銀行 --><g id="edge-28" class="edge"><title>日本-&gt;サブバンク:ゆうちょ銀行</title><path fill="none" stroke="#333333" stroke-width="2" stroke-opacity="0.600000" d="M585.1066,-262.1995C585.1066,-262.1995 585.1066,-231.6699 585.1066,-231.6699"></path><polygon fill="#333333" fill-opacity="0.600000" stroke="#333333" stroke-width="2" stroke-opacity="0.600000" points="588.6067,-231.6698 585.1066,-221.6699 581.6067,-231.6699 588.6067,-231.6698"></polygon></g></g></svg>