<?xml version="1.0" encoding="UTF-8" standalone="no"?><!-- Generated by graphviz version 2.40.1 (20161225.0304)
 --><!-- Title: ndiag Pages: 1 --><svg width="1645pt" height="391pt" viewBox="0.00 0.00 1645.19 391.20" xmlns="http://www.w3.org/2000/svg" xmlns:xlink="http://www.w3.org/1999/xlink"><g id="graph0" class="graph" transform="scale(1 1) rotate(0) translate(4 387.2)"><title>ndiag</title><polygon fill="#ffffff" stroke="transparent" points="-4,4 -4,-387.2 1641.1907,-387.2 1641.1907,4 -4,4"></polygon><g id="clust12" class="cluster"><title>cluster_千葉銀行</title><polygon fill="none" stroke="#000000" stroke-width="2" points="1531.1907,-177.6 1531.1907,-254.4 1629.1907,-254.4 1629.1907,-177.6 1531.1907,-177.6"></polygon><text text-anchor="middle" x="1580.1907" y="-237.8" font-family="Arial" font-size="14.00" fill="#000000">千葉銀行</text></g><g id="clust11" class="cluster"><title>cluster_イオン銀行</title><polygon fill="none" stroke="#000000" stroke-width="2" points="1387.1907,-92.8 1387.1907,-254.4 1523.1907,-254.4 1523.1907,-92.8 1387.1907,-92.8"></polygon><text text-anchor="middle" x="1455.1907" y="-237.8" font-family="Arial" font-size="14.00" fill="#000000">イオン銀行</text></g><g id="clust10" class="cluster"><title>cluster_県民共済</title><polygon fill="none" stroke="#000000" stroke-width="2" points="850.1907,-92.8 850.1907,-169.6 920.1907,-169.6 920.1907,-92.8 850.1907,-92.8"></polygon><text text-anchor="middle" x="885.1907" y="-153" font-family="Arial" font-size="14.00" fill="#000000">県民共済</text></g><g id="clust9" class="cluster"><title>cluster_プルデンシャル生命</title><polygon fill="none" stroke="#000000" stroke-width="2" points="686.1907,-92.8 686.1907,-169.6 842.1907,-169.6 842.1907,-92.8 686.1907,-92.8"></polygon><text text-anchor="middle" x="764.1907" y="-153" font-family="Arial" font-size="14.00" fill="#000000">プルデンシャル生命</text></g><g id="clust8" class="cluster"><title>cluster_セブンカード</title><polygon fill="none" stroke="#000000" stroke-width="2" points="508.1907,-92.8 508.1907,-169.6 678.1907,-169.6 678.1907,-92.8 508.1907,-92.8"></polygon><text text-anchor="middle" x="593.1907" y="-153" font-family="Arial" font-size="14.00" fill="#000000">セブンカード</text></g><g id="clust7" class="cluster"><title>cluster_セゾンカード</title><polygon fill="none" stroke="#000000" stroke-width="2" points="311.1907,-177.6 311.1907,-254.4 529.1907,-254.4 529.1907,-177.6 311.1907,-177.6"></polygon><text text-anchor="middle" x="420.1907" y="-237.8" font-family="Arial" font-size="14.00" fill="#000000">セゾンカード</text></g><g id="clust6" class="cluster"><title>cluster_三井住友カード</title><polygon fill="none" stroke="#000000" stroke-width="2" points="140.1907,-92.8 140.1907,-169.6 500.1907,-169.6 500.1907,-92.8 140.1907,-92.8"></polygon><text text-anchor="middle" x="320.1907" y="-153" font-family="Arial" font-size="14.00" fill="#000000">三井住友カード</text></g><g id="clust5" class="cluster"><title>cluster_楽天証券</title><polygon fill="none" stroke="#000000" stroke-width="2" points="1013.1907,-8 1013.1907,-84.8 1205.1907,-84.8 1205.1907,-8 1013.1907,-8"></polygon><text text-anchor="middle" x="1109.1907" y="-68.2" font-family="Arial" font-size="14.00" fill="#000000">楽天証券</text></g><g id="clust4" class="cluster"><title>cluster_住信SBIネット銀行</title><polygon fill="none" stroke="#000000" stroke-width="2" points="1228.1907,-92.8 1228.1907,-254.4 1379.1907,-254.4 1379.1907,-92.8 1228.1907,-92.8"></polygon><text text-anchor="middle" x="1303.6907" y="-237.8" font-family="Arial" font-size="14.00" fill="#000000">住信SBIネット銀行</text></g><g id="clust3" class="cluster"><title>cluster_楽天銀行</title><polygon fill="none" stroke="#000000" stroke-width="2" points="1100.1907,-92.8 1100.1907,-254.4 1220.1907,-254.4 1220.1907,-92.8 1100.1907,-92.8"></polygon><text text-anchor="middle" x="1160.1907" y="-237.8" font-family="Arial" font-size="14.00" fill="#000000">楽天銀行</text></g><g id="clust2" class="cluster"><title>cluster_三菱UFJ銀行</title><polygon fill="none" stroke="#000000" stroke-width="2" points="711.1907,-177.6 711.1907,-254.4 818.1907,-254.4 818.1907,-177.6 711.1907,-177.6"></polygon><text text-anchor="middle" x="764.6907" y="-237.8" font-family="Arial" font-size="14.00" fill="#000000">三菱UFJ銀行</text></g><g id="clust1" class="cluster"><title>cluster_GMOあおぞらネット銀行</title><polygon fill="none" stroke="#000000" stroke-width="2" points="1073.1907,-262.4 1073.1907,-339.2 1248.1907,-339.2 1248.1907,-262.4 1073.1907,-262.4"></polygon><text text-anchor="middle" x="1160.6907" y="-322.6" font-family="Arial" font-size="14.00" fill="#000000">GMOあおぞらネット銀行</text></g><!-- gmoあおぞらネット銀行:普通口座 --><g id="node1" class="node"><title>gmoあおぞらネット銀行:普通口座</title><path fill="#ffffff" stroke="#4b75b9" stroke-width="3" d="M1189.0421,-306.4C1189.0421,-306.4 1131.3393,-306.4 1131.3393,-306.4 1125.3393,-306.4 1119.3393,-300.4 1119.3393,-294.4 1119.3393,-294.4 1119.3393,-282.4 1119.3393,-282.4 1119.3393,-276.4 1125.3393,-270.4 1131.3393,-270.4 1131.3393,-270.4 1189.0421,-270.4 1189.0421,-270.4 1195.0421,-270.4 1201.0421,-276.4 1201.0421,-282.4 1201.0421,-282.4 1201.0421,-294.4 1201.0421,-294.4 1201.0421,-300.4 1195.0421,-306.4 1189.0421,-306.4"></path><text text-anchor="middle" x="1160.1907" y="-284.2" font-family="Arial" font-size="14.00" fill="#333333">普通口座</text></g><!-- 三菱ufj銀行:普通口座 --><g id="node2" class="node"><title>三菱ufj銀行:普通口座</title><path fill="#ffffff" stroke="#4b75b9" stroke-width="3" d="M793.0421,-221.6C793.0421,-221.6 735.3393,-221.6 735.3393,-221.6 729.3393,-221.6 723.3393,-215.6 723.3393,-209.6 723.3393,-209.6 723.3393,-197.6 723.3393,-197.6 723.3393,-191.6 729.3393,-185.6 735.3393,-185.6 735.3393,-185.6 793.0421,-185.6 793.0421,-185.6 799.0421,-185.6 805.0421,-191.6 805.0421,-197.6 805.0421,-197.6 805.0421,-209.6 805.0421,-209.6 805.0421,-215.6 799.0421,-221.6 793.0421,-221.6"></path><text text-anchor="middle" x="764.1907" y="-199.4" font-family="Arial" font-size="14.00" fill="#333333">普通口座</text></g><!-- gmoあおぞらネット銀行:普通口座&#45;&gt;三菱ufj銀行:普通口座 --><g id="edge-1" class="edge"><title>gmoあおぞらネット銀行:普通口座-&gt;三菱ufj銀行:普通口座</title><path fill="none" stroke="#333333" stroke-width="2" stroke-opacity="0.600000" d="M1119.3033,-279C1018.1259,-279 764.1907,-279 764.1907,-279 764.1907,-279 764.1907,-231.8522 764.1907,-231.8522"></path><polygon fill="#333333" fill-opacity="0.600000" stroke="#333333" stroke-width="2" stroke-opacity="0.600000" points="767.6908,-231.8522 764.1907,-221.8522 760.6908,-231.8523 767.6908,-231.8522"></polygon></g><!-- 楽天銀行:普通口座 --><g id="node3" class="node"><title>楽天銀行:普通口座</title><path fill="#ffffff" stroke="#4b75b9" stroke-width="3" d="M1189.0421,-221.6C1189.0421,-221.6 1131.3393,-221.6 1131.3393,-221.6 1125.3393,-221.6 1119.3393,-215.6 1119.3393,-209.6 1119.3393,-209.6 1119.3393,-197.6 1119.3393,-197.6 1119.3393,-191.6 1125.3393,-185.6 1131.3393,-185.6 1131.3393,-185.6 1189.0421,-185.6 1189.0421,-185.6 1195.0421,-185.6 1201.0421,-191.6 1201.0421,-197.6 1201.0421,-197.6 1201.0421,-209.6 1201.0421,-209.6 1201.0421,-215.6 1195.0421,-221.6 1189.0421,-221.6"></path><text text-anchor="middle" x="1160.1907" y="-199.4" font-family="Arial" font-size="14.00" fill="#333333">普通口座</text></g><!-- gmoあおぞらネット銀行:普通口座&#45;&gt;楽天銀行:普通口座 --><g id="edge-4" class="edge"><title>gmoあおぞらネット銀行:普通口座-&gt;楽天銀行:普通口座</title><path fill="none" stroke="#333333" stroke-width="2" stroke-opacity="0.600000" d="M1160.1907,-269.9997C1160.1907,-269.9997 1160.1907,-231.6731 1160.1907,-231.6731"></path><polygon fill="#333333" fill-opacity="0.600000" stroke="#333333" stroke-width="2" stroke-opacity="0.600000" points="1163.6908,-231.6731 1160.1907,-221.6731 1156.6908,-231.6731 1163.6908,-231.6731"></polygon></g><!-- 住信sbiネット銀行:普通口座 --><g id="node5" class="node"><title>住信sbiネット銀行:普通口座</title><path fill="#ffffff" stroke="#4b75b9" stroke-width="3" d="M1312.0421,-221.6C1312.0421,-221.6 1254.3393,-221.6 1254.3393,-221.6 1248.3393,-221.6 1242.3393,-215.6 1242.3393,-209.6 1242.3393,-209.6 1242.3393,-197.6 1242.3393,-197.6 1242.3393,-191.6 1248.3393,-185.6 1254.3393,-185.6 1254.3393,-185.6 1312.0421,-185.6 1312.0421,-185.6 1318.0421,-185.6 1324.0421,-191.6 1324.0421,-197.6 1324.0421,-197.6 1324.0421,-209.6 1324.0421,-209.6 1324.0421,-215.6 1318.0421,-221.6 1312.0421,-221.6"></path><text text-anchor="middle" x="1283.1907" y="-199.4" font-family="Arial" font-size="14.00" fill="#333333">普通口座</text></g><!-- gmoあおぞらネット銀行:普通口座&#45;&gt;住信sbiネット銀行:普通口座 --><g id="edge-9" class="edge"><title>gmoあおぞらネット銀行:普通口座-&gt;住信sbiネット銀行:普通口座</title><path fill="none" stroke="#333333" stroke-width="2" stroke-opacity="0.600000" d="M1201.1479,-279C1236.9287,-279 1283.1907,-279 1283.1907,-279 1283.1907,-279 1283.1907,-231.8522 1283.1907,-231.8522"></path><polygon fill="#333333" fill-opacity="0.600000" stroke="#333333" stroke-width="2" stroke-opacity="0.600000" points="1286.6908,-231.8522 1283.1907,-221.8522 1279.6908,-231.8523 1286.6908,-231.8522"></polygon></g><!-- セゾンカード:amex(家族) --><g id="node11" class="node"><title>セゾンカード:amex(家族)</title><path fill="#ffffff" stroke="#4b75b9" stroke-width="3" d="M398.8709,-221.6C398.8709,-221.6 331.5105,-221.6 331.5105,-221.6 325.5105,-221.6 319.5105,-215.6 319.5105,-209.6 319.5105,-209.6 319.5105,-197.6 319.5105,-197.6 319.5105,-191.6 325.5105,-185.6 331.5105,-185.6 331.5105,-185.6 398.8709,-185.6 398.8709,-185.6 404.8709,-185.6 410.8709,-191.6 410.8709,-197.6 410.8709,-197.6 410.8709,-209.6 410.8709,-209.6 410.8709,-215.6 404.8709,-221.6 398.8709,-221.6"></path><text text-anchor="middle" x="365.1907" y="-199.4" font-family="Arial" font-size="14.00" fill="#333333">Amex(家族)</text></g><!-- gmoあおぞらネット銀行:普通口座&#45;&gt;セゾンカード:amex(家族) --><g id="edge-14" class="edge"><title>gmoあおぞらネット銀行:普通口座-&gt;セゾンカード:amex(家族)</title><path fill="none" stroke="#333333" stroke-width="2" stroke-opacity="0.600000" d="M1119.3983,-297C956.998,-297 365.1907,-297 365.1907,-297 365.1907,-297 365.1907,-231.6085 365.1907,-231.6085"></path><polygon fill="#333333" fill-opacity="0.600000" stroke="#333333" stroke-width="2" stroke-opacity="0.600000" points="368.6908,-231.6084 365.1907,-221.6085 361.6908,-231.6085 368.6908,-231.6084"></polygon></g><!-- セゾンカード:三井カード --><g id="node12" class="node"><title>セゾンカード:三井カード</title><path fill="#ffffff" stroke="#4b75b9" stroke-width="3" d="M509.4013,-221.6C509.4013,-221.6 440.9801,-221.6 440.9801,-221.6 434.9801,-221.6 428.9801,-215.6 428.9801,-209.6 428.9801,-209.6 428.9801,-197.6 428.9801,-197.6 428.9801,-191.6 434.9801,-185.6 440.9801,-185.6 440.9801,-185.6 509.4013,-185.6 509.4013,-185.6 515.4013,-185.6 521.4013,-191.6 521.4013,-197.6 521.4013,-197.6 521.4013,-209.6 521.4013,-209.6 521.4013,-215.6 515.4013,-221.6 509.4013,-221.6"></path><text text-anchor="middle" x="475.1907" y="-199.4" font-family="Arial" font-size="14.00" fill="#333333">三井カード</text></g><!-- gmoあおぞらネット銀行:普通口座&#45;&gt;セゾンカード:三井カード --><g id="edge-16" class="edge"><title>gmoあおぞらネット銀行:普通口座-&gt;セゾンカード:三井カード</title><path fill="none" stroke="#333333" stroke-width="2" stroke-opacity="0.600000" d="M1119.3922,-288C971.9244,-288 475.1907,-288 475.1907,-288 475.1907,-288 475.1907,-231.9135 475.1907,-231.9135"></path><polygon fill="#333333" fill-opacity="0.600000" stroke="#333333" stroke-width="2" stroke-opacity="0.600000" points="478.6908,-231.9135 475.1907,-221.9135 471.6908,-231.9136 478.6908,-231.9135"></polygon></g><!-- イオン銀行:普通口座 --><g id="node16" class="node"><title>イオン銀行:普通口座</title><path fill="#ffffff" stroke="#4b75b9" stroke-width="3" d="M1474.0421,-221.6C1474.0421,-221.6 1416.3393,-221.6 1416.3393,-221.6 1410.3393,-221.6 1404.3393,-215.6 1404.3393,-209.6 1404.3393,-209.6 1404.3393,-197.6 1404.3393,-197.6 1404.3393,-191.6 1410.3393,-185.6 1416.3393,-185.6 1416.3393,-185.6 1474.0421,-185.6 1474.0421,-185.6 1480.0421,-185.6 1486.0421,-191.6 1486.0421,-197.6 1486.0421,-197.6 1486.0421,-209.6 1486.0421,-209.6 1486.0421,-215.6 1480.0421,-221.6 1474.0421,-221.6"></path><text text-anchor="middle" x="1445.1907" y="-199.4" font-family="Arial" font-size="14.00" fill="#333333">普通口座</text></g><!-- gmoあおぞらネット銀行:普通口座&#45;&gt;イオン銀行:普通口座 --><g id="edge-22" class="edge"><title>gmoあおぞらネット銀行:普通口座-&gt;イオン銀行:普通口座</title><path fill="none" stroke="#333333" stroke-width="2" stroke-opacity="0.600000" d="M1201.0243,-288C1279.8293,-288 1445.1907,-288 1445.1907,-288 1445.1907,-288 1445.1907,-231.9135 1445.1907,-231.9135"></path><polygon fill="#333333" fill-opacity="0.600000" stroke="#333333" stroke-width="2" stroke-opacity="0.600000" points="1448.6908,-231.9135 1445.1907,-221.9135 1441.6908,-231.9136 1448.6908,-231.9135"></polygon></g><!-- 千葉銀行:普通口座 --><g id="node18" class="node"><title>千葉銀行:普通口座</title><path fill="#ffffff" stroke="#4b75b9" stroke-width="3" d="M1609.0421,-221.6C1609.0421,-221.6 1551.3393,-221.6 1551.3393,-221.6 1545.3393,-221.6 1539.3393,-215.6 1539.3393,-209.6 1539.3393,-209.6 1539.3393,-197.6 1539.3393,-197.6 1539.3393,-191.6 1545.3393,-185.6 1551.3393,-185.6 1551.3393,-185.6 1609.0421,-185.6 1609.0421,-185.6 1615.0421,-185.6 1621.0421,-191.6 1621.0421,-197.6 1621.0421,-197.6 1621.0421,-209.6 1621.0421,-209.6 1621.0421,-215.6 1615.0421,-221.6 1609.0421,-221.6"></path><text text-anchor="middle" x="1580.1907" y="-199.4" font-family="Arial" font-size="14.00" fill="#333333">普通口座</text></g><!-- gmoあおぞらネット銀行:普通口座&#45;&gt;千葉銀行:普通口座 --><g id="edge-25" class="edge"><title>gmoあおぞらネット銀行:普通口座-&gt;千葉銀行:普通口座</title><path fill="none" stroke="#333333" stroke-width="2" stroke-opacity="0.600000" d="M1201.2268,-297C1306.9097,-297 1580.1907,-297 1580.1907,-297 1580.1907,-297 1580.1907,-231.6085 1580.1907,-231.6085"></path><polygon fill="#333333" fill-opacity="0.600000" stroke="#333333" stroke-width="2" stroke-opacity="0.600000" points="1583.6908,-231.6084 1580.1907,-221.6085 1576.6908,-231.6085 1583.6908,-231.6084"></polygon></g><!-- 三井住友カード:amazon masterカード --><g id="node9" class="node"><title>三井住友カード:amazon masterカード</title><path fill="#ffffff" stroke="#4b75b9" stroke-width="3" d="M480.5841,-136.8C480.5841,-136.8 337.7973,-136.8 337.7973,-136.8 331.7973,-136.8 325.7973,-130.8 325.7973,-124.8 325.7973,-124.8 325.7973,-112.8 325.7973,-112.8 325.7973,-106.8 331.7973,-100.8 337.7973,-100.8 337.7973,-100.8 480.5841,-100.8 480.5841,-100.8 486.5841,-100.8 492.5841,-106.8 492.5841,-112.8 492.5841,-112.8 492.5841,-124.8 492.5841,-124.8 492.5841,-130.8 486.5841,-136.8 480.5841,-136.8"></path><text text-anchor="middle" x="409.1907" y="-114.6" font-family="Arial" font-size="14.00" fill="#333333">Amazon Masterカード</text></g><!-- 三菱ufj銀行:普通口座&#45;&gt;三井住友カード:amazon masterカード --><g id="edge-12" class="edge"><title>三菱ufj銀行:普通口座-&gt;三井住友カード:amazon masterカード</title><path fill="none" stroke="#333333" stroke-width="2" stroke-opacity="0.600000" d="M764.1907,-185.419C764.1907,-169.5358 764.1907,-149 764.1907,-149 764.1907,-149 471.4534,-149 471.4534,-149 471.4534,-149 471.4534,-147.0642 471.4534,-147.0642"></path><polygon fill="#333333" fill-opacity="0.600000" stroke="#333333" stroke-width="2" stroke-opacity="0.600000" points="474.9535,-147.0641 471.4534,-137.0642 467.9535,-147.0642 474.9535,-147.0641"></polygon></g><!-- 三井住友カード:visa line payカード --><g id="node10" class="node"><title>三井住友カード:visa line payカード</title><path fill="#ffffff" stroke="#4b75b9" stroke-width="3" d="M295.8141,-136.8C295.8141,-136.8 160.5673,-136.8 160.5673,-136.8 154.5673,-136.8 148.5673,-130.8 148.5673,-124.8 148.5673,-124.8 148.5673,-112.8 148.5673,-112.8 148.5673,-106.8 154.5673,-100.8 160.5673,-100.8 160.5673,-100.8 295.8141,-100.8 295.8141,-100.8 301.8141,-100.8 307.8141,-106.8 307.8141,-112.8 307.8141,-112.8 307.8141,-124.8 307.8141,-124.8 307.8141,-130.8 301.8141,-136.8 295.8141,-136.8"></path><text text-anchor="middle" x="228.1907" y="-114.6" font-family="Arial" font-size="14.00" fill="#333333">Visa LINE Payカード</text></g><!-- 三菱ufj銀行:普通口座&#45;&gt;三井住友カード:visa line payカード --><g id="edge-2" class="edge"><title>三菱ufj銀行:普通口座-&gt;三井住友カード:visa line payカード</title><path fill="none" stroke="#333333" stroke-width="2" stroke-opacity="0.600000" d="M743.8531,-185.2865C743.8531,-173.7405 743.8531,-161 743.8531,-161 743.8531,-161 228.1907,-161 228.1907,-161 228.1907,-161 228.1907,-146.9415 228.1907,-146.9415"></path><polygon fill="#333333" fill-opacity="0.600000" stroke="#333333" stroke-width="2" stroke-opacity="0.600000" points="231.6908,-146.9415 228.1907,-136.9415 224.6908,-146.9415 231.6908,-146.9415"></polygon></g><!-- セブンカード:セブンカード(家族) --><g id="node13" class="node"><title>セブンカード:セブンカード(家族)</title><path fill="#ffffff" stroke="#4b75b9" stroke-width="3" d="M658.6351,-136.8C658.6351,-136.8 527.7463,-136.8 527.7463,-136.8 521.7463,-136.8 515.7463,-130.8 515.7463,-124.8 515.7463,-124.8 515.7463,-112.8 515.7463,-112.8 515.7463,-106.8 521.7463,-100.8 527.7463,-100.8 527.7463,-100.8 658.6351,-100.8 658.6351,-100.8 664.6351,-100.8 670.6351,-106.8 670.6351,-112.8 670.6351,-112.8 670.6351,-124.8 670.6351,-124.8 670.6351,-130.8 664.6351,-136.8 658.6351,-136.8"></path><text text-anchor="middle" x="593.1907" y="-114.6" font-family="Arial" font-size="14.00" fill="#333333">セブンカード(家族)</text></g><!-- 三菱ufj銀行:普通口座&#45;&gt;セブンカード:セブンカード(家族) --><g id="edge-18" class="edge"><title>三菱ufj銀行:普通口座-&gt;セブンカード:セブンカード(家族)</title><path fill="none" stroke="#333333" stroke-width="2" stroke-opacity="0.600000" d="M723.4714,-203C673.6888,-203 595.9794,-203 595.9794,-203 595.9794,-203 595.9794,-147.0701 595.9794,-147.0701"></path><polygon fill="#333333" fill-opacity="0.600000" stroke="#333333" stroke-width="2" stroke-opacity="0.600000" points="599.4795,-147.0701 595.9794,-137.0701 592.4795,-147.0702 599.4795,-147.0701"></polygon></g><!-- プルデンシャル生命:生命保険 --><g id="node14" class="node"><title>プルデンシャル生命:生命保険</title><path fill="#ffffff" stroke="#4b75b9" stroke-width="3" d="M794.9196,-136.8C794.9196,-136.8 733.4618,-136.8 733.4618,-136.8 727.4618,-136.8 721.4618,-130.8 721.4618,-124.8 721.4618,-124.8 721.4618,-112.8 721.4618,-112.8 721.4618,-106.8 727.4618,-100.8 733.4618,-100.8 733.4618,-100.8 794.9196,-100.8 794.9196,-100.8 800.9196,-100.8 806.9196,-106.8 806.9196,-112.8 806.9196,-112.8 806.9196,-124.8 806.9196,-124.8 806.9196,-130.8 800.9196,-136.8 794.9196,-136.8"></path><text text-anchor="middle" x="764.1907" y="-114.6" font-family="Arial" font-size="14.00" fill="#333333">生命保険</text></g><!-- 三菱ufj銀行:普通口座&#45;&gt;プルデンシャル生命:生命保険 --><g id="edge-20" class="edge"><title>三菱ufj銀行:普通口座-&gt;プルデンシャル生命:生命保険</title><path fill="none" stroke="#333333" stroke-width="2" stroke-opacity="0.600000" d="M784.5283,-185.1997C784.5283,-185.1997 784.5283,-146.8731 784.5283,-146.8731"></path><polygon fill="#333333" fill-opacity="0.600000" stroke="#333333" stroke-width="2" stroke-opacity="0.600000" points="788.0284,-146.8731 784.5283,-136.8731 781.0284,-146.8731 788.0284,-146.8731"></polygon></g><!-- 県民共済:保険 --><g id="node15" class="node"><title>県民共済:保険</title><path fill="#ffffff" stroke="#4b75b9" stroke-width="3" d="M900.1907,-136.8C900.1907,-136.8 870.1907,-136.8 870.1907,-136.8 864.1907,-136.8 858.1907,-130.8 858.1907,-124.8 858.1907,-124.8 858.1907,-112.8 858.1907,-112.8 858.1907,-106.8 864.1907,-100.8 870.1907,-100.8 870.1907,-100.8 900.1907,-100.8 900.1907,-100.8 906.1907,-100.8 912.1907,-106.8 912.1907,-112.8 912.1907,-112.8 912.1907,-124.8 912.1907,-124.8 912.1907,-130.8 906.1907,-136.8 900.1907,-136.8"></path><text text-anchor="middle" x="885.1907" y="-114.6" font-family="Arial" font-size="14.00" fill="#333333">保険</text></g><!-- 三菱ufj銀行:普通口座&#45;&gt;県民共済:保険 --><g id="edge-21" class="edge"><title>三菱ufj銀行:普通口座-&gt;県民共済:保険</title><path fill="none" stroke="#333333" stroke-width="2" stroke-opacity="0.600000" d="M805.1558,-197C840.2588,-197 885.1907,-197 885.1907,-197 885.1907,-197 885.1907,-146.9372 885.1907,-146.9372"></path><polygon fill="#333333" fill-opacity="0.600000" stroke="#333333" stroke-width="2" stroke-opacity="0.600000" points="888.6908,-146.9372 885.1907,-136.9372 881.6908,-146.9372 888.6908,-146.9372"></polygon></g><!-- 管理費・修繕積立金 --><g id="node22" class="node"><title>管理費・修繕積立金</title><path fill="none" stroke="#000000" stroke-width="2" d="M1078.1877,-136.8C1078.1877,-136.8 942.1937,-136.8 942.1937,-136.8 936.1937,-136.8 930.1937,-130.8 930.1937,-124.8 930.1937,-124.8 930.1937,-112.8 930.1937,-112.8 930.1937,-106.8 936.1937,-100.8 942.1937,-100.8 942.1937,-100.8 1078.1877,-100.8 1078.1877,-100.8 1084.1877,-100.8 1090.1877,-106.8 1090.1877,-112.8 1090.1877,-112.8 1090.1877,-124.8 1090.1877,-124.8 1090.1877,-130.8 1084.1877,-136.8 1078.1877,-136.8"></path><text text-anchor="middle" x="1010.1907" y="-114.6" font-family="Arial" font-size="14.00" fill="#000000">管理費・修繕積立金</text></g><!-- 三菱ufj銀行:普通口座&#45;&gt;管理費・修繕積立金 --><g id="edge-11" class="edge"><title>三菱ufj銀行:普通口座-&gt;管理費・修繕積立金</title><path fill="none" stroke="#333333" stroke-width="2" stroke-opacity="0.600000" d="M805.0887,-209C875.0399,-209 1010.1907,-209 1010.1907,-209 1010.1907,-209 1010.1907,-147.0533 1010.1907,-147.0533"></path><polygon fill="#333333" fill-opacity="0.600000" stroke="#333333" stroke-width="2" stroke-opacity="0.600000" points="1013.6908,-147.0533 1010.1907,-137.0533 1006.6908,-147.0534 1013.6908,-147.0533"></polygon></g><!-- 楽天銀行:楽天カード --><g id="node4" class="node"><title>楽天銀行:楽天カード</title><path fill="#ffffff" stroke="#4b75b9" stroke-width="3" d="M1200.1455,-136.8C1200.1455,-136.8 1120.2359,-136.8 1120.2359,-136.8 1114.2359,-136.8 1108.2359,-130.8 1108.2359,-124.8 1108.2359,-124.8 1108.2359,-112.8 1108.2359,-112.8 1108.2359,-106.8 1114.2359,-100.8 1120.2359,-100.8 1120.2359,-100.8 1200.1455,-100.8 1200.1455,-100.8 1206.1455,-100.8 1212.1455,-106.8 1212.1455,-112.8 1212.1455,-112.8 1212.1455,-124.8 1212.1455,-124.8 1212.1455,-130.8 1206.1455,-136.8 1200.1455,-136.8"></path><text text-anchor="middle" x="1160.1907" y="-114.6" font-family="Arial" font-size="14.00" fill="#333333">楽天カード</text></g><!-- 楽天銀行:普通口座&#45;&gt;楽天銀行:楽天カード --><g id="edge-5" class="edge"><title>楽天銀行:普通口座-&gt;楽天銀行:楽天カード</title><path fill="none" stroke="#333333" stroke-width="2" stroke-opacity="0.600000" d="M1160.1907,-185.1997C1160.1907,-185.1997 1160.1907,-146.8731 1160.1907,-146.8731"></path><polygon fill="#333333" fill-opacity="0.600000" stroke="#333333" stroke-width="2" stroke-opacity="0.600000" points="1163.6908,-146.8731 1160.1907,-136.8731 1156.6908,-146.8731 1163.6908,-146.8731"></polygon></g><!-- 楽天証券:積立nisa --><g id="node7" class="node"><title>楽天証券:積立nisa</title><path fill="#ffffff" stroke="#4b75b9" stroke-width="3" d="M1185.3793,-52C1185.3793,-52 1135.0021,-52 1135.0021,-52 1129.0021,-52 1123.0021,-46 1123.0021,-40 1123.0021,-40 1123.0021,-28 1123.0021,-28 1123.0021,-22 1129.0021,-16 1135.0021,-16 1135.0021,-16 1185.3793,-16 1185.3793,-16 1191.3793,-16 1197.3793,-22 1197.3793,-28 1197.3793,-28 1197.3793,-40 1197.3793,-40 1197.3793,-46 1191.3793,-52 1185.3793,-52"></path><text text-anchor="middle" x="1160.1907" y="-29.8" font-family="Arial" font-size="14.00" fill="#333333">積立NISA</text></g><!-- 楽天銀行:楽天カード&#45;&gt;楽天証券:積立nisa --><g id="edge-6" class="edge"><title>楽天銀行:楽天カード-&gt;楽天証券:積立nisa</title><path fill="none" stroke="#333333" stroke-width="2" stroke-opacity="0.600000" d="M1160.1907,-100.3997C1160.1907,-100.3997 1160.1907,-62.0731 1160.1907,-62.0731"></path><polygon fill="#333333" fill-opacity="0.600000" stroke="#333333" stroke-width="2" stroke-opacity="0.600000" points="1163.6908,-62.0731 1160.1907,-52.0731 1156.6908,-62.0731 1163.6908,-62.0731"></polygon></g><!-- 楽天証券:投資信託 --><g id="node8" class="node"><title>楽天証券:投資信託</title><path fill="#ffffff" stroke="#4b75b9" stroke-width="3" d="M1092.8785,-52C1092.8785,-52 1033.5029,-52 1033.5029,-52 1027.5029,-52 1021.5029,-46 1021.5029,-40 1021.5029,-40 1021.5029,-28 1021.5029,-28 1021.5029,-22 1027.5029,-16 1033.5029,-16 1033.5029,-16 1092.8785,-16 1092.8785,-16 1098.8785,-16 1104.8785,-22 1104.8785,-28 1104.8785,-28 1104.8785,-40 1104.8785,-40 1104.8785,-46 1098.8785,-52 1092.8785,-52"></path><text text-anchor="middle" x="1063.1907" y="-29.8" font-family="Arial" font-size="14.00" fill="#333333">投資信託</text></g><!-- 楽天銀行:楽天カード&#45;&gt;楽天証券:投資信託 --><g id="edge-7" class="edge"><title>楽天銀行:楽天カード-&gt;楽天証券:投資信託</title><path fill="none" stroke="#333333" stroke-width="2" stroke-opacity="0.600000" d="M1115.6552,-100.3997C1115.6552,-75.4593 1115.6552,-34 1115.6552,-34 1115.6552,-34 1114.5936,-34 1114.5936,-34"></path><polygon fill="#333333" fill-opacity="0.600000" stroke="#333333" stroke-width="2" stroke-opacity="0.600000" points="1115.0383,-30.5001 1105.0383,-34 1115.0382,-37.5001 1115.0383,-30.5001"></polygon></g><!-- 楽天市場 --><g id="node21" class="node"><title>楽天市場</title><path fill="none" stroke="#000000" stroke-width="2" d="M1276.8234,-52C1276.8234,-52 1227.558,-52 1227.558,-52 1221.558,-52 1215.558,-46 1215.558,-40 1215.558,-40 1215.558,-28 1215.558,-28 1215.558,-22 1221.558,-16 1227.558,-16 1227.558,-16 1276.8234,-16 1276.8234,-16 1282.8234,-16 1288.8234,-22 1288.8234,-28 1288.8234,-28 1288.8234,-40 1288.8234,-40 1288.8234,-46 1282.8234,-52 1276.8234,-52"></path><text text-anchor="middle" x="1252.1907" y="-29.8" font-family="Arial" font-size="14.00" fill="#000000">楽天市場</text></g><!-- 楽天銀行:楽天カード&#45;&gt;楽天市場 --><g id="edge-8" class="edge"><title>楽天銀行:楽天カード-&gt;楽天市場</title><path fill="none" stroke="#333333" stroke-width="2" stroke-opacity="0.600000" d="M1204.7262,-100.3997C1204.7262,-75.4593 1204.7262,-34 1204.7262,-34 1204.7262,-34 1205.7795,-34 1205.7795,-34"></path><polygon fill="#333333" fill-opacity="0.600000" stroke="#333333" stroke-width="2" stroke-opacity="0.600000" points="1205.2601,-37.5001 1215.2601,-34 1205.26,-30.5001 1205.2601,-37.5001"></polygon></g><!-- 住信sbiネット銀行:住宅ローン --><g id="node6" class="node"><title>住信sbiネット銀行:住宅ローン</title><path fill="#ffffff" stroke="#4b75b9" stroke-width="3" d="M1330.4041,-136.8C1330.4041,-136.8 1247.9773,-136.8 1247.9773,-136.8 1241.9773,-136.8 1235.9773,-130.8 1235.9773,-124.8 1235.9773,-124.8 1235.9773,-112.8 1235.9773,-112.8 1235.9773,-106.8 1241.9773,-100.8 1247.9773,-100.8 1247.9773,-100.8 1330.4041,-100.8 1330.4041,-100.8 1336.4041,-100.8 1342.4041,-106.8 1342.4041,-112.8 1342.4041,-112.8 1342.4041,-124.8 1342.4041,-124.8 1342.4041,-130.8 1336.4041,-136.8 1330.4041,-136.8"></path><text text-anchor="middle" x="1289.1907" y="-114.6" font-family="Arial" font-size="14.00" fill="#333333">住宅ローン</text></g><!-- 住信sbiネット銀行:普通口座&#45;&gt;住信sbiネット銀行:住宅ローン --><g id="edge-10" class="edge"><title>住信sbiネット銀行:普通口座-&gt;住信sbiネット銀行:住宅ローン</title><path fill="none" stroke="#333333" stroke-width="2" stroke-opacity="0.600000" d="M1283.1907,-185.1997C1283.1907,-185.1997 1283.1907,-146.8731 1283.1907,-146.8731"></path><polygon fill="#333333" fill-opacity="0.600000" stroke="#333333" stroke-width="2" stroke-opacity="0.600000" points="1286.6908,-146.8731 1283.1907,-136.8731 1279.6908,-146.8731 1286.6908,-146.8731"></polygon></g><!-- amazon --><g id="node23" class="node"><title>amazon</title><path fill="none" stroke="#000000" stroke-width="2" d="M431.0366,-52C431.0366,-52 387.3448,-52 387.3448,-52 381.3448,-52 375.3448,-46 375.3448,-40 375.3448,-40 375.3448,-28 375.3448,-28 375.3448,-22 381.3448,-16 387.3448,-16 387.3448,-16 431.0366,-16 431.0366,-16 437.0366,-16 443.0366,-22 443.0366,-28 443.0366,-28 443.0366,-40 443.0366,-40 443.0366,-46 437.0366,-52 431.0366,-52"></path><text text-anchor="middle" x="409.1907" y="-29.8" font-family="Arial" font-size="14.00" fill="#000000">Amazon</text></g><!-- 三井住友カード:amazon masterカード&#45;&gt;amazon --><g id="edge-13" class="edge"><title>三井住友カード:amazon masterカード-&gt;amazon</title><path fill="none" stroke="#333333" stroke-width="2" stroke-opacity="0.600000" d="M409.1907,-100.3997C409.1907,-100.3997 409.1907,-62.0731 409.1907,-62.0731"></path><polygon fill="#333333" fill-opacity="0.600000" stroke="#333333" stroke-width="2" stroke-opacity="0.600000" points="412.6908,-62.0731 409.1907,-52.0731 405.6908,-62.0731 412.6908,-62.0731"></polygon></g><!-- 世界 --><g id="node20" class="node"><title>世界</title><path fill="none" stroke="#000000" stroke-width="2" d="M115.1907,-52C115.1907,-52 85.1907,-52 85.1907,-52 79.1907,-52 73.1907,-46 73.1907,-40 73.1907,-40 73.1907,-28 73.1907,-28 73.1907,-22 79.1907,-16 85.1907,-16 85.1907,-16 115.1907,-16 115.1907,-16 121.1907,-16 127.1907,-22 127.1907,-28 127.1907,-28 127.1907,-40 127.1907,-40 127.1907,-46 121.1907,-52 115.1907,-52"></path><text text-anchor="middle" x="100.1907" y="-29.8" font-family="Arial" font-size="14.00" fill="#000000">世界</text></g><!-- 三井住友カード:visa line payカード&#45;&gt;世界 --><g id="edge-3" class="edge"><title>三井住友カード:visa line payカード-&gt;世界</title><path fill="none" stroke="#333333" stroke-width="2" stroke-opacity="0.600000" d="M228.1907,-100.5236C228.1907,-77.2453 228.1907,-40 228.1907,-40 228.1907,-40 137.3362,-40 137.3362,-40"></path><polygon fill="#333333" fill-opacity="0.600000" stroke="#333333" stroke-width="2" stroke-opacity="0.600000" points="137.3362,-36.5001 127.3362,-40 137.3362,-43.5001 137.3362,-36.5001"></polygon></g><!-- セゾンカード:amex(家族)&#45;&gt;世界 --><g id="edge-15" class="edge"><title>セゾンカード:amex(家族)-&gt;世界</title><path fill="none" stroke="#333333" stroke-width="2" stroke-opacity="0.600000" d="M319.5859,-203C315.9687,-203 313.6766,-203 313.6766,-203 313.6766,-203 313.6766,-28 313.6766,-28 313.6766,-28 137.2288,-28 137.2288,-28"></path><polygon fill="#333333" fill-opacity="0.600000" stroke="#333333" stroke-width="2" stroke-opacity="0.600000" points="137.2289,-24.5001 127.2288,-28 137.2288,-31.5001 137.2289,-24.5001"></polygon></g><!-- ららぽーとなど --><g id="node24" class="node"><title>ららぽーとなど</title><path fill="none" stroke="#000000" stroke-width="2" d="M118.5727,-136.8C118.5727,-136.8 11.8087,-136.8 11.8087,-136.8 5.8087,-136.8 -.1913,-130.8 -.1913,-124.8 -.1913,-124.8 -.1913,-112.8 -.1913,-112.8 -.1913,-106.8 5.8087,-100.8 11.8087,-100.8 11.8087,-100.8 118.5727,-100.8 118.5727,-100.8 124.5727,-100.8 130.5727,-106.8 130.5727,-112.8 130.5727,-112.8 130.5727,-124.8 130.5727,-124.8 130.5727,-130.8 124.5727,-136.8 118.5727,-136.8"></path><text text-anchor="middle" x="65.1907" y="-114.6" font-family="Arial" font-size="14.00" fill="#000000">ららぽーとなど</text></g><!-- セゾンカード:三井カード&#45;&gt;ららぽーとなど --><g id="edge-17" class="edge"><title>セゾンカード:三井カード-&gt;ららぽーとなど</title><path fill="none" stroke="#333333" stroke-width="2" stroke-opacity="0.600000" d="M450.2695,-185.4462C450.2695,-178.857 450.2695,-173 450.2695,-173 450.2695,-173 65.1907,-173 65.1907,-173 65.1907,-173 65.1907,-146.8478 65.1907,-146.8478"></path><polygon fill="#333333" fill-opacity="0.600000" stroke="#333333" stroke-width="2" stroke-opacity="0.600000" points="68.6908,-146.8478 65.1907,-136.8478 61.6908,-146.8479 68.6908,-146.8478"></polygon></g><!-- イトーヨーカドー --><g id="node25" class="node"><title>イトーヨーカドー</title><path fill="none" stroke="#000000" stroke-width="2" d="M659.4275,-52C659.4275,-52 526.9539,-52 526.9539,-52 520.9539,-52 514.9539,-46 514.9539,-40 514.9539,-40 514.9539,-28 514.9539,-28 514.9539,-22 520.9539,-16 526.9539,-16 526.9539,-16 659.4275,-16 659.4275,-16 665.4275,-16 671.4275,-22 671.4275,-28 671.4275,-28 671.4275,-40 671.4275,-40 671.4275,-46 665.4275,-52 659.4275,-52"></path><text text-anchor="middle" x="593.1907" y="-29.8" font-family="Arial" font-size="14.00" fill="#000000">イトーヨーカドー</text></g><!-- セブンカード:セブンカード(家族)&#45;&gt;イトーヨーカドー --><g id="edge-19" class="edge"><title>セブンカード:セブンカード(家族)-&gt;イトーヨーカドー</title><path fill="none" stroke="#333333" stroke-width="2" stroke-opacity="0.600000" d="M593.1907,-100.3997C593.1907,-100.3997 593.1907,-62.0731 593.1907,-62.0731"></path><polygon fill="#333333" fill-opacity="0.600000" stroke="#333333" stroke-width="2" stroke-opacity="0.600000" points="596.6908,-62.0731 593.1907,-52.0731 589.6908,-62.0731 596.6908,-62.0731"></polygon></g><!-- イオン銀行:デビットカード --><g id="node17" class="node"><title>イオン銀行:デビットカード</title><path fill="#ffffff" stroke="#4b75b9" stroke-width="3" d="M1503.411,-136.8C1503.411,-136.8 1406.9704,-136.8 1406.9704,-136.8 1400.9704,-136.8 1394.9704,-130.8 1394.9704,-124.8 1394.9704,-124.8 1394.9704,-112.8 1394.9704,-112.8 1394.9704,-106.8 1400.9704,-100.8 1406.9704,-100.8 1406.9704,-100.8 1503.411,-100.8 1503.411,-100.8 1509.411,-100.8 1515.411,-106.8 1515.411,-112.8 1515.411,-112.8 1515.411,-124.8 1515.411,-124.8 1515.411,-130.8 1509.411,-136.8 1503.411,-136.8"></path><text text-anchor="middle" x="1455.1907" y="-114.6" font-family="Arial" font-size="14.00" fill="#333333">デビットカード</text></g><!-- イオン銀行:普通口座&#45;&gt;イオン銀行:デビットカード --><g id="edge-23" class="edge"><title>イオン銀行:普通口座-&gt;イオン銀行:デビットカード</title><path fill="none" stroke="#333333" stroke-width="2" stroke-opacity="0.600000" d="M1445.1907,-185.1997C1445.1907,-185.1997 1445.1907,-146.8731 1445.1907,-146.8731"></path><polygon fill="#333333" fill-opacity="0.600000" stroke="#333333" stroke-width="2" stroke-opacity="0.600000" points="1448.6908,-146.8731 1445.1907,-136.8731 1441.6908,-146.8731 1448.6908,-146.8731"></polygon></g><!-- イオン --><g id="node26" class="node"><title>イオン</title><path fill="none" stroke="#000000" stroke-width="2" d="M1472.1781,-52C1472.1781,-52 1438.2033,-52 1438.2033,-52 1432.2033,-52 1426.2033,-46 1426.2033,-40 1426.2033,-40 1426.2033,-28 1426.2033,-28 1426.2033,-22 1432.2033,-16 1438.2033,-16 1438.2033,-16 1472.1781,-16 1472.1781,-16 1478.1781,-16 1484.1781,-22 1484.1781,-28 1484.1781,-28 1484.1781,-40 1484.1781,-40 1484.1781,-46 1478.1781,-52 1472.1781,-52"></path><text text-anchor="middle" x="1455.1907" y="-29.8" font-family="Arial" font-size="14.00" fill="#000000">イオン</text></g><!-- イオン銀行:デビットカード&#45;&gt;イオン --><g id="edge-24" class="edge"><title>イオン銀行:デビットカード-&gt;イオン</title><path fill="none" stroke="#333333" stroke-width="2" stroke-opacity="0.600000" d="M1455.1907,-100.3997C1455.1907,-100.3997 1455.1907,-62.0731 1455.1907,-62.0731"></path><polygon fill="#333333" fill-opacity="0.600000" stroke="#333333" stroke-width="2" stroke-opacity="0.600000" points="1458.6908,-62.0731 1455.1907,-52.0731 1451.6908,-62.0731 1458.6908,-62.0731"></polygon></g><!-- 学費など --><g id="node27" class="node"><title>学費など</title><path fill="none" stroke="#000000" stroke-width="2" d="M1608.844,-136.8C1608.844,-136.8 1551.5374,-136.8 1551.5374,-136.8 1545.5374,-136.8 1539.5374,-130.8 1539.5374,-124.8 1539.5374,-124.8 1539.5374,-112.8 1539.5374,-112.8 1539.5374,-106.8 1545.5374,-100.8 1551.5374,-100.8 1551.5374,-100.8 1608.844,-100.8 1608.844,-100.8 1614.844,-100.8 1620.844,-106.8 1620.844,-112.8 1620.844,-112.8 1620.844,-124.8 1620.844,-124.8 1620.844,-130.8 1614.844,-136.8 1608.844,-136.8"></path><text text-anchor="middle" x="1580.1907" y="-114.6" font-family="Arial" font-size="14.00" fill="#000000">学費など</text></g><!-- 千葉銀行:普通口座&#45;&gt;学費など --><g id="edge-26" class="edge"><title>千葉銀行:普通口座-&gt;学費など</title><path fill="none" stroke="#333333" stroke-width="2" stroke-opacity="0.600000" d="M1580.1907,-185.1997C1580.1907,-185.1997 1580.1907,-146.8731 1580.1907,-146.8731"></path><polygon fill="#333333" fill-opacity="0.600000" stroke="#333333" stroke-width="2" stroke-opacity="0.600000" points="1583.6908,-146.8731 1580.1907,-136.8731 1576.6908,-146.8731 1583.6908,-146.8731"></polygon></g><!-- 会社 --><g id="node19" class="node"><title>会社</title><path fill="none" stroke="#000000" stroke-width="2" d="M1175.1907,-383.2C1175.1907,-383.2 1145.1907,-383.2 1145.1907,-383.2 1139.1907,-383.2 1133.1907,-377.2 1133.1907,-371.2 1133.1907,-371.2 1133.1907,-359.2 1133.1907,-359.2 1133.1907,-353.2 1139.1907,-347.2 1145.1907,-347.2 1145.1907,-347.2 1175.1907,-347.2 1175.1907,-347.2 1181.1907,-347.2 1187.1907,-353.2 1187.1907,-359.2 1187.1907,-359.2 1187.1907,-371.2 1187.1907,-371.2 1187.1907,-377.2 1181.1907,-383.2 1175.1907,-383.2"></path><text text-anchor="middle" x="1160.1907" y="-361" font-family="Arial" font-size="14.00" fill="#000000">会社</text></g><!-- 会社&#45;&gt;gmoあおぞらネット銀行:普通口座 --><g id="edge-0" class="edge"><title>会社-&gt;gmoあおぞらネット銀行:普通口座</title><path fill="none" stroke="#333333" stroke-width="2" stroke-opacity="0.600000" d="M1160.1907,-346.9995C1160.1907,-346.9995 1160.1907,-316.4699 1160.1907,-316.4699"></path><polygon fill="#333333" fill-opacity="0.600000" stroke="#333333" stroke-width="2" stroke-opacity="0.600000" points="1163.6908,-316.4698 1160.1907,-306.4699 1156.6908,-316.4699 1163.6908,-316.4698"></polygon></g></g></svg>