<?xml version="1.0" encoding="UTF-8" standalone="no"?><!-- Generated by graphviz version 2.40.1 (20161225.0304)
 --><!-- Title: ndiag Pages: 1 --><svg width="219pt" height="362pt" viewBox="0.00 0.00 219.00 362.40" xmlns="http://www.w3.org/2000/svg" xmlns:xlink="http://www.w3.org/1999/xlink"><g id="graph0" class="graph" transform="scale(1 1) rotate(0) translate(4 358.4)"><title>ndiag</title><polygon fill="#ffffff" stroke="transparent" points="-4,4 -4,-358.4 215,-358.4 215,4 -4,4"></polygon><g id="clust3" class="cluster"><title>cluster_LINE</title><polygon fill="none" stroke="#000000" stroke-width="2" points="8,-64 8,-140.8 184,-140.8 184,-64 8,-64"></polygon><text text-anchor="middle" x="96" y="-124.2" font-family="Arial" font-size="14.00" fill="#000000">LINE</text></g><g id="clust2" class="cluster"><title>cluster_三菱UFJ銀行</title><polygon fill="none" stroke="#000000" stroke-width="2" points="43,-148.8 43,-225.6 150,-225.6 150,-148.8 43,-148.8"></polygon><text text-anchor="middle" x="96.5" y="-209" font-family="Arial" font-size="14.00" fill="#000000">三菱UFJ銀行</text></g><g id="clust1" class="cluster"><title>cluster_GMOあおぞらネット銀行</title><polygon fill="none" stroke="#000000" stroke-width="2" points="28,-233.6 28,-310.4 203,-310.4 203,-233.6 28,-233.6"></polygon><text text-anchor="middle" x="115.5" y="-293.8" font-family="Arial" font-size="14.00" fill="#000000">GMOあおぞらネット銀行</text></g><!-- gmoあおぞらネット銀行:普通口座 --><g id="node1" class="node"><title>gmoあおぞらネット銀行:普通口座</title><path fill="#ffffff" stroke="#4b75b9" stroke-width="3" d="M124.8514,-277.6C124.8514,-277.6 67.1486,-277.6 67.1486,-277.6 61.1486,-277.6 55.1486,-271.6 55.1486,-265.6 55.1486,-265.6 55.1486,-253.6 55.1486,-253.6 55.1486,-247.6 61.1486,-241.6 67.1486,-241.6 67.1486,-241.6 124.8514,-241.6 124.8514,-241.6 130.8514,-241.6 136.8514,-247.6 136.8514,-253.6 136.8514,-253.6 136.8514,-265.6 136.8514,-265.6 136.8514,-271.6 130.8514,-277.6 124.8514,-277.6"></path><text text-anchor="middle" x="96" y="-255.4" font-family="Arial" font-size="14.00" fill="#333333">普通口座</text></g><!-- 三菱ufj銀行:普通口座 --><g id="node2" class="node"><title>三菱ufj銀行:普通口座</title><path fill="#ffffff" stroke="#4b75b9" stroke-width="3" d="M124.8514,-192.8C124.8514,-192.8 67.1486,-192.8 67.1486,-192.8 61.1486,-192.8 55.1486,-186.8 55.1486,-180.8 55.1486,-180.8 55.1486,-168.8 55.1486,-168.8 55.1486,-162.8 61.1486,-156.8 67.1486,-156.8 67.1486,-156.8 124.8514,-156.8 124.8514,-156.8 130.8514,-156.8 136.8514,-162.8 136.8514,-168.8 136.8514,-168.8 136.8514,-180.8 136.8514,-180.8 136.8514,-186.8 130.8514,-192.8 124.8514,-192.8"></path><text text-anchor="middle" x="96" y="-170.6" font-family="Arial" font-size="14.00" fill="#333333">普通口座</text></g><!-- gmoあおぞらネット銀行:普通口座&#45;&gt;三菱ufj銀行:普通口座 --><g id="edge-1" class="edge"><title>gmoあおぞらネット銀行:普通口座-&gt;三菱ufj銀行:普通口座</title><path fill="none" stroke="#333333" stroke-width="2" stroke-opacity="0.600000" d="M96,-241.1997C96,-241.1997 96,-202.8731 96,-202.8731"></path><polygon fill="#333333" fill-opacity="0.600000" stroke="#333333" stroke-width="2" stroke-opacity="0.600000" points="99.5001,-202.8731 96,-192.8731 92.5001,-202.8731 99.5001,-202.8731"></polygon></g><!-- line:visa line payカード --><g id="node3" class="node"><title>line:visa line payカード</title><path fill="#ffffff" stroke="#4b75b9" stroke-width="3" d="M163.6234,-108C163.6234,-108 28.3766,-108 28.3766,-108 22.3766,-108 16.3766,-102 16.3766,-96 16.3766,-96 16.3766,-84 16.3766,-84 16.3766,-78 22.3766,-72 28.3766,-72 28.3766,-72 163.6234,-72 163.6234,-72 169.6234,-72 175.6234,-78 175.6234,-84 175.6234,-84 175.6234,-96 175.6234,-96 175.6234,-102 169.6234,-108 163.6234,-108"></path><text text-anchor="middle" x="96" y="-85.8" font-family="Arial" font-size="14.00" fill="#333333">Visa LINE Payカード</text></g><!-- 三菱ufj銀行:普通口座&#45;&gt;line:visa line payカード --><g id="edge-2" class="edge"><title>三菱ufj銀行:普通口座-&gt;line:visa line payカード</title><path fill="none" stroke="#333333" stroke-width="2" stroke-opacity="0.600000" d="M96,-156.3997C96,-156.3997 96,-118.0731 96,-118.0731"></path><polygon fill="#333333" fill-opacity="0.600000" stroke="#333333" stroke-width="2" stroke-opacity="0.600000" points="99.5001,-118.0731 96,-108.0731 92.5001,-118.0731 99.5001,-118.0731"></polygon></g><!-- 世界 --><g id="node5" class="node"><title>世界</title><path fill="none" stroke="#000000" stroke-width="2" d="M111,-36C111,-36 81,-36 81,-36 75,-36 69,-30 69,-24 69,-24 69,-12 69,-12 69,-6 75,0 81,0 81,0 111,0 111,0 117,0 123,-6 123,-12 123,-12 123,-24 123,-24 123,-30 117,-36 111,-36"></path><text text-anchor="middle" x="96" y="-13.8" font-family="Arial" font-size="14.00" fill="#000000">世界</text></g><!-- line:visa line payカード&#45;&gt;世界 --><g id="edge-3" class="edge"><title>line:visa line payカード-&gt;世界</title><path fill="none" stroke="#333333" stroke-width="2" stroke-opacity="0.600000" d="M96,-71.8314C96,-71.8314 96,-46.4133 96,-46.4133"></path><polygon fill="#333333" fill-opacity="0.600000" stroke="#333333" stroke-width="2" stroke-opacity="0.600000" points="99.5001,-46.4132 96,-36.4133 92.5001,-46.4133 99.5001,-46.4132"></polygon></g><!-- 会社 --><g id="node4" class="node"><title>会社</title><path fill="none" stroke="#000000" stroke-width="2" d="M111,-354.4C111,-354.4 81,-354.4 81,-354.4 75,-354.4 69,-348.4 69,-342.4 69,-342.4 69,-330.4 69,-330.4 69,-324.4 75,-318.4 81,-318.4 81,-318.4 111,-318.4 111,-318.4 117,-318.4 123,-324.4 123,-330.4 123,-330.4 123,-342.4 123,-342.4 123,-348.4 117,-354.4 111,-354.4"></path><text text-anchor="middle" x="96" y="-332.2" font-family="Arial" font-size="14.00" fill="#000000">会社</text></g><!-- 会社&#45;&gt;gmoあおぞらネット銀行:普通口座 --><g id="edge-0" class="edge"><title>会社-&gt;gmoあおぞらネット銀行:普通口座</title><path fill="none" stroke="#333333" stroke-width="2" stroke-opacity="0.600000" d="M96,-318.1995C96,-318.1995 96,-287.6699 96,-287.6699"></path><polygon fill="#333333" fill-opacity="0.600000" stroke="#333333" stroke-width="2" stroke-opacity="0.600000" points="99.5001,-287.6698 96,-277.6699 92.5001,-287.6699 99.5001,-287.6698"></polygon></g></g></svg>