<?xml version="1.0" encoding="UTF-8" standalone="no"?><!-- Generated by graphviz version 2.40.1 (20161225.0304)
 --><!-- Title: ndiag Pages: 1 --><svg width="1742pt" height="391pt" viewBox="0.00 0.00 1741.86 391.20" xmlns="http://www.w3.org/2000/svg" xmlns:xlink="http://www.w3.org/1999/xlink"><g id="graph0" class="graph" transform="scale(1 1) rotate(0) translate(4 387.2)"><title>ndiag</title><polygon fill="#ffffff" stroke="transparent" points="-4,4 -4,-387.2 1737.8565,-387.2 1737.8565,4 -4,4"></polygon><g id="clust11" class="cluster"><title>cluster_イオン銀行</title><polygon fill="none" stroke="#000000" stroke-width="2" points="1423,-177.6 1423,-254.4 1659,-254.4 1659,-177.6 1423,-177.6"></polygon><text text-anchor="middle" x="1541" y="-237.8" font-family="Arial" font-size="14.00" fill="#000000">イオン銀行</text></g><g id="clust10" class="cluster"><title>cluster_県民共済</title><polygon fill="none" stroke="#000000" stroke-width="2" points="1092,-92.8 1092,-169.6 1162,-169.6 1162,-92.8 1092,-92.8"></polygon><text text-anchor="middle" x="1127" y="-153" font-family="Arial" font-size="14.00" fill="#000000">県民共済</text></g><g id="clust9" class="cluster"><title>cluster_プルデンシャル生命</title><polygon fill="none" stroke="#000000" stroke-width="2" points="928,-92.8 928,-169.6 1084,-169.6 1084,-92.8 928,-92.8"></polygon><text text-anchor="middle" x="1006" y="-153" font-family="Arial" font-size="14.00" fill="#000000">プルデンシャル生命</text></g><g id="clust8" class="cluster"><title>cluster_セブンカード</title><polygon fill="none" stroke="#000000" stroke-width="2" points="382,-92.8 382,-169.6 552,-169.6 552,-92.8 382,-92.8"></polygon><text text-anchor="middle" x="467" y="-153" font-family="Arial" font-size="14.00" fill="#000000">セブンカード</text></g><g id="clust7" class="cluster"><title>cluster_セゾンカード</title><polygon fill="none" stroke="#000000" stroke-width="2" points="1153,-177.6 1153,-254.4 1371,-254.4 1371,-177.6 1153,-177.6"></polygon><text text-anchor="middle" x="1262" y="-237.8" font-family="Arial" font-size="14.00" fill="#000000">セゾンカード</text></g><g id="clust6" class="cluster"><title>cluster_三井住友カード</title><polygon fill="none" stroke="#000000" stroke-width="2" points="560,-92.8 560,-169.6 920,-169.6 920,-92.8 560,-92.8"></polygon><text text-anchor="middle" x="740" y="-153" font-family="Arial" font-size="14.00" fill="#000000">三井住友カード</text></g><g id="clust5" class="cluster"><title>cluster_楽天証券</title><polygon fill="none" stroke="#000000" stroke-width="2" points="8,-8 8,-84.8 200,-84.8 200,-8 8,-8"></polygon><text text-anchor="middle" x="104" y="-68.2" font-family="Arial" font-size="14.00" fill="#000000">楽天証券</text></g><g id="clust4" class="cluster"><title>cluster_住信SBIネット銀行</title><polygon fill="none" stroke="#000000" stroke-width="2" points="223,-92.8 223,-254.4 374,-254.4 374,-92.8 223,-92.8"></polygon><text text-anchor="middle" x="298.5" y="-237.8" font-family="Arial" font-size="14.00" fill="#000000">住信SBIネット銀行</text></g><g id="clust3" class="cluster"><title>cluster_楽天銀行</title><polygon fill="none" stroke="#000000" stroke-width="2" points="95,-92.8 95,-254.4 215,-254.4 215,-92.8 95,-92.8"></polygon><text text-anchor="middle" x="155" y="-237.8" font-family="Arial" font-size="14.00" fill="#000000">楽天銀行</text></g><g id="clust2" class="cluster"><title>cluster_三菱UFJ銀行</title><polygon fill="none" stroke="#000000" stroke-width="2" points="950,-177.6 950,-254.4 1057,-254.4 1057,-177.6 950,-177.6"></polygon><text text-anchor="middle" x="1003.5" y="-237.8" font-family="Arial" font-size="14.00" fill="#000000">三菱UFJ銀行</text></g><g id="clust1" class="cluster"><title>cluster_GMOあおぞらネット銀行</title><polygon fill="none" stroke="#000000" stroke-width="2" points="1018,-262.4 1018,-339.2 1193,-339.2 1193,-262.4 1018,-262.4"></polygon><text text-anchor="middle" x="1105.5" y="-322.6" font-family="Arial" font-size="14.00" fill="#000000">GMOあおぞらネット銀行</text></g><!-- gmoあおぞらネット銀行:普通口座 --><g id="node1" class="node"><title>gmoあおぞらネット銀行:普通口座</title><path fill="#ffffff" stroke="#4b75b9" stroke-width="3" d="M1133.8514,-306.4C1133.8514,-306.4 1076.1486,-306.4 1076.1486,-306.4 1070.1486,-306.4 1064.1486,-300.4 1064.1486,-294.4 1064.1486,-294.4 1064.1486,-282.4 1064.1486,-282.4 1064.1486,-276.4 1070.1486,-270.4 1076.1486,-270.4 1076.1486,-270.4 1133.8514,-270.4 1133.8514,-270.4 1139.8514,-270.4 1145.8514,-276.4 1145.8514,-282.4 1145.8514,-282.4 1145.8514,-294.4 1145.8514,-294.4 1145.8514,-300.4 1139.8514,-306.4 1133.8514,-306.4"></path><text text-anchor="middle" x="1105" y="-284.2" font-family="Arial" font-size="14.00" fill="#333333">普通口座</text></g><!-- 三菱ufj銀行:普通口座 --><g id="node2" class="node"><title>三菱ufj銀行:普通口座</title><path fill="#ffffff" stroke="#4b75b9" stroke-width="3" d="M1031.8514,-221.6C1031.8514,-221.6 974.1486,-221.6 974.1486,-221.6 968.1486,-221.6 962.1486,-215.6 962.1486,-209.6 962.1486,-209.6 962.1486,-197.6 962.1486,-197.6 962.1486,-191.6 968.1486,-185.6 974.1486,-185.6 974.1486,-185.6 1031.8514,-185.6 1031.8514,-185.6 1037.8514,-185.6 1043.8514,-191.6 1043.8514,-197.6 1043.8514,-197.6 1043.8514,-209.6 1043.8514,-209.6 1043.8514,-215.6 1037.8514,-221.6 1031.8514,-221.6"></path><text text-anchor="middle" x="1003" y="-199.4" font-family="Arial" font-size="14.00" fill="#333333">普通口座</text></g><!-- gmoあおぞらネット銀行:普通口座&#45;&gt;三菱ufj銀行:普通口座 --><g id="edge-1" class="edge"><title>gmoあおぞらネット銀行:普通口座-&gt;三菱ufj銀行:普通口座</title><path fill="none" stroke="#333333" stroke-width="2" stroke-opacity="0.600000" d="M1084.5,-270.3347C1084.5,-246.3536 1084.5,-207 1084.5,-207 1084.5,-207 1053.75,-207 1053.75,-207"></path><polygon fill="#333333" fill-opacity="0.600000" stroke="#333333" stroke-width="2" stroke-opacity="0.600000" points="1053.75,-203.5001 1043.75,-207 1053.75,-210.5001 1053.75,-203.5001"></polygon></g><!-- 楽天銀行:普通口座 --><g id="node3" class="node"><title>楽天銀行:普通口座</title><path fill="#ffffff" stroke="#4b75b9" stroke-width="3" d="M188.8514,-221.6C188.8514,-221.6 131.1486,-221.6 131.1486,-221.6 125.1486,-221.6 119.1486,-215.6 119.1486,-209.6 119.1486,-209.6 119.1486,-197.6 119.1486,-197.6 119.1486,-191.6 125.1486,-185.6 131.1486,-185.6 131.1486,-185.6 188.8514,-185.6 188.8514,-185.6 194.8514,-185.6 200.8514,-191.6 200.8514,-197.6 200.8514,-197.6 200.8514,-209.6 200.8514,-209.6 200.8514,-215.6 194.8514,-221.6 188.8514,-221.6"></path><text text-anchor="middle" x="160" y="-199.4" font-family="Arial" font-size="14.00" fill="#333333">普通口座</text></g><!-- gmoあおぞらネット銀行:普通口座&#45;&gt;楽天銀行:普通口座 --><g id="edge-4" class="edge"><title>gmoあおぞらネット銀行:普通口座-&gt;楽天銀行:普通口座</title><path fill="none" stroke="#333333" stroke-width="2" stroke-opacity="0.600000" d="M1064.0912,-294C882.7084,-294 160,-294 160,-294 160,-294 160,-231.8938 160,-231.8938"></path><polygon fill="#333333" fill-opacity="0.600000" stroke="#333333" stroke-width="2" stroke-opacity="0.600000" points="163.5001,-231.8938 160,-221.8938 156.5001,-231.8938 163.5001,-231.8938"></polygon></g><!-- 住信sbiネット銀行:普通口座 --><g id="node5" class="node"><title>住信sbiネット銀行:普通口座</title><path fill="#ffffff" stroke="#4b75b9" stroke-width="3" d="M347.8514,-221.6C347.8514,-221.6 290.1486,-221.6 290.1486,-221.6 284.1486,-221.6 278.1486,-215.6 278.1486,-209.6 278.1486,-209.6 278.1486,-197.6 278.1486,-197.6 278.1486,-191.6 284.1486,-185.6 290.1486,-185.6 290.1486,-185.6 347.8514,-185.6 347.8514,-185.6 353.8514,-185.6 359.8514,-191.6 359.8514,-197.6 359.8514,-197.6 359.8514,-209.6 359.8514,-209.6 359.8514,-215.6 353.8514,-221.6 347.8514,-221.6"></path><text text-anchor="middle" x="319" y="-199.4" font-family="Arial" font-size="14.00" fill="#333333">普通口座</text></g><!-- gmoあおぞらネット銀行:普通口座&#45;&gt;住信sbiネット銀行:普通口座 --><g id="edge-9" class="edge"><title>gmoあおぞらネット銀行:普通口座-&gt;住信sbiネット銀行:普通口座</title><path fill="none" stroke="#333333" stroke-width="2" stroke-opacity="0.600000" d="M1064.1225,-282C902.7838,-282 319,-282 319,-282 319,-282 319,-231.7836 319,-231.7836"></path><polygon fill="#333333" fill-opacity="0.600000" stroke="#333333" stroke-width="2" stroke-opacity="0.600000" points="322.5001,-231.7836 319,-221.7836 315.5001,-231.7836 322.5001,-231.7836"></polygon></g><!-- セゾンカード:amex(家族) --><g id="node11" class="node"><title>セゾンカード:amex(家族)</title><path fill="#ffffff" stroke="#4b75b9" stroke-width="3" d="M1240.6802,-221.6C1240.6802,-221.6 1173.3198,-221.6 1173.3198,-221.6 1167.3198,-221.6 1161.3198,-215.6 1161.3198,-209.6 1161.3198,-209.6 1161.3198,-197.6 1161.3198,-197.6 1161.3198,-191.6 1167.3198,-185.6 1173.3198,-185.6 1173.3198,-185.6 1240.6802,-185.6 1240.6802,-185.6 1246.6802,-185.6 1252.6802,-191.6 1252.6802,-197.6 1252.6802,-197.6 1252.6802,-209.6 1252.6802,-209.6 1252.6802,-215.6 1246.6802,-221.6 1240.6802,-221.6"></path><text text-anchor="middle" x="1207" y="-199.4" font-family="Arial" font-size="14.00" fill="#333333">Amex(家族)</text></g><!-- gmoあおぞらネット銀行:普通口座&#45;&gt;セゾンカード:amex(家族) --><g id="edge-14" class="edge"><title>gmoあおぞらネット銀行:普通口座-&gt;セゾンカード:amex(家族)</title><path fill="none" stroke="#333333" stroke-width="2" stroke-opacity="0.600000" d="M1130.4502,-270.3898C1130.4502,-248.3709 1130.4502,-214 1130.4502,-214 1130.4502,-214 1151.1449,-214 1151.1449,-214"></path><polygon fill="#333333" fill-opacity="0.600000" stroke="#333333" stroke-width="2" stroke-opacity="0.600000" points="1151.1449,-217.5001 1161.1449,-214 1151.1448,-210.5001 1151.1449,-217.5001"></polygon></g><!-- セゾンカード:三井カード --><g id="node12" class="node"><title>セゾンカード:三井カード</title><path fill="#ffffff" stroke="#4b75b9" stroke-width="3" d="M1351.2106,-221.6C1351.2106,-221.6 1282.7894,-221.6 1282.7894,-221.6 1276.7894,-221.6 1270.7894,-215.6 1270.7894,-209.6 1270.7894,-209.6 1270.7894,-197.6 1270.7894,-197.6 1270.7894,-191.6 1276.7894,-185.6 1282.7894,-185.6 1282.7894,-185.6 1351.2106,-185.6 1351.2106,-185.6 1357.2106,-185.6 1363.2106,-191.6 1363.2106,-197.6 1363.2106,-197.6 1363.2106,-209.6 1363.2106,-209.6 1363.2106,-215.6 1357.2106,-221.6 1351.2106,-221.6"></path><text text-anchor="middle" x="1317" y="-199.4" font-family="Arial" font-size="14.00" fill="#333333">三井カード</text></g><!-- gmoあおぞらネット銀行:普通口座&#45;&gt;セゾンカード:三井カード --><g id="edge-16" class="edge"><title>gmoあおぞらネット銀行:普通口座-&gt;セゾンカード:三井カード</title><path fill="none" stroke="#333333" stroke-width="2" stroke-opacity="0.600000" d="M1145.8757,-282C1207.4805,-282 1317,-282 1317,-282 1317,-282 1317,-231.7836 1317,-231.7836"></path><polygon fill="#333333" fill-opacity="0.600000" stroke="#333333" stroke-width="2" stroke-opacity="0.600000" points="1320.5001,-231.7836 1317,-221.7836 1313.5001,-231.7836 1320.5001,-231.7836"></polygon></g><!-- イオン銀行:普通口座 --><g id="node16" class="node"><title>イオン銀行:普通口座</title><path fill="#ffffff" stroke="#4b75b9" stroke-width="3" d="M1638.8514,-221.6C1638.8514,-221.6 1581.1486,-221.6 1581.1486,-221.6 1575.1486,-221.6 1569.1486,-215.6 1569.1486,-209.6 1569.1486,-209.6 1569.1486,-197.6 1569.1486,-197.6 1569.1486,-191.6 1575.1486,-185.6 1581.1486,-185.6 1581.1486,-185.6 1638.8514,-185.6 1638.8514,-185.6 1644.8514,-185.6 1650.8514,-191.6 1650.8514,-197.6 1650.8514,-197.6 1650.8514,-209.6 1650.8514,-209.6 1650.8514,-215.6 1644.8514,-221.6 1638.8514,-221.6"></path><text text-anchor="middle" x="1610" y="-199.4" font-family="Arial" font-size="14.00" fill="#333333">普通口座</text></g><!-- gmoあおぞらネット銀行:普通口座&#45;&gt;イオン銀行:普通口座 --><g id="edge-22" class="edge"><title>gmoあおぞらネット銀行:普通口座-&gt;イオン銀行:普通口座</title><path fill="none" stroke="#333333" stroke-width="2" stroke-opacity="0.600000" d="M1145.8985,-294C1266.1216,-294 1610,-294 1610,-294 1610,-294 1610,-231.8938 1610,-231.8938"></path><polygon fill="#333333" fill-opacity="0.600000" stroke="#333333" stroke-width="2" stroke-opacity="0.600000" points="1613.5001,-231.8938 1610,-221.8938 1606.5001,-231.8938 1613.5001,-231.8938"></polygon></g><!-- 三井住友カード:amazon masterカード --><g id="node9" class="node"><title>三井住友カード:amazon masterカード</title><path fill="#ffffff" stroke="#4b75b9" stroke-width="3" d="M722.3934,-136.8C722.3934,-136.8 579.6066,-136.8 579.6066,-136.8 573.6066,-136.8 567.6066,-130.8 567.6066,-124.8 567.6066,-124.8 567.6066,-112.8 567.6066,-112.8 567.6066,-106.8 573.6066,-100.8 579.6066,-100.8 579.6066,-100.8 722.3934,-100.8 722.3934,-100.8 728.3934,-100.8 734.3934,-106.8 734.3934,-112.8 734.3934,-112.8 734.3934,-124.8 734.3934,-124.8 734.3934,-130.8 728.3934,-136.8 722.3934,-136.8"></path><text text-anchor="middle" x="651" y="-114.6" font-family="Arial" font-size="14.00" fill="#333333">Amazon Masterカード</text></g><!-- 三菱ufj銀行:普通口座&#45;&gt;三井住友カード:amazon masterカード --><g id="edge-12" class="edge"><title>三菱ufj銀行:普通口座-&gt;三井住友カード:amazon masterカード</title><path fill="none" stroke="#333333" stroke-width="2" stroke-opacity="0.600000" d="M962.2773,-203C869.62,-203 651,-203 651,-203 651,-203 651,-147.0701 651,-147.0701"></path><polygon fill="#333333" fill-opacity="0.600000" stroke="#333333" stroke-width="2" stroke-opacity="0.600000" points="654.5001,-147.0701 651,-137.0701 647.5001,-147.0702 654.5001,-147.0701"></polygon></g><!-- 三井住友カード:visa line payカード --><g id="node10" class="node"><title>三井住友カード:visa line payカード</title><path fill="#ffffff" stroke="#4b75b9" stroke-width="3" d="M899.6234,-136.8C899.6234,-136.8 764.3766,-136.8 764.3766,-136.8 758.3766,-136.8 752.3766,-130.8 752.3766,-124.8 752.3766,-124.8 752.3766,-112.8 752.3766,-112.8 752.3766,-106.8 758.3766,-100.8 764.3766,-100.8 764.3766,-100.8 899.6234,-100.8 899.6234,-100.8 905.6234,-100.8 911.6234,-106.8 911.6234,-112.8 911.6234,-112.8 911.6234,-124.8 911.6234,-124.8 911.6234,-130.8 905.6234,-136.8 899.6234,-136.8"></path><text text-anchor="middle" x="832" y="-114.6" font-family="Arial" font-size="14.00" fill="#333333">Visa LINE Payカード</text></g><!-- 三菱ufj銀行:普通口座&#45;&gt;三井住友カード:visa line payカード --><g id="edge-2" class="edge"><title>三菱ufj銀行:普通口座-&gt;三井住友カード:visa line payカード</title><path fill="none" stroke="#333333" stroke-width="2" stroke-opacity="0.600000" d="M962.0412,-194C911.4524,-194 832,-194 832,-194 832,-194 832,-147.0038 832,-147.0038"></path><polygon fill="#333333" fill-opacity="0.600000" stroke="#333333" stroke-width="2" stroke-opacity="0.600000" points="835.5001,-147.0038 832,-137.0038 828.5001,-147.0039 835.5001,-147.0038"></polygon></g><!-- セブンカード:セブンカード(家族) --><g id="node13" class="node"><title>セブンカード:セブンカード(家族)</title><path fill="#ffffff" stroke="#4b75b9" stroke-width="3" d="M532.4444,-136.8C532.4444,-136.8 401.5556,-136.8 401.5556,-136.8 395.5556,-136.8 389.5556,-130.8 389.5556,-124.8 389.5556,-124.8 389.5556,-112.8 389.5556,-112.8 389.5556,-106.8 395.5556,-100.8 401.5556,-100.8 401.5556,-100.8 532.4444,-100.8 532.4444,-100.8 538.4444,-100.8 544.4444,-106.8 544.4444,-112.8 544.4444,-112.8 544.4444,-124.8 544.4444,-124.8 544.4444,-130.8 538.4444,-136.8 532.4444,-136.8"></path><text text-anchor="middle" x="467" y="-114.6" font-family="Arial" font-size="14.00" fill="#333333">セブンカード(家族)</text></g><!-- 三菱ufj銀行:普通口座&#45;&gt;セブンカード:セブンカード(家族) --><g id="edge-18" class="edge"><title>三菱ufj銀行:普通口座-&gt;セブンカード:セブンカード(家族)</title><path fill="none" stroke="#333333" stroke-width="2" stroke-opacity="0.600000" d="M962.2729,-212C837.1894,-212 467,-212 467,-212 467,-212 467,-147.2133 467,-147.2133"></path><polygon fill="#333333" fill-opacity="0.600000" stroke="#333333" stroke-width="2" stroke-opacity="0.600000" points="470.5001,-147.2133 467,-137.2133 463.5001,-147.2134 470.5001,-147.2133"></polygon></g><!-- プルデンシャル生命:生命保険 --><g id="node14" class="node"><title>プルデンシャル生命:生命保険</title><path fill="#ffffff" stroke="#4b75b9" stroke-width="3" d="M1033.7289,-136.8C1033.7289,-136.8 972.2711,-136.8 972.2711,-136.8 966.2711,-136.8 960.2711,-130.8 960.2711,-124.8 960.2711,-124.8 960.2711,-112.8 960.2711,-112.8 960.2711,-106.8 966.2711,-100.8 972.2711,-100.8 972.2711,-100.8 1033.7289,-100.8 1033.7289,-100.8 1039.7289,-100.8 1045.7289,-106.8 1045.7289,-112.8 1045.7289,-112.8 1045.7289,-124.8 1045.7289,-124.8 1045.7289,-130.8 1039.7289,-136.8 1033.7289,-136.8"></path><text text-anchor="middle" x="1003" y="-114.6" font-family="Arial" font-size="14.00" fill="#333333">生命保険</text></g><!-- 三菱ufj銀行:普通口座&#45;&gt;プルデンシャル生命:生命保険 --><g id="edge-20" class="edge"><title>三菱ufj銀行:普通口座-&gt;プルデンシャル生命:生命保険</title><path fill="none" stroke="#333333" stroke-width="2" stroke-opacity="0.600000" d="M1003,-185.1997C1003,-185.1997 1003,-146.8731 1003,-146.8731"></path><polygon fill="#333333" fill-opacity="0.600000" stroke="#333333" stroke-width="2" stroke-opacity="0.600000" points="1006.5001,-146.8731 1003,-136.8731 999.5001,-146.8731 1006.5001,-146.8731"></polygon></g><!-- 県民共済:保険 --><g id="node15" class="node"><title>県民共済:保険</title><path fill="#ffffff" stroke="#4b75b9" stroke-width="3" d="M1142,-136.8C1142,-136.8 1112,-136.8 1112,-136.8 1106,-136.8 1100,-130.8 1100,-124.8 1100,-124.8 1100,-112.8 1100,-112.8 1100,-106.8 1106,-100.8 1112,-100.8 1112,-100.8 1142,-100.8 1142,-100.8 1148,-100.8 1154,-106.8 1154,-112.8 1154,-112.8 1154,-124.8 1154,-124.8 1154,-130.8 1148,-136.8 1142,-136.8"></path><text text-anchor="middle" x="1127" y="-114.6" font-family="Arial" font-size="14.00" fill="#333333">保険</text></g><!-- 三菱ufj銀行:普通口座&#45;&gt;県民共済:保険 --><g id="edge-21" class="edge"><title>三菱ufj銀行:普通口座-&gt;県民共済:保険</title><path fill="none" stroke="#333333" stroke-width="2" stroke-opacity="0.600000" d="M1043.8333,-192C1075.9212,-192 1115.2251,-192 1115.2251,-192 1115.2251,-192 1115.2251,-146.8944 1115.2251,-146.8944"></path><polygon fill="#333333" fill-opacity="0.600000" stroke="#333333" stroke-width="2" stroke-opacity="0.600000" points="1118.7252,-146.8944 1115.2251,-136.8944 1111.7252,-146.8944 1118.7252,-146.8944"></polygon></g><!-- 管理費・修繕積立金 --><g id="node21" class="node"><title>管理費・修繕積立金</title><path fill="none" stroke="#000000" stroke-width="2" d="M1319.997,-136.8C1319.997,-136.8 1184.003,-136.8 1184.003,-136.8 1178.003,-136.8 1172.003,-130.8 1172.003,-124.8 1172.003,-124.8 1172.003,-112.8 1172.003,-112.8 1172.003,-106.8 1178.003,-100.8 1184.003,-100.8 1184.003,-100.8 1319.997,-100.8 1319.997,-100.8 1325.997,-100.8 1331.997,-106.8 1331.997,-112.8 1331.997,-112.8 1331.997,-124.8 1331.997,-124.8 1331.997,-130.8 1325.997,-136.8 1319.997,-136.8"></path><text text-anchor="middle" x="1252" y="-114.6" font-family="Arial" font-size="14.00" fill="#000000">管理費・修繕積立金</text></g><!-- 三菱ufj銀行:普通口座&#45;&gt;管理費・修繕積立金 --><g id="edge-11" class="edge"><title>三菱ufj銀行:普通口座-&gt;管理費・修繕積立金</title><path fill="none" stroke="#333333" stroke-width="2" stroke-opacity="0.600000" d="M1044.0519,-200C1089.8841,-200 1157.705,-200 1157.705,-200 1157.705,-200 1157.705,-118 1157.705,-118 1157.705,-118 1161.6186,-118 1161.6186,-118"></path><polygon fill="#333333" fill-opacity="0.600000" stroke="#333333" stroke-width="2" stroke-opacity="0.600000" points="1161.6186,-121.5001 1171.6186,-118 1161.6185,-114.5001 1161.6186,-121.5001"></polygon></g><!-- 楽天銀行:楽天カード --><g id="node4" class="node"><title>楽天銀行:楽天カード</title><path fill="#ffffff" stroke="#4b75b9" stroke-width="3" d="M194.9548,-136.8C194.9548,-136.8 115.0452,-136.8 115.0452,-136.8 109.0452,-136.8 103.0452,-130.8 103.0452,-124.8 103.0452,-124.8 103.0452,-112.8 103.0452,-112.8 103.0452,-106.8 109.0452,-100.8 115.0452,-100.8 115.0452,-100.8 194.9548,-100.8 194.9548,-100.8 200.9548,-100.8 206.9548,-106.8 206.9548,-112.8 206.9548,-112.8 206.9548,-124.8 206.9548,-124.8 206.9548,-130.8 200.9548,-136.8 194.9548,-136.8"></path><text text-anchor="middle" x="155" y="-114.6" font-family="Arial" font-size="14.00" fill="#333333">楽天カード</text></g><!-- 楽天銀行:普通口座&#45;&gt;楽天銀行:楽天カード --><g id="edge-5" class="edge"><title>楽天銀行:普通口座-&gt;楽天銀行:楽天カード</title><path fill="none" stroke="#333333" stroke-width="2" stroke-opacity="0.600000" d="M160,-185.1997C160,-185.1997 160,-146.8731 160,-146.8731"></path><polygon fill="#333333" fill-opacity="0.600000" stroke="#333333" stroke-width="2" stroke-opacity="0.600000" points="163.5001,-146.8731 160,-136.8731 156.5001,-146.8731 163.5001,-146.8731"></polygon></g><!-- 楽天証券:積立nisa --><g id="node7" class="node"><title>楽天証券:積立nisa</title><path fill="#ffffff" stroke="#4b75b9" stroke-width="3" d="M180.1886,-52C180.1886,-52 129.8114,-52 129.8114,-52 123.8114,-52 117.8114,-46 117.8114,-40 117.8114,-40 117.8114,-28 117.8114,-28 117.8114,-22 123.8114,-16 129.8114,-16 129.8114,-16 180.1886,-16 180.1886,-16 186.1886,-16 192.1886,-22 192.1886,-28 192.1886,-28 192.1886,-40 192.1886,-40 192.1886,-46 186.1886,-52 180.1886,-52"></path><text text-anchor="middle" x="155" y="-29.8" font-family="Arial" font-size="14.00" fill="#333333">積立NISA</text></g><!-- 楽天銀行:楽天カード&#45;&gt;楽天証券:積立nisa --><g id="edge-6" class="edge"><title>楽天銀行:楽天カード-&gt;楽天証券:積立nisa</title><path fill="none" stroke="#333333" stroke-width="2" stroke-opacity="0.600000" d="M155,-100.3997C155,-100.3997 155,-62.0731 155,-62.0731"></path><polygon fill="#333333" fill-opacity="0.600000" stroke="#333333" stroke-width="2" stroke-opacity="0.600000" points="158.5001,-62.0731 155,-52.0731 151.5001,-62.0731 158.5001,-62.0731"></polygon></g><!-- 楽天証券:投資信託 --><g id="node8" class="node"><title>楽天証券:投資信託</title><path fill="#ffffff" stroke="#4b75b9" stroke-width="3" d="M87.6878,-52C87.6878,-52 28.3122,-52 28.3122,-52 22.3122,-52 16.3122,-46 16.3122,-40 16.3122,-40 16.3122,-28 16.3122,-28 16.3122,-22 22.3122,-16 28.3122,-16 28.3122,-16 87.6878,-16 87.6878,-16 93.6878,-16 99.6878,-22 99.6878,-28 99.6878,-28 99.6878,-40 99.6878,-40 99.6878,-46 93.6878,-52 87.6878,-52"></path><text text-anchor="middle" x="58" y="-29.8" font-family="Arial" font-size="14.00" fill="#333333">投資信託</text></g><!-- 楽天銀行:楽天カード&#45;&gt;楽天証券:投資信託 --><g id="edge-7" class="edge"><title>楽天銀行:楽天カード-&gt;楽天証券:投資信託</title><path fill="none" stroke="#333333" stroke-width="2" stroke-opacity="0.600000" d="M110.4645,-100.3997C110.4645,-75.4593 110.4645,-34 110.4645,-34 110.4645,-34 109.4029,-34 109.4029,-34"></path><polygon fill="#333333" fill-opacity="0.600000" stroke="#333333" stroke-width="2" stroke-opacity="0.600000" points="109.8476,-30.5001 99.8476,-34 109.8475,-37.5001 109.8476,-30.5001"></polygon></g><!-- 楽天市場 --><g id="node20" class="node"><title>楽天市場</title><path fill="none" stroke="#000000" stroke-width="2" d="M271.6327,-52C271.6327,-52 222.3673,-52 222.3673,-52 216.3673,-52 210.3673,-46 210.3673,-40 210.3673,-40 210.3673,-28 210.3673,-28 210.3673,-22 216.3673,-16 222.3673,-16 222.3673,-16 271.6327,-16 271.6327,-16 277.6327,-16 283.6327,-22 283.6327,-28 283.6327,-28 283.6327,-40 283.6327,-40 283.6327,-46 277.6327,-52 271.6327,-52"></path><text text-anchor="middle" x="247" y="-29.8" font-family="Arial" font-size="14.00" fill="#000000">楽天市場</text></g><!-- 楽天銀行:楽天カード&#45;&gt;楽天市場 --><g id="edge-8" class="edge"><title>楽天銀行:楽天カード-&gt;楽天市場</title><path fill="none" stroke="#333333" stroke-width="2" stroke-opacity="0.600000" d="M199.5354,-100.3997C199.5354,-75.4593 199.5354,-34 199.5354,-34 199.5354,-34 200.5888,-34 200.5888,-34"></path><polygon fill="#333333" fill-opacity="0.600000" stroke="#333333" stroke-width="2" stroke-opacity="0.600000" points="200.0694,-37.5001 210.0694,-34 200.0693,-30.5001 200.0694,-37.5001"></polygon></g><!-- 住信sbiネット銀行:住宅ローン --><g id="node6" class="node"><title>住信sbiネット銀行:住宅ローン</title><path fill="#ffffff" stroke="#4b75b9" stroke-width="3" d="M354.2134,-136.8C354.2134,-136.8 271.7866,-136.8 271.7866,-136.8 265.7866,-136.8 259.7866,-130.8 259.7866,-124.8 259.7866,-124.8 259.7866,-112.8 259.7866,-112.8 259.7866,-106.8 265.7866,-100.8 271.7866,-100.8 271.7866,-100.8 354.2134,-100.8 354.2134,-100.8 360.2134,-100.8 366.2134,-106.8 366.2134,-112.8 366.2134,-112.8 366.2134,-124.8 366.2134,-124.8 366.2134,-130.8 360.2134,-136.8 354.2134,-136.8"></path><text text-anchor="middle" x="313" y="-114.6" font-family="Arial" font-size="14.00" fill="#333333">住宅ローン</text></g><!-- 住信sbiネット銀行:普通口座&#45;&gt;住信sbiネット銀行:住宅ローン --><g id="edge-10" class="edge"><title>住信sbiネット銀行:普通口座-&gt;住信sbiネット銀行:住宅ローン</title><path fill="none" stroke="#333333" stroke-width="2" stroke-opacity="0.600000" d="M319,-185.1997C319,-185.1997 319,-146.8731 319,-146.8731"></path><polygon fill="#333333" fill-opacity="0.600000" stroke="#333333" stroke-width="2" stroke-opacity="0.600000" points="322.5001,-146.8731 319,-136.8731 315.5001,-146.8731 322.5001,-146.8731"></polygon></g><!-- amazon --><g id="node22" class="node"><title>amazon</title><path fill="none" stroke="#000000" stroke-width="2" d="M672.8459,-52C672.8459,-52 629.1541,-52 629.1541,-52 623.1541,-52 617.1541,-46 617.1541,-40 617.1541,-40 617.1541,-28 617.1541,-28 617.1541,-22 623.1541,-16 629.1541,-16 629.1541,-16 672.8459,-16 672.8459,-16 678.8459,-16 684.8459,-22 684.8459,-28 684.8459,-28 684.8459,-40 684.8459,-40 684.8459,-46 678.8459,-52 672.8459,-52"></path><text text-anchor="middle" x="651" y="-29.8" font-family="Arial" font-size="14.00" fill="#000000">Amazon</text></g><!-- 三井住友カード:amazon masterカード&#45;&gt;amazon --><g id="edge-13" class="edge"><title>三井住友カード:amazon masterカード-&gt;amazon</title><path fill="none" stroke="#333333" stroke-width="2" stroke-opacity="0.600000" d="M651,-100.3997C651,-100.3997 651,-62.0731 651,-62.0731"></path><polygon fill="#333333" fill-opacity="0.600000" stroke="#333333" stroke-width="2" stroke-opacity="0.600000" points="654.5001,-62.0731 651,-52.0731 647.5001,-62.0731 654.5001,-62.0731"></polygon></g><!-- 世界 --><g id="node19" class="node"><title>世界</title><path fill="none" stroke="#000000" stroke-width="2" d="M1111,-52C1111,-52 1081,-52 1081,-52 1075,-52 1069,-46 1069,-40 1069,-40 1069,-28 1069,-28 1069,-22 1075,-16 1081,-16 1081,-16 1111,-16 1111,-16 1117,-16 1123,-22 1123,-28 1123,-28 1123,-40 1123,-40 1123,-46 1117,-52 1111,-52"></path><text text-anchor="middle" x="1096" y="-29.8" font-family="Arial" font-size="14.00" fill="#000000">世界</text></g><!-- 三井住友カード:visa line payカード&#45;&gt;世界 --><g id="edge-3" class="edge"><title>三井住友カード:visa line payカード-&gt;世界</title><path fill="none" stroke="#333333" stroke-width="2" stroke-opacity="0.600000" d="M832,-100.3997C832,-75.4593 832,-34 832,-34 832,-34 1058.7417,-34 1058.7417,-34"></path><polygon fill="#333333" fill-opacity="0.600000" stroke="#333333" stroke-width="2" stroke-opacity="0.600000" points="1058.7417,-37.5001 1068.7417,-34 1058.7417,-30.5001 1058.7417,-37.5001"></polygon></g><!-- セゾンカード:amex(家族)&#45;&gt;世界 --><g id="edge-15" class="edge"><title>セゾンカード:amex(家族)-&gt;世界</title><path fill="none" stroke="#333333" stroke-width="2" stroke-opacity="0.600000" d="M1166.7058,-185.4498C1166.7058,-141.6977 1166.7058,-34 1166.7058,-34 1166.7058,-34 1133.1345,-34 1133.1345,-34"></path><polygon fill="#333333" fill-opacity="0.600000" stroke="#333333" stroke-width="2" stroke-opacity="0.600000" points="1133.1345,-30.5001 1123.1345,-34 1133.1344,-37.5001 1133.1345,-30.5001"></polygon></g><!-- ららぽーとなど --><g id="node23" class="node"><title>ららぽーとなど</title><path fill="none" stroke="#000000" stroke-width="2" d="M1506.382,-136.8C1506.382,-136.8 1399.618,-136.8 1399.618,-136.8 1393.618,-136.8 1387.618,-130.8 1387.618,-124.8 1387.618,-124.8 1387.618,-112.8 1387.618,-112.8 1387.618,-106.8 1393.618,-100.8 1399.618,-100.8 1399.618,-100.8 1506.382,-100.8 1506.382,-100.8 1512.382,-100.8 1518.382,-106.8 1518.382,-112.8 1518.382,-112.8 1518.382,-124.8 1518.382,-124.8 1518.382,-130.8 1512.382,-136.8 1506.382,-136.8"></path><text text-anchor="middle" x="1453" y="-114.6" font-family="Arial" font-size="14.00" fill="#000000">ららぽーとなど</text></g><!-- セゾンカード:三井カード&#45;&gt;ららぽーとなど --><g id="edge-17" class="edge"><title>セゾンカード:三井カード-&gt;ららぽーとなど</title><path fill="none" stroke="#333333" stroke-width="2" stroke-opacity="0.600000" d="M1347.5519,-185.4464C1347.5519,-160.3193 1347.5519,-118 1347.5519,-118 1347.5519,-118 1377.7181,-118 1377.7181,-118"></path><polygon fill="#333333" fill-opacity="0.600000" stroke="#333333" stroke-width="2" stroke-opacity="0.600000" points="1377.7181,-121.5001 1387.7181,-118 1377.7181,-114.5001 1377.7181,-121.5001"></polygon></g><!-- イトーヨーカドー --><g id="node24" class="node"><title>イトーヨーカドー</title><path fill="none" stroke="#000000" stroke-width="2" d="M533.2368,-52C533.2368,-52 400.7632,-52 400.7632,-52 394.7632,-52 388.7632,-46 388.7632,-40 388.7632,-40 388.7632,-28 388.7632,-28 388.7632,-22 394.7632,-16 400.7632,-16 400.7632,-16 533.2368,-16 533.2368,-16 539.2368,-16 545.2368,-22 545.2368,-28 545.2368,-28 545.2368,-40 545.2368,-40 545.2368,-46 539.2368,-52 533.2368,-52"></path><text text-anchor="middle" x="467" y="-29.8" font-family="Arial" font-size="14.00" fill="#000000">イトーヨーカドー</text></g><!-- セブンカード:セブンカード(家族)&#45;&gt;イトーヨーカドー --><g id="edge-19" class="edge"><title>セブンカード:セブンカード(家族)-&gt;イトーヨーカドー</title><path fill="none" stroke="#333333" stroke-width="2" stroke-opacity="0.600000" d="M467,-100.3997C467,-100.3997 467,-62.0731 467,-62.0731"></path><polygon fill="#333333" fill-opacity="0.600000" stroke="#333333" stroke-width="2" stroke-opacity="0.600000" points="470.5001,-62.0731 467,-52.0731 463.5001,-62.0731 470.5001,-62.0731"></polygon></g><!-- イオン銀行デビットカード --><g id="node25" class="node"><title>イオン銀行デビットカード</title><path fill="none" stroke="#000000" stroke-width="2" d="M1721.7132,-136.8C1721.7132,-136.8 1548.2868,-136.8 1548.2868,-136.8 1542.2868,-136.8 1536.2868,-130.8 1536.2868,-124.8 1536.2868,-124.8 1536.2868,-112.8 1536.2868,-112.8 1536.2868,-106.8 1542.2868,-100.8 1548.2868,-100.8 1548.2868,-100.8 1721.7132,-100.8 1721.7132,-100.8 1727.7132,-100.8 1733.7132,-106.8 1733.7132,-112.8 1733.7132,-112.8 1733.7132,-124.8 1733.7132,-124.8 1733.7132,-130.8 1727.7132,-136.8 1721.7132,-136.8"></path><text text-anchor="middle" x="1635" y="-114.6" font-family="Arial" font-size="14.00" fill="#000000">イオン銀行デビットカード</text></g><!-- イオン銀行:普通口座&#45;&gt;イオン銀行デビットカード --><g id="edge-23" class="edge"><title>イオン銀行:普通口座-&gt;イオン銀行デビットカード</title><path fill="none" stroke="#333333" stroke-width="2" stroke-opacity="0.600000" d="M1610,-185.1997C1610,-185.1997 1610,-146.8731 1610,-146.8731"></path><polygon fill="#333333" fill-opacity="0.600000" stroke="#333333" stroke-width="2" stroke-opacity="0.600000" points="1613.5001,-146.8731 1610,-136.8731 1606.5001,-146.8731 1613.5001,-146.8731"></polygon></g><!-- イオン銀行:デビットカード --><g id="node17" class="node"><title>イオン銀行:デビットカード</title><path fill="#ffffff" stroke="#4b75b9" stroke-width="3" d="M1539.2203,-221.6C1539.2203,-221.6 1442.7797,-221.6 1442.7797,-221.6 1436.7797,-221.6 1430.7797,-215.6 1430.7797,-209.6 1430.7797,-209.6 1430.7797,-197.6 1430.7797,-197.6 1430.7797,-191.6 1436.7797,-185.6 1442.7797,-185.6 1442.7797,-185.6 1539.2203,-185.6 1539.2203,-185.6 1545.2203,-185.6 1551.2203,-191.6 1551.2203,-197.6 1551.2203,-197.6 1551.2203,-209.6 1551.2203,-209.6 1551.2203,-215.6 1545.2203,-221.6 1539.2203,-221.6"></path><text text-anchor="middle" x="1491" y="-199.4" font-family="Arial" font-size="14.00" fill="#333333">デビットカード</text></g><!-- 会社 --><g id="node18" class="node"><title>会社</title><path fill="none" stroke="#000000" stroke-width="2" d="M1120,-383.2C1120,-383.2 1090,-383.2 1090,-383.2 1084,-383.2 1078,-377.2 1078,-371.2 1078,-371.2 1078,-359.2 1078,-359.2 1078,-353.2 1084,-347.2 1090,-347.2 1090,-347.2 1120,-347.2 1120,-347.2 1126,-347.2 1132,-353.2 1132,-359.2 1132,-359.2 1132,-371.2 1132,-371.2 1132,-377.2 1126,-383.2 1120,-383.2"></path><text text-anchor="middle" x="1105" y="-361" font-family="Arial" font-size="14.00" fill="#000000">会社</text></g><!-- 会社&#45;&gt;gmoあおぞらネット銀行:普通口座 --><g id="edge-0" class="edge"><title>会社-&gt;gmoあおぞらネット銀行:普通口座</title><path fill="none" stroke="#333333" stroke-width="2" stroke-opacity="0.600000" d="M1105,-346.9995C1105,-346.9995 1105,-316.4699 1105,-316.4699"></path><polygon fill="#333333" fill-opacity="0.600000" stroke="#333333" stroke-width="2" stroke-opacity="0.600000" points="1108.5001,-316.4698 1105,-306.4699 1101.5001,-316.4699 1108.5001,-316.4698"></polygon></g><!-- イオン --><g id="node26" class="node"><title>イオン</title><path fill="none" stroke="#000000" stroke-width="2" d="M1651.9874,-52C1651.9874,-52 1618.0126,-52 1618.0126,-52 1612.0126,-52 1606.0126,-46 1606.0126,-40 1606.0126,-40 1606.0126,-28 1606.0126,-28 1606.0126,-22 1612.0126,-16 1618.0126,-16 1618.0126,-16 1651.9874,-16 1651.9874,-16 1657.9874,-16 1663.9874,-22 1663.9874,-28 1663.9874,-28 1663.9874,-40 1663.9874,-40 1663.9874,-46 1657.9874,-52 1651.9874,-52"></path><text text-anchor="middle" x="1635" y="-29.8" font-family="Arial" font-size="14.00" fill="#000000">イオン</text></g><!-- イオン銀行デビットカード&#45;&gt;イオン --><g id="edge-24" class="edge"><title>イオン銀行デビットカード-&gt;イオン</title><path fill="none" stroke="#333333" stroke-width="2" stroke-opacity="0.600000" d="M1635,-100.3997C1635,-100.3997 1635,-62.0731 1635,-62.0731"></path><polygon fill="#333333" fill-opacity="0.600000" stroke="#333333" stroke-width="2" stroke-opacity="0.600000" points="1638.5001,-62.0731 1635,-52.0731 1631.5001,-62.0731 1638.5001,-62.0731"></polygon></g></g></svg>