<?xml version="1.0" encoding="UTF-8" standalone="no"?><!-- Generated by graphviz version 2.40.1 (20161225.0304)
 --><!-- Title: ndiag Pages: 1 --><svg width="1458pt" height="391pt" viewBox="0.00 0.00 1457.76 391.20" xmlns="http://www.w3.org/2000/svg" xmlns:xlink="http://www.w3.org/1999/xlink"><g id="graph0" class="graph" transform="scale(1 1) rotate(0) translate(4 387.2)"><title>ndiag</title><polygon fill="#ffffff" stroke="transparent" points="-4,4 -4,-387.2 1453.757,-387.2 1453.757,4 -4,4"></polygon><g id="clust10" class="cluster"><title>cluster_県民共済</title><polygon fill="none" stroke="#000000" stroke-width="2" points="1239.5663,-92.8 1239.5663,-169.6 1309.5663,-169.6 1309.5663,-92.8 1239.5663,-92.8"></polygon><text text-anchor="middle" x="1274.5663" y="-153" font-family="Arial" font-size="14.00" fill="#000000">県民共済</text></g><g id="clust9" class="cluster"><title>cluster_プルデンシャル生命</title><polygon fill="none" stroke="#000000" stroke-width="2" points="1075.5663,-92.8 1075.5663,-169.6 1231.5663,-169.6 1231.5663,-92.8 1075.5663,-92.8"></polygon><text text-anchor="middle" x="1153.5663" y="-153" font-family="Arial" font-size="14.00" fill="#000000">プルデンシャル生命</text></g><g id="clust8" class="cluster"><title>cluster_セブンカード</title><polygon fill="none" stroke="#000000" stroke-width="2" points="529.5663,-92.8 529.5663,-169.6 699.5663,-169.6 699.5663,-92.8 529.5663,-92.8"></polygon><text text-anchor="middle" x="614.5663" y="-153" font-family="Arial" font-size="14.00" fill="#000000">セブンカード</text></g><g id="clust7" class="cluster"><title>cluster_セゾンカード</title><polygon fill="none" stroke="#000000" stroke-width="2" points="1032.5663,-177.6 1032.5663,-254.4 1250.5663,-254.4 1250.5663,-177.6 1032.5663,-177.6"></polygon><text text-anchor="middle" x="1141.5663" y="-237.8" font-family="Arial" font-size="14.00" fill="#000000">セゾンカード</text></g><g id="clust6" class="cluster"><title>cluster_三井住友カード</title><polygon fill="none" stroke="#000000" stroke-width="2" points="707.5663,-92.8 707.5663,-169.6 1067.5663,-169.6 1067.5663,-92.8 707.5663,-92.8"></polygon><text text-anchor="middle" x="887.5663" y="-153" font-family="Arial" font-size="14.00" fill="#000000">三井住友カード</text></g><g id="clust5" class="cluster"><title>cluster_楽天証券</title><polygon fill="none" stroke="#000000" stroke-width="2" points="82.5663,-8 82.5663,-84.8 274.5663,-84.8 274.5663,-8 82.5663,-8"></polygon><text text-anchor="middle" x="178.5663" y="-68.2" font-family="Arial" font-size="14.00" fill="#000000">楽天証券</text></g><g id="clust4" class="cluster"><title>cluster_住信SBIネット銀行</title><polygon fill="none" stroke="#000000" stroke-width="2" points="200.5663,-92.8 200.5663,-254.4 351.5663,-254.4 351.5663,-92.8 200.5663,-92.8"></polygon><text text-anchor="middle" x="276.0663" y="-237.8" font-family="Arial" font-size="14.00" fill="#000000">住信SBIネット銀行</text></g><g id="clust3" class="cluster"><title>cluster_楽天銀行</title><polygon fill="none" stroke="#000000" stroke-width="2" points="72.5663,-92.8 72.5663,-254.4 192.5663,-254.4 192.5663,-92.8 72.5663,-92.8"></polygon><text text-anchor="middle" x="132.5663" y="-237.8" font-family="Arial" font-size="14.00" fill="#000000">楽天銀行</text></g><g id="clust2" class="cluster"><title>cluster_三菱UFJ銀行</title><polygon fill="none" stroke="#000000" stroke-width="2" points="804.5663,-177.6 804.5663,-254.4 911.5663,-254.4 911.5663,-177.6 804.5663,-177.6"></polygon><text text-anchor="middle" x="858.0663" y="-237.8" font-family="Arial" font-size="14.00" fill="#000000">三菱UFJ銀行</text></g><g id="clust1" class="cluster"><title>cluster_GMOあおぞらネット銀行</title><polygon fill="none" stroke="#000000" stroke-width="2" points="770.5663,-262.4 770.5663,-339.2 945.5663,-339.2 945.5663,-262.4 770.5663,-262.4"></polygon><text text-anchor="middle" x="858.0663" y="-322.6" font-family="Arial" font-size="14.00" fill="#000000">GMOあおぞらネット銀行</text></g><!-- gmoあおぞらネット銀行:普通口座 --><g id="node1" class="node"><title>gmoあおぞらネット銀行:普通口座</title><path fill="#ffffff" stroke="#4b75b9" stroke-width="3" d="M886.4177,-306.4C886.4177,-306.4 828.7149,-306.4 828.7149,-306.4 822.7149,-306.4 816.7149,-300.4 816.7149,-294.4 816.7149,-294.4 816.7149,-282.4 816.7149,-282.4 816.7149,-276.4 822.7149,-270.4 828.7149,-270.4 828.7149,-270.4 886.4177,-270.4 886.4177,-270.4 892.4177,-270.4 898.4177,-276.4 898.4177,-282.4 898.4177,-282.4 898.4177,-294.4 898.4177,-294.4 898.4177,-300.4 892.4177,-306.4 886.4177,-306.4"></path><text text-anchor="middle" x="857.5663" y="-284.2" font-family="Arial" font-size="14.00" fill="#333333">普通口座</text></g><!-- 三菱ufj銀行:普通口座 --><g id="node2" class="node"><title>三菱ufj銀行:普通口座</title><path fill="#ffffff" stroke="#4b75b9" stroke-width="3" d="M886.4177,-221.6C886.4177,-221.6 828.7149,-221.6 828.7149,-221.6 822.7149,-221.6 816.7149,-215.6 816.7149,-209.6 816.7149,-209.6 816.7149,-197.6 816.7149,-197.6 816.7149,-191.6 822.7149,-185.6 828.7149,-185.6 828.7149,-185.6 886.4177,-185.6 886.4177,-185.6 892.4177,-185.6 898.4177,-191.6 898.4177,-197.6 898.4177,-197.6 898.4177,-209.6 898.4177,-209.6 898.4177,-215.6 892.4177,-221.6 886.4177,-221.6"></path><text text-anchor="middle" x="857.5663" y="-199.4" font-family="Arial" font-size="14.00" fill="#333333">普通口座</text></g><!-- gmoあおぞらネット銀行:普通口座&#45;&gt;三菱ufj銀行:普通口座 --><g id="edge-1" class="edge"><title>gmoあおぞらネット銀行:普通口座-&gt;三菱ufj銀行:普通口座</title><path fill="none" stroke="#333333" stroke-width="2" stroke-opacity="0.600000" d="M857.5663,-269.9997C857.5663,-269.9997 857.5663,-231.6731 857.5663,-231.6731"></path><polygon fill="#333333" fill-opacity="0.600000" stroke="#333333" stroke-width="2" stroke-opacity="0.600000" points="861.0664,-231.6731 857.5663,-221.6731 854.0664,-231.6731 861.0664,-231.6731"></polygon></g><!-- 楽天銀行:普通口座 --><g id="node3" class="node"><title>楽天銀行:普通口座</title><path fill="#ffffff" stroke="#4b75b9" stroke-width="3" d="M166.4177,-221.6C166.4177,-221.6 108.7149,-221.6 108.7149,-221.6 102.7149,-221.6 96.7149,-215.6 96.7149,-209.6 96.7149,-209.6 96.7149,-197.6 96.7149,-197.6 96.7149,-191.6 102.7149,-185.6 108.7149,-185.6 108.7149,-185.6 166.4177,-185.6 166.4177,-185.6 172.4177,-185.6 178.4177,-191.6 178.4177,-197.6 178.4177,-197.6 178.4177,-209.6 178.4177,-209.6 178.4177,-215.6 172.4177,-221.6 166.4177,-221.6"></path><text text-anchor="middle" x="137.5663" y="-199.4" font-family="Arial" font-size="14.00" fill="#333333">普通口座</text></g><!-- gmoあおぞらネット銀行:普通口座&#45;&gt;楽天銀行:普通口座 --><g id="edge-4" class="edge"><title>gmoあおぞらネット銀行:普通口座-&gt;楽天銀行:普通口座</title><path fill="none" stroke="#333333" stroke-width="2" stroke-opacity="0.600000" d="M816.793,-294C664.4816,-294 137.5663,-294 137.5663,-294 137.5663,-294 137.5663,-231.8938 137.5663,-231.8938"></path><polygon fill="#333333" fill-opacity="0.600000" stroke="#333333" stroke-width="2" stroke-opacity="0.600000" points="141.0664,-231.8938 137.5663,-221.8938 134.0664,-231.8938 141.0664,-231.8938"></polygon></g><!-- 住信sbiネット銀行:普通口座 --><g id="node5" class="node"><title>住信sbiネット銀行:普通口座</title><path fill="#ffffff" stroke="#4b75b9" stroke-width="3" d="M324.4177,-221.6C324.4177,-221.6 266.7149,-221.6 266.7149,-221.6 260.7149,-221.6 254.7149,-215.6 254.7149,-209.6 254.7149,-209.6 254.7149,-197.6 254.7149,-197.6 254.7149,-191.6 260.7149,-185.6 266.7149,-185.6 266.7149,-185.6 324.4177,-185.6 324.4177,-185.6 330.4177,-185.6 336.4177,-191.6 336.4177,-197.6 336.4177,-197.6 336.4177,-209.6 336.4177,-209.6 336.4177,-215.6 330.4177,-221.6 324.4177,-221.6"></path><text text-anchor="middle" x="295.5663" y="-199.4" font-family="Arial" font-size="14.00" fill="#333333">普通口座</text></g><!-- gmoあおぞらネット銀行:普通口座&#45;&gt;住信sbiネット銀行:普通口座 --><g id="edge-9" class="edge"><title>gmoあおぞらネット銀行:普通口座-&gt;住信sbiネット銀行:普通口座</title><path fill="none" stroke="#333333" stroke-width="2" stroke-opacity="0.600000" d="M816.6959,-282C687.3701,-282 295.5663,-282 295.5663,-282 295.5663,-282 295.5663,-231.7836 295.5663,-231.7836"></path><polygon fill="#333333" fill-opacity="0.600000" stroke="#333333" stroke-width="2" stroke-opacity="0.600000" points="299.0664,-231.7836 295.5663,-221.7836 292.0664,-231.7836 299.0664,-231.7836"></polygon></g><!-- セゾンカード:amex(家族) --><g id="node11" class="node"><title>セゾンカード:amex(家族)</title><path fill="#ffffff" stroke="#4b75b9" stroke-width="3" d="M1230.2465,-221.6C1230.2465,-221.6 1162.8861,-221.6 1162.8861,-221.6 1156.8861,-221.6 1150.8861,-215.6 1150.8861,-209.6 1150.8861,-209.6 1150.8861,-197.6 1150.8861,-197.6 1150.8861,-191.6 1156.8861,-185.6 1162.8861,-185.6 1162.8861,-185.6 1230.2465,-185.6 1230.2465,-185.6 1236.2465,-185.6 1242.2465,-191.6 1242.2465,-197.6 1242.2465,-197.6 1242.2465,-209.6 1242.2465,-209.6 1242.2465,-215.6 1236.2465,-221.6 1230.2465,-221.6"></path><text text-anchor="middle" x="1196.5663" y="-199.4" font-family="Arial" font-size="14.00" fill="#333333">Amex(家族)</text></g><!-- gmoあおぞらネット銀行:普通口座&#45;&gt;セゾンカード:amex(家族) --><g id="edge-14" class="edge"><title>gmoあおぞらネット銀行:普通口座-&gt;セゾンカード:amex(家族)</title><path fill="none" stroke="#333333" stroke-width="2" stroke-opacity="0.600000" d="M898.4576,-294C988.6213,-294 1196.5663,-294 1196.5663,-294 1196.5663,-294 1196.5663,-231.8938 1196.5663,-231.8938"></path><polygon fill="#333333" fill-opacity="0.600000" stroke="#333333" stroke-width="2" stroke-opacity="0.600000" points="1200.0664,-231.8938 1196.5663,-221.8938 1193.0664,-231.8938 1200.0664,-231.8938"></polygon></g><!-- セゾンカード:三井カード --><g id="node12" class="node"><title>セゾンカード:三井カード</title><path fill="#ffffff" stroke="#4b75b9" stroke-width="3" d="M1120.7769,-221.6C1120.7769,-221.6 1052.3557,-221.6 1052.3557,-221.6 1046.3557,-221.6 1040.3557,-215.6 1040.3557,-209.6 1040.3557,-209.6 1040.3557,-197.6 1040.3557,-197.6 1040.3557,-191.6 1046.3557,-185.6 1052.3557,-185.6 1052.3557,-185.6 1120.7769,-185.6 1120.7769,-185.6 1126.7769,-185.6 1132.7769,-191.6 1132.7769,-197.6 1132.7769,-197.6 1132.7769,-209.6 1132.7769,-209.6 1132.7769,-215.6 1126.7769,-221.6 1120.7769,-221.6"></path><text text-anchor="middle" x="1086.5663" y="-199.4" font-family="Arial" font-size="14.00" fill="#333333">三井カード</text></g><!-- gmoあおぞらネット銀行:普通口座&#45;&gt;セゾンカード:三井カード --><g id="edge-16" class="edge"><title>gmoあおぞらネット銀行:普通口座-&gt;セゾンカード:三井カード</title><path fill="none" stroke="#333333" stroke-width="2" stroke-opacity="0.600000" d="M898.243,-282C964.0485,-282 1086.5663,-282 1086.5663,-282 1086.5663,-282 1086.5663,-231.7836 1086.5663,-231.7836"></path><polygon fill="#333333" fill-opacity="0.600000" stroke="#333333" stroke-width="2" stroke-opacity="0.600000" points="1090.0664,-231.7836 1086.5663,-221.7836 1083.0664,-231.7836 1090.0664,-231.7836"></polygon></g><!-- 三井住友カード:amazon masterカード --><g id="node9" class="node"><title>三井住友カード:amazon masterカード</title><path fill="#ffffff" stroke="#4b75b9" stroke-width="3" d="M869.9597,-136.8C869.9597,-136.8 727.1729,-136.8 727.1729,-136.8 721.1729,-136.8 715.1729,-130.8 715.1729,-124.8 715.1729,-124.8 715.1729,-112.8 715.1729,-112.8 715.1729,-106.8 721.1729,-100.8 727.1729,-100.8 727.1729,-100.8 869.9597,-100.8 869.9597,-100.8 875.9597,-100.8 881.9597,-106.8 881.9597,-112.8 881.9597,-112.8 881.9597,-124.8 881.9597,-124.8 881.9597,-130.8 875.9597,-136.8 869.9597,-136.8"></path><text text-anchor="middle" x="798.5663" y="-114.6" font-family="Arial" font-size="14.00" fill="#333333">Amazon Masterカード</text></g><!-- 三菱ufj銀行:普通口座&#45;&gt;三井住友カード:amazon masterカード --><g id="edge-12" class="edge"><title>三菱ufj銀行:普通口座-&gt;三井住友カード:amazon masterカード</title><path fill="none" stroke="#333333" stroke-width="2" stroke-opacity="0.600000" d="M849.452,-185.1997C849.452,-185.1997 849.452,-146.8731 849.452,-146.8731"></path><polygon fill="#333333" fill-opacity="0.600000" stroke="#333333" stroke-width="2" stroke-opacity="0.600000" points="852.9521,-146.8731 849.452,-136.8731 845.9521,-146.8731 852.9521,-146.8731"></polygon></g><!-- 三井住友カード:visa line payカード --><g id="node10" class="node"><title>三井住友カード:visa line payカード</title><path fill="#ffffff" stroke="#4b75b9" stroke-width="3" d="M1047.1897,-136.8C1047.1897,-136.8 911.9429,-136.8 911.9429,-136.8 905.9429,-136.8 899.9429,-130.8 899.9429,-124.8 899.9429,-124.8 899.9429,-112.8 899.9429,-112.8 899.9429,-106.8 905.9429,-100.8 911.9429,-100.8 911.9429,-100.8 1047.1897,-100.8 1047.1897,-100.8 1053.1897,-100.8 1059.1897,-106.8 1059.1897,-112.8 1059.1897,-112.8 1059.1897,-124.8 1059.1897,-124.8 1059.1897,-130.8 1053.1897,-136.8 1047.1897,-136.8"></path><text text-anchor="middle" x="979.5663" y="-114.6" font-family="Arial" font-size="14.00" fill="#333333">Visa LINE Payカード</text></g><!-- 三菱ufj銀行:普通口座&#45;&gt;三井住友カード:visa line payカード --><g id="edge-2" class="edge"><title>三菱ufj銀行:普通口座-&gt;三井住友カード:visa line payカード</title><path fill="none" stroke="#333333" stroke-width="2" stroke-opacity="0.600000" d="M894.1845,-185.4464C894.1845,-160.3193 894.1845,-118 894.1845,-118 894.1845,-118 894.7447,-118 894.7447,-118"></path><polygon fill="#333333" fill-opacity="0.600000" stroke="#333333" stroke-width="2" stroke-opacity="0.600000" points="889.7867,-121.5002 899.7866,-118 889.7865,-114.5002 889.7867,-121.5002"></polygon></g><!-- セブンカード:セブンカード(家族) --><g id="node13" class="node"><title>セブンカード:セブンカード(家族)</title><path fill="#ffffff" stroke="#4b75b9" stroke-width="3" d="M680.0107,-136.8C680.0107,-136.8 549.1219,-136.8 549.1219,-136.8 543.1219,-136.8 537.1219,-130.8 537.1219,-124.8 537.1219,-124.8 537.1219,-112.8 537.1219,-112.8 537.1219,-106.8 543.1219,-100.8 549.1219,-100.8 549.1219,-100.8 680.0107,-100.8 680.0107,-100.8 686.0107,-100.8 692.0107,-106.8 692.0107,-112.8 692.0107,-112.8 692.0107,-124.8 692.0107,-124.8 692.0107,-130.8 686.0107,-136.8 680.0107,-136.8"></path><text text-anchor="middle" x="614.5663" y="-114.6" font-family="Arial" font-size="14.00" fill="#333333">セブンカード(家族)</text></g><!-- 三菱ufj銀行:普通口座&#45;&gt;セブンカード:セブンカード(家族) --><g id="edge-18" class="edge"><title>三菱ufj銀行:普通口座-&gt;セブンカード:セブンカード(家族)</title><path fill="none" stroke="#333333" stroke-width="2" stroke-opacity="0.600000" d="M816.6194,-197C747.3663,-197 614.5663,-197 614.5663,-197 614.5663,-197 614.5663,-146.9372 614.5663,-146.9372"></path><polygon fill="#333333" fill-opacity="0.600000" stroke="#333333" stroke-width="2" stroke-opacity="0.600000" points="618.0664,-146.9372 614.5663,-136.9372 611.0664,-146.9372 618.0664,-146.9372"></polygon></g><!-- プルデンシャル生命:生命保険 --><g id="node14" class="node"><title>プルデンシャル生命:生命保険</title><path fill="#ffffff" stroke="#4b75b9" stroke-width="3" d="M1157.2952,-136.8C1157.2952,-136.8 1095.8374,-136.8 1095.8374,-136.8 1089.8374,-136.8 1083.8374,-130.8 1083.8374,-124.8 1083.8374,-124.8 1083.8374,-112.8 1083.8374,-112.8 1083.8374,-106.8 1089.8374,-100.8 1095.8374,-100.8 1095.8374,-100.8 1157.2952,-100.8 1157.2952,-100.8 1163.2952,-100.8 1169.2952,-106.8 1169.2952,-112.8 1169.2952,-112.8 1169.2952,-124.8 1169.2952,-124.8 1169.2952,-130.8 1163.2952,-136.8 1157.2952,-136.8"></path><text text-anchor="middle" x="1126.5663" y="-114.6" font-family="Arial" font-size="14.00" fill="#333333">生命保険</text></g><!-- 三菱ufj銀行:普通口座&#45;&gt;プルデンシャル生命:生命保険 --><g id="edge-20" class="edge"><title>三菱ufj銀行:普通口座-&gt;プルデンシャル生命:生命保険</title><path fill="none" stroke="#333333" stroke-width="2" stroke-opacity="0.600000" d="M886.0701,-185.419C886.0701,-169.5358 886.0701,-149 886.0701,-149 886.0701,-149 1100.1918,-149 1100.1918,-149 1100.1918,-149 1100.1918,-147.0642 1100.1918,-147.0642"></path><polygon fill="#333333" fill-opacity="0.600000" stroke="#333333" stroke-width="2" stroke-opacity="0.600000" points="1103.6919,-147.0641 1100.1918,-137.0642 1096.6919,-147.0642 1103.6919,-147.0641"></polygon></g><!-- 県民共済:保険 --><g id="node15" class="node"><title>県民共済:保険</title><path fill="#ffffff" stroke="#4b75b9" stroke-width="3" d="M1289.5663,-136.8C1289.5663,-136.8 1259.5663,-136.8 1259.5663,-136.8 1253.5663,-136.8 1247.5663,-130.8 1247.5663,-124.8 1247.5663,-124.8 1247.5663,-112.8 1247.5663,-112.8 1247.5663,-106.8 1253.5663,-100.8 1259.5663,-100.8 1259.5663,-100.8 1289.5663,-100.8 1289.5663,-100.8 1295.5663,-100.8 1301.5663,-106.8 1301.5663,-112.8 1301.5663,-112.8 1301.5663,-124.8 1301.5663,-124.8 1301.5663,-130.8 1295.5663,-136.8 1289.5663,-136.8"></path><text text-anchor="middle" x="1274.5663" y="-114.6" font-family="Arial" font-size="14.00" fill="#333333">保険</text></g><!-- 三菱ufj銀行:普通口座&#45;&gt;県民共済:保険 --><g id="edge-21" class="edge"><title>三菱ufj銀行:普通口座-&gt;県民共済:保険</title><path fill="none" stroke="#333333" stroke-width="2" stroke-opacity="0.600000" d="M890.1273,-185.2865C890.1273,-173.7405 890.1273,-161 890.1273,-161 890.1273,-161 1274.5663,-161 1274.5663,-161 1274.5663,-161 1274.5663,-146.9415 1274.5663,-146.9415"></path><polygon fill="#333333" fill-opacity="0.600000" stroke="#333333" stroke-width="2" stroke-opacity="0.600000" points="1278.0664,-146.9415 1274.5663,-136.9415 1271.0664,-146.9415 1278.0664,-146.9415"></polygon></g><!-- 管理費・修繕積立金 --><g id="node19" class="node"><title>管理費・修繕積立金</title><path fill="none" stroke="#000000" stroke-width="2" d="M507.5633,-136.8C507.5633,-136.8 371.5693,-136.8 371.5693,-136.8 365.5693,-136.8 359.5693,-130.8 359.5693,-124.8 359.5693,-124.8 359.5693,-112.8 359.5693,-112.8 359.5693,-106.8 365.5693,-100.8 371.5693,-100.8 371.5693,-100.8 507.5633,-100.8 507.5633,-100.8 513.5633,-100.8 519.5633,-106.8 519.5633,-112.8 519.5633,-112.8 519.5633,-124.8 519.5633,-124.8 519.5633,-130.8 513.5633,-136.8 507.5633,-136.8"></path><text text-anchor="middle" x="439.5663" y="-114.6" font-family="Arial" font-size="14.00" fill="#000000">管理費・修繕積立金</text></g><!-- 三菱ufj銀行:普通口座&#45;&gt;管理費・修繕積立金 --><g id="edge-11" class="edge"><title>三菱ufj銀行:普通口座-&gt;管理費・修繕積立金</title><path fill="none" stroke="#333333" stroke-width="2" stroke-opacity="0.600000" d="M816.7256,-209C711.546,-209 439.5663,-209 439.5663,-209 439.5663,-209 439.5663,-147.0533 439.5663,-147.0533"></path><polygon fill="#333333" fill-opacity="0.600000" stroke="#333333" stroke-width="2" stroke-opacity="0.600000" points="443.0664,-147.0533 439.5663,-137.0533 436.0664,-147.0534 443.0664,-147.0533"></polygon></g><!-- 楽天銀行:楽天カード --><g id="node4" class="node"><title>楽天銀行:楽天カード</title><path fill="#ffffff" stroke="#4b75b9" stroke-width="3" d="M172.5211,-136.8C172.5211,-136.8 92.6115,-136.8 92.6115,-136.8 86.6115,-136.8 80.6115,-130.8 80.6115,-124.8 80.6115,-124.8 80.6115,-112.8 80.6115,-112.8 80.6115,-106.8 86.6115,-100.8 92.6115,-100.8 92.6115,-100.8 172.5211,-100.8 172.5211,-100.8 178.5211,-100.8 184.5211,-106.8 184.5211,-112.8 184.5211,-112.8 184.5211,-124.8 184.5211,-124.8 184.5211,-130.8 178.5211,-136.8 172.5211,-136.8"></path><text text-anchor="middle" x="132.5663" y="-114.6" font-family="Arial" font-size="14.00" fill="#333333">楽天カード</text></g><!-- 楽天銀行:普通口座&#45;&gt;楽天銀行:楽天カード --><g id="edge-5" class="edge"><title>楽天銀行:普通口座-&gt;楽天銀行:楽天カード</title><path fill="none" stroke="#333333" stroke-width="2" stroke-opacity="0.600000" d="M137.5663,-185.1997C137.5663,-185.1997 137.5663,-146.8731 137.5663,-146.8731"></path><polygon fill="#333333" fill-opacity="0.600000" stroke="#333333" stroke-width="2" stroke-opacity="0.600000" points="141.0664,-146.8731 137.5663,-136.8731 134.0664,-146.8731 141.0664,-146.8731"></polygon></g><!-- 楽天証券:積立nisa --><g id="node7" class="node"><title>楽天証券:積立nisa</title><path fill="#ffffff" stroke="#4b75b9" stroke-width="3" d="M254.7549,-52C254.7549,-52 204.3777,-52 204.3777,-52 198.3777,-52 192.3777,-46 192.3777,-40 192.3777,-40 192.3777,-28 192.3777,-28 192.3777,-22 198.3777,-16 204.3777,-16 204.3777,-16 254.7549,-16 254.7549,-16 260.7549,-16 266.7549,-22 266.7549,-28 266.7549,-28 266.7549,-40 266.7549,-40 266.7549,-46 260.7549,-52 254.7549,-52"></path><text text-anchor="middle" x="229.5663" y="-29.8" font-family="Arial" font-size="14.00" fill="#333333">積立NISA</text></g><!-- 楽天銀行:楽天カード&#45;&gt;楽天証券:積立nisa --><g id="edge-6" class="edge"><title>楽天銀行:楽天カード-&gt;楽天証券:積立nisa</title><path fill="none" stroke="#333333" stroke-width="2" stroke-opacity="0.600000" d="M179.3515,-100.3997C179.3515,-75.4593 179.3515,-34 179.3515,-34 179.3515,-34 182.2831,-34 182.2831,-34"></path><polygon fill="#333333" fill-opacity="0.600000" stroke="#333333" stroke-width="2" stroke-opacity="0.600000" points="182.2831,-37.5001 192.2831,-34 182.2831,-30.5001 182.2831,-37.5001"></polygon></g><!-- 楽天証券:投資信託 --><g id="node8" class="node"><title>楽天証券:投資信託</title><path fill="#ffffff" stroke="#4b75b9" stroke-width="3" d="M162.2541,-52C162.2541,-52 102.8785,-52 102.8785,-52 96.8785,-52 90.8785,-46 90.8785,-40 90.8785,-40 90.8785,-28 90.8785,-28 90.8785,-22 96.8785,-16 102.8785,-16 102.8785,-16 162.2541,-16 162.2541,-16 168.2541,-16 174.2541,-22 174.2541,-28 174.2541,-28 174.2541,-40 174.2541,-40 174.2541,-46 168.2541,-52 162.2541,-52"></path><text text-anchor="middle" x="132.5663" y="-29.8" font-family="Arial" font-size="14.00" fill="#333333">投資信託</text></g><!-- 楽天銀行:楽天カード&#45;&gt;楽天証券:投資信託 --><g id="edge-7" class="edge"><title>楽天銀行:楽天カード-&gt;楽天証券:投資信託</title><path fill="none" stroke="#333333" stroke-width="2" stroke-opacity="0.600000" d="M132.5663,-100.3997C132.5663,-100.3997 132.5663,-62.0731 132.5663,-62.0731"></path><polygon fill="#333333" fill-opacity="0.600000" stroke="#333333" stroke-width="2" stroke-opacity="0.600000" points="136.0664,-62.0731 132.5663,-52.0731 129.0664,-62.0731 136.0664,-62.0731"></polygon></g><!-- 楽天市場 --><g id="node18" class="node"><title>楽天市場</title><path fill="none" stroke="#000000" stroke-width="2" d="M61.199,-52C61.199,-52 11.9336,-52 11.9336,-52 5.9336,-52 -.0664,-46 -.0664,-40 -.0664,-40 -.0664,-28 -.0664,-28 -.0664,-22 5.9336,-16 11.9336,-16 11.9336,-16 61.199,-16 61.199,-16 67.199,-16 73.199,-22 73.199,-28 73.199,-28 73.199,-40 73.199,-40 73.199,-46 67.199,-52 61.199,-52"></path><text text-anchor="middle" x="36.5663" y="-29.8" font-family="Arial" font-size="14.00" fill="#000000">楽天市場</text></g><!-- 楽天銀行:楽天カード&#45;&gt;楽天市場 --><g id="edge-8" class="edge"><title>楽天銀行:楽天カード-&gt;楽天市場</title><path fill="none" stroke="#333333" stroke-width="2" stroke-opacity="0.600000" d="M85.781,-100.3997C85.781,-75.4593 85.781,-34 85.781,-34 85.781,-34 83.3621,-34 83.3621,-34"></path><polygon fill="#333333" fill-opacity="0.600000" stroke="#333333" stroke-width="2" stroke-opacity="0.600000" points="83.3621,-30.5001 73.3621,-34 83.3621,-37.5001 83.3621,-30.5001"></polygon></g><!-- 住信sbiネット銀行:住宅ローン --><g id="node6" class="node"><title>住信sbiネット銀行:住宅ローン</title><path fill="#ffffff" stroke="#4b75b9" stroke-width="3" d="M329.7797,-136.8C329.7797,-136.8 247.3529,-136.8 247.3529,-136.8 241.3529,-136.8 235.3529,-130.8 235.3529,-124.8 235.3529,-124.8 235.3529,-112.8 235.3529,-112.8 235.3529,-106.8 241.3529,-100.8 247.3529,-100.8 247.3529,-100.8 329.7797,-100.8 329.7797,-100.8 335.7797,-100.8 341.7797,-106.8 341.7797,-112.8 341.7797,-112.8 341.7797,-124.8 341.7797,-124.8 341.7797,-130.8 335.7797,-136.8 329.7797,-136.8"></path><text text-anchor="middle" x="288.5663" y="-114.6" font-family="Arial" font-size="14.00" fill="#333333">住宅ローン</text></g><!-- 住信sbiネット銀行:普通口座&#45;&gt;住信sbiネット銀行:住宅ローン --><g id="edge-10" class="edge"><title>住信sbiネット銀行:普通口座-&gt;住信sbiネット銀行:住宅ローン</title><path fill="none" stroke="#333333" stroke-width="2" stroke-opacity="0.600000" d="M295.5663,-185.1997C295.5663,-185.1997 295.5663,-146.8731 295.5663,-146.8731"></path><polygon fill="#333333" fill-opacity="0.600000" stroke="#333333" stroke-width="2" stroke-opacity="0.600000" points="299.0664,-146.8731 295.5663,-136.8731 292.0664,-146.8731 299.0664,-146.8731"></polygon></g><!-- amazon --><g id="node20" class="node"><title>amazon</title><path fill="none" stroke="#000000" stroke-width="2" d="M820.4122,-52C820.4122,-52 776.7204,-52 776.7204,-52 770.7204,-52 764.7204,-46 764.7204,-40 764.7204,-40 764.7204,-28 764.7204,-28 764.7204,-22 770.7204,-16 776.7204,-16 776.7204,-16 820.4122,-16 820.4122,-16 826.4122,-16 832.4122,-22 832.4122,-28 832.4122,-28 832.4122,-40 832.4122,-40 832.4122,-46 826.4122,-52 820.4122,-52"></path><text text-anchor="middle" x="798.5663" y="-29.8" font-family="Arial" font-size="14.00" fill="#000000">Amazon</text></g><!-- 三井住友カード:amazon masterカード&#45;&gt;amazon --><g id="edge-13" class="edge"><title>三井住友カード:amazon masterカード-&gt;amazon</title><path fill="none" stroke="#333333" stroke-width="2" stroke-opacity="0.600000" d="M798.5663,-100.3997C798.5663,-100.3997 798.5663,-62.0731 798.5663,-62.0731"></path><polygon fill="#333333" fill-opacity="0.600000" stroke="#333333" stroke-width="2" stroke-opacity="0.600000" points="802.0664,-62.0731 798.5663,-52.0731 795.0664,-62.0731 802.0664,-62.0731"></polygon></g><!-- 世界 --><g id="node17" class="node"><title>世界</title><path fill="none" stroke="#000000" stroke-width="2" d="M1243.5663,-52C1243.5663,-52 1213.5663,-52 1213.5663,-52 1207.5663,-52 1201.5663,-46 1201.5663,-40 1201.5663,-40 1201.5663,-28 1201.5663,-28 1201.5663,-22 1207.5663,-16 1213.5663,-16 1213.5663,-16 1243.5663,-16 1243.5663,-16 1249.5663,-16 1255.5663,-22 1255.5663,-28 1255.5663,-28 1255.5663,-40 1255.5663,-40 1255.5663,-46 1249.5663,-52 1243.5663,-52"></path><text text-anchor="middle" x="1228.5663" y="-29.8" font-family="Arial" font-size="14.00" fill="#000000">世界</text></g><!-- 三井住友カード:visa line payカード&#45;&gt;世界 --><g id="edge-3" class="edge"><title>三井住友カード:visa line payカード-&gt;世界</title><path fill="none" stroke="#333333" stroke-width="2" stroke-opacity="0.600000" d="M979.5663,-100.3997C979.5663,-75.4593 979.5663,-34 979.5663,-34 979.5663,-34 1191.4449,-34 1191.4449,-34"></path><polygon fill="#333333" fill-opacity="0.600000" stroke="#333333" stroke-width="2" stroke-opacity="0.600000" points="1191.445,-37.5001 1201.4449,-34 1191.4449,-30.5001 1191.445,-37.5001"></polygon></g><!-- セゾンカード:amex(家族)&#45;&gt;世界 --><g id="edge-15" class="edge"><title>セゾンカード:amex(家族)-&gt;世界</title><path fill="none" stroke="#333333" stroke-width="2" stroke-opacity="0.600000" d="M1221.8613,-185.4498C1221.8613,-185.4498 1221.8613,-62.0197 1221.8613,-62.0197"></path><polygon fill="#333333" fill-opacity="0.600000" stroke="#333333" stroke-width="2" stroke-opacity="0.600000" points="1225.3614,-62.0196 1221.8613,-52.0197 1218.3614,-62.0197 1225.3614,-62.0196"></polygon></g><!-- ららぽーとなど --><g id="node21" class="node"><title>ららぽーとなど</title><path fill="none" stroke="#000000" stroke-width="2" d="M1437.9483,-136.8C1437.9483,-136.8 1331.1843,-136.8 1331.1843,-136.8 1325.1843,-136.8 1319.1843,-130.8 1319.1843,-124.8 1319.1843,-124.8 1319.1843,-112.8 1319.1843,-112.8 1319.1843,-106.8 1325.1843,-100.8 1331.1843,-100.8 1331.1843,-100.8 1437.9483,-100.8 1437.9483,-100.8 1443.9483,-100.8 1449.9483,-106.8 1449.9483,-112.8 1449.9483,-112.8 1449.9483,-124.8 1449.9483,-124.8 1449.9483,-130.8 1443.9483,-136.8 1437.9483,-136.8"></path><text text-anchor="middle" x="1384.5663" y="-114.6" font-family="Arial" font-size="14.00" fill="#000000">ららぽーとなど</text></g><!-- セゾンカード:三井カード&#45;&gt;ららぽーとなど --><g id="edge-17" class="edge"><title>セゾンカード:三井カード-&gt;ららぽーとなど</title><path fill="none" stroke="#333333" stroke-width="2" stroke-opacity="0.600000" d="M1116.4317,-185.4462C1116.4317,-178.857 1116.4317,-173 1116.4317,-173 1116.4317,-173 1384.5663,-173 1384.5663,-173 1384.5663,-173 1384.5663,-146.8478 1384.5663,-146.8478"></path><polygon fill="#333333" fill-opacity="0.600000" stroke="#333333" stroke-width="2" stroke-opacity="0.600000" points="1388.0664,-146.8478 1384.5663,-136.8478 1381.0664,-146.8479 1388.0664,-146.8478"></polygon></g><!-- イトーヨーカドー --><g id="node22" class="node"><title>イトーヨーカドー</title><path fill="none" stroke="#000000" stroke-width="2" d="M680.8031,-52C680.8031,-52 548.3295,-52 548.3295,-52 542.3295,-52 536.3295,-46 536.3295,-40 536.3295,-40 536.3295,-28 536.3295,-28 536.3295,-22 542.3295,-16 548.3295,-16 548.3295,-16 680.8031,-16 680.8031,-16 686.8031,-16 692.8031,-22 692.8031,-28 692.8031,-28 692.8031,-40 692.8031,-40 692.8031,-46 686.8031,-52 680.8031,-52"></path><text text-anchor="middle" x="614.5663" y="-29.8" font-family="Arial" font-size="14.00" fill="#000000">イトーヨーカドー</text></g><!-- セブンカード:セブンカード(家族)&#45;&gt;イトーヨーカドー --><g id="edge-19" class="edge"><title>セブンカード:セブンカード(家族)-&gt;イトーヨーカドー</title><path fill="none" stroke="#333333" stroke-width="2" stroke-opacity="0.600000" d="M614.5663,-100.3997C614.5663,-100.3997 614.5663,-62.0731 614.5663,-62.0731"></path><polygon fill="#333333" fill-opacity="0.600000" stroke="#333333" stroke-width="2" stroke-opacity="0.600000" points="618.0664,-62.0731 614.5663,-52.0731 611.0664,-62.0731 618.0664,-62.0731"></polygon></g><!-- 会社 --><g id="node16" class="node"><title>会社</title><path fill="none" stroke="#000000" stroke-width="2" d="M872.5663,-383.2C872.5663,-383.2 842.5663,-383.2 842.5663,-383.2 836.5663,-383.2 830.5663,-377.2 830.5663,-371.2 830.5663,-371.2 830.5663,-359.2 830.5663,-359.2 830.5663,-353.2 836.5663,-347.2 842.5663,-347.2 842.5663,-347.2 872.5663,-347.2 872.5663,-347.2 878.5663,-347.2 884.5663,-353.2 884.5663,-359.2 884.5663,-359.2 884.5663,-371.2 884.5663,-371.2 884.5663,-377.2 878.5663,-383.2 872.5663,-383.2"></path><text text-anchor="middle" x="857.5663" y="-361" font-family="Arial" font-size="14.00" fill="#000000">会社</text></g><!-- 会社&#45;&gt;gmoあおぞらネット銀行:普通口座 --><g id="edge-0" class="edge"><title>会社-&gt;gmoあおぞらネット銀行:普通口座</title><path fill="none" stroke="#333333" stroke-width="2" stroke-opacity="0.600000" d="M857.5663,-346.9995C857.5663,-346.9995 857.5663,-316.4699 857.5663,-316.4699"></path><polygon fill="#333333" fill-opacity="0.600000" stroke="#333333" stroke-width="2" stroke-opacity="0.600000" points="861.0664,-316.4698 857.5663,-306.4699 854.0664,-316.4699 861.0664,-316.4698"></polygon></g></g></svg>