<?xml version="1.0" encoding="UTF-8" standalone="no"?><!-- Generated by graphviz version 2.40.1 (20161225.0304)
 --><!-- Title: ndiag Pages: 1 --><svg width="1835pt" height="391pt" viewBox="0.00 0.00 1834.58 391.20" xmlns="http://www.w3.org/2000/svg" xmlns:xlink="http://www.w3.org/1999/xlink"><g id="graph0" class="graph" transform="scale(1 1) rotate(0) translate(4 387.2)"><title>ndiag</title><polygon fill="#ffffff" stroke="transparent" points="-4,4 -4,-387.2 1830.5766,-387.2 1830.5766,4 -4,4"></polygon><g id="clust12" class="cluster"><title>cluster_千葉銀行</title><polygon fill="none" stroke="#000000" stroke-width="2" points="1711,-177.6 1711,-254.4 1809,-254.4 1809,-177.6 1711,-177.6"></polygon><text text-anchor="middle" x="1760" y="-237.8" font-family="Arial" font-size="14.00" fill="#000000">千葉銀行</text></g><g id="clust11" class="cluster"><title>cluster_イオン銀行</title><polygon fill="none" stroke="#000000" stroke-width="2" points="1442,-177.6 1442,-254.4 1678,-254.4 1678,-177.6 1442,-177.6"></polygon><text text-anchor="middle" x="1560" y="-237.8" font-family="Arial" font-size="14.00" fill="#000000">イオン銀行</text></g><g id="clust10" class="cluster"><title>cluster_県民共済</title><polygon fill="none" stroke="#000000" stroke-width="2" points="724,-92.8 724,-169.6 794,-169.6 794,-92.8 724,-92.8"></polygon><text text-anchor="middle" x="759" y="-153" font-family="Arial" font-size="14.00" fill="#000000">県民共済</text></g><g id="clust9" class="cluster"><title>cluster_プルデンシャル生命</title><polygon fill="none" stroke="#000000" stroke-width="2" points="560,-92.8 560,-169.6 716,-169.6 716,-92.8 560,-92.8"></polygon><text text-anchor="middle" x="638" y="-153" font-family="Arial" font-size="14.00" fill="#000000">プルデンシャル生命</text></g><g id="clust8" class="cluster"><title>cluster_セブンカード</title><polygon fill="none" stroke="#000000" stroke-width="2" points="382,-92.8 382,-169.6 552,-169.6 552,-92.8 382,-92.8"></polygon><text text-anchor="middle" x="467" y="-153" font-family="Arial" font-size="14.00" fill="#000000">セブンカード</text></g><g id="clust7" class="cluster"><title>cluster_セゾンカード</title><polygon fill="none" stroke="#000000" stroke-width="2" points="1216,-177.6 1216,-254.4 1434,-254.4 1434,-177.6 1216,-177.6"></polygon><text text-anchor="middle" x="1325" y="-237.8" font-family="Arial" font-size="14.00" fill="#000000">セゾンカード</text></g><g id="clust6" class="cluster"><title>cluster_三井住友カード</title><polygon fill="none" stroke="#000000" stroke-width="2" points="974,-92.8 974,-169.6 1334,-169.6 1334,-92.8 974,-92.8"></polygon><text text-anchor="middle" x="1154" y="-153" font-family="Arial" font-size="14.00" fill="#000000">三井住友カード</text></g><g id="clust5" class="cluster"><title>cluster_楽天証券</title><polygon fill="none" stroke="#000000" stroke-width="2" points="8,-8 8,-84.8 200,-84.8 200,-8 8,-8"></polygon><text text-anchor="middle" x="104" y="-68.2" font-family="Arial" font-size="14.00" fill="#000000">楽天証券</text></g><g id="clust4" class="cluster"><title>cluster_住信SBIネット銀行</title><polygon fill="none" stroke="#000000" stroke-width="2" points="223,-92.8 223,-254.4 374,-254.4 374,-92.8 223,-92.8"></polygon><text text-anchor="middle" x="298.5" y="-237.8" font-family="Arial" font-size="14.00" fill="#000000">住信SBIネット銀行</text></g><g id="clust3" class="cluster"><title>cluster_楽天銀行</title><polygon fill="none" stroke="#000000" stroke-width="2" points="95,-92.8 95,-254.4 215,-254.4 215,-92.8 95,-92.8"></polygon><text text-anchor="middle" x="155" y="-237.8" font-family="Arial" font-size="14.00" fill="#000000">楽天銀行</text></g><g id="clust2" class="cluster"><title>cluster_三菱UFJ銀行</title><polygon fill="none" stroke="#000000" stroke-width="2" points="831,-177.6 831,-254.4 938,-254.4 938,-177.6 831,-177.6"></polygon><text text-anchor="middle" x="884.5" y="-237.8" font-family="Arial" font-size="14.00" fill="#000000">三菱UFJ銀行</text></g><g id="clust1" class="cluster"><title>cluster_GMOあおぞらネット銀行</title><polygon fill="none" stroke="#000000" stroke-width="2" points="1183,-262.4 1183,-339.2 1358,-339.2 1358,-262.4 1183,-262.4"></polygon><text text-anchor="middle" x="1270.5" y="-322.6" font-family="Arial" font-size="14.00" fill="#000000">GMOあおぞらネット銀行</text></g><!-- gmoあおぞらネット銀行:普通口座 --><g id="node1" class="node"><title>gmoあおぞらネット銀行:普通口座</title><path fill="#ffffff" stroke="#4b75b9" stroke-width="3" d="M1298.8514,-306.4C1298.8514,-306.4 1241.1486,-306.4 1241.1486,-306.4 1235.1486,-306.4 1229.1486,-300.4 1229.1486,-294.4 1229.1486,-294.4 1229.1486,-282.4 1229.1486,-282.4 1229.1486,-276.4 1235.1486,-270.4 1241.1486,-270.4 1241.1486,-270.4 1298.8514,-270.4 1298.8514,-270.4 1304.8514,-270.4 1310.8514,-276.4 1310.8514,-282.4 1310.8514,-282.4 1310.8514,-294.4 1310.8514,-294.4 1310.8514,-300.4 1304.8514,-306.4 1298.8514,-306.4"></path><text text-anchor="middle" x="1270" y="-284.2" font-family="Arial" font-size="14.00" fill="#333333">普通口座</text></g><!-- 三菱ufj銀行:普通口座 --><g id="node2" class="node"><title>三菱ufj銀行:普通口座</title><path fill="#ffffff" stroke="#4b75b9" stroke-width="3" d="M912.8514,-221.6C912.8514,-221.6 855.1486,-221.6 855.1486,-221.6 849.1486,-221.6 843.1486,-215.6 843.1486,-209.6 843.1486,-209.6 843.1486,-197.6 843.1486,-197.6 843.1486,-191.6 849.1486,-185.6 855.1486,-185.6 855.1486,-185.6 912.8514,-185.6 912.8514,-185.6 918.8514,-185.6 924.8514,-191.6 924.8514,-197.6 924.8514,-197.6 924.8514,-209.6 924.8514,-209.6 924.8514,-215.6 918.8514,-221.6 912.8514,-221.6"></path><text text-anchor="middle" x="884" y="-199.4" font-family="Arial" font-size="14.00" fill="#333333">普通口座</text></g><!-- gmoあおぞらネット銀行:普通口座&#45;&gt;三菱ufj銀行:普通口座 --><g id="edge-1" class="edge"><title>gmoあおぞらネット銀行:普通口座-&gt;三菱ufj銀行:普通口座</title><path fill="none" stroke="#333333" stroke-width="2" stroke-opacity="0.600000" d="M1229.0567,-279C1129.7149,-279 884,-279 884,-279 884,-279 884,-231.8522 884,-231.8522"></path><polygon fill="#333333" fill-opacity="0.600000" stroke="#333333" stroke-width="2" stroke-opacity="0.600000" points="887.5001,-231.8522 884,-221.8522 880.5001,-231.8523 887.5001,-231.8522"></polygon></g><!-- 楽天銀行:普通口座 --><g id="node3" class="node"><title>楽天銀行:普通口座</title><path fill="#ffffff" stroke="#4b75b9" stroke-width="3" d="M188.8514,-221.6C188.8514,-221.6 131.1486,-221.6 131.1486,-221.6 125.1486,-221.6 119.1486,-215.6 119.1486,-209.6 119.1486,-209.6 119.1486,-197.6 119.1486,-197.6 119.1486,-191.6 125.1486,-185.6 131.1486,-185.6 131.1486,-185.6 188.8514,-185.6 188.8514,-185.6 194.8514,-185.6 200.8514,-191.6 200.8514,-197.6 200.8514,-197.6 200.8514,-209.6 200.8514,-209.6 200.8514,-215.6 194.8514,-221.6 188.8514,-221.6"></path><text text-anchor="middle" x="160" y="-199.4" font-family="Arial" font-size="14.00" fill="#333333">普通口座</text></g><!-- gmoあおぞらネット銀行:普通口座&#45;&gt;楽天銀行:普通口座 --><g id="edge-4" class="edge"><title>gmoあおぞらネット銀行:普通口座-&gt;楽天銀行:普通口座</title><path fill="none" stroke="#333333" stroke-width="2" stroke-opacity="0.600000" d="M1229.1781,-297C1028.9193,-297 160,-297 160,-297 160,-297 160,-231.6085 160,-231.6085"></path><polygon fill="#333333" fill-opacity="0.600000" stroke="#333333" stroke-width="2" stroke-opacity="0.600000" points="163.5001,-231.6084 160,-221.6085 156.5001,-231.6085 163.5001,-231.6084"></polygon></g><!-- 住信sbiネット銀行:普通口座 --><g id="node5" class="node"><title>住信sbiネット銀行:普通口座</title><path fill="#ffffff" stroke="#4b75b9" stroke-width="3" d="M347.8514,-221.6C347.8514,-221.6 290.1486,-221.6 290.1486,-221.6 284.1486,-221.6 278.1486,-215.6 278.1486,-209.6 278.1486,-209.6 278.1486,-197.6 278.1486,-197.6 278.1486,-191.6 284.1486,-185.6 290.1486,-185.6 290.1486,-185.6 347.8514,-185.6 347.8514,-185.6 353.8514,-185.6 359.8514,-191.6 359.8514,-197.6 359.8514,-197.6 359.8514,-209.6 359.8514,-209.6 359.8514,-215.6 353.8514,-221.6 347.8514,-221.6"></path><text text-anchor="middle" x="319" y="-199.4" font-family="Arial" font-size="14.00" fill="#333333">普通口座</text></g><!-- gmoあおぞらネット銀行:普通口座&#45;&gt;住信sbiネット銀行:普通口座 --><g id="edge-9" class="edge"><title>gmoあおぞらネット銀行:普通口座-&gt;住信sbiネット銀行:普通口座</title><path fill="none" stroke="#333333" stroke-width="2" stroke-opacity="0.600000" d="M1229.1367,-288C1047.1094,-288 319,-288 319,-288 319,-288 319,-231.9135 319,-231.9135"></path><polygon fill="#333333" fill-opacity="0.600000" stroke="#333333" stroke-width="2" stroke-opacity="0.600000" points="322.5001,-231.9135 319,-221.9135 315.5001,-231.9136 322.5001,-231.9135"></polygon></g><!-- セゾンカード:amex(家族) --><g id="node11" class="node"><title>セゾンカード:amex(家族)</title><path fill="#ffffff" stroke="#4b75b9" stroke-width="3" d="M1413.6802,-221.6C1413.6802,-221.6 1346.3198,-221.6 1346.3198,-221.6 1340.3198,-221.6 1334.3198,-215.6 1334.3198,-209.6 1334.3198,-209.6 1334.3198,-197.6 1334.3198,-197.6 1334.3198,-191.6 1340.3198,-185.6 1346.3198,-185.6 1346.3198,-185.6 1413.6802,-185.6 1413.6802,-185.6 1419.6802,-185.6 1425.6802,-191.6 1425.6802,-197.6 1425.6802,-197.6 1425.6802,-209.6 1425.6802,-209.6 1425.6802,-215.6 1419.6802,-221.6 1413.6802,-221.6"></path><text text-anchor="middle" x="1380" y="-199.4" font-family="Arial" font-size="14.00" fill="#333333">Amex(家族)</text></g><!-- gmoあおぞらネット銀行:普通口座&#45;&gt;セゾンカード:amex(家族) --><g id="edge-14" class="edge"><title>gmoあおぞらネット銀行:普通口座-&gt;セゾンカード:amex(家族)</title><path fill="none" stroke="#333333" stroke-width="2" stroke-opacity="0.600000" d="M1310.9599,-279C1342.2345,-279 1380,-279 1380,-279 1380,-279 1380,-231.8522 1380,-231.8522"></path><polygon fill="#333333" fill-opacity="0.600000" stroke="#333333" stroke-width="2" stroke-opacity="0.600000" points="1383.5001,-231.8522 1380,-221.8522 1376.5001,-231.8523 1383.5001,-231.8522"></polygon></g><!-- セゾンカード:三井カード --><g id="node12" class="node"><title>セゾンカード:三井カード</title><path fill="#ffffff" stroke="#4b75b9" stroke-width="3" d="M1304.2106,-221.6C1304.2106,-221.6 1235.7894,-221.6 1235.7894,-221.6 1229.7894,-221.6 1223.7894,-215.6 1223.7894,-209.6 1223.7894,-209.6 1223.7894,-197.6 1223.7894,-197.6 1223.7894,-191.6 1229.7894,-185.6 1235.7894,-185.6 1235.7894,-185.6 1304.2106,-185.6 1304.2106,-185.6 1310.2106,-185.6 1316.2106,-191.6 1316.2106,-197.6 1316.2106,-197.6 1316.2106,-209.6 1316.2106,-209.6 1316.2106,-215.6 1310.2106,-221.6 1304.2106,-221.6"></path><text text-anchor="middle" x="1270" y="-199.4" font-family="Arial" font-size="14.00" fill="#333333">三井カード</text></g><!-- gmoあおぞらネット銀行:普通口座&#45;&gt;セゾンカード:三井カード --><g id="edge-16" class="edge"><title>gmoあおぞらネット銀行:普通口座-&gt;セゾンカード:三井カード</title><path fill="none" stroke="#333333" stroke-width="2" stroke-opacity="0.600000" d="M1270,-269.9997C1270,-269.9997 1270,-231.6731 1270,-231.6731"></path><polygon fill="#333333" fill-opacity="0.600000" stroke="#333333" stroke-width="2" stroke-opacity="0.600000" points="1273.5001,-231.6731 1270,-221.6731 1266.5001,-231.6731 1273.5001,-231.6731"></polygon></g><!-- イオン銀行:普通口座 --><g id="node16" class="node"><title>イオン銀行:普通口座</title><path fill="#ffffff" stroke="#4b75b9" stroke-width="3" d="M1657.8514,-221.6C1657.8514,-221.6 1600.1486,-221.6 1600.1486,-221.6 1594.1486,-221.6 1588.1486,-215.6 1588.1486,-209.6 1588.1486,-209.6 1588.1486,-197.6 1588.1486,-197.6 1588.1486,-191.6 1594.1486,-185.6 1600.1486,-185.6 1600.1486,-185.6 1657.8514,-185.6 1657.8514,-185.6 1663.8514,-185.6 1669.8514,-191.6 1669.8514,-197.6 1669.8514,-197.6 1669.8514,-209.6 1669.8514,-209.6 1669.8514,-215.6 1663.8514,-221.6 1657.8514,-221.6"></path><text text-anchor="middle" x="1629" y="-199.4" font-family="Arial" font-size="14.00" fill="#333333">普通口座</text></g><!-- gmoあおぞらネット銀行:普通口座&#45;&gt;イオン銀行:普通口座 --><g id="edge-22" class="edge"><title>gmoあおぞらネット銀行:普通口座-&gt;イオン銀行:普通口座</title><path fill="none" stroke="#333333" stroke-width="2" stroke-opacity="0.600000" d="M1310.8323,-288C1404.9259,-288 1629,-288 1629,-288 1629,-288 1629,-231.9135 1629,-231.9135"></path><polygon fill="#333333" fill-opacity="0.600000" stroke="#333333" stroke-width="2" stroke-opacity="0.600000" points="1632.5001,-231.9135 1629,-221.9135 1625.5001,-231.9136 1632.5001,-231.9135"></polygon></g><!-- 千葉銀行:普通口座 --><g id="node18" class="node"><title>千葉銀行:普通口座</title><path fill="#ffffff" stroke="#4b75b9" stroke-width="3" d="M1788.8514,-221.6C1788.8514,-221.6 1731.1486,-221.6 1731.1486,-221.6 1725.1486,-221.6 1719.1486,-215.6 1719.1486,-209.6 1719.1486,-209.6 1719.1486,-197.6 1719.1486,-197.6 1719.1486,-191.6 1725.1486,-185.6 1731.1486,-185.6 1731.1486,-185.6 1788.8514,-185.6 1788.8514,-185.6 1794.8514,-185.6 1800.8514,-191.6 1800.8514,-197.6 1800.8514,-197.6 1800.8514,-209.6 1800.8514,-209.6 1800.8514,-215.6 1794.8514,-221.6 1788.8514,-221.6"></path><text text-anchor="middle" x="1760" y="-199.4" font-family="Arial" font-size="14.00" fill="#333333">普通口座</text></g><!-- gmoあおぞらネット銀行:普通口座&#45;&gt;千葉銀行:普通口座 --><g id="edge-25" class="edge"><title>gmoあおぞらネット銀行:普通口座-&gt;千葉銀行:普通口座</title><path fill="none" stroke="#333333" stroke-width="2" stroke-opacity="0.600000" d="M1310.9343,-297C1428.7008,-297 1760,-297 1760,-297 1760,-297 1760,-231.6085 1760,-231.6085"></path><polygon fill="#333333" fill-opacity="0.600000" stroke="#333333" stroke-width="2" stroke-opacity="0.600000" points="1763.5001,-231.6084 1760,-221.6085 1756.5001,-231.6085 1763.5001,-231.6084"></polygon></g><!-- 三井住友カード:amazon masterカード --><g id="node9" class="node"><title>三井住友カード:amazon masterカード</title><path fill="#ffffff" stroke="#4b75b9" stroke-width="3" d="M1136.3934,-136.8C1136.3934,-136.8 993.6066,-136.8 993.6066,-136.8 987.6066,-136.8 981.6066,-130.8 981.6066,-124.8 981.6066,-124.8 981.6066,-112.8 981.6066,-112.8 981.6066,-106.8 987.6066,-100.8 993.6066,-100.8 993.6066,-100.8 1136.3934,-100.8 1136.3934,-100.8 1142.3934,-100.8 1148.3934,-106.8 1148.3934,-112.8 1148.3934,-112.8 1148.3934,-124.8 1148.3934,-124.8 1148.3934,-130.8 1142.3934,-136.8 1136.3934,-136.8"></path><text text-anchor="middle" x="1065" y="-114.6" font-family="Arial" font-size="14.00" fill="#333333">Amazon Masterカード</text></g><!-- 三菱ufj銀行:普通口座&#45;&gt;三井住友カード:amazon masterカード --><g id="edge-12" class="edge"><title>三菱ufj銀行:普通口座-&gt;三井住友カード:amazon masterカード</title><path fill="none" stroke="#333333" stroke-width="2" stroke-opacity="0.600000" d="M925.0717,-197C978.4743,-197 1065,-197 1065,-197 1065,-197 1065,-146.9372 1065,-146.9372"></path><polygon fill="#333333" fill-opacity="0.600000" stroke="#333333" stroke-width="2" stroke-opacity="0.600000" points="1068.5001,-146.9372 1065,-136.9372 1061.5001,-146.9372 1068.5001,-146.9372"></polygon></g><!-- 三井住友カード:visa line payカード --><g id="node10" class="node"><title>三井住友カード:visa line payカード</title><path fill="#ffffff" stroke="#4b75b9" stroke-width="3" d="M1313.6234,-136.8C1313.6234,-136.8 1178.3766,-136.8 1178.3766,-136.8 1172.3766,-136.8 1166.3766,-130.8 1166.3766,-124.8 1166.3766,-124.8 1166.3766,-112.8 1166.3766,-112.8 1166.3766,-106.8 1172.3766,-100.8 1178.3766,-100.8 1178.3766,-100.8 1313.6234,-100.8 1313.6234,-100.8 1319.6234,-100.8 1325.6234,-106.8 1325.6234,-112.8 1325.6234,-112.8 1325.6234,-124.8 1325.6234,-124.8 1325.6234,-130.8 1319.6234,-136.8 1313.6234,-136.8"></path><text text-anchor="middle" x="1246" y="-114.6" font-family="Arial" font-size="14.00" fill="#333333">Visa LINE Payカード</text></g><!-- 三菱ufj銀行:普通口座&#45;&gt;三井住友カード:visa line payカード --><g id="edge-2" class="edge"><title>三菱ufj銀行:普通口座-&gt;三井住友カード:visa line payカード</title><path fill="none" stroke="#333333" stroke-width="2" stroke-opacity="0.600000" d="M924.6796,-209C1009.025,-209 1195.1666,-209 1195.1666,-209 1195.1666,-209 1195.1666,-147.0533 1195.1666,-147.0533"></path><polygon fill="#333333" fill-opacity="0.600000" stroke="#333333" stroke-width="2" stroke-opacity="0.600000" points="1198.6666,-147.0533 1195.1666,-137.0533 1191.6666,-147.0534 1198.6666,-147.0533"></polygon></g><!-- セブンカード:セブンカード(家族) --><g id="node13" class="node"><title>セブンカード:セブンカード(家族)</title><path fill="#ffffff" stroke="#4b75b9" stroke-width="3" d="M532.4444,-136.8C532.4444,-136.8 401.5556,-136.8 401.5556,-136.8 395.5556,-136.8 389.5556,-130.8 389.5556,-124.8 389.5556,-124.8 389.5556,-112.8 389.5556,-112.8 389.5556,-106.8 395.5556,-100.8 401.5556,-100.8 401.5556,-100.8 532.4444,-100.8 532.4444,-100.8 538.4444,-100.8 544.4444,-106.8 544.4444,-112.8 544.4444,-112.8 544.4444,-124.8 544.4444,-124.8 544.4444,-130.8 538.4444,-136.8 532.4444,-136.8"></path><text text-anchor="middle" x="467" y="-114.6" font-family="Arial" font-size="14.00" fill="#333333">セブンカード(家族)</text></g><!-- 三菱ufj銀行:普通口座&#45;&gt;セブンカード:セブンカード(家族) --><g id="edge-18" class="edge"><title>三菱ufj銀行:普通口座-&gt;セブンカード:セブンカード(家族)</title><path fill="none" stroke="#333333" stroke-width="2" stroke-opacity="0.600000" d="M843.257,-212C738.329,-212 467,-212 467,-212 467,-212 467,-147.2133 467,-147.2133"></path><polygon fill="#333333" fill-opacity="0.600000" stroke="#333333" stroke-width="2" stroke-opacity="0.600000" points="470.5001,-147.2133 467,-137.2133 463.5001,-147.2134 470.5001,-147.2133"></polygon></g><!-- プルデンシャル生命:生命保険 --><g id="node14" class="node"><title>プルデンシャル生命:生命保険</title><path fill="#ffffff" stroke="#4b75b9" stroke-width="3" d="M695.7289,-136.8C695.7289,-136.8 634.2711,-136.8 634.2711,-136.8 628.2711,-136.8 622.2711,-130.8 622.2711,-124.8 622.2711,-124.8 622.2711,-112.8 622.2711,-112.8 622.2711,-106.8 628.2711,-100.8 634.2711,-100.8 634.2711,-100.8 695.7289,-100.8 695.7289,-100.8 701.7289,-100.8 707.7289,-106.8 707.7289,-112.8 707.7289,-112.8 707.7289,-124.8 707.7289,-124.8 707.7289,-130.8 701.7289,-136.8 695.7289,-136.8"></path><text text-anchor="middle" x="665" y="-114.6" font-family="Arial" font-size="14.00" fill="#333333">生命保険</text></g><!-- 三菱ufj銀行:普通口座&#45;&gt;プルデンシャル生命:生命保険 --><g id="edge-20" class="edge"><title>三菱ufj銀行:普通口座-&gt;プルデンシャル生命:生命保険</title><path fill="none" stroke="#333333" stroke-width="2" stroke-opacity="0.600000" d="M843.321,-203C779.9879,-203 665,-203 665,-203 665,-203 665,-147.0701 665,-147.0701"></path><polygon fill="#333333" fill-opacity="0.600000" stroke="#333333" stroke-width="2" stroke-opacity="0.600000" points="668.5001,-147.0701 665,-137.0701 661.5001,-147.0702 668.5001,-147.0701"></polygon></g><!-- 県民共済:保険 --><g id="node15" class="node"><title>県民共済:保険</title><path fill="#ffffff" stroke="#4b75b9" stroke-width="3" d="M774,-136.8C774,-136.8 744,-136.8 744,-136.8 738,-136.8 732,-130.8 732,-124.8 732,-124.8 732,-112.8 732,-112.8 732,-106.8 738,-100.8 744,-100.8 744,-100.8 774,-100.8 774,-100.8 780,-100.8 786,-106.8 786,-112.8 786,-112.8 786,-124.8 786,-124.8 786,-130.8 780,-136.8 774,-136.8"></path><text text-anchor="middle" x="759" y="-114.6" font-family="Arial" font-size="14.00" fill="#333333">保険</text></g><!-- 三菱ufj銀行:普通口座&#45;&gt;県民共済:保険 --><g id="edge-21" class="edge"><title>三菱ufj銀行:普通口座-&gt;県民共済:保険</title><path fill="none" stroke="#333333" stroke-width="2" stroke-opacity="0.600000" d="M843.0703,-194C806.6151,-194 759,-194 759,-194 759,-194 759,-147.0038 759,-147.0038"></path><polygon fill="#333333" fill-opacity="0.600000" stroke="#333333" stroke-width="2" stroke-opacity="0.600000" points="762.5001,-147.0038 759,-137.0038 755.5001,-147.0039 762.5001,-147.0038"></polygon></g><!-- 管理費・修繕積立金 --><g id="node22" class="node"><title>管理費・修繕積立金</title><path fill="none" stroke="#000000" stroke-width="2" d="M951.997,-136.8C951.997,-136.8 816.003,-136.8 816.003,-136.8 810.003,-136.8 804.003,-130.8 804.003,-124.8 804.003,-124.8 804.003,-112.8 804.003,-112.8 804.003,-106.8 810.003,-100.8 816.003,-100.8 816.003,-100.8 951.997,-100.8 951.997,-100.8 957.997,-100.8 963.997,-106.8 963.997,-112.8 963.997,-112.8 963.997,-124.8 963.997,-124.8 963.997,-130.8 957.997,-136.8 951.997,-136.8"></path><text text-anchor="middle" x="884" y="-114.6" font-family="Arial" font-size="14.00" fill="#000000">管理費・修繕積立金</text></g><!-- 三菱ufj銀行:普通口座&#45;&gt;管理費・修繕積立金 --><g id="edge-11" class="edge"><title>三菱ufj銀行:普通口座-&gt;管理費・修繕積立金</title><path fill="none" stroke="#333333" stroke-width="2" stroke-opacity="0.600000" d="M884,-185.1997C884,-185.1997 884,-146.8731 884,-146.8731"></path><polygon fill="#333333" fill-opacity="0.600000" stroke="#333333" stroke-width="2" stroke-opacity="0.600000" points="887.5001,-146.8731 884,-136.8731 880.5001,-146.8731 887.5001,-146.8731"></polygon></g><!-- 楽天銀行:楽天カード --><g id="node4" class="node"><title>楽天銀行:楽天カード</title><path fill="#ffffff" stroke="#4b75b9" stroke-width="3" d="M194.9548,-136.8C194.9548,-136.8 115.0452,-136.8 115.0452,-136.8 109.0452,-136.8 103.0452,-130.8 103.0452,-124.8 103.0452,-124.8 103.0452,-112.8 103.0452,-112.8 103.0452,-106.8 109.0452,-100.8 115.0452,-100.8 115.0452,-100.8 194.9548,-100.8 194.9548,-100.8 200.9548,-100.8 206.9548,-106.8 206.9548,-112.8 206.9548,-112.8 206.9548,-124.8 206.9548,-124.8 206.9548,-130.8 200.9548,-136.8 194.9548,-136.8"></path><text text-anchor="middle" x="155" y="-114.6" font-family="Arial" font-size="14.00" fill="#333333">楽天カード</text></g><!-- 楽天銀行:普通口座&#45;&gt;楽天銀行:楽天カード --><g id="edge-5" class="edge"><title>楽天銀行:普通口座-&gt;楽天銀行:楽天カード</title><path fill="none" stroke="#333333" stroke-width="2" stroke-opacity="0.600000" d="M160,-185.1997C160,-185.1997 160,-146.8731 160,-146.8731"></path><polygon fill="#333333" fill-opacity="0.600000" stroke="#333333" stroke-width="2" stroke-opacity="0.600000" points="163.5001,-146.8731 160,-136.8731 156.5001,-146.8731 163.5001,-146.8731"></polygon></g><!-- 楽天証券:積立nisa --><g id="node7" class="node"><title>楽天証券:積立nisa</title><path fill="#ffffff" stroke="#4b75b9" stroke-width="3" d="M180.1886,-52C180.1886,-52 129.8114,-52 129.8114,-52 123.8114,-52 117.8114,-46 117.8114,-40 117.8114,-40 117.8114,-28 117.8114,-28 117.8114,-22 123.8114,-16 129.8114,-16 129.8114,-16 180.1886,-16 180.1886,-16 186.1886,-16 192.1886,-22 192.1886,-28 192.1886,-28 192.1886,-40 192.1886,-40 192.1886,-46 186.1886,-52 180.1886,-52"></path><text text-anchor="middle" x="155" y="-29.8" font-family="Arial" font-size="14.00" fill="#333333">積立NISA</text></g><!-- 楽天銀行:楽天カード&#45;&gt;楽天証券:積立nisa --><g id="edge-6" class="edge"><title>楽天銀行:楽天カード-&gt;楽天証券:積立nisa</title><path fill="none" stroke="#333333" stroke-width="2" stroke-opacity="0.600000" d="M155,-100.3997C155,-100.3997 155,-62.0731 155,-62.0731"></path><polygon fill="#333333" fill-opacity="0.600000" stroke="#333333" stroke-width="2" stroke-opacity="0.600000" points="158.5001,-62.0731 155,-52.0731 151.5001,-62.0731 158.5001,-62.0731"></polygon></g><!-- 楽天証券:投資信託 --><g id="node8" class="node"><title>楽天証券:投資信託</title><path fill="#ffffff" stroke="#4b75b9" stroke-width="3" d="M87.6878,-52C87.6878,-52 28.3122,-52 28.3122,-52 22.3122,-52 16.3122,-46 16.3122,-40 16.3122,-40 16.3122,-28 16.3122,-28 16.3122,-22 22.3122,-16 28.3122,-16 28.3122,-16 87.6878,-16 87.6878,-16 93.6878,-16 99.6878,-22 99.6878,-28 99.6878,-28 99.6878,-40 99.6878,-40 99.6878,-46 93.6878,-52 87.6878,-52"></path><text text-anchor="middle" x="58" y="-29.8" font-family="Arial" font-size="14.00" fill="#333333">投資信託</text></g><!-- 楽天銀行:楽天カード&#45;&gt;楽天証券:投資信託 --><g id="edge-7" class="edge"><title>楽天銀行:楽天カード-&gt;楽天証券:投資信託</title><path fill="none" stroke="#333333" stroke-width="2" stroke-opacity="0.600000" d="M110.4646,-100.3997C110.4646,-75.4593 110.4646,-34 110.4646,-34 110.4646,-34 109.4029,-34 109.4029,-34"></path><polygon fill="#333333" fill-opacity="0.600000" stroke="#333333" stroke-width="2" stroke-opacity="0.600000" points="109.8476,-30.5001 99.8476,-34 109.8475,-37.5001 109.8476,-30.5001"></polygon></g><!-- 楽天市場 --><g id="node21" class="node"><title>楽天市場</title><path fill="none" stroke="#000000" stroke-width="2" d="M271.6327,-52C271.6327,-52 222.3673,-52 222.3673,-52 216.3673,-52 210.3673,-46 210.3673,-40 210.3673,-40 210.3673,-28 210.3673,-28 210.3673,-22 216.3673,-16 222.3673,-16 222.3673,-16 271.6327,-16 271.6327,-16 277.6327,-16 283.6327,-22 283.6327,-28 283.6327,-28 283.6327,-40 283.6327,-40 283.6327,-46 277.6327,-52 271.6327,-52"></path><text text-anchor="middle" x="247" y="-29.8" font-family="Arial" font-size="14.00" fill="#000000">楽天市場</text></g><!-- 楽天銀行:楽天カード&#45;&gt;楽天市場 --><g id="edge-8" class="edge"><title>楽天銀行:楽天カード-&gt;楽天市場</title><path fill="none" stroke="#333333" stroke-width="2" stroke-opacity="0.600000" d="M199.5354,-100.3997C199.5354,-75.4593 199.5354,-34 199.5354,-34 199.5354,-34 200.5888,-34 200.5888,-34"></path><polygon fill="#333333" fill-opacity="0.600000" stroke="#333333" stroke-width="2" stroke-opacity="0.600000" points="200.0694,-37.5001 210.0694,-34 200.0693,-30.5001 200.0694,-37.5001"></polygon></g><!-- 住信sbiネット銀行:住宅ローン --><g id="node6" class="node"><title>住信sbiネット銀行:住宅ローン</title><path fill="#ffffff" stroke="#4b75b9" stroke-width="3" d="M354.2134,-136.8C354.2134,-136.8 271.7866,-136.8 271.7866,-136.8 265.7866,-136.8 259.7866,-130.8 259.7866,-124.8 259.7866,-124.8 259.7866,-112.8 259.7866,-112.8 259.7866,-106.8 265.7866,-100.8 271.7866,-100.8 271.7866,-100.8 354.2134,-100.8 354.2134,-100.8 360.2134,-100.8 366.2134,-106.8 366.2134,-112.8 366.2134,-112.8 366.2134,-124.8 366.2134,-124.8 366.2134,-130.8 360.2134,-136.8 354.2134,-136.8"></path><text text-anchor="middle" x="313" y="-114.6" font-family="Arial" font-size="14.00" fill="#333333">住宅ローン</text></g><!-- 住信sbiネット銀行:普通口座&#45;&gt;住信sbiネット銀行:住宅ローン --><g id="edge-10" class="edge"><title>住信sbiネット銀行:普通口座-&gt;住信sbiネット銀行:住宅ローン</title><path fill="none" stroke="#333333" stroke-width="2" stroke-opacity="0.600000" d="M319,-185.1997C319,-185.1997 319,-146.8731 319,-146.8731"></path><polygon fill="#333333" fill-opacity="0.600000" stroke="#333333" stroke-width="2" stroke-opacity="0.600000" points="322.5001,-146.8731 319,-136.8731 315.5001,-146.8731 322.5001,-146.8731"></polygon></g><!-- amazon --><g id="node23" class="node"><title>amazon</title><path fill="none" stroke="#000000" stroke-width="2" d="M1086.8459,-52C1086.8459,-52 1043.1541,-52 1043.1541,-52 1037.1541,-52 1031.1541,-46 1031.1541,-40 1031.1541,-40 1031.1541,-28 1031.1541,-28 1031.1541,-22 1037.1541,-16 1043.1541,-16 1043.1541,-16 1086.8459,-16 1086.8459,-16 1092.8459,-16 1098.8459,-22 1098.8459,-28 1098.8459,-28 1098.8459,-40 1098.8459,-40 1098.8459,-46 1092.8459,-52 1086.8459,-52"></path><text text-anchor="middle" x="1065" y="-29.8" font-family="Arial" font-size="14.00" fill="#000000">Amazon</text></g><!-- 三井住友カード:amazon masterカード&#45;&gt;amazon --><g id="edge-13" class="edge"><title>三井住友カード:amazon masterカード-&gt;amazon</title><path fill="none" stroke="#333333" stroke-width="2" stroke-opacity="0.600000" d="M1065,-100.3997C1065,-100.3997 1065,-62.0731 1065,-62.0731"></path><polygon fill="#333333" fill-opacity="0.600000" stroke="#333333" stroke-width="2" stroke-opacity="0.600000" points="1068.5001,-62.0731 1065,-52.0731 1061.5001,-62.0731 1068.5001,-62.0731"></polygon></g><!-- 世界 --><g id="node20" class="node"><title>世界</title><path fill="none" stroke="#000000" stroke-width="2" d="M1389,-52C1389,-52 1359,-52 1359,-52 1353,-52 1347,-46 1347,-40 1347,-40 1347,-28 1347,-28 1347,-22 1353,-16 1359,-16 1359,-16 1389,-16 1389,-16 1395,-16 1401,-22 1401,-28 1401,-28 1401,-40 1401,-40 1401,-46 1395,-52 1389,-52"></path><text text-anchor="middle" x="1374" y="-29.8" font-family="Arial" font-size="14.00" fill="#000000">世界</text></g><!-- 三井住友カード:visa line payカード&#45;&gt;世界 --><g id="edge-3" class="edge"><title>三井住友カード:visa line payカード-&gt;世界</title><path fill="none" stroke="#333333" stroke-width="2" stroke-opacity="0.600000" d="M1246,-100.4253C1246,-73.8932 1246,-28 1246,-28 1246,-28 1336.8545,-28 1336.8545,-28"></path><polygon fill="#333333" fill-opacity="0.600000" stroke="#333333" stroke-width="2" stroke-opacity="0.600000" points="1336.8545,-31.5001 1346.8545,-28 1336.8545,-24.5001 1336.8545,-31.5001"></polygon></g><!-- セゾンカード:amex(家族)&#45;&gt;世界 --><g id="edge-15" class="edge"><title>セゾンカード:amex(家族)-&gt;世界</title><path fill="none" stroke="#333333" stroke-width="2" stroke-opacity="0.600000" d="M1339.1096,-185.4669C1339.1096,-142.8716 1339.1096,-40 1339.1096,-40 1339.1096,-40 1339.884,-40 1339.884,-40"></path><polygon fill="#333333" fill-opacity="0.600000" stroke="#333333" stroke-width="2" stroke-opacity="0.600000" points="1336.853,-43.5001 1346.8529,-40 1336.8529,-36.5001 1336.853,-43.5001"></polygon></g><!-- ららぽーとなど --><g id="node24" class="node"><title>ららぽーとなど</title><path fill="none" stroke="#000000" stroke-width="2" d="M1462.382,-136.8C1462.382,-136.8 1355.618,-136.8 1355.618,-136.8 1349.618,-136.8 1343.618,-130.8 1343.618,-124.8 1343.618,-124.8 1343.618,-112.8 1343.618,-112.8 1343.618,-106.8 1349.618,-100.8 1355.618,-100.8 1355.618,-100.8 1462.382,-100.8 1462.382,-100.8 1468.382,-100.8 1474.382,-106.8 1474.382,-112.8 1474.382,-112.8 1474.382,-124.8 1474.382,-124.8 1474.382,-130.8 1468.382,-136.8 1462.382,-136.8"></path><text text-anchor="middle" x="1409" y="-114.6" font-family="Arial" font-size="14.00" fill="#000000">ららぽーとなど</text></g><!-- セゾンカード:三井カード&#45;&gt;ららぽーとなど --><g id="edge-17" class="edge"><title>セゾンカード:三井カード-&gt;ららぽーとなど</title><path fill="none" stroke="#333333" stroke-width="2" stroke-opacity="0.600000" d="M1316.3741,-203C1324.2734,-203 1329.9859,-203 1329.9859,-203 1329.9859,-203 1329.9859,-118 1329.9859,-118 1329.9859,-118 1333.7491,-118 1333.7491,-118"></path><polygon fill="#333333" fill-opacity="0.600000" stroke="#333333" stroke-width="2" stroke-opacity="0.600000" points="1333.7491,-121.5001 1343.7491,-118 1333.749,-114.5001 1333.7491,-121.5001"></polygon></g><!-- イトーヨーカドー --><g id="node25" class="node"><title>イトーヨーカドー</title><path fill="none" stroke="#000000" stroke-width="2" d="M533.2368,-52C533.2368,-52 400.7632,-52 400.7632,-52 394.7632,-52 388.7632,-46 388.7632,-40 388.7632,-40 388.7632,-28 388.7632,-28 388.7632,-22 394.7632,-16 400.7632,-16 400.7632,-16 533.2368,-16 533.2368,-16 539.2368,-16 545.2368,-22 545.2368,-28 545.2368,-28 545.2368,-40 545.2368,-40 545.2368,-46 539.2368,-52 533.2368,-52"></path><text text-anchor="middle" x="467" y="-29.8" font-family="Arial" font-size="14.00" fill="#000000">イトーヨーカドー</text></g><!-- セブンカード:セブンカード(家族)&#45;&gt;イトーヨーカドー --><g id="edge-19" class="edge"><title>セブンカード:セブンカード(家族)-&gt;イトーヨーカドー</title><path fill="none" stroke="#333333" stroke-width="2" stroke-opacity="0.600000" d="M467,-100.3997C467,-100.3997 467,-62.0731 467,-62.0731"></path><polygon fill="#333333" fill-opacity="0.600000" stroke="#333333" stroke-width="2" stroke-opacity="0.600000" points="470.5001,-62.0731 467,-52.0731 463.5001,-62.0731 470.5001,-62.0731"></polygon></g><!-- イオン銀行デビットカード --><g id="node26" class="node"><title>イオン銀行デビットカード</title><path fill="none" stroke="#000000" stroke-width="2" d="M1715.7132,-136.8C1715.7132,-136.8 1542.2868,-136.8 1542.2868,-136.8 1536.2868,-136.8 1530.2868,-130.8 1530.2868,-124.8 1530.2868,-124.8 1530.2868,-112.8 1530.2868,-112.8 1530.2868,-106.8 1536.2868,-100.8 1542.2868,-100.8 1542.2868,-100.8 1715.7132,-100.8 1715.7132,-100.8 1721.7132,-100.8 1727.7132,-106.8 1727.7132,-112.8 1727.7132,-112.8 1727.7132,-124.8 1727.7132,-124.8 1727.7132,-130.8 1721.7132,-136.8 1715.7132,-136.8"></path><text text-anchor="middle" x="1629" y="-114.6" font-family="Arial" font-size="14.00" fill="#000000">イオン銀行デビットカード</text></g><!-- イオン銀行:普通口座&#45;&gt;イオン銀行デビットカード --><g id="edge-23" class="edge"><title>イオン銀行:普通口座-&gt;イオン銀行デビットカード</title><path fill="none" stroke="#333333" stroke-width="2" stroke-opacity="0.600000" d="M1629,-185.1997C1629,-185.1997 1629,-146.8731 1629,-146.8731"></path><polygon fill="#333333" fill-opacity="0.600000" stroke="#333333" stroke-width="2" stroke-opacity="0.600000" points="1632.5001,-146.8731 1629,-136.8731 1625.5001,-146.8731 1632.5001,-146.8731"></polygon></g><!-- イオン銀行:デビットカード --><g id="node17" class="node"><title>イオン銀行:デビットカード</title><path fill="#ffffff" stroke="#4b75b9" stroke-width="3" d="M1558.2203,-221.6C1558.2203,-221.6 1461.7797,-221.6 1461.7797,-221.6 1455.7797,-221.6 1449.7797,-215.6 1449.7797,-209.6 1449.7797,-209.6 1449.7797,-197.6 1449.7797,-197.6 1449.7797,-191.6 1455.7797,-185.6 1461.7797,-185.6 1461.7797,-185.6 1558.2203,-185.6 1558.2203,-185.6 1564.2203,-185.6 1570.2203,-191.6 1570.2203,-197.6 1570.2203,-197.6 1570.2203,-209.6 1570.2203,-209.6 1570.2203,-215.6 1564.2203,-221.6 1558.2203,-221.6"></path><text text-anchor="middle" x="1510" y="-199.4" font-family="Arial" font-size="14.00" fill="#333333">デビットカード</text></g><!-- 学費など --><g id="node28" class="node"><title>学費など</title><path fill="none" stroke="#000000" stroke-width="2" d="M1814.6533,-136.8C1814.6533,-136.8 1757.3467,-136.8 1757.3467,-136.8 1751.3467,-136.8 1745.3467,-130.8 1745.3467,-124.8 1745.3467,-124.8 1745.3467,-112.8 1745.3467,-112.8 1745.3467,-106.8 1751.3467,-100.8 1757.3467,-100.8 1757.3467,-100.8 1814.6533,-100.8 1814.6533,-100.8 1820.6533,-100.8 1826.6533,-106.8 1826.6533,-112.8 1826.6533,-112.8 1826.6533,-124.8 1826.6533,-124.8 1826.6533,-130.8 1820.6533,-136.8 1814.6533,-136.8"></path><text text-anchor="middle" x="1786" y="-114.6" font-family="Arial" font-size="14.00" fill="#000000">学費など</text></g><!-- 千葉銀行:普通口座&#45;&gt;学費など --><g id="edge-26" class="edge"><title>千葉銀行:普通口座-&gt;学費など</title><path fill="none" stroke="#333333" stroke-width="2" stroke-opacity="0.600000" d="M1773.0493,-185.1997C1773.0493,-185.1997 1773.0493,-146.8731 1773.0493,-146.8731"></path><polygon fill="#333333" fill-opacity="0.600000" stroke="#333333" stroke-width="2" stroke-opacity="0.600000" points="1776.5494,-146.8731 1773.0493,-136.8731 1769.5494,-146.8731 1776.5494,-146.8731"></polygon></g><!-- 会社 --><g id="node19" class="node"><title>会社</title><path fill="none" stroke="#000000" stroke-width="2" d="M1285,-383.2C1285,-383.2 1255,-383.2 1255,-383.2 1249,-383.2 1243,-377.2 1243,-371.2 1243,-371.2 1243,-359.2 1243,-359.2 1243,-353.2 1249,-347.2 1255,-347.2 1255,-347.2 1285,-347.2 1285,-347.2 1291,-347.2 1297,-353.2 1297,-359.2 1297,-359.2 1297,-371.2 1297,-371.2 1297,-377.2 1291,-383.2 1285,-383.2"></path><text text-anchor="middle" x="1270" y="-361" font-family="Arial" font-size="14.00" fill="#000000">会社</text></g><!-- 会社&#45;&gt;gmoあおぞらネット銀行:普通口座 --><g id="edge-0" class="edge"><title>会社-&gt;gmoあおぞらネット銀行:普通口座</title><path fill="none" stroke="#333333" stroke-width="2" stroke-opacity="0.600000" d="M1270,-346.9995C1270,-346.9995 1270,-316.4699 1270,-316.4699"></path><polygon fill="#333333" fill-opacity="0.600000" stroke="#333333" stroke-width="2" stroke-opacity="0.600000" points="1273.5001,-316.4698 1270,-306.4699 1266.5001,-316.4699 1273.5001,-316.4698"></polygon></g><!-- イオン --><g id="node27" class="node"><title>イオン</title><path fill="none" stroke="#000000" stroke-width="2" d="M1645.9874,-52C1645.9874,-52 1612.0126,-52 1612.0126,-52 1606.0126,-52 1600.0126,-46 1600.0126,-40 1600.0126,-40 1600.0126,-28 1600.0126,-28 1600.0126,-22 1606.0126,-16 1612.0126,-16 1612.0126,-16 1645.9874,-16 1645.9874,-16 1651.9874,-16 1657.9874,-22 1657.9874,-28 1657.9874,-28 1657.9874,-40 1657.9874,-40 1657.9874,-46 1651.9874,-52 1645.9874,-52"></path><text text-anchor="middle" x="1629" y="-29.8" font-family="Arial" font-size="14.00" fill="#000000">イオン</text></g><!-- イオン銀行デビットカード&#45;&gt;イオン --><g id="edge-24" class="edge"><title>イオン銀行デビットカード-&gt;イオン</title><path fill="none" stroke="#333333" stroke-width="2" stroke-opacity="0.600000" d="M1629,-100.3997C1629,-100.3997 1629,-62.0731 1629,-62.0731"></path><polygon fill="#333333" fill-opacity="0.600000" stroke="#333333" stroke-width="2" stroke-opacity="0.600000" points="1632.5001,-62.0731 1629,-52.0731 1625.5001,-62.0731 1632.5001,-62.0731"></polygon></g></g></svg>