<?xml version="1.0" encoding="UTF-8" standalone="no"?><!-- Generated by graphviz version 2.40.1 (20161225.0304)
 --><!-- Title: ndiag Pages: 1 --><svg width="1860pt" height="383pt" viewBox="0.00 0.00 1860.11 383.20" xmlns="http://www.w3.org/2000/svg" xmlns:xlink="http://www.w3.org/1999/xlink"><g id="graph0" class="graph" transform="scale(1 1) rotate(0) translate(4 379.2)"><title>ndiag</title><polygon fill="#ffffff" stroke="transparent" points="-4,4 -4,-379.2 1856.1051,-379.2 1856.1051,4 -4,4"></polygon><g id="clust6" class="cluster"><title>cluster_県民共済</title><polygon fill="none" stroke="#000000" stroke-width="2" points="1612.1066,-92.8 1612.1066,-169.6 1682.1066,-169.6 1682.1066,-92.8 1612.1066,-92.8"></polygon><text text-anchor="middle" x="1647.1066" y="-153" font-family="Arial" font-size="14.00" fill="#000000">県民共済</text></g><g id="clust5" class="cluster"><title>cluster_プルデンシャル生命</title><polygon fill="none" stroke="#000000" stroke-width="2" points="1448.1066,-92.8 1448.1066,-169.6 1604.1066,-169.6 1604.1066,-92.8 1448.1066,-92.8"></polygon><text text-anchor="middle" x="1526.1066" y="-153" font-family="Arial" font-size="14.00" fill="#000000">プルデンシャル生命</text></g><g id="clust4" class="cluster"><title>cluster_クレジットカード</title><polygon fill="none" stroke="#000000" stroke-width="2" points="216.1066,-92.8 216.1066,-169.6 1440.1066,-169.6 1440.1066,-92.8 216.1066,-92.8"></polygon><text text-anchor="middle" x="828.1066" y="-153" font-family="Arial" font-size="14.00" fill="#000000">クレジットカード</text></g><g id="clust3" class="cluster"><title>cluster_楽天証券</title><polygon fill="none" stroke="#000000" stroke-width="2" points="1124.1066,-8 1124.1066,-84.8 1316.1066,-84.8 1316.1066,-8 1124.1066,-8"></polygon><text text-anchor="middle" x="1220.1066" y="-68.2" font-family="Arial" font-size="14.00" fill="#000000">楽天証券</text></g><g id="clust2" class="cluster"><title>cluster_サブバンク</title><polygon fill="none" stroke="#000000" stroke-width="2" points="201.1066,-177.6 201.1066,-254.4 800.1066,-254.4 800.1066,-177.6 201.1066,-177.6"></polygon><text text-anchor="middle" x="500.6066" y="-237.8" font-family="Arial" font-size="14.00" fill="#000000">サブバンク</text></g><g id="clust1" class="cluster"><title>cluster_メインバンク</title><polygon fill="none" stroke="#000000" stroke-width="2" points="810.1066,-177.6 810.1066,-331.2 1002.1066,-331.2 1002.1066,-177.6 810.1066,-177.6"></polygon><text text-anchor="middle" x="906.1066" y="-314.6" font-family="Arial" font-size="14.00" fill="#000000">メインバンク</text></g><!-- メインバンク:gmoあおぞらネット銀行 --><g id="node1" class="node"><title>メインバンク:gmoあおぞらネット銀行</title><path fill="#ffffff" stroke="#4b75b9" stroke-width="3" d="M981.7727,-298.4C981.7727,-298.4 830.4405,-298.4 830.4405,-298.4 824.4405,-298.4 818.4405,-292.4 818.4405,-286.4 818.4405,-286.4 818.4405,-274.4 818.4405,-274.4 818.4405,-268.4 824.4405,-262.4 830.4405,-262.4 830.4405,-262.4 981.7727,-262.4 981.7727,-262.4 987.7727,-262.4 993.7727,-268.4 993.7727,-274.4 993.7727,-274.4 993.7727,-286.4 993.7727,-286.4 993.7727,-292.4 987.7727,-298.4 981.7727,-298.4"></path><text text-anchor="middle" x="906.1066" y="-276.2" font-family="Arial" font-size="14.00" fill="#333333">GMOあおぞらネット銀行</text></g><!-- メインバンク:三菱ufj銀行 --><g id="node2" class="node"><title>メインバンク:三菱ufj銀行</title><path fill="#ffffff" stroke="#4b75b9" stroke-width="3" d="M981.615,-221.6C981.615,-221.6 898.5982,-221.6 898.5982,-221.6 892.5982,-221.6 886.5982,-215.6 886.5982,-209.6 886.5982,-209.6 886.5982,-197.6 886.5982,-197.6 886.5982,-191.6 892.5982,-185.6 898.5982,-185.6 898.5982,-185.6 981.615,-185.6 981.615,-185.6 987.615,-185.6 993.615,-191.6 993.615,-197.6 993.615,-197.6 993.615,-209.6 993.615,-209.6 993.615,-215.6 987.615,-221.6 981.615,-221.6"></path><text text-anchor="middle" x="940.1066" y="-199.4" font-family="Arial" font-size="14.00" fill="#333333">三菱UFJ銀行</text></g><!-- メインバンク:gmoあおぞらネット銀行&#45;&gt;メインバンク:三菱ufj銀行 --><g id="edge-1" class="edge"><title>メインバンク:gmoあおぞらネット銀行-&gt;メインバンク:三菱ufj銀行</title><path fill="none" stroke="#333333" stroke-width="2" stroke-opacity="0.600000" d="M940.1066,-262.1995C940.1066,-262.1995 940.1066,-231.6699 940.1066,-231.6699"></path><polygon fill="#333333" fill-opacity="0.600000" stroke="#333333" stroke-width="2" stroke-opacity="0.600000" points="943.6067,-231.6698 940.1066,-221.6699 936.6067,-231.6699 943.6067,-231.6698"></polygon></g><!-- サブバンク:楽天銀行 --><g id="node3" class="node"><title>サブバンク:楽天銀行</title><path fill="#ffffff" stroke="#4b75b9" stroke-width="3" d="M669.6862,-221.6C669.6862,-221.6 608.527,-221.6 608.527,-221.6 602.527,-221.6 596.527,-215.6 596.527,-209.6 596.527,-209.6 596.527,-197.6 596.527,-197.6 596.527,-191.6 602.527,-185.6 608.527,-185.6 608.527,-185.6 669.6862,-185.6 669.6862,-185.6 675.6862,-185.6 681.6862,-191.6 681.6862,-197.6 681.6862,-197.6 681.6862,-209.6 681.6862,-209.6 681.6862,-215.6 675.6862,-221.6 669.6862,-221.6"></path><text text-anchor="middle" x="639.1066" y="-199.4" font-family="Arial" font-size="14.00" fill="#333333">楽天銀行</text></g><!-- メインバンク:gmoあおぞらネット銀行&#45;&gt;サブバンク:楽天銀行 --><g id="edge-4" class="edge"><title>メインバンク:gmoあおぞらネット銀行-&gt;サブバンク:楽天銀行</title><path fill="none" stroke="#333333" stroke-width="2" stroke-opacity="0.600000" d="M818.311,-268C740.4908,-268 639.1066,-268 639.1066,-268 639.1066,-268 639.1066,-231.8822 639.1066,-231.8822"></path><polygon fill="#333333" fill-opacity="0.600000" stroke="#333333" stroke-width="2" stroke-opacity="0.600000" points="642.6067,-231.8822 639.1066,-221.8822 635.6067,-231.8822 642.6067,-231.8822"></polygon></g><!-- サブバンク:住信sbiネット銀行 --><g id="node4" class="node"><title>サブバンク:住信sbiネット銀行</title><path fill="#ffffff" stroke="#4b75b9" stroke-width="3" d="M469.9408,-221.6C469.9408,-221.6 342.2724,-221.6 342.2724,-221.6 336.2724,-221.6 330.2724,-215.6 330.2724,-209.6 330.2724,-209.6 330.2724,-197.6 330.2724,-197.6 330.2724,-191.6 336.2724,-185.6 342.2724,-185.6 342.2724,-185.6 469.9408,-185.6 469.9408,-185.6 475.9408,-185.6 481.9408,-191.6 481.9408,-197.6 481.9408,-197.6 481.9408,-209.6 481.9408,-209.6 481.9408,-215.6 475.9408,-221.6 469.9408,-221.6"></path><text text-anchor="middle" x="406.1066" y="-199.4" font-family="Arial" font-size="14.00" fill="#333333">住信SBIネット銀行</text></g><!-- メインバンク:gmoあおぞらネット銀行&#45;&gt;サブバンク:住信sbiネット銀行 --><g id="edge-9" class="edge"><title>メインバンク:gmoあおぞらネット銀行-&gt;サブバンク:住信sbiネット銀行</title><path fill="none" stroke="#333333" stroke-width="2" stroke-opacity="0.600000" d="M818.4411,-286C675.0432,-286 406.1066,-286 406.1066,-286 406.1066,-286 406.1066,-231.8872 406.1066,-231.8872"></path><polygon fill="#333333" fill-opacity="0.600000" stroke="#333333" stroke-width="2" stroke-opacity="0.600000" points="409.6067,-231.8872 406.1066,-221.8872 402.6067,-231.8873 409.6067,-231.8872"></polygon></g><!-- サブバンク:千葉銀行 --><g id="node6" class="node"><title>サブバンク:千葉銀行</title><path fill="#ffffff" stroke="#4b75b9" stroke-width="3" d="M566.3482,-221.6C566.3482,-221.6 511.865,-221.6 511.865,-221.6 505.865,-221.6 499.865,-215.6 499.865,-209.6 499.865,-209.6 499.865,-197.6 499.865,-197.6 499.865,-191.6 505.865,-185.6 511.865,-185.6 511.865,-185.6 566.3482,-185.6 566.3482,-185.6 572.3482,-185.6 578.3482,-191.6 578.3482,-197.6 578.3482,-197.6 578.3482,-209.6 578.3482,-209.6 578.3482,-215.6 572.3482,-221.6 566.3482,-221.6"></path><text text-anchor="middle" x="539.1066" y="-199.4" font-family="Arial" font-size="14.00" fill="#333333">千葉銀行</text></g><!-- メインバンク:gmoあおぞらネット銀行&#45;&gt;サブバンク:千葉銀行 --><g id="edge-24" class="edge"><title>メインバンク:gmoあおぞらネット銀行-&gt;サブバンク:千葉銀行</title><path fill="none" stroke="#333333" stroke-width="2" stroke-opacity="0.600000" d="M818.201,-280C709.6273,-280 539.1066,-280 539.1066,-280 539.1066,-280 539.1066,-231.7057 539.1066,-231.7057"></path><polygon fill="#333333" fill-opacity="0.600000" stroke="#333333" stroke-width="2" stroke-opacity="0.600000" points="542.6067,-231.7057 539.1066,-221.7057 535.6067,-231.7058 542.6067,-231.7057"></polygon></g><!-- クレジットカード:セゾンアメックス(家族) --><g id="node12" class="node"><title>クレジットカード:セゾンアメックス(家族)</title><path fill="#ffffff" stroke="#4b75b9" stroke-width="3" d="M636.0111,-136.8C636.0111,-136.8 484.2021,-136.8 484.2021,-136.8 478.2021,-136.8 472.2021,-130.8 472.2021,-124.8 472.2021,-124.8 472.2021,-112.8 472.2021,-112.8 472.2021,-106.8 478.2021,-100.8 484.2021,-100.8 484.2021,-100.8 636.0111,-100.8 636.0111,-100.8 642.0111,-100.8 648.0111,-106.8 648.0111,-112.8 648.0111,-112.8 648.0111,-124.8 648.0111,-124.8 648.0111,-130.8 642.0111,-136.8 636.0111,-136.8"></path><text text-anchor="middle" x="560.1066" y="-114.6" font-family="Arial" font-size="14.00" fill="#333333">セゾンアメックス(家族)</text></g><!-- メインバンク:gmoあおぞらネット銀行&#45;&gt;クレジットカード:セゾンアメックス(家族) --><g id="edge-14" class="edge"><title>メインバンク:gmoあおぞらネット銀行-&gt;クレジットカード:セゾンアメックス(家族)</title><path fill="none" stroke="#333333" stroke-width="2" stroke-opacity="0.600000" d="M818.1397,-274C723.7666,-274 587.2723,-274 587.2723,-274 587.2723,-274 587.2723,-146.9072 587.2723,-146.9072"></path><polygon fill="#333333" fill-opacity="0.600000" stroke="#333333" stroke-width="2" stroke-opacity="0.600000" points="590.7723,-146.9071 587.2723,-136.9072 583.7723,-146.9072 590.7723,-146.9071"></polygon></g><!-- クレジットカード:三井ショッピングパークカード --><g id="node13" class="node"><title>クレジットカード:三井ショッピングパークカード</title><path fill="#ffffff" stroke="#4b75b9" stroke-width="3" d="M442.466,-136.8C442.466,-136.8 235.7472,-136.8 235.7472,-136.8 229.7472,-136.8 223.7472,-130.8 223.7472,-124.8 223.7472,-124.8 223.7472,-112.8 223.7472,-112.8 223.7472,-106.8 229.7472,-100.8 235.7472,-100.8 235.7472,-100.8 442.466,-100.8 442.466,-100.8 448.466,-100.8 454.466,-106.8 454.466,-112.8 454.466,-112.8 454.466,-124.8 454.466,-124.8 454.466,-130.8 448.466,-136.8 442.466,-136.8"></path><text text-anchor="middle" x="339.1066" y="-114.6" font-family="Arial" font-size="14.00" fill="#333333">三井ショッピングパークカード</text></g><!-- メインバンク:gmoあおぞらネット銀行&#45;&gt;クレジットカード:三井ショッピングパークカード --><g id="edge-16" class="edge"><title>メインバンク:gmoあおぞらネット銀行-&gt;クレジットカード:三井ショッピングパークカード</title><path fill="none" stroke="#333333" stroke-width="2" stroke-opacity="0.600000" d="M818.2954,-292C655.144,-292 321.6768,-292 321.6768,-292 321.6768,-292 321.6768,-147.0081 321.6768,-147.0081"></path><polygon fill="#333333" fill-opacity="0.600000" stroke="#333333" stroke-width="2" stroke-opacity="0.600000" points="325.1769,-147.008 321.6768,-137.0081 318.1769,-147.0081 325.1769,-147.008"></polygon></g><!-- クレジットカード:amazon masterカード --><g id="node10" class="node"><title>クレジットカード:amazon masterカード</title><path fill="#ffffff" stroke="#4b75b9" stroke-width="3" d="M997.5,-136.8C997.5,-136.8 854.7132,-136.8 854.7132,-136.8 848.7132,-136.8 842.7132,-130.8 842.7132,-124.8 842.7132,-124.8 842.7132,-112.8 842.7132,-112.8 842.7132,-106.8 848.7132,-100.8 854.7132,-100.8 854.7132,-100.8 997.5,-100.8 997.5,-100.8 1003.5,-100.8 1009.5,-106.8 1009.5,-112.8 1009.5,-112.8 1009.5,-124.8 1009.5,-124.8 1009.5,-130.8 1003.5,-136.8 997.5,-136.8"></path><text text-anchor="middle" x="926.1066" y="-114.6" font-family="Arial" font-size="14.00" fill="#333333">Amazon Masterカード</text></g><!-- メインバンク:三菱ufj銀行&#45;&gt;クレジットカード:amazon masterカード --><g id="edge-12" class="edge"><title>メインバンク:三菱ufj銀行-&gt;クレジットカード:amazon masterカード</title><path fill="none" stroke="#333333" stroke-width="2" stroke-opacity="0.600000" d="M940.1066,-185.1997C940.1066,-185.1997 940.1066,-146.8731 940.1066,-146.8731"></path><polygon fill="#333333" fill-opacity="0.600000" stroke="#333333" stroke-width="2" stroke-opacity="0.600000" points="943.6067,-146.8731 940.1066,-136.8731 936.6067,-146.8731 943.6067,-146.8731"></polygon></g><!-- クレジットカード:visa line payカード --><g id="node11" class="node"><title>クレジットカード:visa line payカード</title><path fill="#ffffff" stroke="#4b75b9" stroke-width="3" d="M812.73,-136.8C812.73,-136.8 677.4832,-136.8 677.4832,-136.8 671.4832,-136.8 665.4832,-130.8 665.4832,-124.8 665.4832,-124.8 665.4832,-112.8 665.4832,-112.8 665.4832,-106.8 671.4832,-100.8 677.4832,-100.8 677.4832,-100.8 812.73,-100.8 812.73,-100.8 818.73,-100.8 824.73,-106.8 824.73,-112.8 824.73,-112.8 824.73,-124.8 824.73,-124.8 824.73,-130.8 818.73,-136.8 812.73,-136.8"></path><text text-anchor="middle" x="745.1066" y="-114.6" font-family="Arial" font-size="14.00" fill="#333333">Visa LINE Payカード</text></g><!-- メインバンク:三菱ufj銀行&#45;&gt;クレジットカード:visa line payカード --><g id="edge-2" class="edge"><title>メインバンク:三菱ufj銀行-&gt;クレジットカード:visa line payカード</title><path fill="none" stroke="#333333" stroke-width="2" stroke-opacity="0.600000" d="M886.545,-203C849.0252,-203 805.5633,-203 805.5633,-203 805.5633,-203 805.5633,-147.0701 805.5633,-147.0701"></path><polygon fill="#333333" fill-opacity="0.600000" stroke="#333333" stroke-width="2" stroke-opacity="0.600000" points="809.0634,-147.0701 805.5633,-137.0701 802.0634,-147.0702 809.0634,-147.0701"></polygon></g><!-- クレジットカード:セブンカード(家族) --><g id="node14" class="node"><title>クレジットカード:セブンカード(家族)</title><path fill="#ffffff" stroke="#4b75b9" stroke-width="3" d="M1170.551,-136.8C1170.551,-136.8 1039.6622,-136.8 1039.6622,-136.8 1033.6622,-136.8 1027.6622,-130.8 1027.6622,-124.8 1027.6622,-124.8 1027.6622,-112.8 1027.6622,-112.8 1027.6622,-106.8 1033.6622,-100.8 1039.6622,-100.8 1039.6622,-100.8 1170.551,-100.8 1170.551,-100.8 1176.551,-100.8 1182.551,-106.8 1182.551,-112.8 1182.551,-112.8 1182.551,-124.8 1182.551,-124.8 1182.551,-130.8 1176.551,-136.8 1170.551,-136.8"></path><text text-anchor="middle" x="1105.1066" y="-114.6" font-family="Arial" font-size="14.00" fill="#333333">セブンカード(家族)</text></g><!-- メインバンク:三菱ufj銀行&#45;&gt;クレジットカード:セブンカード(家族) --><g id="edge-18" class="edge"><title>メインバンク:三菱ufj銀行-&gt;クレジットカード:セブンカード(家族)</title><path fill="none" stroke="#333333" stroke-width="2" stroke-opacity="0.600000" d="M993.9545,-191C1025.3929,-191 1058.9273,-191 1058.9273,-191 1058.9273,-191 1058.9273,-147.0191 1058.9273,-147.0191"></path><polygon fill="#333333" fill-opacity="0.600000" stroke="#333333" stroke-width="2" stroke-opacity="0.600000" points="1062.4274,-147.0191 1058.9273,-137.0191 1055.4274,-147.0191 1062.4274,-147.0191"></polygon></g><!-- プルデンシャル生命:生命保険 --><g id="node17" class="node"><title>プルデンシャル生命:生命保険</title><path fill="#ffffff" stroke="#4b75b9" stroke-width="3" d="M1529.8355,-136.8C1529.8355,-136.8 1468.3777,-136.8 1468.3777,-136.8 1462.3777,-136.8 1456.3777,-130.8 1456.3777,-124.8 1456.3777,-124.8 1456.3777,-112.8 1456.3777,-112.8 1456.3777,-106.8 1462.3777,-100.8 1468.3777,-100.8 1468.3777,-100.8 1529.8355,-100.8 1529.8355,-100.8 1535.8355,-100.8 1541.8355,-106.8 1541.8355,-112.8 1541.8355,-112.8 1541.8355,-124.8 1541.8355,-124.8 1541.8355,-130.8 1535.8355,-136.8 1529.8355,-136.8"></path><text text-anchor="middle" x="1499.1066" y="-114.6" font-family="Arial" font-size="14.00" fill="#333333">生命保険</text></g><!-- メインバンク:三菱ufj銀行&#45;&gt;プルデンシャル生命:生命保険 --><g id="edge-20" class="edge"><title>メインバンク:三菱ufj銀行-&gt;プルデンシャル生命:生命保険</title><path fill="none" stroke="#333333" stroke-width="2" stroke-opacity="0.600000" d="M993.7059,-197C1133.6191,-197 1499.1066,-197 1499.1066,-197 1499.1066,-197 1499.1066,-146.9372 1499.1066,-146.9372"></path><polygon fill="#333333" fill-opacity="0.600000" stroke="#333333" stroke-width="2" stroke-opacity="0.600000" points="1502.6067,-146.9372 1499.1066,-136.9372 1495.6067,-146.9372 1502.6067,-146.9372"></polygon></g><!-- 県民共済:保険 --><g id="node18" class="node"><title>県民共済:保険</title><path fill="#ffffff" stroke="#4b75b9" stroke-width="3" d="M1662.1066,-136.8C1662.1066,-136.8 1632.1066,-136.8 1632.1066,-136.8 1626.1066,-136.8 1620.1066,-130.8 1620.1066,-124.8 1620.1066,-124.8 1620.1066,-112.8 1620.1066,-112.8 1620.1066,-106.8 1626.1066,-100.8 1632.1066,-100.8 1632.1066,-100.8 1662.1066,-100.8 1662.1066,-100.8 1668.1066,-100.8 1674.1066,-106.8 1674.1066,-112.8 1674.1066,-112.8 1674.1066,-124.8 1674.1066,-124.8 1674.1066,-130.8 1668.1066,-136.8 1662.1066,-136.8"></path><text text-anchor="middle" x="1647.1066" y="-114.6" font-family="Arial" font-size="14.00" fill="#333333">保険</text></g><!-- メインバンク:三菱ufj銀行&#45;&gt;県民共済:保険 --><g id="edge-21" class="edge"><title>メインバンク:三菱ufj銀行-&gt;県民共済:保険</title><path fill="none" stroke="#333333" stroke-width="2" stroke-opacity="0.600000" d="M993.8268,-203C1158.8157,-203 1647.1066,-203 1647.1066,-203 1647.1066,-203 1647.1066,-147.0701 1647.1066,-147.0701"></path><polygon fill="#333333" fill-opacity="0.600000" stroke="#333333" stroke-width="2" stroke-opacity="0.600000" points="1650.6067,-147.0701 1647.1066,-137.0701 1643.6067,-147.0702 1650.6067,-147.0701"></polygon></g><!-- 管理費・修繕積立金 --><g id="node23" class="node"><title>管理費・修繕積立金</title><path fill="none" stroke="#000000" stroke-width="2" d="M1840.1036,-136.8C1840.1036,-136.8 1704.1096,-136.8 1704.1096,-136.8 1698.1096,-136.8 1692.1096,-130.8 1692.1096,-124.8 1692.1096,-124.8 1692.1096,-112.8 1692.1096,-112.8 1692.1096,-106.8 1698.1096,-100.8 1704.1096,-100.8 1704.1096,-100.8 1840.1036,-100.8 1840.1036,-100.8 1846.1036,-100.8 1852.1036,-106.8 1852.1036,-112.8 1852.1036,-112.8 1852.1036,-124.8 1852.1036,-124.8 1852.1036,-130.8 1846.1036,-136.8 1840.1036,-136.8"></path><text text-anchor="middle" x="1772.1066" y="-114.6" font-family="Arial" font-size="14.00" fill="#000000">管理費・修繕積立金</text></g><!-- メインバンク:三菱ufj銀行&#45;&gt;管理費・修繕積立金 --><g id="edge-11" class="edge"><title>メインバンク:三菱ufj銀行-&gt;管理費・修繕積立金</title><path fill="none" stroke="#333333" stroke-width="2" stroke-opacity="0.600000" d="M993.7361,-209C1177.7357,-209 1772.1066,-209 1772.1066,-209 1772.1066,-209 1772.1066,-147.0533 1772.1066,-147.0533"></path><polygon fill="#333333" fill-opacity="0.600000" stroke="#333333" stroke-width="2" stroke-opacity="0.600000" points="1775.6067,-147.0533 1772.1066,-137.0533 1768.6067,-147.0534 1775.6067,-147.0533"></polygon></g><!-- クレジットカード:楽天カード --><g id="node15" class="node"><title>クレジットカード:楽天カード</title><path fill="#ffffff" stroke="#4b75b9" stroke-width="3" d="M1292.0614,-136.8C1292.0614,-136.8 1212.1518,-136.8 1212.1518,-136.8 1206.1518,-136.8 1200.1518,-130.8 1200.1518,-124.8 1200.1518,-124.8 1200.1518,-112.8 1200.1518,-112.8 1200.1518,-106.8 1206.1518,-100.8 1212.1518,-100.8 1212.1518,-100.8 1292.0614,-100.8 1292.0614,-100.8 1298.0614,-100.8 1304.0614,-106.8 1304.0614,-112.8 1304.0614,-112.8 1304.0614,-124.8 1304.0614,-124.8 1304.0614,-130.8 1298.0614,-136.8 1292.0614,-136.8"></path><text text-anchor="middle" x="1252.1066" y="-114.6" font-family="Arial" font-size="14.00" fill="#333333">楽天カード</text></g><!-- サブバンク:楽天銀行&#45;&gt;クレジットカード:楽天カード --><g id="edge-5" class="edge"><title>サブバンク:楽天銀行-&gt;クレジットカード:楽天カード</title><path fill="none" stroke="#333333" stroke-width="2" stroke-opacity="0.600000" d="M673.7204,-185.2406C673.7204,-175.696 673.7204,-166 673.7204,-166 673.7204,-166 1252.1066,-166 1252.1066,-166 1252.1066,-166 1252.1066,-146.9138 1252.1066,-146.9138"></path><polygon fill="#333333" fill-opacity="0.600000" stroke="#333333" stroke-width="2" stroke-opacity="0.600000" points="1255.6067,-146.9137 1252.1066,-136.9138 1248.6067,-146.9138 1255.6067,-146.9137"></polygon></g><!-- 住宅ローン --><g id="node22" class="node"><title>住宅ローン</title><path fill="none" stroke="#000000" stroke-width="2" d="M94.32,-136.8C94.32,-136.8 11.8932,-136.8 11.8932,-136.8 5.8932,-136.8 -.1068,-130.8 -.1068,-124.8 -.1068,-124.8 -.1068,-112.8 -.1068,-112.8 -.1068,-106.8 5.8932,-100.8 11.8932,-100.8 11.8932,-100.8 94.32,-100.8 94.32,-100.8 100.32,-100.8 106.32,-106.8 106.32,-112.8 106.32,-112.8 106.32,-124.8 106.32,-124.8 106.32,-130.8 100.32,-136.8 94.32,-136.8"></path><text text-anchor="middle" x="53.1066" y="-114.6" font-family="Arial" font-size="14.00" fill="#000000">住宅ローン</text></g><!-- サブバンク:住信sbiネット銀行&#45;&gt;住宅ローン --><g id="edge-10" class="edge"><title>サブバンク:住信sbiネット銀行-&gt;住宅ローン</title><path fill="none" stroke="#333333" stroke-width="2" stroke-opacity="0.600000" d="M392.488,-185.3327C392.488,-171.9093 392.488,-156 392.488,-156 392.488,-156 53.1066,-156 53.1066,-156 53.1066,-156 53.1066,-146.9641 53.1066,-146.9641"></path><polygon fill="#333333" fill-opacity="0.600000" stroke="#333333" stroke-width="2" stroke-opacity="0.600000" points="56.6067,-146.9641 53.1066,-136.9641 49.6067,-146.9641 56.6067,-146.9641"></polygon></g><!-- サブバンク:イオン銀行 --><g id="node5" class="node"><title>サブバンク:イオン銀行</title><path fill="#ffffff" stroke="#4b75b9" stroke-width="3" d="M780.5996,-221.6C780.5996,-221.6 711.6136,-221.6 711.6136,-221.6 705.6136,-221.6 699.6136,-215.6 699.6136,-209.6 699.6136,-209.6 699.6136,-197.6 699.6136,-197.6 699.6136,-191.6 705.6136,-185.6 711.6136,-185.6 711.6136,-185.6 780.5996,-185.6 780.5996,-185.6 786.5996,-185.6 792.5996,-191.6 792.5996,-197.6 792.5996,-197.6 792.5996,-209.6 792.5996,-209.6 792.5996,-215.6 786.5996,-221.6 780.5996,-221.6"></path><text text-anchor="middle" x="746.1066" y="-199.4" font-family="Arial" font-size="14.00" fill="#333333">イオン銀行</text></g><!-- クレジットカード:イオンカード --><g id="node16" class="node"><title>クレジットカード:イオンカード</title><path fill="#ffffff" stroke="#4b75b9" stroke-width="3" d="M1420.4749,-136.8C1420.4749,-136.8 1333.7383,-136.8 1333.7383,-136.8 1327.7383,-136.8 1321.7383,-130.8 1321.7383,-124.8 1321.7383,-124.8 1321.7383,-112.8 1321.7383,-112.8 1321.7383,-106.8 1327.7383,-100.8 1333.7383,-100.8 1333.7383,-100.8 1420.4749,-100.8 1420.4749,-100.8 1426.4749,-100.8 1432.4749,-106.8 1432.4749,-112.8 1432.4749,-112.8 1432.4749,-124.8 1432.4749,-124.8 1432.4749,-130.8 1426.4749,-136.8 1420.4749,-136.8"></path><text text-anchor="middle" x="1377.1066" y="-114.6" font-family="Arial" font-size="14.00" fill="#333333">イオンカード</text></g><!-- サブバンク:イオン銀行&#45;&gt;クレジットカード:イオンカード --><g id="edge-22" class="edge"><title>サブバンク:イオン銀行-&gt;クレジットカード:イオンカード</title><path fill="none" stroke="#333333" stroke-width="2" stroke-opacity="0.600000" d="M746.1066,-185.3253C746.1066,-179.7201 746.1066,-175 746.1066,-175 746.1066,-175 1377.1066,-175 1377.1066,-175 1377.1066,-175 1377.1066,-146.8914 1377.1066,-146.8914"></path><polygon fill="#333333" fill-opacity="0.600000" stroke="#333333" stroke-width="2" stroke-opacity="0.600000" points="1380.6067,-146.8913 1377.1066,-136.8914 1373.6067,-146.8914 1380.6067,-146.8913"></polygon></g><!-- 学費など --><g id="node28" class="node"><title>学費など</title><path fill="none" stroke="#000000" stroke-width="2" d="M193.7599,-136.8C193.7599,-136.8 136.4533,-136.8 136.4533,-136.8 130.4533,-136.8 124.4533,-130.8 124.4533,-124.8 124.4533,-124.8 124.4533,-112.8 124.4533,-112.8 124.4533,-106.8 130.4533,-100.8 136.4533,-100.8 136.4533,-100.8 193.7599,-100.8 193.7599,-100.8 199.7599,-100.8 205.7599,-106.8 205.7599,-112.8 205.7599,-112.8 205.7599,-124.8 205.7599,-124.8 205.7599,-130.8 199.7599,-136.8 193.7599,-136.8"></path><text text-anchor="middle" x="165.1066" y="-114.6" font-family="Arial" font-size="14.00" fill="#000000">学費など</text></g><!-- サブバンク:千葉銀行&#45;&gt;学費など --><g id="edge-25" class="edge"><title>サブバンク:千葉銀行-&gt;学費など</title><path fill="none" stroke="#333333" stroke-width="2" stroke-opacity="0.600000" d="M539.1066,-185.375C539.1066,-168.5 539.1066,-146 539.1066,-146 539.1066,-146 165.1066,-146 165.1066,-146 165.1066,-146 165.1066,-145.1094 165.1066,-145.1094"></path><polygon fill="#333333" fill-opacity="0.600000" stroke="#333333" stroke-width="2" stroke-opacity="0.600000" points="168.6067,-147.0937 165.1066,-137.0937 161.6067,-147.0937 168.6067,-147.0937"></polygon></g><!-- サブバンク:ゆうちょ銀行 --><g id="node7" class="node"><title>サブバンク:ゆうちょ銀行</title><path fill="#ffffff" stroke="#4b75b9" stroke-width="3" d="M300.7221,-221.6C300.7221,-221.6 221.4911,-221.6 221.4911,-221.6 215.4911,-221.6 209.4911,-215.6 209.4911,-209.6 209.4911,-209.6 209.4911,-197.6 209.4911,-197.6 209.4911,-191.6 215.4911,-185.6 221.4911,-185.6 221.4911,-185.6 300.7221,-185.6 300.7221,-185.6 306.7221,-185.6 312.7221,-191.6 312.7221,-197.6 312.7221,-197.6 312.7221,-209.6 312.7221,-209.6 312.7221,-215.6 306.7221,-221.6 300.7221,-221.6"></path><text text-anchor="middle" x="261.1066" y="-199.4" font-family="Arial" font-size="14.00" fill="#333333">ゆうちょ銀行</text></g><!-- 楽天証券:積立nisa --><g id="node8" class="node"><title>楽天証券:積立nisa</title><path fill="#ffffff" stroke="#4b75b9" stroke-width="3" d="M1296.2952,-52C1296.2952,-52 1245.918,-52 1245.918,-52 1239.918,-52 1233.918,-46 1233.918,-40 1233.918,-40 1233.918,-28 1233.918,-28 1233.918,-22 1239.918,-16 1245.918,-16 1245.918,-16 1296.2952,-16 1296.2952,-16 1302.2952,-16 1308.2952,-22 1308.2952,-28 1308.2952,-28 1308.2952,-40 1308.2952,-40 1308.2952,-46 1302.2952,-52 1296.2952,-52"></path><text text-anchor="middle" x="1271.1066" y="-29.8" font-family="Arial" font-size="14.00" fill="#333333">積立NISA</text></g><!-- 楽天証券:投資信託 --><g id="node9" class="node"><title>楽天証券:投資信託</title><path fill="#ffffff" stroke="#4b75b9" stroke-width="3" d="M1203.7944,-52C1203.7944,-52 1144.4188,-52 1144.4188,-52 1138.4188,-52 1132.4188,-46 1132.4188,-40 1132.4188,-40 1132.4188,-28 1132.4188,-28 1132.4188,-22 1138.4188,-16 1144.4188,-16 1144.4188,-16 1203.7944,-16 1203.7944,-16 1209.7944,-16 1215.7944,-22 1215.7944,-28 1215.7944,-28 1215.7944,-40 1215.7944,-40 1215.7944,-46 1209.7944,-52 1203.7944,-52"></path><text text-anchor="middle" x="1174.1066" y="-29.8" font-family="Arial" font-size="14.00" fill="#333333">投資信託</text></g><!-- amazon --><g id="node24" class="node"><title>amazon</title><path fill="none" stroke="#000000" stroke-width="2" d="M927.9525,-52C927.9525,-52 884.2607,-52 884.2607,-52 878.2607,-52 872.2607,-46 872.2607,-40 872.2607,-40 872.2607,-28 872.2607,-28 872.2607,-22 878.2607,-16 884.2607,-16 884.2607,-16 927.9525,-16 927.9525,-16 933.9525,-16 939.9525,-22 939.9525,-28 939.9525,-28 939.9525,-40 939.9525,-40 939.9525,-46 933.9525,-52 927.9525,-52"></path><text text-anchor="middle" x="906.1066" y="-29.8" font-family="Arial" font-size="14.00" fill="#000000">Amazon</text></g><!-- クレジットカード:amazon masterカード&#45;&gt;amazon --><g id="edge-13" class="edge"><title>クレジットカード:amazon masterカード-&gt;amazon</title><path fill="none" stroke="#333333" stroke-width="2" stroke-opacity="0.600000" d="M906.1066,-100.3997C906.1066,-100.3997 906.1066,-62.0731 906.1066,-62.0731"></path><polygon fill="#333333" fill-opacity="0.600000" stroke="#333333" stroke-width="2" stroke-opacity="0.600000" points="909.6067,-62.0731 906.1066,-52.0731 902.6067,-62.0731 909.6067,-62.0731"></polygon></g><!-- 世界 --><g id="node20" class="node"><title>世界</title><path fill="none" stroke="#000000" stroke-width="2" d="M667.1066,-52C667.1066,-52 637.1066,-52 637.1066,-52 631.1066,-52 625.1066,-46 625.1066,-40 625.1066,-40 625.1066,-28 625.1066,-28 625.1066,-22 631.1066,-16 637.1066,-16 637.1066,-16 667.1066,-16 667.1066,-16 673.1066,-16 679.1066,-22 679.1066,-28 679.1066,-28 679.1066,-40 679.1066,-40 679.1066,-46 673.1066,-52 667.1066,-52"></path><text text-anchor="middle" x="652.1066" y="-29.8" font-family="Arial" font-size="14.00" fill="#000000">世界</text></g><!-- クレジットカード:visa line payカード&#45;&gt;世界 --><g id="edge-3" class="edge"><title>クレジットカード:visa line payカード-&gt;世界</title><path fill="none" stroke="#333333" stroke-width="2" stroke-opacity="0.600000" d="M672.3258,-100.3997C672.3258,-100.3997 672.3258,-62.0731 672.3258,-62.0731"></path><polygon fill="#333333" fill-opacity="0.600000" stroke="#333333" stroke-width="2" stroke-opacity="0.600000" points="675.8258,-62.0731 672.3258,-52.0731 668.8258,-62.0731 675.8258,-62.0731"></polygon></g><!-- クレジットカード:セゾンアメックス(家族)&#45;&gt;世界 --><g id="edge-15" class="edge"><title>クレジットカード:セゾンアメックス(家族)-&gt;世界</title><path fill="none" stroke="#333333" stroke-width="2" stroke-opacity="0.600000" d="M636.4576,-100.3997C636.4576,-100.3997 636.4576,-62.0731 636.4576,-62.0731"></path><polygon fill="#333333" fill-opacity="0.600000" stroke="#333333" stroke-width="2" stroke-opacity="0.600000" points="639.9577,-62.0731 636.4576,-52.0731 632.9577,-62.0731 639.9577,-62.0731"></polygon></g><!-- ららぽーとなど --><g id="node25" class="node"><title>ららぽーとなど</title><path fill="none" stroke="#000000" stroke-width="2" d="M392.4886,-52C392.4886,-52 285.7246,-52 285.7246,-52 279.7246,-52 273.7246,-46 273.7246,-40 273.7246,-40 273.7246,-28 273.7246,-28 273.7246,-22 279.7246,-16 285.7246,-16 285.7246,-16 392.4886,-16 392.4886,-16 398.4886,-16 404.4886,-22 404.4886,-28 404.4886,-28 404.4886,-40 404.4886,-40 404.4886,-46 398.4886,-52 392.4886,-52"></path><text text-anchor="middle" x="339.1066" y="-29.8" font-family="Arial" font-size="14.00" fill="#000000">ららぽーとなど</text></g><!-- クレジットカード:三井ショッピングパークカード&#45;&gt;ららぽーとなど --><g id="edge-17" class="edge"><title>クレジットカード:三井ショッピングパークカード-&gt;ららぽーとなど</title><path fill="none" stroke="#333333" stroke-width="2" stroke-opacity="0.600000" d="M339.1066,-100.3997C339.1066,-100.3997 339.1066,-62.0731 339.1066,-62.0731"></path><polygon fill="#333333" fill-opacity="0.600000" stroke="#333333" stroke-width="2" stroke-opacity="0.600000" points="342.6067,-62.0731 339.1066,-52.0731 335.6067,-62.0731 342.6067,-62.0731"></polygon></g><!-- イトーヨーカドー --><g id="node26" class="node"><title>イトーヨーカドー</title><path fill="none" stroke="#000000" stroke-width="2" d="M1102.3434,-52C1102.3434,-52 969.8698,-52 969.8698,-52 963.8698,-52 957.8698,-46 957.8698,-40 957.8698,-40 957.8698,-28 957.8698,-28 957.8698,-22 963.8698,-16 969.8698,-16 969.8698,-16 1102.3434,-16 1102.3434,-16 1108.3434,-16 1114.3434,-22 1114.3434,-28 1114.3434,-28 1114.3434,-40 1114.3434,-40 1114.3434,-46 1108.3434,-52 1102.3434,-52"></path><text text-anchor="middle" x="1036.1066" y="-29.8" font-family="Arial" font-size="14.00" fill="#000000">イトーヨーカドー</text></g><!-- クレジットカード:セブンカード(家族)&#45;&gt;イトーヨーカドー --><g id="edge-19" class="edge"><title>クレジットカード:セブンカード(家族)-&gt;イトーヨーカドー</title><path fill="none" stroke="#333333" stroke-width="2" stroke-opacity="0.600000" d="M1070.9297,-100.3997C1070.9297,-100.3997 1070.9297,-62.0731 1070.9297,-62.0731"></path><polygon fill="#333333" fill-opacity="0.600000" stroke="#333333" stroke-width="2" stroke-opacity="0.600000" points="1074.4297,-62.0731 1070.9297,-52.0731 1067.4297,-62.0731 1074.4297,-62.0731"></polygon></g><!-- クレジットカード:楽天カード&#45;&gt;楽天証券:積立nisa --><g id="edge-6" class="edge"><title>クレジットカード:楽天カード-&gt;楽天証券:積立nisa</title><path fill="none" stroke="#333333" stroke-width="2" stroke-opacity="0.600000" d="M1268.798,-100.3997C1268.798,-100.3997 1268.798,-62.0731 1268.798,-62.0731"></path><polygon fill="#333333" fill-opacity="0.600000" stroke="#333333" stroke-width="2" stroke-opacity="0.600000" points="1272.2981,-62.0731 1268.798,-52.0731 1265.2981,-62.0731 1272.2981,-62.0731"></polygon></g><!-- クレジットカード:楽天カード&#45;&gt;楽天証券:投資信託 --><g id="edge-7" class="edge"><title>クレジットカード:楽天カード-&gt;楽天証券:投資信託</title><path fill="none" stroke="#333333" stroke-width="2" stroke-opacity="0.600000" d="M1208.1649,-100.3997C1208.1649,-100.3997 1208.1649,-62.0731 1208.1649,-62.0731"></path><polygon fill="#333333" fill-opacity="0.600000" stroke="#333333" stroke-width="2" stroke-opacity="0.600000" points="1211.665,-62.0731 1208.1649,-52.0731 1204.665,-62.0731 1211.665,-62.0731"></polygon></g><!-- 楽天市場 --><g id="node21" class="node"><title>楽天市場</title><path fill="none" stroke="#000000" stroke-width="2" d="M1387.7393,-52C1387.7393,-52 1338.4739,-52 1338.4739,-52 1332.4739,-52 1326.4739,-46 1326.4739,-40 1326.4739,-40 1326.4739,-28 1326.4739,-28 1326.4739,-22 1332.4739,-16 1338.4739,-16 1338.4739,-16 1387.7393,-16 1387.7393,-16 1393.7393,-16 1399.7393,-22 1399.7393,-28 1399.7393,-28 1399.7393,-40 1399.7393,-40 1399.7393,-46 1393.7393,-52 1387.7393,-52"></path><text text-anchor="middle" x="1363.1066" y="-29.8" font-family="Arial" font-size="14.00" fill="#000000">楽天市場</text></g><!-- クレジットカード:楽天カード&#45;&gt;楽天市場 --><g id="edge-8" class="edge"><title>クレジットカード:楽天カード-&gt;楽天市場</title><path fill="none" stroke="#333333" stroke-width="2" stroke-opacity="0.600000" d="M1304.0956,-118C1310.6197,-118 1315.0615,-118 1315.0615,-118 1315.0615,-118 1315.0615,-34 1315.0615,-34 1315.0615,-34 1316.2048,-34 1316.2048,-34"></path><polygon fill="#333333" fill-opacity="0.600000" stroke="#333333" stroke-width="2" stroke-opacity="0.600000" points="1316.2048,-37.5001 1326.2048,-34 1316.2048,-30.5001 1316.2048,-37.5001"></polygon></g><!-- イオン --><g id="node27" class="node"><title>イオン</title><path fill="none" stroke="#000000" stroke-width="2" d="M1464.094,-52C1464.094,-52 1430.1192,-52 1430.1192,-52 1424.1192,-52 1418.1192,-46 1418.1192,-40 1418.1192,-40 1418.1192,-28 1418.1192,-28 1418.1192,-22 1424.1192,-16 1430.1192,-16 1430.1192,-16 1464.094,-16 1464.094,-16 1470.094,-16 1476.094,-22 1476.094,-28 1476.094,-28 1476.094,-40 1476.094,-40 1476.094,-46 1470.094,-52 1464.094,-52"></path><text text-anchor="middle" x="1447.1066" y="-29.8" font-family="Arial" font-size="14.00" fill="#000000">イオン</text></g><!-- クレジットカード:イオンカード&#45;&gt;イオン --><g id="edge-23" class="edge"><title>クレジットカード:イオンカード-&gt;イオン</title><path fill="none" stroke="#333333" stroke-width="2" stroke-opacity="0.600000" d="M1425.3268,-100.3997C1425.3268,-100.3997 1425.3268,-62.0731 1425.3268,-62.0731"></path><polygon fill="#333333" fill-opacity="0.600000" stroke="#333333" stroke-width="2" stroke-opacity="0.600000" points="1428.8269,-62.0731 1425.3268,-52.0731 1421.8269,-62.0731 1428.8269,-62.0731"></polygon></g><!-- 会社 --><g id="node19" class="node"><title>会社</title><path fill="none" stroke="#000000" stroke-width="2" d="M921.1066,-375.2C921.1066,-375.2 891.1066,-375.2 891.1066,-375.2 885.1066,-375.2 879.1066,-369.2 879.1066,-363.2 879.1066,-363.2 879.1066,-351.2 879.1066,-351.2 879.1066,-345.2 885.1066,-339.2 891.1066,-339.2 891.1066,-339.2 921.1066,-339.2 921.1066,-339.2 927.1066,-339.2 933.1066,-345.2 933.1066,-351.2 933.1066,-351.2 933.1066,-363.2 933.1066,-363.2 933.1066,-369.2 927.1066,-375.2 921.1066,-375.2"></path><text text-anchor="middle" x="906.1066" y="-353" font-family="Arial" font-size="14.00" fill="#000000">会社</text></g><!-- 会社&#45;&gt;メインバンク:gmoあおぞらネット銀行 --><g id="edge-0" class="edge"><title>会社-&gt;メインバンク:gmoあおぞらネット銀行</title><path fill="none" stroke="#333333" stroke-width="2" stroke-opacity="0.600000" d="M906.1066,-338.9995C906.1066,-338.9995 906.1066,-308.4699 906.1066,-308.4699"></path><polygon fill="#333333" fill-opacity="0.600000" stroke="#333333" stroke-width="2" stroke-opacity="0.600000" points="909.6067,-308.4698 906.1066,-298.4699 902.6067,-308.4699 909.6067,-308.4698"></polygon></g><!-- 習志野市 --><g id="node29" class="node"><title>習志野市</title><path fill="none" stroke="#000000" stroke-width="2" d="M1078.3341,-298.4C1078.3341,-298.4 1023.8791,-298.4 1023.8791,-298.4 1017.8791,-298.4 1011.8791,-292.4 1011.8791,-286.4 1011.8791,-286.4 1011.8791,-274.4 1011.8791,-274.4 1011.8791,-268.4 1017.8791,-262.4 1023.8791,-262.4 1023.8791,-262.4 1078.3341,-262.4 1078.3341,-262.4 1084.3341,-262.4 1090.3341,-268.4 1090.3341,-274.4 1090.3341,-274.4 1090.3341,-286.4 1090.3341,-286.4 1090.3341,-292.4 1084.3341,-298.4 1078.3341,-298.4"></path><text text-anchor="middle" x="1051.1066" y="-276.2" font-family="Arial" font-size="14.00" fill="#000000">習志野市</text></g><!-- 習志野市&#45;&gt;メインバンク:三菱ufj銀行 --><g id="edge-26" class="edge"><title>習志野市-&gt;メインバンク:三菱ufj銀行</title><path fill="none" stroke="#333333" stroke-width="2" stroke-opacity="0.600000" d="M1019.8137,-262.1825C1019.8137,-242.8311 1019.8137,-215 1019.8137,-215 1019.8137,-215 1003.7146,-215 1003.7146,-215"></path><polygon fill="#333333" fill-opacity="0.600000" stroke="#333333" stroke-width="2" stroke-opacity="0.600000" points="1003.7146,-211.5001 993.7146,-215 1003.7146,-218.5001 1003.7146,-211.5001"></polygon></g><!-- 日本 --><g id="node30" class="node"><title>日本</title><path fill="none" stroke="#000000" stroke-width="2" d="M276.1066,-298.4C276.1066,-298.4 246.1066,-298.4 246.1066,-298.4 240.1066,-298.4 234.1066,-292.4 234.1066,-286.4 234.1066,-286.4 234.1066,-274.4 234.1066,-274.4 234.1066,-268.4 240.1066,-262.4 246.1066,-262.4 246.1066,-262.4 276.1066,-262.4 276.1066,-262.4 282.1066,-262.4 288.1066,-268.4 288.1066,-274.4 288.1066,-274.4 288.1066,-286.4 288.1066,-286.4 288.1066,-292.4 282.1066,-298.4 276.1066,-298.4"></path><text text-anchor="middle" x="261.1066" y="-276.2" font-family="Arial" font-size="14.00" fill="#000000">日本</text></g><!-- 日本&#45;&gt;サブバンク:ゆうちょ銀行 --><g id="edge-27" class="edge"><title>日本-&gt;サブバンク:ゆうちょ銀行</title><path fill="none" stroke="#333333" stroke-width="2" stroke-opacity="0.600000" d="M261.1066,-262.1995C261.1066,-262.1995 261.1066,-231.6699 261.1066,-231.6699"></path><polygon fill="#333333" fill-opacity="0.600000" stroke="#333333" stroke-width="2" stroke-opacity="0.600000" points="264.6067,-231.6698 261.1066,-221.6699 257.6067,-231.6699 264.6067,-231.6698"></polygon></g></g></svg>