<?xml version="1.0" encoding="UTF-8" standalone="no"?><!-- Generated by graphviz version 2.40.1 (20161225.0304)
 --><!-- Title: ndiag Pages: 1 --><svg width="1106pt" height="391pt" viewBox="0.00 0.00 1106.19 391.20" xmlns="http://www.w3.org/2000/svg" xmlns:xlink="http://www.w3.org/1999/xlink"><g id="graph0" class="graph" transform="scale(1 1) rotate(0) translate(4 387.2)"><title>ndiag</title><polygon fill="#ffffff" stroke="transparent" points="-4,4 -4,-387.2 1102.1907,-387.2 1102.1907,4 -4,4"></polygon><g id="clust7" class="cluster"><title>cluster_セゾンカード</title><polygon fill="none" stroke="#000000" stroke-width="2" points="790,-177.6 790,-254.4 1008,-254.4 1008,-177.6 790,-177.6"></polygon><text text-anchor="middle" x="899" y="-237.8" font-family="Arial" font-size="14.00" fill="#000000">セゾンカード</text></g><g id="clust6" class="cluster"><title>cluster_三井住友カード</title><polygon fill="none" stroke="#000000" stroke-width="2" points="382,-92.8 382,-169.6 742,-169.6 742,-92.8 382,-92.8"></polygon><text text-anchor="middle" x="562" y="-153" font-family="Arial" font-size="14.00" fill="#000000">三井住友カード</text></g><g id="clust5" class="cluster"><title>cluster_楽天証券</title><polygon fill="none" stroke="#000000" stroke-width="2" points="8,-8 8,-84.8 200,-84.8 200,-8 8,-8"></polygon><text text-anchor="middle" x="104" y="-68.2" font-family="Arial" font-size="14.00" fill="#000000">楽天証券</text></g><g id="clust4" class="cluster"><title>cluster_住信SBIネット銀行</title><polygon fill="none" stroke="#000000" stroke-width="2" points="223,-92.8 223,-254.4 374,-254.4 374,-92.8 223,-92.8"></polygon><text text-anchor="middle" x="298.5" y="-237.8" font-family="Arial" font-size="14.00" fill="#000000">住信SBIネット銀行</text></g><g id="clust3" class="cluster"><title>cluster_楽天銀行</title><polygon fill="none" stroke="#000000" stroke-width="2" points="95,-92.8 95,-254.4 215,-254.4 215,-92.8 95,-92.8"></polygon><text text-anchor="middle" x="155" y="-237.8" font-family="Arial" font-size="14.00" fill="#000000">楽天銀行</text></g><g id="clust2" class="cluster"><title>cluster_三菱UFJ銀行</title><polygon fill="none" stroke="#000000" stroke-width="2" points="601,-177.6 601,-254.4 708,-254.4 708,-177.6 601,-177.6"></polygon><text text-anchor="middle" x="654.5" y="-237.8" font-family="Arial" font-size="14.00" fill="#000000">三菱UFJ銀行</text></g><g id="clust1" class="cluster"><title>cluster_GMOあおぞらネット銀行</title><polygon fill="none" stroke="#000000" stroke-width="2" points="567,-262.4 567,-339.2 742,-339.2 742,-262.4 567,-262.4"></polygon><text text-anchor="middle" x="654.5" y="-322.6" font-family="Arial" font-size="14.00" fill="#000000">GMOあおぞらネット銀行</text></g><!-- gmoあおぞらネット銀行:普通口座 --><g id="node1" class="node"><title>gmoあおぞらネット銀行:普通口座</title><path fill="#ffffff" stroke="#4b75b9" stroke-width="3" d="M682.8514,-306.4C682.8514,-306.4 625.1486,-306.4 625.1486,-306.4 619.1486,-306.4 613.1486,-300.4 613.1486,-294.4 613.1486,-294.4 613.1486,-282.4 613.1486,-282.4 613.1486,-276.4 619.1486,-270.4 625.1486,-270.4 625.1486,-270.4 682.8514,-270.4 682.8514,-270.4 688.8514,-270.4 694.8514,-276.4 694.8514,-282.4 694.8514,-282.4 694.8514,-294.4 694.8514,-294.4 694.8514,-300.4 688.8514,-306.4 682.8514,-306.4"></path><text text-anchor="middle" x="654" y="-284.2" font-family="Arial" font-size="14.00" fill="#333333">普通口座</text></g><!-- 三菱ufj銀行:普通口座 --><g id="node2" class="node"><title>三菱ufj銀行:普通口座</title><path fill="#ffffff" stroke="#4b75b9" stroke-width="3" d="M682.8514,-221.6C682.8514,-221.6 625.1486,-221.6 625.1486,-221.6 619.1486,-221.6 613.1486,-215.6 613.1486,-209.6 613.1486,-209.6 613.1486,-197.6 613.1486,-197.6 613.1486,-191.6 619.1486,-185.6 625.1486,-185.6 625.1486,-185.6 682.8514,-185.6 682.8514,-185.6 688.8514,-185.6 694.8514,-191.6 694.8514,-197.6 694.8514,-197.6 694.8514,-209.6 694.8514,-209.6 694.8514,-215.6 688.8514,-221.6 682.8514,-221.6"></path><text text-anchor="middle" x="654" y="-199.4" font-family="Arial" font-size="14.00" fill="#333333">普通口座</text></g><!-- gmoあおぞらネット銀行:普通口座&#45;&gt;三菱ufj銀行:普通口座 --><g id="edge-1" class="edge"><title>gmoあおぞらネット銀行:普通口座-&gt;三菱ufj銀行:普通口座</title><path fill="none" stroke="#333333" stroke-width="2" stroke-opacity="0.600000" d="M654,-269.9997C654,-269.9997 654,-231.6731 654,-231.6731"></path><polygon fill="#333333" fill-opacity="0.600000" stroke="#333333" stroke-width="2" stroke-opacity="0.600000" points="657.5001,-231.6731 654,-221.6731 650.5001,-231.6731 657.5001,-231.6731"></polygon></g><!-- 楽天銀行:普通口座 --><g id="node3" class="node"><title>楽天銀行:普通口座</title><path fill="#ffffff" stroke="#4b75b9" stroke-width="3" d="M188.8514,-221.6C188.8514,-221.6 131.1486,-221.6 131.1486,-221.6 125.1486,-221.6 119.1486,-215.6 119.1486,-209.6 119.1486,-209.6 119.1486,-197.6 119.1486,-197.6 119.1486,-191.6 125.1486,-185.6 131.1486,-185.6 131.1486,-185.6 188.8514,-185.6 188.8514,-185.6 194.8514,-185.6 200.8514,-191.6 200.8514,-197.6 200.8514,-197.6 200.8514,-209.6 200.8514,-209.6 200.8514,-215.6 194.8514,-221.6 188.8514,-221.6"></path><text text-anchor="middle" x="160" y="-199.4" font-family="Arial" font-size="14.00" fill="#333333">普通口座</text></g><!-- gmoあおぞらネット銀行:普通口座&#45;&gt;楽天銀行:普通口座 --><g id="edge-4" class="edge"><title>gmoあおぞらネット銀行:普通口座-&gt;楽天銀行:普通口座</title><path fill="none" stroke="#333333" stroke-width="2" stroke-opacity="0.600000" d="M613.1536,-294C494.7975,-294 160,-294 160,-294 160,-294 160,-231.8938 160,-231.8938"></path><polygon fill="#333333" fill-opacity="0.600000" stroke="#333333" stroke-width="2" stroke-opacity="0.600000" points="163.5001,-231.8938 160,-221.8938 156.5001,-231.8938 163.5001,-231.8938"></polygon></g><!-- 住信sbiネット銀行:普通口座 --><g id="node5" class="node"><title>住信sbiネット銀行:普通口座</title><path fill="#ffffff" stroke="#4b75b9" stroke-width="3" d="M347.8514,-221.6C347.8514,-221.6 290.1486,-221.6 290.1486,-221.6 284.1486,-221.6 278.1486,-215.6 278.1486,-209.6 278.1486,-209.6 278.1486,-197.6 278.1486,-197.6 278.1486,-191.6 284.1486,-185.6 290.1486,-185.6 290.1486,-185.6 347.8514,-185.6 347.8514,-185.6 353.8514,-185.6 359.8514,-191.6 359.8514,-197.6 359.8514,-197.6 359.8514,-209.6 359.8514,-209.6 359.8514,-215.6 353.8514,-221.6 347.8514,-221.6"></path><text text-anchor="middle" x="319" y="-199.4" font-family="Arial" font-size="14.00" fill="#333333">普通口座</text></g><!-- gmoあおぞらネット銀行:普通口座&#45;&gt;住信sbiネット銀行:普通口座 --><g id="edge-9" class="edge"><title>gmoあおぞらネット銀行:普通口座-&gt;住信sbiネット銀行:普通口座</title><path fill="none" stroke="#333333" stroke-width="2" stroke-opacity="0.600000" d="M613.2573,-282C523.9793,-282 319,-282 319,-282 319,-282 319,-231.7836 319,-231.7836"></path><polygon fill="#333333" fill-opacity="0.600000" stroke="#333333" stroke-width="2" stroke-opacity="0.600000" points="322.5001,-231.7836 319,-221.7836 315.5001,-231.7836 322.5001,-231.7836"></polygon></g><!-- セゾンカード:amex(家族) --><g id="node11" class="node"><title>セゾンカード:amex(家族)</title><path fill="#ffffff" stroke="#4b75b9" stroke-width="3" d="M877.6802,-221.6C877.6802,-221.6 810.3198,-221.6 810.3198,-221.6 804.3198,-221.6 798.3198,-215.6 798.3198,-209.6 798.3198,-209.6 798.3198,-197.6 798.3198,-197.6 798.3198,-191.6 804.3198,-185.6 810.3198,-185.6 810.3198,-185.6 877.6802,-185.6 877.6802,-185.6 883.6802,-185.6 889.6802,-191.6 889.6802,-197.6 889.6802,-197.6 889.6802,-209.6 889.6802,-209.6 889.6802,-215.6 883.6802,-221.6 877.6802,-221.6"></path><text text-anchor="middle" x="844" y="-199.4" font-family="Arial" font-size="14.00" fill="#333333">Amex(家族)</text></g><!-- gmoあおぞらネット銀行:普通口座&#45;&gt;セゾンカード:amex(家族) --><g id="edge-14" class="edge"><title>gmoあおぞらネット銀行:普通口座-&gt;セゾンカード:amex(家族)</title><path fill="none" stroke="#333333" stroke-width="2" stroke-opacity="0.600000" d="M694.7598,-282C750.588,-282 844,-282 844,-282 844,-282 844,-231.7836 844,-231.7836"></path><polygon fill="#333333" fill-opacity="0.600000" stroke="#333333" stroke-width="2" stroke-opacity="0.600000" points="847.5001,-231.7836 844,-221.7836 840.5001,-231.7836 847.5001,-231.7836"></polygon></g><!-- セゾンカード:三井カード --><g id="node12" class="node"><title>セゾンカード:三井カード</title><path fill="#ffffff" stroke="#4b75b9" stroke-width="3" d="M988.2106,-221.6C988.2106,-221.6 919.7894,-221.6 919.7894,-221.6 913.7894,-221.6 907.7894,-215.6 907.7894,-209.6 907.7894,-209.6 907.7894,-197.6 907.7894,-197.6 907.7894,-191.6 913.7894,-185.6 919.7894,-185.6 919.7894,-185.6 988.2106,-185.6 988.2106,-185.6 994.2106,-185.6 1000.2106,-191.6 1000.2106,-197.6 1000.2106,-197.6 1000.2106,-209.6 1000.2106,-209.6 1000.2106,-215.6 994.2106,-221.6 988.2106,-221.6"></path><text text-anchor="middle" x="954" y="-199.4" font-family="Arial" font-size="14.00" fill="#333333">三井カード</text></g><!-- gmoあおぞらネット銀行:普通口座&#45;&gt;セゾンカード:三井カード --><g id="edge-16" class="edge"><title>gmoあおぞらネット銀行:普通口座-&gt;セゾンカード:三井カード</title><path fill="none" stroke="#333333" stroke-width="2" stroke-opacity="0.600000" d="M694.7716,-294C776.7971,-294 954,-294 954,-294 954,-294 954,-231.8938 954,-231.8938"></path><polygon fill="#333333" fill-opacity="0.600000" stroke="#333333" stroke-width="2" stroke-opacity="0.600000" points="957.5001,-231.8938 954,-221.8938 950.5001,-231.8938 957.5001,-231.8938"></polygon></g><!-- 三井住友カード:amazon masterカード --><g id="node9" class="node"><title>三井住友カード:amazon masterカード</title><path fill="#ffffff" stroke="#4b75b9" stroke-width="3" d="M544.3934,-136.8C544.3934,-136.8 401.6066,-136.8 401.6066,-136.8 395.6066,-136.8 389.6066,-130.8 389.6066,-124.8 389.6066,-124.8 389.6066,-112.8 389.6066,-112.8 389.6066,-106.8 395.6066,-100.8 401.6066,-100.8 401.6066,-100.8 544.3934,-100.8 544.3934,-100.8 550.3934,-100.8 556.3934,-106.8 556.3934,-112.8 556.3934,-112.8 556.3934,-124.8 556.3934,-124.8 556.3934,-130.8 550.3934,-136.8 544.3934,-136.8"></path><text text-anchor="middle" x="473" y="-114.6" font-family="Arial" font-size="14.00" fill="#333333">Amazon Masterカード</text></g><!-- 三菱ufj銀行:普通口座&#45;&gt;三井住友カード:amazon masterカード --><g id="edge-12" class="edge"><title>三菱ufj銀行:普通口座-&gt;三井住友カード:amazon masterカード</title><path fill="none" stroke="#333333" stroke-width="2" stroke-opacity="0.600000" d="M612.9283,-203C559.5257,-203 473,-203 473,-203 473,-203 473,-147.0701 473,-147.0701"></path><polygon fill="#333333" fill-opacity="0.600000" stroke="#333333" stroke-width="2" stroke-opacity="0.600000" points="476.5001,-147.0701 473,-137.0701 469.5001,-147.0702 476.5001,-147.0701"></polygon></g><!-- 三井住友カード:visa line payカード --><g id="node10" class="node"><title>三井住友カード:visa line payカード</title><path fill="#ffffff" stroke="#4b75b9" stroke-width="3" d="M721.6234,-136.8C721.6234,-136.8 586.3766,-136.8 586.3766,-136.8 580.3766,-136.8 574.3766,-130.8 574.3766,-124.8 574.3766,-124.8 574.3766,-112.8 574.3766,-112.8 574.3766,-106.8 580.3766,-100.8 586.3766,-100.8 586.3766,-100.8 721.6234,-100.8 721.6234,-100.8 727.6234,-100.8 733.6234,-106.8 733.6234,-112.8 733.6234,-112.8 733.6234,-124.8 733.6234,-124.8 733.6234,-130.8 727.6234,-136.8 721.6234,-136.8"></path><text text-anchor="middle" x="654" y="-114.6" font-family="Arial" font-size="14.00" fill="#333333">Visa LINE Payカード</text></g><!-- 三菱ufj銀行:普通口座&#45;&gt;三井住友カード:visa line payカード --><g id="edge-2" class="edge"><title>三菱ufj銀行:普通口座-&gt;三井住友カード:visa line payカード</title><path fill="none" stroke="#333333" stroke-width="2" stroke-opacity="0.600000" d="M654,-185.1997C654,-185.1997 654,-146.8731 654,-146.8731"></path><polygon fill="#333333" fill-opacity="0.600000" stroke="#333333" stroke-width="2" stroke-opacity="0.600000" points="657.5001,-146.8731 654,-136.8731 650.5001,-146.8731 657.5001,-146.8731"></polygon></g><!-- 管理費・修繕積立金 --><g id="node16" class="node"><title>管理費・修繕積立金</title><path fill="none" stroke="#000000" stroke-width="2" d="M899.997,-136.8C899.997,-136.8 764.003,-136.8 764.003,-136.8 758.003,-136.8 752.003,-130.8 752.003,-124.8 752.003,-124.8 752.003,-112.8 752.003,-112.8 752.003,-106.8 758.003,-100.8 764.003,-100.8 764.003,-100.8 899.997,-100.8 899.997,-100.8 905.997,-100.8 911.997,-106.8 911.997,-112.8 911.997,-112.8 911.997,-124.8 911.997,-124.8 911.997,-130.8 905.997,-136.8 899.997,-136.8"></path><text text-anchor="middle" x="832" y="-114.6" font-family="Arial" font-size="14.00" fill="#000000">管理費・修繕積立金</text></g><!-- 三菱ufj銀行:普通口座&#45;&gt;管理費・修繕積立金 --><g id="edge-11" class="edge"><title>三菱ufj銀行:普通口座-&gt;管理費・修繕積立金</title><path fill="none" stroke="#333333" stroke-width="2" stroke-opacity="0.600000" d="M694.6969,-209C729.9085,-209 775.2058,-209 775.2058,-209 775.2058,-209 775.2058,-147.0533 775.2058,-147.0533"></path><polygon fill="#333333" fill-opacity="0.600000" stroke="#333333" stroke-width="2" stroke-opacity="0.600000" points="778.7058,-147.0533 775.2058,-137.0533 771.7058,-147.0534 778.7058,-147.0533"></polygon></g><!-- 楽天銀行:楽天カード --><g id="node4" class="node"><title>楽天銀行:楽天カード</title><path fill="#ffffff" stroke="#4b75b9" stroke-width="3" d="M194.9548,-136.8C194.9548,-136.8 115.0452,-136.8 115.0452,-136.8 109.0452,-136.8 103.0452,-130.8 103.0452,-124.8 103.0452,-124.8 103.0452,-112.8 103.0452,-112.8 103.0452,-106.8 109.0452,-100.8 115.0452,-100.8 115.0452,-100.8 194.9548,-100.8 194.9548,-100.8 200.9548,-100.8 206.9548,-106.8 206.9548,-112.8 206.9548,-112.8 206.9548,-124.8 206.9548,-124.8 206.9548,-130.8 200.9548,-136.8 194.9548,-136.8"></path><text text-anchor="middle" x="155" y="-114.6" font-family="Arial" font-size="14.00" fill="#333333">楽天カード</text></g><!-- 楽天銀行:普通口座&#45;&gt;楽天銀行:楽天カード --><g id="edge-5" class="edge"><title>楽天銀行:普通口座-&gt;楽天銀行:楽天カード</title><path fill="none" stroke="#333333" stroke-width="2" stroke-opacity="0.600000" d="M160,-185.1997C160,-185.1997 160,-146.8731 160,-146.8731"></path><polygon fill="#333333" fill-opacity="0.600000" stroke="#333333" stroke-width="2" stroke-opacity="0.600000" points="163.5001,-146.8731 160,-136.8731 156.5001,-146.8731 163.5001,-146.8731"></polygon></g><!-- 楽天証券:積立nisa --><g id="node7" class="node"><title>楽天証券:積立nisa</title><path fill="#ffffff" stroke="#4b75b9" stroke-width="3" d="M180.1886,-52C180.1886,-52 129.8114,-52 129.8114,-52 123.8114,-52 117.8114,-46 117.8114,-40 117.8114,-40 117.8114,-28 117.8114,-28 117.8114,-22 123.8114,-16 129.8114,-16 129.8114,-16 180.1886,-16 180.1886,-16 186.1886,-16 192.1886,-22 192.1886,-28 192.1886,-28 192.1886,-40 192.1886,-40 192.1886,-46 186.1886,-52 180.1886,-52"></path><text text-anchor="middle" x="155" y="-29.8" font-family="Arial" font-size="14.00" fill="#333333">積立NISA</text></g><!-- 楽天銀行:楽天カード&#45;&gt;楽天証券:積立nisa --><g id="edge-6" class="edge"><title>楽天銀行:楽天カード-&gt;楽天証券:積立nisa</title><path fill="none" stroke="#333333" stroke-width="2" stroke-opacity="0.600000" d="M155,-100.3997C155,-100.3997 155,-62.0731 155,-62.0731"></path><polygon fill="#333333" fill-opacity="0.600000" stroke="#333333" stroke-width="2" stroke-opacity="0.600000" points="158.5001,-62.0731 155,-52.0731 151.5001,-62.0731 158.5001,-62.0731"></polygon></g><!-- 楽天証券:投資信託 --><g id="node8" class="node"><title>楽天証券:投資信託</title><path fill="#ffffff" stroke="#4b75b9" stroke-width="3" d="M87.6878,-52C87.6878,-52 28.3122,-52 28.3122,-52 22.3122,-52 16.3122,-46 16.3122,-40 16.3122,-40 16.3122,-28 16.3122,-28 16.3122,-22 22.3122,-16 28.3122,-16 28.3122,-16 87.6878,-16 87.6878,-16 93.6878,-16 99.6878,-22 99.6878,-28 99.6878,-28 99.6878,-40 99.6878,-40 99.6878,-46 93.6878,-52 87.6878,-52"></path><text text-anchor="middle" x="58" y="-29.8" font-family="Arial" font-size="14.00" fill="#333333">投資信託</text></g><!-- 楽天銀行:楽天カード&#45;&gt;楽天証券:投資信託 --><g id="edge-7" class="edge"><title>楽天銀行:楽天カード-&gt;楽天証券:投資信託</title><path fill="none" stroke="#333333" stroke-width="2" stroke-opacity="0.600000" d="M110.4646,-100.3997C110.4646,-75.4593 110.4646,-34 110.4646,-34 110.4646,-34 109.4029,-34 109.4029,-34"></path><polygon fill="#333333" fill-opacity="0.600000" stroke="#333333" stroke-width="2" stroke-opacity="0.600000" points="109.8476,-30.5001 99.8476,-34 109.8475,-37.5001 109.8476,-30.5001"></polygon></g><!-- 楽天市場 --><g id="node15" class="node"><title>楽天市場</title><path fill="none" stroke="#000000" stroke-width="2" d="M271.6327,-52C271.6327,-52 222.3673,-52 222.3673,-52 216.3673,-52 210.3673,-46 210.3673,-40 210.3673,-40 210.3673,-28 210.3673,-28 210.3673,-22 216.3673,-16 222.3673,-16 222.3673,-16 271.6327,-16 271.6327,-16 277.6327,-16 283.6327,-22 283.6327,-28 283.6327,-28 283.6327,-40 283.6327,-40 283.6327,-46 277.6327,-52 271.6327,-52"></path><text text-anchor="middle" x="247" y="-29.8" font-family="Arial" font-size="14.00" fill="#000000">楽天市場</text></g><!-- 楽天銀行:楽天カード&#45;&gt;楽天市場 --><g id="edge-8" class="edge"><title>楽天銀行:楽天カード-&gt;楽天市場</title><path fill="none" stroke="#333333" stroke-width="2" stroke-opacity="0.600000" d="M199.5355,-100.3997C199.5355,-75.4593 199.5355,-34 199.5355,-34 199.5355,-34 200.5888,-34 200.5888,-34"></path><polygon fill="#333333" fill-opacity="0.600000" stroke="#333333" stroke-width="2" stroke-opacity="0.600000" points="200.0694,-37.5001 210.0694,-34 200.0693,-30.5001 200.0694,-37.5001"></polygon></g><!-- 住信sbiネット銀行:住宅ローン --><g id="node6" class="node"><title>住信sbiネット銀行:住宅ローン</title><path fill="#ffffff" stroke="#4b75b9" stroke-width="3" d="M354.2134,-136.8C354.2134,-136.8 271.7866,-136.8 271.7866,-136.8 265.7866,-136.8 259.7866,-130.8 259.7866,-124.8 259.7866,-124.8 259.7866,-112.8 259.7866,-112.8 259.7866,-106.8 265.7866,-100.8 271.7866,-100.8 271.7866,-100.8 354.2134,-100.8 354.2134,-100.8 360.2134,-100.8 366.2134,-106.8 366.2134,-112.8 366.2134,-112.8 366.2134,-124.8 366.2134,-124.8 366.2134,-130.8 360.2134,-136.8 354.2134,-136.8"></path><text text-anchor="middle" x="313" y="-114.6" font-family="Arial" font-size="14.00" fill="#333333">住宅ローン</text></g><!-- 住信sbiネット銀行:普通口座&#45;&gt;住信sbiネット銀行:住宅ローン --><g id="edge-10" class="edge"><title>住信sbiネット銀行:普通口座-&gt;住信sbiネット銀行:住宅ローン</title><path fill="none" stroke="#333333" stroke-width="2" stroke-opacity="0.600000" d="M319,-185.1997C319,-185.1997 319,-146.8731 319,-146.8731"></path><polygon fill="#333333" fill-opacity="0.600000" stroke="#333333" stroke-width="2" stroke-opacity="0.600000" points="322.5001,-146.8731 319,-136.8731 315.5001,-146.8731 322.5001,-146.8731"></polygon></g><!-- amazon --><g id="node17" class="node"><title>amazon</title><path fill="none" stroke="#000000" stroke-width="2" d="M494.8459,-52C494.8459,-52 451.1541,-52 451.1541,-52 445.1541,-52 439.1541,-46 439.1541,-40 439.1541,-40 439.1541,-28 439.1541,-28 439.1541,-22 445.1541,-16 451.1541,-16 451.1541,-16 494.8459,-16 494.8459,-16 500.8459,-16 506.8459,-22 506.8459,-28 506.8459,-28 506.8459,-40 506.8459,-40 506.8459,-46 500.8459,-52 494.8459,-52"></path><text text-anchor="middle" x="473" y="-29.8" font-family="Arial" font-size="14.00" fill="#000000">Amazon</text></g><!-- 三井住友カード:amazon masterカード&#45;&gt;amazon --><g id="edge-13" class="edge"><title>三井住友カード:amazon masterカード-&gt;amazon</title><path fill="none" stroke="#333333" stroke-width="2" stroke-opacity="0.600000" d="M473,-100.3997C473,-100.3997 473,-62.0731 473,-62.0731"></path><polygon fill="#333333" fill-opacity="0.600000" stroke="#333333" stroke-width="2" stroke-opacity="0.600000" points="476.5001,-62.0731 473,-52.0731 469.5001,-62.0731 476.5001,-62.0731"></polygon></g><!-- 世界 --><g id="node14" class="node"><title>世界</title><path fill="none" stroke="#000000" stroke-width="2" d="M812,-52C812,-52 782,-52 782,-52 776,-52 770,-46 770,-40 770,-40 770,-28 770,-28 770,-22 776,-16 782,-16 782,-16 812,-16 812,-16 818,-16 824,-22 824,-28 824,-28 824,-40 824,-40 824,-46 818,-52 812,-52"></path><text text-anchor="middle" x="797" y="-29.8" font-family="Arial" font-size="14.00" fill="#000000">世界</text></g><!-- 三井住友カード:visa line payカード&#45;&gt;世界 --><g id="edge-3" class="edge"><title>三井住友カード:visa line payカード-&gt;世界</title><path fill="none" stroke="#333333" stroke-width="2" stroke-opacity="0.600000" d="M654,-100.4253C654,-73.8932 654,-28 654,-28 654,-28 759.7662,-28 759.7662,-28"></path><polygon fill="#333333" fill-opacity="0.600000" stroke="#333333" stroke-width="2" stroke-opacity="0.600000" points="759.7662,-31.5001 769.7662,-28 759.7662,-24.5001 759.7662,-31.5001"></polygon></g><!-- セゾンカード:amex(家族)&#45;&gt;世界 --><g id="edge-15" class="edge"><title>セゾンカード:amex(家族)-&gt;世界</title><path fill="none" stroke="#333333" stroke-width="2" stroke-opacity="0.600000" d="M798.1292,-197C771.3481,-197 742.7816,-197 742.7816,-197 742.7816,-197 742.7816,-40 742.7816,-40 742.7816,-40 759.8908,-40 759.8908,-40"></path><polygon fill="#333333" fill-opacity="0.600000" stroke="#333333" stroke-width="2" stroke-opacity="0.600000" points="759.8908,-43.5001 769.8908,-40 759.8908,-36.5001 759.8908,-43.5001"></polygon></g><!-- ららぽーとなど --><g id="node18" class="node"><title>ららぽーとなど</title><path fill="none" stroke="#000000" stroke-width="2" d="M1086.382,-136.8C1086.382,-136.8 979.618,-136.8 979.618,-136.8 973.618,-136.8 967.618,-130.8 967.618,-124.8 967.618,-124.8 967.618,-112.8 967.618,-112.8 967.618,-106.8 973.618,-100.8 979.618,-100.8 979.618,-100.8 1086.382,-100.8 1086.382,-100.8 1092.382,-100.8 1098.382,-106.8 1098.382,-112.8 1098.382,-112.8 1098.382,-124.8 1098.382,-124.8 1098.382,-130.8 1092.382,-136.8 1086.382,-136.8"></path><text text-anchor="middle" x="1033" y="-114.6" font-family="Arial" font-size="14.00" fill="#000000">ららぽーとなど</text></g><!-- セゾンカード:三井カード&#45;&gt;ららぽーとなど --><g id="edge-17" class="edge"><title>セゾンカード:三井カード-&gt;ららぽーとなど</title><path fill="none" stroke="#333333" stroke-width="2" stroke-opacity="0.600000" d="M983.9573,-185.1997C983.9573,-185.1997 983.9573,-146.8731 983.9573,-146.8731"></path><polygon fill="#333333" fill-opacity="0.600000" stroke="#333333" stroke-width="2" stroke-opacity="0.600000" points="987.4573,-146.8731 983.9573,-136.8731 980.4573,-146.8731 987.4573,-146.8731"></polygon></g><!-- 会社 --><g id="node13" class="node"><title>会社</title><path fill="none" stroke="#000000" stroke-width="2" d="M669,-383.2C669,-383.2 639,-383.2 639,-383.2 633,-383.2 627,-377.2 627,-371.2 627,-371.2 627,-359.2 627,-359.2 627,-353.2 633,-347.2 639,-347.2 639,-347.2 669,-347.2 669,-347.2 675,-347.2 681,-353.2 681,-359.2 681,-359.2 681,-371.2 681,-371.2 681,-377.2 675,-383.2 669,-383.2"></path><text text-anchor="middle" x="654" y="-361" font-family="Arial" font-size="14.00" fill="#000000">会社</text></g><!-- 会社&#45;&gt;gmoあおぞらネット銀行:普通口座 --><g id="edge-0" class="edge"><title>会社-&gt;gmoあおぞらネット銀行:普通口座</title><path fill="none" stroke="#333333" stroke-width="2" stroke-opacity="0.600000" d="M654,-346.9995C654,-346.9995 654,-316.4699 654,-316.4699"></path><polygon fill="#333333" fill-opacity="0.600000" stroke="#333333" stroke-width="2" stroke-opacity="0.600000" points="657.5001,-316.4698 654,-306.4699 650.5001,-316.4699 657.5001,-316.4698"></polygon></g></g></svg>