<?xml version="1.0" encoding="UTF-8" standalone="no"?><!-- Generated by graphviz version 2.40.1 (20161225.0304)
 --><!-- Title: ndiag Pages: 1 --><svg width="1893pt" height="383pt" viewBox="0.00 0.00 1893.00 383.20" xmlns="http://www.w3.org/2000/svg" xmlns:xlink="http://www.w3.org/1999/xlink"><g id="graph0" class="graph" transform="scale(1 1) rotate(0) translate(4 379.2)"><title>ndiag</title><polygon fill="#ffffff" stroke="transparent" points="-4,4 -4,-379.2 1889,-379.2 1889,4 -4,4"></polygon><g id="clust6" class="cluster"><title>cluster_県民共済</title><polygon fill="none" stroke="#000000" stroke-width="2" points="172,-92.8 172,-169.6 242,-169.6 242,-92.8 172,-92.8"></polygon><text text-anchor="middle" x="207" y="-153" font-family="Arial" font-size="14.00" fill="#000000">県民共済</text></g><g id="clust5" class="cluster"><title>cluster_プルデンシャル生命</title><polygon fill="none" stroke="#000000" stroke-width="2" points="8,-92.8 8,-169.6 164,-169.6 164,-92.8 8,-92.8"></polygon><text text-anchor="middle" x="86" y="-153" font-family="Arial" font-size="14.00" fill="#000000">プルデンシャル生命</text></g><g id="clust4" class="cluster"><title>cluster_クレジットカード</title><polygon fill="none" stroke="#000000" stroke-width="2" points="422,-92.8 422,-169.6 1646,-169.6 1646,-92.8 422,-92.8"></polygon><text text-anchor="middle" x="1034" y="-153" font-family="Arial" font-size="14.00" fill="#000000">クレジットカード</text></g><g id="clust3" class="cluster"><title>cluster_楽天証券</title><polygon fill="none" stroke="#000000" stroke-width="2" points="1311,-8 1311,-84.8 1503,-84.8 1503,-8 1311,-8"></polygon><text text-anchor="middle" x="1407" y="-68.2" font-family="Arial" font-size="14.00" fill="#000000">楽天証券</text></g><g id="clust2" class="cluster"><title>cluster_サブバンク</title><polygon fill="none" stroke="#000000" stroke-width="2" points="1399,-177.6 1399,-254.4 1877,-254.4 1877,-177.6 1399,-177.6"></polygon><text text-anchor="middle" x="1638" y="-237.8" font-family="Arial" font-size="14.00" fill="#000000">サブバンク</text></g><g id="clust1" class="cluster"><title>cluster_メインバンク</title><polygon fill="none" stroke="#000000" stroke-width="2" points="805,-177.6 805,-331.2 997,-331.2 997,-177.6 805,-177.6"></polygon><text text-anchor="middle" x="901" y="-314.6" font-family="Arial" font-size="14.00" fill="#000000">メインバンク</text></g><!-- メインバンク:gmoあおぞらネット銀行 --><g id="node1" class="node"><title>メインバンク:gmoあおぞらネット銀行</title><path fill="#ffffff" stroke="#4b75b9" stroke-width="3" d="M976.6661,-298.4C976.6661,-298.4 825.3339,-298.4 825.3339,-298.4 819.3339,-298.4 813.3339,-292.4 813.3339,-286.4 813.3339,-286.4 813.3339,-274.4 813.3339,-274.4 813.3339,-268.4 819.3339,-262.4 825.3339,-262.4 825.3339,-262.4 976.6661,-262.4 976.6661,-262.4 982.6661,-262.4 988.6661,-268.4 988.6661,-274.4 988.6661,-274.4 988.6661,-286.4 988.6661,-286.4 988.6661,-292.4 982.6661,-298.4 976.6661,-298.4"></path><text text-anchor="middle" x="901" y="-276.2" font-family="Arial" font-size="14.00" fill="#333333">GMOあおぞらネット銀行</text></g><!-- メインバンク:三菱ufj銀行 --><g id="node2" class="node"><title>メインバンク:三菱ufj銀行</title><path fill="#ffffff" stroke="#4b75b9" stroke-width="3" d="M908.5084,-221.6C908.5084,-221.6 825.4916,-221.6 825.4916,-221.6 819.4916,-221.6 813.4916,-215.6 813.4916,-209.6 813.4916,-209.6 813.4916,-197.6 813.4916,-197.6 813.4916,-191.6 819.4916,-185.6 825.4916,-185.6 825.4916,-185.6 908.5084,-185.6 908.5084,-185.6 914.5084,-185.6 920.5084,-191.6 920.5084,-197.6 920.5084,-197.6 920.5084,-209.6 920.5084,-209.6 920.5084,-215.6 914.5084,-221.6 908.5084,-221.6"></path><text text-anchor="middle" x="867" y="-199.4" font-family="Arial" font-size="14.00" fill="#333333">三菱UFJ銀行</text></g><!-- メインバンク:gmoあおぞらネット銀行&#45;&gt;メインバンク:三菱ufj銀行 --><g id="edge-1" class="edge"><title>メインバンク:gmoあおぞらネット銀行-&gt;メインバンク:三菱ufj銀行</title><path fill="none" stroke="#333333" stroke-width="2" stroke-opacity="0.600000" d="M867,-262.1995C867,-262.1995 867,-231.6699 867,-231.6699"></path><polygon fill="#333333" fill-opacity="0.600000" stroke="#333333" stroke-width="2" stroke-opacity="0.600000" points="870.5001,-231.6698 867,-221.6699 863.5001,-231.6699 870.5001,-231.6698"></polygon></g><!-- サブバンク:楽天銀行 --><g id="node3" class="node"><title>サブバンク:楽天銀行</title><path fill="#ffffff" stroke="#4b75b9" stroke-width="3" d="M1480.5796,-221.6C1480.5796,-221.6 1419.4204,-221.6 1419.4204,-221.6 1413.4204,-221.6 1407.4204,-215.6 1407.4204,-209.6 1407.4204,-209.6 1407.4204,-197.6 1407.4204,-197.6 1407.4204,-191.6 1413.4204,-185.6 1419.4204,-185.6 1419.4204,-185.6 1480.5796,-185.6 1480.5796,-185.6 1486.5796,-185.6 1492.5796,-191.6 1492.5796,-197.6 1492.5796,-197.6 1492.5796,-209.6 1492.5796,-209.6 1492.5796,-215.6 1486.5796,-221.6 1480.5796,-221.6"></path><text text-anchor="middle" x="1450" y="-199.4" font-family="Arial" font-size="14.00" fill="#333333">楽天銀行</text></g><!-- メインバンク:gmoあおぞらネット銀行&#45;&gt;サブバンク:楽天銀行 --><g id="edge-4" class="edge"><title>メインバンク:gmoあおぞらネット銀行-&gt;サブバンク:楽天銀行</title><path fill="none" stroke="#333333" stroke-width="2" stroke-opacity="0.600000" d="M980.488,-262.0573C980.488,-239.1691 980.488,-203 980.488,-203 980.488,-203 1397.0893,-203 1397.0893,-203"></path><polygon fill="#333333" fill-opacity="0.600000" stroke="#333333" stroke-width="2" stroke-opacity="0.600000" points="1397.0893,-206.5001 1407.0893,-203 1397.0892,-199.5001 1397.0893,-206.5001"></polygon></g><!-- サブバンク:住信sbiネット銀行 --><g id="node4" class="node"><title>サブバンク:住信sbiネット銀行</title><path fill="#ffffff" stroke="#4b75b9" stroke-width="3" d="M1760.8342,-221.6C1760.8342,-221.6 1633.1658,-221.6 1633.1658,-221.6 1627.1658,-221.6 1621.1658,-215.6 1621.1658,-209.6 1621.1658,-209.6 1621.1658,-197.6 1621.1658,-197.6 1621.1658,-191.6 1627.1658,-185.6 1633.1658,-185.6 1633.1658,-185.6 1760.8342,-185.6 1760.8342,-185.6 1766.8342,-185.6 1772.8342,-191.6 1772.8342,-197.6 1772.8342,-197.6 1772.8342,-209.6 1772.8342,-209.6 1772.8342,-215.6 1766.8342,-221.6 1760.8342,-221.6"></path><text text-anchor="middle" x="1697" y="-199.4" font-family="Arial" font-size="14.00" fill="#333333">住信SBIネット銀行</text></g><!-- メインバンク:gmoあおぞらネット銀行&#45;&gt;サブバンク:住信sbiネット銀行 --><g id="edge-9" class="edge"><title>メインバンク:gmoあおぞらネット銀行-&gt;サブバンク:住信sbiネット銀行</title><path fill="none" stroke="#333333" stroke-width="2" stroke-opacity="0.600000" d="M988.8448,-280C1195.859,-280 1697,-280 1697,-280 1697,-280 1697,-231.7057 1697,-231.7057"></path><polygon fill="#333333" fill-opacity="0.600000" stroke="#333333" stroke-width="2" stroke-opacity="0.600000" points="1700.5001,-231.7057 1697,-221.7057 1693.5001,-231.7058 1700.5001,-231.7057"></polygon></g><!-- サブバンク:千葉銀行 --><g id="node6" class="node"><title>サブバンク:千葉銀行</title><path fill="#ffffff" stroke="#4b75b9" stroke-width="3" d="M1857.2416,-221.6C1857.2416,-221.6 1802.7584,-221.6 1802.7584,-221.6 1796.7584,-221.6 1790.7584,-215.6 1790.7584,-209.6 1790.7584,-209.6 1790.7584,-197.6 1790.7584,-197.6 1790.7584,-191.6 1796.7584,-185.6 1802.7584,-185.6 1802.7584,-185.6 1857.2416,-185.6 1857.2416,-185.6 1863.2416,-185.6 1869.2416,-191.6 1869.2416,-197.6 1869.2416,-197.6 1869.2416,-209.6 1869.2416,-209.6 1869.2416,-215.6 1863.2416,-221.6 1857.2416,-221.6"></path><text text-anchor="middle" x="1830" y="-199.4" font-family="Arial" font-size="14.00" fill="#333333">千葉銀行</text></g><!-- メインバンク:gmoあおぞらネット銀行&#45;&gt;サブバンク:千葉銀行 --><g id="edge-24" class="edge"><title>メインバンク:gmoあおぞらネット銀行-&gt;サブバンク:千葉銀行</title><path fill="none" stroke="#333333" stroke-width="2" stroke-opacity="0.600000" d="M988.8164,-289C1220.3949,-289 1830,-289 1830,-289 1830,-289 1830,-231.7111 1830,-231.7111"></path><polygon fill="#333333" fill-opacity="0.600000" stroke="#333333" stroke-width="2" stroke-opacity="0.600000" points="1833.5001,-231.7111 1830,-221.7111 1826.5001,-231.7112 1833.5001,-231.7111"></polygon></g><!-- クレジットカード:セゾンアメックス(家族) --><g id="node11" class="node"><title>クレジットカード:セゾンアメックス(家族)</title><path fill="#ffffff" stroke="#4b75b9" stroke-width="3" d="M1127.9045,-136.8C1127.9045,-136.8 976.0955,-136.8 976.0955,-136.8 970.0955,-136.8 964.0955,-130.8 964.0955,-124.8 964.0955,-124.8 964.0955,-112.8 964.0955,-112.8 964.0955,-106.8 970.0955,-100.8 976.0955,-100.8 976.0955,-100.8 1127.9045,-100.8 1127.9045,-100.8 1133.9045,-100.8 1139.9045,-106.8 1139.9045,-112.8 1139.9045,-112.8 1139.9045,-124.8 1139.9045,-124.8 1139.9045,-130.8 1133.9045,-136.8 1127.9045,-136.8"></path><text text-anchor="middle" x="1052" y="-114.6" font-family="Arial" font-size="14.00" fill="#333333">セゾンアメックス(家族)</text></g><!-- メインバンク:gmoあおぞらネット銀行&#45;&gt;クレジットカード:セゾンアメックス(家族) --><g id="edge-14" class="edge"><title>メインバンク:gmoあおぞらネット銀行-&gt;クレジットカード:セゾンアメックス(家族)</title><path fill="none" stroke="#333333" stroke-width="2" stroke-opacity="0.600000" d="M972.393,-262.1766C972.393,-262.1766 972.393,-147.2048 972.393,-147.2048"></path><polygon fill="#333333" fill-opacity="0.600000" stroke="#333333" stroke-width="2" stroke-opacity="0.600000" points="975.8931,-147.2048 972.393,-137.2048 968.8931,-147.2048 975.8931,-147.2048"></polygon></g><!-- クレジットカード:三井ショッピングパークカード --><g id="node12" class="node"><title>クレジットカード:三井ショッピングパークカード</title><path fill="#ffffff" stroke="#4b75b9" stroke-width="3" d="M1376.3594,-136.8C1376.3594,-136.8 1169.6406,-136.8 1169.6406,-136.8 1163.6406,-136.8 1157.6406,-130.8 1157.6406,-124.8 1157.6406,-124.8 1157.6406,-112.8 1157.6406,-112.8 1157.6406,-106.8 1163.6406,-100.8 1169.6406,-100.8 1169.6406,-100.8 1376.3594,-100.8 1376.3594,-100.8 1382.3594,-100.8 1388.3594,-106.8 1388.3594,-112.8 1388.3594,-112.8 1388.3594,-124.8 1388.3594,-124.8 1388.3594,-130.8 1382.3594,-136.8 1376.3594,-136.8"></path><text text-anchor="middle" x="1273" y="-114.6" font-family="Arial" font-size="14.00" fill="#333333">三井ショッピングパークカード</text></g><!-- メインバンク:gmoあおぞらネット銀行&#45;&gt;クレジットカード:三井ショッピングパークカード --><g id="edge-16" class="edge"><title>メインバンク:gmoあおぞらネット銀行-&gt;クレジットカード:三井ショッピングパークカード</title><path fill="none" stroke="#333333" stroke-width="2" stroke-opacity="0.600000" d="M988.6877,-271C1098.6672,-271 1273,-271 1273,-271 1273,-271 1273,-146.857 1273,-146.857"></path><polygon fill="#333333" fill-opacity="0.600000" stroke="#333333" stroke-width="2" stroke-opacity="0.600000" points="1276.5001,-146.857 1273,-136.857 1269.5001,-146.8571 1276.5001,-146.857"></polygon></g><!-- クレジットカード:amazon masterカード --><g id="node9" class="node"><title>クレジットカード:amazon masterカード</title><path fill="#ffffff" stroke="#4b75b9" stroke-width="3" d="M584.3934,-136.8C584.3934,-136.8 441.6066,-136.8 441.6066,-136.8 435.6066,-136.8 429.6066,-130.8 429.6066,-124.8 429.6066,-124.8 429.6066,-112.8 429.6066,-112.8 429.6066,-106.8 435.6066,-100.8 441.6066,-100.8 441.6066,-100.8 584.3934,-100.8 584.3934,-100.8 590.3934,-100.8 596.3934,-106.8 596.3934,-112.8 596.3934,-112.8 596.3934,-124.8 596.3934,-124.8 596.3934,-130.8 590.3934,-136.8 584.3934,-136.8"></path><text text-anchor="middle" x="513" y="-114.6" font-family="Arial" font-size="14.00" fill="#333333">Amazon Masterカード</text></g><!-- メインバンク:三菱ufj銀行&#45;&gt;クレジットカード:amazon masterカード --><g id="edge-12" class="edge"><title>メインバンク:三菱ufj銀行-&gt;クレジットカード:amazon masterカード</title><path fill="none" stroke="#333333" stroke-width="2" stroke-opacity="0.600000" d="M813.235,-197C714.2046,-197 513,-197 513,-197 513,-197 513,-146.9372 513,-146.9372"></path><polygon fill="#333333" fill-opacity="0.600000" stroke="#333333" stroke-width="2" stroke-opacity="0.600000" points="516.5001,-146.9372 513,-136.9372 509.5001,-146.9372 516.5001,-146.9372"></polygon></g><!-- クレジットカード:visa line payカード --><g id="node10" class="node"><title>クレジットカード:visa line payカード</title><path fill="#ffffff" stroke="#4b75b9" stroke-width="3" d="M934.6234,-136.8C934.6234,-136.8 799.3766,-136.8 799.3766,-136.8 793.3766,-136.8 787.3766,-130.8 787.3766,-124.8 787.3766,-124.8 787.3766,-112.8 787.3766,-112.8 787.3766,-106.8 793.3766,-100.8 799.3766,-100.8 799.3766,-100.8 934.6234,-100.8 934.6234,-100.8 940.6234,-100.8 946.6234,-106.8 946.6234,-112.8 946.6234,-112.8 946.6234,-124.8 946.6234,-124.8 946.6234,-130.8 940.6234,-136.8 934.6234,-136.8"></path><text text-anchor="middle" x="867" y="-114.6" font-family="Arial" font-size="14.00" fill="#333333">Visa LINE Payカード</text></g><!-- メインバンク:三菱ufj銀行&#45;&gt;クレジットカード:visa line payカード --><g id="edge-2" class="edge"><title>メインバンク:三菱ufj銀行-&gt;クレジットカード:visa line payカード</title><path fill="none" stroke="#333333" stroke-width="2" stroke-opacity="0.600000" d="M867,-185.1997C867,-185.1997 867,-146.8731 867,-146.8731"></path><polygon fill="#333333" fill-opacity="0.600000" stroke="#333333" stroke-width="2" stroke-opacity="0.600000" points="870.5001,-146.8731 867,-136.8731 863.5001,-146.8731 870.5001,-146.8731"></polygon></g><!-- クレジットカード:セブンカード(家族) --><g id="node13" class="node"><title>クレジットカード:セブンカード(家族)</title><path fill="#ffffff" stroke="#4b75b9" stroke-width="3" d="M757.4444,-136.8C757.4444,-136.8 626.5556,-136.8 626.5556,-136.8 620.5556,-136.8 614.5556,-130.8 614.5556,-124.8 614.5556,-124.8 614.5556,-112.8 614.5556,-112.8 614.5556,-106.8 620.5556,-100.8 626.5556,-100.8 626.5556,-100.8 757.4444,-100.8 757.4444,-100.8 763.4444,-100.8 769.4444,-106.8 769.4444,-112.8 769.4444,-112.8 769.4444,-124.8 769.4444,-124.8 769.4444,-130.8 763.4444,-136.8 757.4444,-136.8"></path><text text-anchor="middle" x="692" y="-114.6" font-family="Arial" font-size="14.00" fill="#333333">セブンカード(家族)</text></g><!-- メインバンク:三菱ufj銀行&#45;&gt;クレジットカード:セブンカード(家族) --><g id="edge-18" class="edge"><title>メインバンク:三菱ufj銀行-&gt;クレジットカード:セブンカード(家族)</title><path fill="none" stroke="#333333" stroke-width="2" stroke-opacity="0.600000" d="M813.0663,-191C761.6471,-191 692,-191 692,-191 692,-191 692,-147.0191 692,-147.0191"></path><polygon fill="#333333" fill-opacity="0.600000" stroke="#333333" stroke-width="2" stroke-opacity="0.600000" points="695.5001,-147.0191 692,-137.0191 688.5001,-147.0191 695.5001,-147.0191"></polygon></g><!-- プルデンシャル生命:生命保険 --><g id="node16" class="node"><title>プルデンシャル生命:生命保険</title><path fill="#ffffff" stroke="#4b75b9" stroke-width="3" d="M143.7289,-136.8C143.7289,-136.8 82.2711,-136.8 82.2711,-136.8 76.2711,-136.8 70.2711,-130.8 70.2711,-124.8 70.2711,-124.8 70.2711,-112.8 70.2711,-112.8 70.2711,-106.8 76.2711,-100.8 82.2711,-100.8 82.2711,-100.8 143.7289,-100.8 143.7289,-100.8 149.7289,-100.8 155.7289,-106.8 155.7289,-112.8 155.7289,-112.8 155.7289,-124.8 155.7289,-124.8 155.7289,-130.8 149.7289,-136.8 143.7289,-136.8"></path><text text-anchor="middle" x="113" y="-114.6" font-family="Arial" font-size="14.00" fill="#333333">生命保険</text></g><!-- メインバンク:三菱ufj銀行&#45;&gt;プルデンシャル生命:生命保険 --><g id="edge-20" class="edge"><title>メインバンク:三菱ufj銀行-&gt;プルデンシャル生命:生命保険</title><path fill="none" stroke="#333333" stroke-width="2" stroke-opacity="0.600000" d="M813.3786,-215C641.1206,-215 113,-215 113,-215 113,-215 113,-146.8945 113,-146.8945"></path><polygon fill="#333333" fill-opacity="0.600000" stroke="#333333" stroke-width="2" stroke-opacity="0.600000" points="116.5001,-146.8944 113,-136.8945 109.5001,-146.8945 116.5001,-146.8944"></polygon></g><!-- 県民共済:保険 --><g id="node17" class="node"><title>県民共済:保険</title><path fill="#ffffff" stroke="#4b75b9" stroke-width="3" d="M222,-136.8C222,-136.8 192,-136.8 192,-136.8 186,-136.8 180,-130.8 180,-124.8 180,-124.8 180,-112.8 180,-112.8 180,-106.8 186,-100.8 192,-100.8 192,-100.8 222,-100.8 222,-100.8 228,-100.8 234,-106.8 234,-112.8 234,-112.8 234,-124.8 234,-124.8 234,-130.8 228,-136.8 222,-136.8"></path><text text-anchor="middle" x="207" y="-114.6" font-family="Arial" font-size="14.00" fill="#333333">保険</text></g><!-- メインバンク:三菱ufj銀行&#45;&gt;県民共済:保険 --><g id="edge-21" class="edge"><title>メインバンク:三菱ufj銀行-&gt;県民共済:保険</title><path fill="none" stroke="#333333" stroke-width="2" stroke-opacity="0.600000" d="M813.2693,-209C655.8935,-209 207,-209 207,-209 207,-209 207,-147.0533 207,-147.0533"></path><polygon fill="#333333" fill-opacity="0.600000" stroke="#333333" stroke-width="2" stroke-opacity="0.600000" points="210.5001,-147.0533 207,-137.0533 203.5001,-147.0534 210.5001,-147.0533"></polygon></g><!-- 管理費・修繕積立金 --><g id="node22" class="node"><title>管理費・修繕積立金</title><path fill="none" stroke="#000000" stroke-width="2" d="M399.997,-136.8C399.997,-136.8 264.003,-136.8 264.003,-136.8 258.003,-136.8 252.003,-130.8 252.003,-124.8 252.003,-124.8 252.003,-112.8 252.003,-112.8 252.003,-106.8 258.003,-100.8 264.003,-100.8 264.003,-100.8 399.997,-100.8 399.997,-100.8 405.997,-100.8 411.997,-106.8 411.997,-112.8 411.997,-112.8 411.997,-124.8 411.997,-124.8 411.997,-130.8 405.997,-136.8 399.997,-136.8"></path><text text-anchor="middle" x="332" y="-114.6" font-family="Arial" font-size="14.00" fill="#000000">管理費・修繕積立金</text></g><!-- メインバンク:三菱ufj銀行&#45;&gt;管理費・修繕積立金 --><g id="edge-11" class="edge"><title>メインバンク:三菱ufj銀行-&gt;管理費・修繕積立金</title><path fill="none" stroke="#333333" stroke-width="2" stroke-opacity="0.600000" d="M813.2526,-203C677.5839,-203 332,-203 332,-203 332,-203 332,-147.0701 332,-147.0701"></path><polygon fill="#333333" fill-opacity="0.600000" stroke="#333333" stroke-width="2" stroke-opacity="0.600000" points="335.5001,-147.0701 332,-137.0701 328.5001,-147.0702 335.5001,-147.0701"></polygon></g><!-- クレジットカード:楽天カード --><g id="node14" class="node"><title>クレジットカード:楽天カード</title><path fill="#ffffff" stroke="#4b75b9" stroke-width="3" d="M1497.9548,-136.8C1497.9548,-136.8 1418.0452,-136.8 1418.0452,-136.8 1412.0452,-136.8 1406.0452,-130.8 1406.0452,-124.8 1406.0452,-124.8 1406.0452,-112.8 1406.0452,-112.8 1406.0452,-106.8 1412.0452,-100.8 1418.0452,-100.8 1418.0452,-100.8 1497.9548,-100.8 1497.9548,-100.8 1503.9548,-100.8 1509.9548,-106.8 1509.9548,-112.8 1509.9548,-112.8 1509.9548,-124.8 1509.9548,-124.8 1509.9548,-130.8 1503.9548,-136.8 1497.9548,-136.8"></path><text text-anchor="middle" x="1458" y="-114.6" font-family="Arial" font-size="14.00" fill="#333333">楽天カード</text></g><!-- サブバンク:楽天銀行&#45;&gt;クレジットカード:楽天カード --><g id="edge-5" class="edge"><title>サブバンク:楽天銀行-&gt;クレジットカード:楽天カード</title><path fill="none" stroke="#333333" stroke-width="2" stroke-opacity="0.600000" d="M1450,-185.1997C1450,-185.1997 1450,-146.8731 1450,-146.8731"></path><polygon fill="#333333" fill-opacity="0.600000" stroke="#333333" stroke-width="2" stroke-opacity="0.600000" points="1453.5001,-146.8731 1450,-136.8731 1446.5001,-146.8731 1453.5001,-146.8731"></polygon></g><!-- 住宅ローン --><g id="node21" class="node"><title>住宅ローン</title><path fill="none" stroke="#000000" stroke-width="2" d="M1751.2134,-136.8C1751.2134,-136.8 1668.7866,-136.8 1668.7866,-136.8 1662.7866,-136.8 1656.7866,-130.8 1656.7866,-124.8 1656.7866,-124.8 1656.7866,-112.8 1656.7866,-112.8 1656.7866,-106.8 1662.7866,-100.8 1668.7866,-100.8 1668.7866,-100.8 1751.2134,-100.8 1751.2134,-100.8 1757.2134,-100.8 1763.2134,-106.8 1763.2134,-112.8 1763.2134,-112.8 1763.2134,-124.8 1763.2134,-124.8 1763.2134,-130.8 1757.2134,-136.8 1751.2134,-136.8"></path><text text-anchor="middle" x="1710" y="-114.6" font-family="Arial" font-size="14.00" fill="#000000">住宅ローン</text></g><!-- サブバンク:住信sbiネット銀行&#45;&gt;住宅ローン --><g id="edge-10" class="edge"><title>サブバンク:住信sbiネット銀行-&gt;住宅ローン</title><path fill="none" stroke="#333333" stroke-width="2" stroke-opacity="0.600000" d="M1710,-185.1997C1710,-185.1997 1710,-146.8731 1710,-146.8731"></path><polygon fill="#333333" fill-opacity="0.600000" stroke="#333333" stroke-width="2" stroke-opacity="0.600000" points="1713.5001,-146.8731 1710,-136.8731 1706.5001,-146.8731 1713.5001,-146.8731"></polygon></g><!-- サブバンク:イオン銀行 --><g id="node5" class="node"><title>サブバンク:イオン銀行</title><path fill="#ffffff" stroke="#4b75b9" stroke-width="3" d="M1591.493,-221.6C1591.493,-221.6 1522.507,-221.6 1522.507,-221.6 1516.507,-221.6 1510.507,-215.6 1510.507,-209.6 1510.507,-209.6 1510.507,-197.6 1510.507,-197.6 1510.507,-191.6 1516.507,-185.6 1522.507,-185.6 1522.507,-185.6 1591.493,-185.6 1591.493,-185.6 1597.493,-185.6 1603.493,-191.6 1603.493,-197.6 1603.493,-197.6 1603.493,-209.6 1603.493,-209.6 1603.493,-215.6 1597.493,-221.6 1591.493,-221.6"></path><text text-anchor="middle" x="1557" y="-199.4" font-family="Arial" font-size="14.00" fill="#333333">イオン銀行</text></g><!-- クレジットカード:イオンカード --><g id="node15" class="node"><title>クレジットカード:イオンカード</title><path fill="#ffffff" stroke="#4b75b9" stroke-width="3" d="M1626.3683,-136.8C1626.3683,-136.8 1539.6317,-136.8 1539.6317,-136.8 1533.6317,-136.8 1527.6317,-130.8 1527.6317,-124.8 1527.6317,-124.8 1527.6317,-112.8 1527.6317,-112.8 1527.6317,-106.8 1533.6317,-100.8 1539.6317,-100.8 1539.6317,-100.8 1626.3683,-100.8 1626.3683,-100.8 1632.3683,-100.8 1638.3683,-106.8 1638.3683,-112.8 1638.3683,-112.8 1638.3683,-124.8 1638.3683,-124.8 1638.3683,-130.8 1632.3683,-136.8 1626.3683,-136.8"></path><text text-anchor="middle" x="1583" y="-114.6" font-family="Arial" font-size="14.00" fill="#333333">イオンカード</text></g><!-- サブバンク:イオン銀行&#45;&gt;クレジットカード:イオンカード --><g id="edge-22" class="edge"><title>サブバンク:イオン銀行-&gt;クレジットカード:イオンカード</title><path fill="none" stroke="#333333" stroke-width="2" stroke-opacity="0.600000" d="M1565.5312,-185.1997C1565.5312,-185.1997 1565.5312,-146.8731 1565.5312,-146.8731"></path><polygon fill="#333333" fill-opacity="0.600000" stroke="#333333" stroke-width="2" stroke-opacity="0.600000" points="1569.0313,-146.8731 1565.5312,-136.8731 1562.0313,-146.8731 1569.0313,-146.8731"></polygon></g><!-- 学費など --><g id="node27" class="node"><title>学費など</title><path fill="none" stroke="#000000" stroke-width="2" d="M1858.6533,-136.8C1858.6533,-136.8 1801.3467,-136.8 1801.3467,-136.8 1795.3467,-136.8 1789.3467,-130.8 1789.3467,-124.8 1789.3467,-124.8 1789.3467,-112.8 1789.3467,-112.8 1789.3467,-106.8 1795.3467,-100.8 1801.3467,-100.8 1801.3467,-100.8 1858.6533,-100.8 1858.6533,-100.8 1864.6533,-100.8 1870.6533,-106.8 1870.6533,-112.8 1870.6533,-112.8 1870.6533,-124.8 1870.6533,-124.8 1870.6533,-130.8 1864.6533,-136.8 1858.6533,-136.8"></path><text text-anchor="middle" x="1830" y="-114.6" font-family="Arial" font-size="14.00" fill="#000000">学費など</text></g><!-- サブバンク:千葉銀行&#45;&gt;学費など --><g id="edge-25" class="edge"><title>サブバンク:千葉銀行-&gt;学費など</title><path fill="none" stroke="#333333" stroke-width="2" stroke-opacity="0.600000" d="M1830,-185.1997C1830,-185.1997 1830,-146.8731 1830,-146.8731"></path><polygon fill="#333333" fill-opacity="0.600000" stroke="#333333" stroke-width="2" stroke-opacity="0.600000" points="1833.5001,-146.8731 1830,-136.8731 1826.5001,-146.8731 1833.5001,-146.8731"></polygon></g><!-- 楽天証券:積立nisa --><g id="node7" class="node"><title>楽天証券:積立nisa</title><path fill="#ffffff" stroke="#4b75b9" stroke-width="3" d="M1483.1886,-52C1483.1886,-52 1432.8114,-52 1432.8114,-52 1426.8114,-52 1420.8114,-46 1420.8114,-40 1420.8114,-40 1420.8114,-28 1420.8114,-28 1420.8114,-22 1426.8114,-16 1432.8114,-16 1432.8114,-16 1483.1886,-16 1483.1886,-16 1489.1886,-16 1495.1886,-22 1495.1886,-28 1495.1886,-28 1495.1886,-40 1495.1886,-40 1495.1886,-46 1489.1886,-52 1483.1886,-52"></path><text text-anchor="middle" x="1458" y="-29.8" font-family="Arial" font-size="14.00" fill="#333333">積立NISA</text></g><!-- 楽天証券:投資信託 --><g id="node8" class="node"><title>楽天証券:投資信託</title><path fill="#ffffff" stroke="#4b75b9" stroke-width="3" d="M1390.6878,-52C1390.6878,-52 1331.3122,-52 1331.3122,-52 1325.3122,-52 1319.3122,-46 1319.3122,-40 1319.3122,-40 1319.3122,-28 1319.3122,-28 1319.3122,-22 1325.3122,-16 1331.3122,-16 1331.3122,-16 1390.6878,-16 1390.6878,-16 1396.6878,-16 1402.6878,-22 1402.6878,-28 1402.6878,-28 1402.6878,-40 1402.6878,-40 1402.6878,-46 1396.6878,-52 1390.6878,-52"></path><text text-anchor="middle" x="1361" y="-29.8" font-family="Arial" font-size="14.00" fill="#333333">投資信託</text></g><!-- amazon --><g id="node23" class="node"><title>amazon</title><path fill="none" stroke="#000000" stroke-width="2" d="M534.8459,-52C534.8459,-52 491.1541,-52 491.1541,-52 485.1541,-52 479.1541,-46 479.1541,-40 479.1541,-40 479.1541,-28 479.1541,-28 479.1541,-22 485.1541,-16 491.1541,-16 491.1541,-16 534.8459,-16 534.8459,-16 540.8459,-16 546.8459,-22 546.8459,-28 546.8459,-28 546.8459,-40 546.8459,-40 546.8459,-46 540.8459,-52 534.8459,-52"></path><text text-anchor="middle" x="513" y="-29.8" font-family="Arial" font-size="14.00" fill="#000000">Amazon</text></g><!-- クレジットカード:amazon masterカード&#45;&gt;amazon --><g id="edge-13" class="edge"><title>クレジットカード:amazon masterカード-&gt;amazon</title><path fill="none" stroke="#333333" stroke-width="2" stroke-opacity="0.600000" d="M513,-100.3997C513,-100.3997 513,-62.0731 513,-62.0731"></path><polygon fill="#333333" fill-opacity="0.600000" stroke="#333333" stroke-width="2" stroke-opacity="0.600000" points="516.5001,-62.0731 513,-52.0731 509.5001,-62.0731 516.5001,-62.0731"></polygon></g><!-- 世界 --><g id="node19" class="node"><title>世界</title><path fill="none" stroke="#000000" stroke-width="2" d="M974,-52C974,-52 944,-52 944,-52 938,-52 932,-46 932,-40 932,-40 932,-28 932,-28 932,-22 938,-16 944,-16 944,-16 974,-16 974,-16 980,-16 986,-22 986,-28 986,-28 986,-40 986,-40 986,-46 980,-52 974,-52"></path><text text-anchor="middle" x="959" y="-29.8" font-family="Arial" font-size="14.00" fill="#000000">世界</text></g><!-- クレジットカード:visa line payカード&#45;&gt;世界 --><g id="edge-3" class="edge"><title>クレジットカード:visa line payカード-&gt;世界</title><path fill="none" stroke="#333333" stroke-width="2" stroke-opacity="0.600000" d="M939.2809,-100.3997C939.2809,-100.3997 939.2809,-62.0731 939.2809,-62.0731"></path><polygon fill="#333333" fill-opacity="0.600000" stroke="#333333" stroke-width="2" stroke-opacity="0.600000" points="942.7809,-62.0731 939.2809,-52.0731 935.7809,-62.0731 942.7809,-62.0731"></polygon></g><!-- クレジットカード:セゾンアメックス(家族)&#45;&gt;世界 --><g id="edge-15" class="edge"><title>クレジットカード:セゾンアメックス(家族)-&gt;世界</title><path fill="none" stroke="#333333" stroke-width="2" stroke-opacity="0.600000" d="M975.149,-100.3997C975.149,-100.3997 975.149,-62.0731 975.149,-62.0731"></path><polygon fill="#333333" fill-opacity="0.600000" stroke="#333333" stroke-width="2" stroke-opacity="0.600000" points="978.6491,-62.0731 975.149,-52.0731 971.6491,-62.0731 978.6491,-62.0731"></polygon></g><!-- ららぽーとなど --><g id="node24" class="node"><title>ららぽーとなど</title><path fill="none" stroke="#000000" stroke-width="2" d="M1289.382,-52C1289.382,-52 1182.618,-52 1182.618,-52 1176.618,-52 1170.618,-46 1170.618,-40 1170.618,-40 1170.618,-28 1170.618,-28 1170.618,-22 1176.618,-16 1182.618,-16 1182.618,-16 1289.382,-16 1289.382,-16 1295.382,-16 1301.382,-22 1301.382,-28 1301.382,-28 1301.382,-40 1301.382,-40 1301.382,-46 1295.382,-52 1289.382,-52"></path><text text-anchor="middle" x="1236" y="-29.8" font-family="Arial" font-size="14.00" fill="#000000">ららぽーとなど</text></g><!-- クレジットカード:三井ショッピングパークカード&#45;&gt;ららぽーとなど --><g id="edge-17" class="edge"><title>クレジットカード:三井ショッピングパークカード-&gt;ららぽーとなど</title><path fill="none" stroke="#333333" stroke-width="2" stroke-opacity="0.600000" d="M1236,-100.3997C1236,-100.3997 1236,-62.0731 1236,-62.0731"></path><polygon fill="#333333" fill-opacity="0.600000" stroke="#333333" stroke-width="2" stroke-opacity="0.600000" points="1239.5001,-62.0731 1236,-52.0731 1232.5001,-62.0731 1239.5001,-62.0731"></polygon></g><!-- イトーヨーカドー --><g id="node25" class="node"><title>イトーヨーカドー</title><path fill="none" stroke="#000000" stroke-width="2" d="M758.2368,-52C758.2368,-52 625.7632,-52 625.7632,-52 619.7632,-52 613.7632,-46 613.7632,-40 613.7632,-40 613.7632,-28 613.7632,-28 613.7632,-22 619.7632,-16 625.7632,-16 625.7632,-16 758.2368,-16 758.2368,-16 764.2368,-16 770.2368,-22 770.2368,-28 770.2368,-28 770.2368,-40 770.2368,-40 770.2368,-46 764.2368,-52 758.2368,-52"></path><text text-anchor="middle" x="692" y="-29.8" font-family="Arial" font-size="14.00" fill="#000000">イトーヨーカドー</text></g><!-- クレジットカード:セブンカード(家族)&#45;&gt;イトーヨーカドー --><g id="edge-19" class="edge"><title>クレジットカード:セブンカード(家族)-&gt;イトーヨーカドー</title><path fill="none" stroke="#333333" stroke-width="2" stroke-opacity="0.600000" d="M692,-100.3997C692,-100.3997 692,-62.0731 692,-62.0731"></path><polygon fill="#333333" fill-opacity="0.600000" stroke="#333333" stroke-width="2" stroke-opacity="0.600000" points="695.5001,-62.0731 692,-52.0731 688.5001,-62.0731 695.5001,-62.0731"></polygon></g><!-- クレジットカード:楽天カード&#45;&gt;楽天証券:積立nisa --><g id="edge-6" class="edge"><title>クレジットカード:楽天カード-&gt;楽天証券:積立nisa</title><path fill="none" stroke="#333333" stroke-width="2" stroke-opacity="0.600000" d="M1458,-100.3997C1458,-100.3997 1458,-62.0731 1458,-62.0731"></path><polygon fill="#333333" fill-opacity="0.600000" stroke="#333333" stroke-width="2" stroke-opacity="0.600000" points="1461.5001,-62.0731 1458,-52.0731 1454.5001,-62.0731 1461.5001,-62.0731"></polygon></g><!-- クレジットカード:楽天カード&#45;&gt;楽天証券:投資信託 --><g id="edge-7" class="edge"><title>クレジットカード:楽天カード-&gt;楽天証券:投資信託</title><path fill="none" stroke="#333333" stroke-width="2" stroke-opacity="0.600000" d="M1413.4646,-100.3997C1413.4646,-75.4593 1413.4646,-34 1413.4646,-34 1413.4646,-34 1412.4029,-34 1412.4029,-34"></path><polygon fill="#333333" fill-opacity="0.600000" stroke="#333333" stroke-width="2" stroke-opacity="0.600000" points="1412.8476,-30.5001 1402.8476,-34 1412.8475,-37.5001 1412.8476,-30.5001"></polygon></g><!-- 楽天市場 --><g id="node20" class="node"><title>楽天市場</title><path fill="none" stroke="#000000" stroke-width="2" d="M1574.6327,-52C1574.6327,-52 1525.3673,-52 1525.3673,-52 1519.3673,-52 1513.3673,-46 1513.3673,-40 1513.3673,-40 1513.3673,-28 1513.3673,-28 1513.3673,-22 1519.3673,-16 1525.3673,-16 1525.3673,-16 1574.6327,-16 1574.6327,-16 1580.6327,-16 1586.6327,-22 1586.6327,-28 1586.6327,-28 1586.6327,-40 1586.6327,-40 1586.6327,-46 1580.6327,-52 1574.6327,-52"></path><text text-anchor="middle" x="1550" y="-29.8" font-family="Arial" font-size="14.00" fill="#000000">楽天市場</text></g><!-- クレジットカード:楽天カード&#45;&gt;楽天市場 --><g id="edge-8" class="edge"><title>クレジットカード:楽天カード-&gt;楽天市場</title><path fill="none" stroke="#333333" stroke-width="2" stroke-opacity="0.600000" d="M1502.5355,-100.3997C1502.5355,-75.4593 1502.5355,-34 1502.5355,-34 1502.5355,-34 1503.5888,-34 1503.5888,-34"></path><polygon fill="#333333" fill-opacity="0.600000" stroke="#333333" stroke-width="2" stroke-opacity="0.600000" points="1503.0694,-37.5001 1513.0694,-34 1503.0693,-30.5001 1503.0694,-37.5001"></polygon></g><!-- イオン --><g id="node26" class="node"><title>イオン</title><path fill="none" stroke="#000000" stroke-width="2" d="M1650.9874,-52C1650.9874,-52 1617.0126,-52 1617.0126,-52 1611.0126,-52 1605.0126,-46 1605.0126,-40 1605.0126,-40 1605.0126,-28 1605.0126,-28 1605.0126,-22 1611.0126,-16 1617.0126,-16 1617.0126,-16 1650.9874,-16 1650.9874,-16 1656.9874,-16 1662.9874,-22 1662.9874,-28 1662.9874,-28 1662.9874,-40 1662.9874,-40 1662.9874,-46 1656.9874,-52 1650.9874,-52"></path><text text-anchor="middle" x="1634" y="-29.8" font-family="Arial" font-size="14.00" fill="#000000">イオン</text></g><!-- クレジットカード:イオンカード&#45;&gt;イオン --><g id="edge-23" class="edge"><title>クレジットカード:イオンカード-&gt;イオン</title><path fill="none" stroke="#333333" stroke-width="2" stroke-opacity="0.600000" d="M1621.7202,-100.3997C1621.7202,-100.3997 1621.7202,-62.0731 1621.7202,-62.0731"></path><polygon fill="#333333" fill-opacity="0.600000" stroke="#333333" stroke-width="2" stroke-opacity="0.600000" points="1625.2203,-62.0731 1621.7202,-52.0731 1618.2203,-62.0731 1625.2203,-62.0731"></polygon></g><!-- 会社 --><g id="node18" class="node"><title>会社</title><path fill="none" stroke="#000000" stroke-width="2" d="M916,-375.2C916,-375.2 886,-375.2 886,-375.2 880,-375.2 874,-369.2 874,-363.2 874,-363.2 874,-351.2 874,-351.2 874,-345.2 880,-339.2 886,-339.2 886,-339.2 916,-339.2 916,-339.2 922,-339.2 928,-345.2 928,-351.2 928,-351.2 928,-363.2 928,-363.2 928,-369.2 922,-375.2 916,-375.2"></path><text text-anchor="middle" x="901" y="-353" font-family="Arial" font-size="14.00" fill="#000000">会社</text></g><!-- 会社&#45;&gt;メインバンク:gmoあおぞらネット銀行 --><g id="edge-0" class="edge"><title>会社-&gt;メインバンク:gmoあおぞらネット銀行</title><path fill="none" stroke="#333333" stroke-width="2" stroke-opacity="0.600000" d="M901,-338.9995C901,-338.9995 901,-308.4699 901,-308.4699"></path><polygon fill="#333333" fill-opacity="0.600000" stroke="#333333" stroke-width="2" stroke-opacity="0.600000" points="904.5001,-308.4698 901,-298.4699 897.5001,-308.4699 904.5001,-308.4698"></polygon></g></g></svg>