<?xml version="1.0" encoding="UTF-8" standalone="no"?><!-- Generated by graphviz version 2.40.1 (20161225.0304)
 --><!-- Title: ndiag Pages: 1 --><svg width="736pt" height="391pt" viewBox="0.00 0.00 736.00 391.20" xmlns="http://www.w3.org/2000/svg" xmlns:xlink="http://www.w3.org/1999/xlink"><g id="graph0" class="graph" transform="scale(1 1) rotate(0) translate(4 387.2)"><title>ndiag</title><polygon fill="#ffffff" stroke="transparent" points="-4,4 -4,-387.2 731.9985,-387.2 731.9985,4 -4,4"></polygon><g id="clust6" class="cluster"><title>cluster_LINE</title><polygon fill="none" stroke="#000000" stroke-width="2" points="382,-92.8 382,-169.6 558,-169.6 558,-92.8 382,-92.8"></polygon><text text-anchor="middle" x="470" y="-153" font-family="Arial" font-size="14.00" fill="#000000">LINE</text></g><g id="clust5" class="cluster"><title>cluster_楽天証券</title><polygon fill="none" stroke="#000000" stroke-width="2" points="8,-8 8,-84.8 200,-84.8 200,-8 8,-8"></polygon><text text-anchor="middle" x="104" y="-68.2" font-family="Arial" font-size="14.00" fill="#000000">楽天証券</text></g><g id="clust4" class="cluster"><title>cluster_住信SBIネット銀行</title><polygon fill="none" stroke="#000000" stroke-width="2" points="223,-92.8 223,-254.4 374,-254.4 374,-92.8 223,-92.8"></polygon><text text-anchor="middle" x="298.5" y="-237.8" font-family="Arial" font-size="14.00" fill="#000000">住信SBIネット銀行</text></g><g id="clust3" class="cluster"><title>cluster_楽天銀行</title><polygon fill="none" stroke="#000000" stroke-width="2" points="95,-92.8 95,-254.4 215,-254.4 215,-92.8 95,-92.8"></polygon><text text-anchor="middle" x="155" y="-237.8" font-family="Arial" font-size="14.00" fill="#000000">楽天銀行</text></g><g id="clust2" class="cluster"><title>cluster_三菱UFJ銀行</title><polygon fill="none" stroke="#000000" stroke-width="2" points="417,-177.6 417,-254.4 524,-254.4 524,-177.6 417,-177.6"></polygon><text text-anchor="middle" x="470.5" y="-237.8" font-family="Arial" font-size="14.00" fill="#000000">三菱UFJ銀行</text></g><g id="clust1" class="cluster"><title>cluster_GMOあおぞらネット銀行</title><polygon fill="none" stroke="#000000" stroke-width="2" points="211,-262.4 211,-339.2 386,-339.2 386,-262.4 211,-262.4"></polygon><text text-anchor="middle" x="298.5" y="-322.6" font-family="Arial" font-size="14.00" fill="#000000">GMOあおぞらネット銀行</text></g><!-- gmoあおぞらネット銀行:普通口座 --><g id="node1" class="node"><title>gmoあおぞらネット銀行:普通口座</title><path fill="#ffffff" stroke="#4b75b9" stroke-width="3" d="M326.8514,-306.4C326.8514,-306.4 269.1486,-306.4 269.1486,-306.4 263.1486,-306.4 257.1486,-300.4 257.1486,-294.4 257.1486,-294.4 257.1486,-282.4 257.1486,-282.4 257.1486,-276.4 263.1486,-270.4 269.1486,-270.4 269.1486,-270.4 326.8514,-270.4 326.8514,-270.4 332.8514,-270.4 338.8514,-276.4 338.8514,-282.4 338.8514,-282.4 338.8514,-294.4 338.8514,-294.4 338.8514,-300.4 332.8514,-306.4 326.8514,-306.4"></path><text text-anchor="middle" x="298" y="-284.2" font-family="Arial" font-size="14.00" fill="#333333">普通口座</text></g><!-- 三菱ufj銀行:普通口座 --><g id="node2" class="node"><title>三菱ufj銀行:普通口座</title><path fill="#ffffff" stroke="#4b75b9" stroke-width="3" d="M498.8514,-221.6C498.8514,-221.6 441.1486,-221.6 441.1486,-221.6 435.1486,-221.6 429.1486,-215.6 429.1486,-209.6 429.1486,-209.6 429.1486,-197.6 429.1486,-197.6 429.1486,-191.6 435.1486,-185.6 441.1486,-185.6 441.1486,-185.6 498.8514,-185.6 498.8514,-185.6 504.8514,-185.6 510.8514,-191.6 510.8514,-197.6 510.8514,-197.6 510.8514,-209.6 510.8514,-209.6 510.8514,-215.6 504.8514,-221.6 498.8514,-221.6"></path><text text-anchor="middle" x="470" y="-199.4" font-family="Arial" font-size="14.00" fill="#333333">普通口座</text></g><!-- gmoあおぞらネット銀行:普通口座&#45;&gt;三菱ufj銀行:普通口座 --><g id="edge-1" class="edge"><title>gmoあおぞらネット銀行:普通口座-&gt;三菱ufj銀行:普通口座</title><path fill="none" stroke="#333333" stroke-width="2" stroke-opacity="0.600000" d="M338.7616,-288C389.6243,-288 470,-288 470,-288 470,-288 470,-231.9135 470,-231.9135"></path><polygon fill="#333333" fill-opacity="0.600000" stroke="#333333" stroke-width="2" stroke-opacity="0.600000" points="473.5001,-231.9135 470,-221.9135 466.5001,-231.9136 473.5001,-231.9135"></polygon></g><!-- 楽天銀行:普通口座 --><g id="node3" class="node"><title>楽天銀行:普通口座</title><path fill="#ffffff" stroke="#4b75b9" stroke-width="3" d="M188.8514,-221.6C188.8514,-221.6 131.1486,-221.6 131.1486,-221.6 125.1486,-221.6 119.1486,-215.6 119.1486,-209.6 119.1486,-209.6 119.1486,-197.6 119.1486,-197.6 119.1486,-191.6 125.1486,-185.6 131.1486,-185.6 131.1486,-185.6 188.8514,-185.6 188.8514,-185.6 194.8514,-185.6 200.8514,-191.6 200.8514,-197.6 200.8514,-197.6 200.8514,-209.6 200.8514,-209.6 200.8514,-215.6 194.8514,-221.6 188.8514,-221.6"></path><text text-anchor="middle" x="160" y="-199.4" font-family="Arial" font-size="14.00" fill="#333333">普通口座</text></g><!-- gmoあおぞらネット銀行:普通口座&#45;&gt;楽天銀行:普通口座 --><g id="edge-4" class="edge"><title>gmoあおぞらネット銀行:普通口座-&gt;楽天銀行:普通口座</title><path fill="none" stroke="#333333" stroke-width="2" stroke-opacity="0.600000" d="M256.9691,-288C216.2904,-288 160,-288 160,-288 160,-288 160,-231.9135 160,-231.9135"></path><polygon fill="#333333" fill-opacity="0.600000" stroke="#333333" stroke-width="2" stroke-opacity="0.600000" points="163.5001,-231.9135 160,-221.9135 156.5001,-231.9136 163.5001,-231.9135"></polygon></g><!-- 住信sbiネット銀行:普通口座 --><g id="node5" class="node"><title>住信sbiネット銀行:普通口座</title><path fill="#ffffff" stroke="#4b75b9" stroke-width="3" d="M326.8514,-221.6C326.8514,-221.6 269.1486,-221.6 269.1486,-221.6 263.1486,-221.6 257.1486,-215.6 257.1486,-209.6 257.1486,-209.6 257.1486,-197.6 257.1486,-197.6 257.1486,-191.6 263.1486,-185.6 269.1486,-185.6 269.1486,-185.6 326.8514,-185.6 326.8514,-185.6 332.8514,-185.6 338.8514,-191.6 338.8514,-197.6 338.8514,-197.6 338.8514,-209.6 338.8514,-209.6 338.8514,-215.6 332.8514,-221.6 326.8514,-221.6"></path><text text-anchor="middle" x="298" y="-199.4" font-family="Arial" font-size="14.00" fill="#333333">普通口座</text></g><!-- gmoあおぞらネット銀行:普通口座&#45;&gt;住信sbiネット銀行:普通口座 --><g id="edge-9" class="edge"><title>gmoあおぞらネット銀行:普通口座-&gt;住信sbiネット銀行:普通口座</title><path fill="none" stroke="#333333" stroke-width="2" stroke-opacity="0.600000" d="M298,-269.9997C298,-269.9997 298,-231.6731 298,-231.6731"></path><polygon fill="#333333" fill-opacity="0.600000" stroke="#333333" stroke-width="2" stroke-opacity="0.600000" points="301.5001,-231.6731 298,-221.6731 294.5001,-231.6731 301.5001,-231.6731"></polygon></g><!-- line:visa line payカード --><g id="node9" class="node"><title>line:visa line payカード</title><path fill="#ffffff" stroke="#4b75b9" stroke-width="3" d="M537.6234,-136.8C537.6234,-136.8 402.3766,-136.8 402.3766,-136.8 396.3766,-136.8 390.3766,-130.8 390.3766,-124.8 390.3766,-124.8 390.3766,-112.8 390.3766,-112.8 390.3766,-106.8 396.3766,-100.8 402.3766,-100.8 402.3766,-100.8 537.6234,-100.8 537.6234,-100.8 543.6234,-100.8 549.6234,-106.8 549.6234,-112.8 549.6234,-112.8 549.6234,-124.8 549.6234,-124.8 549.6234,-130.8 543.6234,-136.8 537.6234,-136.8"></path><text text-anchor="middle" x="470" y="-114.6" font-family="Arial" font-size="14.00" fill="#333333">Visa LINE Payカード</text></g><!-- 三菱ufj銀行:普通口座&#45;&gt;line:visa line payカード --><g id="edge-2" class="edge"><title>三菱ufj銀行:普通口座-&gt;line:visa line payカード</title><path fill="none" stroke="#333333" stroke-width="2" stroke-opacity="0.600000" d="M470,-185.1997C470,-185.1997 470,-146.8731 470,-146.8731"></path><polygon fill="#333333" fill-opacity="0.600000" stroke="#333333" stroke-width="2" stroke-opacity="0.600000" points="473.5001,-146.8731 470,-136.8731 466.5001,-146.8731 473.5001,-146.8731"></polygon></g><!-- 管理費・修繕積立金 --><g id="node13" class="node"><title>管理費・修繕積立金</title><path fill="none" stroke="#000000" stroke-width="2" d="M715.997,-136.8C715.997,-136.8 580.003,-136.8 580.003,-136.8 574.003,-136.8 568.003,-130.8 568.003,-124.8 568.003,-124.8 568.003,-112.8 568.003,-112.8 568.003,-106.8 574.003,-100.8 580.003,-100.8 580.003,-100.8 715.997,-100.8 715.997,-100.8 721.997,-100.8 727.997,-106.8 727.997,-112.8 727.997,-112.8 727.997,-124.8 727.997,-124.8 727.997,-130.8 721.997,-136.8 715.997,-136.8"></path><text text-anchor="middle" x="648" y="-114.6" font-family="Arial" font-size="14.00" fill="#000000">管理費・修繕積立金</text></g><!-- 三菱ufj銀行:普通口座&#45;&gt;管理費・修繕積立金 --><g id="edge-11" class="edge"><title>三菱ufj銀行:普通口座-&gt;管理費・修繕積立金</title><path fill="none" stroke="#333333" stroke-width="2" stroke-opacity="0.600000" d="M510.8368,-203C563.3885,-203 648,-203 648,-203 648,-203 648,-147.0701 648,-147.0701"></path><polygon fill="#333333" fill-opacity="0.600000" stroke="#333333" stroke-width="2" stroke-opacity="0.600000" points="651.5001,-147.0701 648,-137.0701 644.5001,-147.0702 651.5001,-147.0701"></polygon></g><!-- 楽天銀行:楽天カード --><g id="node4" class="node"><title>楽天銀行:楽天カード</title><path fill="#ffffff" stroke="#4b75b9" stroke-width="3" d="M194.9548,-136.8C194.9548,-136.8 115.0452,-136.8 115.0452,-136.8 109.0452,-136.8 103.0452,-130.8 103.0452,-124.8 103.0452,-124.8 103.0452,-112.8 103.0452,-112.8 103.0452,-106.8 109.0452,-100.8 115.0452,-100.8 115.0452,-100.8 194.9548,-100.8 194.9548,-100.8 200.9548,-100.8 206.9548,-106.8 206.9548,-112.8 206.9548,-112.8 206.9548,-124.8 206.9548,-124.8 206.9548,-130.8 200.9548,-136.8 194.9548,-136.8"></path><text text-anchor="middle" x="155" y="-114.6" font-family="Arial" font-size="14.00" fill="#333333">楽天カード</text></g><!-- 楽天銀行:普通口座&#45;&gt;楽天銀行:楽天カード --><g id="edge-5" class="edge"><title>楽天銀行:普通口座-&gt;楽天銀行:楽天カード</title><path fill="none" stroke="#333333" stroke-width="2" stroke-opacity="0.600000" d="M160,-185.1997C160,-185.1997 160,-146.8731 160,-146.8731"></path><polygon fill="#333333" fill-opacity="0.600000" stroke="#333333" stroke-width="2" stroke-opacity="0.600000" points="163.5001,-146.8731 160,-136.8731 156.5001,-146.8731 163.5001,-146.8731"></polygon></g><!-- 楽天証券:積立nisa --><g id="node7" class="node"><title>楽天証券:積立nisa</title><path fill="#ffffff" stroke="#4b75b9" stroke-width="3" d="M180.1886,-52C180.1886,-52 129.8114,-52 129.8114,-52 123.8114,-52 117.8114,-46 117.8114,-40 117.8114,-40 117.8114,-28 117.8114,-28 117.8114,-22 123.8114,-16 129.8114,-16 129.8114,-16 180.1886,-16 180.1886,-16 186.1886,-16 192.1886,-22 192.1886,-28 192.1886,-28 192.1886,-40 192.1886,-40 192.1886,-46 186.1886,-52 180.1886,-52"></path><text text-anchor="middle" x="155" y="-29.8" font-family="Arial" font-size="14.00" fill="#333333">積立NISA</text></g><!-- 楽天銀行:楽天カード&#45;&gt;楽天証券:積立nisa --><g id="edge-6" class="edge"><title>楽天銀行:楽天カード-&gt;楽天証券:積立nisa</title><path fill="none" stroke="#333333" stroke-width="2" stroke-opacity="0.600000" d="M155,-100.3997C155,-100.3997 155,-62.0731 155,-62.0731"></path><polygon fill="#333333" fill-opacity="0.600000" stroke="#333333" stroke-width="2" stroke-opacity="0.600000" points="158.5001,-62.0731 155,-52.0731 151.5001,-62.0731 158.5001,-62.0731"></polygon></g><!-- 楽天証券:投資信託 --><g id="node8" class="node"><title>楽天証券:投資信託</title><path fill="#ffffff" stroke="#4b75b9" stroke-width="3" d="M87.6878,-52C87.6878,-52 28.3122,-52 28.3122,-52 22.3122,-52 16.3122,-46 16.3122,-40 16.3122,-40 16.3122,-28 16.3122,-28 16.3122,-22 22.3122,-16 28.3122,-16 28.3122,-16 87.6878,-16 87.6878,-16 93.6878,-16 99.6878,-22 99.6878,-28 99.6878,-28 99.6878,-40 99.6878,-40 99.6878,-46 93.6878,-52 87.6878,-52"></path><text text-anchor="middle" x="58" y="-29.8" font-family="Arial" font-size="14.00" fill="#333333">投資信託</text></g><!-- 楽天銀行:楽天カード&#45;&gt;楽天証券:投資信託 --><g id="edge-7" class="edge"><title>楽天銀行:楽天カード-&gt;楽天証券:投資信託</title><path fill="none" stroke="#333333" stroke-width="2" stroke-opacity="0.600000" d="M110.4646,-100.3997C110.4646,-75.4593 110.4646,-34 110.4646,-34 110.4646,-34 109.4029,-34 109.4029,-34"></path><polygon fill="#333333" fill-opacity="0.600000" stroke="#333333" stroke-width="2" stroke-opacity="0.600000" points="109.8476,-30.5001 99.8476,-34 109.8475,-37.5001 109.8476,-30.5001"></polygon></g><!-- 楽天市場 --><g id="node12" class="node"><title>楽天市場</title><path fill="none" stroke="#000000" stroke-width="2" d="M271.6327,-52C271.6327,-52 222.3673,-52 222.3673,-52 216.3673,-52 210.3673,-46 210.3673,-40 210.3673,-40 210.3673,-28 210.3673,-28 210.3673,-22 216.3673,-16 222.3673,-16 222.3673,-16 271.6327,-16 271.6327,-16 277.6327,-16 283.6327,-22 283.6327,-28 283.6327,-28 283.6327,-40 283.6327,-40 283.6327,-46 277.6327,-52 271.6327,-52"></path><text text-anchor="middle" x="247" y="-29.8" font-family="Arial" font-size="14.00" fill="#000000">楽天市場</text></g><!-- 楽天銀行:楽天カード&#45;&gt;楽天市場 --><g id="edge-8" class="edge"><title>楽天銀行:楽天カード-&gt;楽天市場</title><path fill="none" stroke="#333333" stroke-width="2" stroke-opacity="0.600000" d="M199.5355,-100.3997C199.5355,-75.4593 199.5355,-34 199.5355,-34 199.5355,-34 200.5888,-34 200.5888,-34"></path><polygon fill="#333333" fill-opacity="0.600000" stroke="#333333" stroke-width="2" stroke-opacity="0.600000" points="200.0694,-37.5001 210.0694,-34 200.0693,-30.5001 200.0694,-37.5001"></polygon></g><!-- 住信sbiネット銀行:住宅ローン --><g id="node6" class="node"><title>住信sbiネット銀行:住宅ローン</title><path fill="#ffffff" stroke="#4b75b9" stroke-width="3" d="M339.2134,-136.8C339.2134,-136.8 256.7866,-136.8 256.7866,-136.8 250.7866,-136.8 244.7866,-130.8 244.7866,-124.8 244.7866,-124.8 244.7866,-112.8 244.7866,-112.8 244.7866,-106.8 250.7866,-100.8 256.7866,-100.8 256.7866,-100.8 339.2134,-100.8 339.2134,-100.8 345.2134,-100.8 351.2134,-106.8 351.2134,-112.8 351.2134,-112.8 351.2134,-124.8 351.2134,-124.8 351.2134,-130.8 345.2134,-136.8 339.2134,-136.8"></path><text text-anchor="middle" x="298" y="-114.6" font-family="Arial" font-size="14.00" fill="#333333">住宅ローン</text></g><!-- 住信sbiネット銀行:普通口座&#45;&gt;住信sbiネット銀行:住宅ローン --><g id="edge-10" class="edge"><title>住信sbiネット銀行:普通口座-&gt;住信sbiネット銀行:住宅ローン</title><path fill="none" stroke="#333333" stroke-width="2" stroke-opacity="0.600000" d="M298,-185.1997C298,-185.1997 298,-146.8731 298,-146.8731"></path><polygon fill="#333333" fill-opacity="0.600000" stroke="#333333" stroke-width="2" stroke-opacity="0.600000" points="301.5001,-146.8731 298,-136.8731 294.5001,-146.8731 301.5001,-146.8731"></polygon></g><!-- 世界 --><g id="node11" class="node"><title>世界</title><path fill="none" stroke="#000000" stroke-width="2" d="M485,-52C485,-52 455,-52 455,-52 449,-52 443,-46 443,-40 443,-40 443,-28 443,-28 443,-22 449,-16 455,-16 455,-16 485,-16 485,-16 491,-16 497,-22 497,-28 497,-28 497,-40 497,-40 497,-46 491,-52 485,-52"></path><text text-anchor="middle" x="470" y="-29.8" font-family="Arial" font-size="14.00" fill="#000000">世界</text></g><!-- line:visa line payカード&#45;&gt;世界 --><g id="edge-3" class="edge"><title>line:visa line payカード-&gt;世界</title><path fill="none" stroke="#333333" stroke-width="2" stroke-opacity="0.600000" d="M470,-100.3997C470,-100.3997 470,-62.0731 470,-62.0731"></path><polygon fill="#333333" fill-opacity="0.600000" stroke="#333333" stroke-width="2" stroke-opacity="0.600000" points="473.5001,-62.0731 470,-52.0731 466.5001,-62.0731 473.5001,-62.0731"></polygon></g><!-- 会社 --><g id="node10" class="node"><title>会社</title><path fill="none" stroke="#000000" stroke-width="2" d="M313,-383.2C313,-383.2 283,-383.2 283,-383.2 277,-383.2 271,-377.2 271,-371.2 271,-371.2 271,-359.2 271,-359.2 271,-353.2 277,-347.2 283,-347.2 283,-347.2 313,-347.2 313,-347.2 319,-347.2 325,-353.2 325,-359.2 325,-359.2 325,-371.2 325,-371.2 325,-377.2 319,-383.2 313,-383.2"></path><text text-anchor="middle" x="298" y="-361" font-family="Arial" font-size="14.00" fill="#000000">会社</text></g><!-- 会社&#45;&gt;gmoあおぞらネット銀行:普通口座 --><g id="edge-0" class="edge"><title>会社-&gt;gmoあおぞらネット銀行:普通口座</title><path fill="none" stroke="#333333" stroke-width="2" stroke-opacity="0.600000" d="M298,-346.9995C298,-346.9995 298,-316.4699 298,-316.4699"></path><polygon fill="#333333" fill-opacity="0.600000" stroke="#333333" stroke-width="2" stroke-opacity="0.600000" points="301.5001,-316.4698 298,-306.4699 294.5001,-316.4699 301.5001,-316.4698"></polygon></g></g></svg>